<?xml version="1.0" encoding="utf-8" standalone="no"?>
<!DOCTYPE svg PUBLIC "-//W3C//DTD SVG 1.1//EN"
  "http://www.w3.org/Graphics/SVG/1.1/DTD/svg11.dtd">
<svg xmlns:xlink="http://www.w3.org/1999/xlink" width="460.8pt" height="345.6pt" viewBox="0 0 460.8 345.6" xmlns="http://www.w3.org/2000/svg" version="1.1">
 <metadata>
  <rdf:RDF xmlns:dc="http://purl.org/dc/elements/1.1/" xmlns:cc="http://creativecommons.org/ns#" xmlns:rdf="http://www.w3.org/1999/02/22-rdf-syntax-ns#">
   <cc:Work>
    <dc:type rdf:resource="http://purl.org/dc/dcmitype/StillImage"/>
    <dc:date>2021-12-12T14:08:03.069667</dc:date>
    <dc:format>image/svg+xml</dc:format>
    <dc:creator>
     <cc:Agent>
      <dc:title>Matplotlib v3.5.0, https://matplotlib.org/</dc:title>
     </cc:Agent>
    </dc:creator>
   </cc:Work>
  </rdf:RDF>
 </metadata>
 <defs>
  <style type="text/css">*{stroke-linejoin: round; stroke-linecap: butt}</style>
 </defs>
 <g id="figure_1">
  <g id="patch_1">
   <path d="M 0 345.6 
L 460.8 345.6 
L 460.8 0 
L 0 0 
z
" style="fill: #ffffff"/>
  </g>
  <g id="axes_1">
   <g id="patch_2">
    <path d="M 57.6 307.584 
L 414.72 307.584 
L 414.72 41.472 
L 57.6 41.472 
z
" style="fill: #ffffff"/>
   </g>
   <g id="matplotlib.axis_1">
    <g id="xtick_1">
     <g id="line2d_1">
      <path d="M 73.832727 307.584 
L 73.832727 41.472 
" clip-path="url(#p25e8cd7805)" style="fill: none; stroke: #b0b0b0; stroke-width: 0.8; stroke-linecap: square"/>
     </g>
     <g id="line2d_2">
      <defs>
       <path id="m61de5d1cc7" d="M 0 0 
L 0 3.5 
" style="stroke: #000000; stroke-width: 0.8"/>
      </defs>
      <g>
       <use xlink:href="#m61de5d1cc7" x="73.832727" y="307.584" style="stroke: #000000; stroke-width: 0.8"/>
      </g>
     </g>
     <g id="text_1">
      <!-- 0 -->
      <g transform="translate(70.651477 322.182437)scale(0.1 -0.1)">
       <defs>
        <path id="DejaVuSans-30" d="M 2034 4250 
Q 1547 4250 1301 3770 
Q 1056 3291 1056 2328 
Q 1056 1369 1301 889 
Q 1547 409 2034 409 
Q 2525 409 2770 889 
Q 3016 1369 3016 2328 
Q 3016 3291 2770 3770 
Q 2525 4250 2034 4250 
z
M 2034 4750 
Q 2819 4750 3233 4129 
Q 3647 3509 3647 2328 
Q 3647 1150 3233 529 
Q 2819 -91 2034 -91 
Q 1250 -91 836 529 
Q 422 1150 422 2328 
Q 422 3509 836 4129 
Q 1250 4750 2034 4750 
z
" transform="scale(0.015625)"/>
       </defs>
       <use xlink:href="#DejaVuSans-30"/>
      </g>
     </g>
    </g>
    <g id="xtick_2">
     <g id="line2d_3">
      <path d="M 133.621778 307.584 
L 133.621778 41.472 
" clip-path="url(#p25e8cd7805)" style="fill: none; stroke: #b0b0b0; stroke-width: 0.8; stroke-linecap: square"/>
     </g>
     <g id="line2d_4">
      <g>
       <use xlink:href="#m61de5d1cc7" x="133.621778" y="307.584" style="stroke: #000000; stroke-width: 0.8"/>
      </g>
     </g>
     <g id="text_2">
      <!-- 200 -->
      <g transform="translate(124.078028 322.182437)scale(0.1 -0.1)">
       <defs>
        <path id="DejaVuSans-32" d="M 1228 531 
L 3431 531 
L 3431 0 
L 469 0 
L 469 531 
Q 828 903 1448 1529 
Q 2069 2156 2228 2338 
Q 2531 2678 2651 2914 
Q 2772 3150 2772 3378 
Q 2772 3750 2511 3984 
Q 2250 4219 1831 4219 
Q 1534 4219 1204 4116 
Q 875 4013 500 3803 
L 500 4441 
Q 881 4594 1212 4672 
Q 1544 4750 1819 4750 
Q 2544 4750 2975 4387 
Q 3406 4025 3406 3419 
Q 3406 3131 3298 2873 
Q 3191 2616 2906 2266 
Q 2828 2175 2409 1742 
Q 1991 1309 1228 531 
z
" transform="scale(0.015625)"/>
       </defs>
       <use xlink:href="#DejaVuSans-32"/>
       <use xlink:href="#DejaVuSans-30" x="63.623047"/>
       <use xlink:href="#DejaVuSans-30" x="127.246094"/>
      </g>
     </g>
    </g>
    <g id="xtick_3">
     <g id="line2d_5">
      <path d="M 193.410829 307.584 
L 193.410829 41.472 
" clip-path="url(#p25e8cd7805)" style="fill: none; stroke: #b0b0b0; stroke-width: 0.8; stroke-linecap: square"/>
     </g>
     <g id="line2d_6">
      <g>
       <use xlink:href="#m61de5d1cc7" x="193.410829" y="307.584" style="stroke: #000000; stroke-width: 0.8"/>
      </g>
     </g>
     <g id="text_3">
      <!-- 400 -->
      <g transform="translate(183.867079 322.182437)scale(0.1 -0.1)">
       <defs>
        <path id="DejaVuSans-34" d="M 2419 4116 
L 825 1625 
L 2419 1625 
L 2419 4116 
z
M 2253 4666 
L 3047 4666 
L 3047 1625 
L 3713 1625 
L 3713 1100 
L 3047 1100 
L 3047 0 
L 2419 0 
L 2419 1100 
L 313 1100 
L 313 1709 
L 2253 4666 
z
" transform="scale(0.015625)"/>
       </defs>
       <use xlink:href="#DejaVuSans-34"/>
       <use xlink:href="#DejaVuSans-30" x="63.623047"/>
       <use xlink:href="#DejaVuSans-30" x="127.246094"/>
      </g>
     </g>
    </g>
    <g id="xtick_4">
     <g id="line2d_7">
      <path d="M 253.199879 307.584 
L 253.199879 41.472 
" clip-path="url(#p25e8cd7805)" style="fill: none; stroke: #b0b0b0; stroke-width: 0.8; stroke-linecap: square"/>
     </g>
     <g id="line2d_8">
      <g>
       <use xlink:href="#m61de5d1cc7" x="253.199879" y="307.584" style="stroke: #000000; stroke-width: 0.8"/>
      </g>
     </g>
     <g id="text_4">
      <!-- 600 -->
      <g transform="translate(243.656129 322.182437)scale(0.1 -0.1)">
       <defs>
        <path id="DejaVuSans-36" d="M 2113 2584 
Q 1688 2584 1439 2293 
Q 1191 2003 1191 1497 
Q 1191 994 1439 701 
Q 1688 409 2113 409 
Q 2538 409 2786 701 
Q 3034 994 3034 1497 
Q 3034 2003 2786 2293 
Q 2538 2584 2113 2584 
z
M 3366 4563 
L 3366 3988 
Q 3128 4100 2886 4159 
Q 2644 4219 2406 4219 
Q 1781 4219 1451 3797 
Q 1122 3375 1075 2522 
Q 1259 2794 1537 2939 
Q 1816 3084 2150 3084 
Q 2853 3084 3261 2657 
Q 3669 2231 3669 1497 
Q 3669 778 3244 343 
Q 2819 -91 2113 -91 
Q 1303 -91 875 529 
Q 447 1150 447 2328 
Q 447 3434 972 4092 
Q 1497 4750 2381 4750 
Q 2619 4750 2861 4703 
Q 3103 4656 3366 4563 
z
" transform="scale(0.015625)"/>
       </defs>
       <use xlink:href="#DejaVuSans-36"/>
       <use xlink:href="#DejaVuSans-30" x="63.623047"/>
       <use xlink:href="#DejaVuSans-30" x="127.246094"/>
      </g>
     </g>
    </g>
    <g id="xtick_5">
     <g id="line2d_9">
      <path d="M 312.98893 307.584 
L 312.98893 41.472 
" clip-path="url(#p25e8cd7805)" style="fill: none; stroke: #b0b0b0; stroke-width: 0.8; stroke-linecap: square"/>
     </g>
     <g id="line2d_10">
      <g>
       <use xlink:href="#m61de5d1cc7" x="312.98893" y="307.584" style="stroke: #000000; stroke-width: 0.8"/>
      </g>
     </g>
     <g id="text_5">
      <!-- 800 -->
      <g transform="translate(303.44518 322.182437)scale(0.1 -0.1)">
       <defs>
        <path id="DejaVuSans-38" d="M 2034 2216 
Q 1584 2216 1326 1975 
Q 1069 1734 1069 1313 
Q 1069 891 1326 650 
Q 1584 409 2034 409 
Q 2484 409 2743 651 
Q 3003 894 3003 1313 
Q 3003 1734 2745 1975 
Q 2488 2216 2034 2216 
z
M 1403 2484 
Q 997 2584 770 2862 
Q 544 3141 544 3541 
Q 544 4100 942 4425 
Q 1341 4750 2034 4750 
Q 2731 4750 3128 4425 
Q 3525 4100 3525 3541 
Q 3525 3141 3298 2862 
Q 3072 2584 2669 2484 
Q 3125 2378 3379 2068 
Q 3634 1759 3634 1313 
Q 3634 634 3220 271 
Q 2806 -91 2034 -91 
Q 1263 -91 848 271 
Q 434 634 434 1313 
Q 434 1759 690 2068 
Q 947 2378 1403 2484 
z
M 1172 3481 
Q 1172 3119 1398 2916 
Q 1625 2713 2034 2713 
Q 2441 2713 2670 2916 
Q 2900 3119 2900 3481 
Q 2900 3844 2670 4047 
Q 2441 4250 2034 4250 
Q 1625 4250 1398 4047 
Q 1172 3844 1172 3481 
z
" transform="scale(0.015625)"/>
       </defs>
       <use xlink:href="#DejaVuSans-38"/>
       <use xlink:href="#DejaVuSans-30" x="63.623047"/>
       <use xlink:href="#DejaVuSans-30" x="127.246094"/>
      </g>
     </g>
    </g>
    <g id="xtick_6">
     <g id="line2d_11">
      <path d="M 372.777981 307.584 
L 372.777981 41.472 
" clip-path="url(#p25e8cd7805)" style="fill: none; stroke: #b0b0b0; stroke-width: 0.8; stroke-linecap: square"/>
     </g>
     <g id="line2d_12">
      <g>
       <use xlink:href="#m61de5d1cc7" x="372.777981" y="307.584" style="stroke: #000000; stroke-width: 0.8"/>
      </g>
     </g>
     <g id="text_6">
      <!-- 1000 -->
      <g transform="translate(360.052981 322.182437)scale(0.1 -0.1)">
       <defs>
        <path id="DejaVuSans-31" d="M 794 531 
L 1825 531 
L 1825 4091 
L 703 3866 
L 703 4441 
L 1819 4666 
L 2450 4666 
L 2450 531 
L 3481 531 
L 3481 0 
L 794 0 
L 794 531 
z
" transform="scale(0.015625)"/>
       </defs>
       <use xlink:href="#DejaVuSans-31"/>
       <use xlink:href="#DejaVuSans-30" x="63.623047"/>
       <use xlink:href="#DejaVuSans-30" x="127.246094"/>
       <use xlink:href="#DejaVuSans-30" x="190.869141"/>
      </g>
     </g>
    </g>
    <g id="text_7">
     <!-- Time [s] -->
     <g transform="translate(215.831094 335.860562)scale(0.1 -0.1)">
      <defs>
       <path id="DejaVuSans-54" d="M -19 4666 
L 3928 4666 
L 3928 4134 
L 2272 4134 
L 2272 0 
L 1638 0 
L 1638 4134 
L -19 4134 
L -19 4666 
z
" transform="scale(0.015625)"/>
       <path id="DejaVuSans-69" d="M 603 3500 
L 1178 3500 
L 1178 0 
L 603 0 
L 603 3500 
z
M 603 4863 
L 1178 4863 
L 1178 4134 
L 603 4134 
L 603 4863 
z
" transform="scale(0.015625)"/>
       <path id="DejaVuSans-6d" d="M 3328 2828 
Q 3544 3216 3844 3400 
Q 4144 3584 4550 3584 
Q 5097 3584 5394 3201 
Q 5691 2819 5691 2113 
L 5691 0 
L 5113 0 
L 5113 2094 
Q 5113 2597 4934 2840 
Q 4756 3084 4391 3084 
Q 3944 3084 3684 2787 
Q 3425 2491 3425 1978 
L 3425 0 
L 2847 0 
L 2847 2094 
Q 2847 2600 2669 2842 
Q 2491 3084 2119 3084 
Q 1678 3084 1418 2786 
Q 1159 2488 1159 1978 
L 1159 0 
L 581 0 
L 581 3500 
L 1159 3500 
L 1159 2956 
Q 1356 3278 1631 3431 
Q 1906 3584 2284 3584 
Q 2666 3584 2933 3390 
Q 3200 3197 3328 2828 
z
" transform="scale(0.015625)"/>
       <path id="DejaVuSans-65" d="M 3597 1894 
L 3597 1613 
L 953 1613 
Q 991 1019 1311 708 
Q 1631 397 2203 397 
Q 2534 397 2845 478 
Q 3156 559 3463 722 
L 3463 178 
Q 3153 47 2828 -22 
Q 2503 -91 2169 -91 
Q 1331 -91 842 396 
Q 353 884 353 1716 
Q 353 2575 817 3079 
Q 1281 3584 2069 3584 
Q 2775 3584 3186 3129 
Q 3597 2675 3597 1894 
z
M 3022 2063 
Q 3016 2534 2758 2815 
Q 2500 3097 2075 3097 
Q 1594 3097 1305 2825 
Q 1016 2553 972 2059 
L 3022 2063 
z
" transform="scale(0.015625)"/>
       <path id="DejaVuSans-20" transform="scale(0.015625)"/>
       <path id="DejaVuSans-5b" d="M 550 4863 
L 1875 4863 
L 1875 4416 
L 1125 4416 
L 1125 -397 
L 1875 -397 
L 1875 -844 
L 550 -844 
L 550 4863 
z
" transform="scale(0.015625)"/>
       <path id="DejaVuSans-73" d="M 2834 3397 
L 2834 2853 
Q 2591 2978 2328 3040 
Q 2066 3103 1784 3103 
Q 1356 3103 1142 2972 
Q 928 2841 928 2578 
Q 928 2378 1081 2264 
Q 1234 2150 1697 2047 
L 1894 2003 
Q 2506 1872 2764 1633 
Q 3022 1394 3022 966 
Q 3022 478 2636 193 
Q 2250 -91 1575 -91 
Q 1294 -91 989 -36 
Q 684 19 347 128 
L 347 722 
Q 666 556 975 473 
Q 1284 391 1588 391 
Q 1994 391 2212 530 
Q 2431 669 2431 922 
Q 2431 1156 2273 1281 
Q 2116 1406 1581 1522 
L 1381 1569 
Q 847 1681 609 1914 
Q 372 2147 372 2553 
Q 372 3047 722 3315 
Q 1072 3584 1716 3584 
Q 2034 3584 2315 3537 
Q 2597 3491 2834 3397 
z
" transform="scale(0.015625)"/>
       <path id="DejaVuSans-5d" d="M 1947 4863 
L 1947 -844 
L 622 -844 
L 622 -397 
L 1369 -397 
L 1369 4416 
L 622 4416 
L 622 4863 
L 1947 4863 
z
" transform="scale(0.015625)"/>
      </defs>
      <use xlink:href="#DejaVuSans-54"/>
      <use xlink:href="#DejaVuSans-69" x="57.958984"/>
      <use xlink:href="#DejaVuSans-6d" x="85.742188"/>
      <use xlink:href="#DejaVuSans-65" x="183.154297"/>
      <use xlink:href="#DejaVuSans-20" x="244.677734"/>
      <use xlink:href="#DejaVuSans-5b" x="276.464844"/>
      <use xlink:href="#DejaVuSans-73" x="315.478516"/>
      <use xlink:href="#DejaVuSans-5d" x="367.578125"/>
     </g>
    </g>
   </g>
   <g id="matplotlib.axis_2">
    <g id="ytick_1">
     <g id="line2d_13">
      <path d="M 57.6 285.162146 
L 414.72 285.162146 
" clip-path="url(#p25e8cd7805)" style="fill: none; stroke: #b0b0b0; stroke-width: 0.8; stroke-linecap: square"/>
     </g>
     <g id="line2d_14">
      <defs>
       <path id="mf0aedb0d5e" d="M 0 0 
L -3.5 0 
" style="stroke: #000000; stroke-width: 0.8"/>
      </defs>
      <g>
       <use xlink:href="#mf0aedb0d5e" x="57.6" y="285.162146" style="stroke: #000000; stroke-width: 0.8"/>
      </g>
     </g>
     <g id="text_8">
      <!-- −150 -->
      <g transform="translate(23.132812 288.961365)scale(0.1 -0.1)">
       <defs>
        <path id="DejaVuSans-2212" d="M 678 2272 
L 4684 2272 
L 4684 1741 
L 678 1741 
L 678 2272 
z
" transform="scale(0.015625)"/>
        <path id="DejaVuSans-35" d="M 691 4666 
L 3169 4666 
L 3169 4134 
L 1269 4134 
L 1269 2991 
Q 1406 3038 1543 3061 
Q 1681 3084 1819 3084 
Q 2600 3084 3056 2656 
Q 3513 2228 3513 1497 
Q 3513 744 3044 326 
Q 2575 -91 1722 -91 
Q 1428 -91 1123 -41 
Q 819 9 494 109 
L 494 744 
Q 775 591 1075 516 
Q 1375 441 1709 441 
Q 2250 441 2565 725 
Q 2881 1009 2881 1497 
Q 2881 1984 2565 2268 
Q 2250 2553 1709 2553 
Q 1456 2553 1204 2497 
Q 953 2441 691 2322 
L 691 4666 
z
" transform="scale(0.015625)"/>
       </defs>
       <use xlink:href="#DejaVuSans-2212"/>
       <use xlink:href="#DejaVuSans-31" x="83.789062"/>
       <use xlink:href="#DejaVuSans-35" x="147.412109"/>
       <use xlink:href="#DejaVuSans-30" x="211.035156"/>
      </g>
     </g>
    </g>
    <g id="ytick_2">
     <g id="line2d_15">
      <path d="M 57.6 248.284098 
L 414.72 248.284098 
" clip-path="url(#p25e8cd7805)" style="fill: none; stroke: #b0b0b0; stroke-width: 0.8; stroke-linecap: square"/>
     </g>
     <g id="line2d_16">
      <g>
       <use xlink:href="#mf0aedb0d5e" x="57.6" y="248.284098" style="stroke: #000000; stroke-width: 0.8"/>
      </g>
     </g>
     <g id="text_9">
      <!-- −100 -->
      <g transform="translate(23.132812 252.083316)scale(0.1 -0.1)">
       <use xlink:href="#DejaVuSans-2212"/>
       <use xlink:href="#DejaVuSans-31" x="83.789062"/>
       <use xlink:href="#DejaVuSans-30" x="147.412109"/>
       <use xlink:href="#DejaVuSans-30" x="211.035156"/>
      </g>
     </g>
    </g>
    <g id="ytick_3">
     <g id="line2d_17">
      <path d="M 57.6 211.406049 
L 414.72 211.406049 
" clip-path="url(#p25e8cd7805)" style="fill: none; stroke: #b0b0b0; stroke-width: 0.8; stroke-linecap: square"/>
     </g>
     <g id="line2d_18">
      <g>
       <use xlink:href="#mf0aedb0d5e" x="57.6" y="211.406049" style="stroke: #000000; stroke-width: 0.8"/>
      </g>
     </g>
     <g id="text_10">
      <!-- −50 -->
      <g transform="translate(29.495313 215.205268)scale(0.1 -0.1)">
       <use xlink:href="#DejaVuSans-2212"/>
       <use xlink:href="#DejaVuSans-35" x="83.789062"/>
       <use xlink:href="#DejaVuSans-30" x="147.412109"/>
      </g>
     </g>
    </g>
    <g id="ytick_4">
     <g id="line2d_19">
      <path d="M 57.6 174.528 
L 414.72 174.528 
" clip-path="url(#p25e8cd7805)" style="fill: none; stroke: #b0b0b0; stroke-width: 0.8; stroke-linecap: square"/>
     </g>
     <g id="line2d_20">
      <g>
       <use xlink:href="#mf0aedb0d5e" x="57.6" y="174.528" style="stroke: #000000; stroke-width: 0.8"/>
      </g>
     </g>
     <g id="text_11">
      <!-- 0 -->
      <g transform="translate(44.2375 178.327219)scale(0.1 -0.1)">
       <use xlink:href="#DejaVuSans-30"/>
      </g>
     </g>
    </g>
    <g id="ytick_5">
     <g id="line2d_21">
      <path d="M 57.6 137.649951 
L 414.72 137.649951 
" clip-path="url(#p25e8cd7805)" style="fill: none; stroke: #b0b0b0; stroke-width: 0.8; stroke-linecap: square"/>
     </g>
     <g id="line2d_22">
      <g>
       <use xlink:href="#mf0aedb0d5e" x="57.6" y="137.649951" style="stroke: #000000; stroke-width: 0.8"/>
      </g>
     </g>
     <g id="text_12">
      <!-- 50 -->
      <g transform="translate(37.875 141.44917)scale(0.1 -0.1)">
       <use xlink:href="#DejaVuSans-35"/>
       <use xlink:href="#DejaVuSans-30" x="63.623047"/>
      </g>
     </g>
    </g>
    <g id="ytick_6">
     <g id="line2d_23">
      <path d="M 57.6 100.771902 
L 414.72 100.771902 
" clip-path="url(#p25e8cd7805)" style="fill: none; stroke: #b0b0b0; stroke-width: 0.8; stroke-linecap: square"/>
     </g>
     <g id="line2d_24">
      <g>
       <use xlink:href="#mf0aedb0d5e" x="57.6" y="100.771902" style="stroke: #000000; stroke-width: 0.8"/>
      </g>
     </g>
     <g id="text_13">
      <!-- 100 -->
      <g transform="translate(31.5125 104.571121)scale(0.1 -0.1)">
       <use xlink:href="#DejaVuSans-31"/>
       <use xlink:href="#DejaVuSans-30" x="63.623047"/>
       <use xlink:href="#DejaVuSans-30" x="127.246094"/>
      </g>
     </g>
    </g>
    <g id="ytick_7">
     <g id="line2d_25">
      <path d="M 57.6 63.893854 
L 414.72 63.893854 
" clip-path="url(#p25e8cd7805)" style="fill: none; stroke: #b0b0b0; stroke-width: 0.8; stroke-linecap: square"/>
     </g>
     <g id="line2d_26">
      <g>
       <use xlink:href="#mf0aedb0d5e" x="57.6" y="63.893854" style="stroke: #000000; stroke-width: 0.8"/>
      </g>
     </g>
     <g id="text_14">
      <!-- 150 -->
      <g transform="translate(31.5125 67.693072)scale(0.1 -0.1)">
       <use xlink:href="#DejaVuSans-31"/>
       <use xlink:href="#DejaVuSans-35" x="63.623047"/>
       <use xlink:href="#DejaVuSans-30" x="127.246094"/>
      </g>
     </g>
    </g>
    <g id="text_15">
     <!-- Altitude variation from reference point [m] -->
     <g transform="translate(17.053125 281.147531)rotate(-90)scale(0.1 -0.1)">
      <defs>
       <path id="DejaVuSans-41" d="M 2188 4044 
L 1331 1722 
L 3047 1722 
L 2188 4044 
z
M 1831 4666 
L 2547 4666 
L 4325 0 
L 3669 0 
L 3244 1197 
L 1141 1197 
L 716 0 
L 50 0 
L 1831 4666 
z
" transform="scale(0.015625)"/>
       <path id="DejaVuSans-6c" d="M 603 4863 
L 1178 4863 
L 1178 0 
L 603 0 
L 603 4863 
z
" transform="scale(0.015625)"/>
       <path id="DejaVuSans-74" d="M 1172 4494 
L 1172 3500 
L 2356 3500 
L 2356 3053 
L 1172 3053 
L 1172 1153 
Q 1172 725 1289 603 
Q 1406 481 1766 481 
L 2356 481 
L 2356 0 
L 1766 0 
Q 1100 0 847 248 
Q 594 497 594 1153 
L 594 3053 
L 172 3053 
L 172 3500 
L 594 3500 
L 594 4494 
L 1172 4494 
z
" transform="scale(0.015625)"/>
       <path id="DejaVuSans-75" d="M 544 1381 
L 544 3500 
L 1119 3500 
L 1119 1403 
Q 1119 906 1312 657 
Q 1506 409 1894 409 
Q 2359 409 2629 706 
Q 2900 1003 2900 1516 
L 2900 3500 
L 3475 3500 
L 3475 0 
L 2900 0 
L 2900 538 
Q 2691 219 2414 64 
Q 2138 -91 1772 -91 
Q 1169 -91 856 284 
Q 544 659 544 1381 
z
M 1991 3584 
L 1991 3584 
z
" transform="scale(0.015625)"/>
       <path id="DejaVuSans-64" d="M 2906 2969 
L 2906 4863 
L 3481 4863 
L 3481 0 
L 2906 0 
L 2906 525 
Q 2725 213 2448 61 
Q 2172 -91 1784 -91 
Q 1150 -91 751 415 
Q 353 922 353 1747 
Q 353 2572 751 3078 
Q 1150 3584 1784 3584 
Q 2172 3584 2448 3432 
Q 2725 3281 2906 2969 
z
M 947 1747 
Q 947 1113 1208 752 
Q 1469 391 1925 391 
Q 2381 391 2643 752 
Q 2906 1113 2906 1747 
Q 2906 2381 2643 2742 
Q 2381 3103 1925 3103 
Q 1469 3103 1208 2742 
Q 947 2381 947 1747 
z
" transform="scale(0.015625)"/>
       <path id="DejaVuSans-76" d="M 191 3500 
L 800 3500 
L 1894 563 
L 2988 3500 
L 3597 3500 
L 2284 0 
L 1503 0 
L 191 3500 
z
" transform="scale(0.015625)"/>
       <path id="DejaVuSans-61" d="M 2194 1759 
Q 1497 1759 1228 1600 
Q 959 1441 959 1056 
Q 959 750 1161 570 
Q 1363 391 1709 391 
Q 2188 391 2477 730 
Q 2766 1069 2766 1631 
L 2766 1759 
L 2194 1759 
z
M 3341 1997 
L 3341 0 
L 2766 0 
L 2766 531 
Q 2569 213 2275 61 
Q 1981 -91 1556 -91 
Q 1019 -91 701 211 
Q 384 513 384 1019 
Q 384 1609 779 1909 
Q 1175 2209 1959 2209 
L 2766 2209 
L 2766 2266 
Q 2766 2663 2505 2880 
Q 2244 3097 1772 3097 
Q 1472 3097 1187 3025 
Q 903 2953 641 2809 
L 641 3341 
Q 956 3463 1253 3523 
Q 1550 3584 1831 3584 
Q 2591 3584 2966 3190 
Q 3341 2797 3341 1997 
z
" transform="scale(0.015625)"/>
       <path id="DejaVuSans-72" d="M 2631 2963 
Q 2534 3019 2420 3045 
Q 2306 3072 2169 3072 
Q 1681 3072 1420 2755 
Q 1159 2438 1159 1844 
L 1159 0 
L 581 0 
L 581 3500 
L 1159 3500 
L 1159 2956 
Q 1341 3275 1631 3429 
Q 1922 3584 2338 3584 
Q 2397 3584 2469 3576 
Q 2541 3569 2628 3553 
L 2631 2963 
z
" transform="scale(0.015625)"/>
       <path id="DejaVuSans-6f" d="M 1959 3097 
Q 1497 3097 1228 2736 
Q 959 2375 959 1747 
Q 959 1119 1226 758 
Q 1494 397 1959 397 
Q 2419 397 2687 759 
Q 2956 1122 2956 1747 
Q 2956 2369 2687 2733 
Q 2419 3097 1959 3097 
z
M 1959 3584 
Q 2709 3584 3137 3096 
Q 3566 2609 3566 1747 
Q 3566 888 3137 398 
Q 2709 -91 1959 -91 
Q 1206 -91 779 398 
Q 353 888 353 1747 
Q 353 2609 779 3096 
Q 1206 3584 1959 3584 
z
" transform="scale(0.015625)"/>
       <path id="DejaVuSans-6e" d="M 3513 2113 
L 3513 0 
L 2938 0 
L 2938 2094 
Q 2938 2591 2744 2837 
Q 2550 3084 2163 3084 
Q 1697 3084 1428 2787 
Q 1159 2491 1159 1978 
L 1159 0 
L 581 0 
L 581 3500 
L 1159 3500 
L 1159 2956 
Q 1366 3272 1645 3428 
Q 1925 3584 2291 3584 
Q 2894 3584 3203 3211 
Q 3513 2838 3513 2113 
z
" transform="scale(0.015625)"/>
       <path id="DejaVuSans-66" d="M 2375 4863 
L 2375 4384 
L 1825 4384 
Q 1516 4384 1395 4259 
Q 1275 4134 1275 3809 
L 1275 3500 
L 2222 3500 
L 2222 3053 
L 1275 3053 
L 1275 0 
L 697 0 
L 697 3053 
L 147 3053 
L 147 3500 
L 697 3500 
L 697 3744 
Q 697 4328 969 4595 
Q 1241 4863 1831 4863 
L 2375 4863 
z
" transform="scale(0.015625)"/>
       <path id="DejaVuSans-63" d="M 3122 3366 
L 3122 2828 
Q 2878 2963 2633 3030 
Q 2388 3097 2138 3097 
Q 1578 3097 1268 2742 
Q 959 2388 959 1747 
Q 959 1106 1268 751 
Q 1578 397 2138 397 
Q 2388 397 2633 464 
Q 2878 531 3122 666 
L 3122 134 
Q 2881 22 2623 -34 
Q 2366 -91 2075 -91 
Q 1284 -91 818 406 
Q 353 903 353 1747 
Q 353 2603 823 3093 
Q 1294 3584 2113 3584 
Q 2378 3584 2631 3529 
Q 2884 3475 3122 3366 
z
" transform="scale(0.015625)"/>
       <path id="DejaVuSans-70" d="M 1159 525 
L 1159 -1331 
L 581 -1331 
L 581 3500 
L 1159 3500 
L 1159 2969 
Q 1341 3281 1617 3432 
Q 1894 3584 2278 3584 
Q 2916 3584 3314 3078 
Q 3713 2572 3713 1747 
Q 3713 922 3314 415 
Q 2916 -91 2278 -91 
Q 1894 -91 1617 61 
Q 1341 213 1159 525 
z
M 3116 1747 
Q 3116 2381 2855 2742 
Q 2594 3103 2138 3103 
Q 1681 3103 1420 2742 
Q 1159 2381 1159 1747 
Q 1159 1113 1420 752 
Q 1681 391 2138 391 
Q 2594 391 2855 752 
Q 3116 1113 3116 1747 
z
" transform="scale(0.015625)"/>
      </defs>
      <use xlink:href="#DejaVuSans-41"/>
      <use xlink:href="#DejaVuSans-6c" x="68.408203"/>
      <use xlink:href="#DejaVuSans-74" x="96.191406"/>
      <use xlink:href="#DejaVuSans-69" x="135.400391"/>
      <use xlink:href="#DejaVuSans-74" x="163.183594"/>
      <use xlink:href="#DejaVuSans-75" x="202.392578"/>
      <use xlink:href="#DejaVuSans-64" x="265.771484"/>
      <use xlink:href="#DejaVuSans-65" x="329.248047"/>
      <use xlink:href="#DejaVuSans-20" x="390.771484"/>
      <use xlink:href="#DejaVuSans-76" x="422.558594"/>
      <use xlink:href="#DejaVuSans-61" x="481.738281"/>
      <use xlink:href="#DejaVuSans-72" x="543.017578"/>
      <use xlink:href="#DejaVuSans-69" x="584.130859"/>
      <use xlink:href="#DejaVuSans-61" x="611.914062"/>
      <use xlink:href="#DejaVuSans-74" x="673.193359"/>
      <use xlink:href="#DejaVuSans-69" x="712.402344"/>
      <use xlink:href="#DejaVuSans-6f" x="740.185547"/>
      <use xlink:href="#DejaVuSans-6e" x="801.367188"/>
      <use xlink:href="#DejaVuSans-20" x="864.746094"/>
      <use xlink:href="#DejaVuSans-66" x="896.533203"/>
      <use xlink:href="#DejaVuSans-72" x="931.738281"/>
      <use xlink:href="#DejaVuSans-6f" x="970.601562"/>
      <use xlink:href="#DejaVuSans-6d" x="1031.783203"/>
      <use xlink:href="#DejaVuSans-20" x="1129.195312"/>
      <use xlink:href="#DejaVuSans-72" x="1160.982422"/>
      <use xlink:href="#DejaVuSans-65" x="1199.845703"/>
      <use xlink:href="#DejaVuSans-66" x="1261.369141"/>
      <use xlink:href="#DejaVuSans-65" x="1296.574219"/>
      <use xlink:href="#DejaVuSans-72" x="1358.097656"/>
      <use xlink:href="#DejaVuSans-65" x="1396.960938"/>
      <use xlink:href="#DejaVuSans-6e" x="1458.484375"/>
      <use xlink:href="#DejaVuSans-63" x="1521.863281"/>
      <use xlink:href="#DejaVuSans-65" x="1576.84375"/>
      <use xlink:href="#DejaVuSans-20" x="1638.367188"/>
      <use xlink:href="#DejaVuSans-70" x="1670.154297"/>
      <use xlink:href="#DejaVuSans-6f" x="1733.630859"/>
      <use xlink:href="#DejaVuSans-69" x="1794.8125"/>
      <use xlink:href="#DejaVuSans-6e" x="1822.595703"/>
      <use xlink:href="#DejaVuSans-74" x="1885.974609"/>
      <use xlink:href="#DejaVuSans-20" x="1925.183594"/>
      <use xlink:href="#DejaVuSans-5b" x="1956.970703"/>
      <use xlink:href="#DejaVuSans-6d" x="1995.984375"/>
      <use xlink:href="#DejaVuSans-5d" x="2093.396484"/>
     </g>
    </g>
   </g>
   <g id="line2d_27">
    <path d="M 73.832727 174.528 
L 92.068388 174.528 
L 92.367333 172.462829 
L 92.666278 178.215805 
L 92.965224 179.469659 
L 93.563114 166.857366 
L 93.862059 175.929366 
L 94.161005 109.401366 
L 94.45995 174.528 
L 95.954676 174.528 
L 96.253621 176.445659 
L 96.552567 176.150634 
L 97.150457 171.651512 
L 97.449402 177.330732 
L 97.748348 177.330732 
L 98.047293 166.857366 
L 98.346238 174.528 
L 99.243074 174.528 
L 99.542019 181.313561 
L 99.840964 223.723317 
L 100.13991 174.528 
L 101.634636 174.528 
L 101.933581 181.534829 
L 102.232526 170.471415 
L 102.531472 174.528 
L 102.830417 174.528 
L 103.129362 152.99122 
L 103.428307 174.528 
L 105.520924 174.528 
L 105.819869 177.625756 
L 106.118815 176.740683 
L 106.41776 177.18322 
L 106.716705 294.012878 
L 107.01565 174.528 
L 109.407212 174.528 
L 109.706158 173.20039 
L 110.005103 174.15922 
L 110.304048 174.085463 
L 110.602993 175.486829 
L 110.901939 150.852293 
L 111.200884 174.528 
L 111.499829 174.528 
L 111.798774 155.941463 
L 112.09772 174.528 
L 114.190337 174.528 
L 114.489282 172.315317 
L 115.087172 172.905366 
L 115.386118 41.472 
L 115.685063 174.528 
L 160.825796 174.528 
L 161.124741 178.87961 
L 161.722632 176.371902 
L 162.021577 176.593171 
L 162.320522 177.330732 
L 162.619468 175.929366 
L 162.918413 177.035707 
L 163.217358 165.677268 
L 163.516303 174.528 
L 165.01103 174.528 
L 165.309975 178.87961 
L 165.60892 172.83161 
L 165.907865 174.528 
L 168.000482 174.528 
L 168.299427 179.764683 
L 168.598373 178.142049 
L 168.897318 177.330732 
L 169.196263 177.552 
L 169.495208 175.85561 
L 169.794154 175.486829 
L 170.093099 178.142049 
L 170.392044 175.708098 
L 170.690989 176.076878 
L 170.989935 154.908878 
L 171.28888 174.528 
L 173.680442 174.528 
L 173.979387 179.764683 
L 174.278332 160.219317 
L 174.577278 174.528 
L 175.175168 174.528 
L 175.474114 175.634341 
L 175.773059 176.150634 
L 176.072004 175.118049 
L 176.370949 175.413073 
L 176.669895 177.330732 
L 176.96884 176.519415 
L 177.56673 173.937951 
L 177.865676 174.823024 
L 178.463566 172.462829 
L 178.762511 173.790439 
L 179.061457 173.716683 
L 179.360402 174.232976 
L 179.659347 173.20039 
L 180.556183 173.126634 
L 180.855128 175.265561 
L 181.154073 175.486829 
L 181.453019 185.517659 
L 181.751964 174.528 
L 183.844581 174.528 
L 184.143526 174.085463 
L 184.442471 174.454244 
L 184.741416 172.979122 
L 185.040362 173.642927 
L 185.339307 173.052878 
L 185.638252 171.208976 
L 185.937197 174.011707 
L 186.236143 174.011707 
L 186.535088 172.684098 
L 186.834033 173.495415 
L 187.132978 176.888195 
L 187.431924 174.528 
L 188.328759 174.528 
L 188.627705 173.790439 
L 189.225595 173.347902 
L 189.52454 173.421659 
L 189.823486 173.20039 
L 190.122431 173.495415 
L 190.421376 174.085463 
L 190.720321 173.716683 
L 191.019267 164.349659 
L 191.318212 174.528 
L 196.101336 174.528 
L 196.400281 174.15922 
L 196.699227 174.380488 
L 196.998172 175.118049 
L 197.297117 174.823024 
L 197.596062 129.53678 
L 197.895008 174.528 
L 216.429613 174.528 
L 216.728559 175.781854 
L 217.027504 175.413073 
L 217.625394 175.634341 
L 217.92434 174.823024 
L 218.223285 175.708098 
L 218.52223 182.27239 
L 218.821175 179.395902 
L 219.120121 178.510829 
L 219.419066 178.215805 
L 219.718011 177.109463 
L 220.016956 177.773268 
L 220.315902 176.814439 
L 220.614847 176.445659 
L 220.913792 176.445659 
L 221.212737 175.85561 
L 221.511683 175.634341 
L 221.810628 175.634341 
L 222.109573 175.118049 
L 222.408518 175.118049 
L 222.707464 174.675512 
L 223.006409 175.265561 
L 223.604299 174.89678 
L 223.903245 175.044293 
L 224.20219 175.486829 
L 224.501135 174.823024 
L 224.80008 174.601756 
L 225.099026 174.232976 
L 225.397971 174.15922 
L 225.696916 175.044293 
L 225.995861 174.823024 
L 226.294807 174.89678 
L 226.593752 174.528 
L 226.892697 174.528 
L 227.191642 174.675512 
L 227.490588 174.970537 
L 227.789533 174.601756 
L 228.088478 174.823024 
L 228.387423 174.454244 
L 228.686369 174.970537 
L 228.985314 174.454244 
L 229.284259 174.89678 
L 230.181095 174.454244 
L 230.48004 174.601756 
L 230.778985 174.601756 
L 231.077931 174.306732 
L 231.376876 174.306732 
L 231.675821 174.601756 
L 231.974766 174.15922 
L 232.273712 174.823024 
L 232.572657 174.15922 
L 232.871602 173.864195 
L 233.170547 174.306732 
L 233.768438 174.085463 
L 234.067383 174.601756 
L 234.665274 174.085463 
L 234.964219 174.380488 
L 235.263164 174.454244 
L 235.562109 174.675512 
L 235.861055 174.232976 
L 236.16 174.232976 
L 236.458945 174.380488 
L 236.757891 174.232976 
L 237.056836 173.937951 
L 237.355781 174.085463 
L 237.654726 174.011707 
L 237.953672 174.15922 
L 238.551562 173.790439 
L 238.850507 174.380488 
L 239.149453 174.380488 
L 239.747343 174.15922 
L 240.046288 173.495415 
L 240.345234 173.937951 
L 240.644179 174.15922 
L 240.943124 174.15922 
L 241.541015 174.528 
L 241.83996 174.454244 
L 242.138905 174.601756 
L 242.43785 174.306732 
L 242.736796 174.380488 
L 243.035741 174.749268 
L 243.334686 174.454244 
L 243.932577 174.380488 
L 244.231522 173.937951 
L 244.530467 174.601756 
L 245.128358 174.15922 
L 245.427303 174.15922 
L 245.726248 174.380488 
L 246.324139 174.306732 
L 246.623084 174.15922 
L 246.922029 174.601756 
L 247.220974 174.380488 
L 247.51992 174.380488 
L 247.818865 174.15922 
L 248.11781 174.528 
L 248.416755 174.232976 
L 248.715701 174.306732 
L 249.313591 174.675512 
L 249.911482 174.528 
L 250.210427 174.749268 
L 250.509372 175.118049 
L 250.808317 174.823024 
L 251.107263 174.749268 
L 251.406208 175.560585 
L 251.705153 174.675512 
L 252.004098 174.89678 
L 252.303044 174.823024 
L 252.601989 174.89678 
L 253.199879 174.675512 
L 253.498825 174.749268 
L 253.79777 174.601756 
L 254.096715 174.89678 
L 254.694606 175.044293 
L 254.993551 174.970537 
L 255.292496 175.265561 
L 255.591441 176.371902 
L 255.890387 175.781854 
L 256.189332 175.85561 
L 256.488277 175.634341 
L 256.787223 176.150634 
L 257.086168 176.076878 
L 257.385113 175.339317 
L 257.684058 175.929366 
L 257.983004 175.486829 
L 258.281949 174.823024 
L 258.580894 175.118049 
L 259.178785 174.823024 
L 259.776675 174.749268 
L 260.07562 175.486829 
L 260.374566 174.89678 
L 260.673511 174.601756 
L 261.271401 175.118049 
L 261.869292 175.339317 
L 262.168237 175.486829 
L 262.467182 176.003122 
L 262.766128 175.265561 
L 263.065073 175.708098 
L 263.364018 174.970537 
L 263.961909 175.118049 
L 264.260854 175.413073 
L 264.559799 175.044293 
L 264.858744 176.076878 
L 265.15769 175.85561 
L 265.75558 174.89678 
L 266.054525 175.413073 
L 266.353471 175.044293 
L 266.652416 175.85561 
L 266.951361 175.265561 
L 267.250306 174.970537 
L 267.848197 174.89678 
L 268.147142 174.89678 
L 268.446087 174.675512 
L 269.043978 172.83161 
L 269.342923 174.528 
L 269.940814 174.675512 
L 270.239759 174.601756 
L 270.538704 174.15922 
L 270.837649 174.232976 
L 271.136595 174.970537 
L 271.734485 175.339317 
L 272.03343 175.708098 
L 272.332376 175.486829 
L 272.631321 174.675512 
L 272.930266 174.89678 
L 273.528157 175.708098 
L 273.827102 174.380488 
L 274.126047 175.265561 
L 274.424992 174.675512 
L 274.723938 175.339317 
L 275.022883 175.191805 
L 275.321828 175.339317 
L 275.620773 174.675512 
L 275.919719 174.749268 
L 276.218664 174.601756 
L 276.517609 174.89678 
L 276.816554 174.601756 
L 277.1155 174.970537 
L 277.414445 174.749268 
L 277.71339 175.118049 
L 278.012336 173.937951 
L 278.311281 174.380488 
L 278.610226 172.83161 
L 278.909171 172.83161 
L 279.208117 174.749268 
L 279.507062 174.454244 
L 279.806007 173.569171 
L 280.104952 174.749268 
L 280.702843 173.864195 
L 281.001788 174.306732 
L 281.300733 173.569171 
L 281.599679 173.937951 
L 281.898624 173.20039 
L 282.197569 173.495415 
L 282.496514 174.232976 
L 282.79546 176.371902 
L 283.39335 174.823024 
L 283.692295 174.823024 
L 283.991241 174.970537 
L 284.290186 174.749268 
L 284.589131 174.749268 
L 284.888076 174.970537 
L 285.187022 174.306732 
L 285.784912 174.232976 
L 286.382803 173.347902 
L 286.681748 173.864195 
L 286.980693 173.421659 
L 287.279638 173.569171 
L 287.578584 173.495415 
L 287.877529 173.790439 
L 288.176474 173.052878 
L 288.475419 173.569171 
L 288.774365 173.790439 
L 289.07331 173.569171 
L 289.372255 174.085463 
L 289.6712 173.569171 
L 290.269091 173.569171 
L 290.568036 174.011707 
L 290.866981 173.864195 
L 291.464872 174.306732 
L 291.763817 174.454244 
L 292.062762 174.454244 
L 292.660653 175.191805 
L 292.959598 174.675512 
L 293.258543 174.601756 
L 293.557489 174.380488 
L 294.155379 174.601756 
L 294.454324 174.454244 
L 294.75327 174.454244 
L 295.052215 174.232976 
L 295.35116 174.232976 
L 295.650105 174.380488 
L 296.546941 174.380488 
L 296.845886 174.601756 
L 297.144832 174.528 
L 297.443777 174.601756 
L 298.340613 174.306732 
L 298.938503 174.528 
L 299.237449 174.232976 
L 299.536394 174.823024 
L 299.835339 173.790439 
L 300.43323 172.905366 
L 300.732175 173.20039 
L 301.03112 173.937951 
L 301.629011 174.232976 
L 302.226901 174.15922 
L 302.525846 174.232976 
L 302.824792 174.528 
L 303.123737 174.15922 
L 304.020573 175.191805 
L 304.319518 175.044293 
L 304.618463 174.601756 
L 304.917408 174.454244 
L 305.216354 174.89678 
L 305.515299 174.675512 
L 305.814244 172.610341 
L 306.113189 174.528 
L 311.195259 174.528 
L 311.494204 174.085463 
L 311.793149 174.380488 
L 312.092094 175.339317 
L 312.39104 174.306732 
L 312.98893 174.15922 
L 313.287875 175.413073 
L 313.586821 173.495415 
L 314.184711 174.15922 
L 314.483656 174.15922 
L 314.782602 174.306732 
L 315.081547 174.306732 
L 315.380492 174.89678 
L 315.679437 174.970537 
L 315.978383 173.790439 
L 316.277328 175.191805 
L 316.576273 174.89678 
L 316.875218 175.191805 
L 317.174164 174.380488 
L 317.772054 176.003122 
L 318.070999 174.823024 
L 318.369945 174.15922 
L 318.967835 173.274146 
L 319.266781 174.454244 
L 319.565726 174.454244 
L 320.163616 175.044293 
L 320.462562 174.454244 
L 320.761507 173.495415 
L 321.060452 174.306732 
L 321.359397 174.232976 
L 321.658343 174.601756 
L 321.957288 173.274146 
L 322.256233 173.20039 
L 322.555178 172.979122 
L 322.854124 174.306732 
L 323.153069 174.15922 
L 323.452014 173.642927 
L 324.34885 172.979122 
L 324.647795 173.052878 
L 324.94674 172.020293 
L 326.142521 173.790439 
L 326.441467 173.642927 
L 326.740412 174.085463 
L 327.637248 174.085463 
L 327.936193 174.380488 
L 328.235138 174.011707 
L 328.534083 174.454244 
L 328.833029 174.232976 
L 329.131974 174.15922 
L 329.729864 175.118049 
L 330.02881 174.528 
L 330.327755 174.89678 
L 330.6267 174.454244 
L 330.925645 175.191805 
L 331.224591 174.085463 
L 331.523536 175.044293 
L 331.822481 175.044293 
L 332.121426 174.306732 
L 332.420372 175.265561 
L 332.719317 175.560585 
L 333.018262 174.749268 
L 333.317207 174.89678 
L 333.616153 174.89678 
L 333.915098 174.528 
L 334.214043 174.89678 
L 334.512988 175.486829 
L 335.409824 175.191805 
L 335.708769 174.601756 
L 336.007715 175.339317 
L 336.30666 176.593171 
L 336.90455 173.790439 
L 337.203496 175.118049 
L 337.502441 174.454244 
L 337.801386 175.634341 
L 338.100331 174.970537 
L 338.698222 174.15922 
L 338.997167 174.89678 
L 339.296113 174.749268 
L 339.595058 175.339317 
L 339.894003 174.454244 
L 340.192948 175.339317 
L 340.790839 174.011707 
L 341.089784 174.823024 
L 341.388729 174.528 
L 341.687675 174.970537 
L 341.98662 174.749268 
L 342.285565 175.044293 
L 342.58451 174.970537 
L 342.883456 175.044293 
L 343.182401 174.601756 
L 344.079237 174.970537 
L 344.378182 174.085463 
L 344.677127 174.89678 
L 344.976072 174.306732 
L 345.872908 174.232976 
L 346.470799 174.085463 
L 346.769744 174.232976 
L 347.068689 173.642927 
L 347.367634 173.864195 
L 347.66658 173.790439 
L 348.26447 174.454244 
L 348.563415 174.15922 
L 349.161306 174.232976 
L 349.460251 174.085463 
L 349.759196 174.085463 
L 350.058142 174.232976 
L 350.357087 174.15922 
L 350.656032 174.306732 
L 350.954977 174.15922 
L 351.552868 174.085463 
L 351.851813 174.528 
L 352.150758 174.306732 
L 353.047594 174.454244 
L 353.346539 174.454244 
L 353.645485 174.675512 
L 353.94443 174.454244 
L 354.243375 174.749268 
L 354.54232 174.601756 
L 355.439156 174.675512 
L 355.738101 174.454244 
L 356.933882 174.675512 
L 357.232828 174.380488 
L 357.531773 174.454244 
L 357.830718 174.380488 
L 358.129663 174.823024 
L 358.428609 174.89678 
L 358.727554 175.265561 
L 359.026499 173.716683 
L 359.325445 174.675512 
L 359.62439 174.085463 
L 359.923335 173.790439 
L 360.521226 174.528 
L 360.820171 176.003122 
L 361.119116 174.749268 
L 361.717007 174.380488 
L 362.015952 173.052878 
L 363.211733 175.265561 
L 363.510678 174.749268 
L 363.809623 174.970537 
L 364.108569 174.749268 
L 364.407514 175.044293 
L 364.706459 174.601756 
L 365.005404 174.970537 
L 365.30435 174.675512 
L 365.603295 175.339317 
L 365.90224 175.044293 
L 366.201185 175.191805 
L 366.500131 174.601756 
L 366.799076 174.528 
L 367.098021 173.864195 
L 367.695912 174.675512 
L 367.994857 174.823024 
L 368.293802 174.675512 
L 368.891693 174.232976 
L 369.190638 174.823024 
L 369.489583 173.937951 
L 370.087474 174.15922 
L 370.386419 173.937951 
L 370.685364 174.601756 
L 370.984309 174.306732 
L 371.283255 174.232976 
L 371.5822 174.823024 
L 371.881145 174.306732 
L 372.18009 174.454244 
L 372.479036 174.232976 
L 372.777981 174.380488 
L 373.076926 174.970537 
L 373.674817 173.642927 
L 373.973762 173.569171 
L 374.272707 174.380488 
L 374.571652 174.675512 
L 374.870598 173.937951 
L 375.169543 174.085463 
L 375.468488 174.454244 
L 376.664269 174.380488 
L 376.963214 174.675512 
L 377.26216 174.380488 
L 377.561105 174.306732 
L 377.86005 175.265561 
L 378.158995 174.528 
L 378.457941 174.823024 
L 378.756886 174.601756 
L 379.952667 174.89678 
L 380.251612 174.454244 
L 380.550558 174.970537 
L 381.447393 174.970537 
L 381.746339 174.601756 
L 382.045284 174.970537 
L 382.344229 174.675512 
L 382.643174 174.89678 
L 382.94212 174.89678 
L 383.241065 174.454244 
L 383.54001 174.89678 
L 383.838955 174.380488 
L 384.137901 174.528 
L 384.436846 174.528 
L 385.034736 175.265561 
L 385.333682 174.749268 
L 385.632627 174.528 
L 386.230517 174.749268 
L 386.529463 174.749268 
L 386.828408 174.970537 
L 387.127353 175.781854 
L 387.426298 175.413073 
L 387.725244 175.265561 
L 388.024189 174.89678 
L 388.323134 175.191805 
L 388.622079 174.970537 
L 388.921025 174.454244 
L 389.21997 174.749268 
L 389.518915 174.528 
L 390.116806 174.454244 
L 390.415751 174.15922 
L 390.714696 174.085463 
L 391.013641 174.601756 
L 391.312587 174.380488 
L 391.611532 174.528 
L 391.910477 174.380488 
L 392.209422 174.675512 
L 392.508368 174.675512 
L 392.807313 174.823024 
L 394.003094 174.528 
L 394.89993 174.675512 
L 397.291492 174.601756 
L 397.590437 174.528 
L 397.889382 174.675512 
L 398.188327 174.528 
L 398.487273 174.675512 
L 398.487273 174.675512 
" clip-path="url(#p25e8cd7805)" style="fill: none; stroke: #1f77b4; stroke-width: 1.5; stroke-linecap: square"/>
   </g>
   <g id="line2d_28">
    <path d="M 73.832727 174.528 
L 78.914797 174.506156 
L 79.811632 174.377445 
L 80.110578 174.685567 
L 80.409523 174.801574 
L 80.708468 174.637436 
L 81.904249 174.538639 
L 82.50214 175.00554 
L 83.10003 174.531276 
L 83.398975 174.827376 
L 83.697921 174.599138 
L 83.996866 174.644338 
L 84.295811 174.52036 
L 84.893702 174.627171 
L 85.192647 174.522721 
L 86.089483 174.548799 
L 86.687373 174.390334 
L 86.986318 174.459493 
L 87.584209 174.39613 
L 87.883154 174.394673 
L 88.182099 174.219724 
L 88.481045 174.183362 
L 88.77999 174.311206 
L 89.078935 174.253959 
L 89.37788 174.388693 
L 89.676826 174.273671 
L 90.274716 174.4331 
L 90.573661 174.29664 
L 90.872607 174.501872 
L 91.470497 174.479192 
L 91.769442 174.518412 
L 92.068388 174.34463 
L 92.367333 174.530698 
L 92.666278 174.458952 
L 92.965224 174.572875 
L 93.862059 174.463574 
L 94.161005 174.749576 
L 94.45995 174.705507 
L 94.758895 174.535407 
L 95.655731 174.674393 
L 96.552567 174.561 
L 96.851512 174.513494 
L 97.748348 174.721905 
L 98.047293 174.507975 
L 98.346238 174.763608 
L 98.645183 174.149471 
L 98.944129 174.945109 
L 99.243074 174.513851 
L 99.840964 174.905539 
L 100.13991 174.081014 
L 100.7378 175.404923 
L 101.335691 174.917069 
L 101.634636 174.819545 
L 101.933581 175.126254 
L 102.232526 174.645285 
L 102.531472 175.401807 
L 102.830417 175.450824 
L 103.129362 175.36579 
L 103.428307 175.482447 
L 103.727253 175.421616 
L 104.026198 175.237798 
L 104.325143 176.036564 
L 104.624088 175.549116 
L 104.923034 175.372415 
L 105.221979 174.796743 
L 105.520924 175.178756 
L 106.118815 174.822477 
L 106.41776 175.251996 
L 106.716705 174.685328 
L 107.314596 175.469718 
L 107.613541 174.776453 
L 107.912486 175.095664 
L 108.510377 175.353404 
L 108.809322 174.77303 
L 109.407212 175.292697 
L 109.706158 175.2143 
L 110.304048 175.909354 
L 110.602993 175.862991 
L 110.901939 175.676303 
L 111.499829 174.853854 
L 112.396665 175.080704 
L 112.69561 175.367535 
L 112.994555 174.767136 
L 113.293501 174.608265 
L 113.891391 174.67869 
L 114.788227 174.327703 
L 115.386118 174.529905 
L 116.581899 174.440144 
L 117.179789 174.60746 
L 118.37557 174.475486 
L 119.571351 174.50371 
L 119.870296 174.359934 
L 120.169242 174.562075 
L 121.663968 174.332774 
L 121.962913 174.54966 
L 122.560804 174.556077 
L 122.859749 174.611597 
L 123.457639 174.462812 
L 123.756585 174.576433 
L 124.354475 174.523716 
L 124.65342 174.585345 
L 125.251311 174.425411 
L 126.148147 174.612899 
L 126.746037 174.333966 
L 127.044982 174.592745 
L 127.343928 174.482277 
L 127.642873 174.55588 
L 127.941818 174.441097 
L 128.539709 174.615456 
L 128.838654 174.546986 
L 129.137599 174.60797 
L 129.436544 174.428374 
L 130.034435 174.589949 
L 130.632325 174.450445 
L 130.931271 174.561651 
L 131.230216 174.325748 
L 131.828106 174.61647 
L 132.127052 174.50028 
L 132.724942 174.517871 
L 133.023887 174.420377 
L 133.621778 174.560526 
L 134.219669 174.531135 
L 134.518614 174.372362 
L 134.817559 174.578025 
L 136.312285 174.479887 
L 136.611231 174.596206 
L 138.105957 174.448214 
L 138.404902 174.553532 
L 139.600683 174.465799 
L 139.899628 174.594884 
L 142.889081 174.501159 
L 143.188026 174.389296 
L 143.785917 174.581436 
L 145.579588 174.553071 
L 145.878533 174.440544 
L 146.177479 174.566347 
L 146.476424 174.474146 
L 146.775369 174.590687 
L 147.37326 174.352595 
L 147.672205 174.516359 
L 148.867986 174.490237 
L 149.166931 174.371274 
L 149.465876 174.712482 
L 149.764822 174.517041 
L 150.362712 174.527078 
L 150.661657 174.538584 
L 150.960603 174.382676 
L 151.259548 174.630355 
L 152.455329 174.615333 
L 152.754274 174.699293 
L 153.352165 174.589808 
L 153.950055 174.563206 
L 154.249001 174.519186 
L 154.547946 174.684492 
L 154.846891 174.530895 
L 155.145836 174.582795 
L 156.042672 174.284279 
L 156.341617 174.602008 
L 156.640563 174.667375 
L 156.939508 174.51921 
L 157.238453 174.542462 
L 157.537398 174.353475 
L 157.836344 174.643828 
L 158.135289 174.5176 
L 158.733179 174.588504 
L 159.33107 174.412485 
L 159.630015 174.572942 
L 159.92896 174.423137 
L 160.227906 174.4535 
L 160.526851 174.77847 
L 160.825796 174.166079 
L 161.124741 174.423611 
L 161.722632 174.353591 
L 162.021577 174.640797 
L 162.320522 174.690755 
L 162.619468 174.135083 
L 162.918413 174.489155 
L 163.217358 174.33184 
L 164.114194 174.568431 
L 164.413139 174.427569 
L 164.712084 174.840185 
L 165.01103 174.280149 
L 165.907865 174.430353 
L 166.206811 174.363272 
L 166.505756 174.5317 
L 167.103646 174.280235 
L 167.701537 174.412179 
L 168.000482 174.192194 
L 168.299427 174.329682 
L 168.598373 174.31088 
L 168.897318 174.62317 
L 169.196263 174.654086 
L 169.495208 174.263553 
L 169.794154 174.223793 
L 170.093099 174.371071 
L 170.989935 174.349732 
L 171.28888 174.537232 
L 171.88677 174.383954 
L 172.185716 173.951424 
L 172.783606 174.174795 
L 173.082551 174.124235 
L 173.381497 174.263898 
L 173.680442 174.259528 
L 173.979387 174.507373 
L 174.278332 174.472732 
L 174.577278 174.307869 
L 175.474114 174.488313 
L 175.773059 174.76665 
L 176.072004 174.44964 
L 176.96884 174.005838 
L 177.267785 174.468915 
L 177.56673 174.597263 
L 178.164621 174.447471 
L 178.463566 174.162256 
L 179.061457 174.277887 
L 179.659347 174.3153 
L 179.958292 174.452769 
L 180.257238 174.285164 
L 180.556183 174.293763 
L 180.855128 174.492769 
L 181.154073 173.598686 
L 181.453019 174.458166 
L 181.751964 174.855711 
L 182.6488 174.542573 
L 182.947745 174.702181 
L 183.24669 174.5139 
L 183.545635 175.0027 
L 183.844581 174.937273 
L 184.741416 174.413205 
L 185.040362 174.61459 
L 185.638252 174.624491 
L 186.236143 174.482953 
L 188.92665 174.550631 
L 189.225595 174.421435 
L 191.019267 174.585376 
L 191.318212 174.406315 
L 191.617157 174.568228 
L 193.111883 174.360125 
L 193.410829 174.582641 
L 194.60661 174.58076 
L 195.2045 174.517121 
L 196.400281 174.328182 
L 196.699227 174.693619 
L 196.998172 174.539358 
L 197.596062 174.538344 
L 197.895008 174.442467 
L 198.492898 174.528 
L 199.090789 174.520538 
L 199.389734 174.42157 
L 199.688679 174.616421 
L 200.88446 174.377089 
L 201.183405 174.537675 
L 201.482351 174.508313 
L 201.781296 174.633551 
L 202.379186 174.457587 
L 202.678132 174.442603 
L 202.977077 174.633213 
L 203.276022 174.531767 
L 203.574967 174.597742 
L 203.873913 174.475725 
L 204.770748 174.544792 
L 205.667584 174.514091 
L 205.966529 174.371852 
L 206.265475 174.587601 
L 207.16231 174.539899 
L 208.657037 174.540563 
L 208.955982 174.550575 
L 209.254927 173.780119 
L 209.553872 174.776995 
L 210.749653 174.584171 
L 211.048599 174.425129 
L 211.347544 174.648671 
L 211.646489 174.503415 
L 211.945434 174.649679 
L 212.24438 174.592838 
L 212.543325 174.350819 
L 212.84227 174.580483 
L 214.038051 174.392073 
L 214.336996 174.618634 
L 215.532777 174.545136 
L 215.831723 174.282558 
L 216.130668 174.60218 
L 216.429613 174.53055 
L 216.728559 174.652033 
L 217.027504 174.39846 
L 217.326449 174.573489 
L 217.92434 174.551915 
L 218.223285 174.619107 
L 218.52223 174.456506 
L 218.821175 174.594847 
L 220.315902 174.380309 
L 220.614847 174.563814 
L 221.810628 174.567712 
L 222.109573 174.405104 
L 222.707464 174.540901 
L 224.80008 174.551578 
L 225.099026 174.498639 
L 225.397971 174.591289 
L 225.696916 174.458596 
L 226.593752 174.548019 
L 227.191642 174.420562 
L 227.490588 174.557029 
L 228.387423 174.561258 
L 228.686369 174.349276 
L 228.985314 174.658014 
L 229.284259 174.536334 
L 229.88215 174.584171 
L 230.48004 174.464711 
L 230.778985 174.561258 
L 232.273712 174.456045 
L 233.170547 174.603514 
L 233.768438 174.378638 
L 234.067383 174.587939 
L 234.964219 174.546679 
L 235.562109 174.504416 
L 235.861055 174.573489 
L 236.16 174.401078 
L 236.757891 174.630324 
L 237.056836 174.520883 
L 237.654726 174.544128 
L 237.953672 174.537343 
L 238.252617 174.389314 
L 238.551562 174.599291 
L 241.242069 174.516986 
L 241.541015 174.360494 
L 241.83996 174.551449 
L 242.138905 174.589611 
L 242.736796 174.506629 
L 243.035741 174.531559 
L 243.334686 173.759124 
L 243.633631 174.903431 
L 244.231522 174.584368 
L 244.829412 174.560926 
L 245.128358 174.316019 
L 245.427303 174.646987 
L 245.726248 174.541092 
L 246.025193 174.654787 
L 246.623084 174.408337 
L 246.922029 174.568578 
L 248.416755 174.543114 
L 248.715701 174.453346 
L 249.313591 174.578431 
L 249.911482 174.282257 
L 250.210427 174.555843 
L 250.509372 174.530723 
L 250.808317 174.622863 
L 251.705153 174.483851 
L 252.004098 174.599433 
L 252.900934 174.509278 
L 253.199879 174.628985 
L 254.096715 174.447667 
L 255.890387 174.454779 
L 256.189332 174.365091 
L 256.787223 174.703742 
L 257.086168 174.45744 
L 257.385113 174.685014 
L 257.684058 174.288158 
L 257.983004 174.252982 
L 258.281949 174.55749 
L 258.580894 174.540182 
L 258.879839 174.77217 
L 259.47773 174.558025 
L 260.07562 174.439603 
L 260.374566 174.392744 
L 260.972456 174.526254 
L 261.271401 174.459253 
L 262.467182 175.074889 
L 262.766128 173.916433 
L 263.065073 174.523347 
L 263.364018 174.268391 
L 263.961909 174.934796 
L 264.260854 174.399419 
L 264.858744 174.644031 
L 265.15769 174.378681 
L 265.456635 174.818033 
L 265.75558 175.023272 
L 266.054525 174.455676 
L 266.353471 174.647964 
L 266.652416 174.406603 
L 267.549252 174.660134 
L 268.147142 174.473592 
L 268.446087 174.609648 
L 268.745033 174.558806 
L 269.043978 174.324944 
L 269.940814 174.464256 
L 270.239759 174.713109 
L 270.538704 174.396561 
L 271.136595 174.813227 
L 271.43554 174.678918 
L 272.03343 175.027858 
L 272.332376 174.734978 
L 272.631321 174.838759 
L 272.930266 174.773583 
L 273.229211 175.082013 
L 273.528157 174.440697 
L 273.827102 174.706398 
L 274.126047 174.434336 
L 274.424992 175.12331 
L 274.723938 174.639796 
L 275.321828 174.719428 
L 275.620773 174.929805 
L 275.919719 174.779828 
L 276.218664 174.960506 
L 276.517609 174.997157 
L 277.71339 174.548713 
L 278.311281 174.643981 
L 278.610226 174.721315 
L 278.909171 174.517908 
L 279.507062 174.722999 
L 279.806007 174.645303 
L 280.403898 174.872306 
L 280.702843 174.792827 
L 281.300733 175.007925 
L 281.599679 174.662752 
L 281.898624 174.74279 
L 282.197569 175.530622 
L 282.79546 174.331821 
L 283.094405 174.120289 
L 283.692295 174.366203 
L 283.991241 174.402043 
L 284.290186 174.076441 
L 284.589131 174.128795 
L 284.888076 174.015334 
L 285.187022 174.374274 
L 285.784912 173.970354 
L 286.083857 174.278201 
L 286.382803 174.191826 
L 286.980693 174.386431 
L 287.279638 174.093318 
L 288.176474 174.38318 
L 288.774365 174.257782 
L 289.07331 174.43937 
L 289.372255 174.347624 
L 289.970146 174.448626 
L 290.269091 174.135193 
L 290.568036 174.571522 
L 290.866981 174.646225 
L 291.464872 174.471257 
L 291.763817 174.597491 
L 292.062762 174.493107 
L 292.660653 174.600275 
L 294.75327 174.513328 
L 295.052215 174.538117 
L 295.35116 174.24809 
L 295.650105 174.658056 
L 296.845886 174.460784 
L 297.443777 174.573575 
L 299.536394 174.323628 
L 299.835339 174.503986 
L 300.134284 174.176528 
L 300.43323 174.183805 
L 300.732175 174.443439 
L 301.03112 174.325453 
L 301.330065 174.49929 
L 301.629011 174.474521 
L 301.927956 174.31616 
L 303.422682 174.365878 
L 303.721627 174.475904 
L 304.020573 174.14866 
L 304.618463 174.340401 
L 304.917408 174.162704 
L 305.216354 174.268784 
L 305.515299 174.15477 
L 305.814244 174.269472 
L 306.71108 174.097473 
L 307.010025 174.435762 
L 307.906861 174.282521 
L 308.205806 174.044283 
L 308.504751 174.303376 
L 308.803697 174.355853 
L 309.102642 174.101352 
L 309.401587 174.311747 
L 309.700532 174.16292 
L 309.999478 173.586368 
L 310.298423 174.627436 
L 311.793149 173.958166 
L 312.092094 174.363487 
L 312.689985 174.314083 
L 312.98893 174.444336 
L 313.287875 174.01049 
L 313.586821 174.432215 
L 313.885766 174.332841 
L 314.184711 174.42712 
L 314.483656 174.354052 
L 314.782602 174.458153 
L 315.081547 174.340807 
L 315.380492 174.433156 
L 315.978383 174.4339 
L 316.277328 174.592346 
L 316.875218 174.364691 
L 317.174164 174.524226 
L 317.772054 174.312116 
L 318.070999 174.432879 
L 318.369945 174.412744 
L 318.66889 174.6492 
L 318.967835 174.644971 
L 319.266781 174.436198 
L 319.565726 174.550999 
L 319.864671 174.319989 
L 320.163616 174.69472 
L 320.462562 174.65671 
L 320.761507 174.795194 
L 321.658343 174.507625 
L 322.854124 174.592911 
L 323.750959 174.532315 
L 325.843576 174.528 
L 326.142521 173.931885 
L 326.441467 174.754769 
L 327.936193 174.300567 
L 328.235138 174.667866 
L 328.534083 174.556968 
L 329.131974 174.586734 
L 329.430919 174.485424 
L 329.729864 174.163184 
L 330.02881 174.354673 
L 331.224591 174.354956 
L 331.523536 174.795722 
L 331.822481 174.374219 
L 332.420372 174.7248 
L 332.719317 174.44288 
L 333.018262 174.405694 
L 333.317207 174.519076 
L 334.512988 174.412467 
L 335.708769 174.362755 
L 336.30666 174.263689 
L 336.605605 174.451822 
L 337.203496 174.350254 
L 338.100331 174.218599 
L 338.399277 174.486481 
L 338.698222 174.352964 
L 339.296113 174.533206 
L 339.595058 174.186675 
L 340.192948 174.451023 
L 340.491894 174.368687 
L 341.089784 174.468184 
L 341.388729 174.206798 
L 341.687675 174.502179 
L 341.98662 174.425627 
L 342.285565 174.490047 
L 342.58451 174.23474 
L 342.883456 174.439775 
L 343.780291 174.400144 
L 344.079237 174.499315 
L 344.378182 174.325165 
L 344.677127 174.61199 
L 344.976072 174.485338 
L 345.573963 174.469118 
L 345.872908 174.244721 
L 346.171853 174.554945 
L 346.769744 174.505689 
L 347.068689 174.620828 
L 347.367634 174.312331 
L 347.66658 174.607024 
L 348.862361 174.575309 
L 349.161306 174.344083 
L 349.460251 174.559506 
L 349.759196 174.496272 
L 350.357087 174.631854 
L 350.954977 174.356235 
L 351.253923 174.546623 
L 352.150758 174.604571 
L 352.449704 174.39117 
L 352.748649 174.620281 
L 353.346539 174.531977 
L 353.645485 174.586335 
L 353.94443 174.516605 
L 354.243375 173.804963 
L 354.54232 174.845065 
L 354.841266 174.633822 
L 355.140211 174.691382 
L 355.439156 174.535154 
L 355.738101 174.577355 
L 356.037047 174.403985 
L 356.335992 174.634904 
L 357.232828 174.536943 
L 357.531773 174.307082 
L 357.830718 174.609144 
L 358.428609 174.557312 
L 358.727554 174.611289 
L 359.026499 174.332079 
L 359.325445 174.335644 
L 359.62439 174.488596 
L 359.923335 174.275472 
L 360.22228 173.508894 
L 360.521226 174.527834 
L 361.418061 174.346449 
L 361.717007 174.395835 
L 362.015952 174.23375 
L 362.314897 174.421717 
L 362.613842 174.267825 
L 363.510678 174.272459 
L 363.809623 174.116386 
L 364.108569 174.457852 
L 364.407514 174.249872 
L 364.706459 174.275478 
L 365.30435 173.999077 
L 365.90224 174.474785 
L 366.201185 174.173547 
L 366.799076 174.107 
L 367.098021 174.008966 
L 367.396966 174.324722 
L 367.695912 174.403094 
L 367.994857 174.179613 
L 368.293802 174.30139 
L 368.592747 174.234807 
L 368.891693 173.930323 
L 369.190638 174.389628 
L 370.087474 174.225753 
L 370.386419 173.936925 
L 370.685364 174.401643 
L 370.984309 174.215938 
L 371.283255 174.516697 
L 371.881145 174.330205 
L 372.18009 173.838921 
L 372.479036 174.468553 
L 372.777981 174.30061 
L 373.375871 174.297635 
L 373.674817 174.185772 
L 373.973762 174.46192 
L 374.272707 174.448884 
L 374.571652 174.305097 
L 374.870598 174.524718 
L 375.468488 174.033484 
L 376.066379 174.527379 
L 376.365324 174.51406 
L 376.664269 174.67148 
L 376.963214 174.456444 
L 377.26216 174.812791 
L 377.561105 174.615659 
L 377.86005 174.656526 
L 378.158995 174.147455 
L 378.457941 174.815981 
L 379.055831 174.776447 
L 379.354776 175.036266 
L 379.653722 174.708979 
L 380.251612 175.215099 
L 380.550558 174.903953 
L 380.849503 175.02975 
L 381.148448 175.790114 
L 381.746339 175.124927 
L 382.045284 175.147109 
L 382.344229 174.914144 
L 382.643174 175.727133 
L 382.94212 174.605223 
L 383.54001 174.459026 
L 383.838955 174.653472 
L 384.735791 174.598597 
L 385.034736 174.264746 
L 385.333682 174.765452 
L 385.632627 174.763724 
L 385.931572 174.588818 
L 386.529463 174.657165 
L 386.828408 174.552942 
L 387.426298 174.819816 
L 387.725244 174.658517 
L 388.024189 174.940321 
L 388.323134 174.955011 
L 388.622079 174.61411 
L 388.921025 174.984126 
L 389.518915 174.68314 
L 390.116806 174.655961 
L 391.013641 174.273025 
L 391.312587 174.442861 
L 391.910477 174.185932 
L 392.209422 174.521755 
L 392.807313 174.540772 
L 398.487273 174.544319 
L 398.487273 174.544319 
" clip-path="url(#p25e8cd7805)" style="fill: none; stroke: #ff7f0e; stroke-width: 1.5; stroke-linecap: square"/>
   </g>
   <g id="patch_3">
    <path d="M 57.6 307.584 
L 57.6 41.472 
" style="fill: none; stroke: #000000; stroke-width: 0.8; stroke-linejoin: miter; stroke-linecap: square"/>
   </g>
   <g id="patch_4">
    <path d="M 414.72 307.584 
L 414.72 41.472 
" style="fill: none; stroke: #000000; stroke-width: 0.8; stroke-linejoin: miter; stroke-linecap: square"/>
   </g>
   <g id="patch_5">
    <path d="M 57.6 307.584 
L 414.72 307.584 
" style="fill: none; stroke: #000000; stroke-width: 0.8; stroke-linejoin: miter; stroke-linecap: square"/>
   </g>
   <g id="patch_6">
    <path d="M 57.6 41.472 
L 414.72 41.472 
" style="fill: none; stroke: #000000; stroke-width: 0.8; stroke-linejoin: miter; stroke-linecap: square"/>
   </g>
   <g id="legend_1">
    <g id="patch_7">
     <path d="M 257.179375 78.82825 
L 407.72 78.82825 
Q 409.72 78.82825 409.72 76.82825 
L 409.72 48.472 
Q 409.72 46.472 407.72 46.472 
L 257.179375 46.472 
Q 255.179375 46.472 255.179375 48.472 
L 255.179375 76.82825 
Q 255.179375 78.82825 257.179375 78.82825 
z
" style="fill: #ffffff; opacity: 0.8; stroke: #cccccc; stroke-linejoin: miter"/>
    </g>
    <g id="line2d_29">
     <path d="M 259.179375 54.570437 
L 269.179375 54.570437 
L 279.179375 54.570437 
" style="fill: none; stroke: #1f77b4; stroke-width: 1.5; stroke-linecap: square"/>
    </g>
    <g id="text_16">
     <!-- GPS derived deltaH -->
     <g transform="translate(287.179375 58.070437)scale(0.1 -0.1)">
      <defs>
       <path id="DejaVuSans-47" d="M 3809 666 
L 3809 1919 
L 2778 1919 
L 2778 2438 
L 4434 2438 
L 4434 434 
Q 4069 175 3628 42 
Q 3188 -91 2688 -91 
Q 1594 -91 976 548 
Q 359 1188 359 2328 
Q 359 3472 976 4111 
Q 1594 4750 2688 4750 
Q 3144 4750 3555 4637 
Q 3966 4525 4313 4306 
L 4313 3634 
Q 3963 3931 3569 4081 
Q 3175 4231 2741 4231 
Q 1884 4231 1454 3753 
Q 1025 3275 1025 2328 
Q 1025 1384 1454 906 
Q 1884 428 2741 428 
Q 3075 428 3337 486 
Q 3600 544 3809 666 
z
" transform="scale(0.015625)"/>
       <path id="DejaVuSans-50" d="M 1259 4147 
L 1259 2394 
L 2053 2394 
Q 2494 2394 2734 2622 
Q 2975 2850 2975 3272 
Q 2975 3691 2734 3919 
Q 2494 4147 2053 4147 
L 1259 4147 
z
M 628 4666 
L 2053 4666 
Q 2838 4666 3239 4311 
Q 3641 3956 3641 3272 
Q 3641 2581 3239 2228 
Q 2838 1875 2053 1875 
L 1259 1875 
L 1259 0 
L 628 0 
L 628 4666 
z
" transform="scale(0.015625)"/>
       <path id="DejaVuSans-53" d="M 3425 4513 
L 3425 3897 
Q 3066 4069 2747 4153 
Q 2428 4238 2131 4238 
Q 1616 4238 1336 4038 
Q 1056 3838 1056 3469 
Q 1056 3159 1242 3001 
Q 1428 2844 1947 2747 
L 2328 2669 
Q 3034 2534 3370 2195 
Q 3706 1856 3706 1288 
Q 3706 609 3251 259 
Q 2797 -91 1919 -91 
Q 1588 -91 1214 -16 
Q 841 59 441 206 
L 441 856 
Q 825 641 1194 531 
Q 1563 422 1919 422 
Q 2459 422 2753 634 
Q 3047 847 3047 1241 
Q 3047 1584 2836 1778 
Q 2625 1972 2144 2069 
L 1759 2144 
Q 1053 2284 737 2584 
Q 422 2884 422 3419 
Q 422 4038 858 4394 
Q 1294 4750 2059 4750 
Q 2388 4750 2728 4690 
Q 3069 4631 3425 4513 
z
" transform="scale(0.015625)"/>
       <path id="DejaVuSans-48" d="M 628 4666 
L 1259 4666 
L 1259 2753 
L 3553 2753 
L 3553 4666 
L 4184 4666 
L 4184 0 
L 3553 0 
L 3553 2222 
L 1259 2222 
L 1259 0 
L 628 0 
L 628 4666 
z
" transform="scale(0.015625)"/>
      </defs>
      <use xlink:href="#DejaVuSans-47"/>
      <use xlink:href="#DejaVuSans-50" x="77.490234"/>
      <use xlink:href="#DejaVuSans-53" x="137.792969"/>
      <use xlink:href="#DejaVuSans-20" x="201.269531"/>
      <use xlink:href="#DejaVuSans-64" x="233.056641"/>
      <use xlink:href="#DejaVuSans-65" x="296.533203"/>
      <use xlink:href="#DejaVuSans-72" x="358.056641"/>
      <use xlink:href="#DejaVuSans-69" x="399.169922"/>
      <use xlink:href="#DejaVuSans-76" x="426.953125"/>
      <use xlink:href="#DejaVuSans-65" x="486.132812"/>
      <use xlink:href="#DejaVuSans-64" x="547.65625"/>
      <use xlink:href="#DejaVuSans-20" x="611.132812"/>
      <use xlink:href="#DejaVuSans-64" x="642.919922"/>
      <use xlink:href="#DejaVuSans-65" x="706.396484"/>
      <use xlink:href="#DejaVuSans-6c" x="767.919922"/>
      <use xlink:href="#DejaVuSans-74" x="795.703125"/>
      <use xlink:href="#DejaVuSans-61" x="834.912109"/>
      <use xlink:href="#DejaVuSans-48" x="896.191406"/>
     </g>
    </g>
    <g id="line2d_30">
     <path d="M 259.179375 69.248562 
L 269.179375 69.248562 
L 279.179375 69.248562 
" style="fill: none; stroke: #ff7f0e; stroke-width: 1.5; stroke-linecap: square"/>
    </g>
    <g id="text_17">
     <!-- bmp280 derived deltaH -->
     <g transform="translate(287.179375 72.748562)scale(0.1 -0.1)">
      <defs>
       <path id="DejaVuSans-62" d="M 3116 1747 
Q 3116 2381 2855 2742 
Q 2594 3103 2138 3103 
Q 1681 3103 1420 2742 
Q 1159 2381 1159 1747 
Q 1159 1113 1420 752 
Q 1681 391 2138 391 
Q 2594 391 2855 752 
Q 3116 1113 3116 1747 
z
M 1159 2969 
Q 1341 3281 1617 3432 
Q 1894 3584 2278 3584 
Q 2916 3584 3314 3078 
Q 3713 2572 3713 1747 
Q 3713 922 3314 415 
Q 2916 -91 2278 -91 
Q 1894 -91 1617 61 
Q 1341 213 1159 525 
L 1159 0 
L 581 0 
L 581 4863 
L 1159 4863 
L 1159 2969 
z
" transform="scale(0.015625)"/>
      </defs>
      <use xlink:href="#DejaVuSans-62"/>
      <use xlink:href="#DejaVuSans-6d" x="63.476562"/>
      <use xlink:href="#DejaVuSans-70" x="160.888672"/>
      <use xlink:href="#DejaVuSans-32" x="224.365234"/>
      <use xlink:href="#DejaVuSans-38" x="287.988281"/>
      <use xlink:href="#DejaVuSans-30" x="351.611328"/>
      <use xlink:href="#DejaVuSans-20" x="415.234375"/>
      <use xlink:href="#DejaVuSans-64" x="447.021484"/>
      <use xlink:href="#DejaVuSans-65" x="510.498047"/>
      <use xlink:href="#DejaVuSans-72" x="572.021484"/>
      <use xlink:href="#DejaVuSans-69" x="613.134766"/>
      <use xlink:href="#DejaVuSans-76" x="640.917969"/>
      <use xlink:href="#DejaVuSans-65" x="700.097656"/>
      <use xlink:href="#DejaVuSans-64" x="761.621094"/>
      <use xlink:href="#DejaVuSans-20" x="825.097656"/>
      <use xlink:href="#DejaVuSans-64" x="856.884766"/>
      <use xlink:href="#DejaVuSans-65" x="920.361328"/>
      <use xlink:href="#DejaVuSans-6c" x="981.884766"/>
      <use xlink:href="#DejaVuSans-74" x="1009.667969"/>
      <use xlink:href="#DejaVuSans-61" x="1048.876953"/>
      <use xlink:href="#DejaVuSans-48" x="1110.15625"/>
     </g>
    </g>
   </g>
  </g>
 </g>
 <defs>
  <clipPath id="p25e8cd7805">
   <rect x="57.6" y="41.472" width="357.12" height="266.112"/>
  </clipPath>
 </defs>
</svg>
