<?xml version="1.0" encoding="utf-8" standalone="no"?>
<!DOCTYPE svg PUBLIC "-//W3C//DTD SVG 1.1//EN"
  "http://www.w3.org/Graphics/SVG/1.1/DTD/svg11.dtd">
<svg xmlns:xlink="http://www.w3.org/1999/xlink" width="460.8pt" height="345.6pt" viewBox="0 0 460.8 345.6" xmlns="http://www.w3.org/2000/svg" version="1.1">
 <metadata>
  <rdf:RDF xmlns:dc="http://purl.org/dc/elements/1.1/" xmlns:cc="http://creativecommons.org/ns#" xmlns:rdf="http://www.w3.org/1999/02/22-rdf-syntax-ns#">
   <cc:Work>
    <dc:type rdf:resource="http://purl.org/dc/dcmitype/StillImage"/>
    <dc:date>2021-12-12T14:21:22.995531</dc:date>
    <dc:format>image/svg+xml</dc:format>
    <dc:creator>
     <cc:Agent>
      <dc:title>Matplotlib v3.5.0, https://matplotlib.org/</dc:title>
     </cc:Agent>
    </dc:creator>
   </cc:Work>
  </rdf:RDF>
 </metadata>
 <defs>
  <style type="text/css">*{stroke-linejoin: round; stroke-linecap: butt}</style>
 </defs>
 <g id="figure_1">
  <g id="patch_1">
   <path d="M 0 345.6 
L 460.8 345.6 
L 460.8 0 
L 0 0 
z
" style="fill: #ffffff"/>
  </g>
  <g id="axes_1">
   <g id="patch_2">
    <path d="M 57.6 162.432 
L 414.72 162.432 
L 414.72 41.472 
L 57.6 41.472 
z
" style="fill: #ffffff"/>
   </g>
   <g id="matplotlib.axis_1">
    <g id="xtick_1">
     <g id="line2d_1">
      <path d="M 73.832727 162.432 
L 73.832727 41.472 
" clip-path="url(#p5bd3edab1e)" style="fill: none; stroke: #b0b0b0; stroke-width: 0.8; stroke-linecap: square"/>
     </g>
     <g id="line2d_2">
      <defs>
       <path id="md00b1bf7a7" d="M 0 0 
L 0 3.5 
" style="stroke: #000000; stroke-width: 0.8"/>
      </defs>
      <g>
       <use xlink:href="#md00b1bf7a7" x="73.832727" y="162.432" style="stroke: #000000; stroke-width: 0.8"/>
      </g>
     </g>
     <g id="text_1">
      <!-- 0 -->
      <g transform="translate(70.651477 177.030437)scale(0.1 -0.1)">
       <defs>
        <path id="DejaVuSans-30" d="M 2034 4250 
Q 1547 4250 1301 3770 
Q 1056 3291 1056 2328 
Q 1056 1369 1301 889 
Q 1547 409 2034 409 
Q 2525 409 2770 889 
Q 3016 1369 3016 2328 
Q 3016 3291 2770 3770 
Q 2525 4250 2034 4250 
z
M 2034 4750 
Q 2819 4750 3233 4129 
Q 3647 3509 3647 2328 
Q 3647 1150 3233 529 
Q 2819 -91 2034 -91 
Q 1250 -91 836 529 
Q 422 1150 422 2328 
Q 422 3509 836 4129 
Q 1250 4750 2034 4750 
z
" transform="scale(0.015625)"/>
       </defs>
       <use xlink:href="#DejaVuSans-30"/>
      </g>
     </g>
    </g>
    <g id="xtick_2">
     <g id="line2d_3">
      <path d="M 133.621778 162.432 
L 133.621778 41.472 
" clip-path="url(#p5bd3edab1e)" style="fill: none; stroke: #b0b0b0; stroke-width: 0.8; stroke-linecap: square"/>
     </g>
     <g id="line2d_4">
      <g>
       <use xlink:href="#md00b1bf7a7" x="133.621778" y="162.432" style="stroke: #000000; stroke-width: 0.8"/>
      </g>
     </g>
     <g id="text_2">
      <!-- 200 -->
      <g transform="translate(124.078028 177.030437)scale(0.1 -0.1)">
       <defs>
        <path id="DejaVuSans-32" d="M 1228 531 
L 3431 531 
L 3431 0 
L 469 0 
L 469 531 
Q 828 903 1448 1529 
Q 2069 2156 2228 2338 
Q 2531 2678 2651 2914 
Q 2772 3150 2772 3378 
Q 2772 3750 2511 3984 
Q 2250 4219 1831 4219 
Q 1534 4219 1204 4116 
Q 875 4013 500 3803 
L 500 4441 
Q 881 4594 1212 4672 
Q 1544 4750 1819 4750 
Q 2544 4750 2975 4387 
Q 3406 4025 3406 3419 
Q 3406 3131 3298 2873 
Q 3191 2616 2906 2266 
Q 2828 2175 2409 1742 
Q 1991 1309 1228 531 
z
" transform="scale(0.015625)"/>
       </defs>
       <use xlink:href="#DejaVuSans-32"/>
       <use xlink:href="#DejaVuSans-30" x="63.623047"/>
       <use xlink:href="#DejaVuSans-30" x="127.246094"/>
      </g>
     </g>
    </g>
    <g id="xtick_3">
     <g id="line2d_5">
      <path d="M 193.410829 162.432 
L 193.410829 41.472 
" clip-path="url(#p5bd3edab1e)" style="fill: none; stroke: #b0b0b0; stroke-width: 0.8; stroke-linecap: square"/>
     </g>
     <g id="line2d_6">
      <g>
       <use xlink:href="#md00b1bf7a7" x="193.410829" y="162.432" style="stroke: #000000; stroke-width: 0.8"/>
      </g>
     </g>
     <g id="text_3">
      <!-- 400 -->
      <g transform="translate(183.867079 177.030437)scale(0.1 -0.1)">
       <defs>
        <path id="DejaVuSans-34" d="M 2419 4116 
L 825 1625 
L 2419 1625 
L 2419 4116 
z
M 2253 4666 
L 3047 4666 
L 3047 1625 
L 3713 1625 
L 3713 1100 
L 3047 1100 
L 3047 0 
L 2419 0 
L 2419 1100 
L 313 1100 
L 313 1709 
L 2253 4666 
z
" transform="scale(0.015625)"/>
       </defs>
       <use xlink:href="#DejaVuSans-34"/>
       <use xlink:href="#DejaVuSans-30" x="63.623047"/>
       <use xlink:href="#DejaVuSans-30" x="127.246094"/>
      </g>
     </g>
    </g>
    <g id="xtick_4">
     <g id="line2d_7">
      <path d="M 253.199879 162.432 
L 253.199879 41.472 
" clip-path="url(#p5bd3edab1e)" style="fill: none; stroke: #b0b0b0; stroke-width: 0.8; stroke-linecap: square"/>
     </g>
     <g id="line2d_8">
      <g>
       <use xlink:href="#md00b1bf7a7" x="253.199879" y="162.432" style="stroke: #000000; stroke-width: 0.8"/>
      </g>
     </g>
     <g id="text_4">
      <!-- 600 -->
      <g transform="translate(243.656129 177.030437)scale(0.1 -0.1)">
       <defs>
        <path id="DejaVuSans-36" d="M 2113 2584 
Q 1688 2584 1439 2293 
Q 1191 2003 1191 1497 
Q 1191 994 1439 701 
Q 1688 409 2113 409 
Q 2538 409 2786 701 
Q 3034 994 3034 1497 
Q 3034 2003 2786 2293 
Q 2538 2584 2113 2584 
z
M 3366 4563 
L 3366 3988 
Q 3128 4100 2886 4159 
Q 2644 4219 2406 4219 
Q 1781 4219 1451 3797 
Q 1122 3375 1075 2522 
Q 1259 2794 1537 2939 
Q 1816 3084 2150 3084 
Q 2853 3084 3261 2657 
Q 3669 2231 3669 1497 
Q 3669 778 3244 343 
Q 2819 -91 2113 -91 
Q 1303 -91 875 529 
Q 447 1150 447 2328 
Q 447 3434 972 4092 
Q 1497 4750 2381 4750 
Q 2619 4750 2861 4703 
Q 3103 4656 3366 4563 
z
" transform="scale(0.015625)"/>
       </defs>
       <use xlink:href="#DejaVuSans-36"/>
       <use xlink:href="#DejaVuSans-30" x="63.623047"/>
       <use xlink:href="#DejaVuSans-30" x="127.246094"/>
      </g>
     </g>
    </g>
    <g id="xtick_5">
     <g id="line2d_9">
      <path d="M 312.98893 162.432 
L 312.98893 41.472 
" clip-path="url(#p5bd3edab1e)" style="fill: none; stroke: #b0b0b0; stroke-width: 0.8; stroke-linecap: square"/>
     </g>
     <g id="line2d_10">
      <g>
       <use xlink:href="#md00b1bf7a7" x="312.98893" y="162.432" style="stroke: #000000; stroke-width: 0.8"/>
      </g>
     </g>
     <g id="text_5">
      <!-- 800 -->
      <g transform="translate(303.44518 177.030437)scale(0.1 -0.1)">
       <defs>
        <path id="DejaVuSans-38" d="M 2034 2216 
Q 1584 2216 1326 1975 
Q 1069 1734 1069 1313 
Q 1069 891 1326 650 
Q 1584 409 2034 409 
Q 2484 409 2743 651 
Q 3003 894 3003 1313 
Q 3003 1734 2745 1975 
Q 2488 2216 2034 2216 
z
M 1403 2484 
Q 997 2584 770 2862 
Q 544 3141 544 3541 
Q 544 4100 942 4425 
Q 1341 4750 2034 4750 
Q 2731 4750 3128 4425 
Q 3525 4100 3525 3541 
Q 3525 3141 3298 2862 
Q 3072 2584 2669 2484 
Q 3125 2378 3379 2068 
Q 3634 1759 3634 1313 
Q 3634 634 3220 271 
Q 2806 -91 2034 -91 
Q 1263 -91 848 271 
Q 434 634 434 1313 
Q 434 1759 690 2068 
Q 947 2378 1403 2484 
z
M 1172 3481 
Q 1172 3119 1398 2916 
Q 1625 2713 2034 2713 
Q 2441 2713 2670 2916 
Q 2900 3119 2900 3481 
Q 2900 3844 2670 4047 
Q 2441 4250 2034 4250 
Q 1625 4250 1398 4047 
Q 1172 3844 1172 3481 
z
" transform="scale(0.015625)"/>
       </defs>
       <use xlink:href="#DejaVuSans-38"/>
       <use xlink:href="#DejaVuSans-30" x="63.623047"/>
       <use xlink:href="#DejaVuSans-30" x="127.246094"/>
      </g>
     </g>
    </g>
    <g id="xtick_6">
     <g id="line2d_11">
      <path d="M 372.777981 162.432 
L 372.777981 41.472 
" clip-path="url(#p5bd3edab1e)" style="fill: none; stroke: #b0b0b0; stroke-width: 0.8; stroke-linecap: square"/>
     </g>
     <g id="line2d_12">
      <g>
       <use xlink:href="#md00b1bf7a7" x="372.777981" y="162.432" style="stroke: #000000; stroke-width: 0.8"/>
      </g>
     </g>
     <g id="text_6">
      <!-- 1000 -->
      <g transform="translate(360.052981 177.030437)scale(0.1 -0.1)">
       <defs>
        <path id="DejaVuSans-31" d="M 794 531 
L 1825 531 
L 1825 4091 
L 703 3866 
L 703 4441 
L 1819 4666 
L 2450 4666 
L 2450 531 
L 3481 531 
L 3481 0 
L 794 0 
L 794 531 
z
" transform="scale(0.015625)"/>
       </defs>
       <use xlink:href="#DejaVuSans-31"/>
       <use xlink:href="#DejaVuSans-30" x="63.623047"/>
       <use xlink:href="#DejaVuSans-30" x="127.246094"/>
       <use xlink:href="#DejaVuSans-30" x="190.869141"/>
      </g>
     </g>
    </g>
   </g>
   <g id="matplotlib.axis_2">
    <g id="ytick_1">
     <g id="line2d_13">
      <path d="M 57.6 134.6934 
L 414.72 134.6934 
" clip-path="url(#p5bd3edab1e)" style="fill: none; stroke: #b0b0b0; stroke-width: 0.8; stroke-linecap: square"/>
     </g>
     <g id="line2d_14">
      <defs>
       <path id="ma734456f47" d="M 0 0 
L -3.5 0 
" style="stroke: #000000; stroke-width: 0.8"/>
      </defs>
      <g>
       <use xlink:href="#ma734456f47" x="57.6" y="134.6934" style="stroke: #000000; stroke-width: 0.8"/>
      </g>
     </g>
     <g id="text_7">
      <!-- −1000 -->
      <g transform="translate(16.770313 138.492618)scale(0.1 -0.1)">
       <defs>
        <path id="DejaVuSans-2212" d="M 678 2272 
L 4684 2272 
L 4684 1741 
L 678 1741 
L 678 2272 
z
" transform="scale(0.015625)"/>
       </defs>
       <use xlink:href="#DejaVuSans-2212"/>
       <use xlink:href="#DejaVuSans-31" x="83.789062"/>
       <use xlink:href="#DejaVuSans-30" x="147.412109"/>
       <use xlink:href="#DejaVuSans-30" x="211.035156"/>
       <use xlink:href="#DejaVuSans-30" x="274.658203"/>
      </g>
     </g>
    </g>
    <g id="ytick_2">
     <g id="line2d_15">
      <path d="M 57.6 97.943567 
L 414.72 97.943567 
" clip-path="url(#p5bd3edab1e)" style="fill: none; stroke: #b0b0b0; stroke-width: 0.8; stroke-linecap: square"/>
     </g>
     <g id="line2d_16">
      <g>
       <use xlink:href="#ma734456f47" x="57.6" y="97.943567" style="stroke: #000000; stroke-width: 0.8"/>
      </g>
     </g>
     <g id="text_8">
      <!-- 0 -->
      <g transform="translate(44.2375 101.742786)scale(0.1 -0.1)">
       <use xlink:href="#DejaVuSans-30"/>
      </g>
     </g>
    </g>
    <g id="ytick_3">
     <g id="line2d_17">
      <path d="M 57.6 61.193734 
L 414.72 61.193734 
" clip-path="url(#p5bd3edab1e)" style="fill: none; stroke: #b0b0b0; stroke-width: 0.8; stroke-linecap: square"/>
     </g>
     <g id="line2d_18">
      <g>
       <use xlink:href="#ma734456f47" x="57.6" y="61.193734" style="stroke: #000000; stroke-width: 0.8"/>
      </g>
     </g>
     <g id="text_9">
      <!-- 1000 -->
      <g transform="translate(25.15 64.992953)scale(0.1 -0.1)">
       <use xlink:href="#DejaVuSans-31"/>
       <use xlink:href="#DejaVuSans-30" x="63.623047"/>
       <use xlink:href="#DejaVuSans-30" x="127.246094"/>
       <use xlink:href="#DejaVuSans-30" x="190.869141"/>
      </g>
     </g>
    </g>
    <g id="text_10">
     <!-- power [w] -->
     <g transform="translate(10.690625 126.986375)rotate(-90)scale(0.1 -0.1)">
      <defs>
       <path id="DejaVuSans-70" d="M 1159 525 
L 1159 -1331 
L 581 -1331 
L 581 3500 
L 1159 3500 
L 1159 2969 
Q 1341 3281 1617 3432 
Q 1894 3584 2278 3584 
Q 2916 3584 3314 3078 
Q 3713 2572 3713 1747 
Q 3713 922 3314 415 
Q 2916 -91 2278 -91 
Q 1894 -91 1617 61 
Q 1341 213 1159 525 
z
M 3116 1747 
Q 3116 2381 2855 2742 
Q 2594 3103 2138 3103 
Q 1681 3103 1420 2742 
Q 1159 2381 1159 1747 
Q 1159 1113 1420 752 
Q 1681 391 2138 391 
Q 2594 391 2855 752 
Q 3116 1113 3116 1747 
z
" transform="scale(0.015625)"/>
       <path id="DejaVuSans-6f" d="M 1959 3097 
Q 1497 3097 1228 2736 
Q 959 2375 959 1747 
Q 959 1119 1226 758 
Q 1494 397 1959 397 
Q 2419 397 2687 759 
Q 2956 1122 2956 1747 
Q 2956 2369 2687 2733 
Q 2419 3097 1959 3097 
z
M 1959 3584 
Q 2709 3584 3137 3096 
Q 3566 2609 3566 1747 
Q 3566 888 3137 398 
Q 2709 -91 1959 -91 
Q 1206 -91 779 398 
Q 353 888 353 1747 
Q 353 2609 779 3096 
Q 1206 3584 1959 3584 
z
" transform="scale(0.015625)"/>
       <path id="DejaVuSans-77" d="M 269 3500 
L 844 3500 
L 1563 769 
L 2278 3500 
L 2956 3500 
L 3675 769 
L 4391 3500 
L 4966 3500 
L 4050 0 
L 3372 0 
L 2619 2869 
L 1863 0 
L 1184 0 
L 269 3500 
z
" transform="scale(0.015625)"/>
       <path id="DejaVuSans-65" d="M 3597 1894 
L 3597 1613 
L 953 1613 
Q 991 1019 1311 708 
Q 1631 397 2203 397 
Q 2534 397 2845 478 
Q 3156 559 3463 722 
L 3463 178 
Q 3153 47 2828 -22 
Q 2503 -91 2169 -91 
Q 1331 -91 842 396 
Q 353 884 353 1716 
Q 353 2575 817 3079 
Q 1281 3584 2069 3584 
Q 2775 3584 3186 3129 
Q 3597 2675 3597 1894 
z
M 3022 2063 
Q 3016 2534 2758 2815 
Q 2500 3097 2075 3097 
Q 1594 3097 1305 2825 
Q 1016 2553 972 2059 
L 3022 2063 
z
" transform="scale(0.015625)"/>
       <path id="DejaVuSans-72" d="M 2631 2963 
Q 2534 3019 2420 3045 
Q 2306 3072 2169 3072 
Q 1681 3072 1420 2755 
Q 1159 2438 1159 1844 
L 1159 0 
L 581 0 
L 581 3500 
L 1159 3500 
L 1159 2956 
Q 1341 3275 1631 3429 
Q 1922 3584 2338 3584 
Q 2397 3584 2469 3576 
Q 2541 3569 2628 3553 
L 2631 2963 
z
" transform="scale(0.015625)"/>
       <path id="DejaVuSans-20" transform="scale(0.015625)"/>
       <path id="DejaVuSans-5b" d="M 550 4863 
L 1875 4863 
L 1875 4416 
L 1125 4416 
L 1125 -397 
L 1875 -397 
L 1875 -844 
L 550 -844 
L 550 4863 
z
" transform="scale(0.015625)"/>
       <path id="DejaVuSans-5d" d="M 1947 4863 
L 1947 -844 
L 622 -844 
L 622 -397 
L 1369 -397 
L 1369 4416 
L 622 4416 
L 622 4863 
L 1947 4863 
z
" transform="scale(0.015625)"/>
      </defs>
      <use xlink:href="#DejaVuSans-70"/>
      <use xlink:href="#DejaVuSans-6f" x="63.476562"/>
      <use xlink:href="#DejaVuSans-77" x="124.658203"/>
      <use xlink:href="#DejaVuSans-65" x="206.445312"/>
      <use xlink:href="#DejaVuSans-72" x="267.96875"/>
      <use xlink:href="#DejaVuSans-20" x="309.082031"/>
      <use xlink:href="#DejaVuSans-5b" x="340.869141"/>
      <use xlink:href="#DejaVuSans-77" x="379.882812"/>
      <use xlink:href="#DejaVuSans-5d" x="461.669922"/>
     </g>
    </g>
   </g>
   <g id="line2d_19">
    <path d="M 73.832727 97.943567 
L 74.430618 97.943567 
L 74.729563 95.091406 
L 75.028508 97.565987 
L 75.327454 97.943567 
L 75.626399 97.943567 
L 75.925344 97.458553 
L 76.523235 97.121591 
L 76.82218 97.943567 
L 77.719016 97.943567 
L 78.017961 97.829404 
L 78.615851 97.943567 
L 78.914797 97.089385 
L 79.213742 95.347612 
L 79.512687 96.585384 
L 79.811632 92.056343 
L 80.110578 97.943567 
L 83.996866 97.943567 
L 84.295811 97.644819 
L 84.594756 97.943567 
L 84.893702 97.943567 
L 85.192647 97.737112 
L 85.491592 97.943567 
L 86.089483 97.943567 
L 86.388428 95.942944 
L 86.687373 92.560344 
L 86.986318 95.264694 
L 87.285264 91.872961 
L 87.584209 92.786988 
L 87.883154 92.730027 
L 88.182099 85.888878 
L 88.481045 84.467003 
L 88.77999 89.466157 
L 89.078935 87.227594 
L 89.37788 92.496172 
L 89.676826 87.998376 
L 90.274716 94.232657 
L 90.573661 88.896542 
L 90.872607 96.921865 
L 91.171552 95.447595 
L 91.470497 96.034996 
L 91.769442 97.56863 
L 92.068388 90.773147 
L 92.367333 97.943567 
L 92.666278 95.243544 
L 92.965224 97.943567 
L 93.563114 97.943567 
L 93.862059 95.424282 
L 94.161005 97.943567 
L 96.552567 97.943567 
L 96.851512 97.376355 
L 97.150457 97.943567 
L 97.748348 97.943567 
L 98.047293 97.160527 
L 98.346238 97.943567 
L 98.645183 83.141747 
L 98.944129 97.943567 
L 99.243074 97.390295 
L 99.542019 97.943567 
L 99.840964 97.943567 
L 100.13991 80.464797 
L 100.438855 97.943567 
L 114.190337 97.943567 
L 114.788227 90.11124 
L 115.087172 95.87012 
L 115.386118 97.943567 
L 115.685063 97.424184 
L 115.984008 94.385996 
L 116.282953 97.943567 
L 116.581899 94.508091 
L 116.880844 97.943567 
L 117.478734 97.943567 
L 117.77768 96.929316 
L 118.076625 95.499269 
L 118.37557 95.890069 
L 118.674515 96.889419 
L 118.973461 96.284473 
L 119.272406 97.943567 
L 119.571351 96.993728 
L 119.870296 91.371603 
L 120.169242 97.943567 
L 120.468187 97.782056 
L 120.767132 97.943567 
L 121.066077 97.943567 
L 121.365023 97.011513 
L 121.663968 90.309523 
L 121.962913 97.943567 
L 122.859749 97.943567 
L 123.158694 96.040043 
L 123.457639 95.394479 
L 123.756585 97.943567 
L 124.354475 97.776047 
L 124.65342 97.943567 
L 124.952366 97.732305 
L 125.251311 93.931987 
L 125.550256 97.617901 
L 125.849201 97.943567 
L 126.148147 97.943567 
L 126.447092 96.706517 
L 126.746037 90.35615 
L 127.044982 97.943567 
L 127.343928 96.155649 
L 127.642873 97.943567 
L 127.941818 94.545344 
L 128.240763 97.943567 
L 129.137599 97.943567 
L 129.436544 94.047833 
L 129.73549 97.577042 
L 130.034435 97.943567 
L 130.33338 97.943567 
L 130.632325 94.910908 
L 130.931271 97.943567 
L 131.230216 90.03481 
L 131.529161 97.169419 
L 131.828106 97.943567 
L 132.127052 96.859616 
L 132.425997 97.42154 
L 132.724942 97.54748 
L 133.023887 93.735145 
L 133.322833 97.19778 
L 133.621778 97.943567 
L 134.219669 97.943567 
L 134.518614 91.857579 
L 134.817559 97.943567 
L 136.01334 97.943567 
L 136.312285 96.062155 
L 136.611231 97.943567 
L 136.910176 97.943567 
L 137.209121 94.960418 
L 137.508066 97.943567 
L 137.807012 97.807052 
L 138.105957 94.823663 
L 138.404902 97.943567 
L 139.002793 97.943567 
L 139.600683 95.511287 
L 139.899628 97.943567 
L 141.394355 97.943567 
L 141.6933 97.343909 
L 141.992245 97.943567 
L 142.29119 97.258106 
L 142.590136 97.943567 
L 142.889081 96.893985 
L 143.188026 92.519726 
L 143.486971 97.943567 
L 144.383807 97.943567 
L 144.682752 96.934363 
L 144.981698 97.186964 
L 145.280643 97.760425 
L 145.579588 97.943567 
L 145.878533 94.523714 
L 146.177479 97.943567 
L 146.476424 95.837674 
L 146.775369 97.943567 
L 147.37326 91.084633 
L 147.672205 97.488356 
L 147.97115 97.588098 
L 148.270095 96.146275 
L 148.569041 96.074412 
L 148.867986 96.466894 
L 149.166931 91.815038 
L 149.465876 97.943567 
L 149.764822 97.515034 
L 150.063767 97.943567 
L 150.661657 97.943567 
L 150.960603 92.260876 
L 151.259548 97.943567 
L 151.857438 97.943567 
L 152.156384 97.459514 
L 152.455329 97.943567 
L 153.950055 97.943567 
L 154.249001 97.598914 
L 154.547946 97.943567 
L 155.145836 97.943567 
L 155.444782 97.667171 
L 155.743727 97.943567 
L 156.042672 88.41321 
L 156.341617 97.943567 
L 156.640563 97.943567 
L 156.939508 97.599875 
L 157.238453 97.943567 
L 157.537398 91.119002 
L 157.836344 97.943567 
L 158.135289 97.536905 
L 158.434234 97.943567 
L 158.733179 97.943567 
L 159.33107 93.426544 
L 159.630015 97.943567 
L 159.92896 93.84306 
L 160.227906 95.030358 
L 160.526851 97.943567 
L 160.825796 83.791156 
L 161.124741 93.861566 
L 161.423687 94.086768 
L 161.722632 91.123568 
L 162.021577 97.943567 
L 162.320522 97.943567 
L 162.619468 82.579102 
L 162.918413 96.424593 
L 163.217358 90.272991 
L 163.815249 97.398707 
L 164.114194 97.943567 
L 164.413139 94.016348 
L 164.712084 97.943567 
L 165.01103 88.251699 
L 165.60892 93.983661 
L 165.907865 94.125223 
L 166.206811 91.50211 
L 166.505756 97.943567 
L 166.804701 91.280272 
L 167.103646 88.255064 
L 167.402592 91.770093 
L 167.701537 93.414526 
L 168.000482 84.812378 
L 168.299427 90.18863 
L 168.598373 89.453418 
L 168.897318 97.943567 
L 169.196263 97.943567 
L 169.495208 87.60277 
L 169.794154 86.047986 
L 170.093099 91.807106 
L 170.392044 90.468631 
L 170.690989 92.433443 
L 170.989935 90.972632 
L 171.28888 97.943567 
L 171.587825 93.274406 
L 171.88677 92.310867 
L 172.185716 75.397386 
L 172.484661 80.974566 
L 172.783606 84.131964 
L 173.082551 82.154895 
L 173.381497 87.61623 
L 173.680442 87.445345 
L 173.979387 97.136973 
L 174.278332 95.782395 
L 174.577278 89.33565 
L 175.175168 91.702557 
L 175.474114 96.391666 
L 175.773059 97.943567 
L 176.072004 94.879422 
L 176.370949 89.485144 
L 176.669895 79.609413 
L 176.96884 77.52515 
L 177.267785 95.633141 
L 177.56673 97.943567 
L 177.865676 96.726946 
L 178.164621 94.794581 
L 178.463566 83.641662 
L 178.762511 87.868831 
L 179.360402 88.339424 
L 179.659347 89.626226 
L 179.958292 95.001758 
L 180.257238 88.44782 
L 180.556183 88.784061 
L 180.855128 96.565916 
L 181.154073 61.604049 
L 181.453019 95.212779 
L 181.751964 97.943567 
L 182.947745 97.943567 
L 183.24669 97.392218 
L 183.545635 97.943567 
L 184.442471 97.943567 
L 184.741416 93.454664 
L 185.040362 97.943567 
L 185.937197 97.943567 
L 186.236143 96.182086 
L 186.535088 96.875959 
L 186.834033 97.943567 
L 187.132978 96.849281 
L 187.431924 97.943567 
L 187.730869 97.879395 
L 188.029814 97.361454 
L 188.328759 97.943567 
L 188.92665 97.943567 
L 189.225595 93.776484 
L 190.122431 97.943567 
L 190.421376 96.98796 
L 190.720321 97.943567 
L 191.019267 97.943567 
L 191.318212 93.185238 
L 191.617157 97.943567 
L 192.215048 97.943567 
L 192.513993 97.206432 
L 192.812938 97.359051 
L 193.111883 91.379054 
L 193.410829 97.943567 
L 194.008719 97.943567 
L 194.307664 97.027136 
L 194.60661 97.943567 
L 194.905555 97.943567 
L 195.2045 97.518158 
L 195.503446 96.695461 
L 196.101336 97.943567 
L 196.400281 90.129987 
L 196.699227 97.943567 
L 197.596062 97.943567 
L 197.895008 94.598941 
L 198.193953 97.943567 
L 198.791843 97.943567 
L 199.090789 97.651789 
L 199.389734 93.781772 
L 199.688679 97.943567 
L 199.987624 97.943567 
L 200.28657 97.060543 
L 200.585515 97.943567 
L 200.88446 92.042403 
L 201.183405 97.943567 
L 201.482351 97.173745 
L 201.781296 97.943567 
L 202.080241 97.26051 
L 202.379186 95.190187 
L 202.678132 94.604229 
L 202.977077 97.943567 
L 203.574967 97.943567 
L 203.873913 95.899442 
L 204.172858 97.856803 
L 204.770748 97.943567 
L 205.368639 97.943567 
L 205.667584 97.399669 
L 205.966529 91.83763 
L 206.265475 97.943567 
L 207.16231 97.943567 
L 207.461256 97.678227 
L 207.760201 94.186271 
L 208.059146 97.943567 
L 208.955982 97.943567 
L 209.254927 68.698761 
L 209.553872 97.943567 
L 210.749653 97.943567 
L 211.048599 93.920931 
L 211.347544 97.943567 
L 211.646489 96.982191 
L 211.945434 97.943567 
L 212.24438 97.943567 
L 212.543325 91.015173 
L 212.84227 97.943567 
L 213.141215 97.943567 
L 213.440161 96.199151 
L 213.739106 97.559978 
L 214.038051 92.628361 
L 214.336996 97.943567 
L 214.934887 97.943567 
L 215.233832 97.790949 
L 215.532777 97.943567 
L 215.831723 88.345914 
L 216.130668 97.943567 
L 216.728559 97.943567 
L 217.027504 92.878079 
L 217.326449 97.943567 
L 217.625394 97.665008 
L 217.92434 97.943567 
L 218.223285 97.943567 
L 218.52223 95.147887 
L 218.821175 97.943567 
L 219.718011 97.943567 
L 220.016956 96.390945 
L 220.315902 92.168343 
L 220.614847 97.943567 
L 220.913792 97.943567 
L 221.212737 97.299686 
L 221.511683 97.943567 
L 221.810628 97.943567 
L 222.109573 93.137891 
L 222.408518 97.943567 
L 223.305354 97.943567 
L 223.604299 96.934603 
L 223.903245 97.943567 
L 224.80008 97.943567 
L 225.099026 96.795444 
L 225.397971 97.943567 
L 225.696916 95.229604 
L 225.995861 97.160767 
L 226.294807 97.943567 
L 226.593752 97.943567 
L 227.191642 93.742355 
L 227.490588 97.943567 
L 227.789533 97.943567 
L 228.088478 97.791189 
L 228.387423 97.943567 
L 228.686369 90.954847 
L 228.985314 97.943567 
L 229.88215 97.943567 
L 230.181095 97.286707 
L 230.48004 95.468746 
L 230.778985 97.943567 
L 231.675821 97.943567 
L 231.974766 97.565025 
L 232.273712 95.129861 
L 232.572657 97.612854 
L 232.871602 97.943567 
L 233.170547 97.943567 
L 233.469493 96.730071 
L 233.768438 92.10297 
L 234.067383 97.943567 
L 234.366328 97.943567 
L 234.665274 97.499652 
L 234.964219 97.943567 
L 235.562109 97.021367 
L 235.861055 97.943567 
L 236.16 92.980465 
L 236.458945 96.522173 
L 236.757891 97.943567 
L 237.056836 97.665249 
L 237.355781 97.943567 
L 237.953672 97.943567 
L 238.252617 92.520447 
L 238.551562 97.943567 
L 239.149453 97.943567 
L 239.448398 97.399669 
L 239.747343 97.943567 
L 240.046288 94.559525 
L 240.345234 97.686159 
L 240.644179 97.943567 
L 240.943124 97.943567 
L 241.242069 97.512871 
L 241.541015 91.393474 
L 241.83996 97.943567 
L 242.138905 97.943567 
L 242.43785 96.868989 
L 242.736796 97.107891 
L 243.035741 97.943567 
L 243.334686 67.877746 
L 243.633631 97.943567 
L 244.829412 97.943567 
L 245.128358 89.654346 
L 245.427303 97.943567 
L 246.025193 97.943567 
L 246.324139 97.207634 
L 246.623084 93.264311 
L 246.922029 97.943567 
L 247.51992 97.943567 
L 247.818865 97.804408 
L 248.11781 97.943567 
L 248.416755 97.943567 
L 248.715701 95.02435 
L 249.014646 97.943567 
L 249.313591 97.943567 
L 249.612536 95.748025 
L 249.911482 88.334137 
L 250.210427 97.943567 
L 251.406208 97.943567 
L 251.705153 96.217177 
L 252.004098 97.943567 
L 252.303044 97.943567 
L 252.601989 95.803785 
L 252.900934 97.211479 
L 253.199879 97.943567 
L 253.498825 97.943567 
L 253.79777 97.49821 
L 254.096715 94.802272 
L 254.39566 94.963062 
L 254.694606 97.052852 
L 255.292496 94.251885 
L 255.591441 94.077155 
L 255.890387 95.08035 
L 256.189332 91.573252 
L 256.488277 97.943567 
L 256.787223 97.943567 
L 257.086168 95.184419 
L 257.385113 97.943567 
L 257.684058 88.564867 
L 257.983004 87.189379 
L 258.281949 97.943567 
L 259.47773 97.943567 
L 259.776675 94.530203 
L 260.07562 94.486941 
L 260.374566 92.654559 
L 260.673511 95.972507 
L 260.972456 97.875309 
L 261.271401 95.25532 
L 261.570347 97.943567 
L 262.467182 97.943567 
L 262.766128 74.029108 
L 263.065073 97.761627 
L 263.364018 87.791921 
L 263.662963 97.943567 
L 263.961909 97.943567 
L 264.260854 92.915572 
L 264.858744 97.943567 
L 265.15769 92.104652 
L 265.456635 97.943567 
L 265.75558 97.943567 
L 266.054525 95.11544 
L 266.353471 97.943567 
L 266.652416 93.196534 
L 266.951361 96.809384 
L 267.250306 97.943567 
L 267.549252 97.943567 
L 267.848197 97.494845 
L 268.147142 95.816043 
L 268.446087 97.943567 
L 268.745033 97.943567 
L 269.043978 90.003325 
L 269.342923 92.230112 
L 269.641868 97.943567 
L 269.940814 95.45096 
L 270.239759 97.943567 
L 270.538704 92.803813 
L 270.837649 97.943567 
L 273.229211 97.943567 
L 273.528157 94.529722 
L 273.827102 97.943567 
L 274.126047 94.280966 
L 274.424992 97.943567 
L 278.610226 97.943567 
L 278.909171 97.548922 
L 279.208117 97.943567 
L 282.496514 97.943567 
L 283.094405 82.000594 
L 283.39335 88.474017 
L 283.692295 91.616754 
L 283.991241 93.018199 
L 284.290186 80.285981 
L 284.589131 82.33323 
L 284.888076 77.896482 
L 285.187022 91.932326 
L 285.485967 86.214784 
L 285.784912 76.137645 
L 286.083857 88.17551 
L 286.382803 84.797957 
L 286.980693 92.407726 
L 287.279638 80.945965 
L 287.578584 85.878303 
L 287.877529 87.587148 
L 288.176474 92.280584 
L 288.475419 91.185096 
L 288.774365 87.377087 
L 289.07331 94.477808 
L 289.372255 90.890194 
L 289.6712 93.398904 
L 289.970146 94.839766 
L 290.269091 82.583428 
L 290.568036 97.943567 
L 290.866981 97.943567 
L 291.165927 97.786382 
L 291.464872 95.724712 
L 291.763817 97.943567 
L 292.062762 96.579135 
L 292.361708 97.943567 
L 292.959598 97.943567 
L 293.258543 95.92612 
L 293.557489 96.506551 
L 293.856434 95.007766 
L 294.155379 97.852477 
L 294.75327 97.369866 
L 295.052215 97.943567 
L 295.35116 86.998065 
L 295.650105 97.943567 
L 296.247996 97.943567 
L 296.546941 97.480184 
L 296.845886 95.315166 
L 297.144832 97.895979 
L 298.041668 97.939721 
L 298.340613 97.943567 
L 298.639558 90.344373 
L 298.938503 96.352731 
L 299.536394 89.951892 
L 299.835339 97.004543 
L 300.134284 84.199741 
L 300.43323 84.484308 
L 300.732175 94.636915 
L 301.03112 90.023274 
L 301.330065 96.820921 
L 301.629011 95.852335 
L 301.927956 89.659874 
L 302.226901 89.824269 
L 302.525846 91.682128 
L 302.824792 86.538047 
L 303.123737 90.673404 
L 303.422682 91.604016 
L 303.721627 95.906412 
L 304.020573 83.110022 
L 304.319518 88.741279 
L 304.618463 90.60779 
L 304.917408 83.659208 
L 305.216354 87.807303 
L 305.515299 83.348924 
L 305.814244 87.834222 
L 306.113189 84.857322 
L 306.412135 83.523654 
L 306.71108 81.108438 
L 307.010025 94.336726 
L 307.30897 92.359176 
L 307.607916 93.055212 
L 307.906861 88.344472 
L 308.205806 79.028502 
L 308.504751 89.159959 
L 308.803697 91.212015 
L 309.102642 81.260095 
L 309.401587 89.487307 
L 309.700532 83.66762 
L 309.999478 61.1224 
L 310.298423 97.943567 
L 310.597368 97.181436 
L 311.195259 87.423714 
L 311.494204 87.016572 
L 311.793149 75.661043 
L 312.092094 91.510522 
L 312.689985 89.578638 
L 312.98893 94.672006 
L 313.287875 77.707091 
L 313.586821 94.198048 
L 313.885766 90.312167 
L 314.184711 93.998802 
L 314.483656 91.141594 
L 314.782602 95.212299 
L 315.081547 90.623653 
L 315.380492 94.23482 
L 315.679437 92.146953 
L 315.978383 94.263902 
L 316.277328 97.943567 
L 316.576273 96.071288 
L 316.875218 91.557629 
L 317.174164 97.795996 
L 317.473109 92.555778 
L 317.772054 89.501728 
L 318.070999 94.224005 
L 318.369945 93.436638 
L 318.66889 97.943567 
L 318.967835 97.943567 
L 319.266781 94.35379 
L 319.565726 97.943567 
L 319.864671 89.809608 
L 320.163616 97.943567 
L 321.359397 97.943567 
L 321.658343 97.146827 
L 321.957288 97.943567 
L 323.153069 97.943567 
L 323.452014 95.907614 
L 323.750959 97.943567 
L 324.34885 97.943567 
L 324.647795 95.303389 
L 324.94674 97.943567 
L 325.843576 97.943567 
L 326.142521 74.633333 
L 326.441467 97.943567 
L 327.637248 97.943567 
L 327.936193 89.050121 
L 328.235138 97.943567 
L 329.131974 97.943567 
L 329.430919 96.278705 
L 329.729864 83.677954 
L 330.02881 91.165869 
L 330.327755 91.196152 
L 330.6267 87.444143 
L 330.925645 94.004571 
L 331.224591 91.176925 
L 331.523536 97.943567 
L 331.822481 91.930162 
L 332.121426 97.943567 
L 332.420372 97.943567 
L 332.719317 94.615044 
L 333.018262 93.160964 
L 333.317207 97.594588 
L 333.915098 94.349705 
L 334.214043 96.055185 
L 334.512988 93.425823 
L 334.811934 93.831763 
L 335.110879 96.894466 
L 335.409824 96.937007 
L 335.708769 91.481921 
L 336.30666 87.608058 
L 336.605605 94.964745 
L 336.90455 91.398522 
L 337.502441 90.546022 
L 337.801386 88.74152 
L 338.100331 85.844895 
L 338.399277 96.320044 
L 338.698222 91.099053 
L 339.296113 97.943567 
L 339.595058 84.596549 
L 340.192948 94.9335 
L 340.491894 91.713853 
L 341.089784 95.60454 
L 341.388729 85.383435 
L 341.687675 96.933882 
L 341.98662 93.940399 
L 342.285565 96.459443 
L 342.58451 86.476038 
L 342.883456 94.493671 
L 343.182401 92.958594 
L 343.481346 93.098714 
L 343.780291 92.943933 
L 344.079237 96.821882 
L 344.378182 90.011978 
L 344.677127 97.943567 
L 344.976072 96.27534 
L 345.275018 97.300166 
L 345.573963 95.641072 
L 345.872908 86.866357 
L 346.171853 97.943567 
L 346.470799 97.376355 
L 346.769744 97.071119 
L 347.068689 97.943567 
L 347.367634 89.51014 
L 347.66658 97.943567 
L 348.862361 97.943567 
L 349.161306 90.751756 
L 349.460251 97.943567 
L 349.759196 96.702912 
L 350.058142 97.943567 
L 350.357087 97.943567 
L 350.656032 97.402553 
L 350.954977 91.226916 
L 351.253923 97.943567 
L 352.150758 97.943567 
L 352.449704 92.593031 
L 352.748649 97.943567 
L 353.645485 97.943567 
L 353.94443 97.497969 
L 354.243375 69.670231 
L 354.54232 97.943567 
L 355.738101 97.943567 
L 356.037047 93.094148 
L 356.335992 97.943567 
L 357.232828 97.943567 
L 357.531773 89.304886 
L 357.830718 97.943567 
L 358.727554 97.943567 
L 359.026499 90.282365 
L 359.325445 90.421764 
L 359.62439 96.402722 
L 359.923335 88.068797 
L 360.22228 58.092865 
L 360.521226 97.937078 
L 360.820171 94.223043 
L 361.119116 94.212708 
L 361.418061 90.844289 
L 361.717007 92.775452 
L 362.015952 86.437343 
L 362.314897 93.78754 
L 362.613842 87.769809 
L 362.912788 87.575612 
L 363.211733 85.090936 
L 363.510678 87.951029 
L 363.809623 81.847976 
L 364.108569 95.200522 
L 364.407514 87.067765 
L 364.706459 88.069038 
L 365.30435 77.260772 
L 365.603295 89.511341 
L 365.90224 95.862669 
L 366.201185 84.083174 
L 366.500131 83.824324 
L 366.799076 81.480971 
L 367.098021 77.647485 
L 367.396966 89.994673 
L 367.695912 93.059298 
L 367.994857 84.320394 
L 368.293802 89.082327 
L 368.592747 86.478682 
L 368.891693 74.572285 
L 369.190638 92.532705 
L 369.788528 87.370117 
L 370.087474 86.124655 
L 370.386419 74.830415 
L 370.685364 93.002577 
L 370.984309 85.740826 
L 371.283255 97.501575 
L 371.5822 91.589595 
L 371.881145 90.20906 
L 372.18009 70.998131 
L 372.479036 95.618961 
L 372.777981 89.051804 
L 373.076926 90.18118 
L 373.375871 88.935477 
L 373.674817 84.561218 
L 373.973762 95.35963 
L 374.272707 94.84986 
L 374.571652 89.227255 
L 374.870598 97.815223 
L 375.169543 90.353747 
L 375.468488 78.606217 
L 376.066379 97.919292 
L 376.365324 97.398467 
L 376.664269 97.943567 
L 376.963214 95.145483 
L 377.26216 97.943567 
L 377.86005 97.943567 
L 378.158995 83.062914 
L 378.457941 97.943567 
L 383.241065 97.943567 
L 383.54001 95.246428 
L 383.838955 97.943567 
L 384.735791 97.943567 
L 385.034736 87.649397 
L 385.333682 97.943567 
L 390.116806 97.943567 
L 390.415751 97.592184 
L 390.714696 91.385303 
L 391.013641 87.97314 
L 391.312587 94.614323 
L 391.611532 87.200915 
L 391.910477 84.567467 
L 392.209422 97.699378 
L 392.508368 95.928524 
L 392.807313 97.943567 
L 394.003094 97.943567 
L 394.302039 95.827339 
L 394.600984 97.943567 
L 395.198875 97.943567 
L 395.49782 97.5333 
L 395.796765 97.943567 
L 396.095711 97.14178 
L 396.394656 97.658759 
L 396.693601 96.928835 
L 397.291492 97.943567 
L 397.590437 95.966258 
L 397.889382 97.943567 
L 398.487273 97.943567 
L 398.487273 97.943567 
" clip-path="url(#p5bd3edab1e)" style="fill: none; stroke: #1f77b4; stroke-width: 1.5; stroke-linecap: square"/>
   </g>
   <g id="line2d_20">
    <path d="M 73.832727 97.943567 
L 74.131673 98.068546 
L 74.430618 99.030883 
L 74.729563 95.091406 
L 75.028508 97.565987 
L 75.327454 99.018385 
L 75.626399 99.149613 
L 75.925344 97.458553 
L 76.523235 97.121591 
L 76.82218 99.676206 
L 77.121125 98.630951 
L 77.42007 98.67253 
L 77.719016 98.081765 
L 78.017961 97.829404 
L 78.316906 98.232701 
L 78.615851 99.261373 
L 79.213742 95.347612 
L 79.512687 96.585383 
L 79.811632 92.056343 
L 80.110578 104.105024 
L 80.409523 108.641275 
L 80.708468 102.22289 
L 81.007413 100.871677 
L 81.306359 100.178525 
L 81.605304 100.701273 
L 81.904249 98.359602 
L 82.50214 116.617088 
L 82.801085 109.700711 
L 83.10003 98.07167 
L 83.398975 109.650238 
L 83.697921 100.725307 
L 83.996866 102.492797 
L 84.295811 97.644819 
L 84.594756 101.540314 
L 84.893702 101.821516 
L 85.192647 97.737112 
L 85.491592 99.125578 
L 85.790537 98.760015 
L 86.089483 98.756891 
L 86.687373 92.560344 
L 86.986318 95.264694 
L 87.285264 91.87296 
L 87.584209 92.786988 
L 87.883154 92.730027 
L 88.182099 85.888877 
L 88.481045 84.467003 
L 88.77999 89.466156 
L 89.078935 87.227593 
L 89.37788 92.496172 
L 89.676826 87.998376 
L 90.274716 94.232657 
L 90.573661 88.896541 
L 90.872607 96.921865 
L 91.171552 95.447595 
L 91.470497 96.034996 
L 91.769442 97.56863 
L 92.068388 90.144264 
L 92.367333 91.086389 
L 92.666278 90.030356 
L 92.965224 97.636053 
L 93.264169 97.482445 
L 93.563114 99.834431 
L 93.862059 93.901043 
L 94.161005 106.607965 
L 94.45995 104.884699 
L 94.758895 98.233181 
L 95.05784 100.693822 
L 95.356786 100.377049 
L 95.655731 103.668078 
L 95.954676 102.709659 
L 96.253621 98.384781 
L 96.552567 95.728454 
L 96.851512 90.978737 
L 97.449402 107.165684 
L 97.748348 104.874074 
L 98.047293 46.970182 
L 98.346238 107.15667 
L 98.645183 83.141747 
L 98.944129 114.254026 
L 99.243074 90.182535 
L 99.542019 104.36902 
L 99.840964 112.706692 
L 100.13991 80.464796 
L 100.7378 132.234395 
L 101.335691 113.157577 
L 101.634636 106.16865 
L 101.933581 121.263701 
L 102.232526 101.374102 
L 102.531472 132.112541 
L 102.830417 134.029283 
L 103.129362 130.704125 
L 103.428307 135.265853 
L 103.727253 132.887169 
L 104.026198 125.699203 
L 104.325143 156.933818 
L 104.624088 137.872863 
L 104.923034 130.963216 
L 105.221979 108.452364 
L 105.520924 123.39046 
L 105.819869 101.98799 
L 106.118815 98.574734 
L 106.41776 124.589652 
L 106.716705 71.948103 
L 107.01565 117.173243 
L 107.314596 134.7681 
L 107.613541 107.658989 
L 107.912486 120.14125 
L 108.510377 130.219832 
L 108.809322 107.525118 
L 109.108267 119.133008 
L 109.407212 124.025366 
L 109.706158 122.471911 
L 110.304048 150.190318 
L 110.602993 115.865824 
L 110.901939 142.15108 
L 111.200884 123.037395 
L 111.499829 67.231468 
L 111.798774 109.723468 
L 112.396665 119.556253 
L 112.69561 130.772383 
L 112.994555 107.294628 
L 113.293501 101.082218 
L 113.592446 102.917004 
L 113.891391 103.836079 
L 114.788227 89.980181 
L 115.087172 95.731434 
L 115.386118 98.018074 
L 115.685063 97.424184 
L 115.984008 94.385996 
L 116.282953 99.393081 
L 116.581899 94.508091 
L 116.880844 99.597373 
L 117.179789 101.050733 
L 118.076625 95.499269 
L 118.37557 95.890069 
L 118.674515 96.889419 
L 118.973461 96.284473 
L 119.272406 100.849325 
L 119.571351 96.993728 
L 119.870296 91.371603 
L 120.169242 99.276034 
L 120.468187 97.782056 
L 120.767132 99.775949 
L 121.365023 97.011513 
L 121.663968 90.309523 
L 121.962913 98.790539 
L 122.261858 98.086572 
L 122.560804 99.041458 
L 122.859749 101.212485 
L 123.158694 96.040043 
L 123.457639 95.394479 
L 123.756585 99.837477 
L 124.05553 97.874108 
L 124.354475 97.776047 
L 124.65342 100.185976 
L 124.952366 97.732305 
L 125.251311 93.931987 
L 125.550256 97.617901 
L 125.849201 98.614607 
L 126.148147 101.263437 
L 126.447092 96.706517 
L 126.746037 90.35615 
L 127.044982 100.47535 
L 127.343928 96.155649 
L 127.642873 99.033767 
L 127.941818 94.545344 
L 128.240763 99.002282 
L 128.539709 101.363421 
L 128.838654 98.685989 
L 129.137599 101.070682 
L 129.436544 94.047832 
L 130.034435 100.365993 
L 130.33338 98.178623 
L 130.632325 94.910907 
L 130.931271 99.25945 
L 131.230216 90.03481 
L 131.529161 97.169419 
L 131.828106 101.403077 
L 132.127052 96.859616 
L 132.425997 97.42154 
L 132.724942 97.54748 
L 133.023887 93.735145 
L 133.322833 97.19778 
L 133.621778 99.215467 
L 133.920723 99.356068 
L 134.219669 98.066142 
L 134.518614 91.857578 
L 134.817559 99.899726 
L 135.116504 98.962865 
L 135.41545 99.157304 
L 135.714395 98.245439 
L 136.01334 99.030883 
L 136.312285 96.062155 
L 136.611231 100.610663 
L 136.910176 99.587039 
L 137.209121 94.960418 
L 137.508066 99.940585 
L 137.807012 97.807052 
L 138.105957 94.823663 
L 138.404902 98.941956 
L 138.703847 97.918331 
L 139.002793 99.446197 
L 139.301738 96.448387 
L 139.600683 95.511287 
L 139.899628 100.558989 
L 140.198574 100.389307 
L 140.497519 103.040781 
L 140.796464 99.517339 
L 141.095409 100.096087 
L 141.394355 99.728842 
L 141.6933 97.343909 
L 141.992245 100.006919 
L 142.29119 97.258106 
L 142.590136 99.319055 
L 142.889081 96.893985 
L 143.188026 92.519726 
L 143.486971 98.307688 
L 143.785917 100.033117 
L 144.084862 99.921117 
L 144.682752 96.934363 
L 144.981698 97.186964 
L 145.280643 97.760425 
L 145.579588 98.92393 
L 145.878533 94.523713 
L 146.177479 99.443073 
L 146.476424 95.837674 
L 146.775369 100.394835 
L 147.37326 91.084632 
L 147.672205 97.488356 
L 147.97115 97.588098 
L 148.270095 96.146275 
L 148.569041 96.074412 
L 148.867986 96.466894 
L 149.166931 91.815037 
L 149.465876 105.15749 
L 149.764822 97.515034 
L 150.063767 99.86055 
L 150.362712 97.907515 
L 150.661657 98.357439 
L 150.960603 92.260875 
L 151.259548 101.946014 
L 151.558493 101.596554 
L 151.857438 98.865526 
L 152.156384 97.459514 
L 152.754274 104.641712 
L 153.053219 100.74141 
L 153.352165 100.360465 
L 153.65111 102.034461 
L 154.249001 97.598914 
L 154.547946 104.062963 
L 154.846891 98.056769 
L 155.145836 100.086233 
L 155.444782 97.667171 
L 155.743727 99.00108 
L 156.042672 88.41321 
L 156.341617 100.837548 
L 156.640563 103.393606 
L 156.939508 97.599875 
L 157.238453 98.509096 
L 157.537398 91.119001 
L 157.836344 102.472848 
L 158.135289 97.536905 
L 158.434234 98.615088 
L 158.733179 100.309512 
L 159.032125 95.738171 
L 159.33107 93.426543 
L 159.630015 99.700962 
L 159.92896 93.843059 
L 160.227906 95.030358 
L 160.526851 107.737822 
L 160.825796 79.800228 
L 161.124741 87.289645 
L 161.423687 90.03927 
L 161.722632 87.558004 
L 162.021577 98.949366 
L 162.320522 102.800191 
L 162.619468 80.131575 
L 162.918413 94.841045 
L 163.217358 90.272991 
L 164.114194 99.524549 
L 164.413139 94.016347 
L 164.712084 110.151115 
L 165.01103 85.018962 
L 165.60892 93.983661 
L 165.907865 94.125223 
L 166.206811 91.50211 
L 166.505756 98.088254 
L 166.804701 91.280272 
L 167.103646 88.255063 
L 167.402592 91.770093 
L 167.701537 93.414526 
L 168.000482 75.795821 
L 168.299427 83.863431 
L 168.598373 83.855934 
L 168.897318 97.777117 
L 169.196263 99.854919 
L 169.495208 84.029832 
L 169.794154 81.820702 
L 170.093099 88.18909 
L 170.392044 86.116503 
L 170.690989 91.350015 
L 170.989935 90.972632 
L 171.28888 98.304563 
L 171.587825 93.274406 
L 171.88677 92.310867 
L 172.185716 75.397385 
L 172.484661 80.974565 
L 172.783606 84.131963 
L 173.082551 82.154894 
L 173.381497 87.616229 
L 173.680442 83.522152 
L 173.979387 96.924837 
L 174.278332 80.513118 
L 174.577278 89.33565 
L 174.876223 90.469833 
L 175.175168 90.853517 
L 175.474114 95.514677 
L 175.773059 105.528447 
L 176.072004 90.487033 
L 176.370949 59.371335 
L 176.669895 75.111006 
L 176.96884 75.114606 
L 177.267785 94.617199 
L 177.56673 99.859136 
L 177.865676 95.536749 
L 178.164621 93.532262 
L 178.463566 82.451684 
L 178.762511 86.963098 
L 179.061457 87.127402 
L 179.360402 86.745999 
L 179.659347 88.304663 
L 179.958292 94.02059 
L 180.257238 88.006741 
L 180.556183 86.776201 
L 180.855128 95.717693 
L 181.154073 59.251901 
L 181.453019 95.212779 
L 181.751964 110.758224 
L 182.050909 106.501973 
L 182.349854 106.16381 
L 182.6488 98.513422 
L 182.947745 104.754673 
L 183.24669 97.392218 
L 183.545635 116.506049 
L 183.844581 91.716923 
L 184.143526 105.41547 
L 184.442471 102.690942 
L 184.741416 93.021792 
L 185.040362 101.288953 
L 185.339307 101.613871 
L 185.638252 101.24947 
L 186.236143 96.068164 
L 186.535088 96.786861 
L 186.834033 98.973082 
L 187.132978 96.428709 
L 187.431924 102.346187 
L 187.730869 97.879395 
L 188.029814 97.361454 
L 188.328759 99.551639 
L 188.627705 97.872701 
L 188.92665 98.828513 
L 189.225595 93.776484 
L 189.823486 96.177168 
L 190.122431 98.997342 
L 190.421376 96.886088 
L 190.720321 97.113146 
L 191.019267 93.537464 
L 191.318212 93.185238 
L 191.617157 99.516618 
L 191.916102 98.540822 
L 192.215048 100.326096 
L 192.513993 97.206432 
L 192.812938 97.359051 
L 193.111883 91.379054 
L 193.410829 100.080224 
L 194.008719 98.779483 
L 194.307664 97.027136 
L 194.60661 100.006679 
L 194.905555 100.902681 
L 195.2045 97.518158 
L 195.503446 96.695461 
L 195.802391 97.266037 
L 196.101336 99.07102 
L 196.400281 90.029068 
L 196.699227 104.110751 
L 196.998172 98.028813 
L 197.297117 63.59401 
L 197.596062 66.745313 
L 197.895008 94.598941 
L 198.193953 98.487465 
L 198.492898 97.943567 
L 198.791843 99.496429 
L 199.090789 97.651789 
L 199.389734 93.781772 
L 199.688679 101.401155 
L 200.28657 97.060543 
L 200.585515 98.109164 
L 200.88446 92.042403 
L 201.183405 98.321868 
L 201.482351 97.173745 
L 201.781296 102.070993 
L 202.080241 97.26051 
L 202.379186 95.190187 
L 202.678132 94.604229 
L 202.977077 102.057774 
L 203.276022 98.090898 
L 203.574967 100.670749 
L 203.873913 95.899442 
L 204.471803 99.144325 
L 204.770748 98.600187 
L 205.069694 99.270265 
L 205.368639 99.257287 
L 205.667584 97.399669 
L 205.966529 91.83763 
L 206.265475 100.274182 
L 206.56442 98.282692 
L 206.863365 98.747517 
L 207.16231 98.408873 
L 207.461256 97.678227 
L 207.760201 94.186271 
L 208.059146 99.21787 
L 208.358091 99.635588 
L 208.657037 98.43483 
L 208.955982 98.82635 
L 209.254927 68.69876 
L 209.553872 107.680139 
L 209.852818 106.253939 
L 210.151763 100.452517 
L 210.450708 99.809116 
L 210.749653 100.14007 
L 211.048599 93.920931 
L 211.347544 102.662239 
L 211.646489 96.982191 
L 211.945434 102.701655 
L 212.24438 100.478955 
L 212.543325 91.015173 
L 212.84227 99.995864 
L 213.141215 98.595139 
L 213.440161 96.199151 
L 213.739106 97.559978 
L 214.038051 92.628361 
L 214.336996 101.487678 
L 214.635942 100.352774 
L 214.934887 99.861752 
L 215.233832 97.790949 
L 215.532777 98.613646 
L 215.831723 88.345913 
L 216.130668 100.844278 
L 216.429613 98.001578 
L 216.728559 102.691799 
L 217.027504 92.811671 
L 217.326449 99.669622 
L 217.625394 97.665008 
L 217.92434 98.878745 
L 218.223285 99.200925 
L 218.52223 94.526639 
L 218.821175 100.252206 
L 219.120121 99.023758 
L 219.419066 100.274004 
L 220.016956 96.289509 
L 220.315902 92.092582 
L 220.614847 99.255583 
L 220.913792 99.811604 
L 221.212737 97.299686 
L 221.511683 99.091275 
L 221.810628 99.496429 
L 222.109573 93.13789 
L 222.408518 97.988984 
L 223.006409 98.852548 
L 223.305354 98.574229 
L 223.604299 96.934603 
L 224.20219 99.774507 
L 224.501135 98.169237 
L 224.80008 98.812558 
L 225.099026 96.795444 
L 225.397971 100.374775 
L 225.696916 95.229603 
L 225.995861 97.084748 
L 226.593752 98.636584 
L 227.191642 93.678332 
L 227.490588 99.078711 
L 227.789533 99.09169 
L 228.088478 97.791189 
L 228.387423 99.155959 
L 228.686369 90.878484 
L 228.985314 102.939184 
L 229.284259 98.227742 
L 229.583204 100.26601 
L 229.88215 100.14007 
L 230.181095 97.222437 
L 230.48004 95.468746 
L 230.778985 99.202336 
L 231.077931 97.879462 
L 231.376876 98.421851 
L 231.675821 98.27057 
L 231.974766 97.463684 
L 232.273712 95.088052 
L 232.871602 99.785473 
L 233.170547 100.896432 
L 233.768438 92.102969 
L 234.067383 100.287401 
L 234.366328 100.857256 
L 234.665274 97.499652 
L 234.964219 98.673972 
L 235.263164 97.373712 
L 235.562109 97.021367 
L 235.861055 99.722352 
L 236.16 92.980465 
L 236.458945 96.522173 
L 236.757891 101.944812 
L 237.056836 97.623748 
L 237.355781 99.458528 
L 237.654726 98.574229 
L 237.953672 98.30889 
L 238.252617 92.520447 
L 238.551562 100.731316 
L 238.850507 100.365993 
L 239.149453 99.596172 
L 239.448398 97.399669 
L 239.747343 100.857497 
L 240.046288 94.559525 
L 240.644179 99.7697 
L 240.943124 99.616669 
L 241.242069 97.512871 
L 241.541015 91.393474 
L 241.83996 98.860479 
L 242.138905 100.352774 
L 242.43785 96.868989 
L 242.736796 97.107891 
L 243.035741 98.082726 
L 243.334686 67.877745 
L 243.633631 112.624254 
L 243.932577 104.600853 
L 244.231522 100.147761 
L 244.530467 100.365993 
L 244.829412 99.16649 
L 245.128358 89.611738 
L 245.427303 102.596385 
L 245.726248 98.4555 
L 246.025193 102.901381 
L 246.623084 93.203385 
L 246.922029 99.442029 
L 247.51992 100.100413 
L 247.818865 97.740303 
L 248.416755 98.534573 
L 248.715701 95.02435 
L 249.014646 98.137044 
L 249.313591 99.915589 
L 249.612536 95.650868 
L 249.911482 88.196793 
L 250.210427 98.67384 
L 250.509372 97.838945 
L 250.808317 101.433956 
L 251.107263 99.068095 
L 251.406208 99.929779 
L 251.705153 95.953238 
L 252.004098 100.589946 
L 252.303044 99.683882 
L 252.601989 95.727509 
L 252.900934 97.110044 
L 253.199879 101.850378 
L 253.498825 98.55522 
L 253.79777 97.456016 
L 254.096715 94.759441 
L 254.39566 94.88955 
L 254.694606 97.000757 
L 255.292496 93.806694 
L 255.591441 93.543901 
L 255.890387 93.83828 
L 256.189332 88.726505 
L 256.787223 101.719738 
L 257.086168 92.671097 
L 257.385113 101.128444 
L 257.684058 85.582565 
L 257.983004 84.458397 
L 258.281949 96.179206 
L 258.580894 95.120836 
L 258.879839 106.131722 
L 259.178785 99.392398 
L 259.47773 97.217904 
L 259.776675 92.061202 
L 260.07562 91.932734 
L 260.374566 90.689314 
L 260.972456 95.745008 
L 261.271401 92.981993 
L 261.570347 98.072256 
L 261.869292 106.649335 
L 262.168237 107.608209 
L 262.467182 116.825672 
L 262.766128 71.289641 
L 263.065073 92.792369 
L 263.364018 84.555276 
L 263.961909 110.310572 
L 264.260854 89.948023 
L 264.559799 91.68747 
L 264.858744 100.163835 
L 265.15769 87.1848 
L 265.456635 105.61229 
L 265.75558 114.089133 
L 266.054525 91.508329 
L 266.353471 99.279694 
L 266.652416 89.76476 
L 267.549252 99.593992 
L 267.848197 93.64116 
L 268.147142 92.563844 
L 268.446087 98.298774 
L 268.745033 96.575692 
L 269.043978 87.432284 
L 269.342923 89.690146 
L 269.641868 95.989457 
L 269.940814 94.121458 
L 270.239759 103.769833 
L 270.538704 92.460807 
L 270.837649 99.625669 
L 271.136595 102.812499 
L 271.43554 100.721628 
L 272.03343 114.05448 
L 272.332376 103.581499 
L 272.631321 105.512251 
L 272.930266 103.106452 
L 273.229211 107.756821 
L 273.528157 87.102872 
L 273.827102 99.491048 
L 274.126047 88.075499 
L 274.424992 117.135624 
L 274.723938 98.07035 
L 275.321828 103.753614 
L 275.620773 111.582147 
L 275.919719 104.313501 
L 276.218664 112.083886 
L 276.517609 114.317167 
L 276.816554 109.317071 
L 277.1155 108.902794 
L 277.414445 101.673576 
L 277.71339 98.069663 
L 278.012336 96.08799 
L 278.311281 100.621166 
L 278.610226 102.429509 
L 278.909171 95.99648 
L 279.507062 104.347846 
L 279.806007 97.63484 
L 280.104952 93.658122 
L 280.403898 108.827008 
L 280.702843 103.893021 
L 281.300733 115.287521 
L 281.599679 100.981151 
L 281.898624 104.803099 
L 282.197569 136.232607 
L 282.79546 89.564068 
L 283.094405 80.685086 
L 283.39335 86.910899 
L 283.692295 90.418568 
L 283.991241 92.599937 
L 284.290186 78.963622 
L 284.589131 81.234514 
L 284.888076 76.754966 
L 285.187022 90.398131 
L 285.485967 84.885139 
L 285.784912 74.891236 
L 286.083857 86.578597 
L 286.382803 83.71167 
L 286.980693 91.109012 
L 287.279638 79.854514 
L 287.578584 84.984889 
L 287.877529 86.676829 
L 288.176474 90.744666 
L 288.475419 90.460688 
L 288.774365 87.236121 
L 289.07331 94.169277 
L 289.372255 90.722919 
L 289.970146 94.795473 
L 290.269091 82.48653 
L 290.568036 99.529754 
L 290.866981 102.509132 
L 291.165927 97.549995 
L 291.464872 95.56896 
L 291.763817 100.576069 
L 292.062762 96.527577 
L 292.361708 100.411546 
L 292.660653 100.681928 
L 292.959598 99.723579 
L 293.258543 95.85888 
L 293.557489 96.463725 
L 293.856434 94.965646 
L 294.155379 97.799346 
L 294.454324 97.488811 
L 294.75327 97.369866 
L 295.052215 98.339173 
L 295.35116 86.998065 
L 295.650105 103.029244 
L 295.949051 100.353839 
L 296.546941 97.480184 
L 296.845886 95.315166 
L 297.443777 99.725717 
L 297.742722 98.160747 
L 298.041668 97.825539 
L 298.340613 98.788275 
L 298.639558 90.100893 
L 298.938503 96.157383 
L 299.536394 89.592182 
L 299.835339 96.800343 
L 300.134284 83.443875 
L 300.43323 84.322959 
L 300.732175 94.021845 
L 301.03112 89.16534 
L 301.330065 96.103397 
L 301.629011 94.841448 
L 301.927956 88.788168 
L 302.226901 88.830465 
L 302.525846 90.757202 
L 302.824792 85.486475 
L 303.123737 89.10074 
L 303.422682 90.139836 
L 303.721627 94.799514 
L 304.020573 82.703974 
L 304.319518 88.426307 
L 304.618463 89.975454 
L 304.917408 82.318197 
L 305.216354 84.298968 
L 305.515299 79.84111 
L 305.814244 87.834221 
L 306.113189 84.857321 
L 306.412135 83.523653 
L 306.71108 81.108437 
L 307.010025 94.336726 
L 307.30897 92.359176 
L 307.607916 93.055212 
L 307.906861 88.344471 
L 308.205806 79.028501 
L 308.504751 89.159958 
L 308.803697 91.212015 
L 309.102642 81.260094 
L 309.401587 89.487307 
L 309.700532 83.667619 
L 309.999478 61.122398 
L 310.298423 101.831851 
L 311.195259 86.655911 
L 311.494204 80.610343 
L 311.793149 71.677261 
L 312.092094 87.39277 
L 312.39104 88.585176 
L 312.689985 88.697944 
L 312.98893 93.805241 
L 313.287875 76.984071 
L 313.586821 93.706864 
L 313.885766 89.688454 
L 314.184711 93.443264 
L 314.483656 90.835759 
L 314.782602 94.821339 
L 315.081547 90.232249 
L 315.380492 94.09964 
L 315.679437 91.787972 
L 315.978383 93.455534 
L 316.277328 99.47791 
L 316.875218 90.421059 
L 317.174164 96.487622 
L 317.772054 87.966361 
L 318.070999 92.053834 
L 318.369945 91.160321 
L 318.66889 99.913653 
L 318.967835 99.030564 
L 319.266781 91.589588 
L 319.565726 96.1829 
L 319.864671 88.336178 
L 320.163616 102.16425 
L 320.462562 100.970337 
L 320.761507 107.720755 
L 321.060452 103.385305 
L 321.359397 101.972534 
L 321.658343 97.094655 
L 322.256233 100.471641 
L 322.555178 99.928977 
L 322.854124 100.43086 
L 323.153069 98.446049 
L 323.452014 95.631688 
L 323.750959 97.751011 
L 324.049905 97.554186 
L 324.34885 98.378842 
L 324.647795 94.800321 
L 324.94674 100.15231 
L 325.245686 99.595221 
L 325.843576 97.664333 
L 326.142521 74.509426 
L 326.441467 106.682518 
L 327.039357 101.424294 
L 327.338302 100.046656 
L 327.637248 99.733201 
L 327.936193 89.050121 
L 328.235138 103.35126 
L 328.534083 99.076308 
L 328.833029 100.183332 
L 329.131974 100.181667 
L 329.430919 95.62102 
L 329.729864 82.888242 
L 330.02881 88.498386 
L 330.327755 87.17868 
L 330.6267 81.842196 
L 330.925645 89.638147 
L 331.224591 84.906722 
L 331.523536 102.320258 
L 331.822481 88.31884 
L 332.121426 96.55293 
L 332.420372 97.034363 
L 332.719317 90.823032 
L 333.018262 89.378484 
L 333.317207 93.645032 
L 333.616153 92.93347 
L 333.915098 91.406234 
L 334.214043 93.32531 
L 334.512988 90.348996 
L 334.811934 90.415102 
L 335.110879 93.869467 
L 335.409824 94.523536 
L 336.007715 84.455315 
L 336.30666 84.886124 
L 336.605605 92.24221 
L 336.90455 89.317551 
L 337.203496 87.700056 
L 337.502441 87.199813 
L 337.801386 85.94953 
L 338.100331 82.853592 
L 338.399277 91.917062 
L 338.698222 88.429238 
L 339.296113 93.583012 
L 339.595058 82.092401 
L 340.192948 92.64683 
L 340.491894 87.953728 
L 341.089784 91.852651 
L 341.388729 80.822312 
L 341.687675 93.097754 
L 341.98662 90.875765 
L 342.285565 93.760835 
L 342.58451 84.189339 
L 342.883456 92.723446 
L 343.182401 91.285004 
L 343.481346 91.695558 
L 343.780291 91.715344 
L 344.079237 95.913308 
L 344.378182 89.352359 
L 344.677127 100.941499 
L 344.976072 95.952877 
L 345.275018 97.148741 
L 345.573963 95.511716 
L 345.872908 86.711795 
L 346.171853 98.837612 
L 346.470799 97.249354 
L 346.769744 97.030385 
L 347.068689 101.454617 
L 347.367634 89.420035 
L 347.66658 100.936998 
L 347.965525 100.768869 
L 348.26447 98.502162 
L 348.563415 100.836501 
L 348.862361 99.752147 
L 349.161306 90.751756 
L 349.460251 99.134223 
L 349.759196 96.65042 
L 350.357087 101.889973 
L 350.656032 97.402553 
L 350.954977 91.09827 
L 351.253923 98.558088 
L 351.552868 98.264094 
L 352.150758 100.849842 
L 352.449704 92.540459 
L 352.748649 101.510743 
L 353.346539 98.046736 
L 353.645485 100.1721 
L 353.94443 97.445715 
L 354.243375 69.608655 
L 354.54232 110.300447 
L 354.841266 102.081568 
L 355.140211 104.332389 
L 355.439156 98.223327 
L 355.738101 99.873529 
L 356.037047 93.05257 
L 356.335992 102.048193 
L 356.634937 100.575236 
L 356.933882 99.747108 
L 357.232828 98.293267 
L 357.531773 89.304886 
L 357.830718 101.075931 
L 358.129663 98.293984 
L 358.428609 98.830245 
L 358.727554 100.627457 
L 359.026499 89.216653 
L 359.325445 86.788496 
L 359.62439 93.498752 
L 359.923335 85.611898 
L 360.22228 55.526353 
L 360.521226 94.002772 
L 360.820171 92.029927 
L 361.119116 90.877485 
L 361.418061 87.841204 
L 361.717007 89.514225 
L 362.015952 82.801294 
L 362.314897 91.947811 
L 362.613842 86.435738 
L 362.912788 85.308382 
L 363.211733 81.104906 
L 363.510678 84.198048 
L 363.809623 78.221868 
L 364.108569 90.742862 
L 364.407514 83.438619 
L 364.706459 84.209506 
L 365.30435 73.309063 
L 365.603295 86.820489 
L 365.90224 93.190302 
L 366.201185 81.236303 
L 366.799076 78.604136 
L 367.098021 76.02637 
L 367.396966 87.851639 
L 367.695912 91.012749 
L 367.994857 82.280113 
L 368.293802 86.497378 
L 368.592747 84.038724 
L 368.891693 72.280151 
L 369.190638 91.302066 
L 369.489583 85.683892 
L 370.087474 82.756307 
L 370.386419 71.151128 
L 370.685364 91.754038 
L 370.984309 83.314096 
L 371.283255 95.066485 
L 371.5822 89.175766 
L 371.881145 87.865362 
L 372.18009 68.79996 
L 372.479036 93.018634 
L 372.777981 86.602209 
L 373.076926 89.079466 
L 373.375871 87.081171 
L 373.674817 82.952103 
L 373.973762 94.187482 
L 374.272707 93.412619 
L 374.571652 88.134088 
L 374.870598 96.610199 
L 375.169543 88.435159 
L 375.468488 76.028559 
L 376.066379 93.654553 
L 376.365324 91.607392 
L 376.664269 100.419254 
L 376.963214 90.053242 
L 377.26216 99.56055 
L 377.561105 96.691491 
L 377.86005 95.305126 
L 378.158995 76.851896 
L 378.457941 101.230527 
L 378.756886 99.177239 
L 379.055831 98.990824 
L 379.354776 111.145878 
L 379.653722 97.296523 
L 380.251612 119.041571 
L 380.550558 106.871152 
L 380.849503 112.977819 
L 381.148448 144.848011 
L 381.746339 119.611015 
L 382.045284 121.340576 
L 382.344229 112.566151 
L 382.643174 144.277512 
L 382.94212 100.28425 
L 383.241065 98.35504 
L 383.54001 94.953696 
L 383.838955 102.184832 
L 384.436846 97.161595 
L 384.735791 99.26479 
L 385.034736 86.007768 
L 385.333682 106.182204 
L 385.632627 105.937613 
L 385.931572 98.921898 
L 386.230517 102.124745 
L 386.529463 101.361613 
L 386.828408 97.07831 
L 387.127353 103.825922 
L 387.426298 107.294126 
L 387.725244 101.196707 
L 388.024189 112.358171 
L 388.323134 113.179044 
L 388.622079 100.387528 
L 388.921025 115.267486 
L 389.518915 103.691648 
L 389.81786 104.914156 
L 390.116806 102.819143 
L 390.714696 90.005978 
L 391.013641 87.282254 
L 391.312587 93.649825 
L 391.611532 86.496567 
L 391.910477 83.996073 
L 392.209422 97.226175 
L 392.508368 95.477318 
L 392.807313 98.182851 
L 393.106258 98.323923 
L 393.405203 100.34268 
L 393.704149 100.748621 
L 394.003094 100.037683 
L 394.302039 95.784062 
L 394.600984 98.065181 
L 394.89993 98.040426 
L 395.198875 99.017424 
L 395.49782 97.5333 
L 395.796765 99.254162 
L 396.095711 97.14178 
L 396.394656 97.658759 
L 396.693601 96.928835 
L 396.992546 97.450622 
L 397.291492 100.8736 
L 397.590437 95.966258 
L 397.889382 98.44156 
L 398.188327 98.692959 
L 398.487273 98.58168 
L 398.487273 98.58168 
" clip-path="url(#p5bd3edab1e)" style="fill: none; stroke: #ff7f0e; stroke-width: 1.5; stroke-linecap: square"/>
   </g>
   <g id="patch_3">
    <path d="M 57.6 162.432 
L 57.6 41.472 
" style="fill: none; stroke: #000000; stroke-width: 0.8; stroke-linejoin: miter; stroke-linecap: square"/>
   </g>
   <g id="patch_4">
    <path d="M 414.72 162.432 
L 414.72 41.472 
" style="fill: none; stroke: #000000; stroke-width: 0.8; stroke-linejoin: miter; stroke-linecap: square"/>
   </g>
   <g id="patch_5">
    <path d="M 57.6 162.432 
L 414.72 162.432 
" style="fill: none; stroke: #000000; stroke-width: 0.8; stroke-linejoin: miter; stroke-linecap: square"/>
   </g>
   <g id="patch_6">
    <path d="M 57.6 41.472 
L 414.72 41.472 
" style="fill: none; stroke: #000000; stroke-width: 0.8; stroke-linejoin: miter; stroke-linecap: square"/>
   </g>
   <g id="legend_1">
    <g id="patch_7">
     <path d="M 173.14125 157.432 
L 299.17875 157.432 
Q 301.17875 157.432 301.17875 155.432 
L 301.17875 126.797625 
Q 301.17875 124.797625 299.17875 124.797625 
L 173.14125 124.797625 
Q 171.14125 124.797625 171.14125 126.797625 
L 171.14125 155.432 
Q 171.14125 157.432 173.14125 157.432 
z
" style="fill: #ffffff; opacity: 0.8; stroke: #cccccc; stroke-linejoin: miter"/>
    </g>
    <g id="line2d_21">
     <path d="M 175.14125 132.896062 
L 185.14125 132.896062 
L 195.14125 132.896062 
" style="fill: none; stroke: #1f77b4; stroke-width: 1.5; stroke-linecap: square"/>
    </g>
    <g id="text_11">
     <!-- bmp280 -->
     <g transform="translate(203.14125 136.396062)scale(0.1 -0.1)">
      <defs>
       <path id="DejaVuSans-62" d="M 3116 1747 
Q 3116 2381 2855 2742 
Q 2594 3103 2138 3103 
Q 1681 3103 1420 2742 
Q 1159 2381 1159 1747 
Q 1159 1113 1420 752 
Q 1681 391 2138 391 
Q 2594 391 2855 752 
Q 3116 1113 3116 1747 
z
M 1159 2969 
Q 1341 3281 1617 3432 
Q 1894 3584 2278 3584 
Q 2916 3584 3314 3078 
Q 3713 2572 3713 1747 
Q 3713 922 3314 415 
Q 2916 -91 2278 -91 
Q 1894 -91 1617 61 
Q 1341 213 1159 525 
L 1159 0 
L 581 0 
L 581 4863 
L 1159 4863 
L 1159 2969 
z
" transform="scale(0.015625)"/>
       <path id="DejaVuSans-6d" d="M 3328 2828 
Q 3544 3216 3844 3400 
Q 4144 3584 4550 3584 
Q 5097 3584 5394 3201 
Q 5691 2819 5691 2113 
L 5691 0 
L 5113 0 
L 5113 2094 
Q 5113 2597 4934 2840 
Q 4756 3084 4391 3084 
Q 3944 3084 3684 2787 
Q 3425 2491 3425 1978 
L 3425 0 
L 2847 0 
L 2847 2094 
Q 2847 2600 2669 2842 
Q 2491 3084 2119 3084 
Q 1678 3084 1418 2786 
Q 1159 2488 1159 1978 
L 1159 0 
L 581 0 
L 581 3500 
L 1159 3500 
L 1159 2956 
Q 1356 3278 1631 3431 
Q 1906 3584 2284 3584 
Q 2666 3584 2933 3390 
Q 3200 3197 3328 2828 
z
" transform="scale(0.015625)"/>
      </defs>
      <use xlink:href="#DejaVuSans-62"/>
      <use xlink:href="#DejaVuSans-6d" x="63.476562"/>
      <use xlink:href="#DejaVuSans-70" x="160.888672"/>
      <use xlink:href="#DejaVuSans-32" x="224.365234"/>
      <use xlink:href="#DejaVuSans-38" x="287.988281"/>
      <use xlink:href="#DejaVuSans-30" x="351.611328"/>
     </g>
    </g>
    <g id="line2d_22">
     <path d="M 175.14125 147.574187 
L 185.14125 147.574187 
L 195.14125 147.574187 
" style="fill: none; stroke: #ff7f0e; stroke-width: 1.5; stroke-linecap: square"/>
    </g>
    <g id="text_12">
     <!-- corrected_bmp280 -->
     <g transform="translate(203.14125 151.074187)scale(0.1 -0.1)">
      <defs>
       <path id="DejaVuSans-63" d="M 3122 3366 
L 3122 2828 
Q 2878 2963 2633 3030 
Q 2388 3097 2138 3097 
Q 1578 3097 1268 2742 
Q 959 2388 959 1747 
Q 959 1106 1268 751 
Q 1578 397 2138 397 
Q 2388 397 2633 464 
Q 2878 531 3122 666 
L 3122 134 
Q 2881 22 2623 -34 
Q 2366 -91 2075 -91 
Q 1284 -91 818 406 
Q 353 903 353 1747 
Q 353 2603 823 3093 
Q 1294 3584 2113 3584 
Q 2378 3584 2631 3529 
Q 2884 3475 3122 3366 
z
" transform="scale(0.015625)"/>
       <path id="DejaVuSans-74" d="M 1172 4494 
L 1172 3500 
L 2356 3500 
L 2356 3053 
L 1172 3053 
L 1172 1153 
Q 1172 725 1289 603 
Q 1406 481 1766 481 
L 2356 481 
L 2356 0 
L 1766 0 
Q 1100 0 847 248 
Q 594 497 594 1153 
L 594 3053 
L 172 3053 
L 172 3500 
L 594 3500 
L 594 4494 
L 1172 4494 
z
" transform="scale(0.015625)"/>
       <path id="DejaVuSans-64" d="M 2906 2969 
L 2906 4863 
L 3481 4863 
L 3481 0 
L 2906 0 
L 2906 525 
Q 2725 213 2448 61 
Q 2172 -91 1784 -91 
Q 1150 -91 751 415 
Q 353 922 353 1747 
Q 353 2572 751 3078 
Q 1150 3584 1784 3584 
Q 2172 3584 2448 3432 
Q 2725 3281 2906 2969 
z
M 947 1747 
Q 947 1113 1208 752 
Q 1469 391 1925 391 
Q 2381 391 2643 752 
Q 2906 1113 2906 1747 
Q 2906 2381 2643 2742 
Q 2381 3103 1925 3103 
Q 1469 3103 1208 2742 
Q 947 2381 947 1747 
z
" transform="scale(0.015625)"/>
       <path id="DejaVuSans-5f" d="M 3263 -1063 
L 3263 -1509 
L -63 -1509 
L -63 -1063 
L 3263 -1063 
z
" transform="scale(0.015625)"/>
      </defs>
      <use xlink:href="#DejaVuSans-63"/>
      <use xlink:href="#DejaVuSans-6f" x="54.980469"/>
      <use xlink:href="#DejaVuSans-72" x="116.162109"/>
      <use xlink:href="#DejaVuSans-72" x="155.525391"/>
      <use xlink:href="#DejaVuSans-65" x="194.388672"/>
      <use xlink:href="#DejaVuSans-63" x="255.912109"/>
      <use xlink:href="#DejaVuSans-74" x="310.892578"/>
      <use xlink:href="#DejaVuSans-65" x="350.101562"/>
      <use xlink:href="#DejaVuSans-64" x="411.625"/>
      <use xlink:href="#DejaVuSans-5f" x="475.101562"/>
      <use xlink:href="#DejaVuSans-62" x="525.101562"/>
      <use xlink:href="#DejaVuSans-6d" x="588.578125"/>
      <use xlink:href="#DejaVuSans-70" x="685.990234"/>
      <use xlink:href="#DejaVuSans-32" x="749.466797"/>
      <use xlink:href="#DejaVuSans-38" x="813.089844"/>
      <use xlink:href="#DejaVuSans-30" x="876.712891"/>
     </g>
    </g>
   </g>
  </g>
  <g id="axes_2">
   <g id="patch_8">
    <path d="M 57.6 307.584 
L 414.72 307.584 
L 414.72 186.624 
L 57.6 186.624 
z
" style="fill: #ffffff"/>
   </g>
   <g id="matplotlib.axis_3">
    <g id="xtick_7">
     <g id="line2d_23">
      <path d="M 73.832727 307.584 
L 73.832727 186.624 
" clip-path="url(#p4902814ebf)" style="fill: none; stroke: #b0b0b0; stroke-width: 0.8; stroke-linecap: square"/>
     </g>
     <g id="line2d_24">
      <g>
       <use xlink:href="#md00b1bf7a7" x="73.832727" y="307.584" style="stroke: #000000; stroke-width: 0.8"/>
      </g>
     </g>
     <g id="text_13">
      <!-- 0 -->
      <g transform="translate(70.651477 322.182437)scale(0.1 -0.1)">
       <use xlink:href="#DejaVuSans-30"/>
      </g>
     </g>
    </g>
    <g id="xtick_8">
     <g id="line2d_25">
      <path d="M 133.621778 307.584 
L 133.621778 186.624 
" clip-path="url(#p4902814ebf)" style="fill: none; stroke: #b0b0b0; stroke-width: 0.8; stroke-linecap: square"/>
     </g>
     <g id="line2d_26">
      <g>
       <use xlink:href="#md00b1bf7a7" x="133.621778" y="307.584" style="stroke: #000000; stroke-width: 0.8"/>
      </g>
     </g>
     <g id="text_14">
      <!-- 200 -->
      <g transform="translate(124.078028 322.182437)scale(0.1 -0.1)">
       <use xlink:href="#DejaVuSans-32"/>
       <use xlink:href="#DejaVuSans-30" x="63.623047"/>
       <use xlink:href="#DejaVuSans-30" x="127.246094"/>
      </g>
     </g>
    </g>
    <g id="xtick_9">
     <g id="line2d_27">
      <path d="M 193.410829 307.584 
L 193.410829 186.624 
" clip-path="url(#p4902814ebf)" style="fill: none; stroke: #b0b0b0; stroke-width: 0.8; stroke-linecap: square"/>
     </g>
     <g id="line2d_28">
      <g>
       <use xlink:href="#md00b1bf7a7" x="193.410829" y="307.584" style="stroke: #000000; stroke-width: 0.8"/>
      </g>
     </g>
     <g id="text_15">
      <!-- 400 -->
      <g transform="translate(183.867079 322.182437)scale(0.1 -0.1)">
       <use xlink:href="#DejaVuSans-34"/>
       <use xlink:href="#DejaVuSans-30" x="63.623047"/>
       <use xlink:href="#DejaVuSans-30" x="127.246094"/>
      </g>
     </g>
    </g>
    <g id="xtick_10">
     <g id="line2d_29">
      <path d="M 253.199879 307.584 
L 253.199879 186.624 
" clip-path="url(#p4902814ebf)" style="fill: none; stroke: #b0b0b0; stroke-width: 0.8; stroke-linecap: square"/>
     </g>
     <g id="line2d_30">
      <g>
       <use xlink:href="#md00b1bf7a7" x="253.199879" y="307.584" style="stroke: #000000; stroke-width: 0.8"/>
      </g>
     </g>
     <g id="text_16">
      <!-- 600 -->
      <g transform="translate(243.656129 322.182437)scale(0.1 -0.1)">
       <use xlink:href="#DejaVuSans-36"/>
       <use xlink:href="#DejaVuSans-30" x="63.623047"/>
       <use xlink:href="#DejaVuSans-30" x="127.246094"/>
      </g>
     </g>
    </g>
    <g id="xtick_11">
     <g id="line2d_31">
      <path d="M 312.98893 307.584 
L 312.98893 186.624 
" clip-path="url(#p4902814ebf)" style="fill: none; stroke: #b0b0b0; stroke-width: 0.8; stroke-linecap: square"/>
     </g>
     <g id="line2d_32">
      <g>
       <use xlink:href="#md00b1bf7a7" x="312.98893" y="307.584" style="stroke: #000000; stroke-width: 0.8"/>
      </g>
     </g>
     <g id="text_17">
      <!-- 800 -->
      <g transform="translate(303.44518 322.182437)scale(0.1 -0.1)">
       <use xlink:href="#DejaVuSans-38"/>
       <use xlink:href="#DejaVuSans-30" x="63.623047"/>
       <use xlink:href="#DejaVuSans-30" x="127.246094"/>
      </g>
     </g>
    </g>
    <g id="xtick_12">
     <g id="line2d_33">
      <path d="M 372.777981 307.584 
L 372.777981 186.624 
" clip-path="url(#p4902814ebf)" style="fill: none; stroke: #b0b0b0; stroke-width: 0.8; stroke-linecap: square"/>
     </g>
     <g id="line2d_34">
      <g>
       <use xlink:href="#md00b1bf7a7" x="372.777981" y="307.584" style="stroke: #000000; stroke-width: 0.8"/>
      </g>
     </g>
     <g id="text_18">
      <!-- 1000 -->
      <g transform="translate(360.052981 322.182437)scale(0.1 -0.1)">
       <use xlink:href="#DejaVuSans-31"/>
       <use xlink:href="#DejaVuSans-30" x="63.623047"/>
       <use xlink:href="#DejaVuSans-30" x="127.246094"/>
       <use xlink:href="#DejaVuSans-30" x="190.869141"/>
      </g>
     </g>
    </g>
    <g id="text_19">
     <!-- time [s] -->
     <g transform="translate(216.768594 335.860562)scale(0.1 -0.1)">
      <defs>
       <path id="DejaVuSans-69" d="M 603 3500 
L 1178 3500 
L 1178 0 
L 603 0 
L 603 3500 
z
M 603 4863 
L 1178 4863 
L 1178 4134 
L 603 4134 
L 603 4863 
z
" transform="scale(0.015625)"/>
       <path id="DejaVuSans-73" d="M 2834 3397 
L 2834 2853 
Q 2591 2978 2328 3040 
Q 2066 3103 1784 3103 
Q 1356 3103 1142 2972 
Q 928 2841 928 2578 
Q 928 2378 1081 2264 
Q 1234 2150 1697 2047 
L 1894 2003 
Q 2506 1872 2764 1633 
Q 3022 1394 3022 966 
Q 3022 478 2636 193 
Q 2250 -91 1575 -91 
Q 1294 -91 989 -36 
Q 684 19 347 128 
L 347 722 
Q 666 556 975 473 
Q 1284 391 1588 391 
Q 1994 391 2212 530 
Q 2431 669 2431 922 
Q 2431 1156 2273 1281 
Q 2116 1406 1581 1522 
L 1381 1569 
Q 847 1681 609 1914 
Q 372 2147 372 2553 
Q 372 3047 722 3315 
Q 1072 3584 1716 3584 
Q 2034 3584 2315 3537 
Q 2597 3491 2834 3397 
z
" transform="scale(0.015625)"/>
      </defs>
      <use xlink:href="#DejaVuSans-74"/>
      <use xlink:href="#DejaVuSans-69" x="39.208984"/>
      <use xlink:href="#DejaVuSans-6d" x="66.992188"/>
      <use xlink:href="#DejaVuSans-65" x="164.404297"/>
      <use xlink:href="#DejaVuSans-20" x="225.927734"/>
      <use xlink:href="#DejaVuSans-5b" x="257.714844"/>
      <use xlink:href="#DejaVuSans-73" x="296.728516"/>
      <use xlink:href="#DejaVuSans-5d" x="348.828125"/>
     </g>
    </g>
   </g>
   <g id="matplotlib.axis_4">
    <g id="ytick_4">
     <g id="line2d_35">
      <path d="M 57.6 302.073247 
L 414.72 302.073247 
" clip-path="url(#p4902814ebf)" style="fill: none; stroke: #b0b0b0; stroke-width: 0.8; stroke-linecap: square"/>
     </g>
     <g id="line2d_36">
      <g>
       <use xlink:href="#ma734456f47" x="57.6" y="302.073247" style="stroke: #000000; stroke-width: 0.8"/>
      </g>
     </g>
     <g id="text_20">
      <!-- 0 -->
      <g transform="translate(44.2375 305.872466)scale(0.1 -0.1)">
       <use xlink:href="#DejaVuSans-30"/>
      </g>
     </g>
    </g>
    <g id="ytick_5">
     <g id="line2d_37">
      <path d="M 57.6 281.790351 
L 414.72 281.790351 
" clip-path="url(#p4902814ebf)" style="fill: none; stroke: #b0b0b0; stroke-width: 0.8; stroke-linecap: square"/>
     </g>
     <g id="line2d_38">
      <g>
       <use xlink:href="#ma734456f47" x="57.6" y="281.790351" style="stroke: #000000; stroke-width: 0.8"/>
      </g>
     </g>
     <g id="text_21">
      <!-- 5 -->
      <g transform="translate(44.2375 285.58957)scale(0.1 -0.1)">
       <defs>
        <path id="DejaVuSans-35" d="M 691 4666 
L 3169 4666 
L 3169 4134 
L 1269 4134 
L 1269 2991 
Q 1406 3038 1543 3061 
Q 1681 3084 1819 3084 
Q 2600 3084 3056 2656 
Q 3513 2228 3513 1497 
Q 3513 744 3044 326 
Q 2575 -91 1722 -91 
Q 1428 -91 1123 -41 
Q 819 9 494 109 
L 494 744 
Q 775 591 1075 516 
Q 1375 441 1709 441 
Q 2250 441 2565 725 
Q 2881 1009 2881 1497 
Q 2881 1984 2565 2268 
Q 2250 2553 1709 2553 
Q 1456 2553 1204 2497 
Q 953 2441 691 2322 
L 691 4666 
z
" transform="scale(0.015625)"/>
       </defs>
       <use xlink:href="#DejaVuSans-35"/>
      </g>
     </g>
    </g>
    <g id="ytick_6">
     <g id="line2d_39">
      <path d="M 57.6 261.507456 
L 414.72 261.507456 
" clip-path="url(#p4902814ebf)" style="fill: none; stroke: #b0b0b0; stroke-width: 0.8; stroke-linecap: square"/>
     </g>
     <g id="line2d_40">
      <g>
       <use xlink:href="#ma734456f47" x="57.6" y="261.507456" style="stroke: #000000; stroke-width: 0.8"/>
      </g>
     </g>
     <g id="text_22">
      <!-- 10 -->
      <g transform="translate(37.875 265.306675)scale(0.1 -0.1)">
       <use xlink:href="#DejaVuSans-31"/>
       <use xlink:href="#DejaVuSans-30" x="63.623047"/>
      </g>
     </g>
    </g>
    <g id="ytick_7">
     <g id="line2d_41">
      <path d="M 57.6 241.224561 
L 414.72 241.224561 
" clip-path="url(#p4902814ebf)" style="fill: none; stroke: #b0b0b0; stroke-width: 0.8; stroke-linecap: square"/>
     </g>
     <g id="line2d_42">
      <g>
       <use xlink:href="#ma734456f47" x="57.6" y="241.224561" style="stroke: #000000; stroke-width: 0.8"/>
      </g>
     </g>
     <g id="text_23">
      <!-- 15 -->
      <g transform="translate(37.875 245.023779)scale(0.1 -0.1)">
       <use xlink:href="#DejaVuSans-31"/>
       <use xlink:href="#DejaVuSans-35" x="63.623047"/>
      </g>
     </g>
    </g>
    <g id="ytick_8">
     <g id="line2d_43">
      <path d="M 57.6 220.941665 
L 414.72 220.941665 
" clip-path="url(#p4902814ebf)" style="fill: none; stroke: #b0b0b0; stroke-width: 0.8; stroke-linecap: square"/>
     </g>
     <g id="line2d_44">
      <g>
       <use xlink:href="#ma734456f47" x="57.6" y="220.941665" style="stroke: #000000; stroke-width: 0.8"/>
      </g>
     </g>
     <g id="text_24">
      <!-- 20 -->
      <g transform="translate(37.875 224.740884)scale(0.1 -0.1)">
       <use xlink:href="#DejaVuSans-32"/>
       <use xlink:href="#DejaVuSans-30" x="63.623047"/>
      </g>
     </g>
    </g>
    <g id="ytick_9">
     <g id="line2d_45">
      <path d="M 57.6 200.65877 
L 414.72 200.65877 
" clip-path="url(#p4902814ebf)" style="fill: none; stroke: #b0b0b0; stroke-width: 0.8; stroke-linecap: square"/>
     </g>
     <g id="line2d_46">
      <g>
       <use xlink:href="#ma734456f47" x="57.6" y="200.65877" style="stroke: #000000; stroke-width: 0.8"/>
      </g>
     </g>
     <g id="text_25">
      <!-- 25 -->
      <g transform="translate(37.875 204.457989)scale(0.1 -0.1)">
       <use xlink:href="#DejaVuSans-32"/>
       <use xlink:href="#DejaVuSans-35" x="63.623047"/>
      </g>
     </g>
    </g>
    <g id="text_26">
     <!-- energy [wh] -->
     <g transform="translate(31.795312 277.275875)rotate(-90)scale(0.1 -0.1)">
      <defs>
       <path id="DejaVuSans-6e" d="M 3513 2113 
L 3513 0 
L 2938 0 
L 2938 2094 
Q 2938 2591 2744 2837 
Q 2550 3084 2163 3084 
Q 1697 3084 1428 2787 
Q 1159 2491 1159 1978 
L 1159 0 
L 581 0 
L 581 3500 
L 1159 3500 
L 1159 2956 
Q 1366 3272 1645 3428 
Q 1925 3584 2291 3584 
Q 2894 3584 3203 3211 
Q 3513 2838 3513 2113 
z
" transform="scale(0.015625)"/>
       <path id="DejaVuSans-67" d="M 2906 1791 
Q 2906 2416 2648 2759 
Q 2391 3103 1925 3103 
Q 1463 3103 1205 2759 
Q 947 2416 947 1791 
Q 947 1169 1205 825 
Q 1463 481 1925 481 
Q 2391 481 2648 825 
Q 2906 1169 2906 1791 
z
M 3481 434 
Q 3481 -459 3084 -895 
Q 2688 -1331 1869 -1331 
Q 1566 -1331 1297 -1286 
Q 1028 -1241 775 -1147 
L 775 -588 
Q 1028 -725 1275 -790 
Q 1522 -856 1778 -856 
Q 2344 -856 2625 -561 
Q 2906 -266 2906 331 
L 2906 616 
Q 2728 306 2450 153 
Q 2172 0 1784 0 
Q 1141 0 747 490 
Q 353 981 353 1791 
Q 353 2603 747 3093 
Q 1141 3584 1784 3584 
Q 2172 3584 2450 3431 
Q 2728 3278 2906 2969 
L 2906 3500 
L 3481 3500 
L 3481 434 
z
" transform="scale(0.015625)"/>
       <path id="DejaVuSans-79" d="M 2059 -325 
Q 1816 -950 1584 -1140 
Q 1353 -1331 966 -1331 
L 506 -1331 
L 506 -850 
L 844 -850 
Q 1081 -850 1212 -737 
Q 1344 -625 1503 -206 
L 1606 56 
L 191 3500 
L 800 3500 
L 1894 763 
L 2988 3500 
L 3597 3500 
L 2059 -325 
z
" transform="scale(0.015625)"/>
       <path id="DejaVuSans-68" d="M 3513 2113 
L 3513 0 
L 2938 0 
L 2938 2094 
Q 2938 2591 2744 2837 
Q 2550 3084 2163 3084 
Q 1697 3084 1428 2787 
Q 1159 2491 1159 1978 
L 1159 0 
L 581 0 
L 581 4863 
L 1159 4863 
L 1159 2956 
Q 1366 3272 1645 3428 
Q 1925 3584 2291 3584 
Q 2894 3584 3203 3211 
Q 3513 2838 3513 2113 
z
" transform="scale(0.015625)"/>
      </defs>
      <use xlink:href="#DejaVuSans-65"/>
      <use xlink:href="#DejaVuSans-6e" x="61.523438"/>
      <use xlink:href="#DejaVuSans-65" x="124.902344"/>
      <use xlink:href="#DejaVuSans-72" x="186.425781"/>
      <use xlink:href="#DejaVuSans-67" x="225.789062"/>
      <use xlink:href="#DejaVuSans-79" x="289.265625"/>
      <use xlink:href="#DejaVuSans-20" x="348.445312"/>
      <use xlink:href="#DejaVuSans-5b" x="380.232422"/>
      <use xlink:href="#DejaVuSans-77" x="419.246094"/>
      <use xlink:href="#DejaVuSans-68" x="501.033203"/>
      <use xlink:href="#DejaVuSans-5d" x="564.412109"/>
     </g>
    </g>
   </g>
   <g id="line2d_47">
    <path d="M 73.832727 302.073247 
L 75.626399 301.974218 
L 79.512687 301.762582 
L 79.811632 301.582064 
L 86.388428 301.505232 
L 87.883154 300.753922 
L 89.078935 299.382571 
L 89.37788 299.215541 
L 89.975771 298.706777 
L 90.274716 298.592994 
L 90.573661 298.315593 
L 91.769442 298.137716 
L 92.068388 297.917858 
L 93.563114 297.835067 
L 94.161005 297.757822 
L 98.346238 297.71642 
L 98.645183 297.262566 
L 99.840964 297.245601 
L 100.13991 296.709662 
L 114.489282 296.603461 
L 114.788227 296.363308 
L 115.984008 296.174721 
L 117.478734 296.069384 
L 119.571351 295.788056 
L 119.870296 295.586546 
L 121.365023 295.553014 
L 121.663968 295.318937 
L 123.158694 295.260571 
L 123.756585 295.182413 
L 124.952366 295.168665 
L 125.550256 295.035678 
L 126.447092 294.997749 
L 126.746037 294.765101 
L 127.642873 294.71028 
L 128.240763 294.606083 
L 129.137599 294.606083 
L 129.73549 294.475392 
L 130.931271 294.382407 
L 131.230216 294.139905 
L 134.219669 293.902875 
L 134.518614 293.716268 
L 136.910176 293.658579 
L 137.508066 293.567108 
L 139.002793 293.466484 
L 140.497519 293.346061 
L 142.889081 293.274474 
L 143.188026 293.108167 
L 145.579588 293.048409 
L 146.177479 292.943551 
L 147.074314 292.780833 
L 147.37326 292.570524 
L 148.569041 292.433245 
L 148.867986 292.387966 
L 149.166931 292.200053 
L 150.661657 292.185806 
L 150.960603 292.011564 
L 155.743727 291.977679 
L 156.042672 291.685459 
L 157.238453 291.67492 
L 157.537398 291.465666 
L 159.032125 291.385573 
L 159.33107 291.247073 
L 159.630015 291.247073 
L 160.227906 291.032017 
L 160.526851 291.032017 
L 160.825796 290.598073 
L 162.021577 290.145537 
L 162.320522 290.145537 
L 162.619468 289.674431 
L 162.918413 289.627857 
L 163.516303 289.257572 
L 164.712084 289.120448 
L 165.309975 288.603129 
L 166.804701 287.96281 
L 167.402592 287.476446 
L 167.701537 287.337577 
L 168.299427 286.697165 
L 168.598373 286.436838 
L 169.196263 286.436838 
L 170.093099 285.566868 
L 170.989935 284.954974 
L 171.28888 284.954974 
L 171.88677 284.6391 
L 172.484661 283.427481 
L 173.680442 281.881316 
L 174.278332 281.790319 
L 175.175168 281.10586 
L 176.072004 280.964322 
L 176.370949 280.704969 
L 176.96884 279.516732 
L 178.164621 279.312029 
L 178.762511 278.564592 
L 179.659347 277.715197 
L 179.958292 277.624995 
L 180.556183 277.052985 
L 180.855128 277.010744 
L 181.154073 275.896495 
L 181.751964 275.812763 
L 184.442471 275.795859 
L 184.741416 275.65822 
L 186.834033 275.571474 
L 188.029814 275.518105 
L 188.92665 275.518105 
L 189.823486 275.253653 
L 191.019267 275.224352 
L 191.318212 275.078449 
L 192.812938 275.037924 
L 193.111883 274.836645 
L 196.101336 274.736455 
L 196.400281 274.496874 
L 198.791843 274.394323 
L 199.090789 274.385375 
L 199.389734 274.257767 
L 200.585515 274.230689 
L 200.88446 274.049749 
L 202.080241 274.0052 
L 202.977077 273.818387 
L 205.667584 273.736371 
L 205.966529 273.549147 
L 207.461256 273.541014 
L 208.059146 273.425807 
L 208.955982 273.425807 
L 209.254927 272.5291 
L 210.749653 272.5291 
L 211.048599 272.405756 
L 212.24438 272.376277 
L 212.543325 272.163838 
L 213.739106 272.098592 
L 214.038051 271.935615 
L 215.532777 271.930937 
L 215.831723 271.636653 
L 216.728559 271.636653 
L 217.027504 271.48133 
L 219.718011 271.387072 
L 220.016956 271.339464 
L 220.315902 271.162382 
L 221.810628 271.142639 
L 222.109573 270.995287 
L 225.397971 270.929145 
L 225.995861 270.82193 
L 226.892697 270.762318 
L 227.191642 270.633497 
L 228.387423 270.628828 
L 228.686369 270.414539 
L 231.974766 270.306906 
L 232.572657 270.210494 
L 233.469493 270.173283 
L 233.768438 269.994201 
L 235.861055 269.934837 
L 236.458945 269.739074 
L 237.953672 269.730543 
L 238.252617 269.564256 
L 239.747343 269.54758 
L 240.345234 269.435926 
L 241.242069 269.422722 
L 241.541015 269.221881 
L 243.035741 269.163308 
L 243.334686 268.241426 
L 244.829412 268.241426 
L 245.128358 267.987261 
L 246.324139 267.964698 
L 246.623084 267.821221 
L 249.313591 267.727445 
L 249.612536 267.660122 
L 249.911482 267.365481 
L 252.303044 267.312542 
L 253.199879 267.224486 
L 254.096715 267.114512 
L 256.787223 266.408063 
L 257.385113 266.323459 
L 257.983004 265.706145 
L 259.776675 265.601481 
L 261.271401 265.188367 
L 262.467182 265.188367 
L 262.766128 264.455096 
L 263.065073 264.449518 
L 263.364018 264.138249 
L 263.961909 264.138249 
L 264.559799 263.911961 
L 264.858744 263.911961 
L 265.15769 263.732928 
L 266.353471 263.64621 
L 266.951361 263.465883 
L 268.745033 263.386889 
L 269.342923 262.968238 
L 270.239759 262.891808 
L 270.538704 262.734214 
L 273.827102 262.629538 
L 274.424992 262.517236 
L 282.496514 262.505135 
L 282.79546 262.269914 
L 283.39335 261.490715 
L 283.991241 261.145698 
L 284.888076 259.510946 
L 285.187022 259.326631 
L 285.485967 258.966999 
L 285.784912 258.298386 
L 286.980693 257.122692 
L 287.578584 256.231563 
L 288.176474 255.740376 
L 289.6712 254.747268 
L 289.970146 254.652097 
L 290.269091 254.181124 
L 291.763817 254.108268 
L 292.660653 254.066432 
L 293.557489 253.960511 
L 294.155379 253.867701 
L 295.052215 253.83814 
L 295.35116 253.502531 
L 298.340613 253.406151 
L 298.639558 253.173145 
L 298.938503 253.124365 
L 299.835339 252.681837 
L 300.43323 251.847735 
L 300.732175 251.746345 
L 301.03112 251.503494 
L 301.629011 251.404947 
L 303.422682 249.942989 
L 303.721627 249.880526 
L 304.319518 249.143534 
L 304.618463 248.918605 
L 305.515299 247.722316 
L 306.113189 247.011088 
L 306.71108 246.052742 
L 307.607916 245.621032 
L 307.906861 245.326703 
L 308.205806 244.74673 
L 308.803697 244.271003 
L 309.102642 243.759452 
L 309.401587 243.500164 
L 309.700532 243.062434 
L 309.999478 241.933419 
L 310.597368 241.910049 
L 310.896313 241.727325 
L 311.494204 241.069721 
L 311.793149 240.386492 
L 312.98893 239.599556 
L 313.287875 238.979066 
L 313.586821 238.86422 
L 314.483656 238.300708 
L 314.782602 238.21696 
L 315.380492 237.8788 
L 315.978383 237.588235 
L 316.576273 237.530826 
L 316.875218 237.335019 
L 317.174164 237.330496 
L 318.369945 236.654208 
L 319.565726 236.54414 
L 319.864671 236.294734 
L 324.34885 236.206653 
L 324.94674 236.1257 
L 325.843576 236.1257 
L 326.142521 235.410959 
L 327.637248 235.410959 
L 327.936193 235.138268 
L 329.430919 235.08722 
L 329.729864 234.649807 
L 331.224591 233.584907 
L 331.523536 233.584907 
L 331.822481 233.400523 
L 332.719317 233.298463 
L 333.018262 233.151818 
L 333.616153 233.075522 
L 335.110879 232.610658 
L 335.409824 232.579792 
L 336.007715 232.122218 
L 336.30666 231.80531 
L 336.90455 231.513285 
L 337.801386 230.791189 
L 338.100331 230.420219 
L 338.399277 230.370441 
L 338.997167 230.074635 
L 339.296113 230.074635 
L 339.894003 229.44172 
L 340.491894 229.158408 
L 341.089784 228.963425 
L 341.388729 228.578305 
L 342.285565 228.379095 
L 342.58451 228.027478 
L 343.481346 227.620291 
L 344.378182 227.189401 
L 345.275018 227.118521 
L 345.573963 227.04792 
L 345.872908 226.708271 
L 347.068689 226.664127 
L 347.367634 226.405541 
L 348.862361 226.405541 
L 349.161306 226.185025 
L 350.656032 226.130395 
L 350.954977 225.924451 
L 352.150758 225.924451 
L 352.449704 225.76039 
L 353.94443 225.746728 
L 354.243375 224.879808 
L 355.738101 224.879808 
L 356.037047 224.731114 
L 357.232828 224.731114 
L 357.531773 224.466232 
L 358.727554 224.466232 
L 359.325445 224.000691 
L 359.62439 223.953444 
L 359.923335 223.650665 
L 360.22228 222.428758 
L 360.521226 222.42856 
L 361.418061 221.982405 
L 361.717007 221.823939 
L 362.015952 221.471134 
L 362.314897 221.343701 
L 363.510678 220.013366 
L 363.809623 219.519842 
L 364.108569 219.435733 
L 365.005404 218.326137 
L 365.30435 217.69196 
L 365.603295 217.43341 
L 365.90224 217.369604 
L 366.799076 216.006914 
L 367.098021 215.384594 
L 368.293802 214.301682 
L 368.592747 213.950143 
L 368.891693 213.233532 
L 369.489583 212.819258 
L 370.087474 212.132658 
L 370.386419 211.423961 
L 370.685364 211.27246 
L 370.984309 210.898297 
L 371.283255 210.884744 
L 371.881145 210.452763 
L 372.18009 209.62656 
L 372.479036 209.555282 
L 373.973762 208.278863 
L 374.272707 208.184004 
L 374.571652 207.916744 
L 374.870598 207.912809 
L 375.169543 207.680088 
L 375.468488 207.087166 
L 375.767433 206.767572 
L 377.86005 206.66432 
L 378.158995 206.208048 
L 384.735791 206.125347 
L 385.034736 205.809708 
L 390.415751 205.798934 
L 391.611532 204.860656 
L 391.910477 204.450515 
L 397.291492 204.224227 
L 397.889382 204.163597 
L 398.487273 204.163597 
L 398.487273 204.163597 
" clip-path="url(#p4902814ebf)" style="fill: none; stroke: #1f77b4; stroke-width: 1.5; stroke-linecap: square"/>
   </g>
   <g id="line2d_48">
    <path d="M 73.832727 302.073247 
L 79.512687 301.978931 
L 79.811632 301.812839 
L 86.388428 302.038896 
L 87.883154 301.359707 
L 89.078935 300.046049 
L 89.37788 299.893444 
L 89.975771 299.413522 
L 90.274716 299.314165 
L 90.573661 299.051185 
L 91.769442 298.931004 
L 92.666278 298.28224 
L 96.552567 298.254302 
L 96.851512 298.055169 
L 97.748348 298.09844 
L 98.047293 296.54991 
L 98.346238 296.564335 
L 98.645183 296.124902 
L 98.944129 296.139328 
L 99.243074 295.915782 
L 99.840964 295.944628 
L 100.13991 295.423114 
L 106.41776 295.726007 
L 106.716705 294.943355 
L 111.200884 295.159704 
L 111.499829 294.232431 
L 114.489282 294.267095 
L 114.788227 294.037342 
L 115.386118 293.998363 
L 116.282953 293.916622 
L 116.880844 293.840132 
L 118.076625 293.791777 
L 119.272406 293.703315 
L 119.571351 293.688614 
L 119.870296 293.501525 
L 121.365023 293.540111 
L 121.663968 293.320459 
L 123.158694 293.334211 
L 123.756585 293.284895 
L 124.952366 293.328848 
L 125.550256 293.224704 
L 126.447092 293.230042 
L 126.746037 293.011823 
L 127.642873 293.00027 
L 128.240763 292.924919 
L 129.137599 292.96819 
L 129.73549 292.866346 
L 130.931271 292.831053 
L 131.230216 292.602976 
L 134.219669 292.510178 
L 134.518614 292.337993 
L 136.910176 292.395693 
L 137.508066 292.333072 
L 139.002793 292.304566 
L 140.497519 292.256257 
L 142.889081 292.300059 
L 143.188026 292.148173 
L 145.579588 292.203805 
L 146.177479 292.127789 
L 147.074314 292.008343 
L 147.37326 291.812455 
L 148.569041 291.732873 
L 148.867986 291.702018 
L 149.166931 291.528526 
L 150.661657 291.586398 
L 150.960603 291.426581 
L 155.743727 291.623467 
L 156.042672 291.345672 
L 157.238453 291.392826 
L 157.537398 291.197992 
L 159.032125 291.190021 
L 159.33107 291.065943 
L 159.630015 291.080364 
L 160.227906 290.894155 
L 160.526851 290.90858 
L 161.124741 290.054443 
L 161.722632 289.522483 
L 162.320522 289.55133 
L 162.619468 289.019601 
L 162.918413 288.938892 
L 163.516303 288.597453 
L 164.712084 288.518026 
L 165.309975 287.906951 
L 166.804701 287.33875 
L 167.402592 286.881236 
L 167.701537 286.756789 
L 168.299427 285.67481 
L 168.598373 285.257278 
L 169.196263 285.281022 
L 170.392044 283.755995 
L 170.989935 283.368925 
L 171.28888 283.38335 
L 171.88677 283.096318 
L 172.484661 281.913546 
L 173.680442 280.304783 
L 173.979387 280.287969 
L 174.278332 279.76794 
L 175.175168 279.100718 
L 176.072004 278.840878 
L 176.370949 277.672595 
L 176.96884 276.301362 
L 177.56673 276.228218 
L 178.164621 276.048004 
L 178.762511 275.265153 
L 179.659347 274.337888 
L 179.958292 274.232024 
L 180.556183 273.613773 
L 180.855128 273.559946 
L 181.154073 272.388 
L 181.751964 272.333115 
L 183.545635 272.40275 
L 183.844581 272.226252 
L 184.442471 272.255099 
L 184.741416 272.118611 
L 186.834033 272.126602 
L 187.730869 272.121459 
L 189.225595 272.045779 
L 189.823486 271.931254 
L 190.720321 271.916638 
L 191.318212 271.664481 
L 192.812938 271.696074 
L 193.111883 271.509215 
L 196.101336 271.553262 
L 196.400281 271.32501 
L 196.998172 271.353857 
L 197.596062 269.372871 
L 198.193953 269.299163 
L 199.090789 269.33349 
L 199.389734 269.220303 
L 200.585515 269.250918 
L 200.88446 269.084399 
L 202.080241 269.097547 
L 202.977077 268.954001 
L 205.667584 269.001795 
L 205.966529 268.828997 
L 207.461256 268.892982 
L 208.059146 268.806621 
L 208.955982 268.849888 
L 209.254927 267.967607 
L 210.749653 268.039725 
L 211.048599 267.930806 
L 212.24438 267.959019 
L 212.543325 267.761005 
L 213.739106 267.753448 
L 214.038051 267.604896 
L 215.532777 267.672333 
L 215.831723 267.392473 
L 216.728559 267.435745 
L 217.027504 267.292811 
L 218.223285 267.341965 
L 218.821175 267.266042 
L 220.016956 267.273019 
L 220.315902 267.108038 
L 221.810628 267.160413 
L 222.109573 267.027483 
L 225.397971 267.120001 
L 225.995861 267.039295 
L 226.892697 267.021665 
L 227.191642 266.905311 
L 228.387423 266.95833 
L 228.686369 266.756122 
L 231.675821 266.800395 
L 233.469493 266.732577 
L 233.768438 266.567917 
L 235.861055 266.609517 
L 236.458945 266.442601 
L 237.953672 266.504914 
L 238.252617 266.353052 
L 239.747343 266.408493 
L 240.345234 266.325682 
L 241.242069 266.35575 
L 241.541015 266.169333 
L 243.035741 266.182878 
L 243.334686 265.275418 
L 244.829412 265.347535 
L 245.128358 265.106485 
L 246.324139 265.139636 
L 246.623084 265.008714 
L 249.313591 265.042781 
L 249.612536 264.986906 
L 249.911482 264.702474 
L 252.303044 264.753624 
L 253.199879 264.703387 
L 253.79777 264.717285 
L 255.890387 264.134415 
L 256.189332 263.866223 
L 257.385113 263.681202 
L 257.983004 262.917551 
L 259.776675 262.660823 
L 260.673511 262.168013 
L 261.869292 262.00616 
L 262.467182 262.035006 
L 262.766128 261.232164 
L 263.065073 261.088643 
L 263.364018 260.69255 
L 264.260854 260.414816 
L 264.559799 260.237418 
L 264.858744 260.251839 
L 265.15769 259.936375 
L 265.75558 259.965222 
L 266.054525 259.782331 
L 266.353471 259.796752 
L 266.951361 259.423023 
L 268.745033 259.107572 
L 269.342923 258.561053 
L 271.43554 258.31679 
L 273.229211 258.403329 
L 273.528157 258.085354 
L 273.827102 258.099779 
L 274.126047 257.811629 
L 278.610226 257.97108 
L 279.208117 257.940226 
L 279.806007 257.959608 
L 280.104952 257.842629 
L 282.496514 257.958018 
L 282.79546 257.715508 
L 283.39335 256.876887 
L 283.991241 256.511154 
L 284.888076 254.810437 
L 285.187022 254.593504 
L 285.485967 254.207528 
L 285.784912 253.515119 
L 287.279638 251.705268 
L 287.877529 250.991314 
L 289.6712 249.817551 
L 289.970146 249.735446 
L 290.269091 249.275925 
L 291.763817 249.263163 
L 292.660653 249.263017 
L 293.557489 249.196992 
L 294.155379 249.130107 
L 295.052215 249.141843 
L 295.35116 248.820651 
L 298.340613 248.86501 
L 298.639558 248.638957 
L 298.938503 248.598614 
L 299.835339 248.175493 
L 300.43323 247.342113 
L 300.732175 247.236289 
L 301.03112 246.981552 
L 301.629011 246.858857 
L 303.422682 245.272519 
L 303.721627 245.19054 
L 304.319518 244.460287 
L 304.618463 244.230392 
L 305.814244 242.525574 
L 307.010025 241.113078 
L 307.906861 240.540901 
L 308.205806 239.975349 
L 308.803697 239.528468 
L 309.102642 239.031339 
L 309.401587 238.786475 
L 309.700532 238.363171 
L 309.999478 237.248578 
L 310.597368 237.254058 
L 310.896313 237.085755 
L 311.195259 236.754073 
L 311.494204 236.237025 
L 311.793149 235.446069 
L 312.689985 234.595388 
L 312.98893 234.482924 
L 313.287875 233.854685 
L 313.586821 233.739203 
L 314.184711 233.376942 
L 315.081547 232.870089 
L 317.473109 231.986428 
L 318.070999 231.528761 
L 318.369945 231.335197 
L 318.967835 231.364043 
L 319.266781 231.183639 
L 319.565726 231.144075 
L 319.864671 230.863916 
L 323.750959 230.948601 
L 325.843576 230.932683 
L 326.142521 230.228566 
L 327.637248 230.300684 
L 327.936193 230.042418 
L 329.430919 230.043318 
L 330.02881 229.320927 
L 330.327755 229.005276 
L 330.6267 228.526 
L 330.925645 228.285761 
L 331.224591 227.900447 
L 331.523536 227.914872 
L 331.822481 227.634181 
L 332.420372 227.592508 
L 333.915098 226.697801 
L 334.512988 226.352176 
L 335.110879 226.025265 
L 335.409824 225.934823 
L 336.007715 225.273877 
L 336.30666 224.887934 
L 336.90455 224.477473 
L 337.801386 223.509468 
L 338.100331 223.061199 
L 339.296113 222.310704 
L 339.894003 221.513103 
L 340.192948 221.365115 
L 340.790839 220.853074 
L 341.089784 220.680734 
L 341.388729 220.170185 
L 342.285565 219.719909 
L 342.58451 219.312596 
L 344.677127 218.34111 
L 345.573963 218.224406 
L 345.872908 217.89444 
L 347.068689 217.902845 
L 347.367634 217.655921 
L 348.862361 217.728039 
L 349.161306 217.521945 
L 350.656032 217.537822 
L 350.954977 217.342356 
L 352.150758 217.400049 
L 352.449704 217.248799 
L 353.94443 217.305652 
L 354.243375 216.451267 
L 355.738101 216.523385 
L 356.037047 216.387839 
L 357.232828 216.445535 
L 357.531773 216.195078 
L 358.727554 216.252771 
L 359.923335 215.186438 
L 360.22228 213.900259 
L 360.820171 213.626947 
L 361.418061 213.129375 
L 361.717007 212.885336 
L 362.015952 212.435465 
L 362.314897 212.266046 
L 362.912788 211.554619 
L 363.809623 210.055405 
L 364.108569 209.849039 
L 365.005404 208.446533 
L 365.30435 207.705607 
L 365.603295 207.378976 
L 365.90224 207.247652 
L 366.799076 205.634079 
L 367.098021 204.976475 
L 368.293802 203.680978 
L 368.592747 203.269049 
L 368.891693 202.496579 
L 369.190638 202.307359 
L 370.087474 201.078021 
L 370.386419 200.270932 
L 370.685364 200.095575 
L 370.984309 199.661427 
L 371.283255 199.58763 
L 371.881145 199.038621 
L 372.18009 198.159438 
L 372.479036 198.022853 
L 373.674817 196.668272 
L 374.272707 196.443019 
L 374.571652 196.156665 
L 374.870598 196.130204 
L 375.169543 195.853078 
L 375.767433 194.791147 
L 377.26216 194.295539 
L 377.86005 194.205093 
L 378.158995 193.572802 
L 383.241065 193.798157 
L 383.838955 193.735329 
L 384.735791 193.754622 
L 385.034736 193.403071 
L 390.415751 193.599422 
L 391.611532 192.604189 
L 391.910477 192.190953 
L 396.095711 192.191882 
L 398.487273 192.191679 
L 398.487273 192.191679 
" clip-path="url(#p4902814ebf)" style="fill: none; stroke: #ff7f0e; stroke-width: 1.5; stroke-linecap: square"/>
   </g>
   <g id="patch_9">
    <path d="M 57.6 307.584 
L 57.6 186.624 
" style="fill: none; stroke: #000000; stroke-width: 0.8; stroke-linejoin: miter; stroke-linecap: square"/>
   </g>
   <g id="patch_10">
    <path d="M 414.72 307.584 
L 414.72 186.624 
" style="fill: none; stroke: #000000; stroke-width: 0.8; stroke-linejoin: miter; stroke-linecap: square"/>
   </g>
   <g id="patch_11">
    <path d="M 57.6 307.584 
L 414.72 307.584 
" style="fill: none; stroke: #000000; stroke-width: 0.8; stroke-linejoin: miter; stroke-linecap: square"/>
   </g>
   <g id="patch_12">
    <path d="M 57.6 186.624 
L 414.72 186.624 
" style="fill: none; stroke: #000000; stroke-width: 0.8; stroke-linejoin: miter; stroke-linecap: square"/>
   </g>
  </g>
 </g>
 <defs>
  <clipPath id="p5bd3edab1e">
   <rect x="57.6" y="41.472" width="357.12" height="120.96"/>
  </clipPath>
  <clipPath id="p4902814ebf">
   <rect x="57.6" y="186.624" width="357.12" height="120.96"/>
  </clipPath>
 </defs>
</svg>
