<?xml version="1.0" encoding="utf-8" standalone="no"?>
<!DOCTYPE svg PUBLIC "-//W3C//DTD SVG 1.1//EN"
  "http://www.w3.org/Graphics/SVG/1.1/DTD/svg11.dtd">
<svg xmlns:xlink="http://www.w3.org/1999/xlink" width="460.8pt" height="345.6pt" viewBox="0 0 460.8 345.6" xmlns="http://www.w3.org/2000/svg" version="1.1">
 <metadata>
  <rdf:RDF xmlns:dc="http://purl.org/dc/elements/1.1/" xmlns:cc="http://creativecommons.org/ns#" xmlns:rdf="http://www.w3.org/1999/02/22-rdf-syntax-ns#">
   <cc:Work>
    <dc:type rdf:resource="http://purl.org/dc/dcmitype/StillImage"/>
    <dc:date>2021-12-12T14:08:00.226944</dc:date>
    <dc:format>image/svg+xml</dc:format>
    <dc:creator>
     <cc:Agent>
      <dc:title>Matplotlib v3.5.0, https://matplotlib.org/</dc:title>
     </cc:Agent>
    </dc:creator>
   </cc:Work>
  </rdf:RDF>
 </metadata>
 <defs>
  <style type="text/css">*{stroke-linejoin: round; stroke-linecap: butt}</style>
 </defs>
 <g id="figure_1">
  <g id="patch_1">
   <path d="M 0 345.6 
L 460.8 345.6 
L 460.8 0 
L 0 0 
z
" style="fill: #ffffff"/>
  </g>
  <g id="axes_1">
   <g id="patch_2">
    <path d="M 57.6 162.432 
L 414.72 162.432 
L 414.72 41.472 
L 57.6 41.472 
z
" style="fill: #ffffff"/>
   </g>
   <g id="matplotlib.axis_1">
    <g id="xtick_1">
     <g id="line2d_1">
      <path d="M 73.832727 162.432 
L 73.832727 41.472 
" clip-path="url(#p9aef8d97a4)" style="fill: none; stroke: #b0b0b0; stroke-width: 0.8; stroke-linecap: square"/>
     </g>
     <g id="line2d_2">
      <defs>
       <path id="mc5260894b7" d="M 0 0 
L 0 3.5 
" style="stroke: #000000; stroke-width: 0.8"/>
      </defs>
      <g>
       <use xlink:href="#mc5260894b7" x="73.832727" y="162.432" style="stroke: #000000; stroke-width: 0.8"/>
      </g>
     </g>
     <g id="text_1">
      <!-- 0 -->
      <g transform="translate(70.651477 177.030437)scale(0.1 -0.1)">
       <defs>
        <path id="DejaVuSans-30" d="M 2034 4250 
Q 1547 4250 1301 3770 
Q 1056 3291 1056 2328 
Q 1056 1369 1301 889 
Q 1547 409 2034 409 
Q 2525 409 2770 889 
Q 3016 1369 3016 2328 
Q 3016 3291 2770 3770 
Q 2525 4250 2034 4250 
z
M 2034 4750 
Q 2819 4750 3233 4129 
Q 3647 3509 3647 2328 
Q 3647 1150 3233 529 
Q 2819 -91 2034 -91 
Q 1250 -91 836 529 
Q 422 1150 422 2328 
Q 422 3509 836 4129 
Q 1250 4750 2034 4750 
z
" transform="scale(0.015625)"/>
       </defs>
       <use xlink:href="#DejaVuSans-30"/>
      </g>
     </g>
    </g>
    <g id="xtick_2">
     <g id="line2d_3">
      <path d="M 133.621778 162.432 
L 133.621778 41.472 
" clip-path="url(#p9aef8d97a4)" style="fill: none; stroke: #b0b0b0; stroke-width: 0.8; stroke-linecap: square"/>
     </g>
     <g id="line2d_4">
      <g>
       <use xlink:href="#mc5260894b7" x="133.621778" y="162.432" style="stroke: #000000; stroke-width: 0.8"/>
      </g>
     </g>
     <g id="text_2">
      <!-- 200 -->
      <g transform="translate(124.078028 177.030437)scale(0.1 -0.1)">
       <defs>
        <path id="DejaVuSans-32" d="M 1228 531 
L 3431 531 
L 3431 0 
L 469 0 
L 469 531 
Q 828 903 1448 1529 
Q 2069 2156 2228 2338 
Q 2531 2678 2651 2914 
Q 2772 3150 2772 3378 
Q 2772 3750 2511 3984 
Q 2250 4219 1831 4219 
Q 1534 4219 1204 4116 
Q 875 4013 500 3803 
L 500 4441 
Q 881 4594 1212 4672 
Q 1544 4750 1819 4750 
Q 2544 4750 2975 4387 
Q 3406 4025 3406 3419 
Q 3406 3131 3298 2873 
Q 3191 2616 2906 2266 
Q 2828 2175 2409 1742 
Q 1991 1309 1228 531 
z
" transform="scale(0.015625)"/>
       </defs>
       <use xlink:href="#DejaVuSans-32"/>
       <use xlink:href="#DejaVuSans-30" x="63.623047"/>
       <use xlink:href="#DejaVuSans-30" x="127.246094"/>
      </g>
     </g>
    </g>
    <g id="xtick_3">
     <g id="line2d_5">
      <path d="M 193.410829 162.432 
L 193.410829 41.472 
" clip-path="url(#p9aef8d97a4)" style="fill: none; stroke: #b0b0b0; stroke-width: 0.8; stroke-linecap: square"/>
     </g>
     <g id="line2d_6">
      <g>
       <use xlink:href="#mc5260894b7" x="193.410829" y="162.432" style="stroke: #000000; stroke-width: 0.8"/>
      </g>
     </g>
     <g id="text_3">
      <!-- 400 -->
      <g transform="translate(183.867079 177.030437)scale(0.1 -0.1)">
       <defs>
        <path id="DejaVuSans-34" d="M 2419 4116 
L 825 1625 
L 2419 1625 
L 2419 4116 
z
M 2253 4666 
L 3047 4666 
L 3047 1625 
L 3713 1625 
L 3713 1100 
L 3047 1100 
L 3047 0 
L 2419 0 
L 2419 1100 
L 313 1100 
L 313 1709 
L 2253 4666 
z
" transform="scale(0.015625)"/>
       </defs>
       <use xlink:href="#DejaVuSans-34"/>
       <use xlink:href="#DejaVuSans-30" x="63.623047"/>
       <use xlink:href="#DejaVuSans-30" x="127.246094"/>
      </g>
     </g>
    </g>
    <g id="xtick_4">
     <g id="line2d_7">
      <path d="M 253.199879 162.432 
L 253.199879 41.472 
" clip-path="url(#p9aef8d97a4)" style="fill: none; stroke: #b0b0b0; stroke-width: 0.8; stroke-linecap: square"/>
     </g>
     <g id="line2d_8">
      <g>
       <use xlink:href="#mc5260894b7" x="253.199879" y="162.432" style="stroke: #000000; stroke-width: 0.8"/>
      </g>
     </g>
     <g id="text_4">
      <!-- 600 -->
      <g transform="translate(243.656129 177.030437)scale(0.1 -0.1)">
       <defs>
        <path id="DejaVuSans-36" d="M 2113 2584 
Q 1688 2584 1439 2293 
Q 1191 2003 1191 1497 
Q 1191 994 1439 701 
Q 1688 409 2113 409 
Q 2538 409 2786 701 
Q 3034 994 3034 1497 
Q 3034 2003 2786 2293 
Q 2538 2584 2113 2584 
z
M 3366 4563 
L 3366 3988 
Q 3128 4100 2886 4159 
Q 2644 4219 2406 4219 
Q 1781 4219 1451 3797 
Q 1122 3375 1075 2522 
Q 1259 2794 1537 2939 
Q 1816 3084 2150 3084 
Q 2853 3084 3261 2657 
Q 3669 2231 3669 1497 
Q 3669 778 3244 343 
Q 2819 -91 2113 -91 
Q 1303 -91 875 529 
Q 447 1150 447 2328 
Q 447 3434 972 4092 
Q 1497 4750 2381 4750 
Q 2619 4750 2861 4703 
Q 3103 4656 3366 4563 
z
" transform="scale(0.015625)"/>
       </defs>
       <use xlink:href="#DejaVuSans-36"/>
       <use xlink:href="#DejaVuSans-30" x="63.623047"/>
       <use xlink:href="#DejaVuSans-30" x="127.246094"/>
      </g>
     </g>
    </g>
    <g id="xtick_5">
     <g id="line2d_9">
      <path d="M 312.98893 162.432 
L 312.98893 41.472 
" clip-path="url(#p9aef8d97a4)" style="fill: none; stroke: #b0b0b0; stroke-width: 0.8; stroke-linecap: square"/>
     </g>
     <g id="line2d_10">
      <g>
       <use xlink:href="#mc5260894b7" x="312.98893" y="162.432" style="stroke: #000000; stroke-width: 0.8"/>
      </g>
     </g>
     <g id="text_5">
      <!-- 800 -->
      <g transform="translate(303.44518 177.030437)scale(0.1 -0.1)">
       <defs>
        <path id="DejaVuSans-38" d="M 2034 2216 
Q 1584 2216 1326 1975 
Q 1069 1734 1069 1313 
Q 1069 891 1326 650 
Q 1584 409 2034 409 
Q 2484 409 2743 651 
Q 3003 894 3003 1313 
Q 3003 1734 2745 1975 
Q 2488 2216 2034 2216 
z
M 1403 2484 
Q 997 2584 770 2862 
Q 544 3141 544 3541 
Q 544 4100 942 4425 
Q 1341 4750 2034 4750 
Q 2731 4750 3128 4425 
Q 3525 4100 3525 3541 
Q 3525 3141 3298 2862 
Q 3072 2584 2669 2484 
Q 3125 2378 3379 2068 
Q 3634 1759 3634 1313 
Q 3634 634 3220 271 
Q 2806 -91 2034 -91 
Q 1263 -91 848 271 
Q 434 634 434 1313 
Q 434 1759 690 2068 
Q 947 2378 1403 2484 
z
M 1172 3481 
Q 1172 3119 1398 2916 
Q 1625 2713 2034 2713 
Q 2441 2713 2670 2916 
Q 2900 3119 2900 3481 
Q 2900 3844 2670 4047 
Q 2441 4250 2034 4250 
Q 1625 4250 1398 4047 
Q 1172 3844 1172 3481 
z
" transform="scale(0.015625)"/>
       </defs>
       <use xlink:href="#DejaVuSans-38"/>
       <use xlink:href="#DejaVuSans-30" x="63.623047"/>
       <use xlink:href="#DejaVuSans-30" x="127.246094"/>
      </g>
     </g>
    </g>
    <g id="xtick_6">
     <g id="line2d_11">
      <path d="M 372.777981 162.432 
L 372.777981 41.472 
" clip-path="url(#p9aef8d97a4)" style="fill: none; stroke: #b0b0b0; stroke-width: 0.8; stroke-linecap: square"/>
     </g>
     <g id="line2d_12">
      <g>
       <use xlink:href="#mc5260894b7" x="372.777981" y="162.432" style="stroke: #000000; stroke-width: 0.8"/>
      </g>
     </g>
     <g id="text_6">
      <!-- 1000 -->
      <g transform="translate(360.052981 177.030437)scale(0.1 -0.1)">
       <defs>
        <path id="DejaVuSans-31" d="M 794 531 
L 1825 531 
L 1825 4091 
L 703 3866 
L 703 4441 
L 1819 4666 
L 2450 4666 
L 2450 531 
L 3481 531 
L 3481 0 
L 794 0 
L 794 531 
z
" transform="scale(0.015625)"/>
       </defs>
       <use xlink:href="#DejaVuSans-31"/>
       <use xlink:href="#DejaVuSans-30" x="63.623047"/>
       <use xlink:href="#DejaVuSans-30" x="127.246094"/>
       <use xlink:href="#DejaVuSans-30" x="190.869141"/>
      </g>
     </g>
    </g>
   </g>
   <g id="matplotlib.axis_2">
    <g id="ytick_1">
     <g id="line2d_13">
      <path d="M 57.6 155.701048 
L 414.72 155.701048 
" clip-path="url(#p9aef8d97a4)" style="fill: none; stroke: #b0b0b0; stroke-width: 0.8; stroke-linecap: square"/>
     </g>
     <g id="line2d_14">
      <defs>
       <path id="m7802b5caf4" d="M 0 0 
L -3.5 0 
" style="stroke: #000000; stroke-width: 0.8"/>
      </defs>
      <g>
       <use xlink:href="#m7802b5caf4" x="57.6" y="155.701048" style="stroke: #000000; stroke-width: 0.8"/>
      </g>
     </g>
     <g id="text_7">
      <!-- 0 -->
      <g transform="translate(44.2375 159.500267)scale(0.1 -0.1)">
       <use xlink:href="#DejaVuSans-30"/>
      </g>
     </g>
    </g>
    <g id="ytick_2">
     <g id="line2d_15">
      <path d="M 57.6 117.301393 
L 414.72 117.301393 
" clip-path="url(#p9aef8d97a4)" style="fill: none; stroke: #b0b0b0; stroke-width: 0.8; stroke-linecap: square"/>
     </g>
     <g id="line2d_16">
      <g>
       <use xlink:href="#m7802b5caf4" x="57.6" y="117.301393" style="stroke: #000000; stroke-width: 0.8"/>
      </g>
     </g>
     <g id="text_8">
      <!-- 50000 -->
      <g transform="translate(18.7875 121.100611)scale(0.1 -0.1)">
       <defs>
        <path id="DejaVuSans-35" d="M 691 4666 
L 3169 4666 
L 3169 4134 
L 1269 4134 
L 1269 2991 
Q 1406 3038 1543 3061 
Q 1681 3084 1819 3084 
Q 2600 3084 3056 2656 
Q 3513 2228 3513 1497 
Q 3513 744 3044 326 
Q 2575 -91 1722 -91 
Q 1428 -91 1123 -41 
Q 819 9 494 109 
L 494 744 
Q 775 591 1075 516 
Q 1375 441 1709 441 
Q 2250 441 2565 725 
Q 2881 1009 2881 1497 
Q 2881 1984 2565 2268 
Q 2250 2553 1709 2553 
Q 1456 2553 1204 2497 
Q 953 2441 691 2322 
L 691 4666 
z
" transform="scale(0.015625)"/>
       </defs>
       <use xlink:href="#DejaVuSans-35"/>
       <use xlink:href="#DejaVuSans-30" x="63.623047"/>
       <use xlink:href="#DejaVuSans-30" x="127.246094"/>
       <use xlink:href="#DejaVuSans-30" x="190.869141"/>
       <use xlink:href="#DejaVuSans-30" x="254.492188"/>
      </g>
     </g>
    </g>
    <g id="ytick_3">
     <g id="line2d_17">
      <path d="M 57.6 78.901738 
L 414.72 78.901738 
" clip-path="url(#p9aef8d97a4)" style="fill: none; stroke: #b0b0b0; stroke-width: 0.8; stroke-linecap: square"/>
     </g>
     <g id="line2d_18">
      <g>
       <use xlink:href="#m7802b5caf4" x="57.6" y="78.901738" style="stroke: #000000; stroke-width: 0.8"/>
      </g>
     </g>
     <g id="text_9">
      <!-- 100000 -->
      <g transform="translate(12.425 82.700956)scale(0.1 -0.1)">
       <use xlink:href="#DejaVuSans-31"/>
       <use xlink:href="#DejaVuSans-30" x="63.623047"/>
       <use xlink:href="#DejaVuSans-30" x="127.246094"/>
       <use xlink:href="#DejaVuSans-30" x="190.869141"/>
       <use xlink:href="#DejaVuSans-30" x="254.492188"/>
       <use xlink:href="#DejaVuSans-30" x="318.115234"/>
      </g>
     </g>
    </g>
    <g id="text_10">
     <!-- power [w] -->
     <g transform="translate(6.345312 126.986375)rotate(-90)scale(0.1 -0.1)">
      <defs>
       <path id="DejaVuSans-70" d="M 1159 525 
L 1159 -1331 
L 581 -1331 
L 581 3500 
L 1159 3500 
L 1159 2969 
Q 1341 3281 1617 3432 
Q 1894 3584 2278 3584 
Q 2916 3584 3314 3078 
Q 3713 2572 3713 1747 
Q 3713 922 3314 415 
Q 2916 -91 2278 -91 
Q 1894 -91 1617 61 
Q 1341 213 1159 525 
z
M 3116 1747 
Q 3116 2381 2855 2742 
Q 2594 3103 2138 3103 
Q 1681 3103 1420 2742 
Q 1159 2381 1159 1747 
Q 1159 1113 1420 752 
Q 1681 391 2138 391 
Q 2594 391 2855 752 
Q 3116 1113 3116 1747 
z
" transform="scale(0.015625)"/>
       <path id="DejaVuSans-6f" d="M 1959 3097 
Q 1497 3097 1228 2736 
Q 959 2375 959 1747 
Q 959 1119 1226 758 
Q 1494 397 1959 397 
Q 2419 397 2687 759 
Q 2956 1122 2956 1747 
Q 2956 2369 2687 2733 
Q 2419 3097 1959 3097 
z
M 1959 3584 
Q 2709 3584 3137 3096 
Q 3566 2609 3566 1747 
Q 3566 888 3137 398 
Q 2709 -91 1959 -91 
Q 1206 -91 779 398 
Q 353 888 353 1747 
Q 353 2609 779 3096 
Q 1206 3584 1959 3584 
z
" transform="scale(0.015625)"/>
       <path id="DejaVuSans-77" d="M 269 3500 
L 844 3500 
L 1563 769 
L 2278 3500 
L 2956 3500 
L 3675 769 
L 4391 3500 
L 4966 3500 
L 4050 0 
L 3372 0 
L 2619 2869 
L 1863 0 
L 1184 0 
L 269 3500 
z
" transform="scale(0.015625)"/>
       <path id="DejaVuSans-65" d="M 3597 1894 
L 3597 1613 
L 953 1613 
Q 991 1019 1311 708 
Q 1631 397 2203 397 
Q 2534 397 2845 478 
Q 3156 559 3463 722 
L 3463 178 
Q 3153 47 2828 -22 
Q 2503 -91 2169 -91 
Q 1331 -91 842 396 
Q 353 884 353 1716 
Q 353 2575 817 3079 
Q 1281 3584 2069 3584 
Q 2775 3584 3186 3129 
Q 3597 2675 3597 1894 
z
M 3022 2063 
Q 3016 2534 2758 2815 
Q 2500 3097 2075 3097 
Q 1594 3097 1305 2825 
Q 1016 2553 972 2059 
L 3022 2063 
z
" transform="scale(0.015625)"/>
       <path id="DejaVuSans-72" d="M 2631 2963 
Q 2534 3019 2420 3045 
Q 2306 3072 2169 3072 
Q 1681 3072 1420 2755 
Q 1159 2438 1159 1844 
L 1159 0 
L 581 0 
L 581 3500 
L 1159 3500 
L 1159 2956 
Q 1341 3275 1631 3429 
Q 1922 3584 2338 3584 
Q 2397 3584 2469 3576 
Q 2541 3569 2628 3553 
L 2631 2963 
z
" transform="scale(0.015625)"/>
       <path id="DejaVuSans-20" transform="scale(0.015625)"/>
       <path id="DejaVuSans-5b" d="M 550 4863 
L 1875 4863 
L 1875 4416 
L 1125 4416 
L 1125 -397 
L 1875 -397 
L 1875 -844 
L 550 -844 
L 550 4863 
z
" transform="scale(0.015625)"/>
       <path id="DejaVuSans-5d" d="M 1947 4863 
L 1947 -844 
L 622 -844 
L 622 -397 
L 1369 -397 
L 1369 4416 
L 622 4416 
L 622 4863 
L 1947 4863 
z
" transform="scale(0.015625)"/>
      </defs>
      <use xlink:href="#DejaVuSans-70"/>
      <use xlink:href="#DejaVuSans-6f" x="63.476562"/>
      <use xlink:href="#DejaVuSans-77" x="124.658203"/>
      <use xlink:href="#DejaVuSans-65" x="206.445312"/>
      <use xlink:href="#DejaVuSans-72" x="267.96875"/>
      <use xlink:href="#DejaVuSans-20" x="309.082031"/>
      <use xlink:href="#DejaVuSans-5b" x="340.869141"/>
      <use xlink:href="#DejaVuSans-77" x="379.882812"/>
      <use xlink:href="#DejaVuSans-5d" x="461.669922"/>
     </g>
    </g>
   </g>
   <g id="line2d_19">
    <path d="M 73.832727 155.701048 
L 92.068388 155.701048 
L 92.367333 154.013429 
L 92.666278 155.701048 
L 92.965224 155.701048 
L 93.264169 154.073701 
L 93.563114 149.43275 
L 93.862059 155.701048 
L 94.161005 102.480785 
L 94.45995 155.701048 
L 96.552567 155.701048 
L 96.851512 155.279143 
L 97.150457 153.350436 
L 97.449402 155.701048 
L 97.748348 155.701048 
L 98.047293 149.43275 
L 98.346238 155.701048 
L 101.933581 155.701048 
L 102.232526 152.386082 
L 102.531472 155.701048 
L 102.830417 155.701048 
L 103.129362 138.101595 
L 103.428307 155.701048 
L 109.407212 155.701048 
L 109.706158 154.61615 
L 110.005103 155.399687 
L 110.304048 155.339415 
L 110.602993 155.701048 
L 110.901939 136.353704 
L 111.200884 155.701048 
L 111.499829 155.701048 
L 111.798774 140.512479 
L 112.09772 155.701048 
L 114.190337 155.701048 
L 114.489282 153.892885 
L 115.087172 154.375062 
L 115.386118 46.970182 
L 115.685063 155.701048 
L 162.918413 155.701048 
L 163.217358 148.468396 
L 163.516303 155.701048 
L 165.309975 155.701048 
L 165.60892 154.31479 
L 165.907865 155.701048 
L 170.690989 155.701048 
L 170.989935 139.66867 
L 171.28888 155.701048 
L 173.979387 155.701048 
L 174.278332 144.008261 
L 174.577278 155.701048 
L 177.267785 155.701048 
L 177.56673 155.218871 
L 177.865676 155.701048 
L 178.463566 154.013429 
L 178.762511 155.098327 
L 179.061457 155.038055 
L 179.360402 155.459959 
L 179.659347 154.61615 
L 180.556183 154.555878 
L 180.855128 155.701048 
L 183.844581 155.701048 
L 184.143526 155.339415 
L 184.442471 155.640776 
L 184.741416 154.435334 
L 185.040362 154.977783 
L 185.339307 154.495606 
L 185.638252 152.988803 
L 185.937197 155.279143 
L 186.236143 155.279143 
L 186.535088 154.194245 
L 187.132978 155.701048 
L 188.328759 155.701048 
L 188.627705 155.098327 
L 189.225595 154.736694 
L 189.52454 154.796966 
L 189.823486 154.61615 
L 190.122431 154.857238 
L 190.421376 155.339415 
L 190.720321 155.038055 
L 191.019267 147.383498 
L 191.318212 155.701048 
L 196.101336 155.701048 
L 196.400281 155.399687 
L 196.998172 155.701048 
L 197.297117 155.701048 
L 197.596062 118.935068 
L 197.895008 155.701048 
L 224.80008 155.701048 
L 225.099026 155.459959 
L 225.397971 155.399687 
L 225.696916 155.701048 
L 230.778985 155.701048 
L 231.077931 155.520231 
L 231.376876 155.520231 
L 231.675821 155.701048 
L 231.974766 155.399687 
L 232.273712 155.701048 
L 232.871602 155.158599 
L 233.170547 155.520231 
L 233.768438 155.339415 
L 234.067383 155.701048 
L 234.366328 155.580504 
L 234.665274 155.339415 
L 234.964219 155.580504 
L 235.562109 155.701048 
L 235.861055 155.459959 
L 236.16 155.459959 
L 236.458945 155.580504 
L 236.757891 155.459959 
L 237.056836 155.218871 
L 237.355781 155.339415 
L 237.654726 155.279143 
L 237.953672 155.399687 
L 238.551562 155.098327 
L 238.850507 155.580504 
L 239.149453 155.580504 
L 239.747343 155.399687 
L 240.046288 154.857238 
L 240.345234 155.218871 
L 240.644179 155.399687 
L 240.943124 155.399687 
L 241.541015 155.701048 
L 241.83996 155.640776 
L 242.138905 155.701048 
L 242.43785 155.520231 
L 243.334686 155.640776 
L 243.932577 155.580504 
L 244.231522 155.218871 
L 244.530467 155.701048 
L 245.128358 155.399687 
L 245.427303 155.399687 
L 245.726248 155.580504 
L 246.324139 155.520231 
L 246.623084 155.399687 
L 246.922029 155.701048 
L 247.220974 155.580504 
L 247.51992 155.580504 
L 247.818865 155.399687 
L 248.11781 155.701048 
L 248.416755 155.459959 
L 248.715701 155.520231 
L 249.014646 155.701048 
L 268.446087 155.701048 
L 268.745033 155.158599 
L 269.043978 154.31479 
L 269.342923 155.701048 
L 270.239759 155.701048 
L 270.538704 155.399687 
L 270.837649 155.459959 
L 271.136595 155.701048 
L 273.528157 155.701048 
L 273.827102 155.580504 
L 274.126047 155.701048 
L 277.71339 155.701048 
L 278.012336 155.218871 
L 278.311281 155.580504 
L 278.610226 154.31479 
L 278.909171 154.31479 
L 279.208117 155.701048 
L 279.507062 155.640776 
L 279.806007 154.91751 
L 280.104952 155.701048 
L 280.702843 155.158599 
L 281.001788 155.520231 
L 281.300733 154.91751 
L 281.599679 155.218871 
L 281.898624 154.61615 
L 282.197569 154.857238 
L 282.496514 155.459959 
L 282.79546 155.701048 
L 284.888076 155.701048 
L 285.187022 155.520231 
L 285.784912 155.459959 
L 286.382803 154.736694 
L 286.681748 155.158599 
L 286.980693 154.796966 
L 287.279638 154.91751 
L 287.578584 154.857238 
L 287.877529 155.098327 
L 288.176474 154.495606 
L 288.475419 154.91751 
L 288.774365 155.098327 
L 289.07331 154.91751 
L 289.372255 155.339415 
L 289.6712 154.91751 
L 290.269091 154.91751 
L 290.568036 155.279143 
L 290.866981 155.158599 
L 291.464872 155.520231 
L 291.763817 155.640776 
L 294.75327 155.640776 
L 295.052215 155.459959 
L 295.35116 155.459959 
L 295.650105 155.580504 
L 296.546941 155.580504 
L 296.845886 155.701048 
L 298.041668 155.640776 
L 298.340613 155.520231 
L 298.938503 155.701048 
L 299.237449 155.459959 
L 299.536394 155.701048 
L 299.835339 155.098327 
L 300.43323 154.375062 
L 300.732175 154.61615 
L 301.03112 155.218871 
L 301.629011 155.459959 
L 302.226901 155.399687 
L 302.525846 155.459959 
L 302.824792 155.701048 
L 303.123737 155.399687 
L 303.422682 155.701048 
L 305.515299 155.701048 
L 305.814244 154.133973 
L 306.113189 155.701048 
L 311.195259 155.701048 
L 311.494204 155.339415 
L 312.092094 155.701048 
L 312.689985 155.459959 
L 312.98893 155.399687 
L 313.287875 155.701048 
L 313.586821 154.857238 
L 314.184711 155.399687 
L 314.483656 155.399687 
L 314.782602 155.520231 
L 315.081547 155.520231 
L 315.380492 155.701048 
L 315.679437 155.701048 
L 315.978383 155.098327 
L 316.277328 155.701048 
L 316.875218 155.701048 
L 317.174164 155.580504 
L 317.473109 155.701048 
L 318.070999 155.701048 
L 318.967835 154.676422 
L 319.266781 155.640776 
L 320.462562 155.640776 
L 320.761507 154.857238 
L 321.060452 155.520231 
L 321.359397 155.459959 
L 321.658343 155.701048 
L 321.957288 154.676422 
L 322.256233 154.61615 
L 322.555178 154.435334 
L 322.854124 155.520231 
L 323.153069 155.399687 
L 323.452014 154.977783 
L 324.34885 154.435334 
L 324.647795 154.495606 
L 324.94674 153.651796 
L 326.142521 155.098327 
L 326.441467 154.977783 
L 326.740412 155.339415 
L 327.637248 155.339415 
L 327.936193 155.580504 
L 328.235138 155.279143 
L 328.534083 155.640776 
L 329.131974 155.399687 
L 329.430919 155.701048 
L 330.925645 155.701048 
L 331.224591 155.339415 
L 331.523536 155.701048 
L 331.822481 155.701048 
L 332.121426 155.520231 
L 332.420372 155.701048 
L 336.605605 155.701048 
L 336.90455 155.098327 
L 337.203496 155.701048 
L 337.502441 155.640776 
L 338.100331 155.701048 
L 338.399277 155.701048 
L 338.698222 155.399687 
L 338.997167 155.701048 
L 340.491894 155.701048 
L 340.790839 155.279143 
L 341.089784 155.701048 
L 344.079237 155.701048 
L 344.378182 155.339415 
L 344.677127 155.701048 
L 344.976072 155.520231 
L 345.872908 155.459959 
L 346.470799 155.339415 
L 346.769744 155.459959 
L 347.068689 154.977783 
L 347.367634 155.158599 
L 347.66658 155.098327 
L 348.26447 155.640776 
L 348.563415 155.399687 
L 349.161306 155.459959 
L 349.460251 155.339415 
L 349.759196 155.339415 
L 350.058142 155.459959 
L 350.357087 155.399687 
L 350.656032 155.520231 
L 350.954977 155.399687 
L 351.552868 155.339415 
L 351.851813 155.701048 
L 352.150758 155.520231 
L 353.047594 155.640776 
L 358.727554 155.701048 
L 359.026499 155.038055 
L 359.325445 155.701048 
L 359.923335 155.098327 
L 360.521226 155.701048 
L 361.418061 155.701048 
L 361.717007 155.580504 
L 362.015952 154.495606 
L 362.912788 155.580504 
L 363.211733 155.701048 
L 366.799076 155.701048 
L 367.098021 155.158599 
L 367.396966 155.580504 
L 367.695912 155.701048 
L 368.293802 155.701048 
L 368.891693 155.459959 
L 369.190638 155.701048 
L 369.489583 155.218871 
L 370.087474 155.399687 
L 370.386419 155.218871 
L 370.685364 155.701048 
L 371.283255 155.459959 
L 371.5822 155.701048 
L 371.881145 155.520231 
L 372.18009 155.640776 
L 372.479036 155.459959 
L 373.076926 155.701048 
L 373.973762 154.91751 
L 374.272707 155.580504 
L 374.571652 155.701048 
L 374.870598 155.218871 
L 375.169543 155.339415 
L 375.468488 155.640776 
L 377.26216 155.580504 
L 377.561105 155.520231 
L 377.86005 155.701048 
L 383.54001 155.701048 
L 383.838955 155.580504 
L 384.137901 155.701048 
L 390.116806 155.640776 
L 390.415751 155.399687 
L 390.714696 155.339415 
L 391.013641 155.701048 
L 391.312587 155.580504 
L 391.611532 155.701048 
L 391.910477 155.580504 
L 392.209422 155.701048 
L 398.487273 155.701048 
L 398.487273 155.701048 
" clip-path="url(#p9aef8d97a4)" style="fill: none; stroke: #1f77b4; stroke-width: 1.5; stroke-linecap: square"/>
   </g>
   <g id="line2d_20">
    <path d="M 73.832727 155.701048 
L 79.512687 155.672665 
L 79.811632 155.578017 
L 80.110578 155.701048 
L 86.388428 155.659239 
L 86.687373 155.58855 
L 86.986318 155.645065 
L 87.584209 155.593286 
L 87.883154 155.592096 
L 88.481045 155.419416 
L 88.77999 155.523888 
L 89.078935 155.477107 
L 89.37788 155.587209 
L 89.676826 155.493215 
L 90.274716 155.623498 
L 90.573661 155.511984 
L 90.872607 155.679696 
L 92.068388 155.551201 
L 92.367333 155.701048 
L 92.965224 155.701048 
L 98.346238 155.701048 
L 98.645183 155.391721 
L 98.944129 155.701048 
L 99.840964 155.701048 
L 100.13991 155.335779 
L 100.438855 155.701048 
L 114.489282 155.628666 
L 114.788227 155.537369 
L 115.386118 155.701048 
L 118.973461 155.666376 
L 119.571351 155.681198 
L 119.870296 155.563708 
L 120.169242 155.701048 
L 121.365023 155.68157 
L 121.663968 155.541513 
L 121.962913 155.701048 
L 126.447092 155.675196 
L 126.746037 155.542487 
L 127.044982 155.701048 
L 127.941818 155.630032 
L 128.539709 155.701048 
L 130.931271 155.701048 
L 131.230216 155.535772 
L 131.529161 155.68487 
L 132.724942 155.69277 
L 133.023887 155.613101 
L 133.621778 155.701048 
L 134.219669 155.701048 
L 134.518614 155.573864 
L 134.817559 155.701048 
L 142.889081 155.679114 
L 143.188026 155.587701 
L 143.785917 155.701048 
L 147.074314 155.634156 
L 147.37326 155.557711 
L 147.672205 155.691535 
L 148.867986 155.670188 
L 149.166931 155.572975 
L 149.465876 155.701048 
L 153.053219 155.701048 
L 155.743727 155.701048 
L 156.042672 155.501884 
L 156.341617 155.701048 
L 157.238453 155.701048 
L 157.537398 155.558429 
L 157.836344 155.701048 
L 160.526851 155.701048 
L 160.825796 155.405293 
L 161.124741 155.615743 
L 162.320522 155.701048 
L 162.619468 155.379963 
L 162.918413 155.669304 
L 163.217358 155.540749 
L 164.114194 155.701048 
L 164.413139 155.618977 
L 164.712084 155.701048 
L 165.01103 155.498508 
L 165.907865 155.621253 
L 166.206811 155.566435 
L 166.505756 155.701048 
L 167.103646 155.498579 
L 167.701537 155.6064 
L 168.000482 155.426634 
L 168.299427 155.538986 
L 168.598373 155.523622 
L 168.897318 155.701048 
L 169.196263 155.701048 
L 169.495208 155.484947 
L 169.794154 155.452456 
L 170.093099 155.572809 
L 170.989935 155.55537 
L 171.28888 155.701048 
L 171.88677 155.583336 
L 172.185716 155.229881 
L 172.783606 155.412415 
L 173.082551 155.371098 
L 173.979387 155.684192 
L 175.175168 155.570624 
L 175.773059 155.701048 
L 176.370949 155.524285 
L 176.669895 155.317903 
L 176.96884 155.274346 
L 177.267785 155.652765 
L 177.865676 155.675623 
L 178.164621 155.635241 
L 178.463566 155.402168 
L 179.061457 155.49666 
L 179.659347 155.527233 
L 179.958292 155.63957 
L 180.257238 155.502607 
L 180.556183 155.509634 
L 180.855128 155.672258 
L 181.154073 154.941629 
L 181.453019 155.64398 
L 182.050909 155.701048 
L 192.812938 155.688833 
L 193.111883 155.563863 
L 193.410829 155.701048 
L 196.101336 155.701048 
L 196.400281 155.537761 
L 196.699227 155.701048 
L 200.585515 155.701048 
L 200.88446 155.577726 
L 201.183405 155.701048 
L 202.977077 155.701048 
L 205.667584 155.689681 
L 205.966529 155.573447 
L 206.265475 155.701048 
L 208.955982 155.701048 
L 209.254927 155.089894 
L 209.553872 155.701048 
L 212.24438 155.701048 
L 212.543325 155.556259 
L 212.84227 155.701048 
L 215.532777 155.701048 
L 215.831723 155.500477 
L 216.130668 155.701048 
L 220.016956 155.668601 
L 220.315902 155.580358 
L 220.614847 155.701048 
L 228.387423 155.701048 
L 228.686369 155.554998 
L 228.985314 155.701048 
L 233.469493 155.675688 
L 233.768438 155.578992 
L 234.067383 155.701048 
L 237.953672 155.701048 
L 238.252617 155.587716 
L 238.850507 155.701048 
L 241.242069 155.692047 
L 241.541015 155.564165 
L 241.83996 155.701048 
L 243.035741 155.701048 
L 243.334686 155.072736 
L 243.633631 155.701048 
L 244.829412 155.701048 
L 245.128358 155.527821 
L 245.427303 155.701048 
L 249.612536 155.655166 
L 249.911482 155.500231 
L 250.210427 155.701048 
L 255.890387 155.641213 
L 256.189332 155.567922 
L 256.488277 155.701048 
L 257.385113 155.701048 
L 257.684058 155.505053 
L 257.983004 155.476308 
L 258.281949 155.701048 
L 262.467182 155.701048 
L 262.766128 155.201287 
L 263.065073 155.697246 
L 263.364018 155.4889 
L 263.662963 155.701048 
L 264.858744 155.701048 
L 265.15769 155.579027 
L 265.456635 155.701048 
L 268.745033 155.701048 
L 269.043978 155.535114 
L 270.239759 155.701048 
L 270.538704 155.593638 
L 271.136595 155.701048 
L 282.496514 155.701048 
L 283.094405 155.367874 
L 283.692295 155.568831 
L 283.991241 155.598118 
L 284.290186 155.332042 
L 284.589131 155.374825 
L 284.888076 155.282106 
L 285.187022 155.575426 
L 285.784912 155.245351 
L 286.083857 155.496916 
L 286.382803 155.426333 
L 286.980693 155.585361 
L 287.279638 155.345834 
L 288.176474 155.582704 
L 288.774365 155.480231 
L 289.07331 155.628621 
L 289.372255 155.553647 
L 289.970146 155.636185 
L 290.269091 155.380054 
L 290.568036 155.701048 
L 295.052215 155.701048 
L 295.35116 155.47231 
L 295.650105 155.701048 
L 298.340613 155.701048 
L 298.639558 155.542241 
L 298.938503 155.667803 
L 299.536394 155.534039 
L 299.835339 155.681424 
L 300.134284 155.413831 
L 300.43323 155.419778 
L 300.732175 155.631946 
L 301.03112 155.535531 
L 301.330065 155.677587 
L 302.525846 155.570197 
L 302.824792 155.462697 
L 303.721627 155.658476 
L 304.020573 155.391058 
L 304.618463 155.547746 
L 304.917408 155.402535 
L 305.216354 155.489221 
L 305.515299 155.396051 
L 305.814244 155.489784 
L 306.71108 155.349229 
L 307.010025 155.625672 
L 307.906861 155.500447 
L 308.205806 155.305763 
L 308.504751 155.517489 
L 308.803697 155.560373 
L 309.102642 155.352399 
L 309.401587 155.52433 
L 309.700532 155.402711 
L 309.999478 154.931564 
L 310.298423 155.701048 
L 310.896313 155.576511 
L 311.793149 155.235391 
L 312.092094 155.566611 
L 312.689985 155.526239 
L 312.98893 155.632679 
L 313.287875 155.278149 
L 313.586821 155.622774 
L 313.885766 155.541568 
L 314.184711 155.618611 
L 314.483656 155.558901 
L 314.782602 155.64397 
L 315.081547 155.548077 
L 315.380492 155.623543 
L 315.978383 155.624151 
L 316.277328 155.701048 
L 316.875218 155.567595 
L 317.174164 155.697964 
L 317.772054 155.524631 
L 318.369945 155.606863 
L 318.967835 155.701048 
L 319.266781 155.626029 
L 319.565726 155.701048 
L 319.864671 155.531065 
L 320.163616 155.701048 
L 325.843576 155.701048 
L 326.142521 155.213914 
L 326.441467 155.701048 
L 327.637248 155.701048 
L 327.936193 155.515194 
L 328.235138 155.701048 
L 329.430919 155.666256 
L 329.729864 155.402927 
L 330.02881 155.559408 
L 331.224591 155.559639 
L 331.523536 155.701048 
L 331.822481 155.57538 
L 332.121426 155.701048 
L 335.409824 155.680013 
L 336.007715 155.524219 
L 336.30666 155.485058 
L 336.605605 155.638797 
L 337.203496 155.555797 
L 338.100331 155.448211 
L 338.399277 155.66712 
L 338.698222 155.558012 
L 339.296113 155.701048 
L 339.595058 155.422124 
L 340.192948 155.638144 
L 340.790839 155.617039 
L 341.089784 155.652167 
L 341.388729 155.438568 
L 341.687675 155.679948 
L 341.98662 155.61739 
L 342.285565 155.670033 
L 342.58451 155.461401 
L 342.883456 155.628952 
L 343.780291 155.596566 
L 344.079237 155.677607 
L 344.378182 155.535294 
L 344.677127 155.701048 
L 345.872908 155.469558 
L 346.171853 155.701048 
L 347.068689 155.701048 
L 347.367634 155.524807 
L 347.66658 155.701048 
L 348.862361 155.701048 
L 349.161306 155.550754 
L 349.460251 155.701048 
L 350.954977 155.560684 
L 351.253923 155.701048 
L 352.150758 155.701048 
L 352.449704 155.589233 
L 353.047594 155.701048 
L 353.94443 155.691736 
L 354.243375 155.110195 
L 354.54232 155.701048 
L 357.232828 155.701048 
L 357.531773 155.520518 
L 357.830718 155.701048 
L 358.727554 155.701048 
L 359.026499 155.540945 
L 359.325445 155.543858 
L 359.62439 155.668847 
L 359.923335 155.494686 
L 360.22228 154.868253 
L 360.521226 155.700912 
L 361.418061 155.552688 
L 361.717007 155.593045 
L 362.015952 155.460592 
L 362.314897 155.614196 
L 362.613842 155.488438 
L 363.809623 155.364684 
L 364.108569 155.643724 
L 364.407514 155.473767 
L 364.706459 155.494691 
L 365.30435 155.268821 
L 365.90224 155.657561 
L 366.201185 155.411395 
L 366.799076 155.357015 
L 367.098021 155.276903 
L 367.396966 155.534933 
L 367.695912 155.598977 
L 367.994857 155.416353 
L 368.293802 155.515867 
L 368.592747 155.461456 
L 368.891693 155.212638 
L 369.190638 155.587972 
L 370.087474 155.454058 
L 370.386419 155.218032 
L 370.685364 155.597792 
L 370.984309 155.446037 
L 371.283255 155.691811 
L 371.881145 155.539413 
L 372.18009 155.137946 
L 372.479036 155.652468 
L 372.777981 155.515229 
L 373.375871 155.512798 
L 373.674817 155.421385 
L 373.973762 155.647049 
L 375.169543 155.542437 
L 375.468488 155.296938 
L 376.066379 155.70054 
L 377.86005 155.701048 
L 378.158995 155.390074 
L 378.457941 155.701048 
L 384.735791 155.701048 
L 385.034736 155.485922 
L 385.333682 155.701048 
L 390.415751 155.693705 
L 391.013641 155.492687 
L 391.312587 155.631474 
L 391.910477 155.421516 
L 392.209422 155.695945 
L 392.807313 155.701048 
L 398.487273 155.701048 
L 398.487273 155.701048 
" clip-path="url(#p9aef8d97a4)" style="fill: none; stroke: #ff7f0e; stroke-width: 1.5; stroke-linecap: square"/>
   </g>
   <g id="line2d_21">
    <path d="M 73.832727 155.701048 
L 79.512687 155.672665 
L 79.811632 155.578017 
L 80.110578 155.829809 
L 80.409523 155.924607 
L 81.007413 155.762239 
L 81.904249 155.709742 
L 82.50214 156.091285 
L 83.10003 155.703725 
L 83.398975 155.945692 
L 83.697921 155.75918 
L 83.996866 155.796117 
L 84.295811 155.694805 
L 84.893702 155.782089 
L 85.491592 155.725749 
L 87.883154 155.592096 
L 88.481045 155.419416 
L 88.77999 155.523888 
L 89.078935 155.477107 
L 89.37788 155.587209 
L 89.676826 155.493215 
L 90.274716 155.623498 
L 90.573661 155.511984 
L 90.872607 155.679696 
L 92.666278 155.535679 
L 92.965224 155.694621 
L 93.862059 155.616568 
L 94.161005 155.882115 
L 95.356786 155.751902 
L 95.954676 155.800649 
L 96.851512 155.555498 
L 97.449402 155.89377 
L 97.748348 155.845881 
L 98.047293 154.635813 
L 98.346238 155.893582 
L 98.645183 155.391721 
L 98.944129 156.041902 
L 99.243074 155.538859 
L 99.840964 156.009566 
L 100.13991 155.335779 
L 100.7378 156.417653 
L 101.634636 155.872934 
L 101.933581 156.188389 
L 102.232526 155.772739 
L 102.531472 156.415106 
L 103.428307 156.481004 
L 104.026198 156.281081 
L 104.325143 156.933818 
L 104.624088 156.535485 
L 104.923034 156.391088 
L 105.221979 155.920659 
L 105.520924 156.232834 
L 105.819869 155.785568 
L 106.118815 155.714238 
L 106.41776 156.257894 
L 106.716705 155.157798 
L 107.01565 156.102907 
L 107.314596 156.470602 
L 107.613541 155.904079 
L 107.912486 156.164932 
L 108.510377 156.375553 
L 108.809322 155.901282 
L 109.407212 156.246102 
L 109.706158 156.213638 
L 110.304048 156.792893 
L 110.602993 156.075585 
L 110.901939 156.62489 
L 111.200884 156.225455 
L 111.499829 155.05923 
L 111.798774 155.947223 
L 112.396665 156.152707 
L 112.69561 156.3871 
L 112.994555 155.896465 
L 113.293501 155.766639 
L 113.891391 155.824189 
L 114.788227 155.53463 
L 115.386118 155.702605 
L 116.880844 155.735609 
L 117.478734 155.729034 
L 118.37557 155.658134 
L 119.571351 155.681198 
L 119.870296 155.563708 
L 120.169242 155.728893 
L 121.663968 155.541513 
L 121.962913 155.718748 
L 124.354475 155.697547 
L 124.952366 155.696633 
L 125.251311 155.617214 
L 126.148147 155.770426 
L 126.746037 155.542487 
L 127.044982 155.753957 
L 127.343928 155.663684 
L 127.642873 155.723831 
L 127.941818 155.630032 
L 128.539709 155.772515 
L 129.436544 155.619635 
L 130.034435 155.751671 
L 130.632325 155.637672 
L 130.931271 155.728547 
L 131.230216 155.535772 
L 131.828106 155.773344 
L 132.425997 155.690139 
L 134.219669 155.703609 
L 134.518614 155.573864 
L 134.817559 155.741927 
L 136.312285 155.66173 
L 136.910176 155.735393 
L 137.209121 155.638706 
L 137.508066 155.742781 
L 138.105957 155.635848 
L 138.703847 155.70052 
L 139.301738 155.669802 
L 139.600683 155.650218 
L 140.198574 155.752159 
L 140.497519 155.807569 
L 141.095409 155.746031 
L 145.878533 155.62958 
L 146.177479 155.732384 
L 146.476424 155.657039 
L 146.775369 155.752274 
L 147.37326 155.557711 
L 147.672205 155.691535 
L 148.867986 155.670188 
L 149.166931 155.572975 
L 149.465876 155.851803 
L 149.764822 155.692092 
L 150.362712 155.700294 
L 150.661657 155.709697 
L 150.960603 155.582292 
L 151.259548 155.78469 
L 154.249001 155.693845 
L 154.547946 155.82893 
L 154.846891 155.703413 
L 155.743727 155.723148 
L 156.042672 155.501884 
L 156.341617 155.761526 
L 156.640563 155.814942 
L 156.939508 155.693865 
L 157.238453 155.712866 
L 157.537398 155.558429 
L 157.836344 155.7957 
L 158.135289 155.692549 
L 159.032125 155.65496 
L 159.33107 155.606652 
L 159.630015 155.737774 
L 159.92896 155.615356 
L 160.227906 155.640168 
L 160.526851 155.905727 
L 160.825796 155.321891 
L 161.423687 155.535865 
L 161.722632 155.484012 
L 162.021577 155.722067 
L 162.320522 155.802541 
L 162.619468 155.328815 
L 162.918413 155.636212 
L 163.217358 155.540749 
L 164.114194 155.734087 
L 164.413139 155.618977 
L 164.712084 155.956159 
L 165.01103 155.430951 
L 165.60892 155.618294 
L 166.804701 155.561799 
L 167.103646 155.498579 
L 167.701537 155.6064 
L 168.000482 155.238207 
L 168.299427 155.406803 
L 168.598373 155.406646 
L 168.897318 155.697569 
L 169.196263 155.740991 
L 169.495208 155.41028 
L 169.794154 155.364114 
L 170.093099 155.4972 
L 170.392044 155.453887 
L 171.28888 155.708592 
L 171.88677 155.583336 
L 172.185716 155.229881 
L 172.783606 155.412415 
L 173.082551 155.371098 
L 173.381497 155.485228 
L 173.680442 155.399671 
L 173.979387 155.679758 
L 174.278332 155.336789 
L 174.577278 155.521161 
L 175.474114 155.650289 
L 175.773059 155.859556 
L 176.072004 155.545222 
L 176.370949 154.89497 
L 176.669895 155.223896 
L 176.96884 155.223971 
L 177.267785 155.631534 
L 177.56673 155.741079 
L 178.762511 155.471579 
L 179.659347 155.499615 
L 179.958292 155.619066 
L 180.556183 155.467674 
L 180.855128 155.654532 
L 181.154073 154.892475 
L 181.453019 155.64398 
L 181.751964 155.968847 
L 182.6488 155.712957 
L 182.947745 155.843385 
L 183.24669 155.689526 
L 183.545635 156.088964 
L 183.844581 155.570924 
L 184.143526 155.857195 
L 184.442471 155.800258 
L 184.741416 155.598193 
L 185.040362 155.770959 
L 185.937197 155.706564 
L 186.535088 155.676875 
L 187.431924 155.793053 
L 188.029814 155.688883 
L 188.92665 155.719541 
L 189.225595 155.613965 
L 190.720321 155.683694 
L 191.318212 155.601609 
L 191.617157 155.733921 
L 193.111883 155.563863 
L 193.410829 155.745699 
L 195.802391 155.686889 
L 196.101336 155.724609 
L 196.400281 155.535652 
L 196.699227 155.829929 
L 196.998172 155.702829 
L 197.297117 154.983215 
L 197.596062 155.049071 
L 197.895008 155.631152 
L 198.492898 155.701048 
L 199.090789 155.69495 
L 199.389734 155.614075 
L 199.688679 155.773304 
L 200.88446 155.577726 
L 201.183405 155.708953 
L 201.482351 155.68496 
L 201.781296 155.787302 
L 202.379186 155.643508 
L 202.678132 155.631263 
L 202.977077 155.787026 
L 203.276022 155.704127 
L 203.574967 155.75804 
L 203.873913 155.65833 
L 205.069694 155.728773 
L 205.667584 155.689681 
L 205.966529 155.573447 
L 206.265475 155.749753 
L 207.16231 155.710772 
L 208.955982 155.719496 
L 209.254927 155.089894 
L 209.553872 155.904521 
L 210.749653 155.74695 
L 211.048599 155.616983 
L 211.347544 155.799658 
L 211.646489 155.680957 
L 211.945434 155.800482 
L 212.24438 155.754032 
L 212.543325 155.556259 
L 212.84227 155.743936 
L 214.038051 155.589971 
L 214.336996 155.775112 
L 215.532777 155.715051 
L 215.831723 155.500477 
L 216.130668 155.761666 
L 216.429613 155.70226 
L 216.728559 155.800276 
L 217.027504 155.593802 
L 217.326449 155.737119 
L 217.92434 155.720591 
L 220.016956 155.666482 
L 220.315902 155.578775 
L 220.614847 155.728466 
L 221.810628 155.733499 
L 222.109573 155.600619 
L 222.707464 155.71159 
L 225.397971 155.751855 
L 225.696916 155.644332 
L 226.593752 155.71553 
L 227.191642 155.611913 
L 227.789533 155.725041 
L 228.686369 155.553403 
L 228.985314 155.805446 
L 229.284259 155.706986 
L 229.88215 155.74695 
L 230.48004 155.649329 
L 231.077931 155.699708 
L 233.170547 155.762756 
L 233.768438 155.578992 
L 234.067383 155.750029 
L 235.263164 155.689139 
L 236.458945 155.671344 
L 236.757891 155.784665 
L 237.056836 155.694364 
L 237.953672 155.708682 
L 238.252617 155.587716 
L 238.551562 155.759306 
L 241.242069 155.692047 
L 241.541015 155.564165 
L 242.138905 155.751395 
L 242.736796 155.683584 
L 243.035741 155.703956 
L 243.334686 155.072736 
L 243.633631 156.007843 
L 244.231522 155.747111 
L 244.829412 155.726604 
L 245.128358 155.52693 
L 245.427303 155.798282 
L 245.726248 155.711746 
L 246.025193 155.804656 
L 246.623084 155.601988 
L 246.922029 155.732362 
L 248.416755 155.713399 
L 248.715701 155.640042 
L 249.313591 155.742259 
L 249.911482 155.497361 
L 250.210427 155.716309 
L 251.705153 155.659454 
L 252.303044 155.737417 
L 252.900934 155.683629 
L 253.199879 155.782692 
L 254.096715 155.634506 
L 255.890387 155.615256 
L 256.189332 155.508431 
L 256.787223 155.779962 
L 257.086168 155.590864 
L 257.385113 155.767605 
L 257.684058 155.442729 
L 257.983004 155.419237 
L 258.281949 155.664176 
L 258.580894 155.642059 
L 258.879839 155.872163 
L 259.47773 155.685883 
L 260.07562 155.575434 
L 260.673511 155.61289 
L 262.168237 155.903018 
L 262.467182 156.095643 
L 262.766128 155.144038 
L 263.065073 155.593399 
L 263.364018 155.421261 
L 263.961909 155.959492 
L 264.260854 155.533958 
L 264.559799 155.570309 
L 264.858744 155.747447 
L 265.15769 155.476213 
L 265.456635 155.861308 
L 265.75558 156.038456 
L 266.054525 155.566565 
L 266.353471 155.72897 
L 266.652416 155.530128 
L 267.549252 155.735538 
L 268.147142 155.588623 
L 268.446087 155.708471 
L 268.745033 155.672462 
L 269.043978 155.481384 
L 269.940814 155.621174 
L 270.239759 155.822804 
L 270.538704 155.58647 
L 271.136595 155.802798 
L 271.43554 155.759103 
L 272.03343 156.037732 
L 272.332376 155.818869 
L 273.229211 155.906124 
L 273.528157 155.4745 
L 273.827102 155.733387 
L 274.126047 155.494826 
L 274.424992 156.102121 
L 274.723938 155.703697 
L 276.517609 156.043221 
L 277.71339 155.703683 
L 278.012336 155.66227 
L 278.610226 155.794794 
L 278.909171 155.660358 
L 279.507062 155.834884 
L 280.104952 155.611491 
L 280.403898 155.928488 
L 280.702843 155.825379 
L 281.300733 156.063499 
L 281.599679 155.764527 
L 281.898624 155.844397 
L 282.197569 156.501207 
L 282.79546 155.525934 
L 283.094405 155.340382 
L 283.692295 155.543791 
L 283.991241 155.589377 
L 284.290186 155.304407 
L 284.589131 155.351864 
L 284.888076 155.258251 
L 285.187022 155.543364 
L 285.784912 155.219303 
L 286.083857 155.463544 
L 286.382803 155.403632 
L 286.980693 155.55822 
L 287.279638 155.323025 
L 288.176474 155.550606 
L 289.6712 155.602435 
L 289.970146 155.635259 
L 290.269091 155.378029 
L 290.568036 155.734196 
L 290.866981 155.796458 
L 291.464872 155.651424 
L 291.763817 155.756061 
L 292.062762 155.671457 
L 292.660653 155.758274 
L 295.35116 155.47231 
L 295.650105 155.807328 
L 296.845886 155.64612 
L 297.742722 155.705586 
L 298.340613 155.7187 
L 298.639558 155.537153 
L 298.938503 155.66372 
L 299.536394 155.526522 
L 299.835339 155.677157 
L 300.134284 155.398035 
L 300.43323 155.416406 
L 300.732175 155.619092 
L 301.03112 155.517602 
L 301.330065 155.662592 
L 303.422682 155.537966 
L 303.721627 155.635344 
L 304.020573 155.382573 
L 304.618463 155.534531 
L 304.917408 155.374511 
L 305.216354 155.415905 
L 305.515299 155.322745 
L 305.814244 155.489784 
L 306.71108 155.349229 
L 307.010025 155.625672 
L 307.906861 155.500447 
L 308.205806 155.305763 
L 308.504751 155.517489 
L 308.803697 155.560373 
L 309.102642 155.352399 
L 309.401587 155.52433 
L 309.700532 155.402711 
L 309.999478 154.931564 
L 310.298423 155.782305 
L 311.494204 155.33882 
L 311.793149 155.152138 
L 312.092094 155.480559 
L 312.98893 155.614566 
L 313.287875 155.263039 
L 313.586821 155.61251 
L 313.885766 155.528534 
L 314.184711 155.607001 
L 314.483656 155.55251 
L 314.782602 155.6358 
L 315.081547 155.539898 
L 315.380492 155.620718 
L 315.978383 155.607257 
L 316.277328 155.733112 
L 316.875218 155.543843 
L 317.174164 155.670622 
L 317.772054 155.492545 
L 318.967835 155.723764 
L 319.266781 155.568263 
L 319.565726 155.664254 
L 319.864671 155.500274 
L 320.163616 155.789251 
L 320.462562 155.764301 
L 320.761507 155.90537 
L 321.658343 155.683307 
L 322.854124 155.753027 
L 324.049905 155.692911 
L 325.843576 155.695212 
L 326.142521 155.211324 
L 326.441467 155.883673 
L 327.936193 155.515194 
L 328.235138 155.814057 
L 328.833029 155.747854 
L 329.430919 155.652511 
L 329.729864 155.386424 
L 330.02881 155.503664 
L 331.224591 155.428606 
L 331.523536 155.792511 
L 331.822481 155.499912 
L 332.121426 155.671986 
L 332.420372 155.682047 
L 333.018262 155.522056 
L 333.616153 155.596347 
L 334.811934 155.543719 
L 335.409824 155.629576 
L 336.007715 155.419172 
L 336.30666 155.428175 
L 336.605605 155.581902 
L 338.100331 155.3857 
L 338.399277 155.575107 
L 338.698222 155.502219 
L 339.296113 155.609921 
L 339.595058 155.369792 
L 340.192948 155.590357 
L 340.491894 155.492281 
L 341.089784 155.573761 
L 341.388729 155.34325 
L 341.687675 155.599781 
L 342.58451 155.413614 
L 342.883456 155.591958 
L 343.780291 155.570891 
L 344.079237 155.65862 
L 344.378182 155.52151 
L 344.677127 155.763698 
L 344.976072 155.659447 
L 345.573963 155.650227 
L 345.872908 155.466328 
L 346.171853 155.719731 
L 346.769744 155.681964 
L 347.068689 155.774421 
L 347.367634 155.522924 
L 347.66658 155.763604 
L 348.862361 155.738843 
L 349.161306 155.550754 
L 349.460251 155.72593 
L 349.759196 155.674024 
L 350.357087 155.783519 
L 350.954977 155.557996 
L 351.253923 155.71389 
L 353.94443 155.690644 
L 354.243375 155.108909 
L 354.54232 155.95928 
L 354.841266 155.787523 
L 355.140211 155.834561 
L 355.439156 155.706894 
L 355.738101 155.74138 
L 356.037047 155.598836 
L 356.335992 155.786826 
L 357.232828 155.708356 
L 357.531773 155.520518 
L 357.830718 155.766508 
L 358.428609 155.719577 
L 358.727554 155.757135 
L 359.026499 155.518674 
L 359.325445 155.467931 
L 359.62439 155.608161 
L 359.923335 155.443342 
L 360.22228 154.814619 
L 360.521226 155.618694 
L 362.015952 155.384607 
L 362.314897 155.575749 
L 363.211733 155.349156 
L 363.510678 155.413796 
L 363.809623 155.288906 
L 364.108569 155.550568 
L 364.407514 155.397925 
L 364.706459 155.414035 
L 365.30435 155.186239 
L 365.90224 155.601715 
L 366.201185 155.351902 
L 367.098021 155.243025 
L 367.396966 155.490148 
L 367.695912 155.556208 
L 367.994857 155.373715 
L 368.293802 155.461847 
L 368.592747 155.410466 
L 368.891693 155.164737 
L 369.190638 155.562255 
L 369.788528 155.407282 
L 370.087474 155.383666 
L 370.386419 155.141143 
L 370.685364 155.5717 
L 370.984309 155.395323 
L 371.283255 155.640923 
L 371.881145 155.490435 
L 372.18009 155.092009 
L 372.479036 155.598127 
L 372.777981 155.464038 
L 373.375871 155.474047 
L 373.674817 155.387758 
L 373.973762 155.622554 
L 375.169543 155.502342 
L 375.468488 155.243071 
L 376.066379 155.611417 
L 376.365324 155.568635 
L 376.664269 155.752784 
L 376.963214 155.536157 
L 377.26216 155.734839 
L 377.86005 155.64591 
L 378.158995 155.260277 
L 378.457941 155.769738 
L 379.055831 155.722933 
L 379.354776 155.976948 
L 379.653722 155.687526 
L 380.251612 156.141951 
L 380.550558 155.887615 
L 380.849503 156.015232 
L 381.148448 156.681251 
L 381.746339 156.153851 
L 382.045284 156.189995 
L 382.344229 156.006629 
L 382.643174 156.669328 
L 382.94212 155.749963 
L 383.54001 155.638566 
L 383.838955 155.789681 
L 384.735791 155.728659 
L 385.034736 155.451615 
L 385.333682 155.873218 
L 385.632627 155.868106 
L 385.931572 155.721493 
L 386.529463 155.772478 
L 386.828408 155.682966 
L 387.426298 155.896455 
L 387.725244 155.769031 
L 388.024189 156.002282 
L 388.323134 156.019437 
L 388.622079 155.752121 
L 388.921025 156.063081 
L 389.518915 155.82117 
L 390.116806 155.802937 
L 391.013641 155.478249 
L 391.312587 155.611318 
L 391.910477 155.409575 
L 392.209422 155.686056 
L 392.807313 155.706048 
L 398.487273 155.714383 
L 398.487273 155.714383 
" clip-path="url(#p9aef8d97a4)" style="fill: none; stroke: #2ca02c; stroke-width: 1.5; stroke-linecap: square"/>
   </g>
   <g id="patch_3">
    <path d="M 57.6 162.432 
L 57.6 41.472 
" style="fill: none; stroke: #000000; stroke-width: 0.8; stroke-linejoin: miter; stroke-linecap: square"/>
   </g>
   <g id="patch_4">
    <path d="M 414.72 162.432 
L 414.72 41.472 
" style="fill: none; stroke: #000000; stroke-width: 0.8; stroke-linejoin: miter; stroke-linecap: square"/>
   </g>
   <g id="patch_5">
    <path d="M 57.6 162.432 
L 414.72 162.432 
" style="fill: none; stroke: #000000; stroke-width: 0.8; stroke-linejoin: miter; stroke-linecap: square"/>
   </g>
   <g id="patch_6">
    <path d="M 57.6 41.472 
L 414.72 41.472 
" style="fill: none; stroke: #000000; stroke-width: 0.8; stroke-linejoin: miter; stroke-linecap: square"/>
   </g>
   <g id="legend_1">
    <g id="patch_7">
     <path d="M 281.6825 93.7845 
L 407.72 93.7845 
Q 409.72 93.7845 409.72 91.7845 
L 409.72 48.472 
Q 409.72 46.472 407.72 46.472 
L 281.6825 46.472 
Q 279.6825 46.472 279.6825 48.472 
L 279.6825 91.7845 
Q 279.6825 93.7845 281.6825 93.7845 
z
" style="fill: #ffffff; opacity: 0.8; stroke: #cccccc; stroke-linejoin: miter"/>
    </g>
    <g id="line2d_22">
     <path d="M 283.6825 54.570437 
L 293.6825 54.570437 
L 303.6825 54.570437 
" style="fill: none; stroke: #1f77b4; stroke-width: 1.5; stroke-linecap: square"/>
    </g>
    <g id="text_11">
     <!-- gps -->
     <g transform="translate(311.6825 58.070437)scale(0.1 -0.1)">
      <defs>
       <path id="DejaVuSans-67" d="M 2906 1791 
Q 2906 2416 2648 2759 
Q 2391 3103 1925 3103 
Q 1463 3103 1205 2759 
Q 947 2416 947 1791 
Q 947 1169 1205 825 
Q 1463 481 1925 481 
Q 2391 481 2648 825 
Q 2906 1169 2906 1791 
z
M 3481 434 
Q 3481 -459 3084 -895 
Q 2688 -1331 1869 -1331 
Q 1566 -1331 1297 -1286 
Q 1028 -1241 775 -1147 
L 775 -588 
Q 1028 -725 1275 -790 
Q 1522 -856 1778 -856 
Q 2344 -856 2625 -561 
Q 2906 -266 2906 331 
L 2906 616 
Q 2728 306 2450 153 
Q 2172 0 1784 0 
Q 1141 0 747 490 
Q 353 981 353 1791 
Q 353 2603 747 3093 
Q 1141 3584 1784 3584 
Q 2172 3584 2450 3431 
Q 2728 3278 2906 2969 
L 2906 3500 
L 3481 3500 
L 3481 434 
z
" transform="scale(0.015625)"/>
       <path id="DejaVuSans-73" d="M 2834 3397 
L 2834 2853 
Q 2591 2978 2328 3040 
Q 2066 3103 1784 3103 
Q 1356 3103 1142 2972 
Q 928 2841 928 2578 
Q 928 2378 1081 2264 
Q 1234 2150 1697 2047 
L 1894 2003 
Q 2506 1872 2764 1633 
Q 3022 1394 3022 966 
Q 3022 478 2636 193 
Q 2250 -91 1575 -91 
Q 1294 -91 989 -36 
Q 684 19 347 128 
L 347 722 
Q 666 556 975 473 
Q 1284 391 1588 391 
Q 1994 391 2212 530 
Q 2431 669 2431 922 
Q 2431 1156 2273 1281 
Q 2116 1406 1581 1522 
L 1381 1569 
Q 847 1681 609 1914 
Q 372 2147 372 2553 
Q 372 3047 722 3315 
Q 1072 3584 1716 3584 
Q 2034 3584 2315 3537 
Q 2597 3491 2834 3397 
z
" transform="scale(0.015625)"/>
      </defs>
      <use xlink:href="#DejaVuSans-67"/>
      <use xlink:href="#DejaVuSans-70" x="63.476562"/>
      <use xlink:href="#DejaVuSans-73" x="126.953125"/>
     </g>
    </g>
    <g id="line2d_23">
     <path d="M 283.6825 69.248562 
L 293.6825 69.248562 
L 303.6825 69.248562 
" style="fill: none; stroke: #ff7f0e; stroke-width: 1.5; stroke-linecap: square"/>
    </g>
    <g id="text_12">
     <!-- bmp280 -->
     <g transform="translate(311.6825 72.748562)scale(0.1 -0.1)">
      <defs>
       <path id="DejaVuSans-62" d="M 3116 1747 
Q 3116 2381 2855 2742 
Q 2594 3103 2138 3103 
Q 1681 3103 1420 2742 
Q 1159 2381 1159 1747 
Q 1159 1113 1420 752 
Q 1681 391 2138 391 
Q 2594 391 2855 752 
Q 3116 1113 3116 1747 
z
M 1159 2969 
Q 1341 3281 1617 3432 
Q 1894 3584 2278 3584 
Q 2916 3584 3314 3078 
Q 3713 2572 3713 1747 
Q 3713 922 3314 415 
Q 2916 -91 2278 -91 
Q 1894 -91 1617 61 
Q 1341 213 1159 525 
L 1159 0 
L 581 0 
L 581 4863 
L 1159 4863 
L 1159 2969 
z
" transform="scale(0.015625)"/>
       <path id="DejaVuSans-6d" d="M 3328 2828 
Q 3544 3216 3844 3400 
Q 4144 3584 4550 3584 
Q 5097 3584 5394 3201 
Q 5691 2819 5691 2113 
L 5691 0 
L 5113 0 
L 5113 2094 
Q 5113 2597 4934 2840 
Q 4756 3084 4391 3084 
Q 3944 3084 3684 2787 
Q 3425 2491 3425 1978 
L 3425 0 
L 2847 0 
L 2847 2094 
Q 2847 2600 2669 2842 
Q 2491 3084 2119 3084 
Q 1678 3084 1418 2786 
Q 1159 2488 1159 1978 
L 1159 0 
L 581 0 
L 581 3500 
L 1159 3500 
L 1159 2956 
Q 1356 3278 1631 3431 
Q 1906 3584 2284 3584 
Q 2666 3584 2933 3390 
Q 3200 3197 3328 2828 
z
" transform="scale(0.015625)"/>
      </defs>
      <use xlink:href="#DejaVuSans-62"/>
      <use xlink:href="#DejaVuSans-6d" x="63.476562"/>
      <use xlink:href="#DejaVuSans-70" x="160.888672"/>
      <use xlink:href="#DejaVuSans-32" x="224.365234"/>
      <use xlink:href="#DejaVuSans-38" x="287.988281"/>
      <use xlink:href="#DejaVuSans-30" x="351.611328"/>
     </g>
    </g>
    <g id="line2d_24">
     <path d="M 283.6825 83.926687 
L 293.6825 83.926687 
L 303.6825 83.926687 
" style="fill: none; stroke: #2ca02c; stroke-width: 1.5; stroke-linecap: square"/>
    </g>
    <g id="text_13">
     <!-- corrected_bmp280 -->
     <g transform="translate(311.6825 87.426687)scale(0.1 -0.1)">
      <defs>
       <path id="DejaVuSans-63" d="M 3122 3366 
L 3122 2828 
Q 2878 2963 2633 3030 
Q 2388 3097 2138 3097 
Q 1578 3097 1268 2742 
Q 959 2388 959 1747 
Q 959 1106 1268 751 
Q 1578 397 2138 397 
Q 2388 397 2633 464 
Q 2878 531 3122 666 
L 3122 134 
Q 2881 22 2623 -34 
Q 2366 -91 2075 -91 
Q 1284 -91 818 406 
Q 353 903 353 1747 
Q 353 2603 823 3093 
Q 1294 3584 2113 3584 
Q 2378 3584 2631 3529 
Q 2884 3475 3122 3366 
z
" transform="scale(0.015625)"/>
       <path id="DejaVuSans-74" d="M 1172 4494 
L 1172 3500 
L 2356 3500 
L 2356 3053 
L 1172 3053 
L 1172 1153 
Q 1172 725 1289 603 
Q 1406 481 1766 481 
L 2356 481 
L 2356 0 
L 1766 0 
Q 1100 0 847 248 
Q 594 497 594 1153 
L 594 3053 
L 172 3053 
L 172 3500 
L 594 3500 
L 594 4494 
L 1172 4494 
z
" transform="scale(0.015625)"/>
       <path id="DejaVuSans-64" d="M 2906 2969 
L 2906 4863 
L 3481 4863 
L 3481 0 
L 2906 0 
L 2906 525 
Q 2725 213 2448 61 
Q 2172 -91 1784 -91 
Q 1150 -91 751 415 
Q 353 922 353 1747 
Q 353 2572 751 3078 
Q 1150 3584 1784 3584 
Q 2172 3584 2448 3432 
Q 2725 3281 2906 2969 
z
M 947 1747 
Q 947 1113 1208 752 
Q 1469 391 1925 391 
Q 2381 391 2643 752 
Q 2906 1113 2906 1747 
Q 2906 2381 2643 2742 
Q 2381 3103 1925 3103 
Q 1469 3103 1208 2742 
Q 947 2381 947 1747 
z
" transform="scale(0.015625)"/>
       <path id="DejaVuSans-5f" d="M 3263 -1063 
L 3263 -1509 
L -63 -1509 
L -63 -1063 
L 3263 -1063 
z
" transform="scale(0.015625)"/>
      </defs>
      <use xlink:href="#DejaVuSans-63"/>
      <use xlink:href="#DejaVuSans-6f" x="54.980469"/>
      <use xlink:href="#DejaVuSans-72" x="116.162109"/>
      <use xlink:href="#DejaVuSans-72" x="155.525391"/>
      <use xlink:href="#DejaVuSans-65" x="194.388672"/>
      <use xlink:href="#DejaVuSans-63" x="255.912109"/>
      <use xlink:href="#DejaVuSans-74" x="310.892578"/>
      <use xlink:href="#DejaVuSans-65" x="350.101562"/>
      <use xlink:href="#DejaVuSans-64" x="411.625"/>
      <use xlink:href="#DejaVuSans-5f" x="475.101562"/>
      <use xlink:href="#DejaVuSans-62" x="525.101562"/>
      <use xlink:href="#DejaVuSans-6d" x="588.578125"/>
      <use xlink:href="#DejaVuSans-70" x="685.990234"/>
      <use xlink:href="#DejaVuSans-32" x="749.466797"/>
      <use xlink:href="#DejaVuSans-38" x="813.089844"/>
      <use xlink:href="#DejaVuSans-30" x="876.712891"/>
     </g>
    </g>
   </g>
  </g>
  <g id="axes_2">
   <g id="patch_8">
    <path d="M 57.6 307.584 
L 414.72 307.584 
L 414.72 186.624 
L 57.6 186.624 
z
" style="fill: #ffffff"/>
   </g>
   <g id="matplotlib.axis_3">
    <g id="xtick_7">
     <g id="line2d_25">
      <path d="M 73.832727 307.584 
L 73.832727 186.624 
" clip-path="url(#p1e54806789)" style="fill: none; stroke: #b0b0b0; stroke-width: 0.8; stroke-linecap: square"/>
     </g>
     <g id="line2d_26">
      <g>
       <use xlink:href="#mc5260894b7" x="73.832727" y="307.584" style="stroke: #000000; stroke-width: 0.8"/>
      </g>
     </g>
     <g id="text_14">
      <!-- 0 -->
      <g transform="translate(70.651477 322.182437)scale(0.1 -0.1)">
       <use xlink:href="#DejaVuSans-30"/>
      </g>
     </g>
    </g>
    <g id="xtick_8">
     <g id="line2d_27">
      <path d="M 133.621778 307.584 
L 133.621778 186.624 
" clip-path="url(#p1e54806789)" style="fill: none; stroke: #b0b0b0; stroke-width: 0.8; stroke-linecap: square"/>
     </g>
     <g id="line2d_28">
      <g>
       <use xlink:href="#mc5260894b7" x="133.621778" y="307.584" style="stroke: #000000; stroke-width: 0.8"/>
      </g>
     </g>
     <g id="text_15">
      <!-- 200 -->
      <g transform="translate(124.078028 322.182437)scale(0.1 -0.1)">
       <use xlink:href="#DejaVuSans-32"/>
       <use xlink:href="#DejaVuSans-30" x="63.623047"/>
       <use xlink:href="#DejaVuSans-30" x="127.246094"/>
      </g>
     </g>
    </g>
    <g id="xtick_9">
     <g id="line2d_29">
      <path d="M 193.410829 307.584 
L 193.410829 186.624 
" clip-path="url(#p1e54806789)" style="fill: none; stroke: #b0b0b0; stroke-width: 0.8; stroke-linecap: square"/>
     </g>
     <g id="line2d_30">
      <g>
       <use xlink:href="#mc5260894b7" x="193.410829" y="307.584" style="stroke: #000000; stroke-width: 0.8"/>
      </g>
     </g>
     <g id="text_16">
      <!-- 400 -->
      <g transform="translate(183.867079 322.182437)scale(0.1 -0.1)">
       <use xlink:href="#DejaVuSans-34"/>
       <use xlink:href="#DejaVuSans-30" x="63.623047"/>
       <use xlink:href="#DejaVuSans-30" x="127.246094"/>
      </g>
     </g>
    </g>
    <g id="xtick_10">
     <g id="line2d_31">
      <path d="M 253.199879 307.584 
L 253.199879 186.624 
" clip-path="url(#p1e54806789)" style="fill: none; stroke: #b0b0b0; stroke-width: 0.8; stroke-linecap: square"/>
     </g>
     <g id="line2d_32">
      <g>
       <use xlink:href="#mc5260894b7" x="253.199879" y="307.584" style="stroke: #000000; stroke-width: 0.8"/>
      </g>
     </g>
     <g id="text_17">
      <!-- 600 -->
      <g transform="translate(243.656129 322.182437)scale(0.1 -0.1)">
       <use xlink:href="#DejaVuSans-36"/>
       <use xlink:href="#DejaVuSans-30" x="63.623047"/>
       <use xlink:href="#DejaVuSans-30" x="127.246094"/>
      </g>
     </g>
    </g>
    <g id="xtick_11">
     <g id="line2d_33">
      <path d="M 312.98893 307.584 
L 312.98893 186.624 
" clip-path="url(#p1e54806789)" style="fill: none; stroke: #b0b0b0; stroke-width: 0.8; stroke-linecap: square"/>
     </g>
     <g id="line2d_34">
      <g>
       <use xlink:href="#mc5260894b7" x="312.98893" y="307.584" style="stroke: #000000; stroke-width: 0.8"/>
      </g>
     </g>
     <g id="text_18">
      <!-- 800 -->
      <g transform="translate(303.44518 322.182437)scale(0.1 -0.1)">
       <use xlink:href="#DejaVuSans-38"/>
       <use xlink:href="#DejaVuSans-30" x="63.623047"/>
       <use xlink:href="#DejaVuSans-30" x="127.246094"/>
      </g>
     </g>
    </g>
    <g id="xtick_12">
     <g id="line2d_35">
      <path d="M 372.777981 307.584 
L 372.777981 186.624 
" clip-path="url(#p1e54806789)" style="fill: none; stroke: #b0b0b0; stroke-width: 0.8; stroke-linecap: square"/>
     </g>
     <g id="line2d_36">
      <g>
       <use xlink:href="#mc5260894b7" x="372.777981" y="307.584" style="stroke: #000000; stroke-width: 0.8"/>
      </g>
     </g>
     <g id="text_19">
      <!-- 1000 -->
      <g transform="translate(360.052981 322.182437)scale(0.1 -0.1)">
       <use xlink:href="#DejaVuSans-31"/>
       <use xlink:href="#DejaVuSans-30" x="63.623047"/>
       <use xlink:href="#DejaVuSans-30" x="127.246094"/>
       <use xlink:href="#DejaVuSans-30" x="190.869141"/>
      </g>
     </g>
    </g>
    <g id="text_20">
     <!-- time [s] -->
     <g transform="translate(216.768594 335.860562)scale(0.1 -0.1)">
      <defs>
       <path id="DejaVuSans-69" d="M 603 3500 
L 1178 3500 
L 1178 0 
L 603 0 
L 603 3500 
z
M 603 4863 
L 1178 4863 
L 1178 4134 
L 603 4134 
L 603 4863 
z
" transform="scale(0.015625)"/>
      </defs>
      <use xlink:href="#DejaVuSans-74"/>
      <use xlink:href="#DejaVuSans-69" x="39.208984"/>
      <use xlink:href="#DejaVuSans-6d" x="66.992188"/>
      <use xlink:href="#DejaVuSans-65" x="164.404297"/>
      <use xlink:href="#DejaVuSans-20" x="225.927734"/>
      <use xlink:href="#DejaVuSans-5b" x="257.714844"/>
      <use xlink:href="#DejaVuSans-73" x="296.728516"/>
      <use xlink:href="#DejaVuSans-5d" x="348.828125"/>
     </g>
    </g>
   </g>
   <g id="matplotlib.axis_4">
    <g id="ytick_4">
     <g id="line2d_37">
      <path d="M 57.6 302.083709 
L 414.72 302.083709 
" clip-path="url(#p1e54806789)" style="fill: none; stroke: #b0b0b0; stroke-width: 0.8; stroke-linecap: square"/>
     </g>
     <g id="line2d_38">
      <g>
       <use xlink:href="#m7802b5caf4" x="57.6" y="302.083709" style="stroke: #000000; stroke-width: 0.8"/>
      </g>
     </g>
     <g id="text_21">
      <!-- 0 -->
      <g transform="translate(44.2375 305.882928)scale(0.1 -0.1)">
       <use xlink:href="#DejaVuSans-30"/>
      </g>
     </g>
    </g>
    <g id="ytick_5">
     <g id="line2d_39">
      <path d="M 57.6 268.052494 
L 414.72 268.052494 
" clip-path="url(#p1e54806789)" style="fill: none; stroke: #b0b0b0; stroke-width: 0.8; stroke-linecap: square"/>
     </g>
     <g id="line2d_40">
      <g>
       <use xlink:href="#m7802b5caf4" x="57.6" y="268.052494" style="stroke: #000000; stroke-width: 0.8"/>
      </g>
     </g>
     <g id="text_22">
      <!-- 50 -->
      <g transform="translate(37.875 271.851712)scale(0.1 -0.1)">
       <use xlink:href="#DejaVuSans-35"/>
       <use xlink:href="#DejaVuSans-30" x="63.623047"/>
      </g>
     </g>
    </g>
    <g id="ytick_6">
     <g id="line2d_41">
      <path d="M 57.6 234.021278 
L 414.72 234.021278 
" clip-path="url(#p1e54806789)" style="fill: none; stroke: #b0b0b0; stroke-width: 0.8; stroke-linecap: square"/>
     </g>
     <g id="line2d_42">
      <g>
       <use xlink:href="#m7802b5caf4" x="57.6" y="234.021278" style="stroke: #000000; stroke-width: 0.8"/>
      </g>
     </g>
     <g id="text_23">
      <!-- 100 -->
      <g transform="translate(31.5125 237.820497)scale(0.1 -0.1)">
       <use xlink:href="#DejaVuSans-31"/>
       <use xlink:href="#DejaVuSans-30" x="63.623047"/>
       <use xlink:href="#DejaVuSans-30" x="127.246094"/>
      </g>
     </g>
    </g>
    <g id="ytick_7">
     <g id="line2d_43">
      <path d="M 57.6 199.990063 
L 414.72 199.990063 
" clip-path="url(#p1e54806789)" style="fill: none; stroke: #b0b0b0; stroke-width: 0.8; stroke-linecap: square"/>
     </g>
     <g id="line2d_44">
      <g>
       <use xlink:href="#m7802b5caf4" x="57.6" y="199.990063" style="stroke: #000000; stroke-width: 0.8"/>
      </g>
     </g>
     <g id="text_24">
      <!-- 150 -->
      <g transform="translate(31.5125 203.789281)scale(0.1 -0.1)">
       <use xlink:href="#DejaVuSans-31"/>
       <use xlink:href="#DejaVuSans-35" x="63.623047"/>
       <use xlink:href="#DejaVuSans-30" x="127.246094"/>
      </g>
     </g>
    </g>
    <g id="text_25">
     <!-- energy [wh] -->
     <g transform="translate(25.432812 277.275875)rotate(-90)scale(0.1 -0.1)">
      <defs>
       <path id="DejaVuSans-6e" d="M 3513 2113 
L 3513 0 
L 2938 0 
L 2938 2094 
Q 2938 2591 2744 2837 
Q 2550 3084 2163 3084 
Q 1697 3084 1428 2787 
Q 1159 2491 1159 1978 
L 1159 0 
L 581 0 
L 581 3500 
L 1159 3500 
L 1159 2956 
Q 1366 3272 1645 3428 
Q 1925 3584 2291 3584 
Q 2894 3584 3203 3211 
Q 3513 2838 3513 2113 
z
" transform="scale(0.015625)"/>
       <path id="DejaVuSans-79" d="M 2059 -325 
Q 1816 -950 1584 -1140 
Q 1353 -1331 966 -1331 
L 506 -1331 
L 506 -850 
L 844 -850 
Q 1081 -850 1212 -737 
Q 1344 -625 1503 -206 
L 1606 56 
L 191 3500 
L 800 3500 
L 1894 763 
L 2988 3500 
L 3597 3500 
L 2059 -325 
z
" transform="scale(0.015625)"/>
       <path id="DejaVuSans-68" d="M 3513 2113 
L 3513 0 
L 2938 0 
L 2938 2094 
Q 2938 2591 2744 2837 
Q 2550 3084 2163 3084 
Q 1697 3084 1428 2787 
Q 1159 2491 1159 1978 
L 1159 0 
L 581 0 
L 581 4863 
L 1159 4863 
L 1159 2956 
Q 1366 3272 1645 3428 
Q 1925 3584 2291 3584 
Q 2894 3584 3203 3211 
Q 3513 2838 3513 2113 
z
" transform="scale(0.015625)"/>
      </defs>
      <use xlink:href="#DejaVuSans-65"/>
      <use xlink:href="#DejaVuSans-6e" x="61.523438"/>
      <use xlink:href="#DejaVuSans-65" x="124.902344"/>
      <use xlink:href="#DejaVuSans-72" x="186.425781"/>
      <use xlink:href="#DejaVuSans-67" x="225.789062"/>
      <use xlink:href="#DejaVuSans-79" x="289.265625"/>
      <use xlink:href="#DejaVuSans-20" x="348.445312"/>
      <use xlink:href="#DejaVuSans-5b" x="380.232422"/>
      <use xlink:href="#DejaVuSans-77" x="419.246094"/>
      <use xlink:href="#DejaVuSans-68" x="501.033203"/>
      <use xlink:href="#DejaVuSans-5d" x="564.412109"/>
     </g>
    </g>
   </g>
   <g id="line2d_45">
    <path d="M 73.832727 302.083709 
L 92.068388 302.083709 
L 92.367333 301.668256 
L 92.965224 301.668256 
L 93.264169 301.26764 
L 93.563114 299.724529 
L 93.862059 299.724529 
L 94.161005 286.622919 
L 96.851512 286.519056 
L 97.150457 285.940389 
L 97.748348 285.940389 
L 98.047293 284.397278 
L 101.933581 284.397278 
L 102.232526 283.581209 
L 102.830417 283.581209 
L 103.129362 279.248627 
L 109.407212 279.248627 
L 109.706158 278.98155 
L 110.602993 278.818337 
L 110.901939 274.055464 
L 111.499829 274.055464 
L 111.798774 270.316386 
L 114.190337 270.316386 
L 115.087172 269.17389 
L 115.386118 242.406842 
L 162.918413 242.406842 
L 163.217358 240.626329 
L 165.309975 240.626329 
L 165.60892 240.285064 
L 170.690989 240.285064 
L 170.989935 236.338259 
L 173.979387 236.338259 
L 174.278332 233.459763 
L 177.267785 233.459763 
L 178.164621 233.118498 
L 178.463566 232.703045 
L 179.659347 232.065028 
L 180.556183 231.248959 
L 184.442471 231.145096 
L 185.339307 230.358703 
L 185.638252 229.69101 
L 186.236143 229.483284 
L 186.834033 228.904617 
L 188.328759 228.904617 
L 188.92665 228.563352 
L 190.122431 227.628582 
L 190.720321 227.376343 
L 191.019267 225.328753 
L 197.297117 225.22489 
L 197.596062 216.173947 
L 225.099026 216.114597 
L 225.696916 216.040409 
L 231.077931 215.951383 
L 233.469493 215.521093 
L 234.067383 215.432067 
L 236.757891 215.061127 
L 238.551562 214.408272 
L 239.747343 214.215383 
L 240.345234 213.888956 
L 241.242069 213.710904 
L 243.334686 213.607041 
L 243.932577 213.562528 
L 244.530467 213.443827 
L 249.313591 212.835485 
L 268.446087 212.835485 
L 268.745033 212.701947 
L 269.043978 212.360682 
L 270.538704 212.286494 
L 271.136595 212.227143 
L 277.71339 212.197468 
L 278.311281 212.049092 
L 278.909171 211.366562 
L 279.507062 211.351724 
L 279.806007 211.158835 
L 280.403898 211.099485 
L 281.898624 210.342767 
L 282.197569 210.13504 
L 282.79546 210.07569 
L 285.485967 209.986664 
L 286.083857 209.778938 
L 286.980693 209.185433 
L 290.269091 207.137843 
L 291.464872 206.78174 
L 299.536394 206.292099 
L 300.134284 205.921159 
L 300.732175 205.327655 
L 301.629011 205.060578 
L 303.123737 204.778663 
L 305.515299 204.763825 
L 305.814244 204.378048 
L 311.494204 204.289022 
L 313.287875 204.081295 
L 313.885766 203.74003 
L 315.081547 203.502629 
L 315.679437 203.502629 
L 315.978383 203.354253 
L 318.369945 203.250389 
L 319.266781 202.834936 
L 320.462562 202.805261 
L 320.761507 202.597534 
L 321.658343 202.493671 
L 322.854124 201.618252 
L 323.452014 201.366013 
L 324.34885 200.579619 
L 324.647795 200.282867 
L 325.245686 199.362935 
L 325.843576 198.828782 
L 327.039357 198.324303 
L 328.235138 198.012713 
L 336.30666 197.715961 
L 336.605605 197.715961 
L 336.90455 197.567585 
L 340.491894 197.463721 
L 341.089784 197.359858 
L 344.677127 197.270832 
L 346.470799 196.899892 
L 346.769744 196.840542 
L 347.66658 196.380576 
L 348.563415 196.202525 
L 351.253923 195.579345 
L 351.851813 195.490319 
L 353.346539 195.371618 
L 358.727554 195.267755 
L 359.026499 195.104541 
L 359.62439 195.015516 
L 360.22228 194.807789 
L 361.717007 194.778114 
L 362.314897 194.288473 
L 363.510678 194.214285 
L 366.799076 194.214285 
L 367.396966 194.051071 
L 369.190638 193.962045 
L 370.386419 193.56143 
L 371.5822 193.457567 
L 373.674817 193.056951 
L 373.973762 192.864062 
L 374.870598 192.715686 
L 375.468488 192.611823 
L 381.148448 192.433772 
L 390.116806 192.344746 
L 391.312587 192.151857 
L 398.487273 192.122182 
L 398.487273 192.122182 
" clip-path="url(#p1e54806789)" style="fill: none; stroke: #1f77b4; stroke-width: 1.5; stroke-linecap: square"/>
   </g>
   <g id="line2d_46">
    <path d="M 73.832727 302.083709 
L 86.388428 301.988406 
L 89.37788 301.604235 
L 90.872607 301.447983 
L 95.356786 301.359655 
L 99.840964 301.273713 
L 100.438855 301.183792 
L 117.478734 301.076364 
L 160.526851 300.23118 
L 161.423687 300.11753 
L 163.815249 299.930655 
L 165.309975 299.823654 
L 168.000482 299.543763 
L 171.28888 299.211557 
L 172.185716 299.042568 
L 173.680442 298.69585 
L 175.175168 298.565742 
L 176.370949 298.498479 
L 177.267785 298.287227 
L 178.463566 298.191191 
L 182.050909 297.677651 
L 191.019267 297.578925 
L 192.513993 297.550654 
L 205.667584 297.329268 
L 206.863365 297.297855 
L 208.955982 297.27716 
L 209.254927 297.126708 
L 215.532777 297.026347 
L 216.429613 296.976971 
L 223.305354 296.869361 
L 243.035741 296.561986 
L 243.334686 296.40731 
L 249.612536 296.309778 
L 250.509372 296.260342 
L 255.292496 296.167097 
L 260.673511 295.90924 
L 262.467182 295.89506 
L 262.766128 295.772029 
L 264.858744 295.6809 
L 266.652416 295.611891 
L 280.702843 295.444859 
L 282.79546 295.405393 
L 283.692295 295.242108 
L 284.290186 295.125928 
L 286.681748 294.570257 
L 287.578584 294.392262 
L 289.372255 294.166603 
L 292.361708 294.02899 
L 298.340613 293.918206 
L 303.422682 293.337147 
L 304.319518 293.203012 
L 305.814244 292.912548 
L 307.607916 292.611997 
L 309.700532 292.182708 
L 309.999478 291.993279 
L 311.195259 291.904579 
L 314.483656 291.383772 
L 324.049905 291.032426 
L 325.843576 291.018843 
L 326.142521 290.898922 
L 329.430919 290.844604 
L 330.6267 290.647618 
L 339.595058 289.934914 
L 341.98662 289.726731 
L 343.481346 289.591782 
L 346.470799 289.435842 
L 353.94443 289.27743 
L 354.243375 289.131976 
L 359.026499 289.023171 
L 359.923335 288.925746 
L 360.22228 288.720731 
L 361.717007 288.619253 
L 373.076926 286.475105 
L 376.066379 286.092929 
L 391.013641 285.845499 
L 395.796765 285.67967 
L 398.487273 285.656151 
L 398.487273 285.656151 
" clip-path="url(#p1e54806789)" style="fill: none; stroke: #ff7f0e; stroke-width: 1.5; stroke-linecap: square"/>
   </g>
   <g id="line2d_47">
    <path d="M 73.832727 302.083709 
L 87.584209 301.98839 
L 88.77999 301.796289 
L 90.573661 301.576659 
L 93.563114 301.450949 
L 95.356786 301.444671 
L 97.748348 301.416805 
L 98.047293 301.156988 
L 98.944129 301.088099 
L 100.7378 300.972771 
L 106.41776 301.018751 
L 106.716705 300.887435 
L 111.200884 300.923735 
L 111.499829 300.768155 
L 117.478734 300.707173 
L 160.526851 300.21047 
L 161.423687 300.028916 
L 162.918413 299.87999 
L 164.114194 299.824739 
L 167.701537 299.51387 
L 168.598373 299.262278 
L 169.495208 299.197102 
L 170.690989 298.978887 
L 172.484661 298.701257 
L 174.876223 298.263368 
L 176.370949 297.989699 
L 177.267785 297.744937 
L 178.164621 297.71712 
L 179.659347 297.430192 
L 180.855128 297.299667 
L 181.154073 297.103034 
L 185.040362 297.060255 
L 191.019267 297.0037 
L 192.513993 296.987528 
L 196.998172 296.929523 
L 197.596062 296.597147 
L 200.28657 296.574266 
L 205.667584 296.534887 
L 206.863365 296.513155 
L 208.955982 296.5094 
L 209.254927 296.361368 
L 215.532777 296.311826 
L 216.429613 296.269711 
L 221.810628 296.225935 
L 223.305354 296.213311 
L 243.035741 296.061921 
L 243.334686 295.909665 
L 249.612536 295.861258 
L 250.509372 295.817837 
L 255.292496 295.757139 
L 271.734485 294.744547 
L 277.71339 294.686409 
L 283.991241 294.439172 
L 286.083857 293.880441 
L 288.176474 293.478423 
L 290.866981 293.230065 
L 298.340613 293.15628 
L 305.515299 292.14222 
L 309.700532 291.394252 
L 309.999478 291.207243 
L 311.195259 291.124273 
L 312.689985 290.762083 
L 314.184711 290.557649 
L 316.875218 290.359695 
L 318.070999 290.247556 
L 319.864671 290.136006 
L 325.843576 290.147544 
L 326.142521 290.029405 
L 329.430919 289.998324 
L 331.224591 289.638787 
L 332.719317 289.552908 
L 335.110879 289.324163 
L 336.007715 289.198093 
L 338.100331 288.826844 
L 340.491894 288.493297 
L 344.976072 288.027073 
L 350.656032 287.900116 
L 351.851813 287.87458 
L 353.94443 287.861162 
L 354.243375 287.717811 
L 358.727554 287.684507 
L 359.923335 287.505595 
L 360.22228 287.289796 
L 361.717007 287.119509 
L 367.994857 285.631642 
L 370.087474 285.138444 
L 370.685364 284.973607 
L 372.777981 284.569913 
L 377.26216 284.00046 
L 391.611532 283.716681 
L 392.209422 283.646076 
L 395.198875 283.646479 
L 398.487273 283.647469 
L 398.487273 283.647469 
" clip-path="url(#p1e54806789)" style="fill: none; stroke: #2ca02c; stroke-width: 1.5; stroke-linecap: square"/>
   </g>
   <g id="patch_9">
    <path d="M 57.6 307.584 
L 57.6 186.624 
" style="fill: none; stroke: #000000; stroke-width: 0.8; stroke-linejoin: miter; stroke-linecap: square"/>
   </g>
   <g id="patch_10">
    <path d="M 414.72 307.584 
L 414.72 186.624 
" style="fill: none; stroke: #000000; stroke-width: 0.8; stroke-linejoin: miter; stroke-linecap: square"/>
   </g>
   <g id="patch_11">
    <path d="M 57.6 307.584 
L 414.72 307.584 
" style="fill: none; stroke: #000000; stroke-width: 0.8; stroke-linejoin: miter; stroke-linecap: square"/>
   </g>
   <g id="patch_12">
    <path d="M 57.6 186.624 
L 414.72 186.624 
" style="fill: none; stroke: #000000; stroke-width: 0.8; stroke-linejoin: miter; stroke-linecap: square"/>
   </g>
  </g>
 </g>
 <defs>
  <clipPath id="p9aef8d97a4">
   <rect x="57.6" y="41.472" width="357.12" height="120.96"/>
  </clipPath>
  <clipPath id="p1e54806789">
   <rect x="57.6" y="186.624" width="357.12" height="120.96"/>
  </clipPath>
 </defs>
</svg>
