<?xml version="1.0" encoding="utf-8" standalone="no"?>
<!DOCTYPE svg PUBLIC "-//W3C//DTD SVG 1.1//EN"
  "http://www.w3.org/Graphics/SVG/1.1/DTD/svg11.dtd">
<svg xmlns:xlink="http://www.w3.org/1999/xlink" width="460.8pt" height="345.6pt" viewBox="0 0 460.8 345.6" xmlns="http://www.w3.org/2000/svg" version="1.1">
 <metadata>
  <rdf:RDF xmlns:dc="http://purl.org/dc/elements/1.1/" xmlns:cc="http://creativecommons.org/ns#" xmlns:rdf="http://www.w3.org/1999/02/22-rdf-syntax-ns#">
   <cc:Work>
    <dc:type rdf:resource="http://purl.org/dc/dcmitype/StillImage"/>
    <dc:date>2021-11-21T14:12:43.255399</dc:date>
    <dc:format>image/svg+xml</dc:format>
    <dc:creator>
     <cc:Agent>
      <dc:title>Matplotlib v3.5.0, https://matplotlib.org/</dc:title>
     </cc:Agent>
    </dc:creator>
   </cc:Work>
  </rdf:RDF>
 </metadata>
 <defs>
  <style type="text/css">*{stroke-linejoin: round; stroke-linecap: butt}</style>
 </defs>
 <g id="figure_1">
  <g id="patch_1">
   <path d="M 0 345.6 
L 460.8 345.6 
L 460.8 0 
L 0 0 
z
" style="fill: #ffffff"/>
  </g>
  <g id="axes_1">
   <g id="patch_2">
    <path d="M 57.6 307.584 
L 414.72 307.584 
L 414.72 41.472 
L 57.6 41.472 
z
" style="fill: #ffffff"/>
   </g>
   <g id="matplotlib.axis_1">
    <g id="xtick_1">
     <g id="line2d_1">
      <path d="M 73.832727 307.584 
L 73.832727 41.472 
" clip-path="url(#p3fd2648644)" style="fill: none; stroke: #b0b0b0; stroke-width: 0.8; stroke-linecap: square"/>
     </g>
     <g id="line2d_2">
      <defs>
       <path id="mabee43fdf0" d="M 0 0 
L 0 3.5 
" style="stroke: #000000; stroke-width: 0.8"/>
      </defs>
      <g>
       <use xlink:href="#mabee43fdf0" x="73.832727" y="307.584" style="stroke: #000000; stroke-width: 0.8"/>
      </g>
     </g>
     <g id="text_1">
      <!-- 0 -->
      <g transform="translate(70.651477 322.182437)scale(0.1 -0.1)">
       <defs>
        <path id="DejaVuSans-30" d="M 2034 4250 
Q 1547 4250 1301 3770 
Q 1056 3291 1056 2328 
Q 1056 1369 1301 889 
Q 1547 409 2034 409 
Q 2525 409 2770 889 
Q 3016 1369 3016 2328 
Q 3016 3291 2770 3770 
Q 2525 4250 2034 4250 
z
M 2034 4750 
Q 2819 4750 3233 4129 
Q 3647 3509 3647 2328 
Q 3647 1150 3233 529 
Q 2819 -91 2034 -91 
Q 1250 -91 836 529 
Q 422 1150 422 2328 
Q 422 3509 836 4129 
Q 1250 4750 2034 4750 
z
" transform="scale(0.015625)"/>
       </defs>
       <use xlink:href="#DejaVuSans-30"/>
      </g>
     </g>
    </g>
    <g id="xtick_2">
     <g id="line2d_3">
      <path d="M 138.828632 307.584 
L 138.828632 41.472 
" clip-path="url(#p3fd2648644)" style="fill: none; stroke: #b0b0b0; stroke-width: 0.8; stroke-linecap: square"/>
     </g>
     <g id="line2d_4">
      <g>
       <use xlink:href="#mabee43fdf0" x="138.828632" y="307.584" style="stroke: #000000; stroke-width: 0.8"/>
      </g>
     </g>
     <g id="text_2">
      <!-- 200 -->
      <g transform="translate(129.284882 322.182437)scale(0.1 -0.1)">
       <defs>
        <path id="DejaVuSans-32" d="M 1228 531 
L 3431 531 
L 3431 0 
L 469 0 
L 469 531 
Q 828 903 1448 1529 
Q 2069 2156 2228 2338 
Q 2531 2678 2651 2914 
Q 2772 3150 2772 3378 
Q 2772 3750 2511 3984 
Q 2250 4219 1831 4219 
Q 1534 4219 1204 4116 
Q 875 4013 500 3803 
L 500 4441 
Q 881 4594 1212 4672 
Q 1544 4750 1819 4750 
Q 2544 4750 2975 4387 
Q 3406 4025 3406 3419 
Q 3406 3131 3298 2873 
Q 3191 2616 2906 2266 
Q 2828 2175 2409 1742 
Q 1991 1309 1228 531 
z
" transform="scale(0.015625)"/>
       </defs>
       <use xlink:href="#DejaVuSans-32"/>
       <use xlink:href="#DejaVuSans-30" x="63.623047"/>
       <use xlink:href="#DejaVuSans-30" x="127.246094"/>
      </g>
     </g>
    </g>
    <g id="xtick_3">
     <g id="line2d_5">
      <path d="M 203.824537 307.584 
L 203.824537 41.472 
" clip-path="url(#p3fd2648644)" style="fill: none; stroke: #b0b0b0; stroke-width: 0.8; stroke-linecap: square"/>
     </g>
     <g id="line2d_6">
      <g>
       <use xlink:href="#mabee43fdf0" x="203.824537" y="307.584" style="stroke: #000000; stroke-width: 0.8"/>
      </g>
     </g>
     <g id="text_3">
      <!-- 400 -->
      <g transform="translate(194.280787 322.182437)scale(0.1 -0.1)">
       <defs>
        <path id="DejaVuSans-34" d="M 2419 4116 
L 825 1625 
L 2419 1625 
L 2419 4116 
z
M 2253 4666 
L 3047 4666 
L 3047 1625 
L 3713 1625 
L 3713 1100 
L 3047 1100 
L 3047 0 
L 2419 0 
L 2419 1100 
L 313 1100 
L 313 1709 
L 2253 4666 
z
" transform="scale(0.015625)"/>
       </defs>
       <use xlink:href="#DejaVuSans-34"/>
       <use xlink:href="#DejaVuSans-30" x="63.623047"/>
       <use xlink:href="#DejaVuSans-30" x="127.246094"/>
      </g>
     </g>
    </g>
    <g id="xtick_4">
     <g id="line2d_7">
      <path d="M 268.820442 307.584 
L 268.820442 41.472 
" clip-path="url(#p3fd2648644)" style="fill: none; stroke: #b0b0b0; stroke-width: 0.8; stroke-linecap: square"/>
     </g>
     <g id="line2d_8">
      <g>
       <use xlink:href="#mabee43fdf0" x="268.820442" y="307.584" style="stroke: #000000; stroke-width: 0.8"/>
      </g>
     </g>
     <g id="text_4">
      <!-- 600 -->
      <g transform="translate(259.276692 322.182437)scale(0.1 -0.1)">
       <defs>
        <path id="DejaVuSans-36" d="M 2113 2584 
Q 1688 2584 1439 2293 
Q 1191 2003 1191 1497 
Q 1191 994 1439 701 
Q 1688 409 2113 409 
Q 2538 409 2786 701 
Q 3034 994 3034 1497 
Q 3034 2003 2786 2293 
Q 2538 2584 2113 2584 
z
M 3366 4563 
L 3366 3988 
Q 3128 4100 2886 4159 
Q 2644 4219 2406 4219 
Q 1781 4219 1451 3797 
Q 1122 3375 1075 2522 
Q 1259 2794 1537 2939 
Q 1816 3084 2150 3084 
Q 2853 3084 3261 2657 
Q 3669 2231 3669 1497 
Q 3669 778 3244 343 
Q 2819 -91 2113 -91 
Q 1303 -91 875 529 
Q 447 1150 447 2328 
Q 447 3434 972 4092 
Q 1497 4750 2381 4750 
Q 2619 4750 2861 4703 
Q 3103 4656 3366 4563 
z
" transform="scale(0.015625)"/>
       </defs>
       <use xlink:href="#DejaVuSans-36"/>
       <use xlink:href="#DejaVuSans-30" x="63.623047"/>
       <use xlink:href="#DejaVuSans-30" x="127.246094"/>
      </g>
     </g>
    </g>
    <g id="xtick_5">
     <g id="line2d_9">
      <path d="M 333.816347 307.584 
L 333.816347 41.472 
" clip-path="url(#p3fd2648644)" style="fill: none; stroke: #b0b0b0; stroke-width: 0.8; stroke-linecap: square"/>
     </g>
     <g id="line2d_10">
      <g>
       <use xlink:href="#mabee43fdf0" x="333.816347" y="307.584" style="stroke: #000000; stroke-width: 0.8"/>
      </g>
     </g>
     <g id="text_5">
      <!-- 800 -->
      <g transform="translate(324.272597 322.182437)scale(0.1 -0.1)">
       <defs>
        <path id="DejaVuSans-38" d="M 2034 2216 
Q 1584 2216 1326 1975 
Q 1069 1734 1069 1313 
Q 1069 891 1326 650 
Q 1584 409 2034 409 
Q 2484 409 2743 651 
Q 3003 894 3003 1313 
Q 3003 1734 2745 1975 
Q 2488 2216 2034 2216 
z
M 1403 2484 
Q 997 2584 770 2862 
Q 544 3141 544 3541 
Q 544 4100 942 4425 
Q 1341 4750 2034 4750 
Q 2731 4750 3128 4425 
Q 3525 4100 3525 3541 
Q 3525 3141 3298 2862 
Q 3072 2584 2669 2484 
Q 3125 2378 3379 2068 
Q 3634 1759 3634 1313 
Q 3634 634 3220 271 
Q 2806 -91 2034 -91 
Q 1263 -91 848 271 
Q 434 634 434 1313 
Q 434 1759 690 2068 
Q 947 2378 1403 2484 
z
M 1172 3481 
Q 1172 3119 1398 2916 
Q 1625 2713 2034 2713 
Q 2441 2713 2670 2916 
Q 2900 3119 2900 3481 
Q 2900 3844 2670 4047 
Q 2441 4250 2034 4250 
Q 1625 4250 1398 4047 
Q 1172 3844 1172 3481 
z
" transform="scale(0.015625)"/>
       </defs>
       <use xlink:href="#DejaVuSans-38"/>
       <use xlink:href="#DejaVuSans-30" x="63.623047"/>
       <use xlink:href="#DejaVuSans-30" x="127.246094"/>
      </g>
     </g>
    </g>
    <g id="xtick_6">
     <g id="line2d_11">
      <path d="M 398.812252 307.584 
L 398.812252 41.472 
" clip-path="url(#p3fd2648644)" style="fill: none; stroke: #b0b0b0; stroke-width: 0.8; stroke-linecap: square"/>
     </g>
     <g id="line2d_12">
      <g>
       <use xlink:href="#mabee43fdf0" x="398.812252" y="307.584" style="stroke: #000000; stroke-width: 0.8"/>
      </g>
     </g>
     <g id="text_6">
      <!-- 1000 -->
      <g transform="translate(386.087252 322.182437)scale(0.1 -0.1)">
       <defs>
        <path id="DejaVuSans-31" d="M 794 531 
L 1825 531 
L 1825 4091 
L 703 3866 
L 703 4441 
L 1819 4666 
L 2450 4666 
L 2450 531 
L 3481 531 
L 3481 0 
L 794 0 
L 794 531 
z
" transform="scale(0.015625)"/>
       </defs>
       <use xlink:href="#DejaVuSans-31"/>
       <use xlink:href="#DejaVuSans-30" x="63.623047"/>
       <use xlink:href="#DejaVuSans-30" x="127.246094"/>
       <use xlink:href="#DejaVuSans-30" x="190.869141"/>
      </g>
     </g>
    </g>
    <g id="text_7">
     <!-- Time [s] -->
     <g transform="translate(215.831094 335.860562)scale(0.1 -0.1)">
      <defs>
       <path id="DejaVuSans-54" d="M -19 4666 
L 3928 4666 
L 3928 4134 
L 2272 4134 
L 2272 0 
L 1638 0 
L 1638 4134 
L -19 4134 
L -19 4666 
z
" transform="scale(0.015625)"/>
       <path id="DejaVuSans-69" d="M 603 3500 
L 1178 3500 
L 1178 0 
L 603 0 
L 603 3500 
z
M 603 4863 
L 1178 4863 
L 1178 4134 
L 603 4134 
L 603 4863 
z
" transform="scale(0.015625)"/>
       <path id="DejaVuSans-6d" d="M 3328 2828 
Q 3544 3216 3844 3400 
Q 4144 3584 4550 3584 
Q 5097 3584 5394 3201 
Q 5691 2819 5691 2113 
L 5691 0 
L 5113 0 
L 5113 2094 
Q 5113 2597 4934 2840 
Q 4756 3084 4391 3084 
Q 3944 3084 3684 2787 
Q 3425 2491 3425 1978 
L 3425 0 
L 2847 0 
L 2847 2094 
Q 2847 2600 2669 2842 
Q 2491 3084 2119 3084 
Q 1678 3084 1418 2786 
Q 1159 2488 1159 1978 
L 1159 0 
L 581 0 
L 581 3500 
L 1159 3500 
L 1159 2956 
Q 1356 3278 1631 3431 
Q 1906 3584 2284 3584 
Q 2666 3584 2933 3390 
Q 3200 3197 3328 2828 
z
" transform="scale(0.015625)"/>
       <path id="DejaVuSans-65" d="M 3597 1894 
L 3597 1613 
L 953 1613 
Q 991 1019 1311 708 
Q 1631 397 2203 397 
Q 2534 397 2845 478 
Q 3156 559 3463 722 
L 3463 178 
Q 3153 47 2828 -22 
Q 2503 -91 2169 -91 
Q 1331 -91 842 396 
Q 353 884 353 1716 
Q 353 2575 817 3079 
Q 1281 3584 2069 3584 
Q 2775 3584 3186 3129 
Q 3597 2675 3597 1894 
z
M 3022 2063 
Q 3016 2534 2758 2815 
Q 2500 3097 2075 3097 
Q 1594 3097 1305 2825 
Q 1016 2553 972 2059 
L 3022 2063 
z
" transform="scale(0.015625)"/>
       <path id="DejaVuSans-20" transform="scale(0.015625)"/>
       <path id="DejaVuSans-5b" d="M 550 4863 
L 1875 4863 
L 1875 4416 
L 1125 4416 
L 1125 -397 
L 1875 -397 
L 1875 -844 
L 550 -844 
L 550 4863 
z
" transform="scale(0.015625)"/>
       <path id="DejaVuSans-73" d="M 2834 3397 
L 2834 2853 
Q 2591 2978 2328 3040 
Q 2066 3103 1784 3103 
Q 1356 3103 1142 2972 
Q 928 2841 928 2578 
Q 928 2378 1081 2264 
Q 1234 2150 1697 2047 
L 1894 2003 
Q 2506 1872 2764 1633 
Q 3022 1394 3022 966 
Q 3022 478 2636 193 
Q 2250 -91 1575 -91 
Q 1294 -91 989 -36 
Q 684 19 347 128 
L 347 722 
Q 666 556 975 473 
Q 1284 391 1588 391 
Q 1994 391 2212 530 
Q 2431 669 2431 922 
Q 2431 1156 2273 1281 
Q 2116 1406 1581 1522 
L 1381 1569 
Q 847 1681 609 1914 
Q 372 2147 372 2553 
Q 372 3047 722 3315 
Q 1072 3584 1716 3584 
Q 2034 3584 2315 3537 
Q 2597 3491 2834 3397 
z
" transform="scale(0.015625)"/>
       <path id="DejaVuSans-5d" d="M 1947 4863 
L 1947 -844 
L 622 -844 
L 622 -397 
L 1369 -397 
L 1369 4416 
L 622 4416 
L 622 4863 
L 1947 4863 
z
" transform="scale(0.015625)"/>
      </defs>
      <use xlink:href="#DejaVuSans-54"/>
      <use xlink:href="#DejaVuSans-69" x="57.958984"/>
      <use xlink:href="#DejaVuSans-6d" x="85.742188"/>
      <use xlink:href="#DejaVuSans-65" x="183.154297"/>
      <use xlink:href="#DejaVuSans-20" x="244.677734"/>
      <use xlink:href="#DejaVuSans-5b" x="276.464844"/>
      <use xlink:href="#DejaVuSans-73" x="315.478516"/>
      <use xlink:href="#DejaVuSans-5d" x="367.578125"/>
     </g>
    </g>
   </g>
   <g id="matplotlib.axis_2">
    <g id="ytick_1">
     <g id="line2d_13">
      <path d="M 57.6 285.408 
L 414.72 285.408 
" clip-path="url(#p3fd2648644)" style="fill: none; stroke: #b0b0b0; stroke-width: 0.8; stroke-linecap: square"/>
     </g>
     <g id="line2d_14">
      <defs>
       <path id="m440dd23c0c" d="M 0 0 
L -3.5 0 
" style="stroke: #000000; stroke-width: 0.8"/>
      </defs>
      <g>
       <use xlink:href="#m440dd23c0c" x="57.6" y="285.408" style="stroke: #000000; stroke-width: 0.8"/>
      </g>
     </g>
     <g id="text_8">
      <!-- −1.0 -->
      <g transform="translate(26.317187 289.207219)scale(0.1 -0.1)">
       <defs>
        <path id="DejaVuSans-2212" d="M 678 2272 
L 4684 2272 
L 4684 1741 
L 678 1741 
L 678 2272 
z
" transform="scale(0.015625)"/>
        <path id="DejaVuSans-2e" d="M 684 794 
L 1344 794 
L 1344 0 
L 684 0 
L 684 794 
z
" transform="scale(0.015625)"/>
       </defs>
       <use xlink:href="#DejaVuSans-2212"/>
       <use xlink:href="#DejaVuSans-31" x="83.789062"/>
       <use xlink:href="#DejaVuSans-2e" x="147.412109"/>
       <use xlink:href="#DejaVuSans-30" x="179.199219"/>
      </g>
     </g>
    </g>
    <g id="ytick_2">
     <g id="line2d_15">
      <path d="M 57.6 229.968 
L 414.72 229.968 
" clip-path="url(#p3fd2648644)" style="fill: none; stroke: #b0b0b0; stroke-width: 0.8; stroke-linecap: square"/>
     </g>
     <g id="line2d_16">
      <g>
       <use xlink:href="#m440dd23c0c" x="57.6" y="229.968" style="stroke: #000000; stroke-width: 0.8"/>
      </g>
     </g>
     <g id="text_9">
      <!-- −0.5 -->
      <g transform="translate(26.317187 233.767219)scale(0.1 -0.1)">
       <defs>
        <path id="DejaVuSans-35" d="M 691 4666 
L 3169 4666 
L 3169 4134 
L 1269 4134 
L 1269 2991 
Q 1406 3038 1543 3061 
Q 1681 3084 1819 3084 
Q 2600 3084 3056 2656 
Q 3513 2228 3513 1497 
Q 3513 744 3044 326 
Q 2575 -91 1722 -91 
Q 1428 -91 1123 -41 
Q 819 9 494 109 
L 494 744 
Q 775 591 1075 516 
Q 1375 441 1709 441 
Q 2250 441 2565 725 
Q 2881 1009 2881 1497 
Q 2881 1984 2565 2268 
Q 2250 2553 1709 2553 
Q 1456 2553 1204 2497 
Q 953 2441 691 2322 
L 691 4666 
z
" transform="scale(0.015625)"/>
       </defs>
       <use xlink:href="#DejaVuSans-2212"/>
       <use xlink:href="#DejaVuSans-30" x="83.789062"/>
       <use xlink:href="#DejaVuSans-2e" x="147.412109"/>
       <use xlink:href="#DejaVuSans-35" x="179.199219"/>
      </g>
     </g>
    </g>
    <g id="ytick_3">
     <g id="line2d_17">
      <path d="M 57.6 174.528 
L 414.72 174.528 
" clip-path="url(#p3fd2648644)" style="fill: none; stroke: #b0b0b0; stroke-width: 0.8; stroke-linecap: square"/>
     </g>
     <g id="line2d_18">
      <g>
       <use xlink:href="#m440dd23c0c" x="57.6" y="174.528" style="stroke: #000000; stroke-width: 0.8"/>
      </g>
     </g>
     <g id="text_10">
      <!-- 0.0 -->
      <g transform="translate(34.696875 178.327219)scale(0.1 -0.1)">
       <use xlink:href="#DejaVuSans-30"/>
       <use xlink:href="#DejaVuSans-2e" x="63.623047"/>
       <use xlink:href="#DejaVuSans-30" x="95.410156"/>
      </g>
     </g>
    </g>
    <g id="ytick_4">
     <g id="line2d_19">
      <path d="M 57.6 119.088 
L 414.72 119.088 
" clip-path="url(#p3fd2648644)" style="fill: none; stroke: #b0b0b0; stroke-width: 0.8; stroke-linecap: square"/>
     </g>
     <g id="line2d_20">
      <g>
       <use xlink:href="#m440dd23c0c" x="57.6" y="119.088" style="stroke: #000000; stroke-width: 0.8"/>
      </g>
     </g>
     <g id="text_11">
      <!-- 0.5 -->
      <g transform="translate(34.696875 122.887219)scale(0.1 -0.1)">
       <use xlink:href="#DejaVuSans-30"/>
       <use xlink:href="#DejaVuSans-2e" x="63.623047"/>
       <use xlink:href="#DejaVuSans-35" x="95.410156"/>
      </g>
     </g>
    </g>
    <g id="ytick_5">
     <g id="line2d_21">
      <path d="M 57.6 63.648 
L 414.72 63.648 
" clip-path="url(#p3fd2648644)" style="fill: none; stroke: #b0b0b0; stroke-width: 0.8; stroke-linecap: square"/>
     </g>
     <g id="line2d_22">
      <g>
       <use xlink:href="#m440dd23c0c" x="57.6" y="63.648" style="stroke: #000000; stroke-width: 0.8"/>
      </g>
     </g>
     <g id="text_12">
      <!-- 1.0 -->
      <g transform="translate(34.696875 67.447219)scale(0.1 -0.1)">
       <use xlink:href="#DejaVuSans-31"/>
       <use xlink:href="#DejaVuSans-2e" x="63.623047"/>
       <use xlink:href="#DejaVuSans-30" x="95.410156"/>
      </g>
     </g>
    </g>
    <g id="text_13">
     <!-- Altitude variation from reference point [m] -->
     <g transform="translate(20.2375 281.147531)rotate(-90)scale(0.1 -0.1)">
      <defs>
       <path id="DejaVuSans-41" d="M 2188 4044 
L 1331 1722 
L 3047 1722 
L 2188 4044 
z
M 1831 4666 
L 2547 4666 
L 4325 0 
L 3669 0 
L 3244 1197 
L 1141 1197 
L 716 0 
L 50 0 
L 1831 4666 
z
" transform="scale(0.015625)"/>
       <path id="DejaVuSans-6c" d="M 603 4863 
L 1178 4863 
L 1178 0 
L 603 0 
L 603 4863 
z
" transform="scale(0.015625)"/>
       <path id="DejaVuSans-74" d="M 1172 4494 
L 1172 3500 
L 2356 3500 
L 2356 3053 
L 1172 3053 
L 1172 1153 
Q 1172 725 1289 603 
Q 1406 481 1766 481 
L 2356 481 
L 2356 0 
L 1766 0 
Q 1100 0 847 248 
Q 594 497 594 1153 
L 594 3053 
L 172 3053 
L 172 3500 
L 594 3500 
L 594 4494 
L 1172 4494 
z
" transform="scale(0.015625)"/>
       <path id="DejaVuSans-75" d="M 544 1381 
L 544 3500 
L 1119 3500 
L 1119 1403 
Q 1119 906 1312 657 
Q 1506 409 1894 409 
Q 2359 409 2629 706 
Q 2900 1003 2900 1516 
L 2900 3500 
L 3475 3500 
L 3475 0 
L 2900 0 
L 2900 538 
Q 2691 219 2414 64 
Q 2138 -91 1772 -91 
Q 1169 -91 856 284 
Q 544 659 544 1381 
z
M 1991 3584 
L 1991 3584 
z
" transform="scale(0.015625)"/>
       <path id="DejaVuSans-64" d="M 2906 2969 
L 2906 4863 
L 3481 4863 
L 3481 0 
L 2906 0 
L 2906 525 
Q 2725 213 2448 61 
Q 2172 -91 1784 -91 
Q 1150 -91 751 415 
Q 353 922 353 1747 
Q 353 2572 751 3078 
Q 1150 3584 1784 3584 
Q 2172 3584 2448 3432 
Q 2725 3281 2906 2969 
z
M 947 1747 
Q 947 1113 1208 752 
Q 1469 391 1925 391 
Q 2381 391 2643 752 
Q 2906 1113 2906 1747 
Q 2906 2381 2643 2742 
Q 2381 3103 1925 3103 
Q 1469 3103 1208 2742 
Q 947 2381 947 1747 
z
" transform="scale(0.015625)"/>
       <path id="DejaVuSans-76" d="M 191 3500 
L 800 3500 
L 1894 563 
L 2988 3500 
L 3597 3500 
L 2284 0 
L 1503 0 
L 191 3500 
z
" transform="scale(0.015625)"/>
       <path id="DejaVuSans-61" d="M 2194 1759 
Q 1497 1759 1228 1600 
Q 959 1441 959 1056 
Q 959 750 1161 570 
Q 1363 391 1709 391 
Q 2188 391 2477 730 
Q 2766 1069 2766 1631 
L 2766 1759 
L 2194 1759 
z
M 3341 1997 
L 3341 0 
L 2766 0 
L 2766 531 
Q 2569 213 2275 61 
Q 1981 -91 1556 -91 
Q 1019 -91 701 211 
Q 384 513 384 1019 
Q 384 1609 779 1909 
Q 1175 2209 1959 2209 
L 2766 2209 
L 2766 2266 
Q 2766 2663 2505 2880 
Q 2244 3097 1772 3097 
Q 1472 3097 1187 3025 
Q 903 2953 641 2809 
L 641 3341 
Q 956 3463 1253 3523 
Q 1550 3584 1831 3584 
Q 2591 3584 2966 3190 
Q 3341 2797 3341 1997 
z
" transform="scale(0.015625)"/>
       <path id="DejaVuSans-72" d="M 2631 2963 
Q 2534 3019 2420 3045 
Q 2306 3072 2169 3072 
Q 1681 3072 1420 2755 
Q 1159 2438 1159 1844 
L 1159 0 
L 581 0 
L 581 3500 
L 1159 3500 
L 1159 2956 
Q 1341 3275 1631 3429 
Q 1922 3584 2338 3584 
Q 2397 3584 2469 3576 
Q 2541 3569 2628 3553 
L 2631 2963 
z
" transform="scale(0.015625)"/>
       <path id="DejaVuSans-6f" d="M 1959 3097 
Q 1497 3097 1228 2736 
Q 959 2375 959 1747 
Q 959 1119 1226 758 
Q 1494 397 1959 397 
Q 2419 397 2687 759 
Q 2956 1122 2956 1747 
Q 2956 2369 2687 2733 
Q 2419 3097 1959 3097 
z
M 1959 3584 
Q 2709 3584 3137 3096 
Q 3566 2609 3566 1747 
Q 3566 888 3137 398 
Q 2709 -91 1959 -91 
Q 1206 -91 779 398 
Q 353 888 353 1747 
Q 353 2609 779 3096 
Q 1206 3584 1959 3584 
z
" transform="scale(0.015625)"/>
       <path id="DejaVuSans-6e" d="M 3513 2113 
L 3513 0 
L 2938 0 
L 2938 2094 
Q 2938 2591 2744 2837 
Q 2550 3084 2163 3084 
Q 1697 3084 1428 2787 
Q 1159 2491 1159 1978 
L 1159 0 
L 581 0 
L 581 3500 
L 1159 3500 
L 1159 2956 
Q 1366 3272 1645 3428 
Q 1925 3584 2291 3584 
Q 2894 3584 3203 3211 
Q 3513 2838 3513 2113 
z
" transform="scale(0.015625)"/>
       <path id="DejaVuSans-66" d="M 2375 4863 
L 2375 4384 
L 1825 4384 
Q 1516 4384 1395 4259 
Q 1275 4134 1275 3809 
L 1275 3500 
L 2222 3500 
L 2222 3053 
L 1275 3053 
L 1275 0 
L 697 0 
L 697 3053 
L 147 3053 
L 147 3500 
L 697 3500 
L 697 3744 
Q 697 4328 969 4595 
Q 1241 4863 1831 4863 
L 2375 4863 
z
" transform="scale(0.015625)"/>
       <path id="DejaVuSans-63" d="M 3122 3366 
L 3122 2828 
Q 2878 2963 2633 3030 
Q 2388 3097 2138 3097 
Q 1578 3097 1268 2742 
Q 959 2388 959 1747 
Q 959 1106 1268 751 
Q 1578 397 2138 397 
Q 2388 397 2633 464 
Q 2878 531 3122 666 
L 3122 134 
Q 2881 22 2623 -34 
Q 2366 -91 2075 -91 
Q 1284 -91 818 406 
Q 353 903 353 1747 
Q 353 2603 823 3093 
Q 1294 3584 2113 3584 
Q 2378 3584 2631 3529 
Q 2884 3475 3122 3366 
z
" transform="scale(0.015625)"/>
       <path id="DejaVuSans-70" d="M 1159 525 
L 1159 -1331 
L 581 -1331 
L 581 3500 
L 1159 3500 
L 1159 2969 
Q 1341 3281 1617 3432 
Q 1894 3584 2278 3584 
Q 2916 3584 3314 3078 
Q 3713 2572 3713 1747 
Q 3713 922 3314 415 
Q 2916 -91 2278 -91 
Q 1894 -91 1617 61 
Q 1341 213 1159 525 
z
M 3116 1747 
Q 3116 2381 2855 2742 
Q 2594 3103 2138 3103 
Q 1681 3103 1420 2742 
Q 1159 2381 1159 1747 
Q 1159 1113 1420 752 
Q 1681 391 2138 391 
Q 2594 391 2855 752 
Q 3116 1113 3116 1747 
z
" transform="scale(0.015625)"/>
      </defs>
      <use xlink:href="#DejaVuSans-41"/>
      <use xlink:href="#DejaVuSans-6c" x="68.408203"/>
      <use xlink:href="#DejaVuSans-74" x="96.191406"/>
      <use xlink:href="#DejaVuSans-69" x="135.400391"/>
      <use xlink:href="#DejaVuSans-74" x="163.183594"/>
      <use xlink:href="#DejaVuSans-75" x="202.392578"/>
      <use xlink:href="#DejaVuSans-64" x="265.771484"/>
      <use xlink:href="#DejaVuSans-65" x="329.248047"/>
      <use xlink:href="#DejaVuSans-20" x="390.771484"/>
      <use xlink:href="#DejaVuSans-76" x="422.558594"/>
      <use xlink:href="#DejaVuSans-61" x="481.738281"/>
      <use xlink:href="#DejaVuSans-72" x="543.017578"/>
      <use xlink:href="#DejaVuSans-69" x="584.130859"/>
      <use xlink:href="#DejaVuSans-61" x="611.914062"/>
      <use xlink:href="#DejaVuSans-74" x="673.193359"/>
      <use xlink:href="#DejaVuSans-69" x="712.402344"/>
      <use xlink:href="#DejaVuSans-6f" x="740.185547"/>
      <use xlink:href="#DejaVuSans-6e" x="801.367188"/>
      <use xlink:href="#DejaVuSans-20" x="864.746094"/>
      <use xlink:href="#DejaVuSans-66" x="896.533203"/>
      <use xlink:href="#DejaVuSans-72" x="931.738281"/>
      <use xlink:href="#DejaVuSans-6f" x="970.601562"/>
      <use xlink:href="#DejaVuSans-6d" x="1031.783203"/>
      <use xlink:href="#DejaVuSans-20" x="1129.195312"/>
      <use xlink:href="#DejaVuSans-72" x="1160.982422"/>
      <use xlink:href="#DejaVuSans-65" x="1199.845703"/>
      <use xlink:href="#DejaVuSans-66" x="1261.369141"/>
      <use xlink:href="#DejaVuSans-65" x="1296.574219"/>
      <use xlink:href="#DejaVuSans-72" x="1358.097656"/>
      <use xlink:href="#DejaVuSans-65" x="1396.960938"/>
      <use xlink:href="#DejaVuSans-6e" x="1458.484375"/>
      <use xlink:href="#DejaVuSans-63" x="1521.863281"/>
      <use xlink:href="#DejaVuSans-65" x="1576.84375"/>
      <use xlink:href="#DejaVuSans-20" x="1638.367188"/>
      <use xlink:href="#DejaVuSans-70" x="1670.154297"/>
      <use xlink:href="#DejaVuSans-6f" x="1733.630859"/>
      <use xlink:href="#DejaVuSans-69" x="1794.8125"/>
      <use xlink:href="#DejaVuSans-6e" x="1822.595703"/>
      <use xlink:href="#DejaVuSans-74" x="1885.974609"/>
      <use xlink:href="#DejaVuSans-20" x="1925.183594"/>
      <use xlink:href="#DejaVuSans-5b" x="1956.970703"/>
      <use xlink:href="#DejaVuSans-6d" x="1995.984375"/>
      <use xlink:href="#DejaVuSans-5d" x="2093.396484"/>
     </g>
    </g>
   </g>
   <g id="line2d_23">
    <path d="M 73.832727 174.528 
L 74.157707 163.44 
L 74.482686 174.528 
L 74.807666 163.44 
L 75.457625 163.44 
L 75.782604 174.528 
L 76.107584 163.44 
L 76.432563 174.528 
L 76.757543 163.44 
L 77.082523 174.528 
L 77.407502 163.44 
L 77.732482 174.528 
L 78.057461 174.528 
L 78.382441 163.44 
L 78.70742 174.528 
L 79.0324 163.44 
L 79.357379 163.44 
L 79.682359 152.352 
L 80.007338 163.44 
L 80.982277 163.44 
L 81.307256 174.528 
L 82.932154 174.528 
L 83.257133 163.44 
L 83.582113 174.528 
L 84.232072 174.528 
L 84.557052 163.44 
L 85.207011 163.44 
L 85.53199 174.528 
L 85.85697 163.44 
L 86.181949 174.528 
L 86.831908 174.528 
L 87.156888 163.44 
L 87.481867 163.44 
L 87.806847 174.528 
L 90.406683 174.528 
L 90.731663 185.616 
L 91.056642 185.616 
L 91.381622 174.528 
L 92.031581 174.528 
L 92.35656 185.616 
L 92.68154 163.44 
L 93.006519 185.616 
L 93.331499 163.44 
L 93.981458 185.616 
L 94.306437 174.528 
L 94.631417 185.616 
L 94.956396 163.44 
L 95.281376 185.616 
L 95.606355 174.528 
L 95.931335 196.704 
L 96.256314 174.528 
L 96.581294 196.704 
L 96.906274 185.616 
L 97.881212 185.616 
L 98.206192 196.704 
L 98.531171 185.616 
L 98.856151 196.704 
L 99.18113 185.616 
L 99.50611 196.704 
L 99.831089 185.616 
L 100.156069 196.704 
L 100.806028 196.704 
L 101.131007 207.792 
L 101.455987 196.704 
L 103.405864 196.704 
L 103.730844 207.792 
L 104.055823 196.704 
L 104.705782 196.704 
L 105.030762 185.616 
L 105.680721 207.792 
L 106.0057 185.616 
L 106.33068 196.704 
L 106.655659 185.616 
L 107.955577 185.616 
L 108.280557 196.704 
L 109.255495 196.704 
L 109.580475 185.616 
L 109.905455 196.704 
L 110.230434 196.704 
L 110.555414 185.616 
L 110.880393 196.704 
L 111.205373 174.528 
L 111.530352 174.528 
L 111.855332 185.616 
L 112.180311 163.44 
L 112.83027 185.616 
L 113.15525 174.528 
L 113.480229 174.528 
L 113.805209 163.44 
L 114.130188 174.528 
L 114.455168 163.44 
L 115.105127 163.44 
L 115.430106 152.352 
L 115.755086 152.352 
L 116.080066 163.44 
L 117.379984 163.44 
L 117.704963 152.352 
L 119.329861 152.352 
L 119.65484 141.264 
L 119.97982 152.352 
L 120.629779 152.352 
L 120.954758 141.264 
L 121.279738 141.264 
L 121.604717 152.352 
L 121.929697 141.264 
L 122.254676 152.352 
L 122.579656 141.264 
L 122.904636 141.264 
L 123.229615 152.352 
L 123.554595 141.264 
L 124.204554 141.264 
L 124.529533 130.176 
L 124.854513 141.264 
L 125.504472 141.264 
L 125.829451 152.352 
L 126.154431 141.264 
L 127.129369 141.264 
L 127.454349 152.352 
L 127.779328 141.264 
L 128.104308 152.352 
L 128.429287 141.264 
L 131.029124 141.264 
L 131.354103 152.352 
L 131.679083 152.352 
L 132.004062 141.264 
L 132.329042 152.352 
L 133.62896 152.352 
L 133.953939 141.264 
L 134.278919 141.264 
L 134.603898 163.44 
L 134.928878 152.352 
L 135.578837 152.352 
L 135.903817 163.44 
L 136.228796 152.352 
L 137.853694 152.352 
L 138.503653 174.528 
L 138.828632 163.44 
L 139.153612 163.44 
L 139.478591 174.528 
L 139.803571 174.528 
L 140.12855 185.616 
L 140.45353 185.616 
L 140.778509 174.528 
L 141.103489 185.616 
L 141.753448 185.616 
L 142.078428 174.528 
L 142.403407 185.616 
L 142.728387 174.528 
L 143.053366 174.528 
L 143.378346 185.616 
L 143.703325 174.528 
L 144.028305 196.704 
L 144.353284 174.528 
L 144.678264 185.616 
L 145.653202 185.616 
L 145.978182 196.704 
L 146.303161 185.616 
L 146.628141 196.704 
L 147.2781 174.528 
L 147.603079 174.528 
L 147.928059 185.616 
L 148.578018 185.616 
L 148.902998 174.528 
L 149.227977 196.704 
L 149.552957 174.528 
L 149.877936 185.616 
L 150.202916 174.528 
L 150.852875 174.528 
L 151.177854 185.616 
L 151.827813 163.44 
L 152.152793 185.616 
L 152.477772 174.528 
L 153.452711 174.528 
L 153.77769 163.44 
L 154.10267 185.616 
L 154.427649 163.44 
L 154.752629 163.44 
L 155.077609 185.616 
L 155.402588 174.528 
L 155.727568 174.528 
L 156.052547 185.616 
L 156.377527 174.528 
L 156.702506 185.616 
L 157.027486 174.528 
L 157.352465 196.704 
L 157.677445 185.616 
L 158.002424 185.616 
L 158.327404 174.528 
L 158.652383 174.528 
L 159.302342 196.704 
L 159.627322 196.704 
L 159.952301 207.792 
L 160.277281 196.704 
L 160.60226 207.792 
L 161.577199 207.792 
L 161.902179 241.056 
L 162.227158 241.056 
L 162.552138 229.968 
L 162.877117 229.968 
L 163.202097 218.88 
L 163.527076 229.968 
L 163.852056 196.704 
L 164.177035 218.88 
L 164.502015 196.704 
L 164.826994 196.704 
L 165.151974 207.792 
L 165.476953 185.616 
L 165.801933 196.704 
L 166.126912 196.704 
L 166.451892 185.616 
L 166.776871 196.704 
L 167.101851 196.704 
L 167.42683 174.528 
L 167.75181 185.616 
L 168.726749 185.616 
L 169.051728 174.528 
L 170.676626 174.528 
L 171.001605 185.616 
L 171.326585 185.616 
L 171.651564 174.528 
L 171.976544 174.528 
L 172.301523 163.44 
L 172.626503 163.44 
L 172.951482 152.352 
L 173.276462 163.44 
L 173.601441 152.352 
L 173.926421 163.44 
L 174.2514 163.44 
L 174.57638 152.352 
L 174.90136 152.352 
L 175.226339 163.44 
L 175.551319 163.44 
L 175.876298 174.528 
L 176.201278 163.44 
L 176.526257 174.528 
L 176.851237 163.44 
L 177.176216 185.616 
L 177.501196 174.528 
L 178.151155 174.528 
L 178.476134 163.44 
L 178.801114 174.528 
L 179.126093 174.528 
L 179.451073 163.44 
L 179.776052 174.528 
L 180.101032 163.44 
L 180.750991 163.44 
L 181.075971 152.352 
L 181.40095 163.44 
L 183.350827 163.44 
L 183.675807 152.352 
L 184.975725 152.352 
L 185.300704 163.44 
L 185.625684 141.264 
L 186.275643 163.44 
L 186.600622 141.264 
L 186.925602 152.352 
L 187.250581 152.352 
L 187.575561 141.264 
L 187.900541 163.44 
L 188.22552 152.352 
L 188.5505 152.352 
L 189.200459 174.528 
L 189.525438 152.352 
L 189.850418 163.44 
L 190.500377 163.44 
L 190.825356 152.352 
L 191.150336 174.528 
L 191.475315 174.528 
L 191.800295 163.44 
L 192.125274 163.44 
L 192.450254 174.528 
L 192.775233 163.44 
L 194.075152 163.44 
L 194.400131 174.528 
L 194.725111 163.44 
L 195.37507 163.44 
L 195.700049 152.352 
L 197.324947 152.352 
L 197.649926 163.44 
L 198.299885 141.264 
L 198.624865 152.352 
L 198.949844 152.352 
L 199.274824 163.44 
L 199.924783 163.44 
L 200.249762 152.352 
L 200.574742 174.528 
L 200.899722 163.44 
L 201.224701 185.616 
L 201.549681 174.528 
L 202.849599 174.528 
L 203.174578 185.616 
L 203.499558 174.528 
L 203.824537 174.528 
L 204.149517 185.616 
L 205.124455 185.616 
L 205.449435 174.528 
L 205.774414 185.616 
L 206.099394 185.616 
L 206.424373 174.528 
L 206.749353 185.616 
L 207.074333 163.44 
L 207.399312 185.616 
L 207.724292 163.44 
L 208.049271 174.528 
L 208.374251 163.44 
L 209.674169 163.44 
L 209.999148 174.528 
L 210.324128 163.44 
L 210.649107 185.616 
L 210.974087 174.528 
L 211.299066 174.528 
L 211.624046 163.44 
L 212.274005 185.616 
L 212.598984 174.528 
L 212.923964 185.616 
L 213.248943 174.528 
L 213.573923 174.528 
L 213.898903 185.616 
L 214.223882 174.528 
L 214.548862 185.616 
L 215.198821 185.616 
L 215.5238 174.528 
L 215.84878 185.616 
L 216.173759 185.616 
L 216.498739 174.528 
L 216.823718 185.616 
L 217.148698 174.528 
L 217.473677 185.616 
L 217.798657 174.528 
L 218.448616 196.704 
L 218.773595 185.616 
L 219.098575 185.616 
L 219.423554 196.704 
L 219.748534 196.704 
L 220.073514 218.88 
L 220.398493 185.616 
L 220.723473 196.704 
L 221.048452 174.528 
L 221.373432 185.616 
L 221.698411 174.528 
L 222.023391 174.528 
L 222.34837 185.616 
L 222.998329 163.44 
L 223.323309 174.528 
L 223.648288 163.44 
L 223.973268 174.528 
L 224.298247 174.528 
L 224.623227 163.44 
L 224.948206 174.528 
L 225.598165 174.528 
L 225.923145 163.44 
L 226.248124 174.528 
L 226.573104 174.528 
L 226.898084 163.44 
L 227.548043 163.44 
L 228.198002 185.616 
L 228.522981 185.616 
L 228.847961 196.704 
L 229.17294 174.528 
L 229.49792 185.616 
L 229.822899 174.528 
L 231.772776 174.528 
L 232.097756 163.44 
L 232.747715 163.44 
L 233.072695 174.528 
L 233.397674 152.352 
L 233.722654 174.528 
L 234.047633 152.352 
L 234.372613 152.352 
L 234.697592 185.616 
L 235.347551 163.44 
L 235.672531 185.616 
L 235.99751 196.704 
L 236.32249 185.616 
L 236.647469 196.704 
L 236.972449 185.616 
L 237.297428 185.616 
L 237.622408 174.528 
L 237.947387 196.704 
L 238.272367 196.704 
L 238.597346 185.616 
L 238.922326 196.704 
L 239.247305 185.616 
L 239.572285 196.704 
L 239.897265 196.704 
L 240.222244 174.528 
L 240.872203 196.704 
L 241.197183 141.264 
L 241.522162 152.352 
L 242.172121 152.352 
L 242.497101 196.704 
L 242.82208 196.704 
L 243.14706 152.352 
L 243.472039 152.352 
L 243.797019 174.528 
L 244.121998 163.44 
L 244.446978 163.44 
L 244.771957 130.176 
L 245.096937 152.352 
L 245.421916 207.792 
L 246.071876 119.088 
L 246.396855 185.616 
L 246.721835 163.44 
L 247.046814 174.528 
L 247.696773 174.528 
L 248.021753 185.616 
L 248.346732 185.616 
L 248.671712 207.792 
L 248.996691 185.616 
L 249.321671 185.616 
L 249.64665 174.528 
L 249.97163 196.704 
L 250.296609 185.616 
L 250.621589 207.792 
L 250.946568 218.88 
L 251.271548 196.704 
L 251.596527 196.704 
L 251.921507 207.792 
L 252.246486 185.616 
L 252.571466 196.704 
L 252.896446 185.616 
L 253.221425 218.88 
L 253.546405 196.704 
L 253.871384 185.616 
L 254.196364 196.704 
L 254.521343 196.704 
L 254.846323 174.528 
L 255.171302 185.616 
L 256.146241 185.616 
L 256.47122 174.528 
L 256.7962 174.528 
L 257.121179 196.704 
L 257.446159 174.528 
L 257.771138 185.616 
L 259.396036 185.616 
L 259.721016 196.704 
L 260.045995 174.528 
L 260.370975 185.616 
L 260.695954 185.616 
L 261.020934 174.528 
L 261.345913 196.704 
L 261.670893 185.616 
L 261.995872 185.616 
L 262.320852 196.704 
L 262.645831 185.616 
L 262.970811 196.704 
L 263.29579 185.616 
L 264.595708 185.616 
L 264.920688 174.528 
L 265.245667 185.616 
L 267.195545 185.616 
L 267.520524 163.44 
L 267.845504 152.352 
L 268.170483 152.352 
L 268.495463 163.44 
L 268.820442 152.352 
L 269.470401 174.528 
L 269.795381 152.352 
L 270.12036 163.44 
L 270.770319 163.44 
L 271.095299 174.528 
L 271.420278 163.44 
L 271.745258 174.528 
L 272.720197 174.528 
L 273.045176 185.616 
L 273.695135 163.44 
L 274.020115 174.528 
L 274.345094 174.528 
L 274.670074 163.44 
L 274.995053 174.528 
L 275.320033 163.44 
L 275.645012 174.528 
L 275.969992 163.44 
L 276.294971 174.528 
L 276.619951 163.44 
L 277.26991 163.44 
L 277.594889 174.528 
L 278.244848 152.352 
L 278.569828 174.528 
L 278.894808 163.44 
L 279.869746 163.44 
L 280.194726 152.352 
L 280.844685 152.352 
L 281.169664 174.528 
L 281.494644 174.528 
L 281.819623 196.704 
L 282.144603 163.44 
L 282.469582 185.616 
L 282.794562 185.616 
L 283.119541 163.44 
L 283.444521 185.616 
L 283.7695 163.44 
L 284.419459 185.616 
L 284.744439 174.528 
L 285.069419 185.616 
L 285.394398 163.44 
L 285.719378 185.616 
L 286.369337 163.44 
L 286.694316 185.616 
L 287.019296 163.44 
L 287.344275 174.528 
L 288.319214 174.528 
L 288.644193 163.44 
L 289.294152 163.44 
L 289.619132 152.352 
L 290.59407 152.352 
L 290.91905 163.44 
L 291.244029 163.44 
L 291.569009 152.352 
L 292.218968 174.528 
L 292.543948 163.44 
L 293.193907 185.616 
L 293.518886 185.616 
L 293.843866 174.528 
L 294.168845 196.704 
L 294.493825 174.528 
L 294.818804 185.616 
L 295.143784 174.528 
L 295.468763 185.616 
L 296.118722 185.616 
L 296.443702 196.704 
L 296.768681 185.616 
L 297.41864 185.616 
L 297.74362 163.44 
L 298.393579 185.616 
L 298.718559 174.528 
L 299.368518 174.528 
L 299.693497 185.616 
L 300.343456 163.44 
L 300.668436 174.528 
L 300.993415 174.528 
L 301.318395 185.616 
L 301.968354 163.44 
L 302.618313 163.44 
L 302.943292 174.528 
L 303.268272 163.44 
L 304.56819 163.44 
L 304.89317 141.264 
L 305.218149 163.44 
L 305.543129 163.44 
L 305.868108 174.528 
L 306.193088 163.44 
L 306.843047 185.616 
L 307.493006 185.616 
L 307.817985 196.704 
L 308.792924 196.704 
L 309.117903 207.792 
L 309.442883 196.704 
L 310.092842 196.704 
L 310.417821 185.616 
L 311.39276 185.616 
L 311.71774 174.528 
L 313.017658 174.528 
L 313.342637 163.44 
L 313.667617 163.44 
L 313.992596 174.528 
L 314.317576 163.44 
L 314.642555 174.528 
L 314.967535 174.528 
L 315.292514 163.44 
L 315.617494 174.528 
L 315.942473 163.44 
L 316.267453 174.528 
L 316.592432 163.44 
L 317.242391 163.44 
L 317.567371 174.528 
L 317.892351 174.528 
L 318.21733 163.44 
L 318.54231 174.528 
L 318.867289 174.528 
L 319.192269 185.616 
L 319.517248 163.44 
L 319.842228 174.528 
L 320.167207 174.528 
L 320.492187 163.44 
L 320.817166 174.528 
L 321.142146 163.44 
L 321.467125 174.528 
L 321.792105 174.528 
L 322.117084 163.44 
L 322.442064 185.616 
L 322.767043 174.528 
L 323.092023 174.528 
L 323.417002 185.616 
L 323.741982 185.616 
L 324.066962 196.704 
L 324.391941 185.616 
L 324.716921 196.704 
L 325.0419 185.616 
L 326.341818 185.616 
L 326.666798 174.528 
L 327.966716 174.528 
L 328.291695 185.616 
L 328.616675 174.528 
L 329.266634 174.528 
L 329.591613 185.616 
L 329.916593 174.528 
L 330.241572 185.616 
L 330.566552 163.44 
L 330.891532 185.616 
L 331.216511 174.528 
L 332.19145 174.528 
L 332.516429 185.616 
L 332.841409 174.528 
L 333.166388 174.528 
L 333.491368 185.616 
L 333.816347 185.616 
L 334.141327 174.528 
L 334.466306 185.616 
L 335.116265 185.616 
L 335.441245 196.704 
L 335.766224 185.616 
L 336.091204 207.792 
L 336.416183 207.792 
L 337.066143 185.616 
L 337.716102 207.792 
L 338.041081 196.704 
L 338.366061 196.704 
L 338.69104 207.792 
L 339.01602 196.704 
L 339.665979 196.704 
L 339.990958 207.792 
L 340.315938 207.792 
L 340.640917 196.704 
L 342.265815 196.704 
L 342.590794 185.616 
L 344.215692 185.616 
L 344.540672 174.528 
L 344.865651 185.616 
L 345.190631 174.528 
L 345.51561 185.616 
L 345.84059 174.528 
L 346.165569 174.528 
L 346.490549 185.616 
L 346.815528 174.528 
L 347.140508 185.616 
L 347.465487 174.528 
L 348.115446 174.528 
L 348.440426 185.616 
L 348.765405 174.528 
L 349.090385 185.616 
L 349.415364 174.528 
L 350.065324 174.528 
L 350.390303 163.44 
L 350.715283 174.528 
L 351.365242 174.528 
L 351.690221 163.44 
L 352.015201 174.528 
L 352.34018 174.528 
L 352.66516 163.44 
L 352.990139 174.528 
L 354.290057 174.528 
L 354.615037 163.44 
L 355.264996 163.44 
L 355.589975 152.352 
L 356.239934 152.352 
L 356.564914 130.176 
L 356.889894 152.352 
L 357.214873 141.264 
L 357.539853 152.352 
L 357.864832 141.264 
L 358.189812 141.264 
L 358.514791 152.352 
L 359.16475 130.176 
L 359.814709 152.352 
L 360.139689 108 
L 360.464668 96.912 
L 360.789648 130.176 
L 361.114627 63.648 
L 361.439607 174.528 
L 361.764586 130.176 
L 362.089566 163.44 
L 362.414545 163.44 
L 362.739525 130.176 
L 363.064505 163.44 
L 363.714464 185.616 
L 364.039443 152.352 
L 364.364423 174.528 
L 364.689402 185.616 
L 365.014382 185.616 
L 365.339361 174.528 
L 365.664341 185.616 
L 366.3143 163.44 
L 366.639279 108 
L 366.964259 141.264 
L 367.289238 152.352 
L 368.264177 152.352 
L 368.589156 141.264 
L 368.914136 163.44 
L 369.239115 152.352 
L 369.564095 130.176 
L 369.889075 130.176 
L 370.214054 119.088 
L 370.864013 252.144 
L 371.188993 163.44 
L 371.513972 241.056 
L 371.838952 207.792 
L 372.163931 252.144 
L 372.488911 185.616 
L 372.81389 218.88 
L 373.13887 207.792 
L 373.463849 218.88 
L 373.788829 285.408 
L 374.113808 274.32 
L 374.438788 274.32 
L 374.763767 285.408 
L 375.088747 307.584 
L 375.413726 241.056 
L 375.738706 285.408 
L 376.063686 218.88 
L 376.388665 185.616 
L 376.713645 252.144 
L 377.038624 229.968 
L 377.363604 274.32 
L 378.013563 252.144 
L 378.338542 263.232 
L 378.663522 241.056 
L 378.988501 185.616 
L 379.63846 229.968 
L 379.96344 185.616 
L 380.288419 207.792 
L 380.613399 185.616 
L 380.938378 207.792 
L 381.588337 185.616 
L 381.913317 207.792 
L 382.238296 174.528 
L 382.563276 185.616 
L 382.888256 174.528 
L 383.213235 196.704 
L 383.538215 196.704 
L 384.188174 241.056 
L 384.513153 218.88 
L 384.838133 241.056 
L 385.163112 196.704 
L 385.488092 241.056 
L 385.813071 218.88 
L 386.138051 207.792 
L 386.46303 218.88 
L 386.78801 196.704 
L 387.112989 196.704 
L 387.437969 207.792 
L 387.762948 185.616 
L 388.087928 196.704 
L 388.412907 185.616 
L 389.062867 207.792 
L 389.387846 185.616 
L 389.712826 185.616 
L 390.037805 163.44 
L 390.362785 152.352 
L 391.012744 152.352 
L 391.337723 130.176 
L 391.662703 163.44 
L 391.987682 174.528 
L 392.637641 152.352 
L 393.2876 152.352 
L 393.61258 174.528 
L 393.937559 152.352 
L 394.262539 174.528 
L 394.587518 163.44 
L 394.912498 163.44 
L 395.237477 152.352 
L 395.887437 174.528 
L 396.212416 152.352 
L 396.537396 119.088 
L 396.862375 130.176 
L 397.512334 130.176 
L 397.837314 152.352 
L 398.162293 130.176 
L 398.487273 152.352 
L 398.487273 152.352 
" clip-path="url(#p3fd2648644)" style="fill: none; stroke: #1f77b4; stroke-width: 1.5; stroke-linecap: square"/>
   </g>
   <g id="line2d_24">
    <path d="M 73.832727 174.528 
L 74.157707 172.824107 
L 74.482686 165.534745 
L 74.807666 168.259621 
L 75.132645 181.021909 
L 75.457625 175.405837 
L 75.782604 179.876075 
L 76.107584 172.07478 
L 76.432563 169.763819 
L 76.757543 174.057647 
L 77.082523 175.868761 
L 77.407502 170.276639 
L 77.732482 181.514327 
L 78.382441 167.540675 
L 78.70742 171.046368 
L 79.0324 183.820631 
L 79.357379 173.303663 
L 79.682359 178.495619 
L 80.007338 166.480884 
L 80.332318 180.826871 
L 80.657297 171.003901 
L 80.982277 174.390287 
L 81.307256 173.312977 
L 81.632236 175.062109 
L 81.957215 180.443448 
L 82.282195 165.710268 
L 82.607174 182.142684 
L 82.932154 178.284947 
L 83.582113 174.564036 
L 83.907093 170.84124 
L 84.232072 178.053097 
L 84.557052 173.22516 
L 84.882031 172.827877 
L 85.207011 171.849361 
L 85.53199 171.328225 
L 85.85697 169.278719 
L 86.181949 173.447807 
L 86.831908 186.320088 
L 87.156888 174.639767 
L 87.481867 189.691727 
L 87.806847 171.42336 
L 88.131826 176.739169 
L 88.456806 175.703328 
L 89.106765 161.701069 
L 89.431744 175.874305 
L 89.756724 175.474139 
L 90.081704 178.583436 
L 90.406683 169.84332 
L 90.731663 178.534427 
L 91.056642 175.398408 
L 91.381622 178.603727 
L 92.031581 170.339508 
L 92.35656 176.040625 
L 92.68154 179.777281 
L 93.006519 162.662953 
L 93.331499 187.734695 
L 93.656478 185.250096 
L 93.981458 166.808867 
L 94.306437 180.460967 
L 94.631417 166.311792 
L 94.956396 176.765004 
L 95.281376 168.773328 
L 95.606355 168.493356 
L 95.931335 180.236435 
L 96.256314 172.883317 
L 96.581294 174.387515 
L 97.231253 181.307425 
L 97.556233 178.564919 
L 97.881212 172.023997 
L 98.206192 179.248716 
L 98.531171 170.625024 
L 98.856151 176.243868 
L 99.18113 170.061421 
L 99.50611 175.005671 
L 99.831089 188.371368 
L 100.156069 178.86618 
L 100.481048 174.909649 
L 100.806028 165.811945 
L 101.131007 174.998353 
L 101.455987 177.136452 
L 101.780966 171.837275 
L 102.105946 173.30832 
L 102.430925 179.605417 
L 102.755905 179.799457 
L 103.080885 174.276635 
L 103.730844 178.467899 
L 104.055823 171.586908 
L 104.380803 176.719765 
L 104.705782 170.310901 
L 105.030762 171.974988 
L 105.355741 175.000127 
L 105.680721 182.601949 
L 106.0057 182.632441 
L 106.33068 177.169716 
L 106.655659 177.256535 
L 106.980639 174.593641 
L 107.305618 185.316624 
L 107.630598 165.714925 
L 107.955577 173.720461 
L 108.280557 172.758577 
L 108.605536 169.173383 
L 108.930516 162.059544 
L 109.255495 185.259299 
L 109.580475 170.058649 
L 110.230434 188.60976 
L 110.555414 174.102997 
L 110.880393 180.121896 
L 111.205373 178.844004 
L 111.530352 183.087936 
L 111.855332 173.472755 
L 112.505291 178.454039 
L 113.15525 167.006677 
L 113.480229 174.09834 
L 113.805209 174.323759 
L 114.130188 171.38178 
L 114.455168 179.359596 
L 114.780147 174.531659 
L 115.105127 179.425237 
L 115.430106 170.686008 
L 115.755086 166.304363 
L 116.080066 177.692737 
L 116.405045 173.202984 
L 116.730025 172.620864 
L 117.379984 182.196239 
L 117.704963 176.963701 
L 118.029943 174.581555 
L 118.354922 167.912123 
L 118.679902 175.800348 
L 119.004881 171.557303 
L 119.329861 179.675604 
L 119.65484 173.624328 
L 119.97982 179.310587 
L 120.304799 174.151895 
L 120.629779 174.876385 
L 120.954758 174.152893 
L 121.279738 169.984692 
L 121.604717 178.379195 
L 121.929697 165.332389 
L 122.254676 176.512752 
L 122.579656 175.351284 
L 123.229615 189.322164 
L 123.554595 173.130025 
L 123.879574 166.815409 
L 124.204554 182.653619 
L 124.529533 181.605803 
L 124.854513 173.400683 
L 125.179492 171.626603 
L 125.504472 171.996277 
L 125.829451 170.623139 
L 126.154431 175.883508 
L 126.47941 175.042705 
L 126.80439 166.497516 
L 127.129369 168.302975 
L 127.454349 165.153096 
L 128.104308 175.148928 
L 128.429287 174.938256 
L 128.754267 175.116551 
L 129.079247 175.884395 
L 129.404226 178.059528 
L 129.729206 176.577395 
L 130.054185 177.645613 
L 130.379165 187.117537 
L 130.704144 166.049339 
L 131.354103 185.645605 
L 131.679083 183.023293 
L 132.004062 172.98954 
L 132.329042 170.301587 
L 132.654021 181.834105 
L 132.979001 178.101995 
L 133.30398 177.180804 
L 133.62896 170.549293 
L 133.953939 166.6971 
L 134.278919 172.830649 
L 134.603898 183.125857 
L 134.928878 170.283181 
L 135.253857 169.229821 
L 135.578837 169.84332 
L 135.903817 171.622057 
L 136.228796 180.594023 
L 136.553776 178.851433 
L 136.878755 182.096447 
L 137.528714 165.008952 
L 137.853694 173.622443 
L 138.178673 175.422469 
L 138.503653 176.029537 
L 138.828632 173.152201 
L 139.153612 168.669877 
L 139.478591 176.511865 
L 139.803571 164.933221 
L 140.12855 177.047748 
L 140.45353 176.45454 
L 141.103489 166.73868 
L 141.428468 167.254272 
L 141.753448 182.019829 
L 142.078428 184.739161 
L 142.403407 169.921823 
L 142.728387 170.422668 
L 143.053366 168.233675 
L 143.378346 170.069737 
L 143.703325 176.119128 
L 144.353284 167.674729 
L 144.678264 183.3291 
L 145.003243 171.114781 
L 145.328223 178.855092 
L 145.653202 179.207136 
L 145.978182 177.709369 
L 146.303161 171.775404 
L 146.628141 160.969261 
L 146.95312 175.374347 
L 147.2781 153.049657 
L 147.603079 167.221895 
L 147.928059 161.423869 
L 148.253038 178.747871 
L 148.578018 172.039631 
L 148.902998 173.635416 
L 149.227977 177.963395 
L 149.552957 168.529392 
L 150.202916 184.156043 
L 150.527895 158.153796 
L 150.852875 181.029227 
L 151.177854 166.543753 
L 151.502834 174.783911 
L 151.827813 171.5481 
L 152.152793 169.739869 
L 152.477772 178.695203 
L 152.802752 172.315944 
L 153.127731 169.093993 
L 153.452711 175.512947 
L 153.77769 166.50306 
L 154.10267 189.389579 
L 154.427649 171.574933 
L 154.752629 168.975684 
L 155.077609 171.656208 
L 155.402588 176.525725 
L 155.727568 184.960921 
L 156.052547 171.618287 
L 156.702506 186.255445 
L 157.027486 183.862211 
L 157.352465 174.931825 
L 157.677445 181.148423 
L 158.002424 168.816793 
L 158.327404 172.447115 
L 158.652383 180.353857 
L 158.977363 175.537895 
L 159.302342 174.882816 
L 159.627322 172.701252 
L 159.952301 168.125567 
L 160.277281 168.048949 
L 160.60226 177.013597 
L 160.92724 179.659859 
L 161.252219 185.577192 
L 161.577199 172.079437 
L 161.902179 171.917663 
L 162.227158 177.910727 
L 162.552138 170.754421 
L 162.877117 172.389901 
L 163.202097 171.748571 
L 163.527076 175.877077 
L 163.852056 175.767971 
L 164.177035 167.751347 
L 164.502015 176.605115 
L 164.826994 176.716993 
L 165.151974 173.72412 
L 165.476953 174.363565 
L 165.801933 180.632831 
L 166.126912 179.188619 
L 166.451892 171.002016 
L 166.776871 174.22308 
L 167.101851 176.026765 
L 167.42683 180.134869 
L 167.75181 171.643235 
L 168.07679 167.395644 
L 168.401769 167.423364 
L 168.726749 172.501668 
L 169.051728 172.585715 
L 169.376708 177.832224 
L 169.701687 177.306431 
L 170.351646 172.810247 
L 170.676626 174.534431 
L 171.001605 167.486233 
L 171.651564 177.665904 
L 171.976544 167.573939 
L 172.301523 184.975668 
L 172.951482 163.886292 
L 173.276462 174.918852 
L 173.601441 174.030925 
L 173.926421 168.442573 
L 174.2514 171.76986 
L 174.57638 187.565603 
L 174.90136 174.659171 
L 175.226339 181.943987 
L 175.551319 178.654621 
L 175.876298 172.242985 
L 176.526257 178.942909 
L 176.851237 172.5876 
L 177.176216 162.818185 
L 177.501196 171.000131 
L 178.151155 177.774899 
L 178.476134 175.906571 
L 178.801114 182.656391 
L 179.126093 171.227435 
L 179.451073 174.946572 
L 179.776052 171.334656 
L 180.101032 178.521565 
L 180.426011 174.262775 
L 180.750991 182.347812 
L 181.075971 166.707301 
L 181.40095 179.049132 
L 181.72593 184.157041 
L 182.050909 177.628981 
L 182.375889 174.1122 
L 182.700868 184.473049 
L 183.025848 177.927359 
L 183.350827 175.074971 
L 183.675807 173.508791 
L 184.000786 185.264843 
L 184.325766 174.284064 
L 184.650745 172.937759 
L 184.975725 188.536801 
L 185.300704 163.289425 
L 185.625684 166.866192 
L 185.950663 166.820953 
L 186.275643 166.305361 
L 186.925602 184.192079 
L 187.250581 186.049319 
L 187.575561 172.401876 
L 187.900541 165.907967 
L 188.22552 162.635233 
L 188.5505 174.160211 
L 188.875479 176.410188 
L 189.200459 165.737101 
L 189.525438 165.483851 
L 189.850418 166.972415 
L 190.175397 163.598004 
L 190.500377 174.200017 
L 190.825356 174.893017 
L 191.150336 170.247145 
L 191.475315 173.840544 
L 191.800295 166.541868 
L 192.450254 181.56888 
L 192.775233 178.084476 
L 193.100213 189.48294 
L 193.425192 181.172484 
L 193.750172 183.857665 
L 194.075152 170.100229 
L 194.400131 179.868757 
L 194.725111 177.252876 
L 195.05009 188.657771 
L 195.37507 178.531655 
L 195.700049 183.185843 
L 196.025029 173.414543 
L 196.350008 171.24318 
L 196.674988 175.646003 
L 196.999967 173.563344 
L 197.324947 167.017765 
L 197.974906 177.690852 
L 198.299885 180.043393 
L 198.624865 170.837581 
L 198.949844 175.454735 
L 199.274824 174.162983 
L 199.599803 175.356828 
L 199.924783 183.878843 
L 200.249762 167.1822 
L 200.574742 175.677493 
L 200.899722 175.769856 
L 201.224701 170.069737 
L 201.549681 170.032703 
L 201.87466 166.265555 
L 202.19964 169.620673 
L 202.524619 177.711143 
L 202.849599 169.588296 
L 203.174578 182.139025 
L 203.499558 173.089332 
L 203.824537 179.062992 
L 204.149517 172.977565 
L 204.474496 171.226548 
L 204.799476 179.290296 
L 205.124455 183.157236 
L 205.449435 177.899639 
L 205.774414 177.382273 
L 206.099394 171.697788 
L 206.424373 174.263773 
L 206.749353 173.555915 
L 207.074333 188.837951 
L 207.399312 174.079823 
L 207.724292 172.825105 
L 208.049271 172.87866 
L 208.374251 183.182184 
L 209.02421 167.437224 
L 209.349189 175.433557 
L 209.674169 171.206257 
L 209.999148 178.958543 
L 210.324128 167.716309 
L 210.649107 183.100909 
L 211.624046 173.748181 
L 211.949025 165.508799 
L 212.274005 173.159519 
L 212.598984 172.077552 
L 212.923964 172.552451 
L 213.248943 159.954709 
L 213.573923 176.081207 
L 213.898903 177.250991 
L 214.223882 174.055873 
L 214.548862 178.229507 
L 214.873841 174.929053 
L 215.198821 163.638697 
L 215.5238 177.763811 
L 216.173759 177.5079 
L 216.498739 179.113775 
L 216.823718 175.368803 
L 217.148698 178.850435 
L 217.473677 178.67214 
L 217.798657 180.77886 
L 218.448616 169.439495 
L 218.773595 179.602645 
L 219.098575 174.808859 
L 219.423554 156.726216 
L 219.748534 154.661963 
L 220.073514 172.709568 
L 220.398493 175.653432 
L 221.048452 172.422167 
L 221.373432 181.823904 
L 221.698411 166.796005 
L 222.023391 173.076359 
L 222.34837 181.898748 
L 222.67335 180.157045 
L 222.998329 187.3485 
L 223.323309 184.047935 
L 223.648288 176.351089 
L 223.973268 182.630556 
L 224.298247 173.085673 
L 224.623227 173.297232 
L 224.948206 171.334656 
L 225.273186 174.376427 
L 225.598165 178.911419 
L 225.923145 175.281984 
L 226.248124 154.730376 
L 226.573104 157.711163 
L 226.898084 177.721344 
L 227.223063 165.415549 
L 227.548043 176.889744 
L 227.873022 174.783911 
L 228.198002 165.601273 
L 228.522981 171.152591 
L 228.847961 172.025771 
L 229.17294 175.513945 
L 229.49792 169.601269 
L 229.822899 185.498689 
L 230.147879 181.135561 
L 230.472858 173.289803 
L 230.797838 169.629876 
L 231.122817 175.038935 
L 231.447797 177.901524 
L 232.097756 167.948159 
L 232.422735 177.894095 
L 232.747715 179.821633 
L 233.072695 173.618784 
L 233.397674 177.067152 
L 233.722654 184.364941 
L 234.047633 186.035459 
L 234.372613 173.113393 
L 235.022572 177.250104 
L 235.347551 174.455041 
L 235.672531 167.411389 
L 236.32249 183.171096 
L 236.647469 172.286339 
L 236.972449 181.545817 
L 237.297428 173.525423 
L 237.622408 170.395835 
L 237.947387 169.924595 
L 238.272367 170.899452 
L 238.597346 173.0034 
L 238.922326 181.205748 
L 239.247305 180.04428 
L 239.572285 174.310897 
L 239.897265 177.429397 
L 240.222244 171.224663 
L 240.547224 185.057941 
L 240.872203 173.514335 
L 241.197183 174.242484 
L 241.522162 175.441873 
L 241.847142 173.622443 
L 242.172121 180.82044 
L 242.82208 176.238324 
L 243.14706 175.767971 
L 243.472039 178.883699 
L 243.797019 172.424052 
L 244.121998 156.051733 
L 244.446978 173.505132 
L 244.771957 175.904797 
L 245.096937 169.483847 
L 245.421916 172.412964 
L 245.746896 170.625024 
L 246.071876 188.168125 
L 246.396855 178.211988 
L 246.721835 173.604037 
L 247.046814 172.230899 
L 247.371794 174.156552 
L 247.696773 186.214752 
L 248.346732 164.6181 
L 248.671712 182.877264 
L 248.996691 161.604936 
L 249.321671 162.512267 
L 249.64665 175.871533 
L 249.97163 174.782137 
L 250.296609 182.078041 
L 250.946568 160.301209 
L 251.271548 183.866868 
L 251.596527 165.364655 
L 251.921507 182.348699 
L 252.246486 172.7955 
L 252.571466 167.367924 
L 253.221425 170.278524 
L 253.546405 173.679768 
L 253.871384 169.382281 
L 254.196364 167.912123 
L 254.846323 176.476716 
L 255.171302 164.334469 
L 255.496282 169.592953 
L 255.821261 188.717868 
L 256.146241 179.669173 
L 256.47122 175.092601 
L 256.7962 179.110116 
L 257.121179 177.5079 
L 257.446159 168.003599 
L 257.771138 175.017757 
L 258.096118 176.848164 
L 258.421097 169.591955 
L 259.071057 180.368604 
L 259.721016 169.365649 
L 260.045995 179.525029 
L 260.370975 170.774712 
L 260.695954 173.72412 
L 261.020934 173.354557 
L 261.345913 179.053789 
L 261.670893 175.171991 
L 261.995872 169.260313 
L 262.320852 177.249217 
L 262.645831 179.57304 
L 262.970811 173.257537 
L 263.29579 171.116555 
L 263.62077 180.628285 
L 263.945749 166.685125 
L 264.270729 177.540277 
L 264.595708 160.189331 
L 264.920688 176.778864 
L 265.245667 165.961633 
L 265.570647 178.269313 
L 265.895627 184.474823 
L 266.220606 175.801235 
L 266.545586 177.178919 
L 266.870565 177.139224 
L 267.195545 173.655707 
L 267.520524 167.340204 
L 267.845504 171.805896 
L 268.170483 165.704724 
L 268.495463 193.438584 
L 268.820442 189.817465 
L 269.145422 177.54948 
L 269.470401 184.651344 
L 269.795381 175.988844 
L 270.12036 176.947069 
L 270.44534 166.283185 
L 270.770319 180.750253 
L 271.095299 168.196752 
L 271.420278 173.932907 
L 271.745258 177.317519 
L 272.070238 175.774513 
L 272.395217 168.489697 
L 272.720197 180.429588 
L 273.045176 182.152885 
L 273.370156 173.744411 
L 273.695135 176.203175 
L 274.020115 172.718771 
L 274.345094 178.875383 
L 274.670074 169.580867 
L 274.995053 174.476219 
L 275.320033 170.07894 
L 275.645012 174.594528 
L 275.969992 174.526115 
L 276.294971 179.357711 
L 276.619951 175.928747 
L 276.94493 178.582549 
L 277.26991 185.320283 
L 277.594889 185.005273 
L 277.919869 172.694821 
L 278.244848 168.600577 
L 278.569828 177.543049 
L 278.894808 178.376423 
L 279.219787 187.302263 
L 279.544767 177.783215 
L 279.869746 175.418699 
L 280.194726 177.628981 
L 280.519705 182.799648 
L 280.844685 178.136257 
L 281.169664 175.892711 
L 281.494644 180.753912 
L 281.819623 178.916076 
L 282.144603 176.056259 
L 282.469582 181.225152 
L 282.794562 166.042908 
L 283.119541 181.354549 
L 283.444521 173.504245 
L 283.7695 174.691548 
L 284.09448 172.220809 
L 284.419459 172.090525 
L 284.744439 177.686195 
L 285.069419 175.060224 
L 285.394398 181.834992 
L 285.719378 175.828955 
L 286.044357 179.551751 
L 286.369337 172.023997 
L 286.694316 174.024383 
L 287.019296 179.673719 
L 287.344275 180.657779 
L 287.669255 170.377429 
L 287.994234 167.282879 
L 288.319214 185.704704 
L 288.644193 172.357524 
L 288.969173 173.659477 
L 289.294152 167.304168 
L 289.619132 188.482248 
L 289.944111 169.380396 
L 290.269091 179.864987 
L 290.59407 174.867071 
L 290.91905 175.998047 
L 291.244029 170.624137 
L 291.569009 174.302581 
L 291.893989 172.359409 
L 292.218968 178.961315 
L 292.543948 177.853513 
L 292.868927 174.248915 
L 293.193907 172.599575 
L 293.843866 167.535131 
L 294.168845 177.713028 
L 294.818804 173.561459 
L 295.143784 184.452647 
L 295.468763 172.060033 
L 295.793743 171.048253 
L 296.118722 182.343155 
L 296.443702 178.865293 
L 296.768681 176.891629 
L 297.093661 177.493153 
L 297.41864 174.639767 
L 297.74362 178.771932 
L 298.0686 180.121896 
L 298.393579 175.679267 
L 298.718559 176.015677 
L 299.043538 170.852328 
L 299.368518 175.967555 
L 299.693497 175.904797 
L 300.018477 169.1919 
L 300.668436 177.841427 
L 300.993415 168.24942 
L 301.318395 170.546521 
L 301.643374 176.175455 
L 301.968354 167.245069 
L 302.293333 168.798276 
L 302.618313 173.025576 
L 302.943292 173.61324 
L 303.268272 170.811635 
L 303.593251 173.747183 
L 303.918231 172.04706 
L 304.24321 181.345235 
L 304.56819 174.786683 
L 305.218149 179.804003 
L 305.868108 172.982111 
L 306.193088 177.359099 
L 306.518067 175.249607 
L 306.843047 180.514633 
L 307.493006 172.850053 
L 307.817985 183.288407 
L 308.142965 167.263475 
L 308.467944 183.130403 
L 308.792924 173.607696 
L 309.117903 180.278015 
L 309.442883 178.654621 
L 309.767862 179.601647 
L 310.092842 180.000815 
L 310.417821 179.5176 
L 310.742801 161.535636 
L 311.39276 183.726383 
L 311.71774 170.468905 
L 312.042719 178.975175 
L 312.367699 163.459404 
L 312.692678 187.561057 
L 313.017658 163.930644 
L 313.342637 173.321293 
L 313.667617 158.160227 
L 313.992596 178.471669 
L 314.317576 176.495233 
L 314.642555 180.704016 
L 314.967535 172.13022 
L 315.292514 176.978448 
L 315.617494 174.813516 
L 315.942473 161.747195 
L 316.267453 168.258623 
L 316.592432 178.447608 
L 317.242391 180.951611 
L 317.567371 166.479997 
L 317.892351 188.603329 
L 318.21733 190.238809 
L 318.54231 184.027644 
L 318.867289 180.732623 
L 319.192269 185.311967 
L 319.517248 171.669181 
L 319.842228 169.331387 
L 320.492187 187.457495 
L 320.817166 178.279403 
L 321.142146 173.566116 
L 321.467125 174.40326 
L 321.792105 170.157443 
L 322.117084 175.579475 
L 322.442064 176.880541 
L 322.767043 176.401872 
L 323.092023 181.467203 
L 323.417002 169.94034 
L 323.741982 167.599885 
L 324.066962 182.309004 
L 324.391941 172.300199 
L 324.716921 171.113783 
L 325.0419 173.235361 
L 325.36688 183.361477 
L 326.016839 166.512263 
L 326.341818 185.578079 
L 326.666798 172.156055 
L 327.316757 180.642145 
L 327.641736 174.869843 
L 327.966716 174.279407 
L 328.291695 175.462164 
L 328.616675 170.396833 
L 328.941654 182.526107 
L 329.266634 180.880537 
L 329.591613 168.875892 
L 330.241572 181.119816 
L 330.566552 175.113779 
L 330.891532 177.705599 
L 331.216511 174.882816 
L 331.541491 176.17734 
L 331.86647 176.297423 
L 332.19145 168.52662 
L 332.516429 174.647196 
L 332.841409 185.593824 
L 333.166388 175.938061 
L 333.491368 183.476903 
L 333.816347 174.882816 
L 334.141327 173.588292 
L 334.466306 170.880048 
L 334.791286 177.823908 
L 335.116265 179.467704 
L 335.441245 169.224277 
L 335.766224 183.474131 
L 336.416183 167.586912 
L 336.741163 177.479293 
L 337.066143 169.825801 
L 337.391122 176.882315 
L 337.716102 169.352676 
L 338.041081 171.822528 
L 338.366061 177.713028 
L 338.69104 177.707484 
L 339.01602 170.875391 
L 339.340999 178.525224 
L 339.665979 160.984008 
L 339.990958 177.932903 
L 340.315938 177.231587 
L 340.640917 171.699673 
L 340.965897 178.764503 
L 341.290876 181.003392 
L 341.615856 170.292384 
L 341.940835 180.770544 
L 342.265815 167.823419 
L 342.590794 169.941227 
L 342.915774 166.298819 
L 343.240753 164.071129 
L 343.565733 179.035272 
L 344.215692 167.652553 
L 344.540672 181.619663 
L 344.865651 173.507904 
L 345.190631 161.798976 
L 345.51561 159.573947 
L 345.84059 170.250804 
L 346.165569 176.738171 
L 346.490549 178.052099 
L 347.140508 166.777488 
L 347.465487 174.776593 
L 347.790467 168.338124 
L 348.115446 172.207836 
L 348.440426 168.062809 
L 348.765405 177.538392 
L 349.090385 174.768277 
L 349.415364 176.614429 
L 349.740344 167.850252 
L 350.065324 163.776299 
L 350.390303 164.175467 
L 350.715283 170.919743 
L 351.040262 169.731553 
L 351.365242 161.702843 
L 351.690221 176.37138 
L 352.015201 178.15932 
L 352.34018 175.279212 
L 352.66516 177.848856 
L 352.990139 175.989731 
L 353.315119 172.621751 
L 353.965078 177.576313 
L 354.290057 172.022112 
L 354.615037 173.541168 
L 354.940016 173.465437 
L 355.264996 173.91816 
L 355.589975 169.793424 
L 355.914955 181.120703 
L 356.239934 165.451585 
L 356.564914 171.108239 
L 356.889894 173.831341 
L 357.214873 179.118432 
L 357.539853 171.367033 
L 357.864832 176.667097 
L 358.189812 179.670947 
L 358.514791 173.664023 
L 358.839771 173.457121 
L 359.16475 181.933897 
L 359.48973 176.101609 
L 359.814709 161.905199 
L 360.139689 179.550864 
L 360.464668 185.059715 
L 360.789648 166.656407 
L 361.114627 167.381784 
L 361.439607 156.324276 
L 361.764586 173.289803 
L 362.089566 168.826883 
L 362.414545 173.438604 
L 362.739525 180.082201 
L 363.064505 166.182395 
L 363.389484 178.634219 
L 363.714464 176.887859 
L 364.039443 169.269516 
L 364.364423 174.277633 
L 364.689402 176.268816 
L 365.014382 180.187537 
L 365.339361 174.962317 
L 365.98932 171.842819 
L 366.3143 169.232593 
L 366.639279 161.725019 
L 366.964259 177.179917 
L 367.289238 175.005671 
L 367.614218 169.165067 
L 367.939197 181.173371 
L 368.264177 178.814399 
L 368.589156 175.076856 
L 369.239115 176.957159 
L 369.564095 173.878465 
L 369.889075 169.137347 
L 370.539034 176.153279 
L 370.864013 173.972713 
L 371.188993 169.808171 
L 371.513972 185.819243 
L 371.838952 166.371889 
L 372.488911 174.26466 
L 372.81389 185.748169 
L 373.13887 176.159821 
L 373.463849 180.174564 
L 373.788829 179.231197 
L 374.113808 174.187931 
L 374.438788 171.439992 
L 374.763767 165.907967 
L 375.088747 167.931527 
L 375.413726 176.563535 
L 375.738706 178.238821 
L 376.063686 174.751645 
L 376.388665 181.278707 
L 376.713645 176.03874 
L 377.038624 176.325143 
L 377.363604 175.861332 
L 377.688583 191.258905 
L 378.013563 175.727389 
L 378.338542 170.755308 
L 378.663522 177.108732 
L 378.988501 187.711632 
L 379.313481 173.623441 
L 379.63846 173.618784 
L 379.96344 183.777277 
L 380.288419 170.346937 
L 380.613399 164.797393 
L 380.938378 173.766587 
L 381.263358 166.328424 
L 381.913317 174.134376 
L 382.238296 167.675616 
L 382.563276 168.002712 
L 382.888256 177.907955 
L 383.213235 175.593335 
L 383.538215 175.203481 
L 383.863194 174.330301 
L 384.188174 177.046861 
L 384.513153 182.226731 
L 384.838133 163.820651 
L 385.488092 190.66104 
L 386.138051 177.762924 
L 386.46303 177.772127 
L 386.78801 176.073889 
L 387.112989 169.280604 
L 387.437969 182.793217 
L 387.762948 176.121013 
L 388.087928 173.466324 
L 388.412907 169.650167 
L 388.737887 179.181301 
L 389.062867 169.701061 
L 389.387846 170.06508 
L 389.712826 181.888547 
L 390.037805 176.615316 
L 390.362785 173.917273 
L 390.687764 177.357325 
L 391.012744 175.662635 
L 391.337723 184.886964 
L 391.987682 167.322685 
L 392.312662 178.503935 
L 392.637641 181.592941 
L 392.962621 180.798264 
L 393.2876 176.990423 
L 393.61258 178.845889 
L 393.937559 162.986279 
L 394.262539 179.785597 
L 394.587518 171.365148 
L 394.912498 174.822719 
L 395.237477 161.723245 
L 395.562457 174.966863 
L 395.887437 165.178044 
L 396.537396 181.595713 
L 396.862375 173.725007 
L 397.187355 169.657596 
L 397.512334 169.539287 
L 397.837314 177.913499 
L 398.162293 180.314051 
L 398.487273 189.348997 
L 398.487273 189.348997 
" clip-path="url(#p3fd2648644)" style="fill: none; stroke: #ff7f0e; stroke-width: 1.5; stroke-linecap: square"/>
   </g>
   <g id="patch_3">
    <path d="M 57.6 307.584 
L 57.6 41.472 
" style="fill: none; stroke: #000000; stroke-width: 0.8; stroke-linejoin: miter; stroke-linecap: square"/>
   </g>
   <g id="patch_4">
    <path d="M 414.72 307.584 
L 414.72 41.472 
" style="fill: none; stroke: #000000; stroke-width: 0.8; stroke-linejoin: miter; stroke-linecap: square"/>
   </g>
   <g id="patch_5">
    <path d="M 57.6 307.584 
L 414.72 307.584 
" style="fill: none; stroke: #000000; stroke-width: 0.8; stroke-linejoin: miter; stroke-linecap: square"/>
   </g>
   <g id="patch_6">
    <path d="M 57.6 41.472 
L 414.72 41.472 
" style="fill: none; stroke: #000000; stroke-width: 0.8; stroke-linejoin: miter; stroke-linecap: square"/>
   </g>
   <g id="legend_1">
    <g id="patch_7">
     <path d="M 64.6 78.82825 
L 215.140625 78.82825 
Q 217.140625 78.82825 217.140625 76.82825 
L 217.140625 48.472 
Q 217.140625 46.472 215.140625 46.472 
L 64.6 46.472 
Q 62.6 46.472 62.6 48.472 
L 62.6 76.82825 
Q 62.6 78.82825 64.6 78.82825 
z
" style="fill: #ffffff; opacity: 0.8; stroke: #cccccc; stroke-linejoin: miter"/>
    </g>
    <g id="line2d_25">
     <path d="M 66.6 54.570437 
L 76.6 54.570437 
L 86.6 54.570437 
" style="fill: none; stroke: #1f77b4; stroke-width: 1.5; stroke-linecap: square"/>
    </g>
    <g id="text_14">
     <!-- GPS derived deltaH -->
     <g transform="translate(94.6 58.070437)scale(0.1 -0.1)">
      <defs>
       <path id="DejaVuSans-47" d="M 3809 666 
L 3809 1919 
L 2778 1919 
L 2778 2438 
L 4434 2438 
L 4434 434 
Q 4069 175 3628 42 
Q 3188 -91 2688 -91 
Q 1594 -91 976 548 
Q 359 1188 359 2328 
Q 359 3472 976 4111 
Q 1594 4750 2688 4750 
Q 3144 4750 3555 4637 
Q 3966 4525 4313 4306 
L 4313 3634 
Q 3963 3931 3569 4081 
Q 3175 4231 2741 4231 
Q 1884 4231 1454 3753 
Q 1025 3275 1025 2328 
Q 1025 1384 1454 906 
Q 1884 428 2741 428 
Q 3075 428 3337 486 
Q 3600 544 3809 666 
z
" transform="scale(0.015625)"/>
       <path id="DejaVuSans-50" d="M 1259 4147 
L 1259 2394 
L 2053 2394 
Q 2494 2394 2734 2622 
Q 2975 2850 2975 3272 
Q 2975 3691 2734 3919 
Q 2494 4147 2053 4147 
L 1259 4147 
z
M 628 4666 
L 2053 4666 
Q 2838 4666 3239 4311 
Q 3641 3956 3641 3272 
Q 3641 2581 3239 2228 
Q 2838 1875 2053 1875 
L 1259 1875 
L 1259 0 
L 628 0 
L 628 4666 
z
" transform="scale(0.015625)"/>
       <path id="DejaVuSans-53" d="M 3425 4513 
L 3425 3897 
Q 3066 4069 2747 4153 
Q 2428 4238 2131 4238 
Q 1616 4238 1336 4038 
Q 1056 3838 1056 3469 
Q 1056 3159 1242 3001 
Q 1428 2844 1947 2747 
L 2328 2669 
Q 3034 2534 3370 2195 
Q 3706 1856 3706 1288 
Q 3706 609 3251 259 
Q 2797 -91 1919 -91 
Q 1588 -91 1214 -16 
Q 841 59 441 206 
L 441 856 
Q 825 641 1194 531 
Q 1563 422 1919 422 
Q 2459 422 2753 634 
Q 3047 847 3047 1241 
Q 3047 1584 2836 1778 
Q 2625 1972 2144 2069 
L 1759 2144 
Q 1053 2284 737 2584 
Q 422 2884 422 3419 
Q 422 4038 858 4394 
Q 1294 4750 2059 4750 
Q 2388 4750 2728 4690 
Q 3069 4631 3425 4513 
z
" transform="scale(0.015625)"/>
       <path id="DejaVuSans-48" d="M 628 4666 
L 1259 4666 
L 1259 2753 
L 3553 2753 
L 3553 4666 
L 4184 4666 
L 4184 0 
L 3553 0 
L 3553 2222 
L 1259 2222 
L 1259 0 
L 628 0 
L 628 4666 
z
" transform="scale(0.015625)"/>
      </defs>
      <use xlink:href="#DejaVuSans-47"/>
      <use xlink:href="#DejaVuSans-50" x="77.490234"/>
      <use xlink:href="#DejaVuSans-53" x="137.792969"/>
      <use xlink:href="#DejaVuSans-20" x="201.269531"/>
      <use xlink:href="#DejaVuSans-64" x="233.056641"/>
      <use xlink:href="#DejaVuSans-65" x="296.533203"/>
      <use xlink:href="#DejaVuSans-72" x="358.056641"/>
      <use xlink:href="#DejaVuSans-69" x="399.169922"/>
      <use xlink:href="#DejaVuSans-76" x="426.953125"/>
      <use xlink:href="#DejaVuSans-65" x="486.132812"/>
      <use xlink:href="#DejaVuSans-64" x="547.65625"/>
      <use xlink:href="#DejaVuSans-20" x="611.132812"/>
      <use xlink:href="#DejaVuSans-64" x="642.919922"/>
      <use xlink:href="#DejaVuSans-65" x="706.396484"/>
      <use xlink:href="#DejaVuSans-6c" x="767.919922"/>
      <use xlink:href="#DejaVuSans-74" x="795.703125"/>
      <use xlink:href="#DejaVuSans-61" x="834.912109"/>
      <use xlink:href="#DejaVuSans-48" x="896.191406"/>
     </g>
    </g>
    <g id="line2d_26">
     <path d="M 66.6 69.248562 
L 76.6 69.248562 
L 86.6 69.248562 
" style="fill: none; stroke: #ff7f0e; stroke-width: 1.5; stroke-linecap: square"/>
    </g>
    <g id="text_15">
     <!-- bmp280 derived deltaH -->
     <g transform="translate(94.6 72.748562)scale(0.1 -0.1)">
      <defs>
       <path id="DejaVuSans-62" d="M 3116 1747 
Q 3116 2381 2855 2742 
Q 2594 3103 2138 3103 
Q 1681 3103 1420 2742 
Q 1159 2381 1159 1747 
Q 1159 1113 1420 752 
Q 1681 391 2138 391 
Q 2594 391 2855 752 
Q 3116 1113 3116 1747 
z
M 1159 2969 
Q 1341 3281 1617 3432 
Q 1894 3584 2278 3584 
Q 2916 3584 3314 3078 
Q 3713 2572 3713 1747 
Q 3713 922 3314 415 
Q 2916 -91 2278 -91 
Q 1894 -91 1617 61 
Q 1341 213 1159 525 
L 1159 0 
L 581 0 
L 581 4863 
L 1159 4863 
L 1159 2969 
z
" transform="scale(0.015625)"/>
      </defs>
      <use xlink:href="#DejaVuSans-62"/>
      <use xlink:href="#DejaVuSans-6d" x="63.476562"/>
      <use xlink:href="#DejaVuSans-70" x="160.888672"/>
      <use xlink:href="#DejaVuSans-32" x="224.365234"/>
      <use xlink:href="#DejaVuSans-38" x="287.988281"/>
      <use xlink:href="#DejaVuSans-30" x="351.611328"/>
      <use xlink:href="#DejaVuSans-20" x="415.234375"/>
      <use xlink:href="#DejaVuSans-64" x="447.021484"/>
      <use xlink:href="#DejaVuSans-65" x="510.498047"/>
      <use xlink:href="#DejaVuSans-72" x="572.021484"/>
      <use xlink:href="#DejaVuSans-69" x="613.134766"/>
      <use xlink:href="#DejaVuSans-76" x="640.917969"/>
      <use xlink:href="#DejaVuSans-65" x="700.097656"/>
      <use xlink:href="#DejaVuSans-64" x="761.621094"/>
      <use xlink:href="#DejaVuSans-20" x="825.097656"/>
      <use xlink:href="#DejaVuSans-64" x="856.884766"/>
      <use xlink:href="#DejaVuSans-65" x="920.361328"/>
      <use xlink:href="#DejaVuSans-6c" x="981.884766"/>
      <use xlink:href="#DejaVuSans-74" x="1009.667969"/>
      <use xlink:href="#DejaVuSans-61" x="1048.876953"/>
      <use xlink:href="#DejaVuSans-48" x="1110.15625"/>
     </g>
    </g>
   </g>
  </g>
 </g>
 <defs>
  <clipPath id="p3fd2648644">
   <rect x="57.6" y="41.472" width="357.12" height="266.112"/>
  </clipPath>
 </defs>
</svg>
