<?xml version="1.0" encoding="utf-8" standalone="no"?>
<!DOCTYPE svg PUBLIC "-//W3C//DTD SVG 1.1//EN"
  "http://www.w3.org/Graphics/SVG/1.1/DTD/svg11.dtd">
<svg xmlns:xlink="http://www.w3.org/1999/xlink" width="460.8pt" height="345.6pt" viewBox="0 0 460.8 345.6" xmlns="http://www.w3.org/2000/svg" version="1.1">
 <metadata>
  <rdf:RDF xmlns:dc="http://purl.org/dc/elements/1.1/" xmlns:cc="http://creativecommons.org/ns#" xmlns:rdf="http://www.w3.org/1999/02/22-rdf-syntax-ns#">
   <cc:Work>
    <dc:type rdf:resource="http://purl.org/dc/dcmitype/StillImage"/>
    <dc:date>2021-11-21T14:05:09.256697</dc:date>
    <dc:format>image/svg+xml</dc:format>
    <dc:creator>
     <cc:Agent>
      <dc:title>Matplotlib v3.5.0, https://matplotlib.org/</dc:title>
     </cc:Agent>
    </dc:creator>
   </cc:Work>
  </rdf:RDF>
 </metadata>
 <defs>
  <style type="text/css">*{stroke-linejoin: round; stroke-linecap: butt}</style>
 </defs>
 <g id="figure_1">
  <g id="patch_1">
   <path d="M 0 345.6 
L 460.8 345.6 
L 460.8 0 
L 0 0 
z
" style="fill: #ffffff"/>
  </g>
  <g id="axes_1">
   <g id="patch_2">
    <path d="M 57.6 162.432 
L 414.72 162.432 
L 414.72 41.472 
L 57.6 41.472 
z
" style="fill: #ffffff"/>
   </g>
   <g id="matplotlib.axis_1">
    <g id="xtick_1">
     <g id="line2d_1">
      <path d="M 73.832727 162.432 
L 73.832727 41.472 
" clip-path="url(#p06e59138f6)" style="fill: none; stroke: #b0b0b0; stroke-width: 0.8; stroke-linecap: square"/>
     </g>
     <g id="line2d_2">
      <defs>
       <path id="m8f62480d28" d="M 0 0 
L 0 3.5 
" style="stroke: #000000; stroke-width: 0.8"/>
      </defs>
      <g>
       <use xlink:href="#m8f62480d28" x="73.832727" y="162.432" style="stroke: #000000; stroke-width: 0.8"/>
      </g>
     </g>
     <g id="text_1">
      <!-- 0 -->
      <g transform="translate(70.651477 177.030437)scale(0.1 -0.1)">
       <defs>
        <path id="DejaVuSans-30" d="M 2034 4250 
Q 1547 4250 1301 3770 
Q 1056 3291 1056 2328 
Q 1056 1369 1301 889 
Q 1547 409 2034 409 
Q 2525 409 2770 889 
Q 3016 1369 3016 2328 
Q 3016 3291 2770 3770 
Q 2525 4250 2034 4250 
z
M 2034 4750 
Q 2819 4750 3233 4129 
Q 3647 3509 3647 2328 
Q 3647 1150 3233 529 
Q 2819 -91 2034 -91 
Q 1250 -91 836 529 
Q 422 1150 422 2328 
Q 422 3509 836 4129 
Q 1250 4750 2034 4750 
z
" transform="scale(0.015625)"/>
       </defs>
       <use xlink:href="#DejaVuSans-30"/>
      </g>
     </g>
    </g>
    <g id="xtick_2">
     <g id="line2d_3">
      <path d="M 138.828632 162.432 
L 138.828632 41.472 
" clip-path="url(#p06e59138f6)" style="fill: none; stroke: #b0b0b0; stroke-width: 0.8; stroke-linecap: square"/>
     </g>
     <g id="line2d_4">
      <g>
       <use xlink:href="#m8f62480d28" x="138.828632" y="162.432" style="stroke: #000000; stroke-width: 0.8"/>
      </g>
     </g>
     <g id="text_2">
      <!-- 200 -->
      <g transform="translate(129.284882 177.030437)scale(0.1 -0.1)">
       <defs>
        <path id="DejaVuSans-32" d="M 1228 531 
L 3431 531 
L 3431 0 
L 469 0 
L 469 531 
Q 828 903 1448 1529 
Q 2069 2156 2228 2338 
Q 2531 2678 2651 2914 
Q 2772 3150 2772 3378 
Q 2772 3750 2511 3984 
Q 2250 4219 1831 4219 
Q 1534 4219 1204 4116 
Q 875 4013 500 3803 
L 500 4441 
Q 881 4594 1212 4672 
Q 1544 4750 1819 4750 
Q 2544 4750 2975 4387 
Q 3406 4025 3406 3419 
Q 3406 3131 3298 2873 
Q 3191 2616 2906 2266 
Q 2828 2175 2409 1742 
Q 1991 1309 1228 531 
z
" transform="scale(0.015625)"/>
       </defs>
       <use xlink:href="#DejaVuSans-32"/>
       <use xlink:href="#DejaVuSans-30" x="63.623047"/>
       <use xlink:href="#DejaVuSans-30" x="127.246094"/>
      </g>
     </g>
    </g>
    <g id="xtick_3">
     <g id="line2d_5">
      <path d="M 203.824537 162.432 
L 203.824537 41.472 
" clip-path="url(#p06e59138f6)" style="fill: none; stroke: #b0b0b0; stroke-width: 0.8; stroke-linecap: square"/>
     </g>
     <g id="line2d_6">
      <g>
       <use xlink:href="#m8f62480d28" x="203.824537" y="162.432" style="stroke: #000000; stroke-width: 0.8"/>
      </g>
     </g>
     <g id="text_3">
      <!-- 400 -->
      <g transform="translate(194.280787 177.030437)scale(0.1 -0.1)">
       <defs>
        <path id="DejaVuSans-34" d="M 2419 4116 
L 825 1625 
L 2419 1625 
L 2419 4116 
z
M 2253 4666 
L 3047 4666 
L 3047 1625 
L 3713 1625 
L 3713 1100 
L 3047 1100 
L 3047 0 
L 2419 0 
L 2419 1100 
L 313 1100 
L 313 1709 
L 2253 4666 
z
" transform="scale(0.015625)"/>
       </defs>
       <use xlink:href="#DejaVuSans-34"/>
       <use xlink:href="#DejaVuSans-30" x="63.623047"/>
       <use xlink:href="#DejaVuSans-30" x="127.246094"/>
      </g>
     </g>
    </g>
    <g id="xtick_4">
     <g id="line2d_7">
      <path d="M 268.820442 162.432 
L 268.820442 41.472 
" clip-path="url(#p06e59138f6)" style="fill: none; stroke: #b0b0b0; stroke-width: 0.8; stroke-linecap: square"/>
     </g>
     <g id="line2d_8">
      <g>
       <use xlink:href="#m8f62480d28" x="268.820442" y="162.432" style="stroke: #000000; stroke-width: 0.8"/>
      </g>
     </g>
     <g id="text_4">
      <!-- 600 -->
      <g transform="translate(259.276692 177.030437)scale(0.1 -0.1)">
       <defs>
        <path id="DejaVuSans-36" d="M 2113 2584 
Q 1688 2584 1439 2293 
Q 1191 2003 1191 1497 
Q 1191 994 1439 701 
Q 1688 409 2113 409 
Q 2538 409 2786 701 
Q 3034 994 3034 1497 
Q 3034 2003 2786 2293 
Q 2538 2584 2113 2584 
z
M 3366 4563 
L 3366 3988 
Q 3128 4100 2886 4159 
Q 2644 4219 2406 4219 
Q 1781 4219 1451 3797 
Q 1122 3375 1075 2522 
Q 1259 2794 1537 2939 
Q 1816 3084 2150 3084 
Q 2853 3084 3261 2657 
Q 3669 2231 3669 1497 
Q 3669 778 3244 343 
Q 2819 -91 2113 -91 
Q 1303 -91 875 529 
Q 447 1150 447 2328 
Q 447 3434 972 4092 
Q 1497 4750 2381 4750 
Q 2619 4750 2861 4703 
Q 3103 4656 3366 4563 
z
" transform="scale(0.015625)"/>
       </defs>
       <use xlink:href="#DejaVuSans-36"/>
       <use xlink:href="#DejaVuSans-30" x="63.623047"/>
       <use xlink:href="#DejaVuSans-30" x="127.246094"/>
      </g>
     </g>
    </g>
    <g id="xtick_5">
     <g id="line2d_9">
      <path d="M 333.816347 162.432 
L 333.816347 41.472 
" clip-path="url(#p06e59138f6)" style="fill: none; stroke: #b0b0b0; stroke-width: 0.8; stroke-linecap: square"/>
     </g>
     <g id="line2d_10">
      <g>
       <use xlink:href="#m8f62480d28" x="333.816347" y="162.432" style="stroke: #000000; stroke-width: 0.8"/>
      </g>
     </g>
     <g id="text_5">
      <!-- 800 -->
      <g transform="translate(324.272597 177.030437)scale(0.1 -0.1)">
       <defs>
        <path id="DejaVuSans-38" d="M 2034 2216 
Q 1584 2216 1326 1975 
Q 1069 1734 1069 1313 
Q 1069 891 1326 650 
Q 1584 409 2034 409 
Q 2484 409 2743 651 
Q 3003 894 3003 1313 
Q 3003 1734 2745 1975 
Q 2488 2216 2034 2216 
z
M 1403 2484 
Q 997 2584 770 2862 
Q 544 3141 544 3541 
Q 544 4100 942 4425 
Q 1341 4750 2034 4750 
Q 2731 4750 3128 4425 
Q 3525 4100 3525 3541 
Q 3525 3141 3298 2862 
Q 3072 2584 2669 2484 
Q 3125 2378 3379 2068 
Q 3634 1759 3634 1313 
Q 3634 634 3220 271 
Q 2806 -91 2034 -91 
Q 1263 -91 848 271 
Q 434 634 434 1313 
Q 434 1759 690 2068 
Q 947 2378 1403 2484 
z
M 1172 3481 
Q 1172 3119 1398 2916 
Q 1625 2713 2034 2713 
Q 2441 2713 2670 2916 
Q 2900 3119 2900 3481 
Q 2900 3844 2670 4047 
Q 2441 4250 2034 4250 
Q 1625 4250 1398 4047 
Q 1172 3844 1172 3481 
z
" transform="scale(0.015625)"/>
       </defs>
       <use xlink:href="#DejaVuSans-38"/>
       <use xlink:href="#DejaVuSans-30" x="63.623047"/>
       <use xlink:href="#DejaVuSans-30" x="127.246094"/>
      </g>
     </g>
    </g>
    <g id="xtick_6">
     <g id="line2d_11">
      <path d="M 398.812252 162.432 
L 398.812252 41.472 
" clip-path="url(#p06e59138f6)" style="fill: none; stroke: #b0b0b0; stroke-width: 0.8; stroke-linecap: square"/>
     </g>
     <g id="line2d_12">
      <g>
       <use xlink:href="#m8f62480d28" x="398.812252" y="162.432" style="stroke: #000000; stroke-width: 0.8"/>
      </g>
     </g>
     <g id="text_6">
      <!-- 1000 -->
      <g transform="translate(386.087252 177.030437)scale(0.1 -0.1)">
       <defs>
        <path id="DejaVuSans-31" d="M 794 531 
L 1825 531 
L 1825 4091 
L 703 3866 
L 703 4441 
L 1819 4666 
L 2450 4666 
L 2450 531 
L 3481 531 
L 3481 0 
L 794 0 
L 794 531 
z
" transform="scale(0.015625)"/>
       </defs>
       <use xlink:href="#DejaVuSans-31"/>
       <use xlink:href="#DejaVuSans-30" x="63.623047"/>
       <use xlink:href="#DejaVuSans-30" x="127.246094"/>
       <use xlink:href="#DejaVuSans-30" x="190.869141"/>
      </g>
     </g>
    </g>
   </g>
   <g id="matplotlib.axis_2">
    <g id="ytick_1">
     <g id="line2d_13">
      <path d="M 57.6 156.933818 
L 414.72 156.933818 
" clip-path="url(#p06e59138f6)" style="fill: none; stroke: #b0b0b0; stroke-width: 0.8; stroke-linecap: square"/>
     </g>
     <g id="line2d_14">
      <defs>
       <path id="mab0d7e51ee" d="M 0 0 
L -3.5 0 
" style="stroke: #000000; stroke-width: 0.8"/>
      </defs>
      <g>
       <use xlink:href="#mab0d7e51ee" x="57.6" y="156.933818" style="stroke: #000000; stroke-width: 0.8"/>
      </g>
     </g>
     <g id="text_7">
      <!-- 0 -->
      <g transform="translate(44.2375 160.733037)scale(0.1 -0.1)">
       <use xlink:href="#DejaVuSans-30"/>
      </g>
     </g>
    </g>
    <g id="ytick_2">
     <g id="line2d_15">
      <path d="M 57.6 132.024171 
L 414.72 132.024171 
" clip-path="url(#p06e59138f6)" style="fill: none; stroke: #b0b0b0; stroke-width: 0.8; stroke-linecap: square"/>
     </g>
     <g id="line2d_16">
      <g>
       <use xlink:href="#mab0d7e51ee" x="57.6" y="132.024171" style="stroke: #000000; stroke-width: 0.8"/>
      </g>
     </g>
     <g id="text_8">
      <!-- 200 -->
      <g transform="translate(31.5125 135.82339)scale(0.1 -0.1)">
       <use xlink:href="#DejaVuSans-32"/>
       <use xlink:href="#DejaVuSans-30" x="63.623047"/>
       <use xlink:href="#DejaVuSans-30" x="127.246094"/>
      </g>
     </g>
    </g>
    <g id="ytick_3">
     <g id="line2d_17">
      <path d="M 57.6 107.114524 
L 414.72 107.114524 
" clip-path="url(#p06e59138f6)" style="fill: none; stroke: #b0b0b0; stroke-width: 0.8; stroke-linecap: square"/>
     </g>
     <g id="line2d_18">
      <g>
       <use xlink:href="#mab0d7e51ee" x="57.6" y="107.114524" style="stroke: #000000; stroke-width: 0.8"/>
      </g>
     </g>
     <g id="text_9">
      <!-- 400 -->
      <g transform="translate(31.5125 110.913743)scale(0.1 -0.1)">
       <use xlink:href="#DejaVuSans-34"/>
       <use xlink:href="#DejaVuSans-30" x="63.623047"/>
       <use xlink:href="#DejaVuSans-30" x="127.246094"/>
      </g>
     </g>
    </g>
    <g id="ytick_4">
     <g id="line2d_19">
      <path d="M 57.6 82.204877 
L 414.72 82.204877 
" clip-path="url(#p06e59138f6)" style="fill: none; stroke: #b0b0b0; stroke-width: 0.8; stroke-linecap: square"/>
     </g>
     <g id="line2d_20">
      <g>
       <use xlink:href="#mab0d7e51ee" x="57.6" y="82.204877" style="stroke: #000000; stroke-width: 0.8"/>
      </g>
     </g>
     <g id="text_10">
      <!-- 600 -->
      <g transform="translate(31.5125 86.004096)scale(0.1 -0.1)">
       <use xlink:href="#DejaVuSans-36"/>
       <use xlink:href="#DejaVuSans-30" x="63.623047"/>
       <use xlink:href="#DejaVuSans-30" x="127.246094"/>
      </g>
     </g>
    </g>
    <g id="ytick_5">
     <g id="line2d_21">
      <path d="M 57.6 57.29523 
L 414.72 57.29523 
" clip-path="url(#p06e59138f6)" style="fill: none; stroke: #b0b0b0; stroke-width: 0.8; stroke-linecap: square"/>
     </g>
     <g id="line2d_22">
      <g>
       <use xlink:href="#mab0d7e51ee" x="57.6" y="57.29523" style="stroke: #000000; stroke-width: 0.8"/>
      </g>
     </g>
     <g id="text_11">
      <!-- 800 -->
      <g transform="translate(31.5125 61.094449)scale(0.1 -0.1)">
       <use xlink:href="#DejaVuSans-38"/>
       <use xlink:href="#DejaVuSans-30" x="63.623047"/>
       <use xlink:href="#DejaVuSans-30" x="127.246094"/>
      </g>
     </g>
    </g>
    <g id="text_12">
     <!-- power [w] -->
     <g transform="translate(25.432812 126.986375)rotate(-90)scale(0.1 -0.1)">
      <defs>
       <path id="DejaVuSans-70" d="M 1159 525 
L 1159 -1331 
L 581 -1331 
L 581 3500 
L 1159 3500 
L 1159 2969 
Q 1341 3281 1617 3432 
Q 1894 3584 2278 3584 
Q 2916 3584 3314 3078 
Q 3713 2572 3713 1747 
Q 3713 922 3314 415 
Q 2916 -91 2278 -91 
Q 1894 -91 1617 61 
Q 1341 213 1159 525 
z
M 3116 1747 
Q 3116 2381 2855 2742 
Q 2594 3103 2138 3103 
Q 1681 3103 1420 2742 
Q 1159 2381 1159 1747 
Q 1159 1113 1420 752 
Q 1681 391 2138 391 
Q 2594 391 2855 752 
Q 3116 1113 3116 1747 
z
" transform="scale(0.015625)"/>
       <path id="DejaVuSans-6f" d="M 1959 3097 
Q 1497 3097 1228 2736 
Q 959 2375 959 1747 
Q 959 1119 1226 758 
Q 1494 397 1959 397 
Q 2419 397 2687 759 
Q 2956 1122 2956 1747 
Q 2956 2369 2687 2733 
Q 2419 3097 1959 3097 
z
M 1959 3584 
Q 2709 3584 3137 3096 
Q 3566 2609 3566 1747 
Q 3566 888 3137 398 
Q 2709 -91 1959 -91 
Q 1206 -91 779 398 
Q 353 888 353 1747 
Q 353 2609 779 3096 
Q 1206 3584 1959 3584 
z
" transform="scale(0.015625)"/>
       <path id="DejaVuSans-77" d="M 269 3500 
L 844 3500 
L 1563 769 
L 2278 3500 
L 2956 3500 
L 3675 769 
L 4391 3500 
L 4966 3500 
L 4050 0 
L 3372 0 
L 2619 2869 
L 1863 0 
L 1184 0 
L 269 3500 
z
" transform="scale(0.015625)"/>
       <path id="DejaVuSans-65" d="M 3597 1894 
L 3597 1613 
L 953 1613 
Q 991 1019 1311 708 
Q 1631 397 2203 397 
Q 2534 397 2845 478 
Q 3156 559 3463 722 
L 3463 178 
Q 3153 47 2828 -22 
Q 2503 -91 2169 -91 
Q 1331 -91 842 396 
Q 353 884 353 1716 
Q 353 2575 817 3079 
Q 1281 3584 2069 3584 
Q 2775 3584 3186 3129 
Q 3597 2675 3597 1894 
z
M 3022 2063 
Q 3016 2534 2758 2815 
Q 2500 3097 2075 3097 
Q 1594 3097 1305 2825 
Q 1016 2553 972 2059 
L 3022 2063 
z
" transform="scale(0.015625)"/>
       <path id="DejaVuSans-72" d="M 2631 2963 
Q 2534 3019 2420 3045 
Q 2306 3072 2169 3072 
Q 1681 3072 1420 2755 
Q 1159 2438 1159 1844 
L 1159 0 
L 581 0 
L 581 3500 
L 1159 3500 
L 1159 2956 
Q 1341 3275 1631 3429 
Q 1922 3584 2338 3584 
Q 2397 3584 2469 3576 
Q 2541 3569 2628 3553 
L 2631 2963 
z
" transform="scale(0.015625)"/>
       <path id="DejaVuSans-20" transform="scale(0.015625)"/>
       <path id="DejaVuSans-5b" d="M 550 4863 
L 1875 4863 
L 1875 4416 
L 1125 4416 
L 1125 -397 
L 1875 -397 
L 1875 -844 
L 550 -844 
L 550 4863 
z
" transform="scale(0.015625)"/>
       <path id="DejaVuSans-5d" d="M 1947 4863 
L 1947 -844 
L 622 -844 
L 622 -397 
L 1369 -397 
L 1369 4416 
L 622 4416 
L 622 4863 
L 1947 4863 
z
" transform="scale(0.015625)"/>
      </defs>
      <use xlink:href="#DejaVuSans-70"/>
      <use xlink:href="#DejaVuSans-6f" x="63.476562"/>
      <use xlink:href="#DejaVuSans-77" x="124.658203"/>
      <use xlink:href="#DejaVuSans-65" x="206.445312"/>
      <use xlink:href="#DejaVuSans-72" x="267.96875"/>
      <use xlink:href="#DejaVuSans-20" x="309.082031"/>
      <use xlink:href="#DejaVuSans-5b" x="340.869141"/>
      <use xlink:href="#DejaVuSans-77" x="379.882812"/>
      <use xlink:href="#DejaVuSans-5d" x="461.669922"/>
     </g>
    </g>
   </g>
   <g id="line2d_23">
    <path d="M 73.832727 156.933818 
L 74.157707 145.937455 
L 74.482686 156.933818 
L 74.807666 145.937455 
L 75.457625 145.937455 
L 75.782604 156.933818 
L 76.107584 145.937455 
L 76.432563 156.933818 
L 76.757543 145.937455 
L 77.082523 156.933818 
L 77.407502 145.937455 
L 77.732482 156.933818 
L 78.057461 156.933818 
L 78.382441 145.937455 
L 78.70742 156.933818 
L 79.0324 145.937455 
L 79.357379 145.937455 
L 79.682359 134.941091 
L 80.007338 145.937455 
L 80.982277 145.937455 
L 81.307256 156.933818 
L 82.932154 156.933818 
L 83.257133 145.937455 
L 83.582113 156.933818 
L 84.232072 156.933818 
L 84.557052 145.937455 
L 85.207011 145.937455 
L 85.53199 156.933818 
L 85.85697 145.937455 
L 86.181949 156.933818 
L 86.831908 156.933818 
L 87.156888 145.937455 
L 87.481867 145.937455 
L 87.806847 156.933818 
L 92.35656 156.933818 
L 92.68154 145.937455 
L 93.006519 156.933818 
L 93.331499 145.937455 
L 93.656478 156.933818 
L 94.631417 156.933818 
L 94.956396 145.937455 
L 95.281376 156.933818 
L 111.855332 156.933818 
L 112.180311 145.937455 
L 112.505291 156.933818 
L 113.480229 156.933818 
L 113.805209 145.937455 
L 114.130188 156.933818 
L 114.455168 145.937455 
L 115.105127 145.937455 
L 115.430106 134.941091 
L 115.755086 134.941091 
L 116.080066 145.937455 
L 117.379984 145.937455 
L 117.704963 134.941091 
L 119.329861 134.941091 
L 119.65484 123.944727 
L 119.97982 134.941091 
L 120.629779 134.941091 
L 120.954758 123.944727 
L 121.279738 123.944727 
L 121.604717 134.941091 
L 121.929697 123.944727 
L 122.254676 134.941091 
L 122.579656 123.944727 
L 122.904636 123.944727 
L 123.229615 134.941091 
L 123.554595 123.944727 
L 124.204554 123.944727 
L 124.529533 112.948364 
L 124.854513 123.944727 
L 125.504472 123.944727 
L 125.829451 134.941091 
L 126.154431 123.944727 
L 127.129369 123.944727 
L 127.454349 134.941091 
L 127.779328 123.944727 
L 128.104308 134.941091 
L 128.429287 123.944727 
L 131.029124 123.944727 
L 131.354103 134.941091 
L 131.679083 134.941091 
L 132.004062 123.944727 
L 132.329042 134.941091 
L 133.62896 134.941091 
L 133.953939 123.944727 
L 134.278919 123.944727 
L 134.603898 145.937455 
L 134.928878 134.941091 
L 135.578837 134.941091 
L 135.903817 145.937455 
L 136.228796 134.941091 
L 137.853694 134.941091 
L 138.503653 156.933818 
L 138.828632 145.937455 
L 139.153612 145.937455 
L 139.478591 156.933818 
L 151.502834 156.933818 
L 151.827813 145.937455 
L 152.152793 156.933818 
L 153.452711 156.933818 
L 153.77769 145.937455 
L 154.10267 156.933818 
L 154.427649 145.937455 
L 154.752629 145.937455 
L 155.077609 156.933818 
L 171.976544 156.933818 
L 172.301523 145.937455 
L 172.626503 145.937455 
L 172.951482 134.941091 
L 173.276462 145.937455 
L 173.601441 134.941091 
L 173.926421 145.937455 
L 174.2514 145.937455 
L 174.57638 134.941091 
L 174.90136 134.941091 
L 175.226339 145.937455 
L 175.551319 145.937455 
L 175.876298 156.933818 
L 176.201278 145.937455 
L 176.526257 156.933818 
L 176.851237 145.937455 
L 177.176216 156.933818 
L 178.151155 156.933818 
L 178.476134 145.937455 
L 178.801114 156.933818 
L 179.126093 156.933818 
L 179.451073 145.937455 
L 179.776052 156.933818 
L 180.101032 145.937455 
L 180.750991 145.937455 
L 181.075971 134.941091 
L 181.40095 145.937455 
L 183.350827 145.937455 
L 183.675807 134.941091 
L 184.975725 134.941091 
L 185.300704 145.937455 
L 185.625684 123.944727 
L 186.275643 145.937455 
L 186.600622 123.944727 
L 186.925602 134.941091 
L 187.250581 134.941091 
L 187.575561 123.944727 
L 187.900541 145.937455 
L 188.22552 134.941091 
L 188.5505 134.941091 
L 189.200459 156.933818 
L 189.525438 134.941091 
L 189.850418 145.937455 
L 190.500377 145.937455 
L 190.825356 134.941091 
L 191.150336 156.933818 
L 191.475315 156.933818 
L 191.800295 145.937455 
L 192.125274 145.937455 
L 192.450254 156.933818 
L 192.775233 145.937455 
L 194.075152 145.937455 
L 194.400131 156.933818 
L 194.725111 145.937455 
L 195.37507 145.937455 
L 195.700049 134.941091 
L 197.324947 134.941091 
L 197.649926 145.937455 
L 198.299885 123.944727 
L 198.624865 134.941091 
L 198.949844 134.941091 
L 199.274824 145.937455 
L 199.924783 145.937455 
L 200.249762 134.941091 
L 200.574742 156.933818 
L 200.899722 145.937455 
L 201.224701 156.933818 
L 206.749353 156.933818 
L 207.074333 145.937455 
L 207.399312 156.933818 
L 207.724292 145.937455 
L 208.049271 156.933818 
L 208.374251 145.937455 
L 209.674169 145.937455 
L 209.999148 156.933818 
L 210.324128 145.937455 
L 210.649107 156.933818 
L 211.299066 156.933818 
L 211.624046 145.937455 
L 211.949025 156.933818 
L 222.67335 156.933818 
L 222.998329 145.937455 
L 223.323309 156.933818 
L 223.648288 145.937455 
L 223.973268 156.933818 
L 224.298247 156.933818 
L 224.623227 145.937455 
L 224.948206 156.933818 
L 225.598165 156.933818 
L 225.923145 145.937455 
L 226.248124 156.933818 
L 226.573104 156.933818 
L 226.898084 145.937455 
L 227.548043 145.937455 
L 227.873022 156.933818 
L 231.772776 156.933818 
L 232.097756 145.937455 
L 232.747715 145.937455 
L 233.072695 156.933818 
L 233.397674 134.941091 
L 233.722654 156.933818 
L 234.047633 134.941091 
L 234.372613 134.941091 
L 234.697592 156.933818 
L 235.022572 156.933818 
L 235.347551 145.937455 
L 235.672531 156.933818 
L 240.872203 156.933818 
L 241.197183 123.944727 
L 241.522162 134.941091 
L 242.172121 134.941091 
L 242.497101 156.933818 
L 242.82208 156.933818 
L 243.14706 134.941091 
L 243.472039 134.941091 
L 243.797019 156.933818 
L 244.121998 145.937455 
L 244.446978 145.937455 
L 244.771957 112.948364 
L 245.421916 156.933818 
L 245.746896 145.937455 
L 246.071876 101.952 
L 246.396855 156.933818 
L 246.721835 145.937455 
L 247.046814 156.933818 
L 267.195545 156.933818 
L 267.845504 134.941091 
L 268.170483 134.941091 
L 268.495463 145.937455 
L 268.820442 134.941091 
L 269.470401 156.933818 
L 269.795381 134.941091 
L 270.12036 145.937455 
L 270.770319 145.937455 
L 271.095299 156.933818 
L 271.420278 145.937455 
L 271.745258 156.933818 
L 273.370156 156.933818 
L 273.695135 145.937455 
L 274.020115 156.933818 
L 274.345094 156.933818 
L 274.670074 145.937455 
L 274.995053 156.933818 
L 275.320033 145.937455 
L 275.645012 156.933818 
L 275.969992 145.937455 
L 276.294971 156.933818 
L 276.619951 145.937455 
L 277.26991 145.937455 
L 277.594889 156.933818 
L 278.244848 134.941091 
L 278.569828 156.933818 
L 278.894808 145.937455 
L 279.869746 145.937455 
L 280.194726 134.941091 
L 280.844685 134.941091 
L 281.169664 156.933818 
L 281.819623 156.933818 
L 282.144603 145.937455 
L 282.469582 156.933818 
L 282.794562 156.933818 
L 283.119541 145.937455 
L 283.444521 156.933818 
L 283.7695 145.937455 
L 284.09448 156.933818 
L 285.069419 156.933818 
L 285.394398 145.937455 
L 285.719378 156.933818 
L 286.044357 156.933818 
L 286.369337 145.937455 
L 286.694316 156.933818 
L 287.019296 145.937455 
L 287.344275 156.933818 
L 288.319214 156.933818 
L 288.644193 145.937455 
L 289.294152 145.937455 
L 289.619132 134.941091 
L 290.59407 134.941091 
L 290.91905 145.937455 
L 291.244029 145.937455 
L 291.569009 134.941091 
L 292.218968 156.933818 
L 292.543948 145.937455 
L 292.868927 156.933818 
L 297.41864 156.933818 
L 297.74362 145.937455 
L 298.0686 156.933818 
L 300.018477 156.933818 
L 300.343456 145.937455 
L 300.668436 156.933818 
L 301.643374 156.933818 
L 301.968354 145.937455 
L 302.618313 145.937455 
L 302.943292 156.933818 
L 303.268272 145.937455 
L 304.56819 145.937455 
L 304.89317 123.944727 
L 305.218149 145.937455 
L 305.543129 145.937455 
L 305.868108 156.933818 
L 306.193088 145.937455 
L 306.518067 156.933818 
L 313.017658 156.933818 
L 313.342637 145.937455 
L 313.667617 145.937455 
L 313.992596 156.933818 
L 314.317576 145.937455 
L 314.642555 156.933818 
L 314.967535 156.933818 
L 315.292514 145.937455 
L 315.617494 156.933818 
L 315.942473 145.937455 
L 316.267453 156.933818 
L 316.592432 145.937455 
L 317.242391 145.937455 
L 317.567371 156.933818 
L 317.892351 156.933818 
L 318.21733 145.937455 
L 318.54231 156.933818 
L 319.192269 156.933818 
L 319.517248 145.937455 
L 319.842228 156.933818 
L 320.167207 156.933818 
L 320.492187 145.937455 
L 320.817166 156.933818 
L 321.142146 145.937455 
L 321.467125 156.933818 
L 321.792105 156.933818 
L 322.117084 145.937455 
L 322.442064 156.933818 
L 330.241572 156.933818 
L 330.566552 145.937455 
L 330.891532 156.933818 
L 350.065324 156.933818 
L 350.390303 145.937455 
L 350.715283 156.933818 
L 351.365242 156.933818 
L 351.690221 145.937455 
L 352.015201 156.933818 
L 352.34018 156.933818 
L 352.66516 145.937455 
L 352.990139 156.933818 
L 354.290057 156.933818 
L 354.615037 145.937455 
L 355.264996 145.937455 
L 355.589975 134.941091 
L 356.239934 134.941091 
L 356.564914 112.948364 
L 356.889894 134.941091 
L 357.214873 123.944727 
L 357.539853 134.941091 
L 357.864832 123.944727 
L 358.189812 123.944727 
L 358.514791 134.941091 
L 359.16475 112.948364 
L 359.814709 134.941091 
L 360.139689 90.955636 
L 360.464668 79.959273 
L 360.789648 112.948364 
L 361.114627 46.970182 
L 361.439607 156.933818 
L 361.764586 112.948364 
L 362.089566 145.937455 
L 362.414545 145.937455 
L 362.739525 112.948364 
L 363.064505 145.937455 
L 363.389484 156.933818 
L 363.714464 156.933818 
L 364.039443 134.941091 
L 364.364423 156.933818 
L 365.98932 156.933818 
L 366.3143 145.937455 
L 366.639279 90.955636 
L 366.964259 123.944727 
L 367.289238 134.941091 
L 368.264177 134.941091 
L 368.589156 123.944727 
L 368.914136 145.937455 
L 369.239115 134.941091 
L 369.564095 112.948364 
L 369.889075 112.948364 
L 370.214054 101.952 
L 370.539034 156.933818 
L 370.864013 156.933818 
L 371.188993 145.937455 
L 371.513972 156.933818 
L 389.712826 156.933818 
L 390.362785 134.941091 
L 391.012744 134.941091 
L 391.337723 112.948364 
L 391.662703 145.937455 
L 391.987682 156.933818 
L 392.637641 134.941091 
L 393.2876 134.941091 
L 393.61258 156.933818 
L 393.937559 134.941091 
L 394.262539 156.933818 
L 394.587518 145.937455 
L 394.912498 145.937455 
L 395.237477 134.941091 
L 395.887437 156.933818 
L 396.212416 134.941091 
L 396.537396 101.952 
L 396.862375 112.948364 
L 397.512334 112.948364 
L 397.837314 134.941091 
L 398.162293 112.948364 
L 398.487273 134.941091 
L 398.487273 134.941091 
" clip-path="url(#p06e59138f6)" style="fill: none; stroke: #1f77b4; stroke-width: 1.5; stroke-linecap: square"/>
   </g>
   <g id="line2d_24">
    <path d="M 73.832727 156.933818 
L 74.157707 155.244044 
L 74.482686 148.014851 
L 74.807666 150.717207 
L 75.132645 156.933818 
L 75.782604 156.933818 
L 76.432563 152.209047 
L 76.757543 156.467389 
L 77.082523 156.933818 
L 77.407502 152.717629 
L 77.732482 156.933818 
L 78.057461 156.933818 
L 78.382441 150.004276 
L 79.0324 156.933818 
L 79.357379 155.719636 
L 79.682359 156.933818 
L 80.007338 148.953207 
L 80.332318 156.933818 
L 80.657297 153.438807 
L 80.982277 156.79728 
L 81.307256 155.7288 
L 81.632236 156.933818 
L 81.957215 156.933818 
L 82.282195 148.18896 
L 82.607174 156.933818 
L 83.582113 156.933818 
L 83.907093 153.277527 
L 84.232072 156.933818 
L 84.557052 155.641745 
L 84.882031 155.247709 
L 85.207011 154.27728 
L 85.53199 153.760451 
L 85.85697 151.727956 
L 86.181949 155.862589 
L 86.506929 156.933818 
L 87.481867 156.933818 
L 87.806847 153.854836 
L 88.131826 156.933818 
L 88.456806 156.933818 
L 88.781785 151.848 
L 89.106765 144.212858 
L 89.431744 156.933818 
L 90.081704 156.933818 
L 90.406683 152.287855 
L 90.731663 156.933818 
L 91.381622 156.933818 
L 91.706601 156.307942 
L 92.031581 152.779942 
L 92.35656 156.933818 
L 92.68154 156.933818 
L 93.006519 145.166793 
L 93.331499 156.933818 
L 93.656478 156.933818 
L 93.981458 149.278516 
L 94.306437 156.933818 
L 94.631417 148.785513 
L 94.956396 156.933818 
L 95.281376 151.226705 
L 95.606355 150.949047 
L 95.931335 156.933818 
L 96.256314 155.302691 
L 96.581294 156.794531 
L 96.906274 156.933818 
L 97.556233 156.933818 
L 97.881212 154.450473 
L 98.206192 156.933818 
L 98.531171 153.063098 
L 98.856151 156.933818 
L 99.18113 152.504116 
L 99.50611 156.933818 
L 100.481048 156.933818 
L 100.806028 148.28976 
L 101.131007 156.933818 
L 101.455987 156.933818 
L 101.780966 154.265367 
L 102.430925 156.933818 
L 102.755905 156.933818 
L 103.080885 156.684567 
L 103.405864 156.933818 
L 103.730844 156.933818 
L 104.055823 154.017033 
L 104.380803 156.933818 
L 104.705782 152.751535 
L 105.030762 154.401906 
L 105.355741 156.933818 
L 107.305618 156.933818 
L 107.630598 148.193542 
L 107.955577 156.132916 
L 108.280557 155.178982 
L 108.605536 151.623491 
L 108.930516 144.568407 
L 109.255495 156.933818 
L 109.580475 152.501367 
L 109.905455 156.933818 
L 110.230434 156.933818 
L 110.555414 156.512291 
L 110.880393 156.933818 
L 111.530352 156.933818 
L 111.855332 155.887331 
L 112.180311 156.933818 
L 112.505291 156.933818 
L 112.83027 155.682982 
L 113.15525 149.474618 
L 113.480229 156.507709 
L 113.805209 156.731302 
L 114.130188 153.8136 
L 114.455168 156.933818 
L 115.105127 156.933818 
L 115.755086 148.778182 
L 116.080066 156.933818 
L 116.405045 155.619753 
L 116.730025 155.042444 
L 117.055004 156.933818 
L 118.029943 156.933818 
L 118.354922 150.372655 
L 118.679902 156.933818 
L 119.004881 153.987709 
L 119.329861 156.933818 
L 119.65484 156.037615 
L 119.97982 156.933818 
L 120.304799 156.560858 
L 120.629779 156.933818 
L 120.954758 156.561775 
L 121.279738 152.428058 
L 121.604717 156.933818 
L 121.929697 147.814167 
L 122.254676 156.933818 
L 123.229615 156.933818 
L 123.554595 155.54736 
L 123.879574 149.284931 
L 124.204554 156.933818 
L 124.529533 156.933818 
L 124.854513 155.815855 
L 125.179492 154.056436 
L 125.504472 154.422982 
L 125.829451 153.061265 
L 126.154431 156.933818 
L 126.47941 156.933818 
L 126.80439 148.969702 
L 127.129369 150.760276 
L 127.454349 147.636393 
L 128.104308 156.933818 
L 130.379165 156.933818 
L 130.704144 148.525265 
L 131.029124 156.933818 
L 131.679083 156.933818 
L 132.004062 155.408073 
L 132.329042 152.742371 
L 132.654021 156.933818 
L 133.30398 156.933818 
L 133.953939 149.167636 
L 134.278919 155.250458 
L 134.603898 156.933818 
L 134.928878 152.724044 
L 135.253857 151.679389 
L 135.578837 152.287855 
L 135.903817 154.051855 
L 136.228796 156.933818 
L 137.203735 156.933818 
L 137.528714 147.49344 
L 137.853694 156.035782 
L 138.178673 156.933818 
L 138.503653 156.933818 
L 138.828632 155.569353 
L 139.153612 151.124073 
L 139.478591 156.933818 
L 139.803571 147.418298 
L 140.12855 156.933818 
L 140.45353 156.933818 
L 141.103489 149.208873 
L 141.428468 149.720204 
L 141.753448 156.933818 
L 142.078428 156.933818 
L 142.403407 152.365745 
L 142.728387 152.862415 
L 143.053366 150.691549 
L 143.378346 152.512364 
L 143.703325 156.933818 
L 144.353284 150.137149 
L 144.678264 156.933818 
L 145.003243 153.548771 
L 145.328223 156.933818 
L 145.978182 156.933818 
L 146.303161 154.203971 
L 146.628141 143.487098 
L 146.95312 156.933818 
L 147.2781 135.632946 
L 147.603079 149.688131 
L 147.928059 143.937949 
L 148.253038 156.933818 
L 148.578018 154.466051 
L 148.902998 156.048611 
L 149.227977 156.933818 
L 149.552957 150.984785 
L 149.877936 156.933818 
L 150.202916 156.933818 
L 150.527895 140.694938 
L 150.852875 156.933818 
L 151.177854 149.01552 
L 151.502834 156.933818 
L 151.827813 153.978545 
L 152.152793 152.185222 
L 152.477772 156.933818 
L 152.802752 154.740044 
L 153.127731 151.544684 
L 153.452711 156.933818 
L 153.77769 148.9752 
L 154.10267 156.933818 
L 154.752629 151.427389 
L 155.402588 156.933818 
L 155.727568 156.933818 
L 156.052547 154.048189 
L 156.377527 156.933818 
L 157.677445 156.933818 
L 158.002424 151.269775 
L 158.327404 154.870167 
L 158.652383 156.933818 
L 159.302342 156.933818 
L 159.627322 155.122167 
L 159.952301 150.584334 
L 160.277281 150.508276 
L 160.60226 156.933818 
L 161.252219 156.933818 
L 161.577199 154.505455 
L 161.902179 154.345091 
L 162.227158 156.933818 
L 162.552138 153.191389 
L 162.877117 154.813353 
L 163.202097 154.177396 
L 163.527076 156.933818 
L 163.852056 156.933818 
L 164.177035 150.213207 
L 164.502015 156.933818 
L 164.826994 156.933818 
L 165.151974 156.136582 
L 165.476953 156.770705 
L 165.801933 156.933818 
L 166.126912 156.933818 
L 166.451892 153.436975 
L 166.776871 156.631418 
L 167.101851 156.933818 
L 167.42683 156.933818 
L 167.75181 154.072931 
L 168.07679 149.860407 
L 168.401769 149.887898 
L 168.726749 154.924233 
L 169.051728 155.007622 
L 169.376708 156.933818 
L 170.026667 156.933818 
L 170.351646 155.230298 
L 170.676626 156.933818 
L 171.001605 149.950211 
L 171.326585 155.479549 
L 171.651564 156.933818 
L 171.976544 150.037265 
L 172.301523 156.933818 
L 172.626503 156.933818 
L 172.951482 146.380058 
L 173.276462 156.933818 
L 173.601441 156.440815 
L 173.926421 150.898647 
L 174.57638 156.933818 
L 175.551319 156.933818 
L 175.876298 154.667651 
L 176.201278 156.933818 
L 176.526257 156.933818 
L 176.851237 155.009455 
L 177.176216 145.320742 
L 177.501196 153.435142 
L 177.826175 156.933818 
L 178.801114 156.933818 
L 179.126093 153.660567 
L 179.451073 156.933818 
L 179.776052 153.766865 
L 180.101032 156.933818 
L 180.426011 156.670822 
L 180.750991 156.933818 
L 181.075971 149.177716 
L 181.40095 156.933818 
L 182.050909 156.933818 
L 182.375889 156.521455 
L 182.700868 156.933818 
L 183.350827 156.933818 
L 183.675807 155.923069 
L 184.000786 156.933818 
L 184.325766 156.691898 
L 184.650745 155.356756 
L 184.975725 156.933818 
L 185.300704 145.788087 
L 185.625684 149.335331 
L 185.950663 149.290429 
L 186.275643 148.779098 
L 186.600622 156.933818 
L 187.250581 156.933818 
L 187.575561 154.825266 
L 187.900541 148.385062 
L 188.22552 145.139302 
L 188.5505 156.569105 
L 188.875479 156.933818 
L 189.200459 148.215535 
L 189.525438 147.964451 
L 189.850418 149.440713 
L 190.175397 146.094153 
L 190.500377 156.608509 
L 190.825356 156.933818 
L 191.150336 152.688305 
L 191.475315 156.252044 
L 191.800295 149.013687 
L 192.125274 156.933818 
L 193.750172 156.933818 
L 194.075152 152.542604 
L 194.400131 156.933818 
L 195.700049 156.933818 
L 196.025029 155.8296 
L 196.350008 153.676145 
L 196.674988 156.933818 
L 196.999967 155.977135 
L 197.324947 149.485615 
L 197.649926 155.075433 
L 197.974906 156.933818 
L 198.299885 156.933818 
L 198.624865 153.273862 
L 198.949844 156.933818 
L 199.274824 156.571854 
L 199.599803 156.933818 
L 199.924783 156.933818 
L 200.249762 149.648727 
L 200.574742 156.933818 
L 200.899722 156.933818 
L 201.224701 152.512364 
L 201.549681 152.475709 
L 201.87466 148.739695 
L 202.19964 152.067011 
L 202.524619 156.933818 
L 202.849599 152.034938 
L 203.174578 156.933818 
L 203.499558 155.50704 
L 203.824537 156.933818 
L 204.474496 153.659651 
L 204.799476 156.933818 
L 205.774414 156.933818 
L 206.099394 154.126996 
L 206.424373 156.671738 
L 206.749353 155.969804 
L 207.074333 156.933818 
L 207.399312 156.489382 
L 207.724292 155.24496 
L 208.049271 155.298109 
L 208.374251 156.933818 
L 208.69923 156.442647 
L 209.02421 149.901644 
L 209.349189 156.933818 
L 209.674169 153.639491 
L 209.999148 156.933818 
L 210.324128 150.178385 
L 210.649107 156.933818 
L 211.299066 156.933818 
L 211.624046 156.160407 
L 211.949025 147.989193 
L 212.274005 155.576684 
L 212.598984 154.503622 
L 212.923964 154.974633 
L 213.248943 142.480931 
L 213.573923 156.933818 
L 213.898903 156.933818 
L 214.223882 156.465556 
L 214.548862 156.933818 
L 214.873841 156.933818 
L 215.198821 146.134473 
L 215.5238 156.933818 
L 218.123636 156.933818 
L 218.448616 151.887404 
L 218.773595 156.933818 
L 219.098575 156.933818 
L 219.423554 139.279156 
L 219.748534 137.232 
L 220.073514 155.130415 
L 220.398493 156.933818 
L 220.723473 156.466473 
L 221.048452 154.845426 
L 221.373432 156.933818 
L 221.698411 149.265687 
L 222.023391 155.494211 
L 222.34837 156.933818 
L 223.973268 156.933818 
L 224.298247 155.503375 
L 224.623227 155.713222 
L 224.948206 153.766865 
L 225.273186 156.783535 
L 225.598165 156.933818 
L 225.923145 156.933818 
L 226.248124 137.299811 
L 226.573104 140.256 
L 226.898084 156.933818 
L 227.223063 147.89664 
L 227.548043 156.933818 
L 227.873022 156.933818 
L 228.198002 148.080829 
L 228.522981 153.586342 
L 228.847961 154.452305 
L 229.17294 156.933818 
L 229.49792 152.047767 
L 229.822899 156.933818 
L 230.147879 156.933818 
L 230.472858 155.705891 
L 230.797838 152.076174 
L 231.122817 156.933818 
L 231.447797 156.933818 
L 231.772776 154.517367 
L 232.097756 150.408393 
L 232.422735 156.933818 
L 232.747715 156.933818 
L 233.072695 156.032116 
L 233.397674 156.933818 
L 234.047633 156.933818 
L 234.372613 155.530866 
L 234.697592 156.933818 
L 235.347551 156.861425 
L 235.672531 149.875985 
L 235.99751 156.933818 
L 236.32249 156.933818 
L 236.647469 154.71072 
L 236.972449 156.933818 
L 237.297428 155.939564 
L 237.622408 152.83584 
L 237.947387 152.368495 
L 238.272367 153.335258 
L 238.922326 156.933818 
L 239.247305 156.933818 
L 239.572285 156.718473 
L 239.897265 156.933818 
L 240.222244 153.657818 
L 240.547224 156.933818 
L 240.872203 155.928567 
L 241.197183 156.650662 
L 241.522162 156.933818 
L 241.847142 156.035782 
L 242.172121 156.933818 
L 243.472039 156.933818 
L 243.797019 154.847258 
L 244.121998 138.610211 
L 244.446978 155.919404 
L 244.771957 156.933818 
L 245.096937 151.931389 
L 245.421916 154.836262 
L 245.746896 153.063098 
L 246.071876 156.933818 
L 246.396855 156.933818 
L 246.721835 156.017455 
L 247.046814 154.655738 
L 247.371794 156.56544 
L 247.696773 156.933818 
L 248.021753 156.429818 
L 248.346732 147.105818 
L 248.671712 156.933818 
L 248.996691 144.117556 
L 249.321671 145.017425 
L 249.64665 156.933818 
L 250.296609 156.933818 
L 250.621589 153.045687 
L 250.946568 142.824567 
L 251.271548 156.933818 
L 251.596527 147.84624 
L 251.921507 156.933818 
L 252.246486 155.215636 
L 252.571466 149.832916 
L 253.221425 152.719462 
L 253.546405 156.092596 
L 253.871384 151.830589 
L 254.196364 150.372655 
L 254.521343 154.971884 
L 254.846323 156.933818 
L 255.171302 146.824495 
L 255.821261 156.933818 
L 257.121179 156.933818 
L 257.446159 150.463375 
L 257.771138 156.933818 
L 258.096118 156.933818 
L 258.421097 152.038604 
L 258.746077 156.933818 
L 259.396036 156.933818 
L 259.721016 151.814095 
L 260.045995 156.933818 
L 260.370975 153.211549 
L 260.695954 156.136582 
L 261.020934 155.770036 
L 261.345913 156.933818 
L 261.670893 156.933818 
L 261.995872 151.709629 
L 262.320852 156.933818 
L 262.645831 156.933818 
L 262.970811 155.673818 
L 263.29579 153.550604 
L 263.62077 156.933818 
L 263.945749 149.155724 
L 264.270729 156.933818 
L 264.595708 142.713687 
L 264.920688 156.933818 
L 265.245667 148.438211 
L 265.570647 156.933818 
L 266.870565 156.933818 
L 267.195545 156.068771 
L 267.520524 149.805425 
L 267.845504 154.234211 
L 268.170483 148.183462 
L 268.495463 156.933818 
L 270.12036 156.933818 
L 270.44534 148.757105 
L 270.770319 156.933818 
L 271.095299 150.654895 
L 271.420278 156.34368 
L 271.745258 156.933818 
L 272.070238 156.933818 
L 272.395217 150.945382 
L 272.720197 156.933818 
L 273.045176 156.933818 
L 273.370156 156.156742 
L 273.695135 156.933818 
L 274.020115 155.139578 
L 274.345094 156.933818 
L 274.670074 152.027607 
L 274.995053 156.882502 
L 275.320033 152.521527 
L 275.645012 156.933818 
L 277.594889 156.933818 
L 277.919869 155.115753 
L 278.244848 151.055345 
L 278.569828 156.933818 
L 282.469582 156.933818 
L 282.794562 148.518851 
L 283.119541 156.933818 
L 283.444521 155.918487 
L 283.7695 156.933818 
L 284.09448 154.645658 
L 284.419459 154.516451 
L 284.744439 156.933818 
L 286.044357 156.933818 
L 286.369337 154.450473 
L 286.694316 156.4344 
L 287.019296 156.933818 
L 287.344275 156.933818 
L 287.994234 149.748611 
L 288.319214 156.933818 
L 288.644193 154.78128 
L 288.969173 156.072436 
L 289.294152 149.769687 
L 289.619132 156.933818 
L 289.944111 151.828756 
L 290.269091 156.933818 
L 290.91905 156.933818 
L 291.244029 153.062182 
L 291.569009 156.710225 
L 291.893989 154.783113 
L 292.218968 156.933818 
L 292.543948 156.933818 
L 292.868927 156.657076 
L 293.193907 155.021367 
L 293.843866 149.998778 
L 294.168845 156.933818 
L 294.493825 156.933818 
L 294.818804 155.975302 
L 295.143784 156.933818 
L 295.468763 154.486211 
L 295.793743 153.482793 
L 296.118722 156.933818 
L 298.718559 156.933818 
L 299.043538 153.288524 
L 299.368518 156.933818 
L 299.693497 156.933818 
L 300.018477 151.641818 
L 300.343456 156.7368 
L 300.668436 156.933818 
L 300.993415 150.707127 
L 301.318395 152.985207 
L 301.643374 156.933818 
L 301.968354 149.71104 
L 302.293333 151.251447 
L 302.618313 155.443811 
L 302.943292 156.026618 
L 303.268272 153.248204 
L 303.593251 156.159491 
L 303.918231 154.473382 
L 304.24321 156.933818 
L 305.543129 156.933818 
L 305.868108 155.400742 
L 306.193088 156.933818 
L 307.168026 156.933818 
L 307.493006 155.269702 
L 307.817985 156.933818 
L 308.142965 149.729367 
L 308.467944 156.933818 
L 308.792924 156.02112 
L 309.117903 156.933818 
L 310.417821 156.933818 
L 310.742801 144.048829 
L 311.067781 153.484625 
L 311.39276 156.933818 
L 311.71774 152.908233 
L 312.042719 156.933818 
L 312.367699 145.956698 
L 312.692678 156.933818 
L 313.017658 146.424044 
L 313.342637 155.737047 
L 313.667617 140.701353 
L 313.992596 156.933818 
L 314.642555 156.933818 
L 314.967535 154.555854 
L 315.292514 156.933818 
L 315.617494 156.933818 
L 315.942473 144.258676 
L 316.592432 156.933818 
L 317.242391 156.933818 
L 317.567371 148.952291 
L 317.892351 156.933818 
L 319.192269 156.933818 
L 319.842228 151.780189 
L 320.167207 156.933818 
L 320.817166 156.933818 
L 321.142146 155.979884 
L 321.467125 156.810109 
L 321.792105 152.599418 
L 322.117084 156.933818 
L 323.092023 156.933818 
L 323.417002 152.384073 
L 323.741982 150.062924 
L 324.066962 156.933818 
L 324.391941 154.724465 
L 324.716921 153.547855 
L 325.0419 155.651826 
L 325.36688 156.933818 
L 325.691859 156.933818 
L 326.016839 148.984364 
L 326.341818 156.933818 
L 326.666798 154.581513 
L 326.991777 156.933818 
L 327.641736 156.933818 
L 327.966716 156.687316 
L 328.291695 156.933818 
L 328.616675 152.836756 
L 328.941654 156.933818 
L 329.266634 156.933818 
L 329.591613 151.328422 
L 329.916593 156.816524 
L 330.566552 156.933818 
L 331.86647 156.933818 
L 332.19145 150.982036 
L 332.516429 156.933818 
L 333.816347 156.933818 
L 334.141327 156.001876 
L 334.466306 153.316015 
L 334.791286 156.933818 
L 335.116265 156.933818 
L 335.441245 151.673891 
L 335.766224 156.933818 
L 336.091204 156.700146 
L 336.416183 150.050095 
L 336.741163 156.933818 
L 337.066143 152.270444 
L 337.391122 156.933818 
L 337.716102 151.801266 
L 338.366061 156.933818 
L 338.69104 156.933818 
L 339.01602 153.311433 
L 339.340999 156.933818 
L 339.665979 143.50176 
L 339.990958 156.933818 
L 340.315938 156.933818 
L 340.640917 154.128829 
L 340.965897 156.933818 
L 341.290876 156.933818 
L 341.615856 152.733207 
L 341.940835 156.933818 
L 342.265815 150.284684 
L 342.590794 152.384989 
L 342.915774 148.772684 
L 343.240753 146.563331 
L 343.565733 156.933818 
L 343.890713 155.477716 
L 344.215692 150.115156 
L 344.540672 156.933818 
L 344.865651 155.922153 
L 345.190631 144.309993 
L 345.51561 142.103389 
L 345.84059 152.691971 
L 346.165569 156.933818 
L 346.490549 156.933818 
L 346.815528 154.560436 
L 347.140508 149.24736 
L 347.465487 156.933818 
L 347.790467 150.795098 
L 348.115446 154.632829 
L 348.440426 150.522022 
L 348.765405 156.933818 
L 349.415364 156.933818 
L 349.740344 150.311258 
L 350.065324 146.271011 
L 350.390303 146.66688 
L 350.715283 153.355418 
L 351.040262 152.176975 
L 351.365242 144.214691 
L 351.690221 156.933818 
L 352.990139 156.933818 
L 353.315119 155.04336 
L 353.640098 156.933818 
L 353.965078 156.933818 
L 354.290057 154.44864 
L 354.615037 155.955142 
L 354.940016 155.88 
L 355.264996 156.329018 
L 355.589975 152.238371 
L 355.914955 156.933818 
L 356.239934 147.932378 
L 356.564914 153.542356 
L 356.889894 156.24288 
L 357.214873 156.933818 
L 357.539853 153.798938 
L 357.864832 156.933818 
L 358.189812 156.933818 
L 358.514791 156.077018 
L 358.839771 155.871753 
L 359.16475 156.933818 
L 359.48973 156.933818 
L 359.814709 144.415375 
L 360.139689 156.933818 
L 360.464668 156.933818 
L 360.789648 149.127316 
L 361.114627 149.846662 
L 361.439607 138.880538 
L 361.764586 155.705891 
L 362.089566 151.279855 
L 362.414545 155.853426 
L 362.739525 156.933818 
L 363.064505 148.657222 
L 363.389484 156.933818 
L 363.714464 156.933818 
L 364.039443 151.718793 
L 364.364423 156.685484 
L 364.689402 156.933818 
L 365.339361 156.933818 
L 365.664341 155.923069 
L 365.98932 154.270865 
L 366.3143 151.682138 
L 366.639279 144.236684 
L 366.964259 156.933818 
L 367.289238 156.933818 
L 367.614218 151.615244 
L 367.939197 156.933818 
L 369.239115 156.933818 
L 369.564095 156.289614 
L 369.889075 151.587753 
L 370.539034 156.933818 
L 370.864013 156.383084 
L 371.188993 152.253033 
L 371.513972 156.933818 
L 371.838952 148.845076 
L 372.488911 156.672654 
L 372.81389 156.933818 
L 373.788829 156.933818 
L 374.113808 156.596596 
L 374.438788 153.871331 
L 374.763767 148.385062 
L 375.088747 150.391898 
L 375.413726 156.933818 
L 378.013563 156.933818 
L 378.338542 153.192305 
L 378.663522 156.933818 
L 378.988501 156.933818 
L 379.313481 156.036698 
L 379.63846 156.032116 
L 379.96344 156.933818 
L 380.613399 147.283593 
L 380.938378 156.178735 
L 381.263358 148.802007 
L 381.913317 156.543447 
L 382.238296 150.138065 
L 382.563276 150.462458 
L 382.888256 156.933818 
L 383.538215 156.933818 
L 383.863194 156.737716 
L 384.188174 156.933818 
L 384.513153 156.933818 
L 384.838133 146.314996 
L 385.163112 156.933818 
L 386.78801 156.933818 
L 387.112989 151.729789 
L 387.437969 156.933818 
L 387.762948 156.933818 
L 388.087928 155.880916 
L 388.412907 152.096334 
L 388.737887 156.933818 
L 389.062867 152.146735 
L 389.387846 152.507782 
L 389.712826 156.933818 
L 390.037805 156.933818 
L 390.362785 156.328102 
L 390.687764 156.933818 
L 391.662703 156.933818 
L 391.987682 149.788015 
L 392.312662 156.933818 
L 393.61258 156.933818 
L 393.937559 145.48752 
L 394.262539 156.933818 
L 394.587518 153.797106 
L 394.912498 156.933818 
L 395.237477 144.234851 
L 395.562457 156.933818 
L 395.887437 147.661135 
L 396.212416 154.654822 
L 396.537396 156.933818 
L 396.862375 156.137498 
L 397.187355 152.103666 
L 397.512334 151.986371 
L 397.837314 156.933818 
L 398.487273 156.933818 
L 398.487273 156.933818 
" clip-path="url(#p06e59138f6)" style="fill: none; stroke: #ff7f0e; stroke-width: 1.5; stroke-linecap: square"/>
   </g>
   <g id="patch_3">
    <path d="M 57.6 162.432 
L 57.6 41.472 
" style="fill: none; stroke: #000000; stroke-width: 0.8; stroke-linejoin: miter; stroke-linecap: square"/>
   </g>
   <g id="patch_4">
    <path d="M 414.72 162.432 
L 414.72 41.472 
" style="fill: none; stroke: #000000; stroke-width: 0.8; stroke-linejoin: miter; stroke-linecap: square"/>
   </g>
   <g id="patch_5">
    <path d="M 57.6 162.432 
L 414.72 162.432 
" style="fill: none; stroke: #000000; stroke-width: 0.8; stroke-linejoin: miter; stroke-linecap: square"/>
   </g>
   <g id="patch_6">
    <path d="M 57.6 41.472 
L 414.72 41.472 
" style="fill: none; stroke: #000000; stroke-width: 0.8; stroke-linejoin: miter; stroke-linecap: square"/>
   </g>
   <g id="legend_1">
    <g id="patch_7">
     <path d="M 64.6 78.82825 
L 138.125 78.82825 
Q 140.125 78.82825 140.125 76.82825 
L 140.125 48.472 
Q 140.125 46.472 138.125 46.472 
L 64.6 46.472 
Q 62.6 46.472 62.6 48.472 
L 62.6 76.82825 
Q 62.6 78.82825 64.6 78.82825 
z
" style="fill: #ffffff; opacity: 0.8; stroke: #cccccc; stroke-linejoin: miter"/>
    </g>
    <g id="line2d_25">
     <path d="M 66.6 54.570437 
L 76.6 54.570437 
L 86.6 54.570437 
" style="fill: none; stroke: #1f77b4; stroke-width: 1.5; stroke-linecap: square"/>
    </g>
    <g id="text_13">
     <!-- gps -->
     <g transform="translate(94.6 58.070437)scale(0.1 -0.1)">
      <defs>
       <path id="DejaVuSans-67" d="M 2906 1791 
Q 2906 2416 2648 2759 
Q 2391 3103 1925 3103 
Q 1463 3103 1205 2759 
Q 947 2416 947 1791 
Q 947 1169 1205 825 
Q 1463 481 1925 481 
Q 2391 481 2648 825 
Q 2906 1169 2906 1791 
z
M 3481 434 
Q 3481 -459 3084 -895 
Q 2688 -1331 1869 -1331 
Q 1566 -1331 1297 -1286 
Q 1028 -1241 775 -1147 
L 775 -588 
Q 1028 -725 1275 -790 
Q 1522 -856 1778 -856 
Q 2344 -856 2625 -561 
Q 2906 -266 2906 331 
L 2906 616 
Q 2728 306 2450 153 
Q 2172 0 1784 0 
Q 1141 0 747 490 
Q 353 981 353 1791 
Q 353 2603 747 3093 
Q 1141 3584 1784 3584 
Q 2172 3584 2450 3431 
Q 2728 3278 2906 2969 
L 2906 3500 
L 3481 3500 
L 3481 434 
z
" transform="scale(0.015625)"/>
       <path id="DejaVuSans-73" d="M 2834 3397 
L 2834 2853 
Q 2591 2978 2328 3040 
Q 2066 3103 1784 3103 
Q 1356 3103 1142 2972 
Q 928 2841 928 2578 
Q 928 2378 1081 2264 
Q 1234 2150 1697 2047 
L 1894 2003 
Q 2506 1872 2764 1633 
Q 3022 1394 3022 966 
Q 3022 478 2636 193 
Q 2250 -91 1575 -91 
Q 1294 -91 989 -36 
Q 684 19 347 128 
L 347 722 
Q 666 556 975 473 
Q 1284 391 1588 391 
Q 1994 391 2212 530 
Q 2431 669 2431 922 
Q 2431 1156 2273 1281 
Q 2116 1406 1581 1522 
L 1381 1569 
Q 847 1681 609 1914 
Q 372 2147 372 2553 
Q 372 3047 722 3315 
Q 1072 3584 1716 3584 
Q 2034 3584 2315 3537 
Q 2597 3491 2834 3397 
z
" transform="scale(0.015625)"/>
      </defs>
      <use xlink:href="#DejaVuSans-67"/>
      <use xlink:href="#DejaVuSans-70" x="63.476562"/>
      <use xlink:href="#DejaVuSans-73" x="126.953125"/>
     </g>
    </g>
    <g id="line2d_26">
     <path d="M 66.6 69.248562 
L 76.6 69.248562 
L 86.6 69.248562 
" style="fill: none; stroke: #ff7f0e; stroke-width: 1.5; stroke-linecap: square"/>
    </g>
    <g id="text_14">
     <!-- bmp280 -->
     <g transform="translate(94.6 72.748562)scale(0.1 -0.1)">
      <defs>
       <path id="DejaVuSans-62" d="M 3116 1747 
Q 3116 2381 2855 2742 
Q 2594 3103 2138 3103 
Q 1681 3103 1420 2742 
Q 1159 2381 1159 1747 
Q 1159 1113 1420 752 
Q 1681 391 2138 391 
Q 2594 391 2855 752 
Q 3116 1113 3116 1747 
z
M 1159 2969 
Q 1341 3281 1617 3432 
Q 1894 3584 2278 3584 
Q 2916 3584 3314 3078 
Q 3713 2572 3713 1747 
Q 3713 922 3314 415 
Q 2916 -91 2278 -91 
Q 1894 -91 1617 61 
Q 1341 213 1159 525 
L 1159 0 
L 581 0 
L 581 4863 
L 1159 4863 
L 1159 2969 
z
" transform="scale(0.015625)"/>
       <path id="DejaVuSans-6d" d="M 3328 2828 
Q 3544 3216 3844 3400 
Q 4144 3584 4550 3584 
Q 5097 3584 5394 3201 
Q 5691 2819 5691 2113 
L 5691 0 
L 5113 0 
L 5113 2094 
Q 5113 2597 4934 2840 
Q 4756 3084 4391 3084 
Q 3944 3084 3684 2787 
Q 3425 2491 3425 1978 
L 3425 0 
L 2847 0 
L 2847 2094 
Q 2847 2600 2669 2842 
Q 2491 3084 2119 3084 
Q 1678 3084 1418 2786 
Q 1159 2488 1159 1978 
L 1159 0 
L 581 0 
L 581 3500 
L 1159 3500 
L 1159 2956 
Q 1356 3278 1631 3431 
Q 1906 3584 2284 3584 
Q 2666 3584 2933 3390 
Q 3200 3197 3328 2828 
z
" transform="scale(0.015625)"/>
      </defs>
      <use xlink:href="#DejaVuSans-62"/>
      <use xlink:href="#DejaVuSans-6d" x="63.476562"/>
      <use xlink:href="#DejaVuSans-70" x="160.888672"/>
      <use xlink:href="#DejaVuSans-32" x="224.365234"/>
      <use xlink:href="#DejaVuSans-38" x="287.988281"/>
      <use xlink:href="#DejaVuSans-30" x="351.611328"/>
     </g>
    </g>
   </g>
  </g>
  <g id="axes_2">
   <g id="patch_8">
    <path d="M 57.6 307.584 
L 414.72 307.584 
L 414.72 186.624 
L 57.6 186.624 
z
" style="fill: #ffffff"/>
   </g>
   <g id="matplotlib.axis_3">
    <g id="xtick_7">
     <g id="line2d_27">
      <path d="M 73.832727 307.584 
L 73.832727 186.624 
" clip-path="url(#p0ae19c6473)" style="fill: none; stroke: #b0b0b0; stroke-width: 0.8; stroke-linecap: square"/>
     </g>
     <g id="line2d_28">
      <g>
       <use xlink:href="#m8f62480d28" x="73.832727" y="307.584" style="stroke: #000000; stroke-width: 0.8"/>
      </g>
     </g>
     <g id="text_15">
      <!-- 0 -->
      <g transform="translate(70.651477 322.182437)scale(0.1 -0.1)">
       <use xlink:href="#DejaVuSans-30"/>
      </g>
     </g>
    </g>
    <g id="xtick_8">
     <g id="line2d_29">
      <path d="M 138.828632 307.584 
L 138.828632 186.624 
" clip-path="url(#p0ae19c6473)" style="fill: none; stroke: #b0b0b0; stroke-width: 0.8; stroke-linecap: square"/>
     </g>
     <g id="line2d_30">
      <g>
       <use xlink:href="#m8f62480d28" x="138.828632" y="307.584" style="stroke: #000000; stroke-width: 0.8"/>
      </g>
     </g>
     <g id="text_16">
      <!-- 200 -->
      <g transform="translate(129.284882 322.182437)scale(0.1 -0.1)">
       <use xlink:href="#DejaVuSans-32"/>
       <use xlink:href="#DejaVuSans-30" x="63.623047"/>
       <use xlink:href="#DejaVuSans-30" x="127.246094"/>
      </g>
     </g>
    </g>
    <g id="xtick_9">
     <g id="line2d_31">
      <path d="M 203.824537 307.584 
L 203.824537 186.624 
" clip-path="url(#p0ae19c6473)" style="fill: none; stroke: #b0b0b0; stroke-width: 0.8; stroke-linecap: square"/>
     </g>
     <g id="line2d_32">
      <g>
       <use xlink:href="#m8f62480d28" x="203.824537" y="307.584" style="stroke: #000000; stroke-width: 0.8"/>
      </g>
     </g>
     <g id="text_17">
      <!-- 400 -->
      <g transform="translate(194.280787 322.182437)scale(0.1 -0.1)">
       <use xlink:href="#DejaVuSans-34"/>
       <use xlink:href="#DejaVuSans-30" x="63.623047"/>
       <use xlink:href="#DejaVuSans-30" x="127.246094"/>
      </g>
     </g>
    </g>
    <g id="xtick_10">
     <g id="line2d_33">
      <path d="M 268.820442 307.584 
L 268.820442 186.624 
" clip-path="url(#p0ae19c6473)" style="fill: none; stroke: #b0b0b0; stroke-width: 0.8; stroke-linecap: square"/>
     </g>
     <g id="line2d_34">
      <g>
       <use xlink:href="#m8f62480d28" x="268.820442" y="307.584" style="stroke: #000000; stroke-width: 0.8"/>
      </g>
     </g>
     <g id="text_18">
      <!-- 600 -->
      <g transform="translate(259.276692 322.182437)scale(0.1 -0.1)">
       <use xlink:href="#DejaVuSans-36"/>
       <use xlink:href="#DejaVuSans-30" x="63.623047"/>
       <use xlink:href="#DejaVuSans-30" x="127.246094"/>
      </g>
     </g>
    </g>
    <g id="xtick_11">
     <g id="line2d_35">
      <path d="M 333.816347 307.584 
L 333.816347 186.624 
" clip-path="url(#p0ae19c6473)" style="fill: none; stroke: #b0b0b0; stroke-width: 0.8; stroke-linecap: square"/>
     </g>
     <g id="line2d_36">
      <g>
       <use xlink:href="#m8f62480d28" x="333.816347" y="307.584" style="stroke: #000000; stroke-width: 0.8"/>
      </g>
     </g>
     <g id="text_19">
      <!-- 800 -->
      <g transform="translate(324.272597 322.182437)scale(0.1 -0.1)">
       <use xlink:href="#DejaVuSans-38"/>
       <use xlink:href="#DejaVuSans-30" x="63.623047"/>
       <use xlink:href="#DejaVuSans-30" x="127.246094"/>
      </g>
     </g>
    </g>
    <g id="xtick_12">
     <g id="line2d_37">
      <path d="M 398.812252 307.584 
L 398.812252 186.624 
" clip-path="url(#p0ae19c6473)" style="fill: none; stroke: #b0b0b0; stroke-width: 0.8; stroke-linecap: square"/>
     </g>
     <g id="line2d_38">
      <g>
       <use xlink:href="#m8f62480d28" x="398.812252" y="307.584" style="stroke: #000000; stroke-width: 0.8"/>
      </g>
     </g>
     <g id="text_20">
      <!-- 1000 -->
      <g transform="translate(386.087252 322.182437)scale(0.1 -0.1)">
       <use xlink:href="#DejaVuSans-31"/>
       <use xlink:href="#DejaVuSans-30" x="63.623047"/>
       <use xlink:href="#DejaVuSans-30" x="127.246094"/>
       <use xlink:href="#DejaVuSans-30" x="190.869141"/>
      </g>
     </g>
    </g>
    <g id="text_21">
     <!-- time [s] -->
     <g transform="translate(216.768594 335.860562)scale(0.1 -0.1)">
      <defs>
       <path id="DejaVuSans-74" d="M 1172 4494 
L 1172 3500 
L 2356 3500 
L 2356 3053 
L 1172 3053 
L 1172 1153 
Q 1172 725 1289 603 
Q 1406 481 1766 481 
L 2356 481 
L 2356 0 
L 1766 0 
Q 1100 0 847 248 
Q 594 497 594 1153 
L 594 3053 
L 172 3053 
L 172 3500 
L 594 3500 
L 594 4494 
L 1172 4494 
z
" transform="scale(0.015625)"/>
       <path id="DejaVuSans-69" d="M 603 3500 
L 1178 3500 
L 1178 0 
L 603 0 
L 603 3500 
z
M 603 4863 
L 1178 4863 
L 1178 4134 
L 603 4134 
L 603 4863 
z
" transform="scale(0.015625)"/>
      </defs>
      <use xlink:href="#DejaVuSans-74"/>
      <use xlink:href="#DejaVuSans-69" x="39.208984"/>
      <use xlink:href="#DejaVuSans-6d" x="66.992188"/>
      <use xlink:href="#DejaVuSans-65" x="164.404297"/>
      <use xlink:href="#DejaVuSans-20" x="225.927734"/>
      <use xlink:href="#DejaVuSans-5b" x="257.714844"/>
      <use xlink:href="#DejaVuSans-73" x="296.728516"/>
      <use xlink:href="#DejaVuSans-5d" x="348.828125"/>
     </g>
    </g>
   </g>
   <g id="matplotlib.axis_4">
    <g id="ytick_6">
     <g id="line2d_39">
      <path d="M 57.6 302.085818 
L 414.72 302.085818 
" clip-path="url(#p0ae19c6473)" style="fill: none; stroke: #b0b0b0; stroke-width: 0.8; stroke-linecap: square"/>
     </g>
     <g id="line2d_40">
      <g>
       <use xlink:href="#mab0d7e51ee" x="57.6" y="302.085818" style="stroke: #000000; stroke-width: 0.8"/>
      </g>
     </g>
     <g id="text_22">
      <!-- 0 -->
      <g transform="translate(44.2375 305.885037)scale(0.1 -0.1)">
       <use xlink:href="#DejaVuSans-30"/>
      </g>
     </g>
    </g>
    <g id="ytick_7">
     <g id="line2d_41">
      <path d="M 57.6 266.330344 
L 414.72 266.330344 
" clip-path="url(#p0ae19c6473)" style="fill: none; stroke: #b0b0b0; stroke-width: 0.8; stroke-linecap: square"/>
     </g>
     <g id="line2d_42">
      <g>
       <use xlink:href="#mab0d7e51ee" x="57.6" y="266.330344" style="stroke: #000000; stroke-width: 0.8"/>
      </g>
     </g>
     <g id="text_23">
      <!-- 5 -->
      <g transform="translate(44.2375 270.129563)scale(0.1 -0.1)">
       <defs>
        <path id="DejaVuSans-35" d="M 691 4666 
L 3169 4666 
L 3169 4134 
L 1269 4134 
L 1269 2991 
Q 1406 3038 1543 3061 
Q 1681 3084 1819 3084 
Q 2600 3084 3056 2656 
Q 3513 2228 3513 1497 
Q 3513 744 3044 326 
Q 2575 -91 1722 -91 
Q 1428 -91 1123 -41 
Q 819 9 494 109 
L 494 744 
Q 775 591 1075 516 
Q 1375 441 1709 441 
Q 2250 441 2565 725 
Q 2881 1009 2881 1497 
Q 2881 1984 2565 2268 
Q 2250 2553 1709 2553 
Q 1456 2553 1204 2497 
Q 953 2441 691 2322 
L 691 4666 
z
" transform="scale(0.015625)"/>
       </defs>
       <use xlink:href="#DejaVuSans-35"/>
      </g>
     </g>
    </g>
    <g id="ytick_8">
     <g id="line2d_43">
      <path d="M 57.6 230.57487 
L 414.72 230.57487 
" clip-path="url(#p0ae19c6473)" style="fill: none; stroke: #b0b0b0; stroke-width: 0.8; stroke-linecap: square"/>
     </g>
     <g id="line2d_44">
      <g>
       <use xlink:href="#mab0d7e51ee" x="57.6" y="230.57487" style="stroke: #000000; stroke-width: 0.8"/>
      </g>
     </g>
     <g id="text_24">
      <!-- 10 -->
      <g transform="translate(37.875 234.374089)scale(0.1 -0.1)">
       <use xlink:href="#DejaVuSans-31"/>
       <use xlink:href="#DejaVuSans-30" x="63.623047"/>
      </g>
     </g>
    </g>
    <g id="ytick_9">
     <g id="line2d_45">
      <path d="M 57.6 194.819396 
L 414.72 194.819396 
" clip-path="url(#p0ae19c6473)" style="fill: none; stroke: #b0b0b0; stroke-width: 0.8; stroke-linecap: square"/>
     </g>
     <g id="line2d_46">
      <g>
       <use xlink:href="#mab0d7e51ee" x="57.6" y="194.819396" style="stroke: #000000; stroke-width: 0.8"/>
      </g>
     </g>
     <g id="text_25">
      <!-- 15 -->
      <g transform="translate(37.875 198.618615)scale(0.1 -0.1)">
       <use xlink:href="#DejaVuSans-31"/>
       <use xlink:href="#DejaVuSans-35" x="63.623047"/>
      </g>
     </g>
    </g>
    <g id="text_26">
     <!-- energy [wh] -->
     <g transform="translate(31.795312 277.275875)rotate(-90)scale(0.1 -0.1)">
      <defs>
       <path id="DejaVuSans-6e" d="M 3513 2113 
L 3513 0 
L 2938 0 
L 2938 2094 
Q 2938 2591 2744 2837 
Q 2550 3084 2163 3084 
Q 1697 3084 1428 2787 
Q 1159 2491 1159 1978 
L 1159 0 
L 581 0 
L 581 3500 
L 1159 3500 
L 1159 2956 
Q 1366 3272 1645 3428 
Q 1925 3584 2291 3584 
Q 2894 3584 3203 3211 
Q 3513 2838 3513 2113 
z
" transform="scale(0.015625)"/>
       <path id="DejaVuSans-79" d="M 2059 -325 
Q 1816 -950 1584 -1140 
Q 1353 -1331 966 -1331 
L 506 -1331 
L 506 -850 
L 844 -850 
Q 1081 -850 1212 -737 
Q 1344 -625 1503 -206 
L 1606 56 
L 191 3500 
L 800 3500 
L 1894 763 
L 2988 3500 
L 3597 3500 
L 2059 -325 
z
" transform="scale(0.015625)"/>
       <path id="DejaVuSans-68" d="M 3513 2113 
L 3513 0 
L 2938 0 
L 2938 2094 
Q 2938 2591 2744 2837 
Q 2550 3084 2163 3084 
Q 1697 3084 1428 2787 
Q 1159 2491 1159 1978 
L 1159 0 
L 581 0 
L 581 4863 
L 1159 4863 
L 1159 2956 
Q 1366 3272 1645 3428 
Q 1925 3584 2291 3584 
Q 2894 3584 3203 3211 
Q 3513 2838 3513 2113 
z
" transform="scale(0.015625)"/>
      </defs>
      <use xlink:href="#DejaVuSans-65"/>
      <use xlink:href="#DejaVuSans-6e" x="61.523438"/>
      <use xlink:href="#DejaVuSans-65" x="124.902344"/>
      <use xlink:href="#DejaVuSans-72" x="186.425781"/>
      <use xlink:href="#DejaVuSans-67" x="225.789062"/>
      <use xlink:href="#DejaVuSans-79" x="289.265625"/>
      <use xlink:href="#DejaVuSans-20" x="348.445312"/>
      <use xlink:href="#DejaVuSans-5b" x="380.232422"/>
      <use xlink:href="#DejaVuSans-77" x="419.246094"/>
      <use xlink:href="#DejaVuSans-68" x="501.033203"/>
      <use xlink:href="#DejaVuSans-5d" x="564.412109"/>
     </g>
    </g>
   </g>
   <g id="line2d_47">
    <path d="M 73.832727 302.085818 
L 74.157707 301.910438 
L 74.482686 301.910438 
L 75.457625 301.384296 
L 75.782604 301.384296 
L 76.107584 301.208915 
L 76.432563 301.208915 
L 76.757543 301.033535 
L 77.082523 301.033535 
L 77.407502 300.858154 
L 78.057461 300.858154 
L 78.382441 300.682773 
L 78.70742 300.682773 
L 79.357379 300.332012 
L 79.682359 299.981251 
L 80.982277 299.279729 
L 82.932154 299.279729 
L 83.257133 299.104348 
L 84.232072 299.104348 
L 85.207011 298.578206 
L 85.53199 298.578206 
L 85.85697 298.402826 
L 86.831908 298.402826 
L 87.481867 298.052064 
L 92.35656 298.052064 
L 92.68154 297.876684 
L 93.006519 297.876684 
L 93.331499 297.701303 
L 94.631417 297.701303 
L 94.956396 297.525923 
L 111.855332 297.525923 
L 112.180311 297.350542 
L 113.480229 297.350542 
L 113.805209 297.175161 
L 114.130188 297.175161 
L 115.105127 296.64902 
L 115.755086 295.947497 
L 117.379984 295.070594 
L 119.329861 292.966027 
L 119.97982 292.089124 
L 120.629779 291.387602 
L 121.929697 289.458415 
L 122.254676 289.107654 
L 127.129369 281.390907 
L 127.454349 281.040146 
L 131.029124 275.427967 
L 131.679083 274.726445 
L 132.329042 273.849542 
L 133.62896 272.446497 
L 134.278919 271.394213 
L 134.603898 271.218833 
L 135.578837 270.166549 
L 135.903817 269.991168 
L 137.853694 267.886601 
L 138.178673 267.711221 
L 138.503653 267.711221 
L 139.153612 267.360459 
L 151.502834 267.360459 
L 151.827813 267.185079 
L 153.452711 267.185079 
L 153.77769 267.009698 
L 154.10267 267.009698 
L 154.752629 266.658937 
L 171.976544 266.658937 
L 172.626503 266.308176 
L 172.951482 265.957415 
L 173.276462 265.782034 
L 173.601441 265.431273 
L 174.2514 265.080512 
L 174.90136 264.378989 
L 175.551319 264.028228 
L 175.876298 264.028228 
L 176.201278 263.852847 
L 176.526257 263.852847 
L 176.851237 263.677467 
L 178.151155 263.677467 
L 178.476134 263.502086 
L 179.126093 263.502086 
L 179.451073 263.326706 
L 179.776052 263.326706 
L 180.750991 262.800564 
L 181.075971 262.449803 
L 183.350827 261.222138 
L 184.975725 259.468332 
L 185.300704 259.292952 
L 185.950663 258.416049 
L 186.275643 258.240668 
L 186.925602 257.363765 
L 187.250581 257.013004 
L 187.575561 256.486862 
L 187.900541 256.311482 
L 188.5505 255.609959 
L 188.875479 255.434579 
L 189.200459 255.434579 
L 189.525438 255.083817 
L 190.500377 254.557676 
L 190.825356 254.206914 
L 191.475315 254.206914 
L 192.125274 253.856153 
L 192.450254 253.856153 
L 194.075152 252.97925 
L 194.400131 252.97925 
L 195.37507 252.453108 
L 197.324947 250.348541 
L 197.649926 250.173161 
L 197.974906 249.822399 
L 198.624865 248.945496 
L 198.949844 248.594735 
L 199.924783 248.068593 
L 200.249762 247.717832 
L 200.574742 247.717832 
L 200.899722 247.542452 
L 206.749353 247.542452 
L 207.074333 247.367071 
L 207.399312 247.367071 
L 207.724292 247.19169 
L 208.049271 247.19169 
L 209.674169 246.314787 
L 209.999148 246.314787 
L 210.324128 246.139407 
L 211.299066 246.139407 
L 211.624046 245.964026 
L 222.67335 245.964026 
L 222.998329 245.788645 
L 223.323309 245.788645 
L 223.648288 245.613265 
L 224.298247 245.613265 
L 224.623227 245.437884 
L 225.598165 245.437884 
L 225.923145 245.262504 
L 226.573104 245.262504 
L 227.548043 244.736362 
L 231.772776 244.736362 
L 232.747715 244.21022 
L 233.072695 244.21022 
L 233.397674 243.859459 
L 233.722654 243.859459 
L 234.372613 243.157936 
L 235.022572 243.157936 
L 235.347551 242.982556 
L 240.872203 242.982556 
L 241.522162 242.105653 
L 242.172121 241.40413 
L 242.82208 241.40413 
L 243.472039 240.702608 
L 243.797019 240.702608 
L 244.446978 240.351847 
L 244.771957 239.650324 
L 245.096937 239.299563 
L 245.421916 239.299563 
L 245.746896 239.124183 
L 246.071876 238.24728 
L 246.396855 238.24728 
L 246.721835 238.071899 
L 267.195545 238.071899 
L 267.520524 237.896518 
L 268.170483 237.194996 
L 268.495463 237.019615 
L 268.820442 236.668854 
L 269.145422 236.493474 
L 269.470401 236.493474 
L 269.795381 236.142712 
L 270.770319 235.616571 
L 271.095299 235.616571 
L 271.420278 235.44119 
L 273.370156 235.44119 
L 273.695135 235.265809 
L 274.345094 235.265809 
L 274.670074 235.090429 
L 274.995053 235.090429 
L 275.320033 234.915048 
L 275.645012 234.915048 
L 275.969992 234.739668 
L 276.294971 234.739668 
L 277.26991 234.213526 
L 277.594889 234.213526 
L 277.919869 234.038145 
L 278.244848 233.687384 
L 278.569828 233.687384 
L 279.869746 232.985862 
L 280.844685 231.933578 
L 281.819623 231.933578 
L 282.144603 231.758197 
L 282.794562 231.758197 
L 283.119541 231.582817 
L 283.444521 231.582817 
L 283.7695 231.407436 
L 285.069419 231.407436 
L 285.394398 231.232056 
L 286.044357 231.232056 
L 286.369337 231.056675 
L 286.694316 231.056675 
L 287.019296 230.881294 
L 288.319214 230.881294 
L 289.294152 230.355153 
L 290.59407 228.952108 
L 291.244029 228.601347 
L 291.569009 228.250585 
L 291.893989 228.075205 
L 292.218968 228.075205 
L 292.543948 227.899824 
L 297.41864 227.899824 
L 297.74362 227.724444 
L 300.018477 227.724444 
L 300.343456 227.549063 
L 301.643374 227.549063 
L 302.618313 227.022921 
L 302.943292 227.022921 
L 304.56819 226.146018 
L 304.89317 225.619876 
L 305.543129 225.269115 
L 305.868108 225.269115 
L 306.193088 225.093735 
L 313.017658 225.093735 
L 313.667617 224.742973 
L 313.992596 224.742973 
L 314.317576 224.567593 
L 314.967535 224.567593 
L 315.292514 224.392212 
L 315.617494 224.392212 
L 315.942473 224.216832 
L 316.267453 224.216832 
L 317.242391 223.69069 
L 317.892351 223.69069 
L 318.21733 223.515309 
L 319.192269 223.515309 
L 319.517248 223.339929 
L 320.167207 223.339929 
L 320.492187 223.164548 
L 320.817166 223.164548 
L 321.142146 222.989167 
L 321.792105 222.989167 
L 322.117084 222.813787 
L 330.241572 222.813787 
L 330.566552 222.638406 
L 350.065324 222.638406 
L 350.390303 222.463026 
L 351.365242 222.463026 
L 351.690221 222.287645 
L 352.34018 222.287645 
L 352.66516 222.112264 
L 354.290057 222.112264 
L 355.264996 221.586123 
L 356.239934 220.533839 
L 356.564914 219.832317 
L 356.889894 219.481555 
L 358.189812 217.552369 
L 358.514791 217.201608 
L 359.814709 215.09704 
L 360.789648 212.11557 
L 361.114627 210.361764 
L 361.439607 210.361764 
L 361.764586 209.660242 
L 362.414545 209.309481 
L 362.739525 208.607958 
L 363.064505 208.432578 
L 363.714464 208.432578 
L 364.039443 208.081816 
L 365.98932 208.081816 
L 366.3143 207.906436 
L 366.639279 206.854152 
L 367.289238 205.977249 
L 368.264177 204.924966 
L 368.589156 204.398824 
L 368.914136 204.223443 
L 369.239115 203.872682 
L 370.214054 201.592734 
L 370.864013 201.592734 
L 371.188993 201.417354 
L 389.712826 201.417354 
L 390.037805 201.241973 
L 391.012744 200.189689 
L 391.337723 199.488167 
L 391.662703 199.312786 
L 391.987682 199.312786 
L 392.312662 199.137406 
L 393.2876 198.085122 
L 393.61258 198.085122 
L 393.937559 197.734361 
L 394.262539 197.734361 
L 394.912498 197.3836 
L 395.237477 197.032839 
L 395.562457 196.857458 
L 395.887437 196.857458 
L 396.212416 196.506697 
L 396.862375 194.928271 
L 397.512334 193.525227 
L 397.837314 193.174465 
L 398.162293 192.472943 
L 398.487273 192.122182 
L 398.487273 192.122182 
" clip-path="url(#p0ae19c6473)" style="fill: none; stroke: #1f77b4; stroke-width: 1.5; stroke-linecap: square"/>
   </g>
   <g id="line2d_48">
    <path d="M 73.832727 302.085818 
L 74.157707 302.058866 
L 74.807666 301.817473 
L 76.107584 301.778672 
L 76.757543 301.695876 
L 78.057461 301.628627 
L 78.70742 301.463044 
L 79.682359 301.443678 
L 80.007338 301.316396 
L 81.957215 301.239257 
L 82.282195 301.099782 
L 84.882031 300.993975 
L 87.156888 300.800881 
L 88.456806 300.751774 
L 88.781785 300.670659 
L 89.106765 300.467769 
L 91.706601 300.383693 
L 92.35656 300.317438 
L 92.68154 300.317438 
L 93.006519 300.129772 
L 93.656478 300.129772 
L 93.981458 300.007674 
L 94.306437 300.007674 
L 94.631417 299.877717 
L 95.281376 299.786698 
L 95.931335 299.691245 
L 97.881212 299.623403 
L 98.856151 299.561668 
L 99.50611 299.491015 
L 100.481048 299.491015 
L 100.806028 299.353156 
L 103.730844 299.28733 
L 105.355741 299.133725 
L 107.305618 299.133725 
L 107.630598 298.994328 
L 108.605536 298.86887 
L 108.930516 298.671657 
L 112.505291 298.577548 
L 115.430106 298.318071 
L 115.755086 298.188 
L 118.029943 298.136876 
L 118.679902 298.032234 
L 119.65484 297.97095 
L 121.604717 297.887203 
L 121.929697 297.741757 
L 123.554595 297.719646 
L 123.879574 297.597655 
L 125.504472 297.493886 
L 126.154431 297.432122 
L 126.47941 297.432122 
L 127.779328 296.996291 
L 130.379165 296.996291 
L 130.704144 296.862179 
L 133.30398 296.770996 
L 136.228796 296.286345 
L 137.203735 296.286345 
L 137.528714 296.135785 
L 139.478591 296.007037 
L 139.803571 295.855277 
L 140.778509 295.794786 
L 141.428468 295.556533 
L 142.403407 295.483677 
L 145.003243 295.035239 
L 146.303161 294.991703 
L 146.628141 294.777242 
L 146.95312 294.777242 
L 147.2781 294.437515 
L 148.578018 294.075326 
L 150.202916 293.966322 
L 150.527895 293.707331 
L 150.852875 293.707331 
L 151.177854 293.581043 
L 151.827813 293.53391 
L 152.477772 293.458172 
L 154.427649 293.16359 
L 155.077609 293.030351 
L 157.677445 292.984327 
L 158.327404 292.861078 
L 159.627322 292.83218 
L 160.60226 292.628431 
L 162.227158 292.548417 
L 163.527076 292.410945 
L 164.826994 292.303764 
L 168.07679 292.069408 
L 168.726749 291.924985 
L 170.351646 291.86709 
L 170.676626 291.86709 
L 171.326585 291.73252 
L 172.626503 291.622522 
L 172.951482 291.4542 
L 173.926421 291.350087 
L 174.90136 291.306458 
L 176.851237 291.239624 
L 177.176216 291.054411 
L 178.151155 290.998611 
L 180.750991 290.891702 
L 181.075971 290.767995 
L 184.975725 290.716285 
L 185.950663 290.295436 
L 186.275643 290.165372 
L 187.575561 290.131748 
L 188.5505 289.801474 
L 188.875479 289.801474 
L 190.500377 289.2218 
L 191.475315 289.143209 
L 191.800295 289.016892 
L 196.025029 288.929248 
L 197.974906 288.7136 
L 199.924783 288.649455 
L 200.574742 288.533271 
L 201.224701 288.462747 
L 203.174578 288.105206 
L 207.074333 287.941389 
L 208.69923 287.873439 
L 209.349189 287.761289 
L 210.974087 287.601004 
L 211.624046 287.588668 
L 212.274005 287.424365 
L 212.923964 287.354363 
L 213.248943 287.123854 
L 214.873841 287.116381 
L 215.198821 286.944147 
L 219.098575 286.863662 
L 219.748534 286.267861 
L 223.323309 286.053078 
L 225.923145 285.95789 
L 226.573104 285.378758 
L 226.898084 285.378758 
L 227.223063 285.234621 
L 227.873022 285.234621 
L 228.522981 285.04004 
L 231.122817 284.825471 
L 231.772776 284.786934 
L 232.422735 284.682857 
L 235.347551 284.644949 
L 235.99751 284.532383 
L 237.297428 284.481067 
L 238.922326 284.261393 
L 243.472039 284.170838 
L 243.797019 284.137557 
L 244.121998 283.845313 
L 248.021753 283.589304 
L 248.346732 283.432559 
L 248.671712 283.432559 
L 249.321671 283.038098 
L 250.621589 282.976083 
L 250.946568 282.75106 
L 251.271548 282.75106 
L 251.596527 282.606121 
L 252.246486 282.578719 
L 253.221425 282.304696 
L 253.871384 282.209894 
L 254.521343 282.073958 
L 254.846323 282.073958 
L 255.496282 281.834661 
L 258.096118 281.731464 
L 258.746077 281.653395 
L 260.045995 281.571737 
L 261.020934 281.481097 
L 262.970811 281.377678 
L 264.270729 281.199673 
L 264.595708 280.972876 
L 264.920688 280.972876 
L 265.245667 280.837377 
L 267.195545 280.823582 
L 268.170483 280.527277 
L 270.12036 280.527277 
L 270.44534 280.396862 
L 272.070238 280.287307 
L 272.720197 280.191797 
L 274.345094 280.150793 
L 275.320033 280.00135 
L 277.919869 279.972323 
L 278.569828 279.878572 
L 282.469582 279.878572 
L 282.794562 279.744361 
L 286.044357 279.65312 
L 290.59407 279.181548 
L 292.868927 279.077521 
L 293.518886 278.971856 
L 294.168845 278.861243 
L 298.718559 278.751882 
L 299.368518 278.693743 
L 300.668436 278.6062 
L 301.318395 278.443913 
L 301.643374 278.443913 
L 302.618313 278.214327 
L 310.417821 277.909032 
L 310.742801 277.703531 
L 313.342637 277.222534 
L 313.667617 276.963643 
L 315.617494 276.925714 
L 316.267453 276.624402 
L 317.242391 276.624402 
L 317.567371 276.497099 
L 319.517248 276.451882 
L 320.167207 276.369687 
L 323.092023 276.283374 
L 324.716921 276.011983 
L 333.166388 275.571761 
L 335.116265 275.499199 
L 335.766224 275.41531 
L 336.741163 275.301793 
L 338.041081 275.102771 
L 339.340999 275.044997 
L 339.665979 274.830765 
L 341.290876 274.786027 
L 342.915774 274.41028 
L 343.240753 274.244876 
L 343.890713 274.221656 
L 344.540672 274.112902 
L 344.865651 274.096769 
L 345.84059 273.591251 
L 346.815528 273.553393 
L 347.140508 273.430809 
L 347.790467 273.332896 
L 349.740344 273.088315 
L 350.715283 272.697436 
L 351.040262 272.62157 
L 351.365242 272.418715 
L 354.940016 272.316511 
L 355.914955 272.231978 
L 356.564914 272.034322 
L 359.48973 271.942702 
L 359.814709 271.743044 
L 360.464668 271.743044 
L 361.114627 271.505506 
L 361.439607 271.217574 
L 362.739525 271.090585 
L 363.064505 270.958583 
L 365.664341 270.855328 
L 366.3143 270.729097 
L 366.639279 270.526592 
L 369.564095 270.43149 
L 370.214054 270.308577 
L 371.513972 270.225138 
L 372.163931 270.041762 
L 374.438788 269.983381 
L 375.088747 269.742696 
L 379.96344 269.654337 
L 382.238296 269.111398 
L 382.888256 269.008186 
L 384.513153 269.005061 
L 384.838133 268.835702 
L 388.087928 268.735908 
L 389.387846 268.511821 
L 391.662703 268.50216 
L 392.312662 268.388193 
L 393.61258 268.388193 
L 393.937559 268.205633 
L 394.912498 268.155604 
L 395.237477 267.953071 
L 395.562457 267.953071 
L 396.212416 267.76883 
L 397.187355 267.679098 
L 397.837314 267.600193 
L 398.487273 267.600193 
L 398.487273 267.600193 
" clip-path="url(#p0ae19c6473)" style="fill: none; stroke: #ff7f0e; stroke-width: 1.5; stroke-linecap: square"/>
   </g>
   <g id="patch_9">
    <path d="M 57.6 307.584 
L 57.6 186.624 
" style="fill: none; stroke: #000000; stroke-width: 0.8; stroke-linejoin: miter; stroke-linecap: square"/>
   </g>
   <g id="patch_10">
    <path d="M 414.72 307.584 
L 414.72 186.624 
" style="fill: none; stroke: #000000; stroke-width: 0.8; stroke-linejoin: miter; stroke-linecap: square"/>
   </g>
   <g id="patch_11">
    <path d="M 57.6 307.584 
L 414.72 307.584 
" style="fill: none; stroke: #000000; stroke-width: 0.8; stroke-linejoin: miter; stroke-linecap: square"/>
   </g>
   <g id="patch_12">
    <path d="M 57.6 186.624 
L 414.72 186.624 
" style="fill: none; stroke: #000000; stroke-width: 0.8; stroke-linejoin: miter; stroke-linecap: square"/>
   </g>
  </g>
 </g>
 <defs>
  <clipPath id="p06e59138f6">
   <rect x="57.6" y="41.472" width="357.12" height="120.96"/>
  </clipPath>
  <clipPath id="p0ae19c6473">
   <rect x="57.6" y="186.624" width="357.12" height="120.96"/>
  </clipPath>
 </defs>
</svg>
