<?xml version="1.0" encoding="utf-8" standalone="no"?>
<!DOCTYPE svg PUBLIC "-//W3C//DTD SVG 1.1//EN"
  "http://www.w3.org/Graphics/SVG/1.1/DTD/svg11.dtd">
<svg xmlns:xlink="http://www.w3.org/1999/xlink" width="460.8pt" height="345.6pt" viewBox="0 0 460.8 345.6" xmlns="http://www.w3.org/2000/svg" version="1.1">
 <metadata>
  <rdf:RDF xmlns:dc="http://purl.org/dc/elements/1.1/" xmlns:cc="http://creativecommons.org/ns#" xmlns:rdf="http://www.w3.org/1999/02/22-rdf-syntax-ns#">
   <cc:Work>
    <dc:type rdf:resource="http://purl.org/dc/dcmitype/StillImage"/>
    <dc:date>2021-12-15T13:31:32.126665</dc:date>
    <dc:format>image/svg+xml</dc:format>
    <dc:creator>
     <cc:Agent>
      <dc:title>Matplotlib v3.5.0, https://matplotlib.org/</dc:title>
     </cc:Agent>
    </dc:creator>
   </cc:Work>
  </rdf:RDF>
 </metadata>
 <defs>
  <style type="text/css">*{stroke-linejoin: round; stroke-linecap: butt}</style>
 </defs>
 <g id="figure_1">
  <g id="patch_1">
   <path d="M 0 345.6 
L 460.8 345.6 
L 460.8 0 
L 0 0 
z
" style="fill: #ffffff"/>
  </g>
  <g id="axes_1">
   <g id="patch_2">
    <path d="M 57.6 307.584 
L 414.72 307.584 
L 414.72 41.472 
L 57.6 41.472 
z
" style="fill: #ffffff"/>
   </g>
   <g id="matplotlib.axis_1">
    <g id="xtick_1">
     <g id="line2d_1">
      <path d="M 73.832727 307.584 
L 73.832727 41.472 
" clip-path="url(#p1bb4897866)" style="fill: none; stroke: #b0b0b0; stroke-width: 0.8; stroke-linecap: square"/>
     </g>
     <g id="line2d_2">
      <defs>
       <path id="m5aab8a05a9" d="M 0 0 
L 0 3.5 
" style="stroke: #000000; stroke-width: 0.8"/>
      </defs>
      <g>
       <use xlink:href="#m5aab8a05a9" x="73.832727" y="307.584" style="stroke: #000000; stroke-width: 0.8"/>
      </g>
     </g>
     <g id="text_1">
      <!-- 0 -->
      <g transform="translate(70.651477 322.182437)scale(0.1 -0.1)">
       <defs>
        <path id="DejaVuSans-30" d="M 2034 4250 
Q 1547 4250 1301 3770 
Q 1056 3291 1056 2328 
Q 1056 1369 1301 889 
Q 1547 409 2034 409 
Q 2525 409 2770 889 
Q 3016 1369 3016 2328 
Q 3016 3291 2770 3770 
Q 2525 4250 2034 4250 
z
M 2034 4750 
Q 2819 4750 3233 4129 
Q 3647 3509 3647 2328 
Q 3647 1150 3233 529 
Q 2819 -91 2034 -91 
Q 1250 -91 836 529 
Q 422 1150 422 2328 
Q 422 3509 836 4129 
Q 1250 4750 2034 4750 
z
" transform="scale(0.015625)"/>
       </defs>
       <use xlink:href="#DejaVuSans-30"/>
      </g>
     </g>
    </g>
    <g id="xtick_2">
     <g id="line2d_3">
      <path d="M 135.671688 307.584 
L 135.671688 41.472 
" clip-path="url(#p1bb4897866)" style="fill: none; stroke: #b0b0b0; stroke-width: 0.8; stroke-linecap: square"/>
     </g>
     <g id="line2d_4">
      <g>
       <use xlink:href="#m5aab8a05a9" x="135.671688" y="307.584" style="stroke: #000000; stroke-width: 0.8"/>
      </g>
     </g>
     <g id="text_2">
      <!-- 200 -->
      <g transform="translate(126.127938 322.182437)scale(0.1 -0.1)">
       <defs>
        <path id="DejaVuSans-32" d="M 1228 531 
L 3431 531 
L 3431 0 
L 469 0 
L 469 531 
Q 828 903 1448 1529 
Q 2069 2156 2228 2338 
Q 2531 2678 2651 2914 
Q 2772 3150 2772 3378 
Q 2772 3750 2511 3984 
Q 2250 4219 1831 4219 
Q 1534 4219 1204 4116 
Q 875 4013 500 3803 
L 500 4441 
Q 881 4594 1212 4672 
Q 1544 4750 1819 4750 
Q 2544 4750 2975 4387 
Q 3406 4025 3406 3419 
Q 3406 3131 3298 2873 
Q 3191 2616 2906 2266 
Q 2828 2175 2409 1742 
Q 1991 1309 1228 531 
z
" transform="scale(0.015625)"/>
       </defs>
       <use xlink:href="#DejaVuSans-32"/>
       <use xlink:href="#DejaVuSans-30" x="63.623047"/>
       <use xlink:href="#DejaVuSans-30" x="127.246094"/>
      </g>
     </g>
    </g>
    <g id="xtick_3">
     <g id="line2d_5">
      <path d="M 197.510649 307.584 
L 197.510649 41.472 
" clip-path="url(#p1bb4897866)" style="fill: none; stroke: #b0b0b0; stroke-width: 0.8; stroke-linecap: square"/>
     </g>
     <g id="line2d_6">
      <g>
       <use xlink:href="#m5aab8a05a9" x="197.510649" y="307.584" style="stroke: #000000; stroke-width: 0.8"/>
      </g>
     </g>
     <g id="text_3">
      <!-- 400 -->
      <g transform="translate(187.966899 322.182437)scale(0.1 -0.1)">
       <defs>
        <path id="DejaVuSans-34" d="M 2419 4116 
L 825 1625 
L 2419 1625 
L 2419 4116 
z
M 2253 4666 
L 3047 4666 
L 3047 1625 
L 3713 1625 
L 3713 1100 
L 3047 1100 
L 3047 0 
L 2419 0 
L 2419 1100 
L 313 1100 
L 313 1709 
L 2253 4666 
z
" transform="scale(0.015625)"/>
       </defs>
       <use xlink:href="#DejaVuSans-34"/>
       <use xlink:href="#DejaVuSans-30" x="63.623047"/>
       <use xlink:href="#DejaVuSans-30" x="127.246094"/>
      </g>
     </g>
    </g>
    <g id="xtick_4">
     <g id="line2d_7">
      <path d="M 259.34961 307.584 
L 259.34961 41.472 
" clip-path="url(#p1bb4897866)" style="fill: none; stroke: #b0b0b0; stroke-width: 0.8; stroke-linecap: square"/>
     </g>
     <g id="line2d_8">
      <g>
       <use xlink:href="#m5aab8a05a9" x="259.34961" y="307.584" style="stroke: #000000; stroke-width: 0.8"/>
      </g>
     </g>
     <g id="text_4">
      <!-- 600 -->
      <g transform="translate(249.80586 322.182437)scale(0.1 -0.1)">
       <defs>
        <path id="DejaVuSans-36" d="M 2113 2584 
Q 1688 2584 1439 2293 
Q 1191 2003 1191 1497 
Q 1191 994 1439 701 
Q 1688 409 2113 409 
Q 2538 409 2786 701 
Q 3034 994 3034 1497 
Q 3034 2003 2786 2293 
Q 2538 2584 2113 2584 
z
M 3366 4563 
L 3366 3988 
Q 3128 4100 2886 4159 
Q 2644 4219 2406 4219 
Q 1781 4219 1451 3797 
Q 1122 3375 1075 2522 
Q 1259 2794 1537 2939 
Q 1816 3084 2150 3084 
Q 2853 3084 3261 2657 
Q 3669 2231 3669 1497 
Q 3669 778 3244 343 
Q 2819 -91 2113 -91 
Q 1303 -91 875 529 
Q 447 1150 447 2328 
Q 447 3434 972 4092 
Q 1497 4750 2381 4750 
Q 2619 4750 2861 4703 
Q 3103 4656 3366 4563 
z
" transform="scale(0.015625)"/>
       </defs>
       <use xlink:href="#DejaVuSans-36"/>
       <use xlink:href="#DejaVuSans-30" x="63.623047"/>
       <use xlink:href="#DejaVuSans-30" x="127.246094"/>
      </g>
     </g>
    </g>
    <g id="xtick_5">
     <g id="line2d_9">
      <path d="M 321.188571 307.584 
L 321.188571 41.472 
" clip-path="url(#p1bb4897866)" style="fill: none; stroke: #b0b0b0; stroke-width: 0.8; stroke-linecap: square"/>
     </g>
     <g id="line2d_10">
      <g>
       <use xlink:href="#m5aab8a05a9" x="321.188571" y="307.584" style="stroke: #000000; stroke-width: 0.8"/>
      </g>
     </g>
     <g id="text_5">
      <!-- 800 -->
      <g transform="translate(311.644821 322.182437)scale(0.1 -0.1)">
       <defs>
        <path id="DejaVuSans-38" d="M 2034 2216 
Q 1584 2216 1326 1975 
Q 1069 1734 1069 1313 
Q 1069 891 1326 650 
Q 1584 409 2034 409 
Q 2484 409 2743 651 
Q 3003 894 3003 1313 
Q 3003 1734 2745 1975 
Q 2488 2216 2034 2216 
z
M 1403 2484 
Q 997 2584 770 2862 
Q 544 3141 544 3541 
Q 544 4100 942 4425 
Q 1341 4750 2034 4750 
Q 2731 4750 3128 4425 
Q 3525 4100 3525 3541 
Q 3525 3141 3298 2862 
Q 3072 2584 2669 2484 
Q 3125 2378 3379 2068 
Q 3634 1759 3634 1313 
Q 3634 634 3220 271 
Q 2806 -91 2034 -91 
Q 1263 -91 848 271 
Q 434 634 434 1313 
Q 434 1759 690 2068 
Q 947 2378 1403 2484 
z
M 1172 3481 
Q 1172 3119 1398 2916 
Q 1625 2713 2034 2713 
Q 2441 2713 2670 2916 
Q 2900 3119 2900 3481 
Q 2900 3844 2670 4047 
Q 2441 4250 2034 4250 
Q 1625 4250 1398 4047 
Q 1172 3844 1172 3481 
z
" transform="scale(0.015625)"/>
       </defs>
       <use xlink:href="#DejaVuSans-38"/>
       <use xlink:href="#DejaVuSans-30" x="63.623047"/>
       <use xlink:href="#DejaVuSans-30" x="127.246094"/>
      </g>
     </g>
    </g>
    <g id="xtick_6">
     <g id="line2d_11">
      <path d="M 383.027532 307.584 
L 383.027532 41.472 
" clip-path="url(#p1bb4897866)" style="fill: none; stroke: #b0b0b0; stroke-width: 0.8; stroke-linecap: square"/>
     </g>
     <g id="line2d_12">
      <g>
       <use xlink:href="#m5aab8a05a9" x="383.027532" y="307.584" style="stroke: #000000; stroke-width: 0.8"/>
      </g>
     </g>
     <g id="text_6">
      <!-- 1000 -->
      <g transform="translate(370.302532 322.182437)scale(0.1 -0.1)">
       <defs>
        <path id="DejaVuSans-31" d="M 794 531 
L 1825 531 
L 1825 4091 
L 703 3866 
L 703 4441 
L 1819 4666 
L 2450 4666 
L 2450 531 
L 3481 531 
L 3481 0 
L 794 0 
L 794 531 
z
" transform="scale(0.015625)"/>
       </defs>
       <use xlink:href="#DejaVuSans-31"/>
       <use xlink:href="#DejaVuSans-30" x="63.623047"/>
       <use xlink:href="#DejaVuSans-30" x="127.246094"/>
       <use xlink:href="#DejaVuSans-30" x="190.869141"/>
      </g>
     </g>
    </g>
   </g>
   <g id="matplotlib.axis_2">
    <g id="ytick_1">
     <g id="line2d_13">
      <path d="M 57.6 270.12446 
L 414.72 270.12446 
" clip-path="url(#p1bb4897866)" style="fill: none; stroke: #b0b0b0; stroke-width: 0.8; stroke-linecap: square"/>
     </g>
     <g id="line2d_14">
      <defs>
       <path id="mca8d0354d5" d="M 0 0 
L -3.5 0 
" style="stroke: #000000; stroke-width: 0.8"/>
      </defs>
      <g>
       <use xlink:href="#mca8d0354d5" x="57.6" y="270.12446" style="stroke: #000000; stroke-width: 0.8"/>
      </g>
     </g>
     <g id="text_7">
      <!-- −80 -->
      <g transform="translate(29.495313 273.923679)scale(0.1 -0.1)">
       <defs>
        <path id="DejaVuSans-2212" d="M 678 2272 
L 4684 2272 
L 4684 1741 
L 678 1741 
L 678 2272 
z
" transform="scale(0.015625)"/>
       </defs>
       <use xlink:href="#DejaVuSans-2212"/>
       <use xlink:href="#DejaVuSans-38" x="83.789062"/>
       <use xlink:href="#DejaVuSans-30" x="147.412109"/>
      </g>
     </g>
    </g>
    <g id="ytick_2">
     <g id="line2d_15">
      <path d="M 57.6 216.017595 
L 414.72 216.017595 
" clip-path="url(#p1bb4897866)" style="fill: none; stroke: #b0b0b0; stroke-width: 0.8; stroke-linecap: square"/>
     </g>
     <g id="line2d_16">
      <g>
       <use xlink:href="#mca8d0354d5" x="57.6" y="216.017595" style="stroke: #000000; stroke-width: 0.8"/>
      </g>
     </g>
     <g id="text_8">
      <!-- −60 -->
      <g transform="translate(29.495313 219.816813)scale(0.1 -0.1)">
       <use xlink:href="#DejaVuSans-2212"/>
       <use xlink:href="#DejaVuSans-36" x="83.789062"/>
       <use xlink:href="#DejaVuSans-30" x="147.412109"/>
      </g>
     </g>
    </g>
    <g id="ytick_3">
     <g id="line2d_17">
      <path d="M 57.6 161.910729 
L 414.72 161.910729 
" clip-path="url(#p1bb4897866)" style="fill: none; stroke: #b0b0b0; stroke-width: 0.8; stroke-linecap: square"/>
     </g>
     <g id="line2d_18">
      <g>
       <use xlink:href="#mca8d0354d5" x="57.6" y="161.910729" style="stroke: #000000; stroke-width: 0.8"/>
      </g>
     </g>
     <g id="text_9">
      <!-- −40 -->
      <g transform="translate(29.495313 165.709948)scale(0.1 -0.1)">
       <use xlink:href="#DejaVuSans-2212"/>
       <use xlink:href="#DejaVuSans-34" x="83.789062"/>
       <use xlink:href="#DejaVuSans-30" x="147.412109"/>
      </g>
     </g>
    </g>
    <g id="ytick_4">
     <g id="line2d_19">
      <path d="M 57.6 107.803864 
L 414.72 107.803864 
" clip-path="url(#p1bb4897866)" style="fill: none; stroke: #b0b0b0; stroke-width: 0.8; stroke-linecap: square"/>
     </g>
     <g id="line2d_20">
      <g>
       <use xlink:href="#mca8d0354d5" x="57.6" y="107.803864" style="stroke: #000000; stroke-width: 0.8"/>
      </g>
     </g>
     <g id="text_10">
      <!-- −20 -->
      <g transform="translate(29.495313 111.603083)scale(0.1 -0.1)">
       <use xlink:href="#DejaVuSans-2212"/>
       <use xlink:href="#DejaVuSans-32" x="83.789062"/>
       <use xlink:href="#DejaVuSans-30" x="147.412109"/>
      </g>
     </g>
    </g>
    <g id="ytick_5">
     <g id="line2d_21">
      <path d="M 57.6 53.696999 
L 414.72 53.696999 
" clip-path="url(#p1bb4897866)" style="fill: none; stroke: #b0b0b0; stroke-width: 0.8; stroke-linecap: square"/>
     </g>
     <g id="line2d_22">
      <g>
       <use xlink:href="#mca8d0354d5" x="57.6" y="53.696999" style="stroke: #000000; stroke-width: 0.8"/>
      </g>
     </g>
     <g id="text_11">
      <!-- 0 -->
      <g transform="translate(44.2375 57.496218)scale(0.1 -0.1)">
       <use xlink:href="#DejaVuSans-30"/>
      </g>
     </g>
    </g>
   </g>
   <g id="line2d_23">
    <path d="M 73.832727 53.696999 
L 74.141922 53.717898 
L 74.451117 53.568 
L 75.069506 53.933738 
L 75.687896 54.437879 
L 76.306286 54.54758 
L 76.615481 54.555899 
L 76.924675 54.394187 
L 77.23387 54.05514 
L 79.089039 54.082848 
L 79.398234 54.065805 
L 79.707429 54.183284 
L 80.016623 54.57159 
L 81.562597 54.955909 
L 81.871792 55.333529 
L 82.180987 56.131897 
L 82.490182 56.618229 
L 82.799377 57.826389 
L 83.108571 58.064235 
L 83.726961 60.145501 
L 84.345351 60.82896 
L 84.654545 61.497066 
L 85.272935 61.78354 
L 85.891325 63.069864 
L 86.200519 64.155699 
L 86.509714 64.329742 
L 86.818909 64.790348 
L 87.128104 65.800569 
L 88.055688 70.304311 
L 88.364883 70.975193 
L 89.601662 75.665693 
L 89.910857 77.352972 
L 90.529247 79.627849 
L 91.147636 83.598097 
L 91.766026 87.163064 
L 92.075221 88.259361 
L 92.69361 92.010498 
L 93.312 93.711617 
L 93.621195 94.166139 
L 93.93039 94.298228 
L 94.239584 94.64972 
L 94.548779 94.788885 
L 94.857974 94.640273 
L 95.785558 95.067941 
L 96.094753 95.236982 
L 97.022338 95.309867 
L 97.331532 95.543384 
L 97.949922 95.099212 
L 98.259117 94.662051 
L 98.877506 95.559976 
L 100.423481 98.941768 
L 100.732675 100.033691 
L 101.351065 104.489367 
L 102.587844 110.217707 
L 102.897039 110.658835 
L 103.206234 111.41171 
L 103.824623 112.181064 
L 104.133818 112.612658 
L 104.443013 113.323351 
L 104.752208 113.215565 
L 105.061403 112.982635 
L 105.988987 113.861623 
L 106.607377 114.088084 
L 106.916571 113.060887 
L 107.225766 113.667809 
L 107.534961 113.577654 
L 107.844156 113.759293 
L 108.153351 114.111101 
L 108.462545 114.18525 
L 108.77174 113.808982 
L 109.080935 113.725117 
L 109.39013 113.870077 
L 109.699325 114.597003 
L 110.008519 115.933894 
L 110.317714 118.239095 
L 110.936104 124.029274 
L 111.245299 124.747767 
L 111.554494 126.636841 
L 111.863688 127.789228 
L 112.172883 128.311448 
L 112.482078 128.474986 
L 112.791273 128.781523 
L 113.409662 128.165449 
L 113.718857 128.036315 
L 114.028052 128.08127 
L 114.337247 128.341207 
L 114.955636 127.81547 
L 115.264831 127.803296 
L 115.574026 127.989558 
L 115.883221 128.884259 
L 116.192416 129.065043 
L 116.50161 128.905834 
L 116.810805 129.723683 
L 117.429195 130.268088 
L 118.047584 129.74785 
L 118.356779 130.272235 
L 118.665974 130.347422 
L 118.975169 130.57864 
L 119.284364 130.613065 
L 119.902753 130.009841 
L 120.211948 129.948768 
L 120.830338 130.515221 
L 121.139532 130.566195 
L 121.448727 131.053495 
L 121.757922 130.717018 
L 122.376312 131.198434 
L 122.685506 130.936083 
L 123.303896 130.204355 
L 123.613091 130.333016 
L 124.231481 131.739795 
L 124.84987 132.015988 
L 125.159065 131.652818 
L 125.46826 131.568636 
L 125.777455 132.177541 
L 126.086649 132.229846 
L 126.705039 132.457636 
L 127.014234 132.206601 
L 127.323429 132.719467 
L 127.632623 132.825944 
L 127.941818 132.783538 
L 128.251013 132.597794 
L 128.560208 132.637427 
L 129.487792 133.809539 
L 129.796987 133.777481 
L 130.415377 134.480599 
L 131.033766 134.373222 
L 131.342961 134.478097 
L 131.652156 134.731791 
L 131.961351 134.630838 
L 132.270545 134.863857 
L 132.57974 134.703182 
L 132.888935 135.140051 
L 133.19813 134.88807 
L 133.507325 135.535662 
L 135.053299 137.090579 
L 135.671688 138.181961 
L 136.290078 138.486493 
L 137.836052 139.626682 
L 138.145247 139.733183 
L 138.454442 139.486951 
L 138.763636 139.68124 
L 139.382026 139.40845 
L 140.000416 139.488844 
L 140.30961 139.315792 
L 140.618805 139.525434 
L 140.928 139.467924 
L 141.54639 139.608737 
L 141.855584 139.539929 
L 142.164779 138.986868 
L 142.783169 139.45532 
L 143.401558 139.405406 
L 143.710753 138.973363 
L 144.329143 139.06397 
L 144.947532 139.465533 
L 145.256727 139.463482 
L 145.565922 139.303482 
L 146.184312 139.344582 
L 146.493506 139.163662 
L 146.802701 139.277806 
L 147.111896 139.060702 
L 148.039481 139.113592 
L 148.348675 138.891618 
L 148.967065 139.411404 
L 149.27626 139.366855 
L 149.894649 138.936143 
L 150.203844 138.447671 
L 150.513039 138.34746 
L 151.131429 137.524947 
L 151.440623 137.838607 
L 152.059013 138.001628 
L 152.677403 137.901349 
L 152.986597 137.900762 
L 153.604987 137.735466 
L 154.532571 138.474003 
L 154.841766 138.306474 
L 155.150961 138.582914 
L 155.460156 138.458176 
L 156.078545 138.562083 
L 156.38774 139.581413 
L 156.696935 140.162521 
L 157.00613 140.011969 
L 157.315325 141.010105 
L 157.624519 141.149947 
L 157.933714 141.110901 
L 159.788883 143.871885 
L 160.098078 144.974718 
L 160.407273 145.013201 
L 160.716468 146.013232 
L 161.025662 146.223818 
L 161.644052 146.155487 
L 161.953247 146.367361 
L 162.880831 149.29188 
L 163.190026 149.391867 
L 163.499221 149.853602 
L 163.808416 150.890154 
L 164.11761 151.050513 
L 164.426805 151.814681 
L 164.736 151.588379 
L 165.045195 151.829043 
L 165.35439 151.790784 
L 165.663584 151.923324 
L 165.972779 152.383479 
L 166.281974 152.210878 
L 166.591169 152.636588 
L 166.900364 152.782225 
L 167.209558 154.05757 
L 167.518753 154.585764 
L 167.827948 154.474801 
L 168.137143 154.974072 
L 168.446338 154.576476 
L 168.755532 154.38539 
L 169.064727 154.896721 
L 169.683117 156.434506 
L 169.992312 156.339392 
L 170.301506 155.974373 
L 171.229091 157.124233 
L 171.538286 157.42092 
L 171.847481 157.508549 
L 172.46587 158.248257 
L 172.775065 158.246972 
L 173.08426 158.571546 
L 173.393455 158.086186 
L 173.702649 156.575995 
L 174.321039 157.811977 
L 174.939429 158.250378 
L 175.248623 158.095497 
L 175.557818 158.299456 
L 175.867013 158.311292 
L 176.176208 158.695091 
L 177.722182 162.454165 
L 178.031377 163.586668 
L 178.340571 163.695263 
L 178.649766 163.152774 
L 179.268156 166.105995 
L 179.886545 168.065994 
L 180.19574 168.173239 
L 180.504935 169.32709 
L 180.81413 169.77665 
L 181.123325 170.745096 
L 181.432519 171.011796 
L 181.741714 171.522971 
L 182.360104 172.007092 
L 182.669299 172.622422 
L 182.978494 173.571346 
L 183.287688 173.499338 
L 183.596883 173.715584 
L 183.906078 172.416343 
L 184.215273 173.546884 
L 184.833662 174.550994 
L 185.142857 173.736642 
L 185.452052 175.124776 
L 185.761247 175.262229 
L 186.070442 175.540812 
L 186.688831 177.19389 
L 186.998026 178.085211 
L 187.307221 178.046931 
L 187.616416 178.616541 
L 187.92561 178.734875 
L 188.234805 178.639693 
L 188.544 179.233313 
L 188.853195 180.198038 
L 189.16239 180.454145 
L 189.471584 181.073669 
L 189.780779 181.082821 
L 190.399169 180.178311 
L 190.708364 182.187502 
L 191.017558 182.980146 
L 191.326753 183.294371 
L 191.635948 183.050755 
L 192.254338 184.233983 
L 192.563532 184.948486 
L 192.872727 185.95262 
L 193.181922 186.55767 
L 193.491117 186.327107 
L 193.800312 186.527278 
L 194.109506 187.117744 
L 194.418701 188.192823 
L 194.727896 188.831059 
L 195.037091 190.854229 
L 195.346286 191.229346 
L 195.964675 196.663434 
L 197.201455 207.92021 
L 198.129039 213.426823 
L 198.438234 214.32583 
L 198.747429 215.863774 
L 199.056623 215.842378 
L 199.365818 216.616761 
L 199.675013 216.762849 
L 199.984208 217.17016 
L 200.293403 217.830378 
L 200.602597 218.092661 
L 200.911792 218.965494 
L 201.220987 220.179178 
L 202.766961 223.821947 
L 203.076156 224.229212 
L 204.00374 230.404632 
L 204.312935 232.770162 
L 204.931325 234.963993 
L 205.858909 239.066465 
L 206.477299 242.392641 
L 206.786494 243.12554 
L 207.095688 244.688755 
L 207.404883 245.211541 
L 208.023273 249.642509 
L 208.332468 250.940736 
L 208.641662 251.684456 
L 209.878442 256.9794 
L 210.187636 258.693822 
L 210.496831 259.49413 
L 210.806026 260.882399 
L 211.424416 262.78669 
L 212.042805 265.323266 
L 212.352 265.383008 
L 213.279584 268.825557 
L 213.897974 269.769768 
L 214.207169 269.538166 
L 215.134753 270.130525 
L 215.443948 269.828541 
L 215.753143 269.023182 
L 216.371532 269.698707 
L 216.680727 269.48654 
L 216.989922 270.02558 
L 217.299117 271.222716 
L 217.608312 270.929118 
L 217.917506 271.893349 
L 218.226701 271.717907 
L 218.535896 271.700368 
L 218.845091 272.015068 
L 219.154286 273.652274 
L 219.463481 274.297993 
L 219.772675 275.930781 
L 220.08187 276.686 
L 221.627844 285.201046 
L 221.937039 285.723334 
L 222.555429 287.394809 
L 223.173818 287.895679 
L 223.483013 287.805455 
L 223.792208 287.58576 
L 224.410597 285.545885 
L 225.028987 283.179657 
L 225.338182 281.542429 
L 225.647377 280.7352 
L 226.574961 277.484097 
L 226.884156 276.51473 
L 227.502545 275.556405 
L 227.81174 275.462124 
L 228.120935 275.012994 
L 228.739325 274.858697 
L 229.048519 274.538071 
L 229.357714 275.219344 
L 229.666909 275.295001 
L 229.976104 275.067596 
L 230.285299 275.197114 
L 230.594494 274.901826 
L 230.903688 274.379153 
L 231.522078 275.129231 
L 231.831273 273.945982 
L 232.140468 273.789478 
L 232.449662 273.50296 
L 232.758857 273.857834 
L 233.068052 274.712609 
L 233.377247 274.824001 
L 233.686442 274.807455 
L 234.923221 279.395785 
L 235.232416 279.922626 
L 235.850805 282.595687 
L 236.16 282.534816 
L 236.469195 282.798046 
L 236.77839 282.520456 
L 237.087584 282.40602 
L 237.705974 281.165959 
L 238.015169 279.322808 
L 238.633558 278.190373 
L 238.942753 278.313669 
L 239.251948 278.019417 
L 239.561143 276.880763 
L 239.870338 276.799421 
L 240.179532 276.101624 
L 240.488727 275.747833 
L 240.797922 275.066108 
L 241.416312 275.260373 
L 242.034701 274.908635 
L 242.343896 274.472466 
L 242.653091 274.384924 
L 242.962286 274.49422 
L 243.271481 274.362131 
L 243.580675 274.063259 
L 244.199065 273.892305 
L 244.817455 275.161855 
L 245.126649 275.54669 
L 245.745039 277.001104 
L 247.291013 279.803929 
L 247.909403 280.79837 
L 248.218597 281.626341 
L 248.527792 282.018886 
L 248.836987 282.60723 
L 249.455377 282.755551 
L 250.073766 284.28107 
L 250.382961 284.697468 
L 250.692156 285.5143 
L 251.310545 285.895935 
L 251.928935 286.328406 
L 252.547325 286.198506 
L 252.856519 285.635275 
L 253.474909 286.026852 
L 253.784104 286.439281 
L 254.093299 286.640018 
L 254.402494 286.654919 
L 255.330078 287.523402 
L 255.639273 287.443932 
L 255.948468 288.160286 
L 256.876052 287.842316 
L 257.185247 287.910875 
L 257.494442 287.778765 
L 257.803636 287.795649 
L 259.34961 286.706613 
L 259.658805 287.114963 
L 259.968 287.146729 
L 260.277195 287.617705 
L 260.58639 287.461652 
L 261.823169 288.114338 
L 262.132364 287.904563 
L 262.441558 288.073376 
L 262.750753 287.897437 
L 263.059948 288.395288 
L 263.369143 288.588044 
L 263.678338 289.173369 
L 264.296727 289.411821 
L 264.605922 289.902773 
L 264.915117 289.472445 
L 265.224312 290.377788 
L 265.533506 290.510958 
L 265.842701 290.897506 
L 266.151896 291.480846 
L 266.461091 291.298979 
L 266.770286 291.742249 
L 267.079481 291.588226 
L 267.388675 291.885408 
L 267.69787 291.697611 
L 268.007065 291.68972 
L 268.31626 291.892464 
L 269.243844 291.89251 
L 269.553039 292.111123 
L 269.862234 291.752348 
L 270.171429 291.679778 
L 270.480623 291.898326 
L 270.789818 291.241469 
L 271.099013 291.033742 
L 271.408208 291.223478 
L 271.717403 290.196032 
L 272.026597 290.07276 
L 272.335792 290.822749 
L 272.644987 290.974587 
L 272.954182 290.907808 
L 273.572571 291.0385 
L 274.190961 290.782799 
L 274.500156 290.886774 
L 274.809351 289.92879 
L 275.118545 290.302173 
L 275.42774 290.451847 
L 275.736935 290.391967 
L 276.04613 290.818826 
L 276.355325 290.755995 
L 276.664519 289.577861 
L 276.973714 289.857978 
L 277.282909 290.951342 
L 277.592104 290.58292 
L 277.901299 290.653167 
L 278.210494 291.109897 
L 278.828883 291.378697 
L 279.138078 291.917556 
L 279.447273 291.695717 
L 279.756468 291.084534 
L 280.065662 291.433862 
L 280.374857 291.347066 
L 280.684052 291.535561 
L 280.993247 292.222245 
L 281.302442 291.58383 
L 281.920831 292.113444 
L 282.230026 291.884393 
L 282.539221 292.034202 
L 283.15761 293.144721 
L 283.466805 293.516819 
L 283.776 293.325936 
L 284.085195 293.855009 
L 284.39439 293.585919 
L 285.321974 293.653123 
L 285.631169 293.960834 
L 286.249558 295.488 
L 286.867948 293.479507 
L 287.177143 293.290157 
L 287.486338 294.157039 
L 287.795532 294.338816 
L 288.413922 293.595025 
L 288.723117 293.71715 
L 289.341506 291.805013 
L 289.650701 291.646142 
L 289.959896 290.836479 
L 290.578286 291.874135 
L 290.887481 292.363621 
L 291.196675 292.374602 
L 291.815065 292.057806 
L 292.12426 291.246787 
L 292.433455 292.105531 
L 292.742649 291.029234 
L 293.361039 289.934764 
L 293.670234 290.190013 
L 294.597818 289.850741 
L 294.907013 289.687541 
L 295.216208 289.917428 
L 295.525403 290.349133 
L 295.834597 290.571398 
L 296.143792 290.109596 
L 296.452987 289.88485 
L 296.762182 289.994103 
L 297.071377 289.889584 
L 297.380571 289.481169 
L 298.308156 290.336372 
L 298.617351 291.083858 
L 299.85413 292.312198 
L 300.163325 292.919975 
L 300.472519 293.261548 
L 300.781714 292.95483 
L 301.090909 293.118119 
L 301.400104 293.135412 
L 301.709299 293.363967 
L 302.018494 293.218915 
L 302.327688 292.8626 
L 302.636883 291.43578 
L 302.946078 290.893291 
L 303.255273 290.836479 
L 303.564468 290.526603 
L 304.182857 289.384564 
L 304.492052 289.393043 
L 304.801247 289.069349 
L 305.110442 289.210205 
L 306.347221 292.262736 
L 306.656416 292.372099 
L 306.96561 292.029806 
L 307.274805 292.319029 
L 307.584 293.133337 
L 307.893195 293.519841 
L 308.20239 294.089021 
L 308.511584 293.804487 
L 308.820779 293.800791 
L 309.439169 294.266199 
L 309.748364 294.613206 
L 310.057558 294.467252 
L 310.366753 293.75951 
L 311.603532 294.684805 
L 311.912727 293.621854 
L 312.221922 294.202894 
L 313.149506 294.906035 
L 313.458701 294.720608 
L 313.767896 294.210245 
L 314.077091 294.155145 
L 314.386286 293.340926 
L 314.695481 292.995749 
L 315.623065 289.929737 
L 315.93226 289.526754 
L 316.550649 289.413016 
L 316.859844 289.320472 
L 317.169039 288.965236 
L 317.478234 289.026739 
L 317.787429 288.583355 
L 318.096623 288.432781 
L 318.405818 286.722214 
L 319.024208 288.328195 
L 319.642597 288.698941 
L 320.260987 287.531429 
L 320.570182 287.500136 
L 321.188571 287.792156 
L 321.806961 286.243707 
L 322.116156 286.080258 
L 322.425351 286.406996 
L 322.734545 284.976908 
L 323.04374 284.872347 
L 323.352935 284.468461 
L 323.971325 284.465666 
L 324.280519 282.952814 
L 324.589714 282.359735 
L 324.898909 282.178028 
L 325.208104 281.817427 
L 325.517299 281.142038 
L 326.444883 280.424603 
L 326.754078 280.333884 
L 327.681662 278.364711 
L 327.990857 278.071947 
L 328.300052 278.151011 
L 328.609247 277.605005 
L 329.227636 276.006304 
L 329.536831 275.75748 
L 329.846026 274.438354 
L 330.464416 272.929563 
L 331.082805 270.233261 
L 331.392 270.14218 
L 332.01039 268.892853 
L 332.628779 266.521868 
L 332.937974 265.686729 
L 333.556364 264.93658 
L 334.174753 264.087508 
L 335.720727 259.59116 
L 336.029922 259.334131 
L 336.648312 258.063791 
L 336.957506 257.289568 
L 337.575896 256.400321 
L 337.885091 255.144885 
L 338.503481 254.720933 
L 338.812675 253.925925 
L 340.049455 252.760688 
L 340.358649 251.992484 
L 340.667844 251.628388 
L 340.977039 251.661169 
L 341.595429 250.974506 
L 341.904623 250.816717 
L 342.213818 249.444207 
L 342.523013 249.587117 
L 342.832208 249.579158 
L 343.450597 249.9263 
L 343.759792 249.978851 
L 344.068987 249.369451 
L 344.687377 249.532266 
L 344.996571 249.355697 
L 345.924156 249.344786 
L 346.233351 248.96083 
L 346.542545 248.981683 
L 346.85174 248.341712 
L 347.160935 247.958725 
L 347.47013 247.249273 
L 347.779325 247.523165 
L 348.088519 247.149108 
L 348.397714 247.399192 
L 349.016104 247.334738 
L 349.325299 246.76019 
L 349.943688 246.913021 
L 350.562078 247.604688 
L 350.871273 247.097593 
L 351.180468 246.97655 
L 351.489662 246.283893 
L 351.798857 246.7096 
L 352.108052 246.621295 
L 352.417247 246.935859 
L 352.726442 246.746325 
L 353.035636 246.876317 
L 353.344831 246.613336 
L 353.654026 245.992122 
L 353.963221 246.144928 
L 354.272416 245.939481 
L 354.890805 245.143523 
L 355.2 245.709211 
L 355.509195 245.344078 
L 355.81839 245.22101 
L 356.127584 244.669255 
L 356.436779 243.569711 
L 357.055169 242.190527 
L 357.364364 241.124939 
L 357.982753 241.207338 
L 358.291948 240.931528 
L 359.219532 239.326202 
L 359.528727 238.855921 
L 360.147117 239.708286 
L 360.456312 239.619009 
L 361.074701 240.620189 
L 361.693091 240.934707 
L 362.002286 241.605408 
L 362.311481 241.345446 
L 362.620675 240.471374 
L 362.92987 240.178677 
L 363.239065 240.331462 
L 363.857455 241.203551 
L 364.166649 241.111255 
L 364.475844 241.981361 
L 364.785039 241.972477 
L 365.094234 240.84144 
L 365.403429 240.779918 
L 366.021818 239.686575 
L 366.640208 240.663813 
L 367.258597 240.768962 
L 367.567792 241.139999 
L 367.876987 240.145897 
L 368.186182 240.531792 
L 368.495377 240.13395 
L 368.804571 240.733116 
L 369.422961 240.266715 
L 369.732156 241.174379 
L 370.041351 241.504723 
L 370.350545 241.48387 
L 370.65974 240.684238 
L 371.27813 241.218725 
L 371.587325 241.12726 
L 371.896519 241.41272 
L 372.205714 241.997796 
L 372.514909 241.918348 
L 373.133299 242.013622 
L 373.751688 241.573214 
L 374.060883 241.094955 
L 374.370078 241.697165 
L 374.988468 242.43331 
L 375.297662 242.361078 
L 375.606857 242.628928 
L 375.916052 241.733078 
L 376.225247 241.893751 
L 376.534442 241.722143 
L 376.843636 242.336099 
L 377.152831 242.446207 
L 377.462026 241.172823 
L 378.080416 243.303957 
L 378.698805 244.164324 
L 379.008 244.524519 
L 379.935584 244.846455 
L 380.553974 244.736707 
L 380.863169 245.083194 
L 381.172364 244.785763 
L 382.099948 244.502446 
L 382.409143 244.622588 
L 382.718338 244.069954 
L 383.027532 244.611788 
L 383.955117 244.461033 
L 384.264312 244.704154 
L 384.573506 244.359831 
L 384.882701 244.526524 
L 386.119481 244.458958 
L 386.428675 244.263475 
L 386.73787 244.481729 
L 387.35626 244.528215 
L 387.665455 244.673086 
L 387.974649 244.455779 
L 388.283844 244.679016 
L 388.593039 244.482405 
L 388.902234 244.707625 
L 389.520623 244.554616 
L 389.829818 244.569403 
L 390.139013 244.257545 
L 390.757403 244.097389 
L 391.066597 244.039697 
L 391.375792 244.120814 
L 391.684987 243.977723 
L 391.994182 244.268299 
L 392.303377 244.228284 
L 392.612571 243.97804 
L 392.921766 244.109744 
L 393.540156 243.996525 
L 393.849351 243.687732 
L 394.776935 243.60513 
L 396.013714 244.36195 
L 396.322909 244.277294 
L 396.632104 244.356247 
L 397.250494 244.185853 
L 397.559688 244.301463 
L 397.868883 244.09155 
L 398.178078 244.377889 
L 398.487273 244.420994 
L 398.487273 244.420994 
" clip-path="url(#p1bb4897866)" style="fill: none; stroke: #1f77b4; stroke-width: 1.5; stroke-linecap: square"/>
   </g>
   <g id="patch_3">
    <path d="M 57.6 307.584 
L 57.6 41.472 
" style="fill: none; stroke: #000000; stroke-width: 0.8; stroke-linejoin: miter; stroke-linecap: square"/>
   </g>
   <g id="patch_4">
    <path d="M 414.72 307.584 
L 414.72 41.472 
" style="fill: none; stroke: #000000; stroke-width: 0.8; stroke-linejoin: miter; stroke-linecap: square"/>
   </g>
   <g id="patch_5">
    <path d="M 57.6 307.584 
L 414.72 307.584 
" style="fill: none; stroke: #000000; stroke-width: 0.8; stroke-linejoin: miter; stroke-linecap: square"/>
   </g>
   <g id="patch_6">
    <path d="M 57.6 41.472 
L 414.72 41.472 
" style="fill: none; stroke: #000000; stroke-width: 0.8; stroke-linejoin: miter; stroke-linecap: square"/>
   </g>
   <g id="text_12">
    <!-- Altitude variation from start point, across time -->
    <g transform="translate(96.814687 35.472)scale(0.12 -0.12)">
     <defs>
      <path id="DejaVuSans-41" d="M 2188 4044 
L 1331 1722 
L 3047 1722 
L 2188 4044 
z
M 1831 4666 
L 2547 4666 
L 4325 0 
L 3669 0 
L 3244 1197 
L 1141 1197 
L 716 0 
L 50 0 
L 1831 4666 
z
" transform="scale(0.015625)"/>
      <path id="DejaVuSans-6c" d="M 603 4863 
L 1178 4863 
L 1178 0 
L 603 0 
L 603 4863 
z
" transform="scale(0.015625)"/>
      <path id="DejaVuSans-74" d="M 1172 4494 
L 1172 3500 
L 2356 3500 
L 2356 3053 
L 1172 3053 
L 1172 1153 
Q 1172 725 1289 603 
Q 1406 481 1766 481 
L 2356 481 
L 2356 0 
L 1766 0 
Q 1100 0 847 248 
Q 594 497 594 1153 
L 594 3053 
L 172 3053 
L 172 3500 
L 594 3500 
L 594 4494 
L 1172 4494 
z
" transform="scale(0.015625)"/>
      <path id="DejaVuSans-69" d="M 603 3500 
L 1178 3500 
L 1178 0 
L 603 0 
L 603 3500 
z
M 603 4863 
L 1178 4863 
L 1178 4134 
L 603 4134 
L 603 4863 
z
" transform="scale(0.015625)"/>
      <path id="DejaVuSans-75" d="M 544 1381 
L 544 3500 
L 1119 3500 
L 1119 1403 
Q 1119 906 1312 657 
Q 1506 409 1894 409 
Q 2359 409 2629 706 
Q 2900 1003 2900 1516 
L 2900 3500 
L 3475 3500 
L 3475 0 
L 2900 0 
L 2900 538 
Q 2691 219 2414 64 
Q 2138 -91 1772 -91 
Q 1169 -91 856 284 
Q 544 659 544 1381 
z
M 1991 3584 
L 1991 3584 
z
" transform="scale(0.015625)"/>
      <path id="DejaVuSans-64" d="M 2906 2969 
L 2906 4863 
L 3481 4863 
L 3481 0 
L 2906 0 
L 2906 525 
Q 2725 213 2448 61 
Q 2172 -91 1784 -91 
Q 1150 -91 751 415 
Q 353 922 353 1747 
Q 353 2572 751 3078 
Q 1150 3584 1784 3584 
Q 2172 3584 2448 3432 
Q 2725 3281 2906 2969 
z
M 947 1747 
Q 947 1113 1208 752 
Q 1469 391 1925 391 
Q 2381 391 2643 752 
Q 2906 1113 2906 1747 
Q 2906 2381 2643 2742 
Q 2381 3103 1925 3103 
Q 1469 3103 1208 2742 
Q 947 2381 947 1747 
z
" transform="scale(0.015625)"/>
      <path id="DejaVuSans-65" d="M 3597 1894 
L 3597 1613 
L 953 1613 
Q 991 1019 1311 708 
Q 1631 397 2203 397 
Q 2534 397 2845 478 
Q 3156 559 3463 722 
L 3463 178 
Q 3153 47 2828 -22 
Q 2503 -91 2169 -91 
Q 1331 -91 842 396 
Q 353 884 353 1716 
Q 353 2575 817 3079 
Q 1281 3584 2069 3584 
Q 2775 3584 3186 3129 
Q 3597 2675 3597 1894 
z
M 3022 2063 
Q 3016 2534 2758 2815 
Q 2500 3097 2075 3097 
Q 1594 3097 1305 2825 
Q 1016 2553 972 2059 
L 3022 2063 
z
" transform="scale(0.015625)"/>
      <path id="DejaVuSans-20" transform="scale(0.015625)"/>
      <path id="DejaVuSans-76" d="M 191 3500 
L 800 3500 
L 1894 563 
L 2988 3500 
L 3597 3500 
L 2284 0 
L 1503 0 
L 191 3500 
z
" transform="scale(0.015625)"/>
      <path id="DejaVuSans-61" d="M 2194 1759 
Q 1497 1759 1228 1600 
Q 959 1441 959 1056 
Q 959 750 1161 570 
Q 1363 391 1709 391 
Q 2188 391 2477 730 
Q 2766 1069 2766 1631 
L 2766 1759 
L 2194 1759 
z
M 3341 1997 
L 3341 0 
L 2766 0 
L 2766 531 
Q 2569 213 2275 61 
Q 1981 -91 1556 -91 
Q 1019 -91 701 211 
Q 384 513 384 1019 
Q 384 1609 779 1909 
Q 1175 2209 1959 2209 
L 2766 2209 
L 2766 2266 
Q 2766 2663 2505 2880 
Q 2244 3097 1772 3097 
Q 1472 3097 1187 3025 
Q 903 2953 641 2809 
L 641 3341 
Q 956 3463 1253 3523 
Q 1550 3584 1831 3584 
Q 2591 3584 2966 3190 
Q 3341 2797 3341 1997 
z
" transform="scale(0.015625)"/>
      <path id="DejaVuSans-72" d="M 2631 2963 
Q 2534 3019 2420 3045 
Q 2306 3072 2169 3072 
Q 1681 3072 1420 2755 
Q 1159 2438 1159 1844 
L 1159 0 
L 581 0 
L 581 3500 
L 1159 3500 
L 1159 2956 
Q 1341 3275 1631 3429 
Q 1922 3584 2338 3584 
Q 2397 3584 2469 3576 
Q 2541 3569 2628 3553 
L 2631 2963 
z
" transform="scale(0.015625)"/>
      <path id="DejaVuSans-6f" d="M 1959 3097 
Q 1497 3097 1228 2736 
Q 959 2375 959 1747 
Q 959 1119 1226 758 
Q 1494 397 1959 397 
Q 2419 397 2687 759 
Q 2956 1122 2956 1747 
Q 2956 2369 2687 2733 
Q 2419 3097 1959 3097 
z
M 1959 3584 
Q 2709 3584 3137 3096 
Q 3566 2609 3566 1747 
Q 3566 888 3137 398 
Q 2709 -91 1959 -91 
Q 1206 -91 779 398 
Q 353 888 353 1747 
Q 353 2609 779 3096 
Q 1206 3584 1959 3584 
z
" transform="scale(0.015625)"/>
      <path id="DejaVuSans-6e" d="M 3513 2113 
L 3513 0 
L 2938 0 
L 2938 2094 
Q 2938 2591 2744 2837 
Q 2550 3084 2163 3084 
Q 1697 3084 1428 2787 
Q 1159 2491 1159 1978 
L 1159 0 
L 581 0 
L 581 3500 
L 1159 3500 
L 1159 2956 
Q 1366 3272 1645 3428 
Q 1925 3584 2291 3584 
Q 2894 3584 3203 3211 
Q 3513 2838 3513 2113 
z
" transform="scale(0.015625)"/>
      <path id="DejaVuSans-66" d="M 2375 4863 
L 2375 4384 
L 1825 4384 
Q 1516 4384 1395 4259 
Q 1275 4134 1275 3809 
L 1275 3500 
L 2222 3500 
L 2222 3053 
L 1275 3053 
L 1275 0 
L 697 0 
L 697 3053 
L 147 3053 
L 147 3500 
L 697 3500 
L 697 3744 
Q 697 4328 969 4595 
Q 1241 4863 1831 4863 
L 2375 4863 
z
" transform="scale(0.015625)"/>
      <path id="DejaVuSans-6d" d="M 3328 2828 
Q 3544 3216 3844 3400 
Q 4144 3584 4550 3584 
Q 5097 3584 5394 3201 
Q 5691 2819 5691 2113 
L 5691 0 
L 5113 0 
L 5113 2094 
Q 5113 2597 4934 2840 
Q 4756 3084 4391 3084 
Q 3944 3084 3684 2787 
Q 3425 2491 3425 1978 
L 3425 0 
L 2847 0 
L 2847 2094 
Q 2847 2600 2669 2842 
Q 2491 3084 2119 3084 
Q 1678 3084 1418 2786 
Q 1159 2488 1159 1978 
L 1159 0 
L 581 0 
L 581 3500 
L 1159 3500 
L 1159 2956 
Q 1356 3278 1631 3431 
Q 1906 3584 2284 3584 
Q 2666 3584 2933 3390 
Q 3200 3197 3328 2828 
z
" transform="scale(0.015625)"/>
      <path id="DejaVuSans-73" d="M 2834 3397 
L 2834 2853 
Q 2591 2978 2328 3040 
Q 2066 3103 1784 3103 
Q 1356 3103 1142 2972 
Q 928 2841 928 2578 
Q 928 2378 1081 2264 
Q 1234 2150 1697 2047 
L 1894 2003 
Q 2506 1872 2764 1633 
Q 3022 1394 3022 966 
Q 3022 478 2636 193 
Q 2250 -91 1575 -91 
Q 1294 -91 989 -36 
Q 684 19 347 128 
L 347 722 
Q 666 556 975 473 
Q 1284 391 1588 391 
Q 1994 391 2212 530 
Q 2431 669 2431 922 
Q 2431 1156 2273 1281 
Q 2116 1406 1581 1522 
L 1381 1569 
Q 847 1681 609 1914 
Q 372 2147 372 2553 
Q 372 3047 722 3315 
Q 1072 3584 1716 3584 
Q 2034 3584 2315 3537 
Q 2597 3491 2834 3397 
z
" transform="scale(0.015625)"/>
      <path id="DejaVuSans-70" d="M 1159 525 
L 1159 -1331 
L 581 -1331 
L 581 3500 
L 1159 3500 
L 1159 2969 
Q 1341 3281 1617 3432 
Q 1894 3584 2278 3584 
Q 2916 3584 3314 3078 
Q 3713 2572 3713 1747 
Q 3713 922 3314 415 
Q 2916 -91 2278 -91 
Q 1894 -91 1617 61 
Q 1341 213 1159 525 
z
M 3116 1747 
Q 3116 2381 2855 2742 
Q 2594 3103 2138 3103 
Q 1681 3103 1420 2742 
Q 1159 2381 1159 1747 
Q 1159 1113 1420 752 
Q 1681 391 2138 391 
Q 2594 391 2855 752 
Q 3116 1113 3116 1747 
z
" transform="scale(0.015625)"/>
      <path id="DejaVuSans-2c" d="M 750 794 
L 1409 794 
L 1409 256 
L 897 -744 
L 494 -744 
L 750 256 
L 750 794 
z
" transform="scale(0.015625)"/>
      <path id="DejaVuSans-63" d="M 3122 3366 
L 3122 2828 
Q 2878 2963 2633 3030 
Q 2388 3097 2138 3097 
Q 1578 3097 1268 2742 
Q 959 2388 959 1747 
Q 959 1106 1268 751 
Q 1578 397 2138 397 
Q 2388 397 2633 464 
Q 2878 531 3122 666 
L 3122 134 
Q 2881 22 2623 -34 
Q 2366 -91 2075 -91 
Q 1284 -91 818 406 
Q 353 903 353 1747 
Q 353 2603 823 3093 
Q 1294 3584 2113 3584 
Q 2378 3584 2631 3529 
Q 2884 3475 3122 3366 
z
" transform="scale(0.015625)"/>
     </defs>
     <use xlink:href="#DejaVuSans-41"/>
     <use xlink:href="#DejaVuSans-6c" x="68.408203"/>
     <use xlink:href="#DejaVuSans-74" x="96.191406"/>
     <use xlink:href="#DejaVuSans-69" x="135.400391"/>
     <use xlink:href="#DejaVuSans-74" x="163.183594"/>
     <use xlink:href="#DejaVuSans-75" x="202.392578"/>
     <use xlink:href="#DejaVuSans-64" x="265.771484"/>
     <use xlink:href="#DejaVuSans-65" x="329.248047"/>
     <use xlink:href="#DejaVuSans-20" x="390.771484"/>
     <use xlink:href="#DejaVuSans-76" x="422.558594"/>
     <use xlink:href="#DejaVuSans-61" x="481.738281"/>
     <use xlink:href="#DejaVuSans-72" x="543.017578"/>
     <use xlink:href="#DejaVuSans-69" x="584.130859"/>
     <use xlink:href="#DejaVuSans-61" x="611.914062"/>
     <use xlink:href="#DejaVuSans-74" x="673.193359"/>
     <use xlink:href="#DejaVuSans-69" x="712.402344"/>
     <use xlink:href="#DejaVuSans-6f" x="740.185547"/>
     <use xlink:href="#DejaVuSans-6e" x="801.367188"/>
     <use xlink:href="#DejaVuSans-20" x="864.746094"/>
     <use xlink:href="#DejaVuSans-66" x="896.533203"/>
     <use xlink:href="#DejaVuSans-72" x="931.738281"/>
     <use xlink:href="#DejaVuSans-6f" x="970.601562"/>
     <use xlink:href="#DejaVuSans-6d" x="1031.783203"/>
     <use xlink:href="#DejaVuSans-20" x="1129.195312"/>
     <use xlink:href="#DejaVuSans-73" x="1160.982422"/>
     <use xlink:href="#DejaVuSans-74" x="1213.082031"/>
     <use xlink:href="#DejaVuSans-61" x="1252.291016"/>
     <use xlink:href="#DejaVuSans-72" x="1313.570312"/>
     <use xlink:href="#DejaVuSans-74" x="1354.683594"/>
     <use xlink:href="#DejaVuSans-20" x="1393.892578"/>
     <use xlink:href="#DejaVuSans-70" x="1425.679688"/>
     <use xlink:href="#DejaVuSans-6f" x="1489.15625"/>
     <use xlink:href="#DejaVuSans-69" x="1550.337891"/>
     <use xlink:href="#DejaVuSans-6e" x="1578.121094"/>
     <use xlink:href="#DejaVuSans-74" x="1641.5"/>
     <use xlink:href="#DejaVuSans-2c" x="1680.708984"/>
     <use xlink:href="#DejaVuSans-20" x="1712.496094"/>
     <use xlink:href="#DejaVuSans-61" x="1744.283203"/>
     <use xlink:href="#DejaVuSans-63" x="1805.5625"/>
     <use xlink:href="#DejaVuSans-72" x="1860.542969"/>
     <use xlink:href="#DejaVuSans-6f" x="1899.40625"/>
     <use xlink:href="#DejaVuSans-73" x="1960.587891"/>
     <use xlink:href="#DejaVuSans-73" x="2012.6875"/>
     <use xlink:href="#DejaVuSans-20" x="2064.787109"/>
     <use xlink:href="#DejaVuSans-74" x="2096.574219"/>
     <use xlink:href="#DejaVuSans-69" x="2135.783203"/>
     <use xlink:href="#DejaVuSans-6d" x="2163.566406"/>
     <use xlink:href="#DejaVuSans-65" x="2260.978516"/>
    </g>
   </g>
  </g>
 </g>
 <defs>
  <clipPath id="p1bb4897866">
   <rect x="57.6" y="41.472" width="357.12" height="266.112"/>
  </clipPath>
 </defs>
</svg>
