<?xml version="1.0" encoding="utf-8" standalone="no"?>
<!DOCTYPE svg PUBLIC "-//W3C//DTD SVG 1.1//EN"
  "http://www.w3.org/Graphics/SVG/1.1/DTD/svg11.dtd">
<svg xmlns:xlink="http://www.w3.org/1999/xlink" width="460.8pt" height="345.6pt" viewBox="0 0 460.8 345.6" xmlns="http://www.w3.org/2000/svg" version="1.1">
 <metadata>
  <rdf:RDF xmlns:dc="http://purl.org/dc/elements/1.1/" xmlns:cc="http://creativecommons.org/ns#" xmlns:rdf="http://www.w3.org/1999/02/22-rdf-syntax-ns#">
   <cc:Work>
    <dc:type rdf:resource="http://purl.org/dc/dcmitype/StillImage"/>
    <dc:date>2021-11-19T14:01:53.961248</dc:date>
    <dc:format>image/svg+xml</dc:format>
    <dc:creator>
     <cc:Agent>
      <dc:title>Matplotlib v3.5.0, https://matplotlib.org/</dc:title>
     </cc:Agent>
    </dc:creator>
   </cc:Work>
  </rdf:RDF>
 </metadata>
 <defs>
  <style type="text/css">*{stroke-linejoin: round; stroke-linecap: butt}</style>
 </defs>
 <g id="figure_1">
  <g id="patch_1">
   <path d="M 0 345.6 
L 460.8 345.6 
L 460.8 0 
L 0 0 
z
" style="fill: #ffffff"/>
  </g>
  <g id="axes_1">
   <g id="patch_2">
    <path d="M 57.6 307.584 
L 414.72 307.584 
L 414.72 41.472 
L 57.6 41.472 
z
" style="fill: #ffffff"/>
   </g>
   <g id="matplotlib.axis_1">
    <g id="xtick_1">
     <g id="line2d_1">
      <path d="M 73.832727 307.584 
L 73.832727 41.472 
" clip-path="url(#p592386bce8)" style="fill: none; stroke: #b0b0b0; stroke-width: 0.8; stroke-linecap: square"/>
     </g>
     <g id="line2d_2">
      <defs>
       <path id="m7fd2488843" d="M 0 0 
L 0 3.5 
" style="stroke: #000000; stroke-width: 0.8"/>
      </defs>
      <g>
       <use xlink:href="#m7fd2488843" x="73.832727" y="307.584" style="stroke: #000000; stroke-width: 0.8"/>
      </g>
     </g>
     <g id="text_1">
      <!-- 0 -->
      <g transform="translate(70.651477 322.182437)scale(0.1 -0.1)">
       <defs>
        <path id="DejaVuSans-30" d="M 2034 4250 
Q 1547 4250 1301 3770 
Q 1056 3291 1056 2328 
Q 1056 1369 1301 889 
Q 1547 409 2034 409 
Q 2525 409 2770 889 
Q 3016 1369 3016 2328 
Q 3016 3291 2770 3770 
Q 2525 4250 2034 4250 
z
M 2034 4750 
Q 2819 4750 3233 4129 
Q 3647 3509 3647 2328 
Q 3647 1150 3233 529 
Q 2819 -91 2034 -91 
Q 1250 -91 836 529 
Q 422 1150 422 2328 
Q 422 3509 836 4129 
Q 1250 4750 2034 4750 
z
" transform="scale(0.015625)"/>
       </defs>
       <use xlink:href="#DejaVuSans-30"/>
      </g>
     </g>
    </g>
    <g id="xtick_2">
     <g id="line2d_3">
      <path d="M 138.828632 307.584 
L 138.828632 41.472 
" clip-path="url(#p592386bce8)" style="fill: none; stroke: #b0b0b0; stroke-width: 0.8; stroke-linecap: square"/>
     </g>
     <g id="line2d_4">
      <g>
       <use xlink:href="#m7fd2488843" x="138.828632" y="307.584" style="stroke: #000000; stroke-width: 0.8"/>
      </g>
     </g>
     <g id="text_2">
      <!-- 200 -->
      <g transform="translate(129.284882 322.182437)scale(0.1 -0.1)">
       <defs>
        <path id="DejaVuSans-32" d="M 1228 531 
L 3431 531 
L 3431 0 
L 469 0 
L 469 531 
Q 828 903 1448 1529 
Q 2069 2156 2228 2338 
Q 2531 2678 2651 2914 
Q 2772 3150 2772 3378 
Q 2772 3750 2511 3984 
Q 2250 4219 1831 4219 
Q 1534 4219 1204 4116 
Q 875 4013 500 3803 
L 500 4441 
Q 881 4594 1212 4672 
Q 1544 4750 1819 4750 
Q 2544 4750 2975 4387 
Q 3406 4025 3406 3419 
Q 3406 3131 3298 2873 
Q 3191 2616 2906 2266 
Q 2828 2175 2409 1742 
Q 1991 1309 1228 531 
z
" transform="scale(0.015625)"/>
       </defs>
       <use xlink:href="#DejaVuSans-32"/>
       <use xlink:href="#DejaVuSans-30" x="63.623047"/>
       <use xlink:href="#DejaVuSans-30" x="127.246094"/>
      </g>
     </g>
    </g>
    <g id="xtick_3">
     <g id="line2d_5">
      <path d="M 203.824537 307.584 
L 203.824537 41.472 
" clip-path="url(#p592386bce8)" style="fill: none; stroke: #b0b0b0; stroke-width: 0.8; stroke-linecap: square"/>
     </g>
     <g id="line2d_6">
      <g>
       <use xlink:href="#m7fd2488843" x="203.824537" y="307.584" style="stroke: #000000; stroke-width: 0.8"/>
      </g>
     </g>
     <g id="text_3">
      <!-- 400 -->
      <g transform="translate(194.280787 322.182437)scale(0.1 -0.1)">
       <defs>
        <path id="DejaVuSans-34" d="M 2419 4116 
L 825 1625 
L 2419 1625 
L 2419 4116 
z
M 2253 4666 
L 3047 4666 
L 3047 1625 
L 3713 1625 
L 3713 1100 
L 3047 1100 
L 3047 0 
L 2419 0 
L 2419 1100 
L 313 1100 
L 313 1709 
L 2253 4666 
z
" transform="scale(0.015625)"/>
       </defs>
       <use xlink:href="#DejaVuSans-34"/>
       <use xlink:href="#DejaVuSans-30" x="63.623047"/>
       <use xlink:href="#DejaVuSans-30" x="127.246094"/>
      </g>
     </g>
    </g>
    <g id="xtick_4">
     <g id="line2d_7">
      <path d="M 268.820442 307.584 
L 268.820442 41.472 
" clip-path="url(#p592386bce8)" style="fill: none; stroke: #b0b0b0; stroke-width: 0.8; stroke-linecap: square"/>
     </g>
     <g id="line2d_8">
      <g>
       <use xlink:href="#m7fd2488843" x="268.820442" y="307.584" style="stroke: #000000; stroke-width: 0.8"/>
      </g>
     </g>
     <g id="text_4">
      <!-- 600 -->
      <g transform="translate(259.276692 322.182437)scale(0.1 -0.1)">
       <defs>
        <path id="DejaVuSans-36" d="M 2113 2584 
Q 1688 2584 1439 2293 
Q 1191 2003 1191 1497 
Q 1191 994 1439 701 
Q 1688 409 2113 409 
Q 2538 409 2786 701 
Q 3034 994 3034 1497 
Q 3034 2003 2786 2293 
Q 2538 2584 2113 2584 
z
M 3366 4563 
L 3366 3988 
Q 3128 4100 2886 4159 
Q 2644 4219 2406 4219 
Q 1781 4219 1451 3797 
Q 1122 3375 1075 2522 
Q 1259 2794 1537 2939 
Q 1816 3084 2150 3084 
Q 2853 3084 3261 2657 
Q 3669 2231 3669 1497 
Q 3669 778 3244 343 
Q 2819 -91 2113 -91 
Q 1303 -91 875 529 
Q 447 1150 447 2328 
Q 447 3434 972 4092 
Q 1497 4750 2381 4750 
Q 2619 4750 2861 4703 
Q 3103 4656 3366 4563 
z
" transform="scale(0.015625)"/>
       </defs>
       <use xlink:href="#DejaVuSans-36"/>
       <use xlink:href="#DejaVuSans-30" x="63.623047"/>
       <use xlink:href="#DejaVuSans-30" x="127.246094"/>
      </g>
     </g>
    </g>
    <g id="xtick_5">
     <g id="line2d_9">
      <path d="M 333.816347 307.584 
L 333.816347 41.472 
" clip-path="url(#p592386bce8)" style="fill: none; stroke: #b0b0b0; stroke-width: 0.8; stroke-linecap: square"/>
     </g>
     <g id="line2d_10">
      <g>
       <use xlink:href="#m7fd2488843" x="333.816347" y="307.584" style="stroke: #000000; stroke-width: 0.8"/>
      </g>
     </g>
     <g id="text_5">
      <!-- 800 -->
      <g transform="translate(324.272597 322.182437)scale(0.1 -0.1)">
       <defs>
        <path id="DejaVuSans-38" d="M 2034 2216 
Q 1584 2216 1326 1975 
Q 1069 1734 1069 1313 
Q 1069 891 1326 650 
Q 1584 409 2034 409 
Q 2484 409 2743 651 
Q 3003 894 3003 1313 
Q 3003 1734 2745 1975 
Q 2488 2216 2034 2216 
z
M 1403 2484 
Q 997 2584 770 2862 
Q 544 3141 544 3541 
Q 544 4100 942 4425 
Q 1341 4750 2034 4750 
Q 2731 4750 3128 4425 
Q 3525 4100 3525 3541 
Q 3525 3141 3298 2862 
Q 3072 2584 2669 2484 
Q 3125 2378 3379 2068 
Q 3634 1759 3634 1313 
Q 3634 634 3220 271 
Q 2806 -91 2034 -91 
Q 1263 -91 848 271 
Q 434 634 434 1313 
Q 434 1759 690 2068 
Q 947 2378 1403 2484 
z
M 1172 3481 
Q 1172 3119 1398 2916 
Q 1625 2713 2034 2713 
Q 2441 2713 2670 2916 
Q 2900 3119 2900 3481 
Q 2900 3844 2670 4047 
Q 2441 4250 2034 4250 
Q 1625 4250 1398 4047 
Q 1172 3844 1172 3481 
z
" transform="scale(0.015625)"/>
       </defs>
       <use xlink:href="#DejaVuSans-38"/>
       <use xlink:href="#DejaVuSans-30" x="63.623047"/>
       <use xlink:href="#DejaVuSans-30" x="127.246094"/>
      </g>
     </g>
    </g>
    <g id="xtick_6">
     <g id="line2d_11">
      <path d="M 398.812252 307.584 
L 398.812252 41.472 
" clip-path="url(#p592386bce8)" style="fill: none; stroke: #b0b0b0; stroke-width: 0.8; stroke-linecap: square"/>
     </g>
     <g id="line2d_12">
      <g>
       <use xlink:href="#m7fd2488843" x="398.812252" y="307.584" style="stroke: #000000; stroke-width: 0.8"/>
      </g>
     </g>
     <g id="text_6">
      <!-- 1000 -->
      <g transform="translate(386.087252 322.182437)scale(0.1 -0.1)">
       <defs>
        <path id="DejaVuSans-31" d="M 794 531 
L 1825 531 
L 1825 4091 
L 703 3866 
L 703 4441 
L 1819 4666 
L 2450 4666 
L 2450 531 
L 3481 531 
L 3481 0 
L 794 0 
L 794 531 
z
" transform="scale(0.015625)"/>
       </defs>
       <use xlink:href="#DejaVuSans-31"/>
       <use xlink:href="#DejaVuSans-30" x="63.623047"/>
       <use xlink:href="#DejaVuSans-30" x="127.246094"/>
       <use xlink:href="#DejaVuSans-30" x="190.869141"/>
      </g>
     </g>
    </g>
    <g id="text_7">
     <!-- Time [s] -->
     <g transform="translate(215.831094 335.860562)scale(0.1 -0.1)">
      <defs>
       <path id="DejaVuSans-54" d="M -19 4666 
L 3928 4666 
L 3928 4134 
L 2272 4134 
L 2272 0 
L 1638 0 
L 1638 4134 
L -19 4134 
L -19 4666 
z
" transform="scale(0.015625)"/>
       <path id="DejaVuSans-69" d="M 603 3500 
L 1178 3500 
L 1178 0 
L 603 0 
L 603 3500 
z
M 603 4863 
L 1178 4863 
L 1178 4134 
L 603 4134 
L 603 4863 
z
" transform="scale(0.015625)"/>
       <path id="DejaVuSans-6d" d="M 3328 2828 
Q 3544 3216 3844 3400 
Q 4144 3584 4550 3584 
Q 5097 3584 5394 3201 
Q 5691 2819 5691 2113 
L 5691 0 
L 5113 0 
L 5113 2094 
Q 5113 2597 4934 2840 
Q 4756 3084 4391 3084 
Q 3944 3084 3684 2787 
Q 3425 2491 3425 1978 
L 3425 0 
L 2847 0 
L 2847 2094 
Q 2847 2600 2669 2842 
Q 2491 3084 2119 3084 
Q 1678 3084 1418 2786 
Q 1159 2488 1159 1978 
L 1159 0 
L 581 0 
L 581 3500 
L 1159 3500 
L 1159 2956 
Q 1356 3278 1631 3431 
Q 1906 3584 2284 3584 
Q 2666 3584 2933 3390 
Q 3200 3197 3328 2828 
z
" transform="scale(0.015625)"/>
       <path id="DejaVuSans-65" d="M 3597 1894 
L 3597 1613 
L 953 1613 
Q 991 1019 1311 708 
Q 1631 397 2203 397 
Q 2534 397 2845 478 
Q 3156 559 3463 722 
L 3463 178 
Q 3153 47 2828 -22 
Q 2503 -91 2169 -91 
Q 1331 -91 842 396 
Q 353 884 353 1716 
Q 353 2575 817 3079 
Q 1281 3584 2069 3584 
Q 2775 3584 3186 3129 
Q 3597 2675 3597 1894 
z
M 3022 2063 
Q 3016 2534 2758 2815 
Q 2500 3097 2075 3097 
Q 1594 3097 1305 2825 
Q 1016 2553 972 2059 
L 3022 2063 
z
" transform="scale(0.015625)"/>
       <path id="DejaVuSans-20" transform="scale(0.015625)"/>
       <path id="DejaVuSans-5b" d="M 550 4863 
L 1875 4863 
L 1875 4416 
L 1125 4416 
L 1125 -397 
L 1875 -397 
L 1875 -844 
L 550 -844 
L 550 4863 
z
" transform="scale(0.015625)"/>
       <path id="DejaVuSans-73" d="M 2834 3397 
L 2834 2853 
Q 2591 2978 2328 3040 
Q 2066 3103 1784 3103 
Q 1356 3103 1142 2972 
Q 928 2841 928 2578 
Q 928 2378 1081 2264 
Q 1234 2150 1697 2047 
L 1894 2003 
Q 2506 1872 2764 1633 
Q 3022 1394 3022 966 
Q 3022 478 2636 193 
Q 2250 -91 1575 -91 
Q 1294 -91 989 -36 
Q 684 19 347 128 
L 347 722 
Q 666 556 975 473 
Q 1284 391 1588 391 
Q 1994 391 2212 530 
Q 2431 669 2431 922 
Q 2431 1156 2273 1281 
Q 2116 1406 1581 1522 
L 1381 1569 
Q 847 1681 609 1914 
Q 372 2147 372 2553 
Q 372 3047 722 3315 
Q 1072 3584 1716 3584 
Q 2034 3584 2315 3537 
Q 2597 3491 2834 3397 
z
" transform="scale(0.015625)"/>
       <path id="DejaVuSans-5d" d="M 1947 4863 
L 1947 -844 
L 622 -844 
L 622 -397 
L 1369 -397 
L 1369 4416 
L 622 4416 
L 622 4863 
L 1947 4863 
z
" transform="scale(0.015625)"/>
      </defs>
      <use xlink:href="#DejaVuSans-54"/>
      <use xlink:href="#DejaVuSans-69" x="57.958984"/>
      <use xlink:href="#DejaVuSans-6d" x="85.742188"/>
      <use xlink:href="#DejaVuSans-65" x="183.154297"/>
      <use xlink:href="#DejaVuSans-20" x="244.677734"/>
      <use xlink:href="#DejaVuSans-5b" x="276.464844"/>
      <use xlink:href="#DejaVuSans-73" x="315.478516"/>
      <use xlink:href="#DejaVuSans-5d" x="367.578125"/>
     </g>
    </g>
   </g>
   <g id="matplotlib.axis_2">
    <g id="ytick_1">
     <g id="line2d_13">
      <path d="M 57.6 295.488 
L 414.72 295.488 
" clip-path="url(#p592386bce8)" style="fill: none; stroke: #b0b0b0; stroke-width: 0.8; stroke-linecap: square"/>
     </g>
     <g id="line2d_14">
      <defs>
       <path id="m9482463d46" d="M 0 0 
L -3.5 0 
" style="stroke: #000000; stroke-width: 0.8"/>
      </defs>
      <g>
       <use xlink:href="#m9482463d46" x="57.6" y="295.488" style="stroke: #000000; stroke-width: 0.8"/>
      </g>
     </g>
     <g id="text_8">
      <!-- −1.00 -->
      <g transform="translate(19.954687 299.287219)scale(0.1 -0.1)">
       <defs>
        <path id="DejaVuSans-2212" d="M 678 2272 
L 4684 2272 
L 4684 1741 
L 678 1741 
L 678 2272 
z
" transform="scale(0.015625)"/>
        <path id="DejaVuSans-2e" d="M 684 794 
L 1344 794 
L 1344 0 
L 684 0 
L 684 794 
z
" transform="scale(0.015625)"/>
       </defs>
       <use xlink:href="#DejaVuSans-2212"/>
       <use xlink:href="#DejaVuSans-31" x="83.789062"/>
       <use xlink:href="#DejaVuSans-2e" x="147.412109"/>
       <use xlink:href="#DejaVuSans-30" x="179.199219"/>
       <use xlink:href="#DejaVuSans-30" x="242.822266"/>
      </g>
     </g>
    </g>
    <g id="ytick_2">
     <g id="line2d_15">
      <path d="M 57.6 265.248 
L 414.72 265.248 
" clip-path="url(#p592386bce8)" style="fill: none; stroke: #b0b0b0; stroke-width: 0.8; stroke-linecap: square"/>
     </g>
     <g id="line2d_16">
      <g>
       <use xlink:href="#m9482463d46" x="57.6" y="265.248" style="stroke: #000000; stroke-width: 0.8"/>
      </g>
     </g>
     <g id="text_9">
      <!-- −0.75 -->
      <g transform="translate(19.954687 269.047219)scale(0.1 -0.1)">
       <defs>
        <path id="DejaVuSans-37" d="M 525 4666 
L 3525 4666 
L 3525 4397 
L 1831 0 
L 1172 0 
L 2766 4134 
L 525 4134 
L 525 4666 
z
" transform="scale(0.015625)"/>
        <path id="DejaVuSans-35" d="M 691 4666 
L 3169 4666 
L 3169 4134 
L 1269 4134 
L 1269 2991 
Q 1406 3038 1543 3061 
Q 1681 3084 1819 3084 
Q 2600 3084 3056 2656 
Q 3513 2228 3513 1497 
Q 3513 744 3044 326 
Q 2575 -91 1722 -91 
Q 1428 -91 1123 -41 
Q 819 9 494 109 
L 494 744 
Q 775 591 1075 516 
Q 1375 441 1709 441 
Q 2250 441 2565 725 
Q 2881 1009 2881 1497 
Q 2881 1984 2565 2268 
Q 2250 2553 1709 2553 
Q 1456 2553 1204 2497 
Q 953 2441 691 2322 
L 691 4666 
z
" transform="scale(0.015625)"/>
       </defs>
       <use xlink:href="#DejaVuSans-2212"/>
       <use xlink:href="#DejaVuSans-30" x="83.789062"/>
       <use xlink:href="#DejaVuSans-2e" x="147.412109"/>
       <use xlink:href="#DejaVuSans-37" x="179.199219"/>
       <use xlink:href="#DejaVuSans-35" x="242.822266"/>
      </g>
     </g>
    </g>
    <g id="ytick_3">
     <g id="line2d_17">
      <path d="M 57.6 235.008 
L 414.72 235.008 
" clip-path="url(#p592386bce8)" style="fill: none; stroke: #b0b0b0; stroke-width: 0.8; stroke-linecap: square"/>
     </g>
     <g id="line2d_18">
      <g>
       <use xlink:href="#m9482463d46" x="57.6" y="235.008" style="stroke: #000000; stroke-width: 0.8"/>
      </g>
     </g>
     <g id="text_10">
      <!-- −0.50 -->
      <g transform="translate(19.954687 238.807219)scale(0.1 -0.1)">
       <use xlink:href="#DejaVuSans-2212"/>
       <use xlink:href="#DejaVuSans-30" x="83.789062"/>
       <use xlink:href="#DejaVuSans-2e" x="147.412109"/>
       <use xlink:href="#DejaVuSans-35" x="179.199219"/>
       <use xlink:href="#DejaVuSans-30" x="242.822266"/>
      </g>
     </g>
    </g>
    <g id="ytick_4">
     <g id="line2d_19">
      <path d="M 57.6 204.768 
L 414.72 204.768 
" clip-path="url(#p592386bce8)" style="fill: none; stroke: #b0b0b0; stroke-width: 0.8; stroke-linecap: square"/>
     </g>
     <g id="line2d_20">
      <g>
       <use xlink:href="#m9482463d46" x="57.6" y="204.768" style="stroke: #000000; stroke-width: 0.8"/>
      </g>
     </g>
     <g id="text_11">
      <!-- −0.25 -->
      <g transform="translate(19.954687 208.567219)scale(0.1 -0.1)">
       <use xlink:href="#DejaVuSans-2212"/>
       <use xlink:href="#DejaVuSans-30" x="83.789062"/>
       <use xlink:href="#DejaVuSans-2e" x="147.412109"/>
       <use xlink:href="#DejaVuSans-32" x="179.199219"/>
       <use xlink:href="#DejaVuSans-35" x="242.822266"/>
      </g>
     </g>
    </g>
    <g id="ytick_5">
     <g id="line2d_21">
      <path d="M 57.6 174.528 
L 414.72 174.528 
" clip-path="url(#p592386bce8)" style="fill: none; stroke: #b0b0b0; stroke-width: 0.8; stroke-linecap: square"/>
     </g>
     <g id="line2d_22">
      <g>
       <use xlink:href="#m9482463d46" x="57.6" y="174.528" style="stroke: #000000; stroke-width: 0.8"/>
      </g>
     </g>
     <g id="text_12">
      <!-- 0.00 -->
      <g transform="translate(28.334375 178.327219)scale(0.1 -0.1)">
       <use xlink:href="#DejaVuSans-30"/>
       <use xlink:href="#DejaVuSans-2e" x="63.623047"/>
       <use xlink:href="#DejaVuSans-30" x="95.410156"/>
       <use xlink:href="#DejaVuSans-30" x="159.033203"/>
      </g>
     </g>
    </g>
    <g id="ytick_6">
     <g id="line2d_23">
      <path d="M 57.6 144.288 
L 414.72 144.288 
" clip-path="url(#p592386bce8)" style="fill: none; stroke: #b0b0b0; stroke-width: 0.8; stroke-linecap: square"/>
     </g>
     <g id="line2d_24">
      <g>
       <use xlink:href="#m9482463d46" x="57.6" y="144.288" style="stroke: #000000; stroke-width: 0.8"/>
      </g>
     </g>
     <g id="text_13">
      <!-- 0.25 -->
      <g transform="translate(28.334375 148.087219)scale(0.1 -0.1)">
       <use xlink:href="#DejaVuSans-30"/>
       <use xlink:href="#DejaVuSans-2e" x="63.623047"/>
       <use xlink:href="#DejaVuSans-32" x="95.410156"/>
       <use xlink:href="#DejaVuSans-35" x="159.033203"/>
      </g>
     </g>
    </g>
    <g id="ytick_7">
     <g id="line2d_25">
      <path d="M 57.6 114.048 
L 414.72 114.048 
" clip-path="url(#p592386bce8)" style="fill: none; stroke: #b0b0b0; stroke-width: 0.8; stroke-linecap: square"/>
     </g>
     <g id="line2d_26">
      <g>
       <use xlink:href="#m9482463d46" x="57.6" y="114.048" style="stroke: #000000; stroke-width: 0.8"/>
      </g>
     </g>
     <g id="text_14">
      <!-- 0.50 -->
      <g transform="translate(28.334375 117.847219)scale(0.1 -0.1)">
       <use xlink:href="#DejaVuSans-30"/>
       <use xlink:href="#DejaVuSans-2e" x="63.623047"/>
       <use xlink:href="#DejaVuSans-35" x="95.410156"/>
       <use xlink:href="#DejaVuSans-30" x="159.033203"/>
      </g>
     </g>
    </g>
    <g id="ytick_8">
     <g id="line2d_27">
      <path d="M 57.6 83.808 
L 414.72 83.808 
" clip-path="url(#p592386bce8)" style="fill: none; stroke: #b0b0b0; stroke-width: 0.8; stroke-linecap: square"/>
     </g>
     <g id="line2d_28">
      <g>
       <use xlink:href="#m9482463d46" x="57.6" y="83.808" style="stroke: #000000; stroke-width: 0.8"/>
      </g>
     </g>
     <g id="text_15">
      <!-- 0.75 -->
      <g transform="translate(28.334375 87.607219)scale(0.1 -0.1)">
       <use xlink:href="#DejaVuSans-30"/>
       <use xlink:href="#DejaVuSans-2e" x="63.623047"/>
       <use xlink:href="#DejaVuSans-37" x="95.410156"/>
       <use xlink:href="#DejaVuSans-35" x="159.033203"/>
      </g>
     </g>
    </g>
    <g id="ytick_9">
     <g id="line2d_29">
      <path d="M 57.6 53.568 
L 414.72 53.568 
" clip-path="url(#p592386bce8)" style="fill: none; stroke: #b0b0b0; stroke-width: 0.8; stroke-linecap: square"/>
     </g>
     <g id="line2d_30">
      <g>
       <use xlink:href="#m9482463d46" x="57.6" y="53.568" style="stroke: #000000; stroke-width: 0.8"/>
      </g>
     </g>
     <g id="text_16">
      <!-- 1.00 -->
      <g transform="translate(28.334375 57.367219)scale(0.1 -0.1)">
       <use xlink:href="#DejaVuSans-31"/>
       <use xlink:href="#DejaVuSans-2e" x="63.623047"/>
       <use xlink:href="#DejaVuSans-30" x="95.410156"/>
       <use xlink:href="#DejaVuSans-30" x="159.033203"/>
      </g>
     </g>
    </g>
    <g id="text_17">
     <!-- Altitude variation from reference point [m] -->
     <g transform="translate(13.875 281.147531)rotate(-90)scale(0.1 -0.1)">
      <defs>
       <path id="DejaVuSans-41" d="M 2188 4044 
L 1331 1722 
L 3047 1722 
L 2188 4044 
z
M 1831 4666 
L 2547 4666 
L 4325 0 
L 3669 0 
L 3244 1197 
L 1141 1197 
L 716 0 
L 50 0 
L 1831 4666 
z
" transform="scale(0.015625)"/>
       <path id="DejaVuSans-6c" d="M 603 4863 
L 1178 4863 
L 1178 0 
L 603 0 
L 603 4863 
z
" transform="scale(0.015625)"/>
       <path id="DejaVuSans-74" d="M 1172 4494 
L 1172 3500 
L 2356 3500 
L 2356 3053 
L 1172 3053 
L 1172 1153 
Q 1172 725 1289 603 
Q 1406 481 1766 481 
L 2356 481 
L 2356 0 
L 1766 0 
Q 1100 0 847 248 
Q 594 497 594 1153 
L 594 3053 
L 172 3053 
L 172 3500 
L 594 3500 
L 594 4494 
L 1172 4494 
z
" transform="scale(0.015625)"/>
       <path id="DejaVuSans-75" d="M 544 1381 
L 544 3500 
L 1119 3500 
L 1119 1403 
Q 1119 906 1312 657 
Q 1506 409 1894 409 
Q 2359 409 2629 706 
Q 2900 1003 2900 1516 
L 2900 3500 
L 3475 3500 
L 3475 0 
L 2900 0 
L 2900 538 
Q 2691 219 2414 64 
Q 2138 -91 1772 -91 
Q 1169 -91 856 284 
Q 544 659 544 1381 
z
M 1991 3584 
L 1991 3584 
z
" transform="scale(0.015625)"/>
       <path id="DejaVuSans-64" d="M 2906 2969 
L 2906 4863 
L 3481 4863 
L 3481 0 
L 2906 0 
L 2906 525 
Q 2725 213 2448 61 
Q 2172 -91 1784 -91 
Q 1150 -91 751 415 
Q 353 922 353 1747 
Q 353 2572 751 3078 
Q 1150 3584 1784 3584 
Q 2172 3584 2448 3432 
Q 2725 3281 2906 2969 
z
M 947 1747 
Q 947 1113 1208 752 
Q 1469 391 1925 391 
Q 2381 391 2643 752 
Q 2906 1113 2906 1747 
Q 2906 2381 2643 2742 
Q 2381 3103 1925 3103 
Q 1469 3103 1208 2742 
Q 947 2381 947 1747 
z
" transform="scale(0.015625)"/>
       <path id="DejaVuSans-76" d="M 191 3500 
L 800 3500 
L 1894 563 
L 2988 3500 
L 3597 3500 
L 2284 0 
L 1503 0 
L 191 3500 
z
" transform="scale(0.015625)"/>
       <path id="DejaVuSans-61" d="M 2194 1759 
Q 1497 1759 1228 1600 
Q 959 1441 959 1056 
Q 959 750 1161 570 
Q 1363 391 1709 391 
Q 2188 391 2477 730 
Q 2766 1069 2766 1631 
L 2766 1759 
L 2194 1759 
z
M 3341 1997 
L 3341 0 
L 2766 0 
L 2766 531 
Q 2569 213 2275 61 
Q 1981 -91 1556 -91 
Q 1019 -91 701 211 
Q 384 513 384 1019 
Q 384 1609 779 1909 
Q 1175 2209 1959 2209 
L 2766 2209 
L 2766 2266 
Q 2766 2663 2505 2880 
Q 2244 3097 1772 3097 
Q 1472 3097 1187 3025 
Q 903 2953 641 2809 
L 641 3341 
Q 956 3463 1253 3523 
Q 1550 3584 1831 3584 
Q 2591 3584 2966 3190 
Q 3341 2797 3341 1997 
z
" transform="scale(0.015625)"/>
       <path id="DejaVuSans-72" d="M 2631 2963 
Q 2534 3019 2420 3045 
Q 2306 3072 2169 3072 
Q 1681 3072 1420 2755 
Q 1159 2438 1159 1844 
L 1159 0 
L 581 0 
L 581 3500 
L 1159 3500 
L 1159 2956 
Q 1341 3275 1631 3429 
Q 1922 3584 2338 3584 
Q 2397 3584 2469 3576 
Q 2541 3569 2628 3553 
L 2631 2963 
z
" transform="scale(0.015625)"/>
       <path id="DejaVuSans-6f" d="M 1959 3097 
Q 1497 3097 1228 2736 
Q 959 2375 959 1747 
Q 959 1119 1226 758 
Q 1494 397 1959 397 
Q 2419 397 2687 759 
Q 2956 1122 2956 1747 
Q 2956 2369 2687 2733 
Q 2419 3097 1959 3097 
z
M 1959 3584 
Q 2709 3584 3137 3096 
Q 3566 2609 3566 1747 
Q 3566 888 3137 398 
Q 2709 -91 1959 -91 
Q 1206 -91 779 398 
Q 353 888 353 1747 
Q 353 2609 779 3096 
Q 1206 3584 1959 3584 
z
" transform="scale(0.015625)"/>
       <path id="DejaVuSans-6e" d="M 3513 2113 
L 3513 0 
L 2938 0 
L 2938 2094 
Q 2938 2591 2744 2837 
Q 2550 3084 2163 3084 
Q 1697 3084 1428 2787 
Q 1159 2491 1159 1978 
L 1159 0 
L 581 0 
L 581 3500 
L 1159 3500 
L 1159 2956 
Q 1366 3272 1645 3428 
Q 1925 3584 2291 3584 
Q 2894 3584 3203 3211 
Q 3513 2838 3513 2113 
z
" transform="scale(0.015625)"/>
       <path id="DejaVuSans-66" d="M 2375 4863 
L 2375 4384 
L 1825 4384 
Q 1516 4384 1395 4259 
Q 1275 4134 1275 3809 
L 1275 3500 
L 2222 3500 
L 2222 3053 
L 1275 3053 
L 1275 0 
L 697 0 
L 697 3053 
L 147 3053 
L 147 3500 
L 697 3500 
L 697 3744 
Q 697 4328 969 4595 
Q 1241 4863 1831 4863 
L 2375 4863 
z
" transform="scale(0.015625)"/>
       <path id="DejaVuSans-63" d="M 3122 3366 
L 3122 2828 
Q 2878 2963 2633 3030 
Q 2388 3097 2138 3097 
Q 1578 3097 1268 2742 
Q 959 2388 959 1747 
Q 959 1106 1268 751 
Q 1578 397 2138 397 
Q 2388 397 2633 464 
Q 2878 531 3122 666 
L 3122 134 
Q 2881 22 2623 -34 
Q 2366 -91 2075 -91 
Q 1284 -91 818 406 
Q 353 903 353 1747 
Q 353 2603 823 3093 
Q 1294 3584 2113 3584 
Q 2378 3584 2631 3529 
Q 2884 3475 3122 3366 
z
" transform="scale(0.015625)"/>
       <path id="DejaVuSans-70" d="M 1159 525 
L 1159 -1331 
L 581 -1331 
L 581 3500 
L 1159 3500 
L 1159 2969 
Q 1341 3281 1617 3432 
Q 1894 3584 2278 3584 
Q 2916 3584 3314 3078 
Q 3713 2572 3713 1747 
Q 3713 922 3314 415 
Q 2916 -91 2278 -91 
Q 1894 -91 1617 61 
Q 1341 213 1159 525 
z
M 3116 1747 
Q 3116 2381 2855 2742 
Q 2594 3103 2138 3103 
Q 1681 3103 1420 2742 
Q 1159 2381 1159 1747 
Q 1159 1113 1420 752 
Q 1681 391 2138 391 
Q 2594 391 2855 752 
Q 3116 1113 3116 1747 
z
" transform="scale(0.015625)"/>
      </defs>
      <use xlink:href="#DejaVuSans-41"/>
      <use xlink:href="#DejaVuSans-6c" x="68.408203"/>
      <use xlink:href="#DejaVuSans-74" x="96.191406"/>
      <use xlink:href="#DejaVuSans-69" x="135.400391"/>
      <use xlink:href="#DejaVuSans-74" x="163.183594"/>
      <use xlink:href="#DejaVuSans-75" x="202.392578"/>
      <use xlink:href="#DejaVuSans-64" x="265.771484"/>
      <use xlink:href="#DejaVuSans-65" x="329.248047"/>
      <use xlink:href="#DejaVuSans-20" x="390.771484"/>
      <use xlink:href="#DejaVuSans-76" x="422.558594"/>
      <use xlink:href="#DejaVuSans-61" x="481.738281"/>
      <use xlink:href="#DejaVuSans-72" x="543.017578"/>
      <use xlink:href="#DejaVuSans-69" x="584.130859"/>
      <use xlink:href="#DejaVuSans-61" x="611.914062"/>
      <use xlink:href="#DejaVuSans-74" x="673.193359"/>
      <use xlink:href="#DejaVuSans-69" x="712.402344"/>
      <use xlink:href="#DejaVuSans-6f" x="740.185547"/>
      <use xlink:href="#DejaVuSans-6e" x="801.367188"/>
      <use xlink:href="#DejaVuSans-20" x="864.746094"/>
      <use xlink:href="#DejaVuSans-66" x="896.533203"/>
      <use xlink:href="#DejaVuSans-72" x="931.738281"/>
      <use xlink:href="#DejaVuSans-6f" x="970.601562"/>
      <use xlink:href="#DejaVuSans-6d" x="1031.783203"/>
      <use xlink:href="#DejaVuSans-20" x="1129.195312"/>
      <use xlink:href="#DejaVuSans-72" x="1160.982422"/>
      <use xlink:href="#DejaVuSans-65" x="1199.845703"/>
      <use xlink:href="#DejaVuSans-66" x="1261.369141"/>
      <use xlink:href="#DejaVuSans-65" x="1296.574219"/>
      <use xlink:href="#DejaVuSans-72" x="1358.097656"/>
      <use xlink:href="#DejaVuSans-65" x="1396.960938"/>
      <use xlink:href="#DejaVuSans-6e" x="1458.484375"/>
      <use xlink:href="#DejaVuSans-63" x="1521.863281"/>
      <use xlink:href="#DejaVuSans-65" x="1576.84375"/>
      <use xlink:href="#DejaVuSans-20" x="1638.367188"/>
      <use xlink:href="#DejaVuSans-70" x="1670.154297"/>
      <use xlink:href="#DejaVuSans-6f" x="1733.630859"/>
      <use xlink:href="#DejaVuSans-69" x="1794.8125"/>
      <use xlink:href="#DejaVuSans-6e" x="1822.595703"/>
      <use xlink:href="#DejaVuSans-74" x="1885.974609"/>
      <use xlink:href="#DejaVuSans-20" x="1925.183594"/>
      <use xlink:href="#DejaVuSans-5b" x="1956.970703"/>
      <use xlink:href="#DejaVuSans-6d" x="1995.984375"/>
      <use xlink:href="#DejaVuSans-5d" x="2093.396484"/>
     </g>
    </g>
   </g>
   <g id="line2d_31">
    <path d="M 73.832727 174.528 
L 74.157707 198.72 
L 75.457625 198.72 
L 75.782604 186.624 
L 76.107584 186.624 
L 76.432563 210.816 
L 76.757543 186.624 
L 77.082523 174.528 
L 77.407502 186.624 
L 78.057461 186.624 
L 78.382441 162.432 
L 78.70742 162.432 
L 79.0324 138.24 
L 79.357379 186.624 
L 80.007338 162.432 
L 80.332318 138.24 
L 80.657297 126.144 
L 81.632236 126.144 
L 81.957215 150.336 
L 82.282195 162.432 
L 82.607174 150.336 
L 82.932154 162.432 
L 83.257133 150.336 
L 83.582113 162.432 
L 83.907093 162.432 
L 84.232072 126.144 
L 84.557052 150.336 
L 84.882031 162.432 
L 85.207011 162.432 
L 85.85697 138.24 
L 86.181949 162.432 
L 86.506929 150.336 
L 86.831908 162.432 
L 87.156888 150.336 
L 87.481867 186.624 
L 87.806847 150.336 
L 88.456806 174.528 
L 88.781785 150.336 
L 89.106765 150.336 
L 90.081704 186.624 
L 90.406683 186.624 
L 90.731663 198.72 
L 91.056642 186.624 
L 91.381622 198.72 
L 91.706601 198.72 
L 92.031581 186.624 
L 92.35656 210.816 
L 93.006519 186.624 
L 93.331499 198.72 
L 93.981458 198.72 
L 94.306437 222.912 
L 95.281376 186.624 
L 95.606355 222.912 
L 95.931335 235.008 
L 96.256314 174.528 
L 96.581294 174.528 
L 96.906274 150.336 
L 97.231253 162.432 
L 97.556233 162.432 
L 97.881212 138.24 
L 98.206192 162.432 
L 99.18113 162.432 
L 99.50611 150.336 
L 99.831089 162.432 
L 100.156069 162.432 
L 100.481048 150.336 
L 100.806028 186.624 
L 101.131007 150.336 
L 101.455987 174.528 
L 101.780966 150.336 
L 102.105946 162.432 
L 102.430925 150.336 
L 102.755905 174.528 
L 103.080885 150.336 
L 103.405864 150.336 
L 103.730844 162.432 
L 104.055823 150.336 
L 104.380803 150.336 
L 104.705782 162.432 
L 105.030762 150.336 
L 105.355741 150.336 
L 106.0057 126.144 
L 106.33068 162.432 
L 106.655659 162.432 
L 106.980639 186.624 
L 107.305618 162.432 
L 109.580475 162.432 
L 109.905455 174.528 
L 110.230434 162.432 
L 110.555414 162.432 
L 111.205373 138.24 
L 111.530352 150.336 
L 111.855332 114.048 
L 112.180311 114.048 
L 112.505291 138.24 
L 112.83027 150.336 
L 113.480229 150.336 
L 113.805209 162.432 
L 114.130188 186.624 
L 114.455168 174.528 
L 115.105127 174.528 
L 115.430106 186.624 
L 115.755086 174.528 
L 116.080066 186.624 
L 116.405045 222.912 
L 116.730025 210.816 
L 117.055004 259.2 
L 117.379984 247.104 
L 117.704963 271.296 
L 118.029943 162.432 
L 118.354922 222.912 
L 118.679902 198.72 
L 119.004881 222.912 
L 119.329861 210.816 
L 119.65484 186.624 
L 119.97982 210.816 
L 120.304799 198.72 
L 120.629779 222.912 
L 120.954758 222.912 
L 121.604717 198.72 
L 121.929697 174.528 
L 122.579656 174.528 
L 122.904636 162.432 
L 123.229615 174.528 
L 123.879574 150.336 
L 124.204554 162.432 
L 124.529533 138.24 
L 124.854513 150.336 
L 125.179492 150.336 
L 125.504472 186.624 
L 125.829451 138.24 
L 126.154431 150.336 
L 127.454349 150.336 
L 127.779328 162.432 
L 129.729206 162.432 
L 130.054185 186.624 
L 130.379165 186.624 
L 130.704144 162.432 
L 131.029124 174.528 
L 131.679083 150.336 
L 132.004062 162.432 
L 132.329042 162.432 
L 132.654021 150.336 
L 132.979001 150.336 
L 133.30398 162.432 
L 134.278919 162.432 
L 134.928878 138.24 
L 135.253857 150.336 
L 135.578837 138.24 
L 135.903817 150.336 
L 136.228796 150.336 
L 136.553776 138.24 
L 136.878755 150.336 
L 137.203735 138.24 
L 137.528714 150.336 
L 138.503653 150.336 
L 139.153612 174.528 
L 139.803571 174.528 
L 140.12855 186.624 
L 141.103489 186.624 
L 141.428468 198.72 
L 142.403407 198.72 
L 142.728387 174.528 
L 143.053366 186.624 
L 143.378346 162.432 
L 143.703325 174.528 
L 145.003243 174.528 
L 145.328223 162.432 
L 145.653202 186.624 
L 145.978182 174.528 
L 146.303161 198.72 
L 146.628141 174.528 
L 147.2781 174.528 
L 147.603079 186.624 
L 147.928059 174.528 
L 148.253038 186.624 
L 148.578018 186.624 
L 148.902998 174.528 
L 149.552957 198.72 
L 149.877936 186.624 
L 150.202916 198.72 
L 150.527895 186.624 
L 150.852875 198.72 
L 151.502834 198.72 
L 151.827813 186.624 
L 153.77769 186.624 
L 154.10267 174.528 
L 154.427649 174.528 
L 154.752629 186.624 
L 155.077609 174.528 
L 155.402588 186.624 
L 156.052547 162.432 
L 156.702506 186.624 
L 157.027486 174.528 
L 157.352465 174.528 
L 157.677445 186.624 
L 158.002424 174.528 
L 158.327404 186.624 
L 158.652383 174.528 
L 158.977363 186.624 
L 159.627322 186.624 
L 159.952301 198.72 
L 160.277281 186.624 
L 160.60226 198.72 
L 161.577199 198.72 
L 161.902179 210.816 
L 162.227158 198.72 
L 162.552138 198.72 
L 162.877117 186.624 
L 163.527076 210.816 
L 163.852056 198.72 
L 164.177035 210.816 
L 164.502015 210.816 
L 164.826994 198.72 
L 165.151974 210.816 
L 165.476953 198.72 
L 165.801933 210.816 
L 166.126912 198.72 
L 166.451892 198.72 
L 166.776871 186.624 
L 167.42683 186.624 
L 167.75181 198.72 
L 168.401769 198.72 
L 168.726749 186.624 
L 169.051728 198.72 
L 169.376708 186.624 
L 169.701687 198.72 
L 170.351646 174.528 
L 170.676626 174.528 
L 171.001605 162.432 
L 173.601441 162.432 
L 173.926421 174.528 
L 174.90136 174.528 
L 175.226339 186.624 
L 175.551319 186.624 
L 175.876298 198.72 
L 176.201278 186.624 
L 176.526257 198.72 
L 177.176216 174.528 
L 177.501196 174.528 
L 177.826175 186.624 
L 178.801114 186.624 
L 179.126093 198.72 
L 179.451073 186.624 
L 180.101032 186.624 
L 180.426011 174.528 
L 180.750991 186.624 
L 181.075971 174.528 
L 181.40095 198.72 
L 181.72593 198.72 
L 182.050909 186.624 
L 182.375889 198.72 
L 183.350827 198.72 
L 183.675807 186.624 
L 184.000786 198.72 
L 184.325766 174.528 
L 184.650745 186.624 
L 184.975725 186.624 
L 185.300704 198.72 
L 185.625684 174.528 
L 185.950663 186.624 
L 186.275643 174.528 
L 186.925602 174.528 
L 187.250581 162.432 
L 187.575561 174.528 
L 188.22552 174.528 
L 188.5505 162.432 
L 189.200459 186.624 
L 189.525438 174.528 
L 189.850418 174.528 
L 190.175397 186.624 
L 191.150336 186.624 
L 191.475315 174.528 
L 191.800295 186.624 
L 192.125274 174.528 
L 193.425192 174.528 
L 193.750172 162.432 
L 194.400131 162.432 
L 194.725111 174.528 
L 195.05009 150.336 
L 195.37507 174.528 
L 195.700049 162.432 
L 196.025029 162.432 
L 196.350008 150.336 
L 196.999967 174.528 
L 197.324947 162.432 
L 198.299885 162.432 
L 198.949844 138.24 
L 199.274824 150.336 
L 199.599803 150.336 
L 199.924783 138.24 
L 200.249762 150.336 
L 200.574742 138.24 
L 201.549681 138.24 
L 201.87466 150.336 
L 202.19964 126.144 
L 202.524619 150.336 
L 202.849599 150.336 
L 203.174578 162.432 
L 203.499558 162.432 
L 203.824537 150.336 
L 204.149517 162.432 
L 205.124455 162.432 
L 205.449435 138.24 
L 205.774414 162.432 
L 206.099394 150.336 
L 206.749353 150.336 
L 207.074333 174.528 
L 207.399312 186.624 
L 207.724292 174.528 
L 208.374251 174.528 
L 208.69923 186.624 
L 209.02421 174.528 
L 209.674169 174.528 
L 209.999148 186.624 
L 210.324128 174.528 
L 210.649107 186.624 
L 210.974087 174.528 
L 211.299066 174.528 
L 211.624046 186.624 
L 211.949025 174.528 
L 212.274005 174.528 
L 212.598984 162.432 
L 212.923964 138.24 
L 213.248943 162.432 
L 213.573923 162.432 
L 213.898903 150.336 
L 214.223882 150.336 
L 214.548862 162.432 
L 214.873841 138.24 
L 215.198821 150.336 
L 216.498739 150.336 
L 216.823718 174.528 
L 217.148698 162.432 
L 217.798657 186.624 
L 218.448616 186.624 
L 218.773595 174.528 
L 219.423554 174.528 
L 219.748534 186.624 
L 221.048452 186.624 
L 221.373432 174.528 
L 221.698411 186.624 
L 222.023391 174.528 
L 222.34837 186.624 
L 223.323309 186.624 
L 223.648288 174.528 
L 224.298247 198.72 
L 224.623227 198.72 
L 224.948206 210.816 
L 225.273186 198.72 
L 225.598165 210.816 
L 226.573104 210.816 
L 226.898084 222.912 
L 227.223063 210.816 
L 227.548043 222.912 
L 227.873022 210.816 
L 228.847961 210.816 
L 229.17294 222.912 
L 229.822899 198.72 
L 231.122817 198.72 
L 231.447797 186.624 
L 231.772776 198.72 
L 233.072695 198.72 
L 233.397674 186.624 
L 234.372613 186.624 
L 234.697592 198.72 
L 235.022572 186.624 
L 235.347551 186.624 
L 235.672531 174.528 
L 235.99751 174.528 
L 236.32249 162.432 
L 236.647469 174.528 
L 238.922326 174.528 
L 239.247305 186.624 
L 239.572285 174.528 
L 239.897265 186.624 
L 240.222244 174.528 
L 241.197183 174.528 
L 241.522162 162.432 
L 241.847142 174.528 
L 242.172121 162.432 
L 243.472039 162.432 
L 243.797019 150.336 
L 244.121998 162.432 
L 244.446978 150.336 
L 245.746896 150.336 
L 246.071876 138.24 
L 246.396855 162.432 
L 246.721835 162.432 
L 247.046814 150.336 
L 248.021753 150.336 
L 248.346732 138.24 
L 248.996691 162.432 
L 249.321671 150.336 
L 249.64665 162.432 
L 249.97163 138.24 
L 250.296609 162.432 
L 250.621589 150.336 
L 250.946568 174.528 
L 251.271548 162.432 
L 251.921507 162.432 
L 252.246486 150.336 
L 252.571466 150.336 
L 252.896446 162.432 
L 254.521343 162.432 
L 254.846323 150.336 
L 255.171302 162.432 
L 255.496282 150.336 
L 257.121179 150.336 
L 257.771138 174.528 
L 258.096118 162.432 
L 259.396036 162.432 
L 260.370975 198.72 
L 260.695954 186.624 
L 261.345913 186.624 
L 261.670893 198.72 
L 261.995872 198.72 
L 262.320852 186.624 
L 262.645831 198.72 
L 262.970811 198.72 
L 263.29579 186.624 
L 265.245667 186.624 
L 265.570647 174.528 
L 265.895627 174.528 
L 266.220606 186.624 
L 266.545586 186.624 
L 266.870565 174.528 
L 267.520524 174.528 
L 267.845504 186.624 
L 268.170483 174.528 
L 268.495463 186.624 
L 269.145422 186.624 
L 269.470401 198.72 
L 270.12036 198.72 
L 270.44534 210.816 
L 270.770319 198.72 
L 271.095299 210.816 
L 271.420278 198.72 
L 271.745258 198.72 
L 272.070238 210.816 
L 272.720197 186.624 
L 273.045176 198.72 
L 274.020115 198.72 
L 274.345094 186.624 
L 275.969992 186.624 
L 276.294971 174.528 
L 278.244848 174.528 
L 278.569828 162.432 
L 278.894808 174.528 
L 279.219787 150.336 
L 279.544767 162.432 
L 279.869746 162.432 
L 280.194726 150.336 
L 280.519705 162.432 
L 280.844685 150.336 
L 281.169664 162.432 
L 281.494644 150.336 
L 281.819623 162.432 
L 282.469582 162.432 
L 282.794562 174.528 
L 285.069419 174.528 
L 285.394398 186.624 
L 286.044357 162.432 
L 286.369337 174.528 
L 286.694316 162.432 
L 287.019296 174.528 
L 287.669255 150.336 
L 287.994234 162.432 
L 288.319214 162.432 
L 288.644193 150.336 
L 288.969173 150.336 
L 289.294152 162.432 
L 291.244029 162.432 
L 291.569009 174.528 
L 291.893989 174.528 
L 292.218968 150.336 
L 292.543948 174.528 
L 292.868927 150.336 
L 293.193907 174.528 
L 293.843866 174.528 
L 294.168845 162.432 
L 294.493825 174.528 
L 294.818804 174.528 
L 295.143784 162.432 
L 295.468763 162.432 
L 295.793743 174.528 
L 296.118722 150.336 
L 296.443702 162.432 
L 296.768681 150.336 
L 297.093661 150.336 
L 297.41864 162.432 
L 297.74362 150.336 
L 298.0686 150.336 
L 298.393579 162.432 
L 298.718559 150.336 
L 299.043538 162.432 
L 300.018477 162.432 
L 300.343456 150.336 
L 301.318395 150.336 
L 301.643374 162.432 
L 301.968354 162.432 
L 302.293333 150.336 
L 302.618313 174.528 
L 302.943292 174.528 
L 303.268272 162.432 
L 303.593251 174.528 
L 304.56819 174.528 
L 304.89317 162.432 
L 305.218149 174.528 
L 305.543129 162.432 
L 305.868108 174.528 
L 306.193088 162.432 
L 306.518067 162.432 
L 306.843047 174.528 
L 308.792924 174.528 
L 309.117903 162.432 
L 309.442883 174.528 
L 309.767862 162.432 
L 310.742801 162.432 
L 311.067781 150.336 
L 311.39276 162.432 
L 311.71774 150.336 
L 312.042719 162.432 
L 312.367699 150.336 
L 312.692678 150.336 
L 313.342637 174.528 
L 313.667617 162.432 
L 313.992596 174.528 
L 314.317576 162.432 
L 314.967535 162.432 
L 315.292514 186.624 
L 315.617494 162.432 
L 315.942473 174.528 
L 316.267453 174.528 
L 316.592432 162.432 
L 316.917412 174.528 
L 317.242391 162.432 
L 317.567371 174.528 
L 317.892351 162.432 
L 318.21733 162.432 
L 318.54231 174.528 
L 318.867289 162.432 
L 319.192269 174.528 
L 321.142146 174.528 
L 321.467125 186.624 
L 321.792105 174.528 
L 322.117084 174.528 
L 322.442064 186.624 
L 323.092023 186.624 
L 323.417002 198.72 
L 324.716921 198.72 
L 325.0419 210.816 
L 325.691859 210.816 
L 326.016839 198.72 
L 326.341818 198.72 
L 326.666798 186.624 
L 327.316757 210.816 
L 327.641736 198.72 
L 327.966716 210.816 
L 328.291695 198.72 
L 328.616675 210.816 
L 328.941654 186.624 
L 329.266634 198.72 
L 330.241572 198.72 
L 330.566552 210.816 
L 331.216511 186.624 
L 331.541491 198.72 
L 331.86647 174.528 
L 332.19145 186.624 
L 332.516429 162.432 
L 332.841409 174.528 
L 333.166388 162.432 
L 334.466306 162.432 
L 334.791286 174.528 
L 335.116265 162.432 
L 335.766224 162.432 
L 336.091204 174.528 
L 336.416183 150.336 
L 336.741163 174.528 
L 337.716102 174.528 
L 338.041081 162.432 
L 338.366061 174.528 
L 338.69104 174.528 
L 339.01602 186.624 
L 339.340999 174.528 
L 339.665979 174.528 
L 339.990958 162.432 
L 340.315938 174.528 
L 340.640917 162.432 
L 342.590794 162.432 
L 342.915774 150.336 
L 343.240753 150.336 
L 343.890713 174.528 
L 344.215692 174.528 
L 344.540672 162.432 
L 344.865651 174.528 
L 345.190631 174.528 
L 345.51561 186.624 
L 347.140508 186.624 
L 347.465487 198.72 
L 348.765405 198.72 
L 349.090385 186.624 
L 350.065324 186.624 
L 350.390303 174.528 
L 350.715283 174.528 
L 351.040262 186.624 
L 351.365242 174.528 
L 351.690221 174.528 
L 352.015201 162.432 
L 352.34018 174.528 
L 353.315119 174.528 
L 353.640098 162.432 
L 353.965078 174.528 
L 355.589975 174.528 
L 355.914955 162.432 
L 356.239934 174.528 
L 356.564914 162.432 
L 356.889894 174.528 
L 357.214873 162.432 
L 357.539853 162.432 
L 358.189812 186.624 
L 358.514791 162.432 
L 358.839771 174.528 
L 359.16475 174.528 
L 359.48973 162.432 
L 359.814709 174.528 
L 360.139689 162.432 
L 360.464668 174.528 
L 360.789648 162.432 
L 361.439607 162.432 
L 361.764586 174.528 
L 362.089566 162.432 
L 362.414545 162.432 
L 362.739525 174.528 
L 363.064505 162.432 
L 365.339361 162.432 
L 365.664341 174.528 
L 365.98932 162.432 
L 366.3143 174.528 
L 366.639279 162.432 
L 366.964259 162.432 
L 367.289238 174.528 
L 367.614218 174.528 
L 367.939197 162.432 
L 368.264177 162.432 
L 368.589156 174.528 
L 368.914136 162.432 
L 369.239115 174.528 
L 369.564095 174.528 
L 369.889075 186.624 
L 370.214054 174.528 
L 370.864013 174.528 
L 371.188993 162.432 
L 371.513972 174.528 
L 371.838952 162.432 
L 372.163931 174.528 
L 372.488911 174.528 
L 372.81389 162.432 
L 374.763767 162.432 
L 375.088747 150.336 
L 375.413726 162.432 
L 376.388665 162.432 
L 376.713645 174.528 
L 377.038624 162.432 
L 378.013563 162.432 
L 378.338542 41.472 
L 378.988501 126.144 
L 379.63846 150.336 
L 379.96344 174.528 
L 380.288419 174.528 
L 380.613399 198.72 
L 380.938378 174.528 
L 381.263358 174.528 
L 381.588337 198.72 
L 382.888256 198.72 
L 383.538215 222.912 
L 383.863194 210.816 
L 384.838133 210.816 
L 385.163112 222.912 
L 385.488092 198.72 
L 385.813071 186.624 
L 386.138051 186.624 
L 386.46303 210.816 
L 386.78801 186.624 
L 387.112989 186.624 
L 387.437969 198.72 
L 388.087928 198.72 
L 388.412907 186.624 
L 388.737887 198.72 
L 389.062867 198.72 
L 389.387846 186.624 
L 389.712826 210.816 
L 390.687764 174.528 
L 391.012744 186.624 
L 391.987682 186.624 
L 392.312662 198.72 
L 392.637641 198.72 
L 392.962621 186.624 
L 393.2876 198.72 
L 393.937559 174.528 
L 394.262539 186.624 
L 394.587518 174.528 
L 394.912498 186.624 
L 395.562457 186.624 
L 395.887437 198.72 
L 396.212416 186.624 
L 396.862375 186.624 
L 397.187355 174.528 
L 397.512334 186.624 
L 398.487273 186.624 
L 398.487273 186.624 
" clip-path="url(#p592386bce8)" style="fill: none; stroke: #1f77b4; stroke-width: 1.5; stroke-linecap: square"/>
   </g>
   <g id="line2d_32">
    <path d="M 73.832727 174.528 
L 74.157707 170.51612 
L 74.482686 172.37092 
L 74.807666 166.104104 
L 75.132645 179.796776 
L 75.457625 177.920928 
L 75.782604 172.867824 
L 76.107584 156.894088 
L 76.432563 170.055504 
L 76.757543 156.271144 
L 77.082523 170.796384 
L 77.407502 168.707768 
L 78.057461 181.853096 
L 78.382441 177.141704 
L 78.70742 174.300232 
L 79.0324 162.746496 
L 79.357379 172.143032 
L 79.682359 177.781824 
L 80.007338 180.407624 
L 80.332318 175.921096 
L 80.657297 185.457704 
L 80.982277 186.502072 
L 81.307256 169.992 
L 81.632236 180.66672 
L 81.957215 183.656488 
L 82.282195 178.599272 
L 82.607174 177.050984 
L 82.932154 178.881592 
L 83.257133 166.2322 
L 83.582113 172.721704 
L 83.907093 184.19476 
L 84.232072 181.474128 
L 84.557052 183.978 
L 84.882031 168.648376 
L 85.207011 176.248656 
L 85.53199 171.767088 
L 85.85697 177.03792 
L 86.181949 169.79544 
L 86.506929 177.236536 
L 86.831908 176.351472 
L 87.156888 170.313512 
L 87.481867 190.416096 
L 88.131826 173.851592 
L 88.456806 175.811144 
L 88.781785 183.15148 
L 89.106765 172.813392 
L 89.431744 176.8514 
L 90.081704 180.509472 
L 90.406683 174.519896 
L 90.731663 172.372856 
L 91.056642 186.216728 
L 91.706601 168.64124 
L 92.031581 175.100504 
L 92.35656 185.945656 
L 92.68154 164.486264 
L 93.331499 183.868168 
L 93.656478 163.6214 
L 93.981458 163.909768 
L 94.306437 163.412744 
L 94.631417 172.143032 
L 94.956396 165.7786 
L 95.281376 163.786752 
L 95.606355 173.694344 
L 95.931335 170.3902 
L 96.256314 165.739288 
L 96.581294 171.528192 
L 96.906274 162.415912 
L 97.231253 182.260368 
L 97.556233 172.392088 
L 97.881212 168.89332 
L 98.531171 186.151288 
L 98.856151 185.789376 
L 99.18113 185.602856 
L 99.50611 188.727736 
L 99.831089 168.349968 
L 100.156069 178.411784 
L 100.481048 174.314264 
L 100.806028 176.833256 
L 101.131007 180.751392 
L 101.455987 172.756904 
L 101.780966 176.58432 
L 102.105946 189.278104 
L 102.430925 166.003344 
L 102.755905 182.073848 
L 103.080885 182.261336 
L 103.405864 169.702664 
L 104.055823 177.210288 
L 104.380803 174.90092 
L 104.705782 188.046248 
L 105.030762 179.057952 
L 105.355741 179.420832 
L 105.680721 185.680512 
L 106.0057 174.080448 
L 106.33068 183.54956 
L 106.655659 174.5078 
L 106.980639 176.672016 
L 107.305618 169.864024 
L 107.630598 179.993336 
L 107.955577 174.994664 
L 108.280557 194.364472 
L 108.605536 189.650056 
L 109.255495 175.321256 
L 109.580475 156.30332 
L 109.905455 167.903384 
L 110.230434 164.734232 
L 110.555414 168.497176 
L 110.880393 177.544984 
L 111.205373 172.682392 
L 111.530352 172.706584 
L 111.855332 180.022608 
L 112.180311 174.359624 
L 112.505291 179.661784 
L 112.83027 171.881032 
L 113.15525 182.635344 
L 113.480229 181.89652 
L 113.805209 169.606984 
L 114.130188 179.863304 
L 114.455168 182.616232 
L 114.780147 200.12108 
L 115.105127 183.410456 
L 115.430106 182.945848 
L 115.755086 173.753856 
L 116.405045 162.450144 
L 116.730025 163.526688 
L 117.055004 164.152656 
L 117.379984 165.504384 
L 117.704963 173.803208 
L 118.029943 166.180792 
L 118.354922 174.307248 
L 118.679902 149.719104 
L 119.004881 170.123 
L 119.329861 174.370752 
L 119.65484 170.565592 
L 119.97982 162.662792 
L 120.304799 175.724536 
L 120.629779 159.938168 
L 120.954758 175.793 
L 121.279738 163.795824 
L 121.604717 168.914488 
L 121.929697 166.02548 
L 122.254676 165.483216 
L 122.579656 171.174384 
L 122.904636 173.248848 
L 123.229615 172.293264 
L 123.554595 172.30028 
L 123.879574 178.007656 
L 124.204554 171.224824 
L 124.854513 182.66256 
L 125.179492 167.3662 
L 125.504472 176.933048 
L 125.829451 177.916936 
L 126.154431 182.129368 
L 126.80439 162.968216 
L 127.129369 167.897336 
L 127.454349 165.06796 
L 127.779328 172.827544 
L 128.104308 186.002024 
L 128.429287 187.256016 
L 128.754267 178.90772 
L 129.404226 172.675256 
L 129.729206 174.738712 
L 130.054185 171.263048 
L 130.379165 175.996696 
L 130.704144 183.823776 
L 131.029124 180.764456 
L 131.354103 165.693928 
L 131.679083 164.761448 
L 132.004062 171.276232 
L 132.329042 161.238488 
L 132.979001 176.830232 
L 133.30398 181.431792 
L 133.62896 180.90864 
L 133.953939 174.214472 
L 134.278919 185.0918 
L 134.603898 183.83684 
L 135.253857 174.319344 
L 135.578837 181.328008 
L 135.903817 176.30708 
L 136.228796 174.630816 
L 136.553776 175.259808 
L 136.878755 168.774296 
L 137.203735 168.050592 
L 137.528714 176.653872 
L 137.853694 180.549752 
L 138.503653 175.6418 
L 138.828632 175.411008 
L 139.153612 179.711136 
L 139.478591 174.106696 
L 139.803571 179.550864 
L 140.12855 168.569752 
L 140.45353 183.014312 
L 141.103489 168.74708 
L 141.428468 171.63004 
L 141.753448 167.544616 
L 142.078428 166.681688 
L 142.403407 180.124456 
L 142.728387 163.983312 
L 143.053366 173.32348 
L 143.378346 176.046048 
L 143.703325 176.445216 
L 144.028305 169.352968 
L 144.678264 182.211984 
L 145.003243 178.256592 
L 145.328223 171.13108 
L 145.653202 183.02036 
L 146.303161 172.153192 
L 146.628141 177.893712 
L 146.95312 177.162872 
L 147.603079 172.667272 
L 147.928059 173.518952 
L 148.253038 184.89524 
L 148.578018 173.76692 
L 148.902998 176.4734 
L 149.227977 188.334616 
L 149.552957 179.829072 
L 149.877936 184.902376 
L 150.202916 171.31748 
L 150.527895 165.11332 
L 150.852875 167.621184 
L 151.502834 181.845112 
L 151.827813 175.60152 
L 152.152793 166.001288 
L 152.477772 177.275848 
L 152.802752 173.5654 
L 153.127731 175.681112 
L 153.452711 191.410992 
L 153.77769 168.401376 
L 154.427649 174.721536 
L 154.752629 166.090072 
L 155.077609 182.584904 
L 155.402588 170.869928 
L 156.052547 176.283976 
L 156.377527 166.827928 
L 157.027486 184.536472 
L 157.352465 171.62496 
L 157.677445 193.117496 
L 158.002424 189.667112 
L 158.327404 179.420832 
L 158.652383 180.28872 
L 158.977363 168.480968 
L 159.302342 181.255432 
L 159.952301 173.114824 
L 160.277281 178.311992 
L 160.60226 171.440496 
L 160.92724 176.375664 
L 161.252219 170.441608 
L 161.577199 181.981192 
L 161.902179 171.008064 
L 162.227158 171.989896 
L 162.552138 174.752744 
L 163.202097 172.37588 
L 163.527076 177.682032 
L 163.852056 166.577904 
L 164.177035 177.633648 
L 164.502015 181.930752 
L 164.826994 179.284752 
L 165.151974 173.573384 
L 165.476953 174.935272 
L 165.801933 183.175672 
L 166.126912 174.100648 
L 166.451892 180.890496 
L 166.776871 171.290264 
L 167.101851 174.454456 
L 167.42683 175.242632 
L 167.75181 181.003352 
L 168.07679 172.851736 
L 168.401769 175.401936 
L 168.726749 189.256936 
L 169.051728 168.586808 
L 169.376708 167.410472 
L 169.701687 173.965536 
L 170.026667 167.793552 
L 170.351646 166.662576 
L 170.676626 181.656536 
L 171.001605 180.090104 
L 171.326585 175.572248 
L 171.651564 173.319368 
L 171.976544 168.1776 
L 172.301523 179.404744 
L 172.626503 182.456928 
L 172.951482 172.326528 
L 173.276462 178.753496 
L 173.601441 175.531 
L 173.926421 183.183656 
L 174.2514 180.546728 
L 174.57638 180.329 
L 174.90136 180.740264 
L 175.226339 176.114632 
L 175.551319 177.873512 
L 175.876298 165.075944 
L 176.201278 175.397944 
L 176.851237 187.749896 
L 177.176216 174.241688 
L 177.501196 172.67332 
L 177.826175 181.2564 
L 178.151155 180.914688 
L 178.476134 178.360376 
L 178.801114 176.751608 
L 179.126093 179.715128 
L 179.451073 170.65728 
L 179.776052 184.706784 
L 180.101032 177.993504 
L 180.426011 176.202328 
L 180.750991 169.975912 
L 181.075971 180.017528 
L 181.40095 176.224464 
L 181.72593 178.662776 
L 182.050909 188.250912 
L 182.375889 181.626296 
L 182.700868 167.897336 
L 183.025848 171.904136 
L 183.350827 170.900168 
L 183.675807 183.915464 
L 184.000786 170.98992 
L 184.325766 178.528752 
L 184.975725 185.272272 
L 185.300704 176.976472 
L 185.625684 173.805264 
L 185.950663 178.114464 
L 186.275643 172.737792 
L 186.600622 174.095568 
L 187.250581 181.228216 
L 187.575561 173.030152 
L 187.900541 177.716264 
L 188.22552 177.959272 
L 188.5505 165.978184 
L 188.875479 171.069512 
L 189.200459 185.708696 
L 189.525438 174.808264 
L 189.850418 173.526088 
L 190.500377 178.180024 
L 190.825356 182.916576 
L 191.150336 180.360328 
L 191.800295 161.256632 
L 192.125274 172.571472 
L 192.450254 173.372832 
L 192.775233 178.344288 
L 193.100213 186.561464 
L 193.425192 171.5594 
L 193.750172 166.784504 
L 194.400131 188.078544 
L 194.725111 182.22408 
L 195.05009 170.251096 
L 195.37507 165.077032 
L 195.700049 173.037168 
L 196.025029 166.239216 
L 196.350008 169.096896 
L 196.999967 161.788856 
L 197.324947 162.166856 
L 197.649926 170.965728 
L 197.974906 163.052888 
L 198.299885 170.716792 
L 198.624865 173.149056 
L 198.949844 165.056832 
L 199.274824 173.04624 
L 199.599803 171.72572 
L 199.924783 172.140008 
L 200.249762 157.335592 
L 200.574742 173.063416 
L 200.899722 169.24604 
L 201.224701 150.750288 
L 201.549681 169.832696 
L 201.87466 176.857448 
L 202.19964 175.368672 
L 202.524619 171.026208 
L 202.849599 172.569416 
L 203.174578 170.887104 
L 203.499558 166.437832 
L 203.824537 175.921096 
L 204.149517 166.20196 
L 204.474496 174.76992 
L 204.799476 171.102776 
L 205.124455 155.715696 
L 205.449435 170.251096 
L 205.774414 157.25092 
L 206.099394 160.417048 
L 206.424373 174.441272 
L 207.074333 172.208592 
L 207.399312 170.282304 
L 208.049271 172.997856 
L 208.374251 177.218392 
L 208.69923 173.32348 
L 209.02421 163.400648 
L 209.349189 161.462264 
L 209.674169 168.867072 
L 209.999148 183.784464 
L 210.324128 181.907528 
L 210.649107 186.806408 
L 210.974087 172.787144 
L 211.299066 168.591888 
L 211.624046 161.57016 
L 211.949025 168.645352 
L 212.274005 178.473352 
L 212.598984 163.000512 
L 212.923964 172.694488 
L 213.248943 174.69432 
L 213.573923 173.386984 
L 213.898903 173.76196 
L 214.223882 181.909584 
L 214.548862 173.50492 
L 214.873841 175.840416 
L 215.198821 171.0706 
L 215.5238 170.66732 
L 216.173759 184.130168 
L 216.498739 179.555944 
L 216.823718 189.755896 
L 217.148698 181.617224 
L 217.473677 180.00652 
L 217.798657 176.334296 
L 218.123636 187.392096 
L 218.448616 177.808072 
L 218.773595 181.097096 
L 219.423554 166.4942 
L 219.748534 169.384176 
L 220.073514 181.181768 
L 220.398493 176.04 
L 220.723473 176.04 
L 221.048452 174.803184 
L 221.373432 178.542904 
L 221.698411 179.86536 
L 222.023391 178.490408 
L 222.34837 175.003736 
L 222.67335 166.508352 
L 223.323309 200.240104 
L 223.648288 188.8366 
L 223.973268 188.32252 
L 224.298247 183.561656 
L 224.623227 176.633672 
L 224.948206 180.633456 
L 225.273186 168.17252 
L 225.598165 169.70472 
L 225.923145 173.105752 
L 226.248124 168.115064 
L 226.573104 178.679952 
L 226.898084 174.392888 
L 227.223063 176.141848 
L 227.548043 184.894272 
L 227.873022 169.455784 
L 228.198002 181.132416 
L 228.522981 183.338968 
L 228.847961 184.483008 
L 229.17294 174.370752 
L 229.49792 172.987816 
L 229.822899 169.202736 
L 230.147879 162.62856 
L 230.472858 172.820408 
L 230.797838 172.201576 
L 231.122817 183.86708 
L 231.447797 164.283656 
L 232.097756 184.156416 
L 232.422735 182.048688 
L 233.072695 168.219936 
L 233.397674 165.095176 
L 233.722654 174.282088 
L 234.047633 177.54196 
L 234.697592 173.809256 
L 235.022572 181.36732 
L 235.347551 175.874648 
L 235.672531 173.394 
L 235.99751 189.30024 
L 236.32249 179.15472 
L 236.647469 184.082872 
L 236.972449 172.724728 
L 237.297428 174.58848 
L 237.622408 173.295176 
L 237.947387 184.256208 
L 238.597346 165.10824 
L 238.922326 177.692072 
L 239.247305 176.082336 
L 239.572285 177.383624 
L 239.897265 177.796944 
L 240.547224 171.441464 
L 240.872203 161.728376 
L 241.197183 177.755576 
L 241.522162 180.824936 
L 241.847142 176.036976 
L 242.172121 180.688856 
L 242.497101 179.565016 
L 242.82208 172.570504 
L 243.472039 180.370368 
L 243.797019 167.511352 
L 244.121998 181.610208 
L 244.446978 174.143952 
L 244.771957 181.28664 
L 245.096937 175.160016 
L 245.421916 173.35868 
L 245.746896 178.868408 
L 246.071876 174.167176 
L 246.396855 180.49532 
L 246.721835 180.614344 
L 247.046814 160.731544 
L 247.371794 175.800136 
L 247.696773 175.333352 
L 248.021753 178.0056 
L 248.346732 178.764624 
L 248.671712 176.21636 
L 248.996691 180.156632 
L 249.321671 175.804128 
L 249.64665 174.182296 
L 249.97163 162.641624 
L 250.296609 168.902392 
L 250.621589 153.991048 
L 251.271548 167.912456 
L 251.596527 190.319328 
L 251.921507 174.421192 
L 252.246486 180.69188 
L 252.571466 169.076696 
L 252.896446 170.1432 
L 253.546405 165.322944 
L 253.871384 181.411592 
L 254.196364 171.368888 
L 254.521343 180.079096 
L 254.846323 184.578808 
L 255.496282 166.870264 
L 255.821261 179.488328 
L 256.47122 168.755184 
L 256.7962 176.499648 
L 257.121179 171.51404 
L 257.446159 174.363736 
L 257.771138 172.581512 
L 258.096118 168.92852 
L 258.421097 175.7578 
L 258.746077 178.372472 
L 259.396036 175.244688 
L 259.721016 183.118216 
L 260.370975 169.940592 
L 260.695954 175.428184 
L 261.020934 167.780488 
L 261.345913 172.47168 
L 261.670893 183.78144 
L 261.995872 172.101784 
L 262.320852 173.452424 
L 262.645831 175.981576 
L 262.970811 171.845712 
L 263.29579 181.171728 
L 263.62077 176.994616 
L 263.945749 186.546344 
L 264.270729 168.456776 
L 264.595708 169.60396 
L 264.920688 172.87992 
L 265.245667 179.45204 
L 265.570647 169.040408 
L 265.895627 178.961184 
L 266.220606 170.56656 
L 266.545586 178.818088 
L 266.870565 176.400824 
L 267.195545 181.77556 
L 267.520524 175.63684 
L 267.845504 177.433096 
L 268.170483 168.352992 
L 268.495463 177.055096 
L 268.820442 178.971224 
L 269.145422 171.148136 
L 269.470401 169.332768 
L 269.795381 173.804296 
L 270.12036 182.336936 
L 270.44534 182.85912 
L 270.770319 178.001608 
L 271.095299 181.219144 
L 271.420278 168.506248 
L 271.745258 177.343344 
L 272.070238 181.217088 
L 272.395217 174.705448 
L 272.720197 179.949064 
L 273.045176 179.974224 
L 273.370156 177.40588 
L 273.695135 159.262848 
L 274.020115 171.733824 
L 274.345094 177.530832 
L 274.670074 188.93228 
L 274.995053 175.548056 
L 275.320033 177.588288 
L 275.645012 170.816584 
L 275.969992 170.674456 
L 276.294971 166.129384 
L 276.94493 172.7338 
L 277.26991 178.295904 
L 277.594889 180.306864 
L 277.919869 186.461672 
L 278.244848 169.49304 
L 278.569828 166.657496 
L 278.894808 179.453128 
L 279.219787 181.240312 
L 279.544767 168.223928 
L 280.194726 166.32292 
L 280.519705 179.340152 
L 280.844685 179.747424 
L 281.169664 169.642184 
L 281.494644 178.667856 
L 281.819623 162.443128 
L 282.144603 172.067432 
L 282.469582 165.87428 
L 282.794562 172.47676 
L 283.119541 186.725848 
L 283.444521 168.755184 
L 283.7695 181.329944 
L 284.09448 186.751976 
L 284.419459 184.234072 
L 284.744439 179.621384 
L 285.069419 167.025456 
L 285.394398 173.672208 
L 285.719378 184.215928 
L 286.044357 182.211016 
L 286.369337 171.823576 
L 286.694316 178.633624 
L 287.019296 172.392088 
L 287.344275 177.757632 
L 287.669255 170.466768 
L 287.994234 176.078344 
L 288.319214 176.05004 
L 288.644193 168.68164 
L 288.969173 173.2428 
L 289.294152 175.673128 
L 289.619132 172.74892 
L 289.944111 176.625688 
L 290.269091 169.529328 
L 290.59407 171.45864 
L 290.91905 183.51436 
L 291.244029 174.277008 
L 291.569009 185.446696 
L 291.893989 168.352024 
L 292.218968 176.959296 
L 292.543948 177.074208 
L 292.868927 160.055136 
L 293.193907 167.36112 
L 293.518886 167.948744 
L 293.843866 174.963456 
L 294.168845 173.430288 
L 294.493825 177.154888 
L 294.818804 175.150944 
L 295.143784 171.59472 
L 295.468763 179.273624 
L 295.793743 177.412896 
L 296.118722 183.79148 
L 296.443702 174.005816 
L 296.768681 171.69052 
L 297.093661 176.273816 
L 297.41864 175.751752 
L 297.74362 168.150384 
L 298.0686 173.238808 
L 298.393579 172.080616 
L 298.718559 174.672184 
L 299.043538 171.75596 
L 299.368518 174.761816 
L 299.693497 187.205576 
L 300.018477 186.59884 
L 300.343456 178.409848 
L 300.668436 179.842136 
L 300.993415 171.44352 
L 301.318395 179.207096 
L 301.643374 171.547304 
L 301.968354 174.975552 
L 302.293333 159.183256 
L 302.618313 175.250736 
L 302.943292 178.704144 
L 303.268272 171.101808 
L 303.593251 180.336136 
L 303.918231 174.347528 
L 304.24321 171.744952 
L 304.56819 174.878784 
L 304.89317 176.873656 
L 305.218149 168.211832 
L 305.543129 177.447128 
L 305.868108 174.887856 
L 306.193088 180.260536 
L 306.518067 176.575248 
L 306.843047 178.195144 
L 307.168026 168.776352 
L 307.493006 180.194008 
L 307.817985 173.285136 
L 308.142965 183.432712 
L 308.467944 172.483776 
L 308.792924 168.18764 
L 309.117903 178.380576 
L 309.442883 171.329576 
L 309.767862 175.560152 
L 310.092842 181.99728 
L 310.417821 183.2774 
L 311.39276 167.912456 
L 311.71774 170.641192 
L 312.042719 175.393832 
L 312.367699 166.876312 
L 312.692678 180.151672 
L 313.017658 182.005384 
L 313.342637 171.741928 
L 313.992596 176.383768 
L 314.317576 173.715512 
L 314.642555 173.250904 
L 314.967535 167.800568 
L 315.292514 175.27892 
L 315.617494 187.512088 
L 315.942473 187.225776 
L 316.267453 177.197224 
L 316.592432 174.994664 
L 316.917412 178.06608 
L 317.242391 175.749696 
L 317.567371 166.935704 
L 317.892351 181.602104 
L 318.21733 181.94684 
L 318.54231 172.32556 
L 318.867289 174.933216 
L 319.192269 178.465248 
L 319.517248 169.249064 
L 319.842228 181.777496 
L 320.167207 186.82564 
L 320.492187 175.583376 
L 320.817166 174.360712 
L 321.142146 168.623096 
L 321.467125 181.903536 
L 321.792105 168.508184 
L 322.117084 174.644968 
L 322.442064 169.42252 
L 322.767043 174.7548 
L 323.092023 175.043048 
L 323.417002 179.400632 
L 323.741982 171.56956 
L 324.066962 171.914296 
L 324.391941 172.846656 
L 324.716921 163.8684 
L 325.0419 181.487192 
L 325.36688 168.1574 
L 325.691859 164.617384 
L 326.016839 179.339184 
L 326.341818 171.570528 
L 326.666798 178.123536 
L 327.316757 164.595128 
L 327.641736 175.075344 
L 327.966716 156.393072 
L 328.291695 164.777656 
L 328.616675 169.89124 
L 328.941654 178.92792 
L 329.266634 168.488104 
L 329.591613 171.369976 
L 330.241572 186.868944 
L 330.566552 178.1568 
L 330.891532 181.419696 
L 331.216511 182.513416 
L 331.541491 159.414048 
L 331.86647 169.867048 
L 332.19145 166.914536 
L 332.516429 159.364696 
L 332.841409 186.277208 
L 333.166388 175.987624 
L 333.491368 175.68716 
L 333.816347 170.694536 
L 334.141327 168.830784 
L 334.791286 177.059088 
L 335.116265 154.906232 
L 335.441245 155.933424 
L 335.766224 159.7104 
L 336.091204 168.48 
L 336.416183 171.411224 
L 336.741163 175.734576 
L 337.066143 173.631928 
L 337.391122 167.200848 
L 337.716102 177.442168 
L 338.041081 173.98368 
L 338.366061 175.442216 
L 338.69104 175.224488 
L 339.01602 168.650312 
L 339.340999 171.437472 
L 339.665979 180.015592 
L 339.990958 171.568472 
L 340.315938 169.478888 
L 340.640917 177.140736 
L 340.965897 180.20804 
L 341.290876 184.47696 
L 341.615856 178.770672 
L 341.940835 168.19272 
L 342.265815 169.041496 
L 342.590794 178.969288 
L 342.915774 177.771784 
L 343.240753 177.727392 
L 343.565733 176.16096 
L 343.890713 173.113736 
L 344.215692 179.231288 
L 344.540672 180.230296 
L 344.865651 169.782376 
L 345.190631 177.358464 
L 345.51561 164.121448 
L 345.84059 177.576192 
L 346.165569 175.9644 
L 346.815528 167.062712 
L 347.140508 176.469408 
L 347.465487 179.75952 
L 347.790467 173.9434 
L 348.115446 181.477152 
L 348.440426 167.31068 
L 348.765405 170.724776 
L 349.090385 178.150752 
L 349.740344 167.619128 
L 350.065324 179.197056 
L 350.390303 178.397752 
L 350.715283 172.548248 
L 351.040262 181.131448 
L 351.365242 170.524224 
L 351.690221 178.76668 
L 352.015201 174.014888 
L 352.34018 176.848376 
L 352.66516 174.977608 
L 352.990139 181.86628 
L 353.315119 172.984792 
L 353.640098 167.372248 
L 353.965078 178.34332 
L 354.290057 174.005816 
L 354.615037 174.454456 
L 354.940016 174.369784 
L 355.264996 175.805096 
L 355.589975 170.557488 
L 355.914955 169.12508 
L 356.239934 165.312904 
L 356.564914 187.045304 
L 356.889894 173.114824 
L 357.214873 180.849128 
L 357.539853 176.759712 
L 357.864832 166.46396 
L 358.189812 181.46808 
L 358.514791 190.132808 
L 358.839771 175.895816 
L 359.16475 172.916208 
L 359.48973 176.617584 
L 359.814709 167.125248 
L 360.139689 171.697536 
L 360.464668 171.501944 
L 360.789648 176.576216 
L 361.114627 162.163832 
L 361.439607 170.60684 
L 361.764586 167.740088 
L 362.089566 170.34484 
L 362.414545 162.546912 
L 362.739525 172.858752 
L 363.064505 165.286656 
L 363.389484 166.253368 
L 363.714464 162.597352 
L 364.039443 171.296312 
L 364.364423 164.724192 
L 364.689402 175.866664 
L 365.014382 167.813752 
L 365.339361 172.846656 
L 365.664341 180.068936 
L 365.98932 180.488304 
L 366.3143 172.22468 
L 366.639279 169.51324 
L 366.964259 172.54728 
L 367.289238 168.46996 
L 367.614218 179.465224 
L 367.939197 182.399472 
L 368.264177 177.287944 
L 368.589156 176.121648 
L 368.914136 180.504392 
L 369.239115 178.522704 
L 369.564095 178.342232 
L 369.889075 169.337848 
L 370.214054 184.37112 
L 370.539034 174.572392 
L 370.864013 158.11276 
L 371.188993 170.409312 
L 371.838952 178.677896 
L 372.163931 171.6754 
L 372.488911 167.851976 
L 372.81389 185.7722 
L 373.13887 173.841552 
L 373.463849 175.26888 
L 373.788829 173.712488 
L 374.113808 162.827176 
L 374.438788 166.707936 
L 374.763767 180.936824 
L 375.088747 169.630088 
L 375.413726 172.682392 
L 375.738706 178.916792 
L 376.063686 176.171 
L 376.388665 166.14148 
L 377.038624 177.292904 
L 377.363604 171.939456 
L 377.688583 176.852488 
L 378.013563 178.639672 
L 378.338542 162.62348 
L 378.663522 174.717544 
L 378.988501 177.857424 
L 379.313481 176.796968 
L 379.63846 180.34412 
L 379.96344 181.072904 
L 380.288419 176.557104 
L 380.613399 174.106696 
L 380.938378 167.232056 
L 381.263358 170.75804 
L 381.588337 164.106328 
L 381.913317 180.604184 
L 382.238296 167.652392 
L 382.563276 181.375304 
L 382.888256 188.672216 
L 383.213235 185.267192 
L 383.863194 165.739288 
L 384.188174 179.503448 
L 384.513153 167.508328 
L 384.838133 178.115432 
L 385.163112 159.959336 
L 385.488092 166.022456 
L 385.813071 176.417032 
L 386.138051 171.810392 
L 386.46303 182.260368 
L 386.78801 174.222576 
L 387.112989 171.40324 
L 387.437969 187.492856 
L 387.762948 172.638968 
L 388.087928 175.43012 
L 388.412907 175.402904 
L 388.737887 179.284752 
L 389.062867 167.622152 
L 389.712826 187.847752 
L 390.037805 172.793192 
L 390.362785 178.149784 
L 390.687764 178.60036 
L 391.012744 179.676904 
L 391.337723 160.341448 
L 391.662703 179.2152 
L 391.987682 171.56448 
L 392.312662 183.905424 
L 392.637641 183.785432 
L 392.962621 179.40668 
L 393.2876 179.575056 
L 393.61258 174.022992 
L 393.937559 164.52364 
L 394.262539 168.406456 
L 394.587518 177.833232 
L 394.912498 166.864216 
L 395.237477 175.14792 
L 395.562457 171.064552 
L 395.887437 174.943256 
L 396.212416 182.895408 
L 396.537396 181.222168 
L 396.862375 166.997272 
L 397.187355 173.796192 
L 397.512334 171.708664 
L 397.837314 162.937976 
L 398.162293 175.740624 
L 398.487273 170.232952 
L 398.487273 170.232952 
" clip-path="url(#p592386bce8)" style="fill: none; stroke: #ff7f0e; stroke-width: 1.5; stroke-linecap: square"/>
   </g>
   <g id="patch_3">
    <path d="M 57.6 307.584 
L 57.6 41.472 
" style="fill: none; stroke: #000000; stroke-width: 0.8; stroke-linejoin: miter; stroke-linecap: square"/>
   </g>
   <g id="patch_4">
    <path d="M 414.72 307.584 
L 414.72 41.472 
" style="fill: none; stroke: #000000; stroke-width: 0.8; stroke-linejoin: miter; stroke-linecap: square"/>
   </g>
   <g id="patch_5">
    <path d="M 57.6 307.584 
L 414.72 307.584 
" style="fill: none; stroke: #000000; stroke-width: 0.8; stroke-linejoin: miter; stroke-linecap: square"/>
   </g>
   <g id="patch_6">
    <path d="M 57.6 41.472 
L 414.72 41.472 
" style="fill: none; stroke: #000000; stroke-width: 0.8; stroke-linejoin: miter; stroke-linecap: square"/>
   </g>
   <g id="legend_1">
    <g id="patch_7">
     <path d="M 64.6 78.82825 
L 215.140625 78.82825 
Q 217.140625 78.82825 217.140625 76.82825 
L 217.140625 48.472 
Q 217.140625 46.472 215.140625 46.472 
L 64.6 46.472 
Q 62.6 46.472 62.6 48.472 
L 62.6 76.82825 
Q 62.6 78.82825 64.6 78.82825 
z
" style="fill: #ffffff; opacity: 0.8; stroke: #cccccc; stroke-linejoin: miter"/>
    </g>
    <g id="line2d_33">
     <path d="M 66.6 54.570437 
L 76.6 54.570437 
L 86.6 54.570437 
" style="fill: none; stroke: #1f77b4; stroke-width: 1.5; stroke-linecap: square"/>
    </g>
    <g id="text_18">
     <!-- GPS derived deltaH -->
     <g transform="translate(94.6 58.070437)scale(0.1 -0.1)">
      <defs>
       <path id="DejaVuSans-47" d="M 3809 666 
L 3809 1919 
L 2778 1919 
L 2778 2438 
L 4434 2438 
L 4434 434 
Q 4069 175 3628 42 
Q 3188 -91 2688 -91 
Q 1594 -91 976 548 
Q 359 1188 359 2328 
Q 359 3472 976 4111 
Q 1594 4750 2688 4750 
Q 3144 4750 3555 4637 
Q 3966 4525 4313 4306 
L 4313 3634 
Q 3963 3931 3569 4081 
Q 3175 4231 2741 4231 
Q 1884 4231 1454 3753 
Q 1025 3275 1025 2328 
Q 1025 1384 1454 906 
Q 1884 428 2741 428 
Q 3075 428 3337 486 
Q 3600 544 3809 666 
z
" transform="scale(0.015625)"/>
       <path id="DejaVuSans-50" d="M 1259 4147 
L 1259 2394 
L 2053 2394 
Q 2494 2394 2734 2622 
Q 2975 2850 2975 3272 
Q 2975 3691 2734 3919 
Q 2494 4147 2053 4147 
L 1259 4147 
z
M 628 4666 
L 2053 4666 
Q 2838 4666 3239 4311 
Q 3641 3956 3641 3272 
Q 3641 2581 3239 2228 
Q 2838 1875 2053 1875 
L 1259 1875 
L 1259 0 
L 628 0 
L 628 4666 
z
" transform="scale(0.015625)"/>
       <path id="DejaVuSans-53" d="M 3425 4513 
L 3425 3897 
Q 3066 4069 2747 4153 
Q 2428 4238 2131 4238 
Q 1616 4238 1336 4038 
Q 1056 3838 1056 3469 
Q 1056 3159 1242 3001 
Q 1428 2844 1947 2747 
L 2328 2669 
Q 3034 2534 3370 2195 
Q 3706 1856 3706 1288 
Q 3706 609 3251 259 
Q 2797 -91 1919 -91 
Q 1588 -91 1214 -16 
Q 841 59 441 206 
L 441 856 
Q 825 641 1194 531 
Q 1563 422 1919 422 
Q 2459 422 2753 634 
Q 3047 847 3047 1241 
Q 3047 1584 2836 1778 
Q 2625 1972 2144 2069 
L 1759 2144 
Q 1053 2284 737 2584 
Q 422 2884 422 3419 
Q 422 4038 858 4394 
Q 1294 4750 2059 4750 
Q 2388 4750 2728 4690 
Q 3069 4631 3425 4513 
z
" transform="scale(0.015625)"/>
       <path id="DejaVuSans-48" d="M 628 4666 
L 1259 4666 
L 1259 2753 
L 3553 2753 
L 3553 4666 
L 4184 4666 
L 4184 0 
L 3553 0 
L 3553 2222 
L 1259 2222 
L 1259 0 
L 628 0 
L 628 4666 
z
" transform="scale(0.015625)"/>
      </defs>
      <use xlink:href="#DejaVuSans-47"/>
      <use xlink:href="#DejaVuSans-50" x="77.490234"/>
      <use xlink:href="#DejaVuSans-53" x="137.792969"/>
      <use xlink:href="#DejaVuSans-20" x="201.269531"/>
      <use xlink:href="#DejaVuSans-64" x="233.056641"/>
      <use xlink:href="#DejaVuSans-65" x="296.533203"/>
      <use xlink:href="#DejaVuSans-72" x="358.056641"/>
      <use xlink:href="#DejaVuSans-69" x="399.169922"/>
      <use xlink:href="#DejaVuSans-76" x="426.953125"/>
      <use xlink:href="#DejaVuSans-65" x="486.132812"/>
      <use xlink:href="#DejaVuSans-64" x="547.65625"/>
      <use xlink:href="#DejaVuSans-20" x="611.132812"/>
      <use xlink:href="#DejaVuSans-64" x="642.919922"/>
      <use xlink:href="#DejaVuSans-65" x="706.396484"/>
      <use xlink:href="#DejaVuSans-6c" x="767.919922"/>
      <use xlink:href="#DejaVuSans-74" x="795.703125"/>
      <use xlink:href="#DejaVuSans-61" x="834.912109"/>
      <use xlink:href="#DejaVuSans-48" x="896.191406"/>
     </g>
    </g>
    <g id="line2d_34">
     <path d="M 66.6 69.248562 
L 76.6 69.248562 
L 86.6 69.248562 
" style="fill: none; stroke: #ff7f0e; stroke-width: 1.5; stroke-linecap: square"/>
    </g>
    <g id="text_19">
     <!-- bmp280 derived deltaH -->
     <g transform="translate(94.6 72.748562)scale(0.1 -0.1)">
      <defs>
       <path id="DejaVuSans-62" d="M 3116 1747 
Q 3116 2381 2855 2742 
Q 2594 3103 2138 3103 
Q 1681 3103 1420 2742 
Q 1159 2381 1159 1747 
Q 1159 1113 1420 752 
Q 1681 391 2138 391 
Q 2594 391 2855 752 
Q 3116 1113 3116 1747 
z
M 1159 2969 
Q 1341 3281 1617 3432 
Q 1894 3584 2278 3584 
Q 2916 3584 3314 3078 
Q 3713 2572 3713 1747 
Q 3713 922 3314 415 
Q 2916 -91 2278 -91 
Q 1894 -91 1617 61 
Q 1341 213 1159 525 
L 1159 0 
L 581 0 
L 581 4863 
L 1159 4863 
L 1159 2969 
z
" transform="scale(0.015625)"/>
      </defs>
      <use xlink:href="#DejaVuSans-62"/>
      <use xlink:href="#DejaVuSans-6d" x="63.476562"/>
      <use xlink:href="#DejaVuSans-70" x="160.888672"/>
      <use xlink:href="#DejaVuSans-32" x="224.365234"/>
      <use xlink:href="#DejaVuSans-38" x="287.988281"/>
      <use xlink:href="#DejaVuSans-30" x="351.611328"/>
      <use xlink:href="#DejaVuSans-20" x="415.234375"/>
      <use xlink:href="#DejaVuSans-64" x="447.021484"/>
      <use xlink:href="#DejaVuSans-65" x="510.498047"/>
      <use xlink:href="#DejaVuSans-72" x="572.021484"/>
      <use xlink:href="#DejaVuSans-69" x="613.134766"/>
      <use xlink:href="#DejaVuSans-76" x="640.917969"/>
      <use xlink:href="#DejaVuSans-65" x="700.097656"/>
      <use xlink:href="#DejaVuSans-64" x="761.621094"/>
      <use xlink:href="#DejaVuSans-20" x="825.097656"/>
      <use xlink:href="#DejaVuSans-64" x="856.884766"/>
      <use xlink:href="#DejaVuSans-65" x="920.361328"/>
      <use xlink:href="#DejaVuSans-6c" x="981.884766"/>
      <use xlink:href="#DejaVuSans-74" x="1009.667969"/>
      <use xlink:href="#DejaVuSans-61" x="1048.876953"/>
      <use xlink:href="#DejaVuSans-48" x="1110.15625"/>
     </g>
    </g>
   </g>
  </g>
 </g>
 <defs>
  <clipPath id="p592386bce8">
   <rect x="57.6" y="41.472" width="357.12" height="266.112"/>
  </clipPath>
 </defs>
</svg>
