<?xml version="1.0" encoding="utf-8" standalone="no"?>
<!DOCTYPE svg PUBLIC "-//W3C//DTD SVG 1.1//EN"
  "http://www.w3.org/Graphics/SVG/1.1/DTD/svg11.dtd">
<svg xmlns:xlink="http://www.w3.org/1999/xlink" width="460.8pt" height="345.6pt" viewBox="0 0 460.8 345.6" xmlns="http://www.w3.org/2000/svg" version="1.1">
 <metadata>
  <rdf:RDF xmlns:dc="http://purl.org/dc/elements/1.1/" xmlns:cc="http://creativecommons.org/ns#" xmlns:rdf="http://www.w3.org/1999/02/22-rdf-syntax-ns#">
   <cc:Work>
    <dc:type rdf:resource="http://purl.org/dc/dcmitype/StillImage"/>
    <dc:date>2021-11-19T14:19:09.714935</dc:date>
    <dc:format>image/svg+xml</dc:format>
    <dc:creator>
     <cc:Agent>
      <dc:title>Matplotlib v3.5.0, https://matplotlib.org/</dc:title>
     </cc:Agent>
    </dc:creator>
   </cc:Work>
  </rdf:RDF>
 </metadata>
 <defs>
  <style type="text/css">*{stroke-linejoin: round; stroke-linecap: butt}</style>
 </defs>
 <g id="figure_1">
  <g id="patch_1">
   <path d="M 0 345.6 
L 460.8 345.6 
L 460.8 0 
L 0 0 
z
" style="fill: #ffffff"/>
  </g>
  <g id="axes_1">
   <g id="patch_2">
    <path d="M 57.6 162.432 
L 414.72 162.432 
L 414.72 41.472 
L 57.6 41.472 
z
" style="fill: #ffffff"/>
   </g>
   <g id="matplotlib.axis_1">
    <g id="xtick_1">
     <g id="line2d_1">
      <path d="M 73.832727 162.432 
L 73.832727 41.472 
" clip-path="url(#p0ec818289b)" style="fill: none; stroke: #b0b0b0; stroke-width: 0.8; stroke-linecap: square"/>
     </g>
     <g id="line2d_2">
      <defs>
       <path id="m45c206e028" d="M 0 0 
L 0 3.5 
" style="stroke: #000000; stroke-width: 0.8"/>
      </defs>
      <g>
       <use xlink:href="#m45c206e028" x="73.832727" y="162.432" style="stroke: #000000; stroke-width: 0.8"/>
      </g>
     </g>
     <g id="text_1">
      <!-- 0 -->
      <g transform="translate(70.651477 177.030437)scale(0.1 -0.1)">
       <defs>
        <path id="DejaVuSans-30" d="M 2034 4250 
Q 1547 4250 1301 3770 
Q 1056 3291 1056 2328 
Q 1056 1369 1301 889 
Q 1547 409 2034 409 
Q 2525 409 2770 889 
Q 3016 1369 3016 2328 
Q 3016 3291 2770 3770 
Q 2525 4250 2034 4250 
z
M 2034 4750 
Q 2819 4750 3233 4129 
Q 3647 3509 3647 2328 
Q 3647 1150 3233 529 
Q 2819 -91 2034 -91 
Q 1250 -91 836 529 
Q 422 1150 422 2328 
Q 422 3509 836 4129 
Q 1250 4750 2034 4750 
z
" transform="scale(0.015625)"/>
       </defs>
       <use xlink:href="#DejaVuSans-30"/>
      </g>
     </g>
    </g>
    <g id="xtick_2">
     <g id="line2d_3">
      <path d="M 138.828632 162.432 
L 138.828632 41.472 
" clip-path="url(#p0ec818289b)" style="fill: none; stroke: #b0b0b0; stroke-width: 0.8; stroke-linecap: square"/>
     </g>
     <g id="line2d_4">
      <g>
       <use xlink:href="#m45c206e028" x="138.828632" y="162.432" style="stroke: #000000; stroke-width: 0.8"/>
      </g>
     </g>
     <g id="text_2">
      <!-- 200 -->
      <g transform="translate(129.284882 177.030437)scale(0.1 -0.1)">
       <defs>
        <path id="DejaVuSans-32" d="M 1228 531 
L 3431 531 
L 3431 0 
L 469 0 
L 469 531 
Q 828 903 1448 1529 
Q 2069 2156 2228 2338 
Q 2531 2678 2651 2914 
Q 2772 3150 2772 3378 
Q 2772 3750 2511 3984 
Q 2250 4219 1831 4219 
Q 1534 4219 1204 4116 
Q 875 4013 500 3803 
L 500 4441 
Q 881 4594 1212 4672 
Q 1544 4750 1819 4750 
Q 2544 4750 2975 4387 
Q 3406 4025 3406 3419 
Q 3406 3131 3298 2873 
Q 3191 2616 2906 2266 
Q 2828 2175 2409 1742 
Q 1991 1309 1228 531 
z
" transform="scale(0.015625)"/>
       </defs>
       <use xlink:href="#DejaVuSans-32"/>
       <use xlink:href="#DejaVuSans-30" x="63.623047"/>
       <use xlink:href="#DejaVuSans-30" x="127.246094"/>
      </g>
     </g>
    </g>
    <g id="xtick_3">
     <g id="line2d_5">
      <path d="M 203.824537 162.432 
L 203.824537 41.472 
" clip-path="url(#p0ec818289b)" style="fill: none; stroke: #b0b0b0; stroke-width: 0.8; stroke-linecap: square"/>
     </g>
     <g id="line2d_6">
      <g>
       <use xlink:href="#m45c206e028" x="203.824537" y="162.432" style="stroke: #000000; stroke-width: 0.8"/>
      </g>
     </g>
     <g id="text_3">
      <!-- 400 -->
      <g transform="translate(194.280787 177.030437)scale(0.1 -0.1)">
       <defs>
        <path id="DejaVuSans-34" d="M 2419 4116 
L 825 1625 
L 2419 1625 
L 2419 4116 
z
M 2253 4666 
L 3047 4666 
L 3047 1625 
L 3713 1625 
L 3713 1100 
L 3047 1100 
L 3047 0 
L 2419 0 
L 2419 1100 
L 313 1100 
L 313 1709 
L 2253 4666 
z
" transform="scale(0.015625)"/>
       </defs>
       <use xlink:href="#DejaVuSans-34"/>
       <use xlink:href="#DejaVuSans-30" x="63.623047"/>
       <use xlink:href="#DejaVuSans-30" x="127.246094"/>
      </g>
     </g>
    </g>
    <g id="xtick_4">
     <g id="line2d_7">
      <path d="M 268.820442 162.432 
L 268.820442 41.472 
" clip-path="url(#p0ec818289b)" style="fill: none; stroke: #b0b0b0; stroke-width: 0.8; stroke-linecap: square"/>
     </g>
     <g id="line2d_8">
      <g>
       <use xlink:href="#m45c206e028" x="268.820442" y="162.432" style="stroke: #000000; stroke-width: 0.8"/>
      </g>
     </g>
     <g id="text_4">
      <!-- 600 -->
      <g transform="translate(259.276692 177.030437)scale(0.1 -0.1)">
       <defs>
        <path id="DejaVuSans-36" d="M 2113 2584 
Q 1688 2584 1439 2293 
Q 1191 2003 1191 1497 
Q 1191 994 1439 701 
Q 1688 409 2113 409 
Q 2538 409 2786 701 
Q 3034 994 3034 1497 
Q 3034 2003 2786 2293 
Q 2538 2584 2113 2584 
z
M 3366 4563 
L 3366 3988 
Q 3128 4100 2886 4159 
Q 2644 4219 2406 4219 
Q 1781 4219 1451 3797 
Q 1122 3375 1075 2522 
Q 1259 2794 1537 2939 
Q 1816 3084 2150 3084 
Q 2853 3084 3261 2657 
Q 3669 2231 3669 1497 
Q 3669 778 3244 343 
Q 2819 -91 2113 -91 
Q 1303 -91 875 529 
Q 447 1150 447 2328 
Q 447 3434 972 4092 
Q 1497 4750 2381 4750 
Q 2619 4750 2861 4703 
Q 3103 4656 3366 4563 
z
" transform="scale(0.015625)"/>
       </defs>
       <use xlink:href="#DejaVuSans-36"/>
       <use xlink:href="#DejaVuSans-30" x="63.623047"/>
       <use xlink:href="#DejaVuSans-30" x="127.246094"/>
      </g>
     </g>
    </g>
    <g id="xtick_5">
     <g id="line2d_9">
      <path d="M 333.816347 162.432 
L 333.816347 41.472 
" clip-path="url(#p0ec818289b)" style="fill: none; stroke: #b0b0b0; stroke-width: 0.8; stroke-linecap: square"/>
     </g>
     <g id="line2d_10">
      <g>
       <use xlink:href="#m45c206e028" x="333.816347" y="162.432" style="stroke: #000000; stroke-width: 0.8"/>
      </g>
     </g>
     <g id="text_5">
      <!-- 800 -->
      <g transform="translate(324.272597 177.030437)scale(0.1 -0.1)">
       <defs>
        <path id="DejaVuSans-38" d="M 2034 2216 
Q 1584 2216 1326 1975 
Q 1069 1734 1069 1313 
Q 1069 891 1326 650 
Q 1584 409 2034 409 
Q 2484 409 2743 651 
Q 3003 894 3003 1313 
Q 3003 1734 2745 1975 
Q 2488 2216 2034 2216 
z
M 1403 2484 
Q 997 2584 770 2862 
Q 544 3141 544 3541 
Q 544 4100 942 4425 
Q 1341 4750 2034 4750 
Q 2731 4750 3128 4425 
Q 3525 4100 3525 3541 
Q 3525 3141 3298 2862 
Q 3072 2584 2669 2484 
Q 3125 2378 3379 2068 
Q 3634 1759 3634 1313 
Q 3634 634 3220 271 
Q 2806 -91 2034 -91 
Q 1263 -91 848 271 
Q 434 634 434 1313 
Q 434 1759 690 2068 
Q 947 2378 1403 2484 
z
M 1172 3481 
Q 1172 3119 1398 2916 
Q 1625 2713 2034 2713 
Q 2441 2713 2670 2916 
Q 2900 3119 2900 3481 
Q 2900 3844 2670 4047 
Q 2441 4250 2034 4250 
Q 1625 4250 1398 4047 
Q 1172 3844 1172 3481 
z
" transform="scale(0.015625)"/>
       </defs>
       <use xlink:href="#DejaVuSans-38"/>
       <use xlink:href="#DejaVuSans-30" x="63.623047"/>
       <use xlink:href="#DejaVuSans-30" x="127.246094"/>
      </g>
     </g>
    </g>
    <g id="xtick_6">
     <g id="line2d_11">
      <path d="M 398.812252 162.432 
L 398.812252 41.472 
" clip-path="url(#p0ec818289b)" style="fill: none; stroke: #b0b0b0; stroke-width: 0.8; stroke-linecap: square"/>
     </g>
     <g id="line2d_12">
      <g>
       <use xlink:href="#m45c206e028" x="398.812252" y="162.432" style="stroke: #000000; stroke-width: 0.8"/>
      </g>
     </g>
     <g id="text_6">
      <!-- 1000 -->
      <g transform="translate(386.087252 177.030437)scale(0.1 -0.1)">
       <defs>
        <path id="DejaVuSans-31" d="M 794 531 
L 1825 531 
L 1825 4091 
L 703 3866 
L 703 4441 
L 1819 4666 
L 2450 4666 
L 2450 531 
L 3481 531 
L 3481 0 
L 794 0 
L 794 531 
z
" transform="scale(0.015625)"/>
       </defs>
       <use xlink:href="#DejaVuSans-31"/>
       <use xlink:href="#DejaVuSans-30" x="63.623047"/>
       <use xlink:href="#DejaVuSans-30" x="127.246094"/>
       <use xlink:href="#DejaVuSans-30" x="190.869141"/>
      </g>
     </g>
    </g>
   </g>
   <g id="matplotlib.axis_2">
    <g id="ytick_1">
     <g id="line2d_13">
      <path d="M 57.6 156.933818 
L 414.72 156.933818 
" clip-path="url(#p0ec818289b)" style="fill: none; stroke: #b0b0b0; stroke-width: 0.8; stroke-linecap: square"/>
     </g>
     <g id="line2d_14">
      <defs>
       <path id="mdf6e22fe39" d="M 0 0 
L -3.5 0 
" style="stroke: #000000; stroke-width: 0.8"/>
      </defs>
      <g>
       <use xlink:href="#mdf6e22fe39" x="57.6" y="156.933818" style="stroke: #000000; stroke-width: 0.8"/>
      </g>
     </g>
     <g id="text_7">
      <!-- 0 -->
      <g transform="translate(44.2375 160.733037)scale(0.1 -0.1)">
       <use xlink:href="#DejaVuSans-30"/>
      </g>
     </g>
    </g>
    <g id="ytick_2">
     <g id="line2d_15">
      <path d="M 57.6 134.288685 
L 414.72 134.288685 
" clip-path="url(#p0ec818289b)" style="fill: none; stroke: #b0b0b0; stroke-width: 0.8; stroke-linecap: square"/>
     </g>
     <g id="line2d_16">
      <g>
       <use xlink:href="#mdf6e22fe39" x="57.6" y="134.288685" style="stroke: #000000; stroke-width: 0.8"/>
      </g>
     </g>
     <g id="text_8">
      <!-- 200 -->
      <g transform="translate(31.5125 138.087903)scale(0.1 -0.1)">
       <use xlink:href="#DejaVuSans-32"/>
       <use xlink:href="#DejaVuSans-30" x="63.623047"/>
       <use xlink:href="#DejaVuSans-30" x="127.246094"/>
      </g>
     </g>
    </g>
    <g id="ytick_3">
     <g id="line2d_17">
      <path d="M 57.6 111.643551 
L 414.72 111.643551 
" clip-path="url(#p0ec818289b)" style="fill: none; stroke: #b0b0b0; stroke-width: 0.8; stroke-linecap: square"/>
     </g>
     <g id="line2d_18">
      <g>
       <use xlink:href="#mdf6e22fe39" x="57.6" y="111.643551" style="stroke: #000000; stroke-width: 0.8"/>
      </g>
     </g>
     <g id="text_9">
      <!-- 400 -->
      <g transform="translate(31.5125 115.44277)scale(0.1 -0.1)">
       <use xlink:href="#DejaVuSans-34"/>
       <use xlink:href="#DejaVuSans-30" x="63.623047"/>
       <use xlink:href="#DejaVuSans-30" x="127.246094"/>
      </g>
     </g>
    </g>
    <g id="ytick_4">
     <g id="line2d_19">
      <path d="M 57.6 88.998417 
L 414.72 88.998417 
" clip-path="url(#p0ec818289b)" style="fill: none; stroke: #b0b0b0; stroke-width: 0.8; stroke-linecap: square"/>
     </g>
     <g id="line2d_20">
      <g>
       <use xlink:href="#mdf6e22fe39" x="57.6" y="88.998417" style="stroke: #000000; stroke-width: 0.8"/>
      </g>
     </g>
     <g id="text_10">
      <!-- 600 -->
      <g transform="translate(31.5125 92.797636)scale(0.1 -0.1)">
       <use xlink:href="#DejaVuSans-36"/>
       <use xlink:href="#DejaVuSans-30" x="63.623047"/>
       <use xlink:href="#DejaVuSans-30" x="127.246094"/>
      </g>
     </g>
    </g>
    <g id="ytick_5">
     <g id="line2d_21">
      <path d="M 57.6 66.353284 
L 414.72 66.353284 
" clip-path="url(#p0ec818289b)" style="fill: none; stroke: #b0b0b0; stroke-width: 0.8; stroke-linecap: square"/>
     </g>
     <g id="line2d_22">
      <g>
       <use xlink:href="#mdf6e22fe39" x="57.6" y="66.353284" style="stroke: #000000; stroke-width: 0.8"/>
      </g>
     </g>
     <g id="text_11">
      <!-- 800 -->
      <g transform="translate(31.5125 70.152503)scale(0.1 -0.1)">
       <use xlink:href="#DejaVuSans-38"/>
       <use xlink:href="#DejaVuSans-30" x="63.623047"/>
       <use xlink:href="#DejaVuSans-30" x="127.246094"/>
      </g>
     </g>
    </g>
    <g id="ytick_6">
     <g id="line2d_23">
      <path d="M 57.6 43.70815 
L 414.72 43.70815 
" clip-path="url(#p0ec818289b)" style="fill: none; stroke: #b0b0b0; stroke-width: 0.8; stroke-linecap: square"/>
     </g>
     <g id="line2d_24">
      <g>
       <use xlink:href="#mdf6e22fe39" x="57.6" y="43.70815" style="stroke: #000000; stroke-width: 0.8"/>
      </g>
     </g>
     <g id="text_12">
      <!-- 1000 -->
      <g transform="translate(25.15 47.507369)scale(0.1 -0.1)">
       <use xlink:href="#DejaVuSans-31"/>
       <use xlink:href="#DejaVuSans-30" x="63.623047"/>
       <use xlink:href="#DejaVuSans-30" x="127.246094"/>
       <use xlink:href="#DejaVuSans-30" x="190.869141"/>
      </g>
     </g>
    </g>
    <g id="text_13">
     <!-- power [w] -->
     <g transform="translate(19.070312 126.986375)rotate(-90)scale(0.1 -0.1)">
      <defs>
       <path id="DejaVuSans-70" d="M 1159 525 
L 1159 -1331 
L 581 -1331 
L 581 3500 
L 1159 3500 
L 1159 2969 
Q 1341 3281 1617 3432 
Q 1894 3584 2278 3584 
Q 2916 3584 3314 3078 
Q 3713 2572 3713 1747 
Q 3713 922 3314 415 
Q 2916 -91 2278 -91 
Q 1894 -91 1617 61 
Q 1341 213 1159 525 
z
M 3116 1747 
Q 3116 2381 2855 2742 
Q 2594 3103 2138 3103 
Q 1681 3103 1420 2742 
Q 1159 2381 1159 1747 
Q 1159 1113 1420 752 
Q 1681 391 2138 391 
Q 2594 391 2855 752 
Q 3116 1113 3116 1747 
z
" transform="scale(0.015625)"/>
       <path id="DejaVuSans-6f" d="M 1959 3097 
Q 1497 3097 1228 2736 
Q 959 2375 959 1747 
Q 959 1119 1226 758 
Q 1494 397 1959 397 
Q 2419 397 2687 759 
Q 2956 1122 2956 1747 
Q 2956 2369 2687 2733 
Q 2419 3097 1959 3097 
z
M 1959 3584 
Q 2709 3584 3137 3096 
Q 3566 2609 3566 1747 
Q 3566 888 3137 398 
Q 2709 -91 1959 -91 
Q 1206 -91 779 398 
Q 353 888 353 1747 
Q 353 2609 779 3096 
Q 1206 3584 1959 3584 
z
" transform="scale(0.015625)"/>
       <path id="DejaVuSans-77" d="M 269 3500 
L 844 3500 
L 1563 769 
L 2278 3500 
L 2956 3500 
L 3675 769 
L 4391 3500 
L 4966 3500 
L 4050 0 
L 3372 0 
L 2619 2869 
L 1863 0 
L 1184 0 
L 269 3500 
z
" transform="scale(0.015625)"/>
       <path id="DejaVuSans-65" d="M 3597 1894 
L 3597 1613 
L 953 1613 
Q 991 1019 1311 708 
Q 1631 397 2203 397 
Q 2534 397 2845 478 
Q 3156 559 3463 722 
L 3463 178 
Q 3153 47 2828 -22 
Q 2503 -91 2169 -91 
Q 1331 -91 842 396 
Q 353 884 353 1716 
Q 353 2575 817 3079 
Q 1281 3584 2069 3584 
Q 2775 3584 3186 3129 
Q 3597 2675 3597 1894 
z
M 3022 2063 
Q 3016 2534 2758 2815 
Q 2500 3097 2075 3097 
Q 1594 3097 1305 2825 
Q 1016 2553 972 2059 
L 3022 2063 
z
" transform="scale(0.015625)"/>
       <path id="DejaVuSans-72" d="M 2631 2963 
Q 2534 3019 2420 3045 
Q 2306 3072 2169 3072 
Q 1681 3072 1420 2755 
Q 1159 2438 1159 1844 
L 1159 0 
L 581 0 
L 581 3500 
L 1159 3500 
L 1159 2956 
Q 1341 3275 1631 3429 
Q 1922 3584 2338 3584 
Q 2397 3584 2469 3576 
Q 2541 3569 2628 3553 
L 2631 2963 
z
" transform="scale(0.015625)"/>
       <path id="DejaVuSans-20" transform="scale(0.015625)"/>
       <path id="DejaVuSans-5b" d="M 550 4863 
L 1875 4863 
L 1875 4416 
L 1125 4416 
L 1125 -397 
L 1875 -397 
L 1875 -844 
L 550 -844 
L 550 4863 
z
" transform="scale(0.015625)"/>
       <path id="DejaVuSans-5d" d="M 1947 4863 
L 1947 -844 
L 622 -844 
L 622 -397 
L 1369 -397 
L 1369 4416 
L 622 4416 
L 622 4863 
L 1947 4863 
z
" transform="scale(0.015625)"/>
      </defs>
      <use xlink:href="#DejaVuSans-70"/>
      <use xlink:href="#DejaVuSans-6f" x="63.476562"/>
      <use xlink:href="#DejaVuSans-77" x="124.658203"/>
      <use xlink:href="#DejaVuSans-65" x="206.445312"/>
      <use xlink:href="#DejaVuSans-72" x="267.96875"/>
      <use xlink:href="#DejaVuSans-20" x="309.082031"/>
      <use xlink:href="#DejaVuSans-5b" x="340.869141"/>
      <use xlink:href="#DejaVuSans-77" x="379.882812"/>
      <use xlink:href="#DejaVuSans-5d" x="461.669922"/>
     </g>
    </g>
   </g>
   <g id="line2d_25">
    <path d="M 73.832727 156.933818 
L 78.057461 156.933818 
L 78.382441 146.937124 
L 78.70742 146.937124 
L 79.0324 126.943736 
L 79.357379 156.933818 
L 79.682359 156.933818 
L 80.007338 146.937124 
L 80.332318 126.943736 
L 80.657297 116.947041 
L 81.632236 116.947041 
L 81.957215 136.94043 
L 82.282195 146.937124 
L 82.607174 136.94043 
L 82.932154 146.937124 
L 83.257133 136.94043 
L 83.582113 146.937124 
L 83.907093 146.937124 
L 84.232072 116.947041 
L 84.557052 136.94043 
L 84.882031 146.937124 
L 85.207011 146.937124 
L 85.85697 126.943736 
L 86.181949 146.937124 
L 86.506929 136.94043 
L 86.831908 146.937124 
L 87.156888 136.94043 
L 87.481867 156.933818 
L 87.806847 136.94043 
L 88.456806 156.933818 
L 88.781785 136.94043 
L 89.106765 136.94043 
L 89.756724 156.933818 
L 96.581294 156.933818 
L 96.906274 136.94043 
L 97.231253 146.937124 
L 97.556233 146.937124 
L 97.881212 126.943736 
L 98.206192 146.937124 
L 99.18113 146.937124 
L 99.50611 136.94043 
L 99.831089 146.937124 
L 100.156069 146.937124 
L 100.481048 136.94043 
L 100.806028 156.933818 
L 101.131007 136.94043 
L 101.455987 156.933818 
L 101.780966 136.94043 
L 102.105946 146.937124 
L 102.430925 136.94043 
L 102.755905 156.933818 
L 103.080885 136.94043 
L 103.405864 136.94043 
L 103.730844 146.937124 
L 104.055823 136.94043 
L 104.380803 136.94043 
L 104.705782 146.937124 
L 105.030762 136.94043 
L 105.355741 136.94043 
L 106.0057 116.947041 
L 106.33068 146.937124 
L 106.655659 146.937124 
L 106.980639 156.933818 
L 107.305618 146.937124 
L 109.580475 146.937124 
L 109.905455 156.933818 
L 110.230434 146.937124 
L 110.555414 146.937124 
L 111.205373 126.943736 
L 111.530352 136.94043 
L 111.855332 106.950347 
L 112.180311 106.950347 
L 112.505291 126.943736 
L 112.83027 136.94043 
L 113.480229 136.94043 
L 114.130188 156.933818 
L 117.704963 156.933818 
L 118.029943 146.937124 
L 118.354922 156.933818 
L 122.579656 156.933818 
L 122.904636 146.937124 
L 123.229615 156.933818 
L 123.879574 136.94043 
L 124.204554 146.937124 
L 124.529533 126.943736 
L 124.854513 136.94043 
L 125.179492 136.94043 
L 125.504472 156.933818 
L 125.829451 126.943736 
L 126.154431 136.94043 
L 127.454349 136.94043 
L 127.779328 146.937124 
L 129.729206 146.937124 
L 130.054185 156.933818 
L 130.379165 156.933818 
L 130.704144 146.937124 
L 131.029124 156.933818 
L 131.679083 136.94043 
L 132.004062 146.937124 
L 132.329042 146.937124 
L 132.654021 136.94043 
L 132.979001 136.94043 
L 133.30398 146.937124 
L 134.278919 146.937124 
L 134.928878 126.943736 
L 135.253857 136.94043 
L 135.578837 126.943736 
L 135.903817 136.94043 
L 136.228796 136.94043 
L 136.553776 126.943736 
L 136.878755 136.94043 
L 137.203735 126.943736 
L 137.528714 136.94043 
L 138.503653 136.94043 
L 139.153612 156.933818 
L 143.053366 156.933818 
L 143.378346 146.937124 
L 143.703325 156.933818 
L 145.003243 156.933818 
L 145.328223 146.937124 
L 145.653202 156.933818 
L 155.727568 156.933818 
L 156.052547 146.937124 
L 156.377527 156.933818 
L 170.676626 156.933818 
L 171.001605 146.937124 
L 173.601441 146.937124 
L 173.926421 156.933818 
L 186.925602 156.933818 
L 187.250581 146.937124 
L 187.575561 156.933818 
L 188.22552 156.933818 
L 188.5505 146.937124 
L 188.875479 156.933818 
L 193.425192 156.933818 
L 193.750172 146.937124 
L 194.400131 146.937124 
L 194.725111 156.933818 
L 195.05009 136.94043 
L 195.37507 156.933818 
L 195.700049 146.937124 
L 196.025029 146.937124 
L 196.350008 136.94043 
L 196.999967 156.933818 
L 197.324947 146.937124 
L 198.299885 146.937124 
L 198.949844 126.943736 
L 199.274824 136.94043 
L 199.599803 136.94043 
L 199.924783 126.943736 
L 200.249762 136.94043 
L 200.574742 126.943736 
L 201.549681 126.943736 
L 201.87466 136.94043 
L 202.19964 116.947041 
L 202.524619 136.94043 
L 202.849599 136.94043 
L 203.174578 146.937124 
L 203.499558 146.937124 
L 203.824537 136.94043 
L 204.149517 146.937124 
L 205.124455 146.937124 
L 205.449435 126.943736 
L 205.774414 146.937124 
L 206.099394 136.94043 
L 206.749353 136.94043 
L 207.074333 156.933818 
L 212.274005 156.933818 
L 212.598984 146.937124 
L 212.923964 126.943736 
L 213.248943 146.937124 
L 213.573923 146.937124 
L 213.898903 136.94043 
L 214.223882 136.94043 
L 214.548862 146.937124 
L 214.873841 126.943736 
L 215.198821 136.94043 
L 216.498739 136.94043 
L 216.823718 156.933818 
L 217.148698 146.937124 
L 217.473677 156.933818 
L 235.99751 156.933818 
L 236.32249 146.937124 
L 236.647469 156.933818 
L 241.197183 156.933818 
L 241.522162 146.937124 
L 241.847142 156.933818 
L 242.172121 146.937124 
L 243.472039 146.937124 
L 243.797019 136.94043 
L 244.121998 146.937124 
L 244.446978 136.94043 
L 245.746896 136.94043 
L 246.071876 126.943736 
L 246.396855 146.937124 
L 246.721835 146.937124 
L 247.046814 136.94043 
L 248.021753 136.94043 
L 248.346732 126.943736 
L 248.996691 146.937124 
L 249.321671 136.94043 
L 249.64665 146.937124 
L 249.97163 126.943736 
L 250.296609 146.937124 
L 250.621589 136.94043 
L 250.946568 156.933818 
L 251.271548 146.937124 
L 251.921507 146.937124 
L 252.246486 136.94043 
L 252.571466 136.94043 
L 252.896446 146.937124 
L 254.521343 146.937124 
L 254.846323 136.94043 
L 255.171302 146.937124 
L 255.496282 136.94043 
L 257.121179 136.94043 
L 257.771138 156.933818 
L 258.096118 146.937124 
L 259.396036 146.937124 
L 259.721016 156.933818 
L 278.244848 156.933818 
L 278.569828 146.937124 
L 278.894808 156.933818 
L 279.219787 136.94043 
L 279.544767 146.937124 
L 279.869746 146.937124 
L 280.194726 136.94043 
L 280.519705 146.937124 
L 280.844685 136.94043 
L 281.169664 146.937124 
L 281.494644 136.94043 
L 281.819623 146.937124 
L 282.469582 146.937124 
L 282.794562 156.933818 
L 285.719378 156.933818 
L 286.044357 146.937124 
L 286.369337 156.933818 
L 286.694316 146.937124 
L 287.019296 156.933818 
L 287.669255 136.94043 
L 287.994234 146.937124 
L 288.319214 146.937124 
L 288.644193 136.94043 
L 288.969173 136.94043 
L 289.294152 146.937124 
L 291.244029 146.937124 
L 291.569009 156.933818 
L 291.893989 156.933818 
L 292.218968 136.94043 
L 292.543948 156.933818 
L 292.868927 136.94043 
L 293.193907 156.933818 
L 293.843866 156.933818 
L 294.168845 146.937124 
L 294.493825 156.933818 
L 294.818804 156.933818 
L 295.143784 146.937124 
L 295.468763 146.937124 
L 295.793743 156.933818 
L 296.118722 136.94043 
L 296.443702 146.937124 
L 296.768681 136.94043 
L 297.093661 136.94043 
L 297.41864 146.937124 
L 297.74362 136.94043 
L 298.0686 136.94043 
L 298.393579 146.937124 
L 298.718559 136.94043 
L 299.043538 146.937124 
L 300.018477 146.937124 
L 300.343456 136.94043 
L 301.318395 136.94043 
L 301.643374 146.937124 
L 301.968354 146.937124 
L 302.293333 136.94043 
L 302.618313 156.933818 
L 302.943292 156.933818 
L 303.268272 146.937124 
L 303.593251 156.933818 
L 304.56819 156.933818 
L 304.89317 146.937124 
L 305.218149 156.933818 
L 305.543129 146.937124 
L 305.868108 156.933818 
L 306.193088 146.937124 
L 306.518067 146.937124 
L 306.843047 156.933818 
L 308.792924 156.933818 
L 309.117903 146.937124 
L 309.442883 156.933818 
L 309.767862 146.937124 
L 310.742801 146.937124 
L 311.067781 136.94043 
L 311.39276 146.937124 
L 311.71774 136.94043 
L 312.042719 146.937124 
L 312.367699 136.94043 
L 312.692678 136.94043 
L 313.342637 156.933818 
L 313.667617 146.937124 
L 313.992596 156.933818 
L 314.317576 146.937124 
L 314.967535 146.937124 
L 315.292514 156.933818 
L 315.617494 146.937124 
L 315.942473 156.933818 
L 316.267453 156.933818 
L 316.592432 146.937124 
L 316.917412 156.933818 
L 317.242391 146.937124 
L 317.567371 156.933818 
L 317.892351 146.937124 
L 318.21733 146.937124 
L 318.54231 156.933818 
L 318.867289 146.937124 
L 319.192269 156.933818 
L 332.19145 156.933818 
L 332.516429 146.937124 
L 332.841409 156.933818 
L 333.166388 146.937124 
L 334.466306 146.937124 
L 334.791286 156.933818 
L 335.116265 146.937124 
L 335.766224 146.937124 
L 336.091204 156.933818 
L 336.416183 136.94043 
L 336.741163 156.933818 
L 337.716102 156.933818 
L 338.041081 146.937124 
L 338.366061 156.933818 
L 339.665979 156.933818 
L 339.990958 146.937124 
L 340.315938 156.933818 
L 340.640917 146.937124 
L 342.590794 146.937124 
L 342.915774 136.94043 
L 343.240753 136.94043 
L 343.890713 156.933818 
L 344.215692 156.933818 
L 344.540672 146.937124 
L 344.865651 156.933818 
L 351.690221 156.933818 
L 352.015201 146.937124 
L 352.34018 156.933818 
L 353.315119 156.933818 
L 353.640098 146.937124 
L 353.965078 156.933818 
L 355.589975 156.933818 
L 355.914955 146.937124 
L 356.239934 156.933818 
L 356.564914 146.937124 
L 356.889894 156.933818 
L 357.214873 146.937124 
L 357.539853 146.937124 
L 357.864832 156.933818 
L 358.189812 156.933818 
L 358.514791 146.937124 
L 358.839771 156.933818 
L 359.16475 156.933818 
L 359.48973 146.937124 
L 359.814709 156.933818 
L 360.139689 146.937124 
L 360.464668 156.933818 
L 360.789648 146.937124 
L 361.439607 146.937124 
L 361.764586 156.933818 
L 362.089566 146.937124 
L 362.414545 146.937124 
L 362.739525 156.933818 
L 363.064505 146.937124 
L 365.339361 146.937124 
L 365.664341 156.933818 
L 365.98932 146.937124 
L 366.3143 156.933818 
L 366.639279 146.937124 
L 366.964259 146.937124 
L 367.289238 156.933818 
L 367.614218 156.933818 
L 367.939197 146.937124 
L 368.264177 146.937124 
L 368.589156 156.933818 
L 368.914136 146.937124 
L 369.239115 156.933818 
L 370.864013 156.933818 
L 371.188993 146.937124 
L 371.513972 156.933818 
L 371.838952 146.937124 
L 372.163931 156.933818 
L 372.488911 156.933818 
L 372.81389 146.937124 
L 374.763767 146.937124 
L 375.088747 136.94043 
L 375.413726 146.937124 
L 376.388665 146.937124 
L 376.713645 156.933818 
L 377.038624 146.937124 
L 378.013563 146.937124 
L 378.338542 46.970182 
L 378.988501 116.947041 
L 379.63846 136.94043 
L 379.96344 156.933818 
L 398.487273 156.933818 
L 398.487273 156.933818 
" clip-path="url(#p0ec818289b)" style="fill: none; stroke: #1f77b4; stroke-width: 1.5; stroke-linecap: square"/>
   </g>
   <g id="line2d_26">
    <path d="M 73.832727 156.933818 
L 74.157707 153.618248 
L 74.482686 155.151074 
L 74.807666 149.971954 
L 75.132645 156.933818 
L 75.457625 156.933818 
L 75.782604 155.561772 
L 76.107584 142.360304 
L 76.432563 153.237541 
L 76.757543 141.845474 
L 77.082523 153.849838 
L 77.407502 152.123742 
L 77.732482 156.933818 
L 78.382441 156.933818 
L 78.70742 156.745547 
L 79.0324 147.197038 
L 79.357379 154.962803 
L 79.682359 156.933818 
L 80.982277 156.933818 
L 81.307256 153.185058 
L 81.632236 156.933818 
L 82.932154 156.933818 
L 83.257133 150.077752 
L 83.582113 155.440979 
L 83.907093 156.933818 
L 84.557052 156.933818 
L 84.882031 152.074592 
L 85.207011 156.933818 
L 85.53199 154.652073 
L 85.85697 156.933818 
L 86.181949 153.022612 
L 86.506929 156.933818 
L 86.831908 156.933818 
L 87.156888 153.450803 
L 87.481867 156.933818 
L 87.806847 156.933818 
L 88.131826 156.374836 
L 88.456806 156.933818 
L 88.781785 156.933818 
L 89.106765 155.516787 
L 89.431744 156.933818 
L 90.406683 156.927154 
L 90.731663 155.15274 
L 91.056642 156.933818 
L 91.381622 156.933818 
L 91.706601 152.06876 
L 92.031581 156.933818 
L 92.35656 156.933818 
L 92.68154 148.634896 
L 93.006519 156.933818 
L 93.331499 156.933818 
L 93.656478 147.920132 
L 93.981458 148.158387 
L 94.306437 147.747689 
L 94.631417 154.962803 
L 94.956396 149.702876 
L 95.281376 148.056754 
L 95.606355 156.244879 
L 95.931335 153.514116 
L 96.256314 149.670387 
L 96.581294 154.454638 
L 96.906274 146.923795 
L 97.231253 156.933818 
L 97.556233 155.168569 
L 97.881212 152.277025 
L 98.206192 156.933818 
L 99.50611 156.933818 
L 99.831089 151.828007 
L 100.156069 156.933818 
L 100.481048 156.75721 
L 100.806028 156.933818 
L 101.131007 156.933818 
L 101.455987 155.470136 
L 101.780966 156.933818 
L 102.105946 156.933818 
L 102.430925 149.888648 
L 102.755905 156.933818 
L 103.080885 156.933818 
L 103.405864 152.94597 
L 103.730844 156.590598 
L 104.055823 156.933818 
L 105.680721 156.933818 
L 106.0057 156.56394 
L 106.33068 156.933818 
L 106.980639 156.933818 
L 107.305618 153.079259 
L 107.630598 156.933818 
L 109.255495 156.933818 
L 109.580475 141.872132 
L 109.905455 151.458962 
L 110.230434 148.839828 
L 110.555414 151.949633 
L 110.880393 156.933818 
L 111.205373 155.408489 
L 111.530352 155.428483 
L 111.855332 156.933818 
L 112.180311 156.794697 
L 112.505291 156.933818 
L 112.83027 154.746208 
L 113.15525 156.933818 
L 113.480229 156.933818 
L 113.805209 152.86683 
L 114.130188 156.933818 
L 115.430106 156.933818 
L 115.755086 156.29403 
L 116.405045 146.952119 
L 116.730025 147.841825 
L 117.055004 148.359154 
L 117.379984 149.476284 
L 117.704963 156.33485 
L 118.029943 150.035266 
L 118.354922 156.751378 
L 118.679902 136.430598 
L 119.004881 153.293355 
L 119.329861 156.803861 
L 119.65484 153.659068 
L 119.97982 147.127894 
L 120.304799 156.933818 
L 120.629779 144.876139 
L 120.954758 156.933818 
L 121.279738 148.064251 
L 121.604717 152.294519 
L 121.929697 149.906975 
L 122.254676 149.45879 
L 122.579656 154.162235 
L 122.904636 155.876668 
L 123.229615 155.086929 
L 123.554595 155.09276 
L 123.879574 156.933818 
L 124.204554 154.203888 
L 124.529533 156.933818 
L 124.854513 156.933818 
L 125.179492 151.014942 
L 125.504472 156.933818 
L 126.154431 156.933818 
L 126.47941 154.163068 
L 126.80439 147.380311 
L 127.129369 151.453964 
L 127.454349 149.11557 
L 127.779328 155.52845 
L 128.104308 156.933818 
L 129.079247 156.933818 
L 129.404226 155.402658 
L 129.729206 156.933818 
L 130.054185 154.235544 
L 130.379165 156.933818 
L 131.029124 156.933818 
L 131.354103 149.632899 
L 131.679083 148.862321 
L 132.004062 154.246374 
L 132.329042 145.950783 
L 132.654021 153.21838 
L 132.979001 156.933818 
L 133.62896 156.933818 
L 133.953939 156.674737 
L 134.278919 156.933818 
L 134.928878 156.933818 
L 135.253857 156.761375 
L 135.578837 156.933818 
L 136.553776 156.933818 
L 136.878755 152.178724 
L 137.203735 151.580588 
L 137.528714 156.933818 
L 139.153612 156.933818 
L 139.478591 156.5856 
L 139.803571 156.933818 
L 140.12855 152.009613 
L 140.45353 156.933818 
L 140.778509 156.933818 
L 141.103489 152.156231 
L 141.428468 154.538777 
L 141.753448 151.162393 
L 142.078428 150.449296 
L 142.403407 156.933818 
L 142.728387 148.2192 
L 143.053366 155.938314 
L 143.378346 156.933818 
L 143.703325 156.933818 
L 144.028305 152.656899 
L 144.353284 156.933818 
L 145.003243 156.933818 
L 145.328223 154.126413 
L 145.653202 156.933818 
L 145.978182 156.933818 
L 146.303161 154.971134 
L 146.628141 156.933818 
L 147.2781 156.933818 
L 147.603079 155.395993 
L 148.253038 156.933818 
L 148.578018 156.304859 
L 148.902998 156.933818 
L 149.877936 156.933818 
L 150.202916 154.280529 
L 150.527895 149.153058 
L 150.852875 151.225706 
L 151.177854 156.933818 
L 151.827813 156.933818 
L 152.152793 149.886982 
L 152.477772 156.933818 
L 152.802752 156.138248 
L 153.127731 156.933818 
L 153.452711 156.933818 
L 153.77769 151.870493 
L 154.10267 154.981131 
L 154.427649 156.933818 
L 154.752629 149.960291 
L 155.077609 156.933818 
L 155.402588 153.910651 
L 155.727568 155.863339 
L 156.052547 156.933818 
L 156.377527 150.570089 
L 156.702506 156.933818 
L 157.027486 156.933818 
L 157.352465 154.534612 
L 157.677445 156.933818 
L 158.652383 156.933818 
L 158.977363 151.936304 
L 159.302342 156.933818 
L 159.627322 156.933818 
L 159.952301 155.765871 
L 160.277281 156.933818 
L 160.60226 154.382162 
L 160.92724 156.933818 
L 161.252219 153.556602 
L 161.577199 156.933818 
L 161.902179 154.02478 
L 162.227158 154.836179 
L 162.552138 156.933818 
L 163.202097 155.15524 
L 163.527076 156.933818 
L 163.852056 150.363491 
L 164.177035 156.933818 
L 164.826994 156.933818 
L 165.151974 156.144912 
L 165.476953 156.933818 
L 165.801933 156.933818 
L 166.126912 156.580602 
L 166.451892 156.933818 
L 166.776871 154.258036 
L 167.101851 156.873005 
L 167.75181 156.933818 
L 168.07679 155.548443 
L 168.401769 156.933818 
L 168.726749 156.933818 
L 169.051728 152.023775 
L 169.376708 151.051597 
L 169.701687 156.468972 
L 170.026667 151.368159 
L 170.351646 150.433468 
L 170.676626 156.933818 
L 171.326585 156.933818 
L 171.651564 155.934982 
L 171.976544 151.685554 
L 172.301523 156.933818 
L 172.626503 156.933818 
L 172.951482 155.11442 
L 173.276462 156.933818 
L 175.551319 156.933818 
L 175.876298 149.122235 
L 176.201278 156.933818 
L 176.851237 156.933818 
L 177.176216 156.69723 
L 177.501196 155.400992 
L 177.826175 156.933818 
L 179.126093 156.933818 
L 179.451073 153.734876 
L 179.776052 156.933818 
L 180.426011 156.933818 
L 180.750991 153.171729 
L 181.075971 156.933818 
L 182.375889 156.933818 
L 182.700868 151.453964 
L 183.025848 154.765369 
L 183.350827 153.935643 
L 183.675807 156.933818 
L 184.000786 154.009785 
L 184.325766 156.933818 
L 185.300704 156.933818 
L 185.625684 156.336516 
L 185.950663 156.933818 
L 186.275643 155.454307 
L 186.600622 156.576436 
L 186.925602 156.933818 
L 187.250581 156.933818 
L 187.575561 155.695894 
L 187.900541 156.933818 
L 188.22552 156.933818 
L 188.5505 149.867821 
L 189.200459 156.933818 
L 189.525438 156.933818 
L 189.850418 156.105759 
L 190.175397 156.933818 
L 191.150336 156.933818 
L 191.475315 153.761534 
L 191.800295 145.965779 
L 192.125274 155.316853 
L 192.450254 155.979134 
L 192.775233 156.933818 
L 193.100213 156.933818 
L 193.425192 154.480463 
L 193.750172 150.534268 
L 194.075152 156.933818 
L 194.725111 156.933818 
L 195.37507 149.123068 
L 195.700049 155.701726 
L 196.025029 150.083584 
L 196.350008 152.445302 
L 196.999967 146.405633 
L 197.324947 146.71803 
L 197.649926 153.989792 
L 197.974906 147.450288 
L 198.299885 153.784026 
L 198.624865 155.794195 
L 198.949844 149.106407 
L 199.274824 155.709223 
L 199.599803 154.617917 
L 199.924783 154.960304 
L 200.249762 142.725183 
L 200.574742 155.723385 
L 200.899722 152.568595 
L 201.224701 137.282816 
L 201.549681 153.053435 
L 201.87466 156.933818 
L 202.19964 156.933818 
L 202.524619 154.039775 
L 202.849599 155.315187 
L 203.174578 153.924813 
L 203.499558 150.247696 
L 203.824537 156.933818 
L 204.149517 150.05276 
L 204.474496 156.933818 
L 204.799476 154.103088 
L 205.124455 141.386459 
L 205.449435 153.399154 
L 205.774414 142.655207 
L 206.099394 145.271841 
L 206.424373 156.862175 
L 207.074333 155.016952 
L 207.399312 153.424979 
L 208.049271 155.669236 
L 208.374251 156.933818 
L 208.69923 155.938314 
L 209.02421 147.737693 
L 209.349189 146.135722 
L 209.999148 156.933818 
L 210.649107 156.933818 
L 210.974087 155.495127 
L 211.299066 152.02794 
L 211.624046 146.22486 
L 212.274005 156.933818 
L 212.598984 147.406969 
L 212.923964 155.418486 
L 213.248943 156.933818 
L 213.573923 155.990797 
L 213.898903 156.300694 
L 214.223882 156.933818 
L 214.548862 156.088264 
L 214.873841 156.933818 
L 215.198821 154.07643 
L 215.5238 153.743207 
L 215.84878 156.933818 
L 218.773595 156.933818 
L 219.098575 156.651412 
L 219.423554 150.294347 
L 219.748534 152.682724 
L 220.073514 156.933818 
L 222.34837 156.933818 
L 222.67335 150.30601 
L 222.998329 156.933818 
L 224.948206 156.933818 
L 225.273186 151.681388 
L 225.598165 152.947636 
L 225.923145 155.758374 
L 226.248124 151.633904 
L 226.573104 156.933818 
L 226.898084 156.822188 
L 227.548043 156.933818 
L 227.873022 152.741871 
L 228.198002 156.933818 
L 228.847961 156.933818 
L 229.17294 156.803861 
L 229.49792 155.660906 
L 229.822899 152.532774 
L 230.147879 147.09957 
L 230.472858 155.522618 
L 230.797838 155.011121 
L 231.122817 156.933818 
L 231.447797 148.467451 
L 231.772776 156.933818 
L 232.422735 156.933818 
L 232.747715 156.40316 
L 233.072695 151.720542 
L 233.397674 149.138063 
L 233.722654 156.730552 
L 234.047633 156.933818 
L 234.372613 156.933818 
L 234.697592 156.339848 
L 235.022572 156.933818 
L 235.347551 156.933818 
L 235.672531 155.996628 
L 235.99751 156.933818 
L 236.647469 156.933818 
L 236.972449 155.443478 
L 237.297428 156.933818 
L 237.622408 155.914988 
L 237.947387 156.933818 
L 238.272367 156.608926 
L 238.597346 149.148893 
L 238.922326 156.933818 
L 240.222244 156.933818 
L 240.547224 154.382995 
L 240.872203 146.35565 
L 241.197183 156.933818 
L 242.497101 156.933818 
L 242.82208 155.31602 
L 243.14706 156.933818 
L 243.472039 156.933818 
L 243.797019 151.134903 
L 244.121998 156.933818 
L 244.446978 156.616423 
L 244.771957 156.933818 
L 245.096937 156.933818 
L 245.421916 155.967471 
L 245.746896 156.933818 
L 246.071876 156.635583 
L 246.396855 156.933818 
L 246.721835 156.933818 
L 247.046814 145.531755 
L 247.371794 156.933818 
L 249.321671 156.933818 
L 249.64665 156.648079 
L 249.97163 147.1104 
L 250.296609 152.284522 
L 250.621589 139.961098 
L 251.596527 156.933818 
L 251.921507 156.845514 
L 252.246486 156.933818 
L 252.571466 152.428641 
L 252.896446 153.310017 
L 253.546405 149.326334 
L 253.871384 156.933818 
L 254.196364 154.323015 
L 254.521343 156.933818 
L 255.171302 156.933818 
L 255.496282 150.605078 
L 255.821261 156.933818 
L 256.146241 156.588932 
L 256.47122 152.162896 
L 256.7962 156.933818 
L 257.121179 154.442975 
L 257.446159 156.79803 
L 257.771138 155.325183 
L 258.096118 152.306182 
L 258.421097 156.933818 
L 260.045995 156.933818 
L 260.370975 153.142572 
L 260.695954 156.933818 
L 261.020934 151.357329 
L 261.345913 155.23438 
L 261.670893 156.933818 
L 261.995872 154.928648 
L 262.645831 156.933818 
L 262.970811 154.717051 
L 263.29579 156.933818 
L 263.945749 156.933818 
L 264.270729 151.916311 
L 264.595708 152.864331 
L 264.920688 155.571769 
L 265.245667 156.933818 
L 265.570647 152.398651 
L 265.895627 156.933818 
L 266.220606 153.659901 
L 266.545586 156.933818 
L 267.845504 156.933818 
L 268.170483 151.830506 
L 268.495463 156.933818 
L 268.820442 156.933818 
L 269.145422 154.140575 
L 269.470401 152.640238 
L 269.795381 156.335683 
L 270.12036 156.933818 
L 271.095299 156.933818 
L 271.420278 151.957131 
L 271.745258 156.933818 
L 273.370156 156.933818 
L 273.695135 144.31799 
L 274.020115 154.624582 
L 274.345094 156.933818 
L 275.320033 156.933818 
L 275.645012 153.866499 
L 275.969992 153.749038 
L 276.294971 149.99278 
L 276.94493 155.450975 
L 277.26991 156.933818 
L 277.919869 156.933818 
L 278.244848 152.772694 
L 278.569828 150.429302 
L 278.894808 156.933818 
L 279.219787 156.933818 
L 279.544767 151.723874 
L 280.194726 150.152727 
L 280.519705 156.933818 
L 280.844685 156.933818 
L 281.169664 152.895987 
L 281.494644 156.933818 
L 281.819623 146.946288 
L 282.144603 154.900324 
L 282.469582 149.782017 
L 282.794562 155.238545 
L 283.119541 156.933818 
L 283.444521 152.162896 
L 283.7695 156.933818 
L 284.744439 156.933818 
L 285.069419 150.733369 
L 285.394398 156.226552 
L 285.719378 156.933818 
L 286.044357 156.933818 
L 286.369337 154.698724 
L 286.694316 156.933818 
L 287.019296 155.168569 
L 287.344275 156.933818 
L 287.669255 153.577428 
L 287.994234 156.933818 
L 288.319214 156.933818 
L 288.644193 152.102083 
L 288.969173 155.871669 
L 289.294152 156.933818 
L 289.619132 155.463471 
L 289.944111 156.933818 
L 290.269091 152.802684 
L 290.59407 154.397157 
L 290.91905 156.933818 
L 291.244029 156.726387 
L 291.569009 156.933818 
L 291.893989 151.829673 
L 292.218968 156.933818 
L 292.543948 156.933818 
L 292.868927 144.972774 
L 293.193907 151.010777 
L 293.518886 151.49645 
L 293.843866 156.933818 
L 294.168845 156.026618 
L 294.493825 156.933818 
L 294.818804 156.933818 
L 295.143784 154.50962 
L 295.468763 156.933818 
L 296.118722 156.933818 
L 296.443702 156.502294 
L 296.768681 154.58876 
L 297.093661 156.933818 
L 297.41864 156.933818 
L 297.74362 151.663061 
L 298.0686 155.868337 
L 298.393579 154.911154 
L 298.718559 156.933818 
L 299.043538 154.642909 
L 299.368518 156.933818 
L 300.668436 156.933818 
L 300.993415 154.384661 
L 301.318395 156.933818 
L 301.643374 154.470466 
L 301.968354 156.933818 
L 302.293333 144.252179 
L 302.618313 156.933818 
L 302.943292 156.933818 
L 303.268272 154.102254 
L 303.593251 156.933818 
L 303.918231 156.784701 
L 304.24321 154.633746 
L 304.56819 156.933818 
L 304.89317 156.933818 
L 305.218149 151.713878 
L 305.543129 156.933818 
L 306.843047 156.933818 
L 307.168026 152.18039 
L 307.493006 156.933818 
L 307.817985 155.906658 
L 308.142965 156.933818 
L 308.467944 155.244377 
L 308.792924 151.693884 
L 309.117903 156.933818 
L 309.442883 154.290526 
L 309.767862 156.933818 
L 310.742801 156.933818 
L 311.067781 154.725382 
L 311.39276 151.46646 
L 311.71774 153.721547 
L 312.042719 156.933818 
L 312.367699 150.610076 
L 312.692678 156.933818 
L 313.017658 156.933818 
L 313.342637 154.631246 
L 313.667617 156.311524 
L 313.992596 156.933818 
L 314.317576 156.262374 
L 314.642555 155.878334 
L 314.967535 151.37399 
L 315.292514 156.933818 
L 317.242391 156.933818 
L 317.567371 150.659226 
L 317.892351 156.933818 
L 318.21733 156.933818 
L 318.54231 155.113587 
L 318.867289 156.933818 
L 319.192269 156.933818 
L 319.517248 152.571094 
L 319.842228 156.933818 
L 320.492187 156.933818 
L 320.817166 156.795531 
L 321.142146 152.053765 
L 321.467125 156.933818 
L 321.792105 151.958797 
L 322.117084 156.933818 
L 322.442064 152.71438 
L 322.767043 156.933818 
L 323.417002 156.933818 
L 323.741982 154.488793 
L 324.066962 154.773699 
L 324.391941 155.544278 
L 324.716921 148.124231 
L 325.0419 156.933818 
L 325.36688 151.668893 
L 325.691859 148.743193 
L 326.016839 156.933818 
L 326.341818 154.489626 
L 326.666798 156.933818 
L 326.991777 155.006955 
L 327.316757 148.724866 
L 327.641736 156.933818 
L 327.966716 141.946274 
L 328.291695 148.87565 
L 328.941654 156.933818 
L 329.266634 151.942136 
L 329.916593 156.933818 
L 331.216511 156.933818 
L 331.541491 144.442949 
L 331.86647 153.081759 
L 332.19145 150.641732 
L 332.516429 144.402129 
L 332.841409 156.933818 
L 333.491368 156.933818 
L 333.816347 153.765699 
L 334.141327 152.225375 
L 334.466306 155.537613 
L 334.791286 156.933818 
L 335.116265 140.717514 
L 335.441245 141.5664 
L 335.766224 144.687868 
L 336.091204 151.935471 
L 336.741163 156.933818 
L 337.066143 156.19323 
L 337.391122 150.878321 
L 337.716102 156.933818 
L 338.041081 156.483967 
L 338.366061 156.933818 
L 338.69104 156.933818 
L 339.01602 152.076258 
L 339.665979 156.933818 
L 340.315938 152.761031 
L 340.640917 156.933818 
L 341.615856 156.933818 
L 341.940835 151.69805 
L 342.265815 152.399484 
L 342.590794 156.933818 
L 343.565733 156.933818 
L 343.890713 155.765038 
L 344.215692 156.933818 
L 344.540672 156.933818 
L 344.865651 153.011782 
L 345.190631 156.933818 
L 345.51561 148.333329 
L 345.84059 156.933818 
L 346.165569 156.933818 
L 346.490549 154.957805 
L 346.815528 150.764192 
L 347.140508 156.933818 
L 347.465487 156.933818 
L 347.790467 156.450645 
L 348.115446 156.933818 
L 348.440426 150.969124 
L 349.090385 156.933818 
L 349.415364 155.156906 
L 349.740344 151.22404 
L 350.065324 156.933818 
L 350.390303 156.933818 
L 350.715283 155.297693 
L 351.040262 156.933818 
L 351.365242 153.624912 
L 351.690221 156.933818 
L 352.015201 156.509792 
L 352.34018 156.933818 
L 352.990139 156.933818 
L 353.315119 155.658407 
L 353.640098 151.019941 
L 353.965078 156.933818 
L 354.290057 156.502294 
L 354.615037 156.873005 
L 354.940016 156.803028 
L 355.264996 156.933818 
L 355.589975 153.652403 
L 355.914955 152.468628 
L 356.239934 149.318003 
L 356.564914 156.933818 
L 356.889894 155.765871 
L 357.214873 156.933818 
L 357.539853 156.933818 
L 357.864832 150.269355 
L 358.189812 156.933818 
L 358.839771 156.933818 
L 359.16475 155.601759 
L 359.48973 156.933818 
L 359.814709 150.815841 
L 360.139689 154.594592 
L 360.464668 154.432979 
L 360.789648 156.933818 
L 361.114627 146.715531 
L 361.439607 153.693223 
L 361.764586 151.324007 
L 362.089566 153.476628 
L 362.414545 147.032093 
L 362.739525 155.554274 
L 363.064505 149.296344 
L 363.389484 150.095246 
L 363.714464 147.073745 
L 364.039443 154.263035 
L 364.364423 148.831498 
L 364.689402 156.933818 
L 365.014382 151.38482 
L 365.339361 155.544278 
L 365.664341 156.933818 
L 365.98932 156.933818 
L 366.639279 152.789355 
L 366.964259 155.296859 
L 367.289238 151.92714 
L 367.614218 156.933818 
L 369.564095 156.933818 
L 369.889075 152.644403 
L 370.214054 156.933818 
L 370.539034 156.933818 
L 370.864013 143.367471 
L 371.188993 153.529944 
L 371.513972 156.933818 
L 371.838952 156.933818 
L 372.488911 151.416476 
L 372.81389 156.933818 
L 373.13887 156.366506 
L 373.463849 156.933818 
L 373.788829 156.259874 
L 374.113808 147.263683 
L 374.438788 150.470955 
L 374.763767 156.933818 
L 375.088747 152.88599 
L 375.413726 155.408489 
L 375.738706 156.933818 
L 376.063686 156.933818 
L 376.388665 150.002777 
L 376.713645 155.145243 
L 377.038624 156.933818 
L 377.363604 154.794526 
L 377.688583 156.933818 
L 378.013563 156.933818 
L 378.338542 147.095405 
L 378.663522 156.933818 
L 380.288419 156.933818 
L 380.613399 156.5856 
L 380.938378 150.904145 
L 381.263358 153.818182 
L 381.588337 148.320833 
L 381.913317 156.933818 
L 382.238296 151.251531 
L 382.563276 156.933818 
L 383.538215 156.933818 
L 383.863194 149.670387 
L 384.188174 156.933818 
L 384.513153 151.132403 
L 384.838133 156.933818 
L 385.163112 144.893633 
L 385.488092 149.904476 
L 385.813071 156.933818 
L 386.138051 154.687894 
L 386.46303 156.933818 
L 386.78801 156.681402 
L 387.112989 154.351339 
L 387.437969 156.933818 
L 387.762948 155.372668 
L 388.087928 156.933818 
L 388.737887 156.933818 
L 389.062867 151.226539 
L 389.387846 156.933818 
L 389.712826 156.933818 
L 390.037805 155.500126 
L 390.362785 156.933818 
L 391.012744 156.933818 
L 391.337723 145.209362 
L 391.662703 156.933818 
L 391.987682 154.484628 
L 392.312662 156.933818 
L 393.2876 156.933818 
L 393.61258 156.516456 
L 393.937559 148.665719 
L 394.262539 151.874658 
L 394.587518 156.933818 
L 394.912498 150.600079 
L 395.237477 156.933818 
L 395.562457 154.071431 
L 395.887437 156.933818 
L 396.537396 156.933818 
L 396.862375 150.710043 
L 397.187355 156.329018 
L 397.512334 154.603755 
L 397.837314 147.355319 
L 398.162293 156.933818 
L 398.487273 153.384159 
L 398.487273 153.384159 
" clip-path="url(#p0ec818289b)" style="fill: none; stroke: #ff7f0e; stroke-width: 1.5; stroke-linecap: square"/>
   </g>
   <g id="patch_3">
    <path d="M 57.6 162.432 
L 57.6 41.472 
" style="fill: none; stroke: #000000; stroke-width: 0.8; stroke-linejoin: miter; stroke-linecap: square"/>
   </g>
   <g id="patch_4">
    <path d="M 414.72 162.432 
L 414.72 41.472 
" style="fill: none; stroke: #000000; stroke-width: 0.8; stroke-linejoin: miter; stroke-linecap: square"/>
   </g>
   <g id="patch_5">
    <path d="M 57.6 162.432 
L 414.72 162.432 
" style="fill: none; stroke: #000000; stroke-width: 0.8; stroke-linejoin: miter; stroke-linecap: square"/>
   </g>
   <g id="patch_6">
    <path d="M 57.6 41.472 
L 414.72 41.472 
" style="fill: none; stroke: #000000; stroke-width: 0.8; stroke-linejoin: miter; stroke-linecap: square"/>
   </g>
   <g id="legend_1">
    <g id="patch_7">
     <path d="M 64.6 78.82825 
L 138.125 78.82825 
Q 140.125 78.82825 140.125 76.82825 
L 140.125 48.472 
Q 140.125 46.472 138.125 46.472 
L 64.6 46.472 
Q 62.6 46.472 62.6 48.472 
L 62.6 76.82825 
Q 62.6 78.82825 64.6 78.82825 
z
" style="fill: #ffffff; opacity: 0.8; stroke: #cccccc; stroke-linejoin: miter"/>
    </g>
    <g id="line2d_27">
     <path d="M 66.6 54.570437 
L 76.6 54.570437 
L 86.6 54.570437 
" style="fill: none; stroke: #1f77b4; stroke-width: 1.5; stroke-linecap: square"/>
    </g>
    <g id="text_14">
     <!-- gps -->
     <g transform="translate(94.6 58.070437)scale(0.1 -0.1)">
      <defs>
       <path id="DejaVuSans-67" d="M 2906 1791 
Q 2906 2416 2648 2759 
Q 2391 3103 1925 3103 
Q 1463 3103 1205 2759 
Q 947 2416 947 1791 
Q 947 1169 1205 825 
Q 1463 481 1925 481 
Q 2391 481 2648 825 
Q 2906 1169 2906 1791 
z
M 3481 434 
Q 3481 -459 3084 -895 
Q 2688 -1331 1869 -1331 
Q 1566 -1331 1297 -1286 
Q 1028 -1241 775 -1147 
L 775 -588 
Q 1028 -725 1275 -790 
Q 1522 -856 1778 -856 
Q 2344 -856 2625 -561 
Q 2906 -266 2906 331 
L 2906 616 
Q 2728 306 2450 153 
Q 2172 0 1784 0 
Q 1141 0 747 490 
Q 353 981 353 1791 
Q 353 2603 747 3093 
Q 1141 3584 1784 3584 
Q 2172 3584 2450 3431 
Q 2728 3278 2906 2969 
L 2906 3500 
L 3481 3500 
L 3481 434 
z
" transform="scale(0.015625)"/>
       <path id="DejaVuSans-73" d="M 2834 3397 
L 2834 2853 
Q 2591 2978 2328 3040 
Q 2066 3103 1784 3103 
Q 1356 3103 1142 2972 
Q 928 2841 928 2578 
Q 928 2378 1081 2264 
Q 1234 2150 1697 2047 
L 1894 2003 
Q 2506 1872 2764 1633 
Q 3022 1394 3022 966 
Q 3022 478 2636 193 
Q 2250 -91 1575 -91 
Q 1294 -91 989 -36 
Q 684 19 347 128 
L 347 722 
Q 666 556 975 473 
Q 1284 391 1588 391 
Q 1994 391 2212 530 
Q 2431 669 2431 922 
Q 2431 1156 2273 1281 
Q 2116 1406 1581 1522 
L 1381 1569 
Q 847 1681 609 1914 
Q 372 2147 372 2553 
Q 372 3047 722 3315 
Q 1072 3584 1716 3584 
Q 2034 3584 2315 3537 
Q 2597 3491 2834 3397 
z
" transform="scale(0.015625)"/>
      </defs>
      <use xlink:href="#DejaVuSans-67"/>
      <use xlink:href="#DejaVuSans-70" x="63.476562"/>
      <use xlink:href="#DejaVuSans-73" x="126.953125"/>
     </g>
    </g>
    <g id="line2d_28">
     <path d="M 66.6 69.248562 
L 76.6 69.248562 
L 86.6 69.248562 
" style="fill: none; stroke: #ff7f0e; stroke-width: 1.5; stroke-linecap: square"/>
    </g>
    <g id="text_15">
     <!-- bmp280 -->
     <g transform="translate(94.6 72.748562)scale(0.1 -0.1)">
      <defs>
       <path id="DejaVuSans-62" d="M 3116 1747 
Q 3116 2381 2855 2742 
Q 2594 3103 2138 3103 
Q 1681 3103 1420 2742 
Q 1159 2381 1159 1747 
Q 1159 1113 1420 752 
Q 1681 391 2138 391 
Q 2594 391 2855 752 
Q 3116 1113 3116 1747 
z
M 1159 2969 
Q 1341 3281 1617 3432 
Q 1894 3584 2278 3584 
Q 2916 3584 3314 3078 
Q 3713 2572 3713 1747 
Q 3713 922 3314 415 
Q 2916 -91 2278 -91 
Q 1894 -91 1617 61 
Q 1341 213 1159 525 
L 1159 0 
L 581 0 
L 581 4863 
L 1159 4863 
L 1159 2969 
z
" transform="scale(0.015625)"/>
       <path id="DejaVuSans-6d" d="M 3328 2828 
Q 3544 3216 3844 3400 
Q 4144 3584 4550 3584 
Q 5097 3584 5394 3201 
Q 5691 2819 5691 2113 
L 5691 0 
L 5113 0 
L 5113 2094 
Q 5113 2597 4934 2840 
Q 4756 3084 4391 3084 
Q 3944 3084 3684 2787 
Q 3425 2491 3425 1978 
L 3425 0 
L 2847 0 
L 2847 2094 
Q 2847 2600 2669 2842 
Q 2491 3084 2119 3084 
Q 1678 3084 1418 2786 
Q 1159 2488 1159 1978 
L 1159 0 
L 581 0 
L 581 3500 
L 1159 3500 
L 1159 2956 
Q 1356 3278 1631 3431 
Q 1906 3584 2284 3584 
Q 2666 3584 2933 3390 
Q 3200 3197 3328 2828 
z
" transform="scale(0.015625)"/>
      </defs>
      <use xlink:href="#DejaVuSans-62"/>
      <use xlink:href="#DejaVuSans-6d" x="63.476562"/>
      <use xlink:href="#DejaVuSans-70" x="160.888672"/>
      <use xlink:href="#DejaVuSans-32" x="224.365234"/>
      <use xlink:href="#DejaVuSans-38" x="287.988281"/>
      <use xlink:href="#DejaVuSans-30" x="351.611328"/>
     </g>
    </g>
   </g>
  </g>
  <g id="axes_2">
   <g id="patch_8">
    <path d="M 57.6 307.584 
L 414.72 307.584 
L 414.72 186.624 
L 57.6 186.624 
z
" style="fill: #ffffff"/>
   </g>
   <g id="matplotlib.axis_3">
    <g id="xtick_7">
     <g id="line2d_29">
      <path d="M 73.832727 307.584 
L 73.832727 186.624 
" clip-path="url(#pf3b007a387)" style="fill: none; stroke: #b0b0b0; stroke-width: 0.8; stroke-linecap: square"/>
     </g>
     <g id="line2d_30">
      <g>
       <use xlink:href="#m45c206e028" x="73.832727" y="307.584" style="stroke: #000000; stroke-width: 0.8"/>
      </g>
     </g>
     <g id="text_16">
      <!-- 0 -->
      <g transform="translate(70.651477 322.182437)scale(0.1 -0.1)">
       <use xlink:href="#DejaVuSans-30"/>
      </g>
     </g>
    </g>
    <g id="xtick_8">
     <g id="line2d_31">
      <path d="M 138.828632 307.584 
L 138.828632 186.624 
" clip-path="url(#pf3b007a387)" style="fill: none; stroke: #b0b0b0; stroke-width: 0.8; stroke-linecap: square"/>
     </g>
     <g id="line2d_32">
      <g>
       <use xlink:href="#m45c206e028" x="138.828632" y="307.584" style="stroke: #000000; stroke-width: 0.8"/>
      </g>
     </g>
     <g id="text_17">
      <!-- 200 -->
      <g transform="translate(129.284882 322.182437)scale(0.1 -0.1)">
       <use xlink:href="#DejaVuSans-32"/>
       <use xlink:href="#DejaVuSans-30" x="63.623047"/>
       <use xlink:href="#DejaVuSans-30" x="127.246094"/>
      </g>
     </g>
    </g>
    <g id="xtick_9">
     <g id="line2d_33">
      <path d="M 203.824537 307.584 
L 203.824537 186.624 
" clip-path="url(#pf3b007a387)" style="fill: none; stroke: #b0b0b0; stroke-width: 0.8; stroke-linecap: square"/>
     </g>
     <g id="line2d_34">
      <g>
       <use xlink:href="#m45c206e028" x="203.824537" y="307.584" style="stroke: #000000; stroke-width: 0.8"/>
      </g>
     </g>
     <g id="text_18">
      <!-- 400 -->
      <g transform="translate(194.280787 322.182437)scale(0.1 -0.1)">
       <use xlink:href="#DejaVuSans-34"/>
       <use xlink:href="#DejaVuSans-30" x="63.623047"/>
       <use xlink:href="#DejaVuSans-30" x="127.246094"/>
      </g>
     </g>
    </g>
    <g id="xtick_10">
     <g id="line2d_35">
      <path d="M 268.820442 307.584 
L 268.820442 186.624 
" clip-path="url(#pf3b007a387)" style="fill: none; stroke: #b0b0b0; stroke-width: 0.8; stroke-linecap: square"/>
     </g>
     <g id="line2d_36">
      <g>
       <use xlink:href="#m45c206e028" x="268.820442" y="307.584" style="stroke: #000000; stroke-width: 0.8"/>
      </g>
     </g>
     <g id="text_19">
      <!-- 600 -->
      <g transform="translate(259.276692 322.182437)scale(0.1 -0.1)">
       <use xlink:href="#DejaVuSans-36"/>
       <use xlink:href="#DejaVuSans-30" x="63.623047"/>
       <use xlink:href="#DejaVuSans-30" x="127.246094"/>
      </g>
     </g>
    </g>
    <g id="xtick_11">
     <g id="line2d_37">
      <path d="M 333.816347 307.584 
L 333.816347 186.624 
" clip-path="url(#pf3b007a387)" style="fill: none; stroke: #b0b0b0; stroke-width: 0.8; stroke-linecap: square"/>
     </g>
     <g id="line2d_38">
      <g>
       <use xlink:href="#m45c206e028" x="333.816347" y="307.584" style="stroke: #000000; stroke-width: 0.8"/>
      </g>
     </g>
     <g id="text_20">
      <!-- 800 -->
      <g transform="translate(324.272597 322.182437)scale(0.1 -0.1)">
       <use xlink:href="#DejaVuSans-38"/>
       <use xlink:href="#DejaVuSans-30" x="63.623047"/>
       <use xlink:href="#DejaVuSans-30" x="127.246094"/>
      </g>
     </g>
    </g>
    <g id="xtick_12">
     <g id="line2d_39">
      <path d="M 398.812252 307.584 
L 398.812252 186.624 
" clip-path="url(#pf3b007a387)" style="fill: none; stroke: #b0b0b0; stroke-width: 0.8; stroke-linecap: square"/>
     </g>
     <g id="line2d_40">
      <g>
       <use xlink:href="#m45c206e028" x="398.812252" y="307.584" style="stroke: #000000; stroke-width: 0.8"/>
      </g>
     </g>
     <g id="text_21">
      <!-- 1000 -->
      <g transform="translate(386.087252 322.182437)scale(0.1 -0.1)">
       <use xlink:href="#DejaVuSans-31"/>
       <use xlink:href="#DejaVuSans-30" x="63.623047"/>
       <use xlink:href="#DejaVuSans-30" x="127.246094"/>
       <use xlink:href="#DejaVuSans-30" x="190.869141"/>
      </g>
     </g>
    </g>
    <g id="text_22">
     <!-- time [s] -->
     <g transform="translate(216.768594 335.860562)scale(0.1 -0.1)">
      <defs>
       <path id="DejaVuSans-74" d="M 1172 4494 
L 1172 3500 
L 2356 3500 
L 2356 3053 
L 1172 3053 
L 1172 1153 
Q 1172 725 1289 603 
Q 1406 481 1766 481 
L 2356 481 
L 2356 0 
L 1766 0 
Q 1100 0 847 248 
Q 594 497 594 1153 
L 594 3053 
L 172 3053 
L 172 3500 
L 594 3500 
L 594 4494 
L 1172 4494 
z
" transform="scale(0.015625)"/>
       <path id="DejaVuSans-69" d="M 603 3500 
L 1178 3500 
L 1178 0 
L 603 0 
L 603 3500 
z
M 603 4863 
L 1178 4863 
L 1178 4134 
L 603 4134 
L 603 4863 
z
" transform="scale(0.015625)"/>
      </defs>
      <use xlink:href="#DejaVuSans-74"/>
      <use xlink:href="#DejaVuSans-69" x="39.208984"/>
      <use xlink:href="#DejaVuSans-6d" x="66.992188"/>
      <use xlink:href="#DejaVuSans-65" x="164.404297"/>
      <use xlink:href="#DejaVuSans-20" x="225.927734"/>
      <use xlink:href="#DejaVuSans-5b" x="257.714844"/>
      <use xlink:href="#DejaVuSans-73" x="296.728516"/>
      <use xlink:href="#DejaVuSans-5d" x="348.828125"/>
     </g>
    </g>
   </g>
   <g id="matplotlib.axis_4">
    <g id="ytick_7">
     <g id="line2d_41">
      <path d="M 57.6 302.085818 
L 414.72 302.085818 
" clip-path="url(#pf3b007a387)" style="fill: none; stroke: #b0b0b0; stroke-width: 0.8; stroke-linecap: square"/>
     </g>
     <g id="line2d_42">
      <g>
       <use xlink:href="#mdf6e22fe39" x="57.6" y="302.085818" style="stroke: #000000; stroke-width: 0.8"/>
      </g>
     </g>
     <g id="text_23">
      <!-- 0 -->
      <g transform="translate(44.2375 305.885037)scale(0.1 -0.1)">
       <use xlink:href="#DejaVuSans-30"/>
      </g>
     </g>
    </g>
    <g id="ytick_8">
     <g id="line2d_43">
      <path d="M 57.6 265.691854 
L 414.72 265.691854 
" clip-path="url(#pf3b007a387)" style="fill: none; stroke: #b0b0b0; stroke-width: 0.8; stroke-linecap: square"/>
     </g>
     <g id="line2d_44">
      <g>
       <use xlink:href="#mdf6e22fe39" x="57.6" y="265.691854" style="stroke: #000000; stroke-width: 0.8"/>
      </g>
     </g>
     <g id="text_24">
      <!-- 5 -->
      <g transform="translate(44.2375 269.491072)scale(0.1 -0.1)">
       <defs>
        <path id="DejaVuSans-35" d="M 691 4666 
L 3169 4666 
L 3169 4134 
L 1269 4134 
L 1269 2991 
Q 1406 3038 1543 3061 
Q 1681 3084 1819 3084 
Q 2600 3084 3056 2656 
Q 3513 2228 3513 1497 
Q 3513 744 3044 326 
Q 2575 -91 1722 -91 
Q 1428 -91 1123 -41 
Q 819 9 494 109 
L 494 744 
Q 775 591 1075 516 
Q 1375 441 1709 441 
Q 2250 441 2565 725 
Q 2881 1009 2881 1497 
Q 2881 1984 2565 2268 
Q 2250 2553 1709 2553 
Q 1456 2553 1204 2497 
Q 953 2441 691 2322 
L 691 4666 
z
" transform="scale(0.015625)"/>
       </defs>
       <use xlink:href="#DejaVuSans-35"/>
      </g>
     </g>
    </g>
    <g id="ytick_9">
     <g id="line2d_45">
      <path d="M 57.6 229.297889 
L 414.72 229.297889 
" clip-path="url(#pf3b007a387)" style="fill: none; stroke: #b0b0b0; stroke-width: 0.8; stroke-linecap: square"/>
     </g>
     <g id="line2d_46">
      <g>
       <use xlink:href="#mdf6e22fe39" x="57.6" y="229.297889" style="stroke: #000000; stroke-width: 0.8"/>
      </g>
     </g>
     <g id="text_25">
      <!-- 10 -->
      <g transform="translate(37.875 233.097108)scale(0.1 -0.1)">
       <use xlink:href="#DejaVuSans-31"/>
       <use xlink:href="#DejaVuSans-30" x="63.623047"/>
      </g>
     </g>
    </g>
    <g id="ytick_10">
     <g id="line2d_47">
      <path d="M 57.6 192.903924 
L 414.72 192.903924 
" clip-path="url(#pf3b007a387)" style="fill: none; stroke: #b0b0b0; stroke-width: 0.8; stroke-linecap: square"/>
     </g>
     <g id="line2d_48">
      <g>
       <use xlink:href="#mdf6e22fe39" x="57.6" y="192.903924" style="stroke: #000000; stroke-width: 0.8"/>
      </g>
     </g>
     <g id="text_26">
      <!-- 15 -->
      <g transform="translate(37.875 196.703143)scale(0.1 -0.1)">
       <use xlink:href="#DejaVuSans-31"/>
       <use xlink:href="#DejaVuSans-35" x="63.623047"/>
      </g>
     </g>
    </g>
    <g id="text_27">
     <!-- energy [wh] -->
     <g transform="translate(31.795312 277.275875)rotate(-90)scale(0.1 -0.1)">
      <defs>
       <path id="DejaVuSans-6e" d="M 3513 2113 
L 3513 0 
L 2938 0 
L 2938 2094 
Q 2938 2591 2744 2837 
Q 2550 3084 2163 3084 
Q 1697 3084 1428 2787 
Q 1159 2491 1159 1978 
L 1159 0 
L 581 0 
L 581 3500 
L 1159 3500 
L 1159 2956 
Q 1366 3272 1645 3428 
Q 1925 3584 2291 3584 
Q 2894 3584 3203 3211 
Q 3513 2838 3513 2113 
z
" transform="scale(0.015625)"/>
       <path id="DejaVuSans-79" d="M 2059 -325 
Q 1816 -950 1584 -1140 
Q 1353 -1331 966 -1331 
L 506 -1331 
L 506 -850 
L 844 -850 
Q 1081 -850 1212 -737 
Q 1344 -625 1503 -206 
L 1606 56 
L 191 3500 
L 800 3500 
L 1894 763 
L 2988 3500 
L 3597 3500 
L 2059 -325 
z
" transform="scale(0.015625)"/>
       <path id="DejaVuSans-68" d="M 3513 2113 
L 3513 0 
L 2938 0 
L 2938 2094 
Q 2938 2591 2744 2837 
Q 2550 3084 2163 3084 
Q 1697 3084 1428 2787 
Q 1159 2491 1159 1978 
L 1159 0 
L 581 0 
L 581 4863 
L 1159 4863 
L 1159 2956 
Q 1366 3272 1645 3428 
Q 1925 3584 2291 3584 
Q 2894 3584 3203 3211 
Q 3513 2838 3513 2113 
z
" transform="scale(0.015625)"/>
      </defs>
      <use xlink:href="#DejaVuSans-65"/>
      <use xlink:href="#DejaVuSans-6e" x="61.523438"/>
      <use xlink:href="#DejaVuSans-65" x="124.902344"/>
      <use xlink:href="#DejaVuSans-72" x="186.425781"/>
      <use xlink:href="#DejaVuSans-67" x="225.789062"/>
      <use xlink:href="#DejaVuSans-79" x="289.265625"/>
      <use xlink:href="#DejaVuSans-20" x="348.445312"/>
      <use xlink:href="#DejaVuSans-5b" x="380.232422"/>
      <use xlink:href="#DejaVuSans-77" x="419.246094"/>
      <use xlink:href="#DejaVuSans-68" x="501.033203"/>
      <use xlink:href="#DejaVuSans-5d" x="564.412109"/>
     </g>
    </g>
   </g>
   <g id="line2d_49">
    <path d="M 73.832727 302.085818 
L 78.057461 302.085818 
L 78.70742 301.728793 
L 79.0324 301.193256 
L 79.682359 301.193256 
L 80.007338 301.014744 
L 80.657297 299.765157 
L 81.632236 297.623008 
L 81.957215 297.265983 
L 82.282195 297.087471 
L 82.607174 296.730446 
L 82.932154 296.551934 
L 83.257133 296.194909 
L 83.907093 295.837884 
L 84.232072 295.123835 
L 84.557052 294.76681 
L 85.207011 294.409785 
L 85.53199 294.05276 
L 85.85697 293.517223 
L 86.181949 293.338711 
L 86.506929 292.981686 
L 86.831908 292.803174 
L 87.156888 292.446149 
L 87.481867 292.446149 
L 87.806847 292.089124 
L 88.131826 291.910612 
L 88.456806 291.910612 
L 89.106765 291.196562 
L 89.431744 291.01805 
L 96.581294 291.01805 
L 96.906274 290.661025 
L 97.556233 290.304 
L 97.881212 289.768463 
L 99.18113 289.054413 
L 99.50611 288.697388 
L 100.156069 288.340364 
L 100.481048 287.983339 
L 100.806028 287.983339 
L 101.131007 287.626314 
L 101.455987 287.626314 
L 101.780966 287.269289 
L 102.105946 287.090777 
L 102.430925 286.733752 
L 102.755905 286.733752 
L 103.405864 286.019702 
L 103.730844 285.84119 
L 104.380803 285.12714 
L 104.705782 284.948628 
L 105.355741 284.234579 
L 106.33068 282.806479 
L 106.655659 282.627967 
L 106.980639 282.627967 
L 109.580475 281.199868 
L 109.905455 281.199868 
L 110.555414 280.842843 
L 110.880393 280.485818 
L 111.855332 278.700694 
L 112.180311 277.808132 
L 112.83027 276.91557 
L 113.480229 276.201521 
L 113.805209 276.023008 
L 117.704963 276.023008 
L 118.029943 275.844496 
L 122.579656 275.844496 
L 122.904636 275.665983 
L 123.229615 275.665983 
L 123.554595 275.487471 
L 123.879574 275.130446 
L 124.204554 274.951934 
L 124.854513 274.059372 
L 125.179492 273.702347 
L 125.504472 273.702347 
L 126.154431 272.809785 
L 127.454349 271.381686 
L 129.729206 270.132099 
L 130.379165 270.132099 
L 130.704144 269.953587 
L 131.029124 269.953587 
L 131.354103 269.775074 
L 131.679083 269.41805 
L 132.329042 269.061025 
L 132.979001 268.346975 
L 134.278919 267.632926 
L 134.603898 267.275901 
L 135.578837 265.847802 
L 136.228796 265.133752 
L 137.203735 263.705653 
L 138.503653 262.277554 
L 138.828632 262.099041 
L 143.053366 262.099041 
L 143.378346 261.920529 
L 145.003243 261.920529 
L 145.328223 261.742017 
L 155.727568 261.742017 
L 156.052547 261.563504 
L 170.676626 261.563504 
L 173.601441 259.956893 
L 186.925602 259.956893 
L 187.250581 259.77838 
L 188.22552 259.77838 
L 188.5505 259.599868 
L 193.425192 259.599868 
L 194.400131 259.064331 
L 194.725111 259.064331 
L 195.05009 258.707306 
L 195.37507 258.707306 
L 196.025029 258.350281 
L 196.350008 257.993256 
L 196.674988 257.814744 
L 196.999967 257.814744 
L 198.299885 257.100694 
L 198.624865 256.743669 
L 199.274824 255.851107 
L 199.599803 255.494083 
L 201.549681 252.459372 
L 201.87466 252.102347 
L 202.19964 251.388298 
L 202.849599 250.674248 
L 203.499558 250.317223 
L 203.824537 249.960198 
L 205.124455 249.246149 
L 205.449435 248.710612 
L 205.774414 248.532099 
L 206.749353 247.461025 
L 212.274005 247.461025 
L 212.598984 247.282512 
L 212.923964 246.746975 
L 213.573923 246.38995 
L 214.223882 245.675901 
L 214.548862 245.497388 
L 215.198821 244.604826 
L 216.498739 243.176727 
L 216.823718 243.176727 
L 217.148698 242.998215 
L 235.99751 242.998215 
L 236.32249 242.819702 
L 241.197183 242.819702 
L 241.522162 242.64119 
L 241.847142 242.64119 
L 243.472039 241.748628 
L 243.797019 241.391603 
L 244.121998 241.213091 
L 245.746896 239.427967 
L 246.071876 238.89243 
L 246.721835 238.535405 
L 248.021753 237.107306 
L 248.671712 236.214744 
L 248.996691 236.036231 
L 249.321671 235.679207 
L 249.64665 235.500694 
L 249.97163 234.965157 
L 250.296609 234.786645 
L 250.621589 234.42962 
L 250.946568 234.42962 
L 251.921507 233.894083 
L 252.571466 233.180033 
L 254.521343 232.108959 
L 254.846323 231.751934 
L 255.171302 231.573421 
L 257.121179 229.431273 
L 257.446159 229.25276 
L 257.771138 229.25276 
L 259.396036 228.360198 
L 278.244848 228.360198 
L 278.569828 228.181686 
L 278.894808 228.181686 
L 279.219787 227.824661 
L 279.869746 227.467636 
L 280.194726 227.110612 
L 280.519705 226.932099 
L 280.844685 226.575074 
L 281.169664 226.396562 
L 281.494644 226.039537 
L 282.469582 225.504 
L 285.719378 225.504 
L 286.044357 225.325488 
L 286.369337 225.325488 
L 286.694316 225.146975 
L 287.019296 225.146975 
L 287.344275 224.968463 
L 287.669255 224.611438 
L 288.319214 224.254413 
L 288.969173 223.540364 
L 291.244029 222.290777 
L 291.893989 222.290777 
L 292.218968 221.933752 
L 292.543948 221.933752 
L 292.868927 221.576727 
L 293.843866 221.576727 
L 294.168845 221.398215 
L 294.818804 221.398215 
L 295.468763 221.04119 
L 295.793743 221.04119 
L 296.118722 220.684165 
L 296.443702 220.505653 
L 297.093661 219.791603 
L 297.41864 219.613091 
L 298.0686 218.899041 
L 298.393579 218.720529 
L 298.718559 218.363504 
L 300.018477 217.649455 
L 301.318395 216.221355 
L 301.968354 215.864331 
L 302.293333 215.507306 
L 302.943292 215.507306 
L 303.268272 215.328793 
L 304.56819 215.328793 
L 304.89317 215.150281 
L 305.218149 215.150281 
L 305.543129 214.971769 
L 305.868108 214.971769 
L 306.518067 214.614744 
L 308.792924 214.614744 
L 309.117903 214.436231 
L 309.442883 214.436231 
L 310.742801 213.722182 
L 311.067781 213.365157 
L 311.39276 213.186645 
L 311.71774 212.82962 
L 312.042719 212.651107 
L 312.692678 211.937058 
L 313.017658 211.758545 
L 313.342637 211.758545 
L 313.667617 211.580033 
L 313.992596 211.580033 
L 314.967535 211.044496 
L 315.292514 211.044496 
L 315.617494 210.865983 
L 316.267453 210.865983 
L 316.592432 210.687471 
L 316.917412 210.687471 
L 317.242391 210.508959 
L 317.567371 210.508959 
L 318.21733 210.151934 
L 318.54231 210.151934 
L 318.867289 209.973421 
L 332.19145 209.973421 
L 332.516429 209.794909 
L 332.841409 209.794909 
L 334.466306 208.902347 
L 334.791286 208.902347 
L 335.766224 208.36681 
L 336.091204 208.36681 
L 336.416183 208.009785 
L 337.716102 208.009785 
L 338.041081 207.831273 
L 339.665979 207.831273 
L 339.990958 207.65276 
L 340.315938 207.65276 
L 342.590794 206.403174 
L 343.240753 205.689124 
L 343.565733 205.510612 
L 344.215692 205.510612 
L 344.540672 205.332099 
L 351.690221 205.332099 
L 352.015201 205.153587 
L 353.315119 205.153587 
L 353.640098 204.975074 
L 355.589975 204.975074 
L 355.914955 204.796562 
L 356.239934 204.796562 
L 356.564914 204.61805 
L 356.889894 204.61805 
L 357.539853 204.261025 
L 358.189812 204.261025 
L 358.514791 204.082512 
L 359.16475 204.082512 
L 359.48973 203.904 
L 359.814709 203.904 
L 360.139689 203.725488 
L 360.464668 203.725488 
L 361.439607 203.18995 
L 361.764586 203.18995 
L 362.414545 202.832926 
L 362.739525 202.832926 
L 365.339361 201.404826 
L 365.664341 201.404826 
L 365.98932 201.226314 
L 366.3143 201.226314 
L 366.964259 200.869289 
L 367.614218 200.869289 
L 368.264177 200.512264 
L 368.589156 200.512264 
L 368.914136 200.333752 
L 370.864013 200.333752 
L 371.188993 200.15524 
L 371.513972 200.15524 
L 371.838952 199.976727 
L 372.488911 199.976727 
L 374.763767 198.72714 
L 375.088747 198.370116 
L 376.388665 197.656066 
L 376.713645 197.656066 
L 378.013563 196.942017 
L 378.338542 194.97838 
L 378.663522 193.728793 
L 379.313481 192.479207 
L 379.63846 192.122182 
L 398.487273 192.122182 
L 398.487273 192.122182 
" clip-path="url(#pf3b007a387)" style="fill: none; stroke: #1f77b4; stroke-width: 1.5; stroke-linecap: square"/>
   </g>
   <g id="line2d_50">
    <path d="M 73.832727 302.085818 
L 75.457625 301.870461 
L 75.782604 301.84596 
L 76.107584 301.585714 
L 76.432563 301.51971 
L 76.757543 301.250278 
L 78.057461 301.10931 
L 78.70742 301.105947 
L 79.0324 300.932079 
L 80.332318 300.896878 
L 82.932154 300.829935 
L 83.582113 300.680851 
L 85.207011 300.594081 
L 87.156888 300.421297 
L 91.381622 300.354084 
L 92.031581 300.267212 
L 92.35656 300.267212 
L 92.68154 300.119016 
L 93.331499 300.119016 
L 94.306437 299.637312 
L 94.956396 299.472994 
L 95.281376 299.314476 
L 95.931335 299.241106 
L 96.906274 298.888375 
L 97.556233 298.856858 
L 98.206192 298.773698 
L 101.131007 298.679372 
L 105.355741 298.450083 
L 109.255495 298.374354 
L 109.580475 298.105396 
L 110.880393 297.774087 
L 113.15525 297.678422 
L 115.755086 297.594373 
L 116.405045 297.322467 
L 117.379984 296.873824 
L 117.704963 296.863124 
L 118.029943 296.739938 
L 118.354922 296.736677 
L 118.679902 296.370554 
L 120.304799 296.069641 
L 120.629779 295.85432 
L 120.954758 295.85432 
L 121.929697 295.487614 
L 122.579656 295.30464 
L 126.47941 295.015985 
L 127.454349 294.607921 
L 129.404226 294.555477 
L 131.029124 294.507299 
L 132.654021 293.922324 
L 136.878755 293.829709 
L 137.528714 293.734117 
L 140.778509 293.639965 
L 143.053366 293.119634 
L 145.003243 293.043257 
L 145.978182 292.993128 
L 147.2781 292.958081 
L 149.227977 292.904494 
L 150.202916 292.857117 
L 150.852875 292.61624 
L 151.827813 292.61624 
L 152.152793 292.490404 
L 153.77769 292.385778 
L 158.327404 291.9968 
L 160.277281 291.886708 
L 162.227158 291.691425 
L 163.527076 291.644848 
L 164.177035 291.527521 
L 168.726749 291.433523 
L 170.676626 291.017038 
L 171.651564 290.999205 
L 172.301523 290.905483 
L 175.551319 290.872991 
L 175.876298 290.7335 
L 180.426011 290.644779 
L 181.075971 290.577603 
L 182.700868 290.479746 
L 184.650745 290.33527 
L 188.22552 290.269695 
L 188.875479 290.092478 
L 191.475315 290.021044 
L 191.800295 289.825186 
L 195.700049 289.396575 
L 198.949844 288.245128 
L 199.924783 288.14666 
L 200.249762 287.892936 
L 200.899722 287.79337 
L 201.224701 287.442459 
L 201.87466 287.373172 
L 202.849599 287.292589 
L 204.799476 286.946031 
L 205.124455 286.668403 
L 205.449435 286.605281 
L 206.099394 286.142059 
L 207.074333 286.087941 
L 208.049271 285.9584 
L 208.69923 285.940618 
L 209.674169 285.50004 
L 210.974087 285.474346 
L 213.248943 284.911514 
L 218.123636 284.760267 
L 219.098575 284.755223 
L 219.748534 284.560749 
L 222.34837 284.560749 
L 222.67335 284.442395 
L 225.273186 284.348601 
L 226.573104 284.161791 
L 229.49792 284.059887 
L 231.772776 283.594969 
L 233.072695 283.492396 
L 233.397674 283.353189 
L 238.272367 283.271609 
L 238.597346 283.132591 
L 240.547224 283.08704 
L 240.872203 282.898148 
L 243.472039 282.869259 
L 244.121998 282.765704 
L 246.721835 282.737455 
L 247.046814 282.533845 
L 249.64665 282.528742 
L 251.271548 281.67224 
L 252.571466 281.590215 
L 254.846323 281.24127 
L 255.171302 281.24127 
L 255.821261 281.128252 
L 256.7962 281.036903 
L 258.746077 280.878633 
L 260.695954 280.810933 
L 261.345913 280.681006 
L 263.945749 280.589745 
L 264.920688 280.403153 
L 265.895627 280.322169 
L 266.545586 280.263706 
L 268.820442 280.172575 
L 270.44534 280.035341 
L 273.370156 279.946474 
L 273.695135 279.721188 
L 274.670074 279.679954 
L 275.645012 279.625181 
L 277.594889 279.345108 
L 278.244848 279.270806 
L 278.894808 279.154651 
L 279.544767 279.061613 
L 280.519705 278.834864 
L 281.494644 278.76276 
L 281.819623 278.584408 
L 287.019296 278.110129 
L 288.319214 278.050196 
L 288.969173 277.944944 
L 290.269091 277.844919 
L 291.244029 277.795918 
L 292.543948 277.704773 
L 293.193907 277.385416 
L 293.843866 277.288317 
L 301.968354 276.899564 
L 302.293333 276.673106 
L 304.89317 276.57881 
L 305.543129 276.48559 
L 308.142965 276.38237 
L 316.267453 275.721724 
L 317.242391 275.721724 
L 317.892351 275.609675 
L 320.492187 275.49927 
L 321.467125 275.409653 
L 322.442064 275.245466 
L 324.391941 275.138417 
L 324.716921 274.981107 
L 325.36688 274.887087 
L 325.691859 274.740827 
L 326.991777 274.662777 
L 327.316757 274.516182 
L 327.641736 274.516182 
L 328.291695 274.104653 
L 329.591613 273.900483 
L 331.216511 273.900483 
L 331.541491 273.677432 
L 332.19145 273.496284 
L 332.516429 273.272505 
L 333.816347 273.215927 
L 334.466306 273.10692 
L 334.791286 273.10692 
L 335.766224 272.324246 
L 336.416183 272.188991 
L 337.066143 272.175766 
L 337.716102 272.067632 
L 339.665979 271.927246 
L 341.290876 271.80906 
L 341.940835 271.715564 
L 342.590794 271.634595 
L 345.190631 271.543683 
L 345.51561 271.390108 
L 346.490549 271.35482 
L 347.140508 271.244648 
L 348.115446 271.236023 
L 348.765405 271.073378 
L 349.415364 271.04165 
L 350.065324 270.939689 
L 352.990139 270.843812 
L 355.914955 270.565973 
L 356.239934 270.429976 
L 357.539853 270.409123 
L 357.864832 270.290114 
L 359.48973 270.266327 
L 360.139689 270.115307 
L 361.439607 269.830306 
L 365.339361 268.716097 
L 366.639279 268.608095 
L 368.914136 268.489458 
L 370.539034 268.412863 
L 370.864013 268.170603 
L 371.513972 268.109825 
L 372.163931 268.067724 
L 372.81389 267.969199 
L 373.788829 267.947035 
L 374.438788 267.658947 
L 376.063686 267.559424 
L 376.713645 267.403716 
L 378.013563 267.365517 
L 378.338542 267.189829 
L 380.613399 267.183613 
L 381.913317 266.866498 
L 382.563276 266.765031 
L 383.538215 266.765031 
L 383.863194 266.635323 
L 384.838133 266.531724 
L 385.488092 266.191201 
L 387.437969 266.10047 
L 390.362785 265.945075 
L 391.012744 265.945075 
L 391.337723 265.735708 
L 393.61258 265.684524 
L 394.262539 265.446536 
L 394.587518 265.446536 
L 395.237477 265.333431 
L 396.212416 265.28232 
L 396.537396 265.28232 
L 397.187355 265.160378 
L 397.512334 265.118772 
L 397.837314 264.947728 
L 398.487273 264.884337 
L 398.487273 264.884337 
" clip-path="url(#pf3b007a387)" style="fill: none; stroke: #ff7f0e; stroke-width: 1.5; stroke-linecap: square"/>
   </g>
   <g id="patch_9">
    <path d="M 57.6 307.584 
L 57.6 186.624 
" style="fill: none; stroke: #000000; stroke-width: 0.8; stroke-linejoin: miter; stroke-linecap: square"/>
   </g>
   <g id="patch_10">
    <path d="M 414.72 307.584 
L 414.72 186.624 
" style="fill: none; stroke: #000000; stroke-width: 0.8; stroke-linejoin: miter; stroke-linecap: square"/>
   </g>
   <g id="patch_11">
    <path d="M 57.6 307.584 
L 414.72 307.584 
" style="fill: none; stroke: #000000; stroke-width: 0.8; stroke-linejoin: miter; stroke-linecap: square"/>
   </g>
   <g id="patch_12">
    <path d="M 57.6 186.624 
L 414.72 186.624 
" style="fill: none; stroke: #000000; stroke-width: 0.8; stroke-linejoin: miter; stroke-linecap: square"/>
   </g>
  </g>
 </g>
 <defs>
  <clipPath id="p0ec818289b">
   <rect x="57.6" y="41.472" width="357.12" height="120.96"/>
  </clipPath>
  <clipPath id="pf3b007a387">
   <rect x="57.6" y="186.624" width="357.12" height="120.96"/>
  </clipPath>
 </defs>
</svg>
