<?xml version="1.0" encoding="utf-8" standalone="no"?>
<!DOCTYPE svg PUBLIC "-//W3C//DTD SVG 1.1//EN"
  "http://www.w3.org/Graphics/SVG/1.1/DTD/svg11.dtd">
<svg xmlns:xlink="http://www.w3.org/1999/xlink" width="460.8pt" height="345.6pt" viewBox="0 0 460.8 345.6" xmlns="http://www.w3.org/2000/svg" version="1.1">
 <metadata>
  <rdf:RDF xmlns:dc="http://purl.org/dc/elements/1.1/" xmlns:cc="http://creativecommons.org/ns#" xmlns:rdf="http://www.w3.org/1999/02/22-rdf-syntax-ns#">
   <cc:Work>
    <dc:type rdf:resource="http://purl.org/dc/dcmitype/StillImage"/>
    <dc:date>2021-11-21T13:42:25.888996</dc:date>
    <dc:format>image/svg+xml</dc:format>
    <dc:creator>
     <cc:Agent>
      <dc:title>Matplotlib v3.5.0, https://matplotlib.org/</dc:title>
     </cc:Agent>
    </dc:creator>
   </cc:Work>
  </rdf:RDF>
 </metadata>
 <defs>
  <style type="text/css">*{stroke-linejoin: round; stroke-linecap: butt}</style>
 </defs>
 <g id="figure_1">
  <g id="patch_1">
   <path d="M 0 345.6 
L 460.8 345.6 
L 460.8 0 
L 0 0 
z
" style="fill: #ffffff"/>
  </g>
  <g id="axes_1">
   <g id="patch_2">
    <path d="M 57.6 307.584 
L 414.72 307.584 
L 414.72 41.472 
L 57.6 41.472 
z
" style="fill: #ffffff"/>
   </g>
   <g id="matplotlib.axis_1">
    <g id="xtick_1">
     <g id="line2d_1">
      <path d="M 73.832727 307.584 
L 73.832727 41.472 
" clip-path="url(#pb051f1f2e4)" style="fill: none; stroke: #b0b0b0; stroke-width: 0.8; stroke-linecap: square"/>
     </g>
     <g id="line2d_2">
      <defs>
       <path id="mc5a3dea4bd" d="M 0 0 
L 0 3.5 
" style="stroke: #000000; stroke-width: 0.8"/>
      </defs>
      <g>
       <use xlink:href="#mc5a3dea4bd" x="73.832727" y="307.584" style="stroke: #000000; stroke-width: 0.8"/>
      </g>
     </g>
     <g id="text_1">
      <!-- 0 -->
      <g transform="translate(70.651477 322.182437)scale(0.1 -0.1)">
       <defs>
        <path id="DejaVuSans-30" d="M 2034 4250 
Q 1547 4250 1301 3770 
Q 1056 3291 1056 2328 
Q 1056 1369 1301 889 
Q 1547 409 2034 409 
Q 2525 409 2770 889 
Q 3016 1369 3016 2328 
Q 3016 3291 2770 3770 
Q 2525 4250 2034 4250 
z
M 2034 4750 
Q 2819 4750 3233 4129 
Q 3647 3509 3647 2328 
Q 3647 1150 3233 529 
Q 2819 -91 2034 -91 
Q 1250 -91 836 529 
Q 422 1150 422 2328 
Q 422 3509 836 4129 
Q 1250 4750 2034 4750 
z
" transform="scale(0.015625)"/>
       </defs>
       <use xlink:href="#DejaVuSans-30"/>
      </g>
     </g>
    </g>
    <g id="xtick_2">
     <g id="line2d_3">
      <path d="M 138.828632 307.584 
L 138.828632 41.472 
" clip-path="url(#pb051f1f2e4)" style="fill: none; stroke: #b0b0b0; stroke-width: 0.8; stroke-linecap: square"/>
     </g>
     <g id="line2d_4">
      <g>
       <use xlink:href="#mc5a3dea4bd" x="138.828632" y="307.584" style="stroke: #000000; stroke-width: 0.8"/>
      </g>
     </g>
     <g id="text_2">
      <!-- 200 -->
      <g transform="translate(129.284882 322.182437)scale(0.1 -0.1)">
       <defs>
        <path id="DejaVuSans-32" d="M 1228 531 
L 3431 531 
L 3431 0 
L 469 0 
L 469 531 
Q 828 903 1448 1529 
Q 2069 2156 2228 2338 
Q 2531 2678 2651 2914 
Q 2772 3150 2772 3378 
Q 2772 3750 2511 3984 
Q 2250 4219 1831 4219 
Q 1534 4219 1204 4116 
Q 875 4013 500 3803 
L 500 4441 
Q 881 4594 1212 4672 
Q 1544 4750 1819 4750 
Q 2544 4750 2975 4387 
Q 3406 4025 3406 3419 
Q 3406 3131 3298 2873 
Q 3191 2616 2906 2266 
Q 2828 2175 2409 1742 
Q 1991 1309 1228 531 
z
" transform="scale(0.015625)"/>
       </defs>
       <use xlink:href="#DejaVuSans-32"/>
       <use xlink:href="#DejaVuSans-30" x="63.623047"/>
       <use xlink:href="#DejaVuSans-30" x="127.246094"/>
      </g>
     </g>
    </g>
    <g id="xtick_3">
     <g id="line2d_5">
      <path d="M 203.824537 307.584 
L 203.824537 41.472 
" clip-path="url(#pb051f1f2e4)" style="fill: none; stroke: #b0b0b0; stroke-width: 0.8; stroke-linecap: square"/>
     </g>
     <g id="line2d_6">
      <g>
       <use xlink:href="#mc5a3dea4bd" x="203.824537" y="307.584" style="stroke: #000000; stroke-width: 0.8"/>
      </g>
     </g>
     <g id="text_3">
      <!-- 400 -->
      <g transform="translate(194.280787 322.182437)scale(0.1 -0.1)">
       <defs>
        <path id="DejaVuSans-34" d="M 2419 4116 
L 825 1625 
L 2419 1625 
L 2419 4116 
z
M 2253 4666 
L 3047 4666 
L 3047 1625 
L 3713 1625 
L 3713 1100 
L 3047 1100 
L 3047 0 
L 2419 0 
L 2419 1100 
L 313 1100 
L 313 1709 
L 2253 4666 
z
" transform="scale(0.015625)"/>
       </defs>
       <use xlink:href="#DejaVuSans-34"/>
       <use xlink:href="#DejaVuSans-30" x="63.623047"/>
       <use xlink:href="#DejaVuSans-30" x="127.246094"/>
      </g>
     </g>
    </g>
    <g id="xtick_4">
     <g id="line2d_7">
      <path d="M 268.820442 307.584 
L 268.820442 41.472 
" clip-path="url(#pb051f1f2e4)" style="fill: none; stroke: #b0b0b0; stroke-width: 0.8; stroke-linecap: square"/>
     </g>
     <g id="line2d_8">
      <g>
       <use xlink:href="#mc5a3dea4bd" x="268.820442" y="307.584" style="stroke: #000000; stroke-width: 0.8"/>
      </g>
     </g>
     <g id="text_4">
      <!-- 600 -->
      <g transform="translate(259.276692 322.182437)scale(0.1 -0.1)">
       <defs>
        <path id="DejaVuSans-36" d="M 2113 2584 
Q 1688 2584 1439 2293 
Q 1191 2003 1191 1497 
Q 1191 994 1439 701 
Q 1688 409 2113 409 
Q 2538 409 2786 701 
Q 3034 994 3034 1497 
Q 3034 2003 2786 2293 
Q 2538 2584 2113 2584 
z
M 3366 4563 
L 3366 3988 
Q 3128 4100 2886 4159 
Q 2644 4219 2406 4219 
Q 1781 4219 1451 3797 
Q 1122 3375 1075 2522 
Q 1259 2794 1537 2939 
Q 1816 3084 2150 3084 
Q 2853 3084 3261 2657 
Q 3669 2231 3669 1497 
Q 3669 778 3244 343 
Q 2819 -91 2113 -91 
Q 1303 -91 875 529 
Q 447 1150 447 2328 
Q 447 3434 972 4092 
Q 1497 4750 2381 4750 
Q 2619 4750 2861 4703 
Q 3103 4656 3366 4563 
z
" transform="scale(0.015625)"/>
       </defs>
       <use xlink:href="#DejaVuSans-36"/>
       <use xlink:href="#DejaVuSans-30" x="63.623047"/>
       <use xlink:href="#DejaVuSans-30" x="127.246094"/>
      </g>
     </g>
    </g>
    <g id="xtick_5">
     <g id="line2d_9">
      <path d="M 333.816347 307.584 
L 333.816347 41.472 
" clip-path="url(#pb051f1f2e4)" style="fill: none; stroke: #b0b0b0; stroke-width: 0.8; stroke-linecap: square"/>
     </g>
     <g id="line2d_10">
      <g>
       <use xlink:href="#mc5a3dea4bd" x="333.816347" y="307.584" style="stroke: #000000; stroke-width: 0.8"/>
      </g>
     </g>
     <g id="text_5">
      <!-- 800 -->
      <g transform="translate(324.272597 322.182437)scale(0.1 -0.1)">
       <defs>
        <path id="DejaVuSans-38" d="M 2034 2216 
Q 1584 2216 1326 1975 
Q 1069 1734 1069 1313 
Q 1069 891 1326 650 
Q 1584 409 2034 409 
Q 2484 409 2743 651 
Q 3003 894 3003 1313 
Q 3003 1734 2745 1975 
Q 2488 2216 2034 2216 
z
M 1403 2484 
Q 997 2584 770 2862 
Q 544 3141 544 3541 
Q 544 4100 942 4425 
Q 1341 4750 2034 4750 
Q 2731 4750 3128 4425 
Q 3525 4100 3525 3541 
Q 3525 3141 3298 2862 
Q 3072 2584 2669 2484 
Q 3125 2378 3379 2068 
Q 3634 1759 3634 1313 
Q 3634 634 3220 271 
Q 2806 -91 2034 -91 
Q 1263 -91 848 271 
Q 434 634 434 1313 
Q 434 1759 690 2068 
Q 947 2378 1403 2484 
z
M 1172 3481 
Q 1172 3119 1398 2916 
Q 1625 2713 2034 2713 
Q 2441 2713 2670 2916 
Q 2900 3119 2900 3481 
Q 2900 3844 2670 4047 
Q 2441 4250 2034 4250 
Q 1625 4250 1398 4047 
Q 1172 3844 1172 3481 
z
" transform="scale(0.015625)"/>
       </defs>
       <use xlink:href="#DejaVuSans-38"/>
       <use xlink:href="#DejaVuSans-30" x="63.623047"/>
       <use xlink:href="#DejaVuSans-30" x="127.246094"/>
      </g>
     </g>
    </g>
    <g id="xtick_6">
     <g id="line2d_11">
      <path d="M 398.812252 307.584 
L 398.812252 41.472 
" clip-path="url(#pb051f1f2e4)" style="fill: none; stroke: #b0b0b0; stroke-width: 0.8; stroke-linecap: square"/>
     </g>
     <g id="line2d_12">
      <g>
       <use xlink:href="#mc5a3dea4bd" x="398.812252" y="307.584" style="stroke: #000000; stroke-width: 0.8"/>
      </g>
     </g>
     <g id="text_6">
      <!-- 1000 -->
      <g transform="translate(386.087252 322.182437)scale(0.1 -0.1)">
       <defs>
        <path id="DejaVuSans-31" d="M 794 531 
L 1825 531 
L 1825 4091 
L 703 3866 
L 703 4441 
L 1819 4666 
L 2450 4666 
L 2450 531 
L 3481 531 
L 3481 0 
L 794 0 
L 794 531 
z
" transform="scale(0.015625)"/>
       </defs>
       <use xlink:href="#DejaVuSans-31"/>
       <use xlink:href="#DejaVuSans-30" x="63.623047"/>
       <use xlink:href="#DejaVuSans-30" x="127.246094"/>
       <use xlink:href="#DejaVuSans-30" x="190.869141"/>
      </g>
     </g>
    </g>
    <g id="text_7">
     <!-- Time [s] -->
     <g transform="translate(215.831094 335.860562)scale(0.1 -0.1)">
      <defs>
       <path id="DejaVuSans-54" d="M -19 4666 
L 3928 4666 
L 3928 4134 
L 2272 4134 
L 2272 0 
L 1638 0 
L 1638 4134 
L -19 4134 
L -19 4666 
z
" transform="scale(0.015625)"/>
       <path id="DejaVuSans-69" d="M 603 3500 
L 1178 3500 
L 1178 0 
L 603 0 
L 603 3500 
z
M 603 4863 
L 1178 4863 
L 1178 4134 
L 603 4134 
L 603 4863 
z
" transform="scale(0.015625)"/>
       <path id="DejaVuSans-6d" d="M 3328 2828 
Q 3544 3216 3844 3400 
Q 4144 3584 4550 3584 
Q 5097 3584 5394 3201 
Q 5691 2819 5691 2113 
L 5691 0 
L 5113 0 
L 5113 2094 
Q 5113 2597 4934 2840 
Q 4756 3084 4391 3084 
Q 3944 3084 3684 2787 
Q 3425 2491 3425 1978 
L 3425 0 
L 2847 0 
L 2847 2094 
Q 2847 2600 2669 2842 
Q 2491 3084 2119 3084 
Q 1678 3084 1418 2786 
Q 1159 2488 1159 1978 
L 1159 0 
L 581 0 
L 581 3500 
L 1159 3500 
L 1159 2956 
Q 1356 3278 1631 3431 
Q 1906 3584 2284 3584 
Q 2666 3584 2933 3390 
Q 3200 3197 3328 2828 
z
" transform="scale(0.015625)"/>
       <path id="DejaVuSans-65" d="M 3597 1894 
L 3597 1613 
L 953 1613 
Q 991 1019 1311 708 
Q 1631 397 2203 397 
Q 2534 397 2845 478 
Q 3156 559 3463 722 
L 3463 178 
Q 3153 47 2828 -22 
Q 2503 -91 2169 -91 
Q 1331 -91 842 396 
Q 353 884 353 1716 
Q 353 2575 817 3079 
Q 1281 3584 2069 3584 
Q 2775 3584 3186 3129 
Q 3597 2675 3597 1894 
z
M 3022 2063 
Q 3016 2534 2758 2815 
Q 2500 3097 2075 3097 
Q 1594 3097 1305 2825 
Q 1016 2553 972 2059 
L 3022 2063 
z
" transform="scale(0.015625)"/>
       <path id="DejaVuSans-20" transform="scale(0.015625)"/>
       <path id="DejaVuSans-5b" d="M 550 4863 
L 1875 4863 
L 1875 4416 
L 1125 4416 
L 1125 -397 
L 1875 -397 
L 1875 -844 
L 550 -844 
L 550 4863 
z
" transform="scale(0.015625)"/>
       <path id="DejaVuSans-73" d="M 2834 3397 
L 2834 2853 
Q 2591 2978 2328 3040 
Q 2066 3103 1784 3103 
Q 1356 3103 1142 2972 
Q 928 2841 928 2578 
Q 928 2378 1081 2264 
Q 1234 2150 1697 2047 
L 1894 2003 
Q 2506 1872 2764 1633 
Q 3022 1394 3022 966 
Q 3022 478 2636 193 
Q 2250 -91 1575 -91 
Q 1294 -91 989 -36 
Q 684 19 347 128 
L 347 722 
Q 666 556 975 473 
Q 1284 391 1588 391 
Q 1994 391 2212 530 
Q 2431 669 2431 922 
Q 2431 1156 2273 1281 
Q 2116 1406 1581 1522 
L 1381 1569 
Q 847 1681 609 1914 
Q 372 2147 372 2553 
Q 372 3047 722 3315 
Q 1072 3584 1716 3584 
Q 2034 3584 2315 3537 
Q 2597 3491 2834 3397 
z
" transform="scale(0.015625)"/>
       <path id="DejaVuSans-5d" d="M 1947 4863 
L 1947 -844 
L 622 -844 
L 622 -397 
L 1369 -397 
L 1369 4416 
L 622 4416 
L 622 4863 
L 1947 4863 
z
" transform="scale(0.015625)"/>
      </defs>
      <use xlink:href="#DejaVuSans-54"/>
      <use xlink:href="#DejaVuSans-69" x="57.958984"/>
      <use xlink:href="#DejaVuSans-6d" x="85.742188"/>
      <use xlink:href="#DejaVuSans-65" x="183.154297"/>
      <use xlink:href="#DejaVuSans-20" x="244.677734"/>
      <use xlink:href="#DejaVuSans-5b" x="276.464844"/>
      <use xlink:href="#DejaVuSans-73" x="315.478516"/>
      <use xlink:href="#DejaVuSans-5d" x="367.578125"/>
     </g>
    </g>
   </g>
   <g id="matplotlib.axis_2">
    <g id="ytick_1">
     <g id="line2d_13">
      <path d="M 57.6 288.576 
L 414.72 288.576 
" clip-path="url(#pb051f1f2e4)" style="fill: none; stroke: #b0b0b0; stroke-width: 0.8; stroke-linecap: square"/>
     </g>
     <g id="line2d_14">
      <defs>
       <path id="m62849207ad" d="M 0 0 
L -3.5 0 
" style="stroke: #000000; stroke-width: 0.8"/>
      </defs>
      <g>
       <use xlink:href="#m62849207ad" x="57.6" y="288.576" style="stroke: #000000; stroke-width: 0.8"/>
      </g>
     </g>
     <g id="text_8">
      <!-- −0.6 -->
      <g transform="translate(26.317187 292.375219)scale(0.1 -0.1)">
       <defs>
        <path id="DejaVuSans-2212" d="M 678 2272 
L 4684 2272 
L 4684 1741 
L 678 1741 
L 678 2272 
z
" transform="scale(0.015625)"/>
        <path id="DejaVuSans-2e" d="M 684 794 
L 1344 794 
L 1344 0 
L 684 0 
L 684 794 
z
" transform="scale(0.015625)"/>
       </defs>
       <use xlink:href="#DejaVuSans-2212"/>
       <use xlink:href="#DejaVuSans-30" x="83.789062"/>
       <use xlink:href="#DejaVuSans-2e" x="147.412109"/>
       <use xlink:href="#DejaVuSans-36" x="179.199219"/>
      </g>
     </g>
    </g>
    <g id="ytick_2">
     <g id="line2d_15">
      <path d="M 57.6 250.56 
L 414.72 250.56 
" clip-path="url(#pb051f1f2e4)" style="fill: none; stroke: #b0b0b0; stroke-width: 0.8; stroke-linecap: square"/>
     </g>
     <g id="line2d_16">
      <g>
       <use xlink:href="#m62849207ad" x="57.6" y="250.56" style="stroke: #000000; stroke-width: 0.8"/>
      </g>
     </g>
     <g id="text_9">
      <!-- −0.4 -->
      <g transform="translate(26.317187 254.359219)scale(0.1 -0.1)">
       <use xlink:href="#DejaVuSans-2212"/>
       <use xlink:href="#DejaVuSans-30" x="83.789062"/>
       <use xlink:href="#DejaVuSans-2e" x="147.412109"/>
       <use xlink:href="#DejaVuSans-34" x="179.199219"/>
      </g>
     </g>
    </g>
    <g id="ytick_3">
     <g id="line2d_17">
      <path d="M 57.6 212.544 
L 414.72 212.544 
" clip-path="url(#pb051f1f2e4)" style="fill: none; stroke: #b0b0b0; stroke-width: 0.8; stroke-linecap: square"/>
     </g>
     <g id="line2d_18">
      <g>
       <use xlink:href="#m62849207ad" x="57.6" y="212.544" style="stroke: #000000; stroke-width: 0.8"/>
      </g>
     </g>
     <g id="text_10">
      <!-- −0.2 -->
      <g transform="translate(26.317187 216.343219)scale(0.1 -0.1)">
       <use xlink:href="#DejaVuSans-2212"/>
       <use xlink:href="#DejaVuSans-30" x="83.789062"/>
       <use xlink:href="#DejaVuSans-2e" x="147.412109"/>
       <use xlink:href="#DejaVuSans-32" x="179.199219"/>
      </g>
     </g>
    </g>
    <g id="ytick_4">
     <g id="line2d_19">
      <path d="M 57.6 174.528 
L 414.72 174.528 
" clip-path="url(#pb051f1f2e4)" style="fill: none; stroke: #b0b0b0; stroke-width: 0.8; stroke-linecap: square"/>
     </g>
     <g id="line2d_20">
      <g>
       <use xlink:href="#m62849207ad" x="57.6" y="174.528" style="stroke: #000000; stroke-width: 0.8"/>
      </g>
     </g>
     <g id="text_11">
      <!-- 0.0 -->
      <g transform="translate(34.696875 178.327219)scale(0.1 -0.1)">
       <use xlink:href="#DejaVuSans-30"/>
       <use xlink:href="#DejaVuSans-2e" x="63.623047"/>
       <use xlink:href="#DejaVuSans-30" x="95.410156"/>
      </g>
     </g>
    </g>
    <g id="ytick_5">
     <g id="line2d_21">
      <path d="M 57.6 136.512 
L 414.72 136.512 
" clip-path="url(#pb051f1f2e4)" style="fill: none; stroke: #b0b0b0; stroke-width: 0.8; stroke-linecap: square"/>
     </g>
     <g id="line2d_22">
      <g>
       <use xlink:href="#m62849207ad" x="57.6" y="136.512" style="stroke: #000000; stroke-width: 0.8"/>
      </g>
     </g>
     <g id="text_12">
      <!-- 0.2 -->
      <g transform="translate(34.696875 140.311219)scale(0.1 -0.1)">
       <use xlink:href="#DejaVuSans-30"/>
       <use xlink:href="#DejaVuSans-2e" x="63.623047"/>
       <use xlink:href="#DejaVuSans-32" x="95.410156"/>
      </g>
     </g>
    </g>
    <g id="ytick_6">
     <g id="line2d_23">
      <path d="M 57.6 98.496 
L 414.72 98.496 
" clip-path="url(#pb051f1f2e4)" style="fill: none; stroke: #b0b0b0; stroke-width: 0.8; stroke-linecap: square"/>
     </g>
     <g id="line2d_24">
      <g>
       <use xlink:href="#m62849207ad" x="57.6" y="98.496" style="stroke: #000000; stroke-width: 0.8"/>
      </g>
     </g>
     <g id="text_13">
      <!-- 0.4 -->
      <g transform="translate(34.696875 102.295219)scale(0.1 -0.1)">
       <use xlink:href="#DejaVuSans-30"/>
       <use xlink:href="#DejaVuSans-2e" x="63.623047"/>
       <use xlink:href="#DejaVuSans-34" x="95.410156"/>
      </g>
     </g>
    </g>
    <g id="ytick_7">
     <g id="line2d_25">
      <path d="M 57.6 60.48 
L 414.72 60.48 
" clip-path="url(#pb051f1f2e4)" style="fill: none; stroke: #b0b0b0; stroke-width: 0.8; stroke-linecap: square"/>
     </g>
     <g id="line2d_26">
      <g>
       <use xlink:href="#m62849207ad" x="57.6" y="60.48" style="stroke: #000000; stroke-width: 0.8"/>
      </g>
     </g>
     <g id="text_14">
      <!-- 0.6 -->
      <g transform="translate(34.696875 64.279219)scale(0.1 -0.1)">
       <use xlink:href="#DejaVuSans-30"/>
       <use xlink:href="#DejaVuSans-2e" x="63.623047"/>
       <use xlink:href="#DejaVuSans-36" x="95.410156"/>
      </g>
     </g>
    </g>
    <g id="text_15">
     <!-- Altitude variation from reference point [m] -->
     <g transform="translate(20.2375 281.147531)rotate(-90)scale(0.1 -0.1)">
      <defs>
       <path id="DejaVuSans-41" d="M 2188 4044 
L 1331 1722 
L 3047 1722 
L 2188 4044 
z
M 1831 4666 
L 2547 4666 
L 4325 0 
L 3669 0 
L 3244 1197 
L 1141 1197 
L 716 0 
L 50 0 
L 1831 4666 
z
" transform="scale(0.015625)"/>
       <path id="DejaVuSans-6c" d="M 603 4863 
L 1178 4863 
L 1178 0 
L 603 0 
L 603 4863 
z
" transform="scale(0.015625)"/>
       <path id="DejaVuSans-74" d="M 1172 4494 
L 1172 3500 
L 2356 3500 
L 2356 3053 
L 1172 3053 
L 1172 1153 
Q 1172 725 1289 603 
Q 1406 481 1766 481 
L 2356 481 
L 2356 0 
L 1766 0 
Q 1100 0 847 248 
Q 594 497 594 1153 
L 594 3053 
L 172 3053 
L 172 3500 
L 594 3500 
L 594 4494 
L 1172 4494 
z
" transform="scale(0.015625)"/>
       <path id="DejaVuSans-75" d="M 544 1381 
L 544 3500 
L 1119 3500 
L 1119 1403 
Q 1119 906 1312 657 
Q 1506 409 1894 409 
Q 2359 409 2629 706 
Q 2900 1003 2900 1516 
L 2900 3500 
L 3475 3500 
L 3475 0 
L 2900 0 
L 2900 538 
Q 2691 219 2414 64 
Q 2138 -91 1772 -91 
Q 1169 -91 856 284 
Q 544 659 544 1381 
z
M 1991 3584 
L 1991 3584 
z
" transform="scale(0.015625)"/>
       <path id="DejaVuSans-64" d="M 2906 2969 
L 2906 4863 
L 3481 4863 
L 3481 0 
L 2906 0 
L 2906 525 
Q 2725 213 2448 61 
Q 2172 -91 1784 -91 
Q 1150 -91 751 415 
Q 353 922 353 1747 
Q 353 2572 751 3078 
Q 1150 3584 1784 3584 
Q 2172 3584 2448 3432 
Q 2725 3281 2906 2969 
z
M 947 1747 
Q 947 1113 1208 752 
Q 1469 391 1925 391 
Q 2381 391 2643 752 
Q 2906 1113 2906 1747 
Q 2906 2381 2643 2742 
Q 2381 3103 1925 3103 
Q 1469 3103 1208 2742 
Q 947 2381 947 1747 
z
" transform="scale(0.015625)"/>
       <path id="DejaVuSans-76" d="M 191 3500 
L 800 3500 
L 1894 563 
L 2988 3500 
L 3597 3500 
L 2284 0 
L 1503 0 
L 191 3500 
z
" transform="scale(0.015625)"/>
       <path id="DejaVuSans-61" d="M 2194 1759 
Q 1497 1759 1228 1600 
Q 959 1441 959 1056 
Q 959 750 1161 570 
Q 1363 391 1709 391 
Q 2188 391 2477 730 
Q 2766 1069 2766 1631 
L 2766 1759 
L 2194 1759 
z
M 3341 1997 
L 3341 0 
L 2766 0 
L 2766 531 
Q 2569 213 2275 61 
Q 1981 -91 1556 -91 
Q 1019 -91 701 211 
Q 384 513 384 1019 
Q 384 1609 779 1909 
Q 1175 2209 1959 2209 
L 2766 2209 
L 2766 2266 
Q 2766 2663 2505 2880 
Q 2244 3097 1772 3097 
Q 1472 3097 1187 3025 
Q 903 2953 641 2809 
L 641 3341 
Q 956 3463 1253 3523 
Q 1550 3584 1831 3584 
Q 2591 3584 2966 3190 
Q 3341 2797 3341 1997 
z
" transform="scale(0.015625)"/>
       <path id="DejaVuSans-72" d="M 2631 2963 
Q 2534 3019 2420 3045 
Q 2306 3072 2169 3072 
Q 1681 3072 1420 2755 
Q 1159 2438 1159 1844 
L 1159 0 
L 581 0 
L 581 3500 
L 1159 3500 
L 1159 2956 
Q 1341 3275 1631 3429 
Q 1922 3584 2338 3584 
Q 2397 3584 2469 3576 
Q 2541 3569 2628 3553 
L 2631 2963 
z
" transform="scale(0.015625)"/>
       <path id="DejaVuSans-6f" d="M 1959 3097 
Q 1497 3097 1228 2736 
Q 959 2375 959 1747 
Q 959 1119 1226 758 
Q 1494 397 1959 397 
Q 2419 397 2687 759 
Q 2956 1122 2956 1747 
Q 2956 2369 2687 2733 
Q 2419 3097 1959 3097 
z
M 1959 3584 
Q 2709 3584 3137 3096 
Q 3566 2609 3566 1747 
Q 3566 888 3137 398 
Q 2709 -91 1959 -91 
Q 1206 -91 779 398 
Q 353 888 353 1747 
Q 353 2609 779 3096 
Q 1206 3584 1959 3584 
z
" transform="scale(0.015625)"/>
       <path id="DejaVuSans-6e" d="M 3513 2113 
L 3513 0 
L 2938 0 
L 2938 2094 
Q 2938 2591 2744 2837 
Q 2550 3084 2163 3084 
Q 1697 3084 1428 2787 
Q 1159 2491 1159 1978 
L 1159 0 
L 581 0 
L 581 3500 
L 1159 3500 
L 1159 2956 
Q 1366 3272 1645 3428 
Q 1925 3584 2291 3584 
Q 2894 3584 3203 3211 
Q 3513 2838 3513 2113 
z
" transform="scale(0.015625)"/>
       <path id="DejaVuSans-66" d="M 2375 4863 
L 2375 4384 
L 1825 4384 
Q 1516 4384 1395 4259 
Q 1275 4134 1275 3809 
L 1275 3500 
L 2222 3500 
L 2222 3053 
L 1275 3053 
L 1275 0 
L 697 0 
L 697 3053 
L 147 3053 
L 147 3500 
L 697 3500 
L 697 3744 
Q 697 4328 969 4595 
Q 1241 4863 1831 4863 
L 2375 4863 
z
" transform="scale(0.015625)"/>
       <path id="DejaVuSans-63" d="M 3122 3366 
L 3122 2828 
Q 2878 2963 2633 3030 
Q 2388 3097 2138 3097 
Q 1578 3097 1268 2742 
Q 959 2388 959 1747 
Q 959 1106 1268 751 
Q 1578 397 2138 397 
Q 2388 397 2633 464 
Q 2878 531 3122 666 
L 3122 134 
Q 2881 22 2623 -34 
Q 2366 -91 2075 -91 
Q 1284 -91 818 406 
Q 353 903 353 1747 
Q 353 2603 823 3093 
Q 1294 3584 2113 3584 
Q 2378 3584 2631 3529 
Q 2884 3475 3122 3366 
z
" transform="scale(0.015625)"/>
       <path id="DejaVuSans-70" d="M 1159 525 
L 1159 -1331 
L 581 -1331 
L 581 3500 
L 1159 3500 
L 1159 2969 
Q 1341 3281 1617 3432 
Q 1894 3584 2278 3584 
Q 2916 3584 3314 3078 
Q 3713 2572 3713 1747 
Q 3713 922 3314 415 
Q 2916 -91 2278 -91 
Q 1894 -91 1617 61 
Q 1341 213 1159 525 
z
M 3116 1747 
Q 3116 2381 2855 2742 
Q 2594 3103 2138 3103 
Q 1681 3103 1420 2742 
Q 1159 2381 1159 1747 
Q 1159 1113 1420 752 
Q 1681 391 2138 391 
Q 2594 391 2855 752 
Q 3116 1113 3116 1747 
z
" transform="scale(0.015625)"/>
      </defs>
      <use xlink:href="#DejaVuSans-41"/>
      <use xlink:href="#DejaVuSans-6c" x="68.408203"/>
      <use xlink:href="#DejaVuSans-74" x="96.191406"/>
      <use xlink:href="#DejaVuSans-69" x="135.400391"/>
      <use xlink:href="#DejaVuSans-74" x="163.183594"/>
      <use xlink:href="#DejaVuSans-75" x="202.392578"/>
      <use xlink:href="#DejaVuSans-64" x="265.771484"/>
      <use xlink:href="#DejaVuSans-65" x="329.248047"/>
      <use xlink:href="#DejaVuSans-20" x="390.771484"/>
      <use xlink:href="#DejaVuSans-76" x="422.558594"/>
      <use xlink:href="#DejaVuSans-61" x="481.738281"/>
      <use xlink:href="#DejaVuSans-72" x="543.017578"/>
      <use xlink:href="#DejaVuSans-69" x="584.130859"/>
      <use xlink:href="#DejaVuSans-61" x="611.914062"/>
      <use xlink:href="#DejaVuSans-74" x="673.193359"/>
      <use xlink:href="#DejaVuSans-69" x="712.402344"/>
      <use xlink:href="#DejaVuSans-6f" x="740.185547"/>
      <use xlink:href="#DejaVuSans-6e" x="801.367188"/>
      <use xlink:href="#DejaVuSans-20" x="864.746094"/>
      <use xlink:href="#DejaVuSans-66" x="896.533203"/>
      <use xlink:href="#DejaVuSans-72" x="931.738281"/>
      <use xlink:href="#DejaVuSans-6f" x="970.601562"/>
      <use xlink:href="#DejaVuSans-6d" x="1031.783203"/>
      <use xlink:href="#DejaVuSans-20" x="1129.195312"/>
      <use xlink:href="#DejaVuSans-72" x="1160.982422"/>
      <use xlink:href="#DejaVuSans-65" x="1199.845703"/>
      <use xlink:href="#DejaVuSans-66" x="1261.369141"/>
      <use xlink:href="#DejaVuSans-65" x="1296.574219"/>
      <use xlink:href="#DejaVuSans-72" x="1358.097656"/>
      <use xlink:href="#DejaVuSans-65" x="1396.960938"/>
      <use xlink:href="#DejaVuSans-6e" x="1458.484375"/>
      <use xlink:href="#DejaVuSans-63" x="1521.863281"/>
      <use xlink:href="#DejaVuSans-65" x="1576.84375"/>
      <use xlink:href="#DejaVuSans-20" x="1638.367188"/>
      <use xlink:href="#DejaVuSans-70" x="1670.154297"/>
      <use xlink:href="#DejaVuSans-6f" x="1733.630859"/>
      <use xlink:href="#DejaVuSans-69" x="1794.8125"/>
      <use xlink:href="#DejaVuSans-6e" x="1822.595703"/>
      <use xlink:href="#DejaVuSans-74" x="1885.974609"/>
      <use xlink:href="#DejaVuSans-20" x="1925.183594"/>
      <use xlink:href="#DejaVuSans-5b" x="1956.970703"/>
      <use xlink:href="#DejaVuSans-6d" x="1995.984375"/>
      <use xlink:href="#DejaVuSans-5d" x="2093.396484"/>
     </g>
    </g>
   </g>
   <g id="line2d_27">
    <path d="M 73.832727 174.528 
L 74.157707 155.52 
L 74.482686 174.528 
L 74.807666 155.52 
L 75.132645 155.52 
L 75.457625 174.528 
L 75.782604 155.52 
L 77.732482 155.52 
L 78.057461 174.528 
L 78.382441 155.52 
L 78.70742 155.52 
L 79.0324 174.528 
L 80.007338 174.528 
L 80.332318 155.52 
L 80.657297 174.528 
L 80.982277 155.52 
L 81.957215 155.52 
L 82.282195 174.528 
L 82.607174 155.52 
L 82.932154 155.52 
L 83.257133 174.528 
L 83.582113 155.52 
L 83.907093 174.528 
L 84.232072 174.528 
L 84.557052 155.52 
L 84.882031 174.528 
L 85.207011 155.52 
L 85.53199 174.528 
L 85.85697 155.52 
L 86.181949 174.528 
L 87.156888 174.528 
L 87.481867 193.536 
L 87.806847 174.528 
L 88.131826 193.536 
L 88.456806 174.528 
L 88.781785 193.536 
L 89.106765 174.528 
L 89.431744 193.536 
L 89.756724 193.536 
L 90.081704 174.528 
L 90.406683 193.536 
L 90.731663 174.528 
L 91.056642 193.536 
L 91.381622 174.528 
L 91.706601 193.536 
L 92.031581 193.536 
L 92.35656 174.528 
L 92.68154 193.536 
L 93.006519 174.528 
L 93.331499 193.536 
L 93.656478 174.528 
L 93.981458 174.528 
L 94.306437 193.536 
L 94.631417 155.52 
L 94.956396 174.528 
L 95.931335 174.528 
L 96.256314 155.52 
L 96.581294 174.528 
L 97.231253 174.528 
L 97.556233 193.536 
L 97.881212 155.52 
L 98.206192 193.536 
L 98.531171 155.52 
L 99.18113 193.536 
L 99.50611 174.528 
L 101.131007 174.528 
L 101.455987 155.52 
L 101.780966 193.536 
L 102.105946 174.528 
L 102.430925 174.528 
L 103.080885 212.544 
L 103.405864 193.536 
L 105.030762 193.536 
L 105.355741 212.544 
L 106.33068 212.544 
L 106.655659 174.528 
L 106.980639 193.536 
L 107.630598 193.536 
L 107.955577 174.528 
L 108.280557 193.536 
L 108.605536 193.536 
L 108.930516 174.528 
L 109.255495 174.528 
L 109.580475 155.52 
L 109.905455 174.528 
L 110.230434 174.528 
L 110.555414 155.52 
L 110.880393 174.528 
L 111.205373 155.52 
L 111.530352 117.504 
L 112.180311 155.52 
L 112.505291 136.512 
L 112.83027 136.512 
L 113.15525 155.52 
L 113.480229 136.512 
L 113.805209 155.52 
L 114.780147 155.52 
L 115.105127 136.512 
L 115.755086 136.512 
L 116.080066 155.52 
L 116.405045 136.512 
L 117.055004 174.528 
L 117.379984 155.52 
L 118.029943 155.52 
L 118.354922 136.512 
L 118.679902 193.536 
L 119.329861 155.52 
L 119.97982 155.52 
L 120.304799 174.528 
L 120.954758 174.528 
L 121.279738 155.52 
L 121.604717 174.528 
L 121.929697 136.512 
L 122.254676 155.52 
L 122.579656 155.52 
L 122.904636 174.528 
L 123.229615 174.528 
L 123.554595 155.52 
L 123.879574 155.52 
L 124.204554 136.512 
L 124.529533 136.512 
L 124.854513 155.52 
L 126.47941 155.52 
L 126.80439 136.512 
L 127.129369 155.52 
L 128.104308 155.52 
L 128.429287 136.512 
L 128.754267 136.512 
L 129.079247 155.52 
L 129.729206 155.52 
L 130.054185 136.512 
L 130.704144 174.528 
L 131.029124 174.528 
L 131.354103 155.52 
L 131.679083 155.52 
L 132.004062 136.512 
L 132.329042 136.512 
L 132.654021 155.52 
L 132.979001 79.488 
L 133.30398 136.512 
L 133.62896 136.512 
L 133.953939 117.504 
L 134.928878 174.528 
L 135.253857 136.512 
L 135.903817 174.528 
L 136.228796 155.52 
L 136.553776 174.528 
L 136.878755 155.52 
L 137.528714 193.536 
L 137.853694 174.528 
L 138.178673 193.536 
L 138.503653 174.528 
L 138.828632 193.536 
L 141.428468 193.536 
L 142.078428 155.52 
L 142.403407 193.536 
L 142.728387 174.528 
L 143.703325 174.528 
L 144.028305 193.536 
L 144.353284 174.528 
L 144.678264 174.528 
L 145.003243 193.536 
L 145.328223 174.528 
L 145.653202 193.536 
L 145.978182 193.536 
L 146.303161 174.528 
L 146.628141 193.536 
L 146.95312 174.528 
L 147.2781 193.536 
L 147.603079 174.528 
L 148.902998 174.528 
L 149.227977 155.52 
L 149.552957 174.528 
L 150.527895 174.528 
L 150.852875 155.52 
L 151.177854 155.52 
L 151.502834 174.528 
L 151.827813 155.52 
L 152.152793 174.528 
L 153.127731 174.528 
L 153.452711 155.52 
L 153.77769 174.528 
L 154.10267 155.52 
L 154.427649 155.52 
L 154.752629 174.528 
L 155.077609 155.52 
L 158.977363 155.52 
L 159.302342 174.528 
L 159.627322 155.52 
L 160.60226 155.52 
L 160.92724 174.528 
L 161.577199 136.512 
L 161.902179 155.52 
L 162.227158 155.52 
L 162.552138 136.512 
L 162.877117 155.52 
L 163.202097 136.512 
L 163.527076 155.52 
L 164.177035 155.52 
L 164.502015 136.512 
L 164.826994 155.52 
L 165.801933 155.52 
L 166.126912 174.528 
L 166.451892 155.52 
L 166.776871 174.528 
L 167.75181 174.528 
L 168.07679 193.536 
L 168.401769 174.528 
L 170.026667 174.528 
L 170.351646 193.536 
L 170.676626 174.528 
L 171.976544 174.528 
L 172.301523 155.52 
L 172.626503 174.528 
L 173.276462 174.528 
L 173.601441 155.52 
L 173.926421 174.528 
L 174.2514 155.52 
L 174.57638 155.52 
L 174.90136 174.528 
L 175.226339 155.52 
L 175.551319 155.52 
L 175.876298 174.528 
L 176.201278 174.528 
L 176.526257 155.52 
L 176.851237 174.528 
L 177.501196 174.528 
L 177.826175 193.536 
L 178.151155 193.536 
L 178.476134 174.528 
L 178.801114 174.528 
L 179.126093 212.544 
L 179.451073 193.536 
L 179.776052 193.536 
L 180.101032 174.528 
L 180.426011 193.536 
L 180.750991 155.52 
L 181.075971 212.544 
L 181.40095 174.528 
L 181.72593 193.536 
L 182.375889 193.536 
L 182.700868 174.528 
L 183.350827 174.528 
L 183.675807 193.536 
L 184.325766 193.536 
L 184.650745 212.544 
L 184.975725 174.528 
L 185.300704 193.536 
L 185.625684 193.536 
L 185.950663 212.544 
L 186.275643 193.536 
L 186.600622 212.544 
L 186.925602 193.536 
L 187.575561 193.536 
L 187.900541 212.544 
L 188.22552 212.544 
L 188.5505 250.56 
L 188.875479 231.552 
L 189.850418 231.552 
L 190.175397 212.544 
L 191.150336 212.544 
L 191.475315 193.536 
L 192.450254 193.536 
L 192.775233 212.544 
L 193.100213 155.52 
L 193.425192 193.536 
L 193.750172 174.528 
L 194.075152 174.528 
L 194.400131 155.52 
L 194.725111 155.52 
L 195.05009 174.528 
L 195.37507 155.52 
L 195.700049 155.52 
L 196.025029 174.528 
L 196.350008 155.52 
L 196.674988 155.52 
L 196.999967 174.528 
L 197.324947 155.52 
L 197.649926 155.52 
L 197.974906 174.528 
L 198.624865 174.528 
L 198.949844 155.52 
L 199.599803 193.536 
L 199.924783 174.528 
L 200.574742 174.528 
L 200.899722 193.536 
L 201.224701 193.536 
L 201.549681 174.528 
L 201.87466 193.536 
L 204.149517 193.536 
L 204.474496 212.544 
L 205.124455 174.528 
L 205.449435 193.536 
L 205.774414 193.536 
L 206.099394 174.528 
L 206.424373 193.536 
L 206.749353 193.536 
L 207.074333 174.528 
L 207.724292 174.528 
L 208.049271 155.52 
L 208.374251 174.528 
L 209.674169 174.528 
L 209.999148 193.536 
L 210.324128 174.528 
L 210.649107 174.528 
L 210.974087 193.536 
L 211.299066 193.536 
L 211.624046 174.528 
L 211.949025 193.536 
L 212.923964 193.536 
L 213.248943 174.528 
L 213.573923 193.536 
L 213.898903 174.528 
L 214.223882 193.536 
L 214.873841 155.52 
L 215.198821 174.528 
L 215.84878 174.528 
L 216.173759 155.52 
L 216.498739 155.52 
L 216.823718 174.528 
L 217.473677 136.512 
L 217.798657 155.52 
L 218.123636 155.52 
L 218.448616 174.528 
L 218.773595 174.528 
L 219.098575 155.52 
L 219.423554 174.528 
L 220.398493 174.528 
L 220.723473 193.536 
L 221.048452 174.528 
L 221.373432 193.536 
L 221.698411 193.536 
L 222.023391 174.528 
L 224.298247 174.528 
L 224.623227 155.52 
L 224.948206 174.528 
L 225.273186 155.52 
L 225.598165 174.528 
L 225.923145 155.52 
L 226.248124 174.528 
L 226.573104 155.52 
L 226.898084 174.528 
L 227.548043 174.528 
L 227.873022 155.52 
L 228.198002 155.52 
L 228.522981 174.528 
L 231.122817 174.528 
L 231.447797 193.536 
L 231.772776 174.528 
L 232.422735 174.528 
L 232.747715 193.536 
L 233.072695 193.536 
L 233.397674 174.528 
L 233.722654 193.536 
L 234.047633 174.528 
L 234.372613 193.536 
L 234.697592 174.528 
L 235.672531 174.528 
L 235.99751 155.52 
L 236.32249 155.52 
L 236.647469 174.528 
L 236.972449 155.52 
L 237.947387 155.52 
L 238.272367 136.512 
L 238.597346 155.52 
L 238.922326 136.512 
L 239.247305 155.52 
L 239.572285 155.52 
L 239.897265 174.528 
L 240.222244 155.52 
L 240.547224 155.52 
L 240.872203 174.528 
L 241.197183 155.52 
L 241.522162 155.52 
L 241.847142 174.528 
L 242.172121 155.52 
L 242.497101 174.528 
L 242.82208 155.52 
L 243.14706 174.528 
L 243.472039 174.528 
L 243.797019 155.52 
L 244.121998 174.528 
L 244.446978 155.52 
L 244.771957 174.528 
L 245.421916 174.528 
L 245.746896 155.52 
L 246.071876 174.528 
L 246.396855 174.528 
L 246.721835 155.52 
L 247.046814 174.528 
L 247.371794 174.528 
L 247.696773 155.52 
L 248.021753 174.528 
L 248.346732 174.528 
L 248.671712 155.52 
L 248.996691 174.528 
L 249.321671 174.528 
L 249.64665 155.52 
L 250.296609 193.536 
L 250.946568 155.52 
L 251.271548 174.528 
L 251.596527 155.52 
L 252.246486 193.536 
L 252.571466 174.528 
L 252.896446 174.528 
L 253.221425 193.536 
L 253.546405 174.528 
L 254.196364 212.544 
L 254.521343 193.536 
L 254.846323 193.536 
L 255.171302 174.528 
L 255.496282 174.528 
L 255.821261 193.536 
L 258.096118 193.536 
L 258.421097 174.528 
L 258.746077 193.536 
L 259.071057 193.536 
L 259.396036 174.528 
L 259.721016 193.536 
L 260.045995 193.536 
L 260.370975 174.528 
L 261.995872 174.528 
L 262.320852 155.52 
L 262.645831 174.528 
L 263.29579 174.528 
L 263.62077 155.52 
L 263.945749 155.52 
L 264.270729 174.528 
L 264.595708 174.528 
L 264.920688 155.52 
L 265.245667 174.528 
L 265.570647 174.528 
L 265.895627 155.52 
L 266.220606 174.528 
L 266.545586 174.528 
L 266.870565 155.52 
L 267.195545 174.528 
L 267.845504 174.528 
L 268.170483 155.52 
L 268.495463 174.528 
L 269.145422 174.528 
L 269.470401 155.52 
L 269.795381 155.52 
L 270.12036 174.528 
L 270.44534 155.52 
L 271.095299 155.52 
L 271.420278 136.512 
L 271.745258 155.52 
L 272.070238 136.512 
L 272.395217 155.52 
L 272.720197 136.512 
L 273.045176 174.528 
L 273.370156 155.52 
L 274.670074 155.52 
L 274.995053 136.512 
L 275.969992 136.512 
L 276.294971 155.52 
L 276.619951 136.512 
L 276.94493 155.52 
L 277.26991 155.52 
L 277.594889 174.528 
L 277.919869 136.512 
L 278.244848 174.528 
L 278.569828 155.52 
L 279.219787 155.52 
L 279.544767 136.512 
L 281.819623 136.512 
L 282.144603 155.52 
L 282.469582 136.512 
L 283.444521 136.512 
L 283.7695 155.52 
L 284.09448 136.512 
L 284.419459 136.512 
L 284.744439 117.504 
L 285.069419 155.52 
L 285.394398 136.512 
L 285.719378 155.52 
L 286.044357 136.512 
L 286.694316 174.528 
L 287.019296 174.528 
L 287.669255 136.512 
L 287.994234 155.52 
L 288.319214 136.512 
L 288.644193 155.52 
L 288.969173 136.512 
L 289.294152 155.52 
L 290.269091 155.52 
L 290.59407 136.512 
L 290.91905 174.528 
L 291.244029 155.52 
L 291.569009 174.528 
L 292.543948 174.528 
L 292.868927 155.52 
L 293.518886 193.536 
L 294.168845 155.52 
L 294.493825 174.528 
L 295.143784 174.528 
L 295.468763 155.52 
L 296.443702 155.52 
L 296.768681 136.512 
L 297.74362 193.536 
L 298.393579 193.536 
L 299.043538 231.552 
L 299.368518 155.52 
L 299.693497 193.536 
L 300.018477 212.544 
L 300.343456 174.528 
L 300.668436 212.544 
L 300.993415 174.528 
L 301.318395 231.552 
L 301.643374 250.56 
L 301.968354 155.52 
L 302.293333 193.536 
L 302.943292 193.536 
L 303.268272 174.528 
L 303.593251 174.528 
L 303.918231 193.536 
L 304.24321 193.536 
L 304.56819 174.528 
L 304.89317 174.528 
L 305.218149 193.536 
L 305.543129 174.528 
L 305.868108 174.528 
L 306.193088 193.536 
L 306.518067 193.536 
L 306.843047 174.528 
L 307.168026 174.528 
L 307.493006 155.52 
L 307.817985 212.544 
L 308.142965 174.528 
L 308.467944 155.52 
L 308.792924 193.536 
L 309.117903 193.536 
L 309.442883 174.528 
L 309.767862 174.528 
L 310.092842 231.552 
L 310.417821 174.528 
L 310.742801 193.536 
L 311.067781 193.536 
L 311.39276 212.544 
L 311.71774 212.544 
L 312.042719 231.552 
L 312.367699 193.536 
L 312.692678 250.56 
L 313.342637 174.528 
L 313.667617 231.552 
L 313.992596 212.544 
L 314.317576 212.544 
L 314.642555 307.584 
L 314.967535 212.544 
L 315.292514 212.544 
L 315.617494 155.52 
L 315.942473 250.56 
L 316.267453 193.536 
L 316.592432 231.552 
L 316.917412 212.544 
L 317.242391 250.56 
L 317.567371 231.552 
L 317.892351 174.528 
L 318.21733 212.544 
L 318.54231 212.544 
L 318.867289 193.536 
L 319.192269 155.52 
L 319.517248 212.544 
L 319.842228 193.536 
L 320.167207 136.512 
L 320.492187 174.528 
L 320.817166 136.512 
L 321.142146 212.544 
L 321.792105 174.528 
L 322.117084 212.544 
L 322.442064 155.52 
L 322.767043 136.512 
L 323.092023 212.544 
L 323.417002 174.528 
L 323.741982 174.528 
L 324.066962 231.552 
L 324.391941 193.536 
L 324.716921 212.544 
L 325.0419 212.544 
L 325.36688 155.52 
L 325.691859 136.512 
L 326.341818 174.528 
L 326.991777 136.512 
L 327.316757 155.52 
L 327.641736 155.52 
L 327.966716 117.504 
L 328.291695 117.504 
L 328.616675 155.52 
L 329.266634 117.504 
L 329.591613 117.504 
L 329.916593 155.52 
L 330.566552 117.504 
L 330.891532 174.528 
L 331.216511 98.496 
L 331.541491 155.52 
L 331.86647 155.52 
L 332.19145 117.504 
L 332.516429 136.512 
L 332.841409 136.512 
L 333.166388 155.52 
L 334.466306 155.52 
L 334.791286 136.512 
L 335.441245 174.528 
L 335.766224 155.52 
L 336.091204 155.52 
L 336.416183 174.528 
L 336.741163 155.52 
L 337.066143 174.528 
L 337.716102 174.528 
L 338.041081 155.52 
L 338.366061 174.528 
L 339.01602 174.528 
L 339.340999 193.536 
L 339.665979 174.528 
L 339.990958 193.536 
L 340.315938 174.528 
L 340.640917 193.536 
L 340.965897 174.528 
L 341.290876 193.536 
L 341.940835 193.536 
L 342.265815 174.528 
L 342.590794 193.536 
L 342.915774 174.528 
L 343.240753 193.536 
L 343.565733 174.528 
L 345.190631 174.528 
L 345.51561 155.52 
L 346.165569 193.536 
L 346.490549 174.528 
L 346.815528 174.528 
L 347.140508 193.536 
L 347.465487 193.536 
L 347.790467 174.528 
L 348.440426 174.528 
L 348.765405 193.536 
L 349.090385 174.528 
L 349.415364 212.544 
L 350.065324 174.528 
L 350.390303 174.528 
L 350.715283 193.536 
L 351.040262 174.528 
L 351.365242 193.536 
L 351.690221 193.536 
L 352.015201 174.528 
L 352.66516 174.528 
L 352.990139 193.536 
L 353.315119 193.536 
L 353.640098 174.528 
L 353.965078 193.536 
L 354.290057 193.536 
L 354.615037 212.544 
L 354.940016 193.536 
L 355.264996 193.536 
L 355.589975 212.544 
L 355.914955 193.536 
L 356.239934 212.544 
L 356.564914 193.536 
L 356.889894 193.536 
L 357.214873 212.544 
L 357.539853 212.544 
L 357.864832 193.536 
L 358.189812 193.536 
L 358.514791 212.544 
L 359.16475 174.528 
L 359.48973 193.536 
L 360.139689 193.536 
L 360.464668 174.528 
L 360.789648 174.528 
L 361.114627 193.536 
L 361.439607 174.528 
L 362.414545 174.528 
L 362.739525 193.536 
L 363.389484 155.52 
L 363.714464 174.528 
L 364.039443 174.528 
L 364.364423 155.52 
L 365.339361 155.52 
L 365.664341 136.512 
L 365.98932 174.528 
L 366.3143 136.512 
L 366.639279 155.52 
L 366.964259 155.52 
L 367.289238 136.512 
L 367.614218 155.52 
L 367.939197 155.52 
L 368.264177 136.512 
L 368.914136 136.512 
L 369.239115 155.52 
L 369.564095 136.512 
L 369.889075 155.52 
L 370.864013 155.52 
L 371.188993 174.528 
L 371.513972 155.52 
L 371.838952 174.528 
L 372.488911 174.528 
L 372.81389 155.52 
L 373.13887 174.528 
L 373.788829 174.528 
L 374.113808 155.52 
L 374.438788 174.528 
L 374.763767 155.52 
L 375.088747 193.536 
L 375.413726 174.528 
L 375.738706 174.528 
L 376.063686 193.536 
L 376.388665 193.536 
L 376.713645 212.544 
L 377.038624 212.544 
L 377.363604 193.536 
L 377.688583 212.544 
L 378.988501 212.544 
L 379.313481 193.536 
L 379.63846 212.544 
L 379.96344 174.528 
L 380.288419 193.536 
L 380.938378 193.536 
L 381.263358 174.528 
L 381.588337 193.536 
L 381.913317 155.52 
L 382.238296 174.528 
L 382.563276 174.528 
L 383.213235 212.544 
L 383.863194 174.528 
L 384.188174 193.536 
L 384.513153 174.528 
L 384.838133 212.544 
L 385.163112 193.536 
L 387.762948 193.536 
L 388.087928 212.544 
L 388.737887 174.528 
L 389.062867 193.536 
L 389.712826 193.536 
L 390.037805 174.528 
L 391.987682 174.528 
L 392.312662 155.52 
L 392.637641 174.528 
L 392.962621 155.52 
L 393.2876 155.52 
L 393.61258 174.528 
L 393.937559 174.528 
L 394.262539 155.52 
L 395.887437 155.52 
L 396.212416 136.512 
L 396.537396 174.528 
L 396.862375 155.52 
L 397.837314 155.52 
L 398.162293 136.512 
L 398.487273 136.512 
L 398.487273 136.512 
" clip-path="url(#pb051f1f2e4)" style="fill: none; stroke: #1f77b4; stroke-width: 1.5; stroke-linecap: square"/>
   </g>
   <g id="line2d_28">
    <path d="M 73.832727 174.528 
L 74.807666 187.9524 
L 75.132645 179.029665 
L 75.457625 175.617729 
L 75.782604 159.674769 
L 76.107584 178.023951 
L 76.432563 170.390529 
L 76.757543 171.730593 
L 77.082523 187.870095 
L 77.407502 165.941136 
L 77.732482 166.582656 
L 78.057461 173.604591 
L 78.382441 187.562736 
L 78.70742 174.220641 
L 79.0324 150.500367 
L 79.357379 175.365873 
L 79.682359 170.530047 
L 80.007338 167.927472 
L 80.332318 166.612689 
L 80.657297 165.999681 
L 80.982277 186.615567 
L 81.307256 170.593344 
L 81.632236 184.888881 
L 81.957215 191.180529 
L 82.282195 181.690785 
L 82.607174 194.195007 
L 82.932154 184.599009 
L 83.257133 154.797696 
L 83.582113 183.083121 
L 83.907093 169.630209 
L 84.232072 161.656353 
L 84.557052 169.570143 
L 84.882031 190.581777 
L 85.207011 166.831281 
L 85.53199 162.806337 
L 85.85697 162.636975 
L 86.181949 176.487345 
L 86.831908 167.197185 
L 87.156888 179.563599 
L 87.481867 180.710352 
L 87.806847 194.638464 
L 88.131826 166.3308 
L 88.781785 189.129375 
L 89.431744 173.688417 
L 89.756724 178.695504 
L 90.081704 177.467967 
L 90.406683 182.55888 
L 90.731663 183.591585 
L 91.056642 153.021969 
L 91.381622 176.151663 
L 91.706601 163.569888 
L 92.031581 195.233985 
L 92.35656 177.746625 
L 92.68154 168.323409 
L 93.006519 168.347169 
L 93.331499 188.845776 
L 93.656478 194.215536 
L 93.981458 180.423711 
L 94.306437 158.973183 
L 94.631417 175.700223 
L 94.956396 167.086368 
L 95.606355 182.859777 
L 95.931335 159.733503 
L 96.256314 176.961024 
L 96.581294 166.248495 
L 96.906274 172.738017 
L 97.231253 171.953937 
L 97.556233 164.624832 
L 97.881212 165.773295 
L 98.206192 174.21912 
L 98.531171 206.748081 
L 98.856151 176.203935 
L 99.18113 180.597825 
L 99.50611 177.800607 
L 99.831089 168.84936 
L 100.156069 166.696704 
L 100.481048 179.674416 
L 100.806028 179.704449 
L 101.131007 168.681519 
L 101.455987 168.990399 
L 101.780966 160.824753 
L 102.105946 187.480431 
L 102.430925 171.397953 
L 103.080885 178.442127 
L 103.730844 168.54048 
L 104.055823 181.407375 
L 104.380803 168.233121 
L 104.705782 180.596304 
L 105.030762 172.457649 
L 105.355741 174.0528 
L 106.0057 178.891857 
L 106.33068 175.422897 
L 106.655659 159.36912 
L 106.980639 182.164464 
L 107.305618 179.843967 
L 107.630598 181.635471 
L 107.955577 177.269904 
L 108.280557 179.173935 
L 108.605536 157.080177 
L 108.930516 168.824079 
L 109.255495 186.580593 
L 109.580475 173.099169 
L 109.905455 169.853553 
L 110.230434 177.182847 
L 110.555414 165.798576 
L 110.880393 177.437745 
L 111.205373 193.917681 
L 111.530352 154.903761 
L 111.855332 181.779552 
L 112.180311 183.327183 
L 112.505291 169.207281 
L 112.83027 187.128783 
L 113.15525 171.070065 
L 113.480229 173.360529 
L 113.805209 173.405007 
L 114.130188 171.950895 
L 114.455168 177.197103 
L 114.780147 177.223905 
L 115.105127 172.357857 
L 115.430106 174.768831 
L 115.755086 172.028448 
L 116.080066 176.200704 
L 116.405045 187.972929 
L 116.730025 177.713361 
L 117.055004 182.552607 
L 117.379984 164.319183 
L 117.704963 171.087552 
L 118.029943 167.341455 
L 118.354922 169.720497 
L 118.679902 173.637855 
L 119.004881 175.234527 
L 119.329861 170.20368 
L 119.65484 185.118687 
L 119.97982 187.865343 
L 120.304799 168.446961 
L 120.629779 192.618864 
L 120.954758 174.795633 
L 121.279738 175.004721 
L 121.604717 189.732879 
L 121.929697 170.699409 
L 122.254676 168.640272 
L 122.579656 181.104768 
L 122.904636 186.784929 
L 123.229615 168.440688 
L 123.554595 173.016864 
L 123.879574 158.22864 
L 124.204554 176.612607 
L 124.529533 172.871073 
L 124.854513 160.683903 
L 125.179492 181.648017 
L 125.504472 180.837135 
L 125.829451 187.046289 
L 126.154431 183.965472 
L 126.47941 182.989791 
L 126.80439 184.315599 
L 127.129369 178.785792 
L 127.779328 177.477471 
L 128.104308 160.219728 
L 128.429287 179.081937 
L 128.754267 165.160287 
L 129.079247 165.198303 
L 129.404226 190.871649 
L 129.729206 176.064417 
L 130.379165 172.324593 
L 131.029124 200.931633 
L 131.354103 164.504511 
L 131.679083 170.016831 
L 132.004062 178.440417 
L 132.329042 172.215297 
L 132.654021 168.49296 
L 132.979001 191.898081 
L 133.30398 166.871007 
L 133.62896 169.638192 
L 133.953939 175.671711 
L 134.278919 177.585057 
L 134.603898 166.871007 
L 134.928878 165.538737 
L 135.253857 191.375361 
L 135.578837 179.37504 
L 135.903817 176.275215 
L 136.228796 175.152033 
L 136.553776 182.807505 
L 136.878755 179.728209 
L 137.203735 184.595967 
L 137.528714 172.426095 
L 138.178673 169.826751 
L 138.503653 181.37088 
L 139.478591 164.00232 
L 139.803571 186.596559 
L 140.12855 164.502801 
L 140.45353 179.129457 
L 140.778509 169.37208 
L 141.103489 167.129136 
L 141.428468 178.153776 
L 141.753448 180.468 
L 142.078428 177.059295 
L 142.403407 175.581423 
L 142.728387 171.668817 
L 143.053366 172.597167 
L 143.378346 178.608447 
L 143.703325 162.863361 
L 144.353284 184.481919 
L 145.003243 170.330463 
L 145.328223 168.261633 
L 145.653202 181.602207 
L 145.978182 180.262143 
L 146.303161 158.920911 
L 146.628141 174.136815 
L 146.95312 177.550272 
L 147.2781 178.080975 
L 147.603079 164.713599 
L 147.928059 178.865055 
L 148.253038 187.841583 
L 148.902998 165.385152 
L 149.227977 181.158561 
L 149.552957 180.8244 
L 149.877936 168.515199 
L 150.202916 180.683361 
L 150.527895 179.704449 
L 150.852875 170.446032 
L 151.177854 165.245823 
L 151.502834 179.034417 
L 151.827813 172.880577 
L 152.152793 177.128865 
L 152.477772 189.799407 
L 152.802752 182.948544 
L 153.127731 168.8256 
L 153.452711 175.505391 
L 153.77769 163.14696 
L 154.10267 167.680368 
L 154.427649 186.647121 
L 154.752629 187.006752 
L 155.077609 167.203647 
L 155.402588 169.492401 
L 155.727568 182.664945 
L 156.052547 183.784896 
L 156.377527 187.697313 
L 156.702506 165.462705 
L 157.027486 176.365503 
L 157.352465 191.61144 
L 157.677445 161.407728 
L 158.002424 175.389633 
L 158.327404 180.590031 
L 158.652383 169.185231 
L 158.977363 183.811887 
L 159.302342 169.017201 
L 159.627322 181.854063 
L 159.952301 166.750497 
L 160.277281 168.710031 
L 160.60226 166.918527 
L 160.92724 186.219441 
L 161.252219 168.06528 
L 161.577199 184.313889 
L 161.902179 179.476353 
L 162.227158 158.976225 
L 162.552138 170.639343 
L 162.877117 173.073888 
L 163.202097 177.491727 
L 163.527076 176.178465 
L 163.852056 178.779519 
L 164.177035 164.431521 
L 164.502015 160.850223 
L 164.826994 172.570176 
L 165.151974 172.094976 
L 165.476953 174.863871 
L 165.801933 174.528 
L 166.126912 176.290992 
L 166.451892 181.827072 
L 167.101851 180.233631 
L 167.42683 177.604065 
L 168.07679 164.935233 
L 168.401769 164.124351 
L 168.726749 179.89776 
L 169.051728 179.756721 
L 169.376708 177.661089 
L 169.701687 180.429984 
L 170.026667 169.996113 
L 170.351646 189.352719 
L 171.001605 155.201616 
L 171.326585 183.507759 
L 171.651564 180.708831 
L 171.976544 181.828593 
L 172.301523 175.646241 
L 172.626503 157.604607 
L 173.276462 185.687217 
L 173.601441 159.676479 
L 173.926421 178.891857 
L 174.2514 180.821169 
L 174.57638 179.842257 
L 174.90136 173.830977 
L 175.226339 188.934543 
L 175.551319 172.658943 
L 175.876298 170.895951 
L 176.201278 183.282705 
L 176.526257 165.529233 
L 177.176216 187.622991 
L 177.501196 191.655729 
L 177.826175 164.197152 
L 178.151155 166.535136 
L 178.476134 183.094335 
L 178.801114 162.62424 
L 179.126093 169.806033 
L 179.451073 164.914704 
L 179.776052 170.759664 
L 180.101032 185.240529 
L 180.426011 170.783424 
L 180.750991 182.661903 
L 181.075971 186.718401 
L 181.40095 161.692848 
L 181.72593 165.248865 
L 182.050909 186.07536 
L 182.375889 179.894529 
L 182.700868 163.0044 
L 183.025848 162.882369 
L 183.350827 202.724847 
L 183.675807 173.477808 
L 184.000786 171.857376 
L 184.325766 172.454607 
L 184.650745 183.525057 
L 184.975725 174.410721 
L 185.300704 177.347457 
L 185.625684 166.134447 
L 185.950663 179.138961 
L 186.275643 165.939615 
L 186.600622 183.504528 
L 186.925602 171.786096 
L 187.575561 165.324897 
L 188.22552 182.695167 
L 188.5505 174.388671 
L 188.875479 172.457649 
L 189.200459 182.834496 
L 189.525438 168.711552 
L 189.850418 164.933712 
L 190.175397 171.955647 
L 190.500377 175.842783 
L 190.825356 186.080112 
L 191.150336 174.893904 
L 191.475315 167.89896 
L 191.800295 174.360159 
L 192.125274 158.417199 
L 192.450254 176.653665 
L 192.775233 178.277328 
L 193.100213 173.686896 
L 193.425192 171.451935 
L 193.750172 180.710352 
L 194.075152 168.681519 
L 194.400131 179.395569 
L 194.725111 181.351872 
L 195.05009 165.774816 
L 195.37507 188.680977 
L 195.700049 169.128207 
L 196.025029 176.679135 
L 196.350008 174.360159 
L 196.674988 181.103247 
L 196.999967 175.964625 
L 197.324947 184.082751 
L 197.649926 181.324881 
L 197.974906 157.640913 
L 198.299885 175.850577 
L 198.624865 182.657151 
L 199.274824 164.341233 
L 199.599803 182.398833 
L 199.924783 178.031745 
L 200.249762 183.084831 
L 200.574742 170.088111 
L 200.899722 172.224801 
L 201.224701 147.356064 
L 202.19964 189.927711 
L 202.524619 182.145456 
L 202.849599 182.161233 
L 203.499558 161.711856 
L 203.824537 182.837727 
L 204.149517 182.508129 
L 204.474496 164.941695 
L 204.799476 174.046527 
L 205.124455 168.022512 
L 205.449435 178.071471 
L 205.774414 172.559151 
L 206.099394 180.688113 
L 206.424373 176.631615 
L 206.749353 168.534207 
L 207.074333 166.099473 
L 207.399312 185.9328 
L 208.049271 171.664065 
L 208.374251 174.412431 
L 208.69923 189.533295 
L 209.349189 156.679488 
L 209.999148 178.253568 
L 210.649107 184.410639 
L 210.974087 196.748352 
L 211.299066 185.71896 
L 211.624046 154.526832 
L 211.949025 177.789393 
L 212.274005 167.558337 
L 212.598984 172.921824 
L 212.923964 170.82144 
L 213.248943 170.636112 
L 213.573923 197.131743 
L 213.898903 174.547008 
L 214.223882 179.745696 
L 214.548862 177.477471 
L 214.873841 173.902257 
L 215.198821 183.469743 
L 215.5238 187.713279 
L 215.84878 169.513119 
L 216.173759 164.626353 
L 216.823718 187.546959 
L 217.148698 155.722815 
L 217.473677 170.159391 
L 217.798657 169.660431 
L 218.123636 167.040369 
L 218.448616 179.728209 
L 218.773595 169.201008 
L 219.098575 181.412127 
L 219.423554 176.669631 
L 219.748534 173.924496 
L 220.073514 181.081008 
L 220.398493 191.650977 
L 220.723473 181.706751 
L 221.048452 183.162384 
L 221.373432 167.105376 
L 221.698411 160.904016 
L 222.023391 178.130016 
L 222.34837 176.794704 
L 222.67335 181.706751 
L 222.998329 171.950895 
L 223.323309 180.350721 
L 223.648288 167.181408 
L 224.298247 161.482239 
L 224.623227 165.207807 
L 225.273186 179.207199 
L 225.598165 171.429696 
L 225.923145 170.908497 
L 226.248124 182.142225 
L 226.573104 174.86064 
L 226.898084 164.626353 
L 227.548043 192.416049 
L 227.873022 176.940495 
L 228.522981 178.524432 
L 229.17294 167.315985 
L 230.147879 184.228353 
L 230.472858 170.252721 
L 230.797838 174.825855 
L 231.122817 168.831873 
L 231.447797 195.637905 
L 231.772776 175.505391 
L 232.097756 177.80688 
L 232.422735 165.787551 
L 233.072695 185.755455 
L 233.397674 187.230096 
L 233.722654 165.47544 
L 234.047633 162.690768 
L 234.372613 176.170671 
L 234.697592 169.807743 
L 235.022572 174.508992 
L 235.347551 172.868031 
L 235.672531 182.622177 
L 236.32249 169.145505 
L 236.647469 170.304993 
L 236.972449 165.456432 
L 237.297428 167.409504 
L 237.622408 166.766463 
L 237.947387 186.069087 
L 238.597346 164.331729 
L 238.922326 194.221809 
L 239.247305 166.454352 
L 239.572285 157.531617 
L 239.897265 182.86776 
L 240.222244 177.792624 
L 240.547224 181.391409 
L 240.872203 166.582656 
L 241.197183 175.671711 
L 241.522162 179.272017 
L 241.847142 172.948815 
L 242.172121 181.705041 
L 242.497101 163.671201 
L 242.82208 163.17072 
L 243.472039 181.473903 
L 243.797019 174.817872 
L 244.121998 174.840111 
L 244.446978 151.917984 
L 244.771957 175.318353 
L 245.096937 181.953855 
L 245.421916 182.452815 
L 245.746896 169.162992 
L 246.071876 188.963055 
L 246.721835 167.040369 
L 247.371794 174.947697 
L 247.696773 187.139808 
L 248.021753 165.180816 
L 248.346732 179.194464 
L 248.671712 150.549408 
L 248.996691 173.951487 
L 249.321671 186.786639 
L 249.64665 160.67592 
L 249.97163 168.668784 
L 250.296609 183.632832 
L 250.621589 159.923583 
L 250.946568 180.401472 
L 251.271548 163.184976 
L 251.596527 179.094672 
L 251.921507 189.328959 
L 252.246486 185.254785 
L 252.571466 170.637633 
L 252.896446 183.317679 
L 253.221425 184.79232 
L 253.546405 179.428833 
L 253.871384 184.811328 
L 254.196364 158.318928 
L 254.521343 171.282384 
L 254.846323 170.157681 
L 255.171302 177.014817 
L 255.496282 176.683887 
L 255.821261 173.587104 
L 256.146241 177.163839 
L 256.47122 173.091375 
L 256.7962 175.191759 
L 257.121179 174.86064 
L 257.446159 178.123743 
L 257.771138 177.792624 
L 258.096118 170.803953 
L 258.421097 189.501552 
L 258.746077 191.603457 
L 259.071057 151.833969 
L 259.396036 163.191249 
L 259.721016 165.770064 
L 260.045995 183.452256 
L 260.370975 182.473344 
L 260.695954 171.429696 
L 261.020934 174.673791 
L 261.345913 172.906047 
L 261.670893 172.758735 
L 261.995872 161.548767 
L 262.320852 166.416336 
L 262.645831 164.127393 
L 262.970811 187.195311 
L 263.29579 176.942016 
L 263.62077 195.618897 
L 263.945749 169.787025 
L 264.270729 159.554448 
L 264.595708 170.930736 
L 264.920688 175.486383 
L 265.245667 174.508992 
L 265.570647 168.51672 
L 265.895627 188.964576 
L 266.220606 165.087297 
L 266.545586 174.158865 
L 266.870565 172.55592 
L 267.195545 174.787839 
L 267.520524 181.793808 
L 267.845504 176.265711 
L 268.170483 179.362305 
L 268.495463 161.977968 
L 268.820442 173.503089 
L 269.145422 173.701152 
L 269.470401 184.7448 
L 269.795381 177.59304 
L 270.12036 181.994913 
L 270.44534 168.998193 
L 270.770319 173.883249 
L 271.095299 174.211137 
L 271.420278 162.042975 
L 271.745258 171.763857 
L 272.070238 192.857985 
L 272.395217 168.653007 
L 272.720197 176.631615 
L 273.045176 168.353631 
L 273.370156 176.481072 
L 273.695135 163.649151 
L 274.020115 173.881728 
L 274.345094 177.444207 
L 274.670074 177.292143 
L 274.995053 163.333809 
L 275.320033 186.563295 
L 275.645012 172.604961 
L 275.969992 178.616241 
L 276.294971 168.068511 
L 276.619951 185.620689 
L 276.94493 165.637008 
L 277.26991 177.309441 
L 277.594889 169.860015 
L 277.919869 169.031457 
L 278.244848 171.301392 
L 278.569828 181.184031 
L 278.894808 185.737968 
L 279.219787 171.615024 
L 279.544767 164.64384 
L 279.869746 190.974672 
L 280.194726 164.129103 
L 280.519705 172.259775 
L 280.844685 160.386048 
L 281.169664 170.140383 
L 281.494644 188.983584 
L 281.819623 182.326032 
L 282.144603 178.290063 
L 282.469582 169.532127 
L 282.794562 178.934625 
L 283.119541 172.280304 
L 283.444521 175.857039 
L 283.7695 190.996911 
L 284.419459 161.879697 
L 284.744439 180.227169 
L 285.069419 187.008273 
L 285.719378 167.354001 
L 286.044357 187.340913 
L 286.694316 165.272625 
L 287.019296 175.153743 
L 287.344275 166.376799 
L 287.669255 164.939985 
L 287.994234 192.042351 
L 288.319214 178.030224 
L 288.644193 158.358465 
L 288.969173 179.789985 
L 289.294152 181.266336 
L 289.619132 175.141008 
L 289.944111 153.671472 
L 290.269091 178.373889 
L 290.59407 184.236336 
L 290.91905 161.159103 
L 291.569009 178.242543 
L 291.893989 165.260079 
L 292.218968 168.987168 
L 292.543948 174.350655 
L 292.868927 168.190353 
L 293.193907 164.284209 
L 293.518886 176.115168 
L 293.843866 178.419888 
L 294.168845 187.523199 
L 294.493825 189.004113 
L 294.818804 178.773057 
L 295.143784 173.096127 
L 295.468763 175.708017 
L 295.793743 171.626049 
L 296.118722 183.507759 
L 296.443702 164.038815 
L 296.768681 178.974351 
L 297.093661 163.216719 
L 297.41864 193.070304 
L 297.74362 177.971679 
L 298.0686 176.16744 
L 298.393579 166.763232 
L 298.718559 186.417504 
L 299.043538 156.861585 
L 299.368518 164.496528 
L 299.693497 176.850207 
L 300.018477 166.764753 
L 300.343456 191.179008 
L 300.668436 184.966623 
L 300.993415 169.240545 
L 301.318395 188.441856 
L 301.643374 169.601697 
L 301.968354 178.481664 
L 302.293333 162.616257 
L 302.618313 172.042704 
L 302.943292 166.345056 
L 303.268272 180.612081 
L 303.593251 166.967568 
L 303.918231 190.041759 
L 304.24321 171.643536 
L 304.56819 172.9836 
L 304.89317 166.159728 
L 305.218149 177.041808 
L 305.868108 167.143392 
L 306.193088 185.154993 
L 306.518067 187.648272 
L 306.843047 185.080671 
L 307.168026 158.764095 
L 307.493006 154.514097 
L 307.817985 160.634673 
L 308.142965 164.015055 
L 308.467944 188.47512 
L 308.792924 187.02576 
L 309.117903 158.881185 
L 309.442883 165.708288 
L 309.767862 165.87936 
L 310.092842 180.512289 
L 310.417821 180.311184 
L 310.742801 182.441601 
L 311.067781 168.621264 
L 311.39276 166.490847 
L 311.71774 166.191471 
L 312.042719 178.562448 
L 312.367699 182.280033 
L 312.692678 189.694863 
L 313.017658 179.590401 
L 313.342637 175.500639 
L 313.992596 188.947089 
L 314.317576 180.198657 
L 314.642555 166.120191 
L 314.967535 176.064417 
L 315.292514 165.565728 
L 315.617494 182.636433 
L 315.942473 178.112529 
L 316.267453 171.242847 
L 316.592432 180.075105 
L 316.917412 185.067936 
L 317.242391 161.895663 
L 317.567371 186.563295 
L 317.892351 169.196256 
L 318.21733 165.907872 
L 318.54231 159.933087 
L 318.867289 169.105968 
L 319.192269 170.517312 
L 319.517248 191.511648 
L 319.842228 182.294289 
L 320.167207 168.256881 
L 320.492187 177.130575 
L 320.817166 169.321329 
L 321.142146 191.983617 
L 321.467125 172.906047 
L 321.792105 186.221151 
L 322.117084 190.830591 
L 322.767043 170.943471 
L 323.092023 177.345936 
L 323.741982 172.996335 
L 324.066962 165.35664 
L 324.391941 180.932175 
L 324.716921 158.268177 
L 325.0419 169.492401 
L 325.36688 159.421392 
L 325.691859 182.040912 
L 326.016839 184.987152 
L 326.341818 185.329296 
L 326.666798 186.873696 
L 326.991777 184.006719 
L 327.316757 179.313264 
L 327.641736 181.450143 
L 327.966716 162.540225 
L 328.291695 154.336752 
L 328.616675 165.766833 
L 328.941654 168.120783 
L 329.266634 169.058448 
L 329.591613 167.949711 
L 329.916593 180.718335 
L 330.566552 165.781089 
L 330.891532 161.122608 
L 331.216511 172.392831 
L 331.541491 178.06824 
L 331.86647 180.707121 
L 332.19145 162.568737 
L 332.841409 156.861585 
L 333.166388 166.934304 
L 333.491368 188.699985 
L 333.816347 169.069473 
L 334.141327 184.047777 
L 334.466306 167.230449 
L 334.791286 182.758464 
L 335.116265 165.220353 
L 335.441245 186.303456 
L 335.766224 185.748993 
L 336.091204 158.610321 
L 336.416183 175.725504 
L 336.741163 167.490288 
L 337.066143 169.410096 
L 337.391122 178.967889 
L 337.716102 169.879023 
L 338.041081 173.590335 
L 338.366061 160.574607 
L 338.69104 180.545553 
L 339.01602 172.779264 
L 339.340999 180.42048 
L 339.665979 173.419263 
L 339.990958 183.491793 
L 340.315938 169.834545 
L 340.640917 167.151375 
L 340.965897 187.169841 
L 341.290876 171.673569 
L 341.615856 168.385185 
L 341.940835 166.59216 
L 342.265815 172.361088 
L 342.590794 165.781089 
L 342.915774 169.834545 
L 343.240753 179.050383 
L 343.890713 170.208432 
L 344.215692 182.932767 
L 344.540672 186.735888 
L 344.865651 185.113935 
L 345.190631 196.651791 
L 345.51561 197.26632 
L 345.84059 170.964 
L 346.165569 184.258575 
L 346.490549 167.998752 
L 346.815528 171.369441 
L 347.140508 161.471025 
L 347.465487 167.960736 
L 347.790467 185.397345 
L 348.115446 174.688047 
L 348.440426 175.910832 
L 348.765405 184.537233 
L 349.090385 167.860944 
L 349.415364 158.716575 
L 349.740344 174.811599 
L 350.065324 163.872495 
L 350.390303 176.669631 
L 350.715283 163.352817 
L 351.040262 168.44544 
L 351.365242 187.084305 
L 351.690221 182.744208 
L 352.015201 160.400304 
L 352.34018 177.71184 
L 352.66516 177.944688 
L 352.990139 181.770048 
L 353.315119 168.865137 
L 353.640098 162.499167 
L 353.965078 179.923041 
L 354.290057 176.344785 
L 354.615037 175.253535 
L 355.264996 209.038545 
L 355.914955 185.086944 
L 356.239934 178.822287 
L 356.564914 195.162705 
L 356.889894 190.692783 
L 357.214873 190.127295 
L 357.539853 179.379792 
L 358.514791 167.444289 
L 358.839771 182.101167 
L 359.16475 179.354511 
L 359.814709 185.132943 
L 360.139689 165.507183 
L 360.464668 181.610001 
L 360.789648 184.749552 
L 361.114627 159.921873 
L 361.439607 157.808943 
L 361.764586 190.139841 
L 362.089566 161.996976 
L 362.414545 168.022512 
L 362.739525 166.729968 
L 363.064505 161.808417 
L 363.389484 177.577263 
L 363.714464 165.358161 
L 364.039443 178.342335 
L 364.689402 166.99608 
L 365.014382 166.94856 
L 365.339361 186.984513 
L 365.664341 178.993359 
L 365.98932 176.340033 
L 366.3143 186.591807 
L 366.639279 182.759985 
L 366.964259 187.972929 
L 367.289238 180.96696 
L 367.614218 161.277903 
L 367.939197 157.731201 
L 368.264177 190.448721 
L 368.914136 163.688688 
L 369.564095 168.312384 
L 369.889075 165.817584 
L 370.214054 167.156127 
L 370.539034 173.116656 
L 370.864013 183.84192 
L 371.188993 181.285344 
L 371.513972 167.860944 
L 371.838952 159.643215 
L 372.163931 177.99696 
L 372.488911 170.301951 
L 372.81389 181.882575 
L 373.13887 177.890895 
L 373.463849 166.25952 
L 373.788829 179.924751 
L 374.113808 163.544607 
L 374.438788 171.950895 
L 374.763767 189.498321 
L 375.088747 191.517921 
L 375.413726 207.422865 
L 375.738706 185.947056 
L 376.063686 181.242576 
L 376.388665 171.806625 
L 376.713645 166.772736 
L 377.038624 180.129087 
L 377.363604 180.518751 
L 377.688583 190.529505 
L 378.013563 172.180512 
L 378.338542 177.680097 
L 378.663522 187.657776 
L 379.313481 168.881103 
L 379.63846 177.263631 
L 379.96344 176.911983 
L 380.288419 165.215601 
L 380.613399 178.712991 
L 380.938378 182.666655 
L 381.263358 168.836625 
L 381.588337 175.122 
L 381.913317 177.653295 
L 382.238296 168.839856 
L 382.888256 163.268991 
L 383.213235 174.512223 
L 383.538215 190.326879 
L 383.863194 166.127985 
L 384.188174 179.06616 
L 384.513153 166.296015 
L 384.838133 193.570785 
L 385.163112 167.940207 
L 385.488092 180.908415 
L 385.813071 183.514032 
L 386.138051 171.740097 
L 386.46303 172.018944 
L 386.78801 175.174272 
L 387.112989 163.390833 
L 387.437969 192.451023 
L 388.412907 164.567808 
L 389.062867 187.260129 
L 389.387846 186.159375 
L 389.712826 179.485857 
L 390.037805 190.208079 
L 390.362785 184.478688 
L 390.687764 163.230975 
L 391.012744 157.203729 
L 391.337723 161.331696 
L 391.662703 176.533344 
L 391.987682 173.080161 
L 392.637641 158.233392 
L 392.962621 171.558 
L 393.2876 205.255953 
L 393.61258 170.792928 
L 393.937559 161.350704 
L 394.262539 179.818497 
L 394.587518 187.554753 
L 394.912498 174.428208 
L 395.237477 172.123488 
L 395.562457 165.871377 
L 395.887437 178.109487 
L 396.212416 185.441823 
L 396.537396 159.685983 
L 396.862375 195.176961 
L 397.187355 180.632799 
L 397.512334 183.17664 
L 397.837314 165.351888 
L 398.162293 169.839297 
L 398.487273 181.138032 
L 398.487273 181.138032 
" clip-path="url(#pb051f1f2e4)" style="fill: none; stroke: #ff7f0e; stroke-width: 1.5; stroke-linecap: square"/>
   </g>
   <g id="patch_3">
    <path d="M 57.6 307.584 
L 57.6 41.472 
" style="fill: none; stroke: #000000; stroke-width: 0.8; stroke-linejoin: miter; stroke-linecap: square"/>
   </g>
   <g id="patch_4">
    <path d="M 414.72 307.584 
L 414.72 41.472 
" style="fill: none; stroke: #000000; stroke-width: 0.8; stroke-linejoin: miter; stroke-linecap: square"/>
   </g>
   <g id="patch_5">
    <path d="M 57.6 307.584 
L 414.72 307.584 
" style="fill: none; stroke: #000000; stroke-width: 0.8; stroke-linejoin: miter; stroke-linecap: square"/>
   </g>
   <g id="patch_6">
    <path d="M 57.6 41.472 
L 414.72 41.472 
" style="fill: none; stroke: #000000; stroke-width: 0.8; stroke-linejoin: miter; stroke-linecap: square"/>
   </g>
   <g id="legend_1">
    <g id="patch_7">
     <path d="M 257.179375 78.82825 
L 407.72 78.82825 
Q 409.72 78.82825 409.72 76.82825 
L 409.72 48.472 
Q 409.72 46.472 407.72 46.472 
L 257.179375 46.472 
Q 255.179375 46.472 255.179375 48.472 
L 255.179375 76.82825 
Q 255.179375 78.82825 257.179375 78.82825 
z
" style="fill: #ffffff; opacity: 0.8; stroke: #cccccc; stroke-linejoin: miter"/>
    </g>
    <g id="line2d_29">
     <path d="M 259.179375 54.570437 
L 269.179375 54.570437 
L 279.179375 54.570437 
" style="fill: none; stroke: #1f77b4; stroke-width: 1.5; stroke-linecap: square"/>
    </g>
    <g id="text_16">
     <!-- GPS derived deltaH -->
     <g transform="translate(287.179375 58.070437)scale(0.1 -0.1)">
      <defs>
       <path id="DejaVuSans-47" d="M 3809 666 
L 3809 1919 
L 2778 1919 
L 2778 2438 
L 4434 2438 
L 4434 434 
Q 4069 175 3628 42 
Q 3188 -91 2688 -91 
Q 1594 -91 976 548 
Q 359 1188 359 2328 
Q 359 3472 976 4111 
Q 1594 4750 2688 4750 
Q 3144 4750 3555 4637 
Q 3966 4525 4313 4306 
L 4313 3634 
Q 3963 3931 3569 4081 
Q 3175 4231 2741 4231 
Q 1884 4231 1454 3753 
Q 1025 3275 1025 2328 
Q 1025 1384 1454 906 
Q 1884 428 2741 428 
Q 3075 428 3337 486 
Q 3600 544 3809 666 
z
" transform="scale(0.015625)"/>
       <path id="DejaVuSans-50" d="M 1259 4147 
L 1259 2394 
L 2053 2394 
Q 2494 2394 2734 2622 
Q 2975 2850 2975 3272 
Q 2975 3691 2734 3919 
Q 2494 4147 2053 4147 
L 1259 4147 
z
M 628 4666 
L 2053 4666 
Q 2838 4666 3239 4311 
Q 3641 3956 3641 3272 
Q 3641 2581 3239 2228 
Q 2838 1875 2053 1875 
L 1259 1875 
L 1259 0 
L 628 0 
L 628 4666 
z
" transform="scale(0.015625)"/>
       <path id="DejaVuSans-53" d="M 3425 4513 
L 3425 3897 
Q 3066 4069 2747 4153 
Q 2428 4238 2131 4238 
Q 1616 4238 1336 4038 
Q 1056 3838 1056 3469 
Q 1056 3159 1242 3001 
Q 1428 2844 1947 2747 
L 2328 2669 
Q 3034 2534 3370 2195 
Q 3706 1856 3706 1288 
Q 3706 609 3251 259 
Q 2797 -91 1919 -91 
Q 1588 -91 1214 -16 
Q 841 59 441 206 
L 441 856 
Q 825 641 1194 531 
Q 1563 422 1919 422 
Q 2459 422 2753 634 
Q 3047 847 3047 1241 
Q 3047 1584 2836 1778 
Q 2625 1972 2144 2069 
L 1759 2144 
Q 1053 2284 737 2584 
Q 422 2884 422 3419 
Q 422 4038 858 4394 
Q 1294 4750 2059 4750 
Q 2388 4750 2728 4690 
Q 3069 4631 3425 4513 
z
" transform="scale(0.015625)"/>
       <path id="DejaVuSans-48" d="M 628 4666 
L 1259 4666 
L 1259 2753 
L 3553 2753 
L 3553 4666 
L 4184 4666 
L 4184 0 
L 3553 0 
L 3553 2222 
L 1259 2222 
L 1259 0 
L 628 0 
L 628 4666 
z
" transform="scale(0.015625)"/>
      </defs>
      <use xlink:href="#DejaVuSans-47"/>
      <use xlink:href="#DejaVuSans-50" x="77.490234"/>
      <use xlink:href="#DejaVuSans-53" x="137.792969"/>
      <use xlink:href="#DejaVuSans-20" x="201.269531"/>
      <use xlink:href="#DejaVuSans-64" x="233.056641"/>
      <use xlink:href="#DejaVuSans-65" x="296.533203"/>
      <use xlink:href="#DejaVuSans-72" x="358.056641"/>
      <use xlink:href="#DejaVuSans-69" x="399.169922"/>
      <use xlink:href="#DejaVuSans-76" x="426.953125"/>
      <use xlink:href="#DejaVuSans-65" x="486.132812"/>
      <use xlink:href="#DejaVuSans-64" x="547.65625"/>
      <use xlink:href="#DejaVuSans-20" x="611.132812"/>
      <use xlink:href="#DejaVuSans-64" x="642.919922"/>
      <use xlink:href="#DejaVuSans-65" x="706.396484"/>
      <use xlink:href="#DejaVuSans-6c" x="767.919922"/>
      <use xlink:href="#DejaVuSans-74" x="795.703125"/>
      <use xlink:href="#DejaVuSans-61" x="834.912109"/>
      <use xlink:href="#DejaVuSans-48" x="896.191406"/>
     </g>
    </g>
    <g id="line2d_30">
     <path d="M 259.179375 69.248562 
L 269.179375 69.248562 
L 279.179375 69.248562 
" style="fill: none; stroke: #ff7f0e; stroke-width: 1.5; stroke-linecap: square"/>
    </g>
    <g id="text_17">
     <!-- bmp280 derived deltaH -->
     <g transform="translate(287.179375 72.748562)scale(0.1 -0.1)">
      <defs>
       <path id="DejaVuSans-62" d="M 3116 1747 
Q 3116 2381 2855 2742 
Q 2594 3103 2138 3103 
Q 1681 3103 1420 2742 
Q 1159 2381 1159 1747 
Q 1159 1113 1420 752 
Q 1681 391 2138 391 
Q 2594 391 2855 752 
Q 3116 1113 3116 1747 
z
M 1159 2969 
Q 1341 3281 1617 3432 
Q 1894 3584 2278 3584 
Q 2916 3584 3314 3078 
Q 3713 2572 3713 1747 
Q 3713 922 3314 415 
Q 2916 -91 2278 -91 
Q 1894 -91 1617 61 
Q 1341 213 1159 525 
L 1159 0 
L 581 0 
L 581 4863 
L 1159 4863 
L 1159 2969 
z
" transform="scale(0.015625)"/>
      </defs>
      <use xlink:href="#DejaVuSans-62"/>
      <use xlink:href="#DejaVuSans-6d" x="63.476562"/>
      <use xlink:href="#DejaVuSans-70" x="160.888672"/>
      <use xlink:href="#DejaVuSans-32" x="224.365234"/>
      <use xlink:href="#DejaVuSans-38" x="287.988281"/>
      <use xlink:href="#DejaVuSans-30" x="351.611328"/>
      <use xlink:href="#DejaVuSans-20" x="415.234375"/>
      <use xlink:href="#DejaVuSans-64" x="447.021484"/>
      <use xlink:href="#DejaVuSans-65" x="510.498047"/>
      <use xlink:href="#DejaVuSans-72" x="572.021484"/>
      <use xlink:href="#DejaVuSans-69" x="613.134766"/>
      <use xlink:href="#DejaVuSans-76" x="640.917969"/>
      <use xlink:href="#DejaVuSans-65" x="700.097656"/>
      <use xlink:href="#DejaVuSans-64" x="761.621094"/>
      <use xlink:href="#DejaVuSans-20" x="825.097656"/>
      <use xlink:href="#DejaVuSans-64" x="856.884766"/>
      <use xlink:href="#DejaVuSans-65" x="920.361328"/>
      <use xlink:href="#DejaVuSans-6c" x="981.884766"/>
      <use xlink:href="#DejaVuSans-74" x="1009.667969"/>
      <use xlink:href="#DejaVuSans-61" x="1048.876953"/>
      <use xlink:href="#DejaVuSans-48" x="1110.15625"/>
     </g>
    </g>
   </g>
  </g>
 </g>
 <defs>
  <clipPath id="pb051f1f2e4">
   <rect x="57.6" y="41.472" width="357.12" height="266.112"/>
  </clipPath>
 </defs>
</svg>
