<?xml version="1.0" encoding="utf-8" standalone="no"?>
<!DOCTYPE svg PUBLIC "-//W3C//DTD SVG 1.1//EN"
  "http://www.w3.org/Graphics/SVG/1.1/DTD/svg11.dtd">
<svg xmlns:xlink="http://www.w3.org/1999/xlink" width="460.8pt" height="345.6pt" viewBox="0 0 460.8 345.6" xmlns="http://www.w3.org/2000/svg" version="1.1">
 <metadata>
  <rdf:RDF xmlns:dc="http://purl.org/dc/elements/1.1/" xmlns:cc="http://creativecommons.org/ns#" xmlns:rdf="http://www.w3.org/1999/02/22-rdf-syntax-ns#">
   <cc:Work>
    <dc:type rdf:resource="http://purl.org/dc/dcmitype/StillImage"/>
    <dc:date>2021-11-21T13:42:18.869325</dc:date>
    <dc:format>image/svg+xml</dc:format>
    <dc:creator>
     <cc:Agent>
      <dc:title>Matplotlib v3.5.0, https://matplotlib.org/</dc:title>
     </cc:Agent>
    </dc:creator>
   </cc:Work>
  </rdf:RDF>
 </metadata>
 <defs>
  <style type="text/css">*{stroke-linejoin: round; stroke-linecap: butt}</style>
 </defs>
 <g id="figure_1">
  <g id="patch_1">
   <path d="M 0 345.6 
L 460.8 345.6 
L 460.8 0 
L 0 0 
z
" style="fill: #ffffff"/>
  </g>
  <g id="axes_1">
   <g id="patch_2">
    <path d="M 86.276032 307.584 
L 386.043968 307.584 
L 386.043968 41.472 
L 86.276032 41.472 
z
" style="fill: #ffffff"/>
   </g>
   <g id="matplotlib.axis_1">
    <g id="xtick_1">
     <g id="line2d_1">
      <path d="M 115.149007 307.584 
L 115.149007 41.472 
" clip-path="url(#p1d95a46c06)" style="fill: none; stroke: #b0b0b0; stroke-width: 0.8; stroke-linecap: square"/>
     </g>
     <g id="line2d_2">
      <defs>
       <path id="m6f25985888" d="M 0 0 
L 0 3.5 
" style="stroke: #000000; stroke-width: 0.8"/>
      </defs>
      <g>
       <use xlink:href="#m6f25985888" x="115.149007" y="307.584" style="stroke: #000000; stroke-width: 0.8"/>
      </g>
     </g>
     <g id="text_1">
      <!-- −6 -->
      <g transform="translate(107.777913 322.182437)scale(0.1 -0.1)">
       <defs>
        <path id="DejaVuSans-2212" d="M 678 2272 
L 4684 2272 
L 4684 1741 
L 678 1741 
L 678 2272 
z
" transform="scale(0.015625)"/>
        <path id="DejaVuSans-36" d="M 2113 2584 
Q 1688 2584 1439 2293 
Q 1191 2003 1191 1497 
Q 1191 994 1439 701 
Q 1688 409 2113 409 
Q 2538 409 2786 701 
Q 3034 994 3034 1497 
Q 3034 2003 2786 2293 
Q 2538 2584 2113 2584 
z
M 3366 4563 
L 3366 3988 
Q 3128 4100 2886 4159 
Q 2644 4219 2406 4219 
Q 1781 4219 1451 3797 
Q 1122 3375 1075 2522 
Q 1259 2794 1537 2939 
Q 1816 3084 2150 3084 
Q 2853 3084 3261 2657 
Q 3669 2231 3669 1497 
Q 3669 778 3244 343 
Q 2819 -91 2113 -91 
Q 1303 -91 875 529 
Q 447 1150 447 2328 
Q 447 3434 972 4092 
Q 1497 4750 2381 4750 
Q 2619 4750 2861 4703 
Q 3103 4656 3366 4563 
z
" transform="scale(0.015625)"/>
       </defs>
       <use xlink:href="#DejaVuSans-2212"/>
       <use xlink:href="#DejaVuSans-36" x="83.789062"/>
      </g>
     </g>
    </g>
    <g id="xtick_2">
     <g id="line2d_3">
      <path d="M 171.309213 307.584 
L 171.309213 41.472 
" clip-path="url(#p1d95a46c06)" style="fill: none; stroke: #b0b0b0; stroke-width: 0.8; stroke-linecap: square"/>
     </g>
     <g id="line2d_4">
      <g>
       <use xlink:href="#m6f25985888" x="171.309213" y="307.584" style="stroke: #000000; stroke-width: 0.8"/>
      </g>
     </g>
     <g id="text_2">
      <!-- −4 -->
      <g transform="translate(163.938119 322.182437)scale(0.1 -0.1)">
       <defs>
        <path id="DejaVuSans-34" d="M 2419 4116 
L 825 1625 
L 2419 1625 
L 2419 4116 
z
M 2253 4666 
L 3047 4666 
L 3047 1625 
L 3713 1625 
L 3713 1100 
L 3047 1100 
L 3047 0 
L 2419 0 
L 2419 1100 
L 313 1100 
L 313 1709 
L 2253 4666 
z
" transform="scale(0.015625)"/>
       </defs>
       <use xlink:href="#DejaVuSans-2212"/>
       <use xlink:href="#DejaVuSans-34" x="83.789062"/>
      </g>
     </g>
    </g>
    <g id="xtick_3">
     <g id="line2d_5">
      <path d="M 227.469419 307.584 
L 227.469419 41.472 
" clip-path="url(#p1d95a46c06)" style="fill: none; stroke: #b0b0b0; stroke-width: 0.8; stroke-linecap: square"/>
     </g>
     <g id="line2d_6">
      <g>
       <use xlink:href="#m6f25985888" x="227.469419" y="307.584" style="stroke: #000000; stroke-width: 0.8"/>
      </g>
     </g>
     <g id="text_3">
      <!-- −2 -->
      <g transform="translate(220.098325 322.182437)scale(0.1 -0.1)">
       <defs>
        <path id="DejaVuSans-32" d="M 1228 531 
L 3431 531 
L 3431 0 
L 469 0 
L 469 531 
Q 828 903 1448 1529 
Q 2069 2156 2228 2338 
Q 2531 2678 2651 2914 
Q 2772 3150 2772 3378 
Q 2772 3750 2511 3984 
Q 2250 4219 1831 4219 
Q 1534 4219 1204 4116 
Q 875 4013 500 3803 
L 500 4441 
Q 881 4594 1212 4672 
Q 1544 4750 1819 4750 
Q 2544 4750 2975 4387 
Q 3406 4025 3406 3419 
Q 3406 3131 3298 2873 
Q 3191 2616 2906 2266 
Q 2828 2175 2409 1742 
Q 1991 1309 1228 531 
z
" transform="scale(0.015625)"/>
       </defs>
       <use xlink:href="#DejaVuSans-2212"/>
       <use xlink:href="#DejaVuSans-32" x="83.789062"/>
      </g>
     </g>
    </g>
    <g id="xtick_4">
     <g id="line2d_7">
      <path d="M 283.629625 307.584 
L 283.629625 41.472 
" clip-path="url(#p1d95a46c06)" style="fill: none; stroke: #b0b0b0; stroke-width: 0.8; stroke-linecap: square"/>
     </g>
     <g id="line2d_8">
      <g>
       <use xlink:href="#m6f25985888" x="283.629625" y="307.584" style="stroke: #000000; stroke-width: 0.8"/>
      </g>
     </g>
     <g id="text_4">
      <!-- 0 -->
      <g transform="translate(280.448375 322.182437)scale(0.1 -0.1)">
       <defs>
        <path id="DejaVuSans-30" d="M 2034 4250 
Q 1547 4250 1301 3770 
Q 1056 3291 1056 2328 
Q 1056 1369 1301 889 
Q 1547 409 2034 409 
Q 2525 409 2770 889 
Q 3016 1369 3016 2328 
Q 3016 3291 2770 3770 
Q 2525 4250 2034 4250 
z
M 2034 4750 
Q 2819 4750 3233 4129 
Q 3647 3509 3647 2328 
Q 3647 1150 3233 529 
Q 2819 -91 2034 -91 
Q 1250 -91 836 529 
Q 422 1150 422 2328 
Q 422 3509 836 4129 
Q 1250 4750 2034 4750 
z
" transform="scale(0.015625)"/>
       </defs>
       <use xlink:href="#DejaVuSans-30"/>
      </g>
     </g>
    </g>
    <g id="xtick_5">
     <g id="line2d_9">
      <path d="M 339.789831 307.584 
L 339.789831 41.472 
" clip-path="url(#p1d95a46c06)" style="fill: none; stroke: #b0b0b0; stroke-width: 0.8; stroke-linecap: square"/>
     </g>
     <g id="line2d_10">
      <g>
       <use xlink:href="#m6f25985888" x="339.789831" y="307.584" style="stroke: #000000; stroke-width: 0.8"/>
      </g>
     </g>
     <g id="text_5">
      <!-- 2 -->
      <g transform="translate(336.608581 322.182437)scale(0.1 -0.1)">
       <use xlink:href="#DejaVuSans-32"/>
      </g>
     </g>
    </g>
    <g id="text_6">
     <!-- Deviation relative to reference point, axis E [m] -->
     <g transform="translate(117.083438 335.860562)scale(0.1 -0.1)">
      <defs>
       <path id="DejaVuSans-44" d="M 1259 4147 
L 1259 519 
L 2022 519 
Q 2988 519 3436 956 
Q 3884 1394 3884 2338 
Q 3884 3275 3436 3711 
Q 2988 4147 2022 4147 
L 1259 4147 
z
M 628 4666 
L 1925 4666 
Q 3281 4666 3915 4102 
Q 4550 3538 4550 2338 
Q 4550 1131 3912 565 
Q 3275 0 1925 0 
L 628 0 
L 628 4666 
z
" transform="scale(0.015625)"/>
       <path id="DejaVuSans-65" d="M 3597 1894 
L 3597 1613 
L 953 1613 
Q 991 1019 1311 708 
Q 1631 397 2203 397 
Q 2534 397 2845 478 
Q 3156 559 3463 722 
L 3463 178 
Q 3153 47 2828 -22 
Q 2503 -91 2169 -91 
Q 1331 -91 842 396 
Q 353 884 353 1716 
Q 353 2575 817 3079 
Q 1281 3584 2069 3584 
Q 2775 3584 3186 3129 
Q 3597 2675 3597 1894 
z
M 3022 2063 
Q 3016 2534 2758 2815 
Q 2500 3097 2075 3097 
Q 1594 3097 1305 2825 
Q 1016 2553 972 2059 
L 3022 2063 
z
" transform="scale(0.015625)"/>
       <path id="DejaVuSans-76" d="M 191 3500 
L 800 3500 
L 1894 563 
L 2988 3500 
L 3597 3500 
L 2284 0 
L 1503 0 
L 191 3500 
z
" transform="scale(0.015625)"/>
       <path id="DejaVuSans-69" d="M 603 3500 
L 1178 3500 
L 1178 0 
L 603 0 
L 603 3500 
z
M 603 4863 
L 1178 4863 
L 1178 4134 
L 603 4134 
L 603 4863 
z
" transform="scale(0.015625)"/>
       <path id="DejaVuSans-61" d="M 2194 1759 
Q 1497 1759 1228 1600 
Q 959 1441 959 1056 
Q 959 750 1161 570 
Q 1363 391 1709 391 
Q 2188 391 2477 730 
Q 2766 1069 2766 1631 
L 2766 1759 
L 2194 1759 
z
M 3341 1997 
L 3341 0 
L 2766 0 
L 2766 531 
Q 2569 213 2275 61 
Q 1981 -91 1556 -91 
Q 1019 -91 701 211 
Q 384 513 384 1019 
Q 384 1609 779 1909 
Q 1175 2209 1959 2209 
L 2766 2209 
L 2766 2266 
Q 2766 2663 2505 2880 
Q 2244 3097 1772 3097 
Q 1472 3097 1187 3025 
Q 903 2953 641 2809 
L 641 3341 
Q 956 3463 1253 3523 
Q 1550 3584 1831 3584 
Q 2591 3584 2966 3190 
Q 3341 2797 3341 1997 
z
" transform="scale(0.015625)"/>
       <path id="DejaVuSans-74" d="M 1172 4494 
L 1172 3500 
L 2356 3500 
L 2356 3053 
L 1172 3053 
L 1172 1153 
Q 1172 725 1289 603 
Q 1406 481 1766 481 
L 2356 481 
L 2356 0 
L 1766 0 
Q 1100 0 847 248 
Q 594 497 594 1153 
L 594 3053 
L 172 3053 
L 172 3500 
L 594 3500 
L 594 4494 
L 1172 4494 
z
" transform="scale(0.015625)"/>
       <path id="DejaVuSans-6f" d="M 1959 3097 
Q 1497 3097 1228 2736 
Q 959 2375 959 1747 
Q 959 1119 1226 758 
Q 1494 397 1959 397 
Q 2419 397 2687 759 
Q 2956 1122 2956 1747 
Q 2956 2369 2687 2733 
Q 2419 3097 1959 3097 
z
M 1959 3584 
Q 2709 3584 3137 3096 
Q 3566 2609 3566 1747 
Q 3566 888 3137 398 
Q 2709 -91 1959 -91 
Q 1206 -91 779 398 
Q 353 888 353 1747 
Q 353 2609 779 3096 
Q 1206 3584 1959 3584 
z
" transform="scale(0.015625)"/>
       <path id="DejaVuSans-6e" d="M 3513 2113 
L 3513 0 
L 2938 0 
L 2938 2094 
Q 2938 2591 2744 2837 
Q 2550 3084 2163 3084 
Q 1697 3084 1428 2787 
Q 1159 2491 1159 1978 
L 1159 0 
L 581 0 
L 581 3500 
L 1159 3500 
L 1159 2956 
Q 1366 3272 1645 3428 
Q 1925 3584 2291 3584 
Q 2894 3584 3203 3211 
Q 3513 2838 3513 2113 
z
" transform="scale(0.015625)"/>
       <path id="DejaVuSans-20" transform="scale(0.015625)"/>
       <path id="DejaVuSans-72" d="M 2631 2963 
Q 2534 3019 2420 3045 
Q 2306 3072 2169 3072 
Q 1681 3072 1420 2755 
Q 1159 2438 1159 1844 
L 1159 0 
L 581 0 
L 581 3500 
L 1159 3500 
L 1159 2956 
Q 1341 3275 1631 3429 
Q 1922 3584 2338 3584 
Q 2397 3584 2469 3576 
Q 2541 3569 2628 3553 
L 2631 2963 
z
" transform="scale(0.015625)"/>
       <path id="DejaVuSans-6c" d="M 603 4863 
L 1178 4863 
L 1178 0 
L 603 0 
L 603 4863 
z
" transform="scale(0.015625)"/>
       <path id="DejaVuSans-66" d="M 2375 4863 
L 2375 4384 
L 1825 4384 
Q 1516 4384 1395 4259 
Q 1275 4134 1275 3809 
L 1275 3500 
L 2222 3500 
L 2222 3053 
L 1275 3053 
L 1275 0 
L 697 0 
L 697 3053 
L 147 3053 
L 147 3500 
L 697 3500 
L 697 3744 
Q 697 4328 969 4595 
Q 1241 4863 1831 4863 
L 2375 4863 
z
" transform="scale(0.015625)"/>
       <path id="DejaVuSans-63" d="M 3122 3366 
L 3122 2828 
Q 2878 2963 2633 3030 
Q 2388 3097 2138 3097 
Q 1578 3097 1268 2742 
Q 959 2388 959 1747 
Q 959 1106 1268 751 
Q 1578 397 2138 397 
Q 2388 397 2633 464 
Q 2878 531 3122 666 
L 3122 134 
Q 2881 22 2623 -34 
Q 2366 -91 2075 -91 
Q 1284 -91 818 406 
Q 353 903 353 1747 
Q 353 2603 823 3093 
Q 1294 3584 2113 3584 
Q 2378 3584 2631 3529 
Q 2884 3475 3122 3366 
z
" transform="scale(0.015625)"/>
       <path id="DejaVuSans-70" d="M 1159 525 
L 1159 -1331 
L 581 -1331 
L 581 3500 
L 1159 3500 
L 1159 2969 
Q 1341 3281 1617 3432 
Q 1894 3584 2278 3584 
Q 2916 3584 3314 3078 
Q 3713 2572 3713 1747 
Q 3713 922 3314 415 
Q 2916 -91 2278 -91 
Q 1894 -91 1617 61 
Q 1341 213 1159 525 
z
M 3116 1747 
Q 3116 2381 2855 2742 
Q 2594 3103 2138 3103 
Q 1681 3103 1420 2742 
Q 1159 2381 1159 1747 
Q 1159 1113 1420 752 
Q 1681 391 2138 391 
Q 2594 391 2855 752 
Q 3116 1113 3116 1747 
z
" transform="scale(0.015625)"/>
       <path id="DejaVuSans-2c" d="M 750 794 
L 1409 794 
L 1409 256 
L 897 -744 
L 494 -744 
L 750 256 
L 750 794 
z
" transform="scale(0.015625)"/>
       <path id="DejaVuSans-78" d="M 3513 3500 
L 2247 1797 
L 3578 0 
L 2900 0 
L 1881 1375 
L 863 0 
L 184 0 
L 1544 1831 
L 300 3500 
L 978 3500 
L 1906 2253 
L 2834 3500 
L 3513 3500 
z
" transform="scale(0.015625)"/>
       <path id="DejaVuSans-73" d="M 2834 3397 
L 2834 2853 
Q 2591 2978 2328 3040 
Q 2066 3103 1784 3103 
Q 1356 3103 1142 2972 
Q 928 2841 928 2578 
Q 928 2378 1081 2264 
Q 1234 2150 1697 2047 
L 1894 2003 
Q 2506 1872 2764 1633 
Q 3022 1394 3022 966 
Q 3022 478 2636 193 
Q 2250 -91 1575 -91 
Q 1294 -91 989 -36 
Q 684 19 347 128 
L 347 722 
Q 666 556 975 473 
Q 1284 391 1588 391 
Q 1994 391 2212 530 
Q 2431 669 2431 922 
Q 2431 1156 2273 1281 
Q 2116 1406 1581 1522 
L 1381 1569 
Q 847 1681 609 1914 
Q 372 2147 372 2553 
Q 372 3047 722 3315 
Q 1072 3584 1716 3584 
Q 2034 3584 2315 3537 
Q 2597 3491 2834 3397 
z
" transform="scale(0.015625)"/>
       <path id="DejaVuSans-45" d="M 628 4666 
L 3578 4666 
L 3578 4134 
L 1259 4134 
L 1259 2753 
L 3481 2753 
L 3481 2222 
L 1259 2222 
L 1259 531 
L 3634 531 
L 3634 0 
L 628 0 
L 628 4666 
z
" transform="scale(0.015625)"/>
       <path id="DejaVuSans-5b" d="M 550 4863 
L 1875 4863 
L 1875 4416 
L 1125 4416 
L 1125 -397 
L 1875 -397 
L 1875 -844 
L 550 -844 
L 550 4863 
z
" transform="scale(0.015625)"/>
       <path id="DejaVuSans-6d" d="M 3328 2828 
Q 3544 3216 3844 3400 
Q 4144 3584 4550 3584 
Q 5097 3584 5394 3201 
Q 5691 2819 5691 2113 
L 5691 0 
L 5113 0 
L 5113 2094 
Q 5113 2597 4934 2840 
Q 4756 3084 4391 3084 
Q 3944 3084 3684 2787 
Q 3425 2491 3425 1978 
L 3425 0 
L 2847 0 
L 2847 2094 
Q 2847 2600 2669 2842 
Q 2491 3084 2119 3084 
Q 1678 3084 1418 2786 
Q 1159 2488 1159 1978 
L 1159 0 
L 581 0 
L 581 3500 
L 1159 3500 
L 1159 2956 
Q 1356 3278 1631 3431 
Q 1906 3584 2284 3584 
Q 2666 3584 2933 3390 
Q 3200 3197 3328 2828 
z
" transform="scale(0.015625)"/>
       <path id="DejaVuSans-5d" d="M 1947 4863 
L 1947 -844 
L 622 -844 
L 622 -397 
L 1369 -397 
L 1369 4416 
L 622 4416 
L 622 4863 
L 1947 4863 
z
" transform="scale(0.015625)"/>
      </defs>
      <use xlink:href="#DejaVuSans-44"/>
      <use xlink:href="#DejaVuSans-65" x="77.001953"/>
      <use xlink:href="#DejaVuSans-76" x="138.525391"/>
      <use xlink:href="#DejaVuSans-69" x="197.705078"/>
      <use xlink:href="#DejaVuSans-61" x="225.488281"/>
      <use xlink:href="#DejaVuSans-74" x="286.767578"/>
      <use xlink:href="#DejaVuSans-69" x="325.976562"/>
      <use xlink:href="#DejaVuSans-6f" x="353.759766"/>
      <use xlink:href="#DejaVuSans-6e" x="414.941406"/>
      <use xlink:href="#DejaVuSans-20" x="478.320312"/>
      <use xlink:href="#DejaVuSans-72" x="510.107422"/>
      <use xlink:href="#DejaVuSans-65" x="548.970703"/>
      <use xlink:href="#DejaVuSans-6c" x="610.494141"/>
      <use xlink:href="#DejaVuSans-61" x="638.277344"/>
      <use xlink:href="#DejaVuSans-74" x="699.556641"/>
      <use xlink:href="#DejaVuSans-69" x="738.765625"/>
      <use xlink:href="#DejaVuSans-76" x="766.548828"/>
      <use xlink:href="#DejaVuSans-65" x="825.728516"/>
      <use xlink:href="#DejaVuSans-20" x="887.251953"/>
      <use xlink:href="#DejaVuSans-74" x="919.039062"/>
      <use xlink:href="#DejaVuSans-6f" x="958.248047"/>
      <use xlink:href="#DejaVuSans-20" x="1019.429688"/>
      <use xlink:href="#DejaVuSans-72" x="1051.216797"/>
      <use xlink:href="#DejaVuSans-65" x="1090.080078"/>
      <use xlink:href="#DejaVuSans-66" x="1151.603516"/>
      <use xlink:href="#DejaVuSans-65" x="1186.808594"/>
      <use xlink:href="#DejaVuSans-72" x="1248.332031"/>
      <use xlink:href="#DejaVuSans-65" x="1287.195312"/>
      <use xlink:href="#DejaVuSans-6e" x="1348.71875"/>
      <use xlink:href="#DejaVuSans-63" x="1412.097656"/>
      <use xlink:href="#DejaVuSans-65" x="1467.078125"/>
      <use xlink:href="#DejaVuSans-20" x="1528.601562"/>
      <use xlink:href="#DejaVuSans-70" x="1560.388672"/>
      <use xlink:href="#DejaVuSans-6f" x="1623.865234"/>
      <use xlink:href="#DejaVuSans-69" x="1685.046875"/>
      <use xlink:href="#DejaVuSans-6e" x="1712.830078"/>
      <use xlink:href="#DejaVuSans-74" x="1776.208984"/>
      <use xlink:href="#DejaVuSans-2c" x="1815.417969"/>
      <use xlink:href="#DejaVuSans-20" x="1847.205078"/>
      <use xlink:href="#DejaVuSans-61" x="1878.992188"/>
      <use xlink:href="#DejaVuSans-78" x="1940.271484"/>
      <use xlink:href="#DejaVuSans-69" x="1999.451172"/>
      <use xlink:href="#DejaVuSans-73" x="2027.234375"/>
      <use xlink:href="#DejaVuSans-20" x="2079.333984"/>
      <use xlink:href="#DejaVuSans-45" x="2111.121094"/>
      <use xlink:href="#DejaVuSans-20" x="2174.304688"/>
      <use xlink:href="#DejaVuSans-5b" x="2206.091797"/>
      <use xlink:href="#DejaVuSans-6d" x="2245.105469"/>
      <use xlink:href="#DejaVuSans-5d" x="2342.517578"/>
     </g>
    </g>
   </g>
   <g id="matplotlib.axis_2">
    <g id="ytick_1">
     <g id="line2d_11">
      <path d="M 86.276032 302.437095 
L 386.043968 302.437095 
" clip-path="url(#p1d95a46c06)" style="fill: none; stroke: #b0b0b0; stroke-width: 0.8; stroke-linecap: square"/>
     </g>
     <g id="line2d_12">
      <defs>
       <path id="ma0396312d9" d="M 0 0 
L -3.5 0 
" style="stroke: #000000; stroke-width: 0.8"/>
      </defs>
      <g>
       <use xlink:href="#ma0396312d9" x="86.276032" y="302.437095" style="stroke: #000000; stroke-width: 0.8"/>
      </g>
     </g>
     <g id="text_7">
      <!-- −4 -->
      <g transform="translate(64.533845 306.236314)scale(0.1 -0.1)">
       <use xlink:href="#DejaVuSans-2212"/>
       <use xlink:href="#DejaVuSans-34" x="83.789062"/>
      </g>
     </g>
    </g>
    <g id="ytick_2">
     <g id="line2d_13">
      <path d="M 86.276032 246.276889 
L 386.043968 246.276889 
" clip-path="url(#p1d95a46c06)" style="fill: none; stroke: #b0b0b0; stroke-width: 0.8; stroke-linecap: square"/>
     </g>
     <g id="line2d_14">
      <g>
       <use xlink:href="#ma0396312d9" x="86.276032" y="246.276889" style="stroke: #000000; stroke-width: 0.8"/>
      </g>
     </g>
     <g id="text_8">
      <!-- −2 -->
      <g transform="translate(64.533845 250.076108)scale(0.1 -0.1)">
       <use xlink:href="#DejaVuSans-2212"/>
       <use xlink:href="#DejaVuSans-32" x="83.789062"/>
      </g>
     </g>
    </g>
    <g id="ytick_3">
     <g id="line2d_15">
      <path d="M 86.276032 190.116683 
L 386.043968 190.116683 
" clip-path="url(#p1d95a46c06)" style="fill: none; stroke: #b0b0b0; stroke-width: 0.8; stroke-linecap: square"/>
     </g>
     <g id="line2d_16">
      <g>
       <use xlink:href="#ma0396312d9" x="86.276032" y="190.116683" style="stroke: #000000; stroke-width: 0.8"/>
      </g>
     </g>
     <g id="text_9">
      <!-- 0 -->
      <g transform="translate(72.913532 193.915902)scale(0.1 -0.1)">
       <use xlink:href="#DejaVuSans-30"/>
      </g>
     </g>
    </g>
    <g id="ytick_4">
     <g id="line2d_17">
      <path d="M 86.276032 133.956477 
L 386.043968 133.956477 
" clip-path="url(#p1d95a46c06)" style="fill: none; stroke: #b0b0b0; stroke-width: 0.8; stroke-linecap: square"/>
     </g>
     <g id="line2d_18">
      <g>
       <use xlink:href="#ma0396312d9" x="86.276032" y="133.956477" style="stroke: #000000; stroke-width: 0.8"/>
      </g>
     </g>
     <g id="text_10">
      <!-- 2 -->
      <g transform="translate(72.913532 137.755696)scale(0.1 -0.1)">
       <use xlink:href="#DejaVuSans-32"/>
      </g>
     </g>
    </g>
    <g id="ytick_5">
     <g id="line2d_19">
      <path d="M 86.276032 77.796271 
L 386.043968 77.796271 
" clip-path="url(#p1d95a46c06)" style="fill: none; stroke: #b0b0b0; stroke-width: 0.8; stroke-linecap: square"/>
     </g>
     <g id="line2d_20">
      <g>
       <use xlink:href="#ma0396312d9" x="86.276032" y="77.796271" style="stroke: #000000; stroke-width: 0.8"/>
      </g>
     </g>
     <g id="text_11">
      <!-- 4 -->
      <g transform="translate(72.913532 81.59549)scale(0.1 -0.1)">
       <use xlink:href="#DejaVuSans-34"/>
      </g>
     </g>
    </g>
    <g id="text_12">
     <!-- Deviation relative to reference point, axis N [m] -->
     <g transform="translate(58.454157 294.185812)rotate(-90)scale(0.1 -0.1)">
      <defs>
       <path id="DejaVuSans-4e" d="M 628 4666 
L 1478 4666 
L 3547 763 
L 3547 4666 
L 4159 4666 
L 4159 0 
L 3309 0 
L 1241 3903 
L 1241 0 
L 628 0 
L 628 4666 
z
" transform="scale(0.015625)"/>
      </defs>
      <use xlink:href="#DejaVuSans-44"/>
      <use xlink:href="#DejaVuSans-65" x="77.001953"/>
      <use xlink:href="#DejaVuSans-76" x="138.525391"/>
      <use xlink:href="#DejaVuSans-69" x="197.705078"/>
      <use xlink:href="#DejaVuSans-61" x="225.488281"/>
      <use xlink:href="#DejaVuSans-74" x="286.767578"/>
      <use xlink:href="#DejaVuSans-69" x="325.976562"/>
      <use xlink:href="#DejaVuSans-6f" x="353.759766"/>
      <use xlink:href="#DejaVuSans-6e" x="414.941406"/>
      <use xlink:href="#DejaVuSans-20" x="478.320312"/>
      <use xlink:href="#DejaVuSans-72" x="510.107422"/>
      <use xlink:href="#DejaVuSans-65" x="548.970703"/>
      <use xlink:href="#DejaVuSans-6c" x="610.494141"/>
      <use xlink:href="#DejaVuSans-61" x="638.277344"/>
      <use xlink:href="#DejaVuSans-74" x="699.556641"/>
      <use xlink:href="#DejaVuSans-69" x="738.765625"/>
      <use xlink:href="#DejaVuSans-76" x="766.548828"/>
      <use xlink:href="#DejaVuSans-65" x="825.728516"/>
      <use xlink:href="#DejaVuSans-20" x="887.251953"/>
      <use xlink:href="#DejaVuSans-74" x="919.039062"/>
      <use xlink:href="#DejaVuSans-6f" x="958.248047"/>
      <use xlink:href="#DejaVuSans-20" x="1019.429688"/>
      <use xlink:href="#DejaVuSans-72" x="1051.216797"/>
      <use xlink:href="#DejaVuSans-65" x="1090.080078"/>
      <use xlink:href="#DejaVuSans-66" x="1151.603516"/>
      <use xlink:href="#DejaVuSans-65" x="1186.808594"/>
      <use xlink:href="#DejaVuSans-72" x="1248.332031"/>
      <use xlink:href="#DejaVuSans-65" x="1287.195312"/>
      <use xlink:href="#DejaVuSans-6e" x="1348.71875"/>
      <use xlink:href="#DejaVuSans-63" x="1412.097656"/>
      <use xlink:href="#DejaVuSans-65" x="1467.078125"/>
      <use xlink:href="#DejaVuSans-20" x="1528.601562"/>
      <use xlink:href="#DejaVuSans-70" x="1560.388672"/>
      <use xlink:href="#DejaVuSans-6f" x="1623.865234"/>
      <use xlink:href="#DejaVuSans-69" x="1685.046875"/>
      <use xlink:href="#DejaVuSans-6e" x="1712.830078"/>
      <use xlink:href="#DejaVuSans-74" x="1776.208984"/>
      <use xlink:href="#DejaVuSans-2c" x="1815.417969"/>
      <use xlink:href="#DejaVuSans-20" x="1847.205078"/>
      <use xlink:href="#DejaVuSans-61" x="1878.992188"/>
      <use xlink:href="#DejaVuSans-78" x="1940.271484"/>
      <use xlink:href="#DejaVuSans-69" x="1999.451172"/>
      <use xlink:href="#DejaVuSans-73" x="2027.234375"/>
      <use xlink:href="#DejaVuSans-20" x="2079.333984"/>
      <use xlink:href="#DejaVuSans-4e" x="2111.121094"/>
      <use xlink:href="#DejaVuSans-20" x="2185.925781"/>
      <use xlink:href="#DejaVuSans-5b" x="2217.712891"/>
      <use xlink:href="#DejaVuSans-6d" x="2256.726562"/>
      <use xlink:href="#DejaVuSans-5d" x="2354.138672"/>
     </g>
    </g>
   </g>
   <g id="line2d_21">
    <path d="M 214.274691 168.351571 
L 209.900793 174.550113 
L 205.494969 183.87004 
L 194.560268 199.366382 
L 190.154416 208.686308 
L 185.81253 211.763494 
L 185.780546 214.88485 
L 183.593612 217.984136 
L 183.529645 224.226876 
L 183.529645 224.226876 
L 187.839576 224.271074 
L 181.278772 233.568874 
L 181.246789 236.690258 
L 179.027871 242.910899 
L 176.840937 246.010156 
L 178.995888 246.032255 
L 178.995888 246.032255 
L 176.77697 252.252897 
L 174.590036 255.352182 
L 181.118884 249.175739 
L 185.46077 246.098553 
L 189.834667 239.90001 
L 187.61575 246.120652 
L 183.24188 252.319194 
L 183.24188 252.319194 
L 189.770701 246.142751 
L 194.144598 239.944208 
L 196.363488 233.723567 
L 196.363488 233.723567 
L 194.176553 236.822852 
L 194.176553 236.822852 
L 192.053585 233.679369 
L 189.866623 236.778654 
L 192.053585 233.679369 
L 189.898606 233.65727 
L 187.711671 236.756555 
L 183.369785 239.833713 
L 183.401741 236.712357 
L 178.995888 246.032255 
L 172.467068 252.208699 
L 170.312088 252.1866 
L 165.970202 255.263786 
L 161.596305 261.462328 
L 152.912505 267.616673 
L 157.286402 261.41813 
L 155.09944 264.517387 
L 150.757554 267.594573 
L 144.228705 273.771017 
L 135.480939 286.168101 
L 137.635918 286.190201 
L 131.107069 292.366644 
L 131.075086 295.488 
L 131.075086 295.488 
L 135.417 292.410842 
L 137.571952 292.432941 
L 141.913866 289.355755 
L 146.287735 283.157212 
L 150.629649 280.080054 
L 152.7846 280.102153 
L 152.7846 280.102153 
L 154.971535 277.002868 
L 159.313449 273.92571 
L 161.4684 273.947809 
L 165.842297 267.749267 
L 165.842297 267.749267 
L 170.1522 267.793465 
L 172.339163 264.69418 
L 174.494114 264.716279 
L 176.681049 261.617022 
L 178.836028 261.639121 
L 183.209897 255.440578 
L 185.364849 255.462677 
L 191.92568 246.16485 
L 194.144598 239.944208 
L 196.331533 236.844951 
L 198.550423 230.62431 
L 200.737385 227.525025 
L 207.266206 221.348581 
L 209.485124 215.12794 
L 213.827038 212.050754 
L 216.045927 205.830112 
L 224.857632 187.190287 
L 229.231501 180.991745 
L 227.044567 184.091002 
L 240.358046 146.767154 
L 249.073801 137.491425 
L 253.479653 128.171527 
L 255.698571 121.950885 
L 257.885506 118.8516 
L 257.917461 115.730244 
L 260.136378 109.509574 
L 264.542231 100.189676 
L 275.476904 84.693306 
L 275.476904 84.693306 
L 275.540842 78.450566 
L 277.75976 72.229924 
L 284.320564 62.932097 
L 286.571437 53.590099 
L 286.571437 53.590099 
L 284.416485 53.568 
L 271.294878 72.163627 
L 269.139927 72.141528 
L 269.107943 75.262912 
L 266.952992 75.240813 
L 266.921009 78.362169 
L 264.766057 78.34007 
L 262.579123 81.439356 
L 262.54714 84.560712 
L 260.360205 87.659997 
L 262.515156 87.682096 
L 262.515156 87.682096 
L 260.328222 90.781353 
L 260.2323 100.145478 
L 260.2323 100.145478 
L 262.355296 103.288933 
L 262.355296 103.288933 
L 262.323313 106.410317 
L 264.478293 106.432416 
L 264.446309 109.553772 
L 266.569277 112.697256 
L 266.441401 125.182737 
L 268.596352 125.204836 
L 268.436492 140.811673 
L 272.746395 140.855871 
L 272.746395 140.855871 
L 274.869391 143.999354 
L 274.741486 156.484835 
L 276.864482 159.62829 
L 276.864482 159.62829 
L 276.832499 162.749674 
L 278.955495 165.89313 
L 278.859573 175.257254 
L 280.950586 181.522094 
L 278.731669 187.742735 
L 278.571809 203.3496 
L 276.384874 206.448857 
L 276.320907 212.691598 
L 274.133973 215.790883 
L 274.102018 218.912239 
L 271.915083 222.011524 
L 271.8831 225.132881 
L 269.696165 228.232166 
L 269.632227 234.474906 
L 267.445264 237.574163 
L 267.381326 243.816904 
L 265.226375 243.794833 
L 265.09847 256.280314 
L 265.194391 246.916189 
L 267.349343 246.938288 
L 267.349343 246.938288 
L 267.381326 243.816904 
L 267.381326 243.816904 
L 269.536277 243.839003 
L 269.600244 237.596262 
L 269.600244 237.596262 
L 271.755195 237.618361 
L 271.755195 237.618361 
L 271.819162 231.375621 
L 273.974113 231.39772 
L 273.974113 231.39772 
L 274.038051 225.15498 
L 276.193031 225.177079 
L 276.256969 218.934338 
L 276.256969 218.934338 
L 282.817773 209.636511 
L 282.817773 209.636511 
L 282.849756 206.515155 
L 285.036691 203.415869 
L 285.036691 203.415869 
L 285.132612 194.051773 
L 285.132612 194.051773 
L 282.977661 194.029674 
L 283.009616 190.908289 
L 283.009616 190.908289 
L 280.854665 190.88619 
L 283.009616 190.908289 
L 283.073583 184.665549 
L 285.228534 184.687648 
L 285.292472 178.444908 
L 287.479407 175.34565 
L 287.479407 175.34565 
L 287.543373 169.10291 
L 289.730308 166.003625 
L 289.762263 162.882269 
L 289.762263 162.882269 
L 291.917243 162.90434 
L 291.949198 159.782983 
L 291.885259 166.025724 
L 291.885259 166.025724 
L 289.698325 169.125009 
L 289.57042 181.61049 
L 293.880351 181.65466 
L 293.880351 181.65466 
L 296.067285 178.555403 
L 304.687147 178.643799 
L 304.687147 178.643799 
L 306.874081 175.544514 
L 306.874081 175.544514 
L 309.029033 175.566613 
L 308.997049 178.687997 
L 311.152029 178.710068 
L 311.152029 178.710068 
L 313.274997 181.853551 
L 315.461932 178.754266 
L 315.429976 181.87565 
L 319.739907 181.919848 
L 319.707924 185.041205 
L 324.017855 185.085403 
L 323.985872 188.206787 
L 330.450754 188.273056 
L 330.41877 191.39444 
L 332.57375 191.416539 
L 332.57375 191.416539 
L 334.696718 194.559995 
L 336.851697 194.582094 
L 336.883653 191.460737 
L 339.038632 191.482836 
L 341.225567 188.383551 
L 341.225567 188.383551 
L 345.535497 188.427749 
L 345.567452 185.306365 
L 345.567452 185.306365 
L 347.722432 185.328464 
L 347.722432 185.328464 
L 347.754387 182.207108 
L 345.599436 182.185009 
L 345.631391 179.063625 
L 345.599436 182.185009 
L 347.754387 182.207108 
L 347.722432 185.328464 
L 347.722432 185.328464 
L 349.877383 185.350563 
L 349.877383 185.350563 
L 352.064318 182.251278 
L 352.064318 182.251278 
L 352.096301 179.129922 
L 352.064318 182.251278 
L 354.251252 179.152021 
L 354.251252 179.152021 
L 349.941322 179.107823 
L 349.941322 179.107823 
L 347.754387 182.207108 
L 347.754387 182.207108 
L 347.722432 185.328464 
L 347.722432 185.328464 
L 345.567452 185.306365 
L 345.471531 194.67049 
L 343.31658 194.648391 
L 343.156719 210.255228 
L 340.969785 213.354513 
L 340.969785 213.354513 
L 340.873863 222.718638 
L 338.686929 225.817895 
L 338.654945 228.939279 
L 340.809925 228.961378 
L 340.777942 232.082734 
L 338.62299 232.060635 
L 338.527069 241.42476 
L 340.68202 241.446859 
L 340.68202 241.446859 
L 340.650037 244.568215 
L 340.650037 244.568215 
L 344.959968 244.612413 
L 344.959968 244.612413 
L 344.928012 247.733797 
L 347.082964 247.755868 
L 347.05098 250.877253 
L 344.864046 253.976538 
L 347.019025 253.998637 
L 346.923104 263.362733 
L 344.768124 263.340634 
L 344.768124 263.340634 
L 340.52216 257.053696 
L 338.367181 257.031597 
L 338.367181 257.031597 
L 336.244212 253.888142 
L 334.089233 253.866043 
L 334.089233 253.866043 
L 329.843269 247.579104 
L 327.688289 247.557005 
L 327.688289 247.557005 
L 317.073364 231.839673 
L 317.073364 231.839673 
L 314.918385 231.817574 
L 312.795417 228.674119 
L 312.795417 228.674119 
L 306.330507 228.607821 
L 306.36249 225.486437 
L 306.36249 225.486437 
L 304.207539 225.464338 
L 304.207539 225.464338 
L 299.961546 219.1774 
L 299.961546 219.1774 
L 300.377216 178.599601 
L 300.377216 178.599601 
L 302.532167 178.6217 
L 300.345233 181.720957 
L 300.345233 181.720957 
L 304.655164 181.765155 
L 304.687147 178.643799 
L 306.842098 178.665898 
L 309.029033 175.566613 
L 309.029033 175.566613 
L 311.183984 175.588712 
L 313.30698 178.732167 
L 313.30698 178.732167 
L 319.771862 178.798464 
L 319.771862 178.798464 
L 321.958797 175.699207 
L 326.268728 175.743377 
L 328.455662 172.64412 
L 328.455662 172.64412 
L 330.610614 172.666219 
L 330.642597 169.544835 
L 332.797548 169.566934 
L 332.861515 163.324193 
L 335.048449 160.224936 
L 335.048449 160.224936 
L 335.080404 157.103552 
L 335.080404 157.103552 
L 332.957408 153.960097 
L 332.957408 153.960097 
L 332.989392 150.838712 
L 332.989392 150.838712 
L 330.83444 150.816613 
L 330.83444 150.816613 
L 330.898379 144.573873 
L 333.085313 141.474588 
L 333.117296 138.353232 
L 333.117296 138.353232 
L 330.962317 138.331133 
L 330.962317 138.331133 
L 328.839349 135.187677 
L 328.839349 135.187677 
L 326.684369 135.165578 
L 326.684369 135.165578 
L 324.497435 138.264835 
L 324.529418 135.143479 
L 324.497435 138.264835 
L 320.187532 138.220637 
L 320.155549 141.342022 
L 318.000598 141.319923 
L 317.968614 144.441307 
L 318.000598 141.319923 
L 328.775382 141.430418 
L 328.775382 141.430418 
L 328.807366 138.309034 
L 330.962317 138.331133 
L 331.058239 128.967036 
L 331.058239 128.967036 
L 328.93527 125.823553 
L 328.93527 125.823553 
L 328.999209 119.580812 
L 316.069445 119.448218 
L 311.727531 122.525404 
L 307.417628 122.481206 
L 307.417628 122.481206 
L 307.321706 131.845331 
L 305.166755 131.823232 
L 300.824841 134.900418 
L 294.29602 141.076861 
L 287.799155 144.13192 
L 279.115355 150.286293 
L 276.960404 150.264194 
L 268.276604 156.418538 
L 266.089669 159.517823 
L 253.063983 168.749325 
L 250.877049 171.848611 
L 242.193249 178.002955 
L 237.883318 177.958757 
L 235.696383 181.058042 
L 231.354498 184.1352 
L 231.354498 184.1352 
L 227.044567 184.091002 
L 222.702681 187.168188 
L 220.515746 190.267473 
L 224.793694 193.433028 
L 226.980628 190.333742 
L 224.793694 193.433028 
L 222.638714 193.410929 
L 222.638714 193.410929 
L 222.702681 187.168188 
L 220.547701 187.146089 
L 220.547701 187.146089 
L 220.579685 184.024733 
L 216.269754 183.980535 
L 216.269754 183.980535 
L 214.146786 180.837052 
L 175.357465 180.439269 
L 158.053831 186.505217 
L 151.588949 186.43892 
L 140.782153 189.449809 
L 132.130337 192.482769 
L 129.975357 192.46067 
L 132.16232 189.361413 
L 132.16232 189.361413 
L 136.504206 186.284227 
L 140.814136 186.328425 
L 151.652888 180.196179 
L 145.188006 180.129882 
L 138.69114 183.184969 
L 138.69114 183.184969 
L 134.38121 183.140771 
L 134.38121 183.140771 
L 140.878075 180.085684 
L 149.52992 177.052724 
L 143.033054 180.107783 
L 134.413193 180.019387 
L 132.226258 183.118672 
L 130.071307 183.096573 
L 127.948311 179.95309 
L 127.948311 179.95309 
L 119.328477 179.864694 
L 119.296494 182.986078 
L 99.901848 182.787187 
L 106.36673 182.853484 
L 106.398713 179.7321 
L 104.243733 179.71 
L 112.89555 176.67704 
L 110.708616 179.776298 
L 115.018546 179.820496 
L 127.980294 176.831734 
L 134.445176 176.898031 
L 145.251972 173.887142 
L 147.406923 173.909241 
L 158.21372 170.89838 
L 164.678602 170.964677 
L 162.523622 170.942578 
L 171.175439 167.90959 
L 177.640321 167.975887 
L 181.982235 164.898729 
L 201.440848 158.85488 
L 210.060681 158.943276 
L 205.718796 162.020434 
L 212.215633 158.965375 
L 220.835494 159.053743 
L 242.449059 153.031993 
L 251.100875 149.999005 
L 246.758961 153.076191 
L 257.533774 153.186686 
L 253.191888 156.263845 
L 257.501791 156.308043 
L 261.843705 153.230885 
L 248.849974 159.341031 
L 257.533774 153.186686 
L 248.881957 156.219646 
L 259.720709 150.087401 
L 272.714439 143.977255 
L 272.746395 140.855871 
L 285.708142 137.867081 
L 285.740125 134.745725 
L 283.617129 131.602269 
L 296.610832 125.492095 
L 307.417628 122.481206 
L 313.914465 119.426147 
L 331.250082 110.238787 
L 339.901899 107.205827 
L 350.74065 101.073553 
L 363.702397 98.084763 
L 365.889304 94.985478 
L 365.889304 94.985478 
L 372.386169 91.930419 
L 372.418152 88.809035 
L 363.798291 88.720639 
L 355.146474 91.753627 
L 348.649637 94.808714 
L 340.029803 94.720318 
L 327.036073 100.830492 
L 324.881121 100.808393 
L 318.384256 103.86348 
L 309.732439 106.896468 
L 307.577488 106.874369 
L 292.428806 112.962416 
L 285.931969 116.017503 
L 283.776989 115.995404 
L 275.125172 119.028392 
L 264.318404 122.039253 
L 257.853522 121.972984 
L 253.511636 125.050142 
L 249.201706 125.005944 
L 244.85982 128.08313 
L 240.549889 128.038932 
L 234.053024 131.09402 
L 227.588141 131.027722 
L 223.246255 134.10488 
L 221.059321 137.204166 
L 216.74939 137.159968 
L 210.252525 140.215027 
L 205.910639 143.292213 
L 199.349835 152.59004 
L 199.317852 155.711397 
L 199.317852 155.711397 
L 201.472803 155.733496 
L 203.595799 158.876979 
L 205.782734 155.777694 
L 207.90573 158.921177 
L 214.370612 158.987474 
L 216.49358 162.130929 
L 220.803511 162.175127 
L 222.990446 159.075842 
L 225.113442 162.219326 
L 231.578324 162.285623 
L 233.765259 159.186337 
L 242.385092 159.274734 
L 246.758961 153.076191 
L 246.758961 153.076191 
L 248.913941 153.09829 
L 248.945896 149.976906 
L 248.945896 149.976906 
L 251.100875 149.999005 
L 251.100875 149.999005 
L 253.28781 146.899748 
L 253.28781 146.899748 
L 255.442761 146.921847 
L 259.81663 140.723305 
L 259.81663 140.723305 
L 264.126561 140.767503 
L 264.158544 137.646118 
L 264.158544 137.646118 
L 266.313496 137.668217 
L 266.313496 137.668217 
L 268.50043 134.568932 
L 272.810361 134.61313 
L 272.778378 137.734515 
L 274.965312 134.635229 
L 274.965312 134.635229 
L 277.120264 134.657328 
L 277.120264 134.657328 
L 279.307198 131.558071 
L 279.307198 131.558071 
L 283.617129 131.602269 
L 283.617129 131.602269 
L 285.804064 128.502984 
L 287.959015 128.525083 
L 287.990998 125.403699 
L 287.959015 128.525083 
L 290.14595 125.425798 
L 287.990998 125.403699 
L 287.959015 128.525083 
L 285.804064 128.502984 
L 285.804064 128.502984 
L 283.617129 131.602269 
L 277.152247 131.535972 
L 277.18423 128.414588 
L 277.18423 128.414588 
L 279.339182 128.436687 
L 277.18423 128.414588 
L 281.558099 122.216046 
L 281.526116 125.33743 
L 279.371165 125.315331 
L 277.18423 128.414588 
L 279.371165 125.315331 
L 283.681068 125.359501 
L 283.681068 125.359501 
L 288.022982 122.282343 
L 290.209916 119.183058 
L 303.235602 109.951527 
L 307.609471 103.752985 
L 311.919374 103.797183 
L 311.919374 103.797183 
L 314.106308 100.697898 
L 314.106308 100.697898 
L 311.951357 100.675827 
L 314.106308 100.697898 
L 322.854047 88.300813 
L 322.854047 88.300813 
L 320.731079 85.157358 
L 320.699095 88.278714 
L 316.389165 88.234516 
L 314.20223 91.333801 
L 312.047279 91.311702 
L 294.551802 116.105899 
L 294.487864 122.34864 
L 283.553191 137.84501 
L 283.521208 140.966366 
L 281.334273 144.065651 
L 276.992387 147.142809 
L 274.805452 150.242095 
L 272.586535 156.462736 
L 270.3996 159.561993 
L 268.244649 159.539922 
L 263.870751 165.738464 
L 259.560849 165.694266 
L 257.373914 168.793523 
L 253.032 171.87071 
L 250.845066 174.969967 
L 248.690114 174.947896 
L 244.3482 178.025054 
L 218.232862 202.730855 
L 205.207176 211.962358 
L 200.833307 218.1609 
L 181.246789 236.690258 
L 176.87292 242.8888 
L 168.18912 249.043145 
L 166.002157 252.142402 
L 159.473337 258.318845 
L 150.72557 270.71593 
L 146.383685 273.793116 
L 146.383685 273.793116 
" clip-path="url(#p1d95a46c06)" style="fill: none; stroke: #1f77b4; stroke-width: 1.5; stroke-linecap: square"/>
   </g>
   <g id="patch_3">
    <path d="M 86.276032 307.584 
L 86.276032 41.472 
" style="fill: none; stroke: #000000; stroke-width: 0.8; stroke-linejoin: miter; stroke-linecap: square"/>
   </g>
   <g id="patch_4">
    <path d="M 386.043968 307.584 
L 386.043968 41.472 
" style="fill: none; stroke: #000000; stroke-width: 0.8; stroke-linejoin: miter; stroke-linecap: square"/>
   </g>
   <g id="patch_5">
    <path d="M 86.276032 307.584 
L 386.043968 307.584 
" style="fill: none; stroke: #000000; stroke-width: 0.8; stroke-linejoin: miter; stroke-linecap: square"/>
   </g>
   <g id="patch_6">
    <path d="M 86.276032 41.472 
L 386.043968 41.472 
" style="fill: none; stroke: #000000; stroke-width: 0.8; stroke-linejoin: miter; stroke-linecap: square"/>
   </g>
  </g>
 </g>
 <defs>
  <clipPath id="p1d95a46c06">
   <rect x="86.276032" y="41.472" width="299.767935" height="266.112"/>
  </clipPath>
 </defs>
</svg>
