<?xml version="1.0" encoding="utf-8" standalone="no"?>
<!DOCTYPE svg PUBLIC "-//W3C//DTD SVG 1.1//EN"
  "http://www.w3.org/Graphics/SVG/1.1/DTD/svg11.dtd">
<svg xmlns:xlink="http://www.w3.org/1999/xlink" width="460.8pt" height="345.6pt" viewBox="0 0 460.8 345.6" xmlns="http://www.w3.org/2000/svg" version="1.1">
 <metadata>
  <rdf:RDF xmlns:dc="http://purl.org/dc/elements/1.1/" xmlns:cc="http://creativecommons.org/ns#" xmlns:rdf="http://www.w3.org/1999/02/22-rdf-syntax-ns#">
   <cc:Work>
    <dc:type rdf:resource="http://purl.org/dc/dcmitype/StillImage"/>
    <dc:date>2021-11-21T14:39:00.425407</dc:date>
    <dc:format>image/svg+xml</dc:format>
    <dc:creator>
     <cc:Agent>
      <dc:title>Matplotlib v3.5.0, https://matplotlib.org/</dc:title>
     </cc:Agent>
    </dc:creator>
   </cc:Work>
  </rdf:RDF>
 </metadata>
 <defs>
  <style type="text/css">*{stroke-linejoin: round; stroke-linecap: butt}</style>
 </defs>
 <g id="figure_1">
  <g id="patch_1">
   <path d="M 0 345.6 
L 460.8 345.6 
L 460.8 0 
L 0 0 
z
" style="fill: #ffffff"/>
  </g>
  <g id="axes_1">
   <g id="patch_2">
    <path d="M 57.6 307.584 
L 414.72 307.584 
L 414.72 41.472 
L 57.6 41.472 
z
" style="fill: #ffffff"/>
   </g>
   <g id="matplotlib.axis_1">
    <g id="xtick_1">
     <g id="line2d_1">
      <path d="M 73.832727 307.584 
L 73.832727 41.472 
" clip-path="url(#pb608a97fbe)" style="fill: none; stroke: #b0b0b0; stroke-width: 0.8; stroke-linecap: square"/>
     </g>
     <g id="line2d_2">
      <defs>
       <path id="m738e2d2f4f" d="M 0 0 
L 0 3.5 
" style="stroke: #000000; stroke-width: 0.8"/>
      </defs>
      <g>
       <use xlink:href="#m738e2d2f4f" x="73.832727" y="307.584" style="stroke: #000000; stroke-width: 0.8"/>
      </g>
     </g>
     <g id="text_1">
      <!-- 0 -->
      <g transform="translate(70.651477 322.182437)scale(0.1 -0.1)">
       <defs>
        <path id="DejaVuSans-30" d="M 2034 4250 
Q 1547 4250 1301 3770 
Q 1056 3291 1056 2328 
Q 1056 1369 1301 889 
Q 1547 409 2034 409 
Q 2525 409 2770 889 
Q 3016 1369 3016 2328 
Q 3016 3291 2770 3770 
Q 2525 4250 2034 4250 
z
M 2034 4750 
Q 2819 4750 3233 4129 
Q 3647 3509 3647 2328 
Q 3647 1150 3233 529 
Q 2819 -91 2034 -91 
Q 1250 -91 836 529 
Q 422 1150 422 2328 
Q 422 3509 836 4129 
Q 1250 4750 2034 4750 
z
" transform="scale(0.015625)"/>
       </defs>
       <use xlink:href="#DejaVuSans-30"/>
      </g>
     </g>
    </g>
    <g id="xtick_2">
     <g id="line2d_3">
      <path d="M 138.828632 307.584 
L 138.828632 41.472 
" clip-path="url(#pb608a97fbe)" style="fill: none; stroke: #b0b0b0; stroke-width: 0.8; stroke-linecap: square"/>
     </g>
     <g id="line2d_4">
      <g>
       <use xlink:href="#m738e2d2f4f" x="138.828632" y="307.584" style="stroke: #000000; stroke-width: 0.8"/>
      </g>
     </g>
     <g id="text_2">
      <!-- 200 -->
      <g transform="translate(129.284882 322.182437)scale(0.1 -0.1)">
       <defs>
        <path id="DejaVuSans-32" d="M 1228 531 
L 3431 531 
L 3431 0 
L 469 0 
L 469 531 
Q 828 903 1448 1529 
Q 2069 2156 2228 2338 
Q 2531 2678 2651 2914 
Q 2772 3150 2772 3378 
Q 2772 3750 2511 3984 
Q 2250 4219 1831 4219 
Q 1534 4219 1204 4116 
Q 875 4013 500 3803 
L 500 4441 
Q 881 4594 1212 4672 
Q 1544 4750 1819 4750 
Q 2544 4750 2975 4387 
Q 3406 4025 3406 3419 
Q 3406 3131 3298 2873 
Q 3191 2616 2906 2266 
Q 2828 2175 2409 1742 
Q 1991 1309 1228 531 
z
" transform="scale(0.015625)"/>
       </defs>
       <use xlink:href="#DejaVuSans-32"/>
       <use xlink:href="#DejaVuSans-30" x="63.623047"/>
       <use xlink:href="#DejaVuSans-30" x="127.246094"/>
      </g>
     </g>
    </g>
    <g id="xtick_3">
     <g id="line2d_5">
      <path d="M 203.824537 307.584 
L 203.824537 41.472 
" clip-path="url(#pb608a97fbe)" style="fill: none; stroke: #b0b0b0; stroke-width: 0.8; stroke-linecap: square"/>
     </g>
     <g id="line2d_6">
      <g>
       <use xlink:href="#m738e2d2f4f" x="203.824537" y="307.584" style="stroke: #000000; stroke-width: 0.8"/>
      </g>
     </g>
     <g id="text_3">
      <!-- 400 -->
      <g transform="translate(194.280787 322.182437)scale(0.1 -0.1)">
       <defs>
        <path id="DejaVuSans-34" d="M 2419 4116 
L 825 1625 
L 2419 1625 
L 2419 4116 
z
M 2253 4666 
L 3047 4666 
L 3047 1625 
L 3713 1625 
L 3713 1100 
L 3047 1100 
L 3047 0 
L 2419 0 
L 2419 1100 
L 313 1100 
L 313 1709 
L 2253 4666 
z
" transform="scale(0.015625)"/>
       </defs>
       <use xlink:href="#DejaVuSans-34"/>
       <use xlink:href="#DejaVuSans-30" x="63.623047"/>
       <use xlink:href="#DejaVuSans-30" x="127.246094"/>
      </g>
     </g>
    </g>
    <g id="xtick_4">
     <g id="line2d_7">
      <path d="M 268.820442 307.584 
L 268.820442 41.472 
" clip-path="url(#pb608a97fbe)" style="fill: none; stroke: #b0b0b0; stroke-width: 0.8; stroke-linecap: square"/>
     </g>
     <g id="line2d_8">
      <g>
       <use xlink:href="#m738e2d2f4f" x="268.820442" y="307.584" style="stroke: #000000; stroke-width: 0.8"/>
      </g>
     </g>
     <g id="text_4">
      <!-- 600 -->
      <g transform="translate(259.276692 322.182437)scale(0.1 -0.1)">
       <defs>
        <path id="DejaVuSans-36" d="M 2113 2584 
Q 1688 2584 1439 2293 
Q 1191 2003 1191 1497 
Q 1191 994 1439 701 
Q 1688 409 2113 409 
Q 2538 409 2786 701 
Q 3034 994 3034 1497 
Q 3034 2003 2786 2293 
Q 2538 2584 2113 2584 
z
M 3366 4563 
L 3366 3988 
Q 3128 4100 2886 4159 
Q 2644 4219 2406 4219 
Q 1781 4219 1451 3797 
Q 1122 3375 1075 2522 
Q 1259 2794 1537 2939 
Q 1816 3084 2150 3084 
Q 2853 3084 3261 2657 
Q 3669 2231 3669 1497 
Q 3669 778 3244 343 
Q 2819 -91 2113 -91 
Q 1303 -91 875 529 
Q 447 1150 447 2328 
Q 447 3434 972 4092 
Q 1497 4750 2381 4750 
Q 2619 4750 2861 4703 
Q 3103 4656 3366 4563 
z
" transform="scale(0.015625)"/>
       </defs>
       <use xlink:href="#DejaVuSans-36"/>
       <use xlink:href="#DejaVuSans-30" x="63.623047"/>
       <use xlink:href="#DejaVuSans-30" x="127.246094"/>
      </g>
     </g>
    </g>
    <g id="xtick_5">
     <g id="line2d_9">
      <path d="M 333.816347 307.584 
L 333.816347 41.472 
" clip-path="url(#pb608a97fbe)" style="fill: none; stroke: #b0b0b0; stroke-width: 0.8; stroke-linecap: square"/>
     </g>
     <g id="line2d_10">
      <g>
       <use xlink:href="#m738e2d2f4f" x="333.816347" y="307.584" style="stroke: #000000; stroke-width: 0.8"/>
      </g>
     </g>
     <g id="text_5">
      <!-- 800 -->
      <g transform="translate(324.272597 322.182437)scale(0.1 -0.1)">
       <defs>
        <path id="DejaVuSans-38" d="M 2034 2216 
Q 1584 2216 1326 1975 
Q 1069 1734 1069 1313 
Q 1069 891 1326 650 
Q 1584 409 2034 409 
Q 2484 409 2743 651 
Q 3003 894 3003 1313 
Q 3003 1734 2745 1975 
Q 2488 2216 2034 2216 
z
M 1403 2484 
Q 997 2584 770 2862 
Q 544 3141 544 3541 
Q 544 4100 942 4425 
Q 1341 4750 2034 4750 
Q 2731 4750 3128 4425 
Q 3525 4100 3525 3541 
Q 3525 3141 3298 2862 
Q 3072 2584 2669 2484 
Q 3125 2378 3379 2068 
Q 3634 1759 3634 1313 
Q 3634 634 3220 271 
Q 2806 -91 2034 -91 
Q 1263 -91 848 271 
Q 434 634 434 1313 
Q 434 1759 690 2068 
Q 947 2378 1403 2484 
z
M 1172 3481 
Q 1172 3119 1398 2916 
Q 1625 2713 2034 2713 
Q 2441 2713 2670 2916 
Q 2900 3119 2900 3481 
Q 2900 3844 2670 4047 
Q 2441 4250 2034 4250 
Q 1625 4250 1398 4047 
Q 1172 3844 1172 3481 
z
" transform="scale(0.015625)"/>
       </defs>
       <use xlink:href="#DejaVuSans-38"/>
       <use xlink:href="#DejaVuSans-30" x="63.623047"/>
       <use xlink:href="#DejaVuSans-30" x="127.246094"/>
      </g>
     </g>
    </g>
    <g id="xtick_6">
     <g id="line2d_11">
      <path d="M 398.812252 307.584 
L 398.812252 41.472 
" clip-path="url(#pb608a97fbe)" style="fill: none; stroke: #b0b0b0; stroke-width: 0.8; stroke-linecap: square"/>
     </g>
     <g id="line2d_12">
      <g>
       <use xlink:href="#m738e2d2f4f" x="398.812252" y="307.584" style="stroke: #000000; stroke-width: 0.8"/>
      </g>
     </g>
     <g id="text_6">
      <!-- 1000 -->
      <g transform="translate(386.087252 322.182437)scale(0.1 -0.1)">
       <defs>
        <path id="DejaVuSans-31" d="M 794 531 
L 1825 531 
L 1825 4091 
L 703 3866 
L 703 4441 
L 1819 4666 
L 2450 4666 
L 2450 531 
L 3481 531 
L 3481 0 
L 794 0 
L 794 531 
z
" transform="scale(0.015625)"/>
       </defs>
       <use xlink:href="#DejaVuSans-31"/>
       <use xlink:href="#DejaVuSans-30" x="63.623047"/>
       <use xlink:href="#DejaVuSans-30" x="127.246094"/>
       <use xlink:href="#DejaVuSans-30" x="190.869141"/>
      </g>
     </g>
    </g>
    <g id="text_7">
     <!-- Time [s] -->
     <g transform="translate(215.831094 335.860562)scale(0.1 -0.1)">
      <defs>
       <path id="DejaVuSans-54" d="M -19 4666 
L 3928 4666 
L 3928 4134 
L 2272 4134 
L 2272 0 
L 1638 0 
L 1638 4134 
L -19 4134 
L -19 4666 
z
" transform="scale(0.015625)"/>
       <path id="DejaVuSans-69" d="M 603 3500 
L 1178 3500 
L 1178 0 
L 603 0 
L 603 3500 
z
M 603 4863 
L 1178 4863 
L 1178 4134 
L 603 4134 
L 603 4863 
z
" transform="scale(0.015625)"/>
       <path id="DejaVuSans-6d" d="M 3328 2828 
Q 3544 3216 3844 3400 
Q 4144 3584 4550 3584 
Q 5097 3584 5394 3201 
Q 5691 2819 5691 2113 
L 5691 0 
L 5113 0 
L 5113 2094 
Q 5113 2597 4934 2840 
Q 4756 3084 4391 3084 
Q 3944 3084 3684 2787 
Q 3425 2491 3425 1978 
L 3425 0 
L 2847 0 
L 2847 2094 
Q 2847 2600 2669 2842 
Q 2491 3084 2119 3084 
Q 1678 3084 1418 2786 
Q 1159 2488 1159 1978 
L 1159 0 
L 581 0 
L 581 3500 
L 1159 3500 
L 1159 2956 
Q 1356 3278 1631 3431 
Q 1906 3584 2284 3584 
Q 2666 3584 2933 3390 
Q 3200 3197 3328 2828 
z
" transform="scale(0.015625)"/>
       <path id="DejaVuSans-65" d="M 3597 1894 
L 3597 1613 
L 953 1613 
Q 991 1019 1311 708 
Q 1631 397 2203 397 
Q 2534 397 2845 478 
Q 3156 559 3463 722 
L 3463 178 
Q 3153 47 2828 -22 
Q 2503 -91 2169 -91 
Q 1331 -91 842 396 
Q 353 884 353 1716 
Q 353 2575 817 3079 
Q 1281 3584 2069 3584 
Q 2775 3584 3186 3129 
Q 3597 2675 3597 1894 
z
M 3022 2063 
Q 3016 2534 2758 2815 
Q 2500 3097 2075 3097 
Q 1594 3097 1305 2825 
Q 1016 2553 972 2059 
L 3022 2063 
z
" transform="scale(0.015625)"/>
       <path id="DejaVuSans-20" transform="scale(0.015625)"/>
       <path id="DejaVuSans-5b" d="M 550 4863 
L 1875 4863 
L 1875 4416 
L 1125 4416 
L 1125 -397 
L 1875 -397 
L 1875 -844 
L 550 -844 
L 550 4863 
z
" transform="scale(0.015625)"/>
       <path id="DejaVuSans-73" d="M 2834 3397 
L 2834 2853 
Q 2591 2978 2328 3040 
Q 2066 3103 1784 3103 
Q 1356 3103 1142 2972 
Q 928 2841 928 2578 
Q 928 2378 1081 2264 
Q 1234 2150 1697 2047 
L 1894 2003 
Q 2506 1872 2764 1633 
Q 3022 1394 3022 966 
Q 3022 478 2636 193 
Q 2250 -91 1575 -91 
Q 1294 -91 989 -36 
Q 684 19 347 128 
L 347 722 
Q 666 556 975 473 
Q 1284 391 1588 391 
Q 1994 391 2212 530 
Q 2431 669 2431 922 
Q 2431 1156 2273 1281 
Q 2116 1406 1581 1522 
L 1381 1569 
Q 847 1681 609 1914 
Q 372 2147 372 2553 
Q 372 3047 722 3315 
Q 1072 3584 1716 3584 
Q 2034 3584 2315 3537 
Q 2597 3491 2834 3397 
z
" transform="scale(0.015625)"/>
       <path id="DejaVuSans-5d" d="M 1947 4863 
L 1947 -844 
L 622 -844 
L 622 -397 
L 1369 -397 
L 1369 4416 
L 622 4416 
L 622 4863 
L 1947 4863 
z
" transform="scale(0.015625)"/>
      </defs>
      <use xlink:href="#DejaVuSans-54"/>
      <use xlink:href="#DejaVuSans-69" x="57.958984"/>
      <use xlink:href="#DejaVuSans-6d" x="85.742188"/>
      <use xlink:href="#DejaVuSans-65" x="183.154297"/>
      <use xlink:href="#DejaVuSans-20" x="244.677734"/>
      <use xlink:href="#DejaVuSans-5b" x="276.464844"/>
      <use xlink:href="#DejaVuSans-73" x="315.478516"/>
      <use xlink:href="#DejaVuSans-5d" x="367.578125"/>
     </g>
    </g>
   </g>
   <g id="matplotlib.axis_2">
    <g id="ytick_1">
     <g id="line2d_13">
      <path d="M 57.6 269.568 
L 414.72 269.568 
" clip-path="url(#pb608a97fbe)" style="fill: none; stroke: #b0b0b0; stroke-width: 0.8; stroke-linecap: square"/>
     </g>
     <g id="line2d_14">
      <defs>
       <path id="me0b1e89e46" d="M 0 0 
L -3.5 0 
" style="stroke: #000000; stroke-width: 0.8"/>
      </defs>
      <g>
       <use xlink:href="#me0b1e89e46" x="57.6" y="269.568" style="stroke: #000000; stroke-width: 0.8"/>
      </g>
     </g>
     <g id="text_8">
      <!-- −1.0 -->
      <g transform="translate(26.317187 273.367219)scale(0.1 -0.1)">
       <defs>
        <path id="DejaVuSans-2212" d="M 678 2272 
L 4684 2272 
L 4684 1741 
L 678 1741 
L 678 2272 
z
" transform="scale(0.015625)"/>
        <path id="DejaVuSans-2e" d="M 684 794 
L 1344 794 
L 1344 0 
L 684 0 
L 684 794 
z
" transform="scale(0.015625)"/>
       </defs>
       <use xlink:href="#DejaVuSans-2212"/>
       <use xlink:href="#DejaVuSans-31" x="83.789062"/>
       <use xlink:href="#DejaVuSans-2e" x="147.412109"/>
       <use xlink:href="#DejaVuSans-30" x="179.199219"/>
      </g>
     </g>
    </g>
    <g id="ytick_2">
     <g id="line2d_15">
      <path d="M 57.6 222.048 
L 414.72 222.048 
" clip-path="url(#pb608a97fbe)" style="fill: none; stroke: #b0b0b0; stroke-width: 0.8; stroke-linecap: square"/>
     </g>
     <g id="line2d_16">
      <g>
       <use xlink:href="#me0b1e89e46" x="57.6" y="222.048" style="stroke: #000000; stroke-width: 0.8"/>
      </g>
     </g>
     <g id="text_9">
      <!-- −0.5 -->
      <g transform="translate(26.317187 225.847219)scale(0.1 -0.1)">
       <defs>
        <path id="DejaVuSans-35" d="M 691 4666 
L 3169 4666 
L 3169 4134 
L 1269 4134 
L 1269 2991 
Q 1406 3038 1543 3061 
Q 1681 3084 1819 3084 
Q 2600 3084 3056 2656 
Q 3513 2228 3513 1497 
Q 3513 744 3044 326 
Q 2575 -91 1722 -91 
Q 1428 -91 1123 -41 
Q 819 9 494 109 
L 494 744 
Q 775 591 1075 516 
Q 1375 441 1709 441 
Q 2250 441 2565 725 
Q 2881 1009 2881 1497 
Q 2881 1984 2565 2268 
Q 2250 2553 1709 2553 
Q 1456 2553 1204 2497 
Q 953 2441 691 2322 
L 691 4666 
z
" transform="scale(0.015625)"/>
       </defs>
       <use xlink:href="#DejaVuSans-2212"/>
       <use xlink:href="#DejaVuSans-30" x="83.789062"/>
       <use xlink:href="#DejaVuSans-2e" x="147.412109"/>
       <use xlink:href="#DejaVuSans-35" x="179.199219"/>
      </g>
     </g>
    </g>
    <g id="ytick_3">
     <g id="line2d_17">
      <path d="M 57.6 174.528 
L 414.72 174.528 
" clip-path="url(#pb608a97fbe)" style="fill: none; stroke: #b0b0b0; stroke-width: 0.8; stroke-linecap: square"/>
     </g>
     <g id="line2d_18">
      <g>
       <use xlink:href="#me0b1e89e46" x="57.6" y="174.528" style="stroke: #000000; stroke-width: 0.8"/>
      </g>
     </g>
     <g id="text_10">
      <!-- 0.0 -->
      <g transform="translate(34.696875 178.327219)scale(0.1 -0.1)">
       <use xlink:href="#DejaVuSans-30"/>
       <use xlink:href="#DejaVuSans-2e" x="63.623047"/>
       <use xlink:href="#DejaVuSans-30" x="95.410156"/>
      </g>
     </g>
    </g>
    <g id="ytick_4">
     <g id="line2d_19">
      <path d="M 57.6 127.008 
L 414.72 127.008 
" clip-path="url(#pb608a97fbe)" style="fill: none; stroke: #b0b0b0; stroke-width: 0.8; stroke-linecap: square"/>
     </g>
     <g id="line2d_20">
      <g>
       <use xlink:href="#me0b1e89e46" x="57.6" y="127.008" style="stroke: #000000; stroke-width: 0.8"/>
      </g>
     </g>
     <g id="text_11">
      <!-- 0.5 -->
      <g transform="translate(34.696875 130.807219)scale(0.1 -0.1)">
       <use xlink:href="#DejaVuSans-30"/>
       <use xlink:href="#DejaVuSans-2e" x="63.623047"/>
       <use xlink:href="#DejaVuSans-35" x="95.410156"/>
      </g>
     </g>
    </g>
    <g id="ytick_5">
     <g id="line2d_21">
      <path d="M 57.6 79.488 
L 414.72 79.488 
" clip-path="url(#pb608a97fbe)" style="fill: none; stroke: #b0b0b0; stroke-width: 0.8; stroke-linecap: square"/>
     </g>
     <g id="line2d_22">
      <g>
       <use xlink:href="#me0b1e89e46" x="57.6" y="79.488" style="stroke: #000000; stroke-width: 0.8"/>
      </g>
     </g>
     <g id="text_12">
      <!-- 1.0 -->
      <g transform="translate(34.696875 83.287219)scale(0.1 -0.1)">
       <use xlink:href="#DejaVuSans-31"/>
       <use xlink:href="#DejaVuSans-2e" x="63.623047"/>
       <use xlink:href="#DejaVuSans-30" x="95.410156"/>
      </g>
     </g>
    </g>
    <g id="text_13">
     <!-- Altitude variation from reference point [m] -->
     <g transform="translate(20.2375 281.147531)rotate(-90)scale(0.1 -0.1)">
      <defs>
       <path id="DejaVuSans-41" d="M 2188 4044 
L 1331 1722 
L 3047 1722 
L 2188 4044 
z
M 1831 4666 
L 2547 4666 
L 4325 0 
L 3669 0 
L 3244 1197 
L 1141 1197 
L 716 0 
L 50 0 
L 1831 4666 
z
" transform="scale(0.015625)"/>
       <path id="DejaVuSans-6c" d="M 603 4863 
L 1178 4863 
L 1178 0 
L 603 0 
L 603 4863 
z
" transform="scale(0.015625)"/>
       <path id="DejaVuSans-74" d="M 1172 4494 
L 1172 3500 
L 2356 3500 
L 2356 3053 
L 1172 3053 
L 1172 1153 
Q 1172 725 1289 603 
Q 1406 481 1766 481 
L 2356 481 
L 2356 0 
L 1766 0 
Q 1100 0 847 248 
Q 594 497 594 1153 
L 594 3053 
L 172 3053 
L 172 3500 
L 594 3500 
L 594 4494 
L 1172 4494 
z
" transform="scale(0.015625)"/>
       <path id="DejaVuSans-75" d="M 544 1381 
L 544 3500 
L 1119 3500 
L 1119 1403 
Q 1119 906 1312 657 
Q 1506 409 1894 409 
Q 2359 409 2629 706 
Q 2900 1003 2900 1516 
L 2900 3500 
L 3475 3500 
L 3475 0 
L 2900 0 
L 2900 538 
Q 2691 219 2414 64 
Q 2138 -91 1772 -91 
Q 1169 -91 856 284 
Q 544 659 544 1381 
z
M 1991 3584 
L 1991 3584 
z
" transform="scale(0.015625)"/>
       <path id="DejaVuSans-64" d="M 2906 2969 
L 2906 4863 
L 3481 4863 
L 3481 0 
L 2906 0 
L 2906 525 
Q 2725 213 2448 61 
Q 2172 -91 1784 -91 
Q 1150 -91 751 415 
Q 353 922 353 1747 
Q 353 2572 751 3078 
Q 1150 3584 1784 3584 
Q 2172 3584 2448 3432 
Q 2725 3281 2906 2969 
z
M 947 1747 
Q 947 1113 1208 752 
Q 1469 391 1925 391 
Q 2381 391 2643 752 
Q 2906 1113 2906 1747 
Q 2906 2381 2643 2742 
Q 2381 3103 1925 3103 
Q 1469 3103 1208 2742 
Q 947 2381 947 1747 
z
" transform="scale(0.015625)"/>
       <path id="DejaVuSans-76" d="M 191 3500 
L 800 3500 
L 1894 563 
L 2988 3500 
L 3597 3500 
L 2284 0 
L 1503 0 
L 191 3500 
z
" transform="scale(0.015625)"/>
       <path id="DejaVuSans-61" d="M 2194 1759 
Q 1497 1759 1228 1600 
Q 959 1441 959 1056 
Q 959 750 1161 570 
Q 1363 391 1709 391 
Q 2188 391 2477 730 
Q 2766 1069 2766 1631 
L 2766 1759 
L 2194 1759 
z
M 3341 1997 
L 3341 0 
L 2766 0 
L 2766 531 
Q 2569 213 2275 61 
Q 1981 -91 1556 -91 
Q 1019 -91 701 211 
Q 384 513 384 1019 
Q 384 1609 779 1909 
Q 1175 2209 1959 2209 
L 2766 2209 
L 2766 2266 
Q 2766 2663 2505 2880 
Q 2244 3097 1772 3097 
Q 1472 3097 1187 3025 
Q 903 2953 641 2809 
L 641 3341 
Q 956 3463 1253 3523 
Q 1550 3584 1831 3584 
Q 2591 3584 2966 3190 
Q 3341 2797 3341 1997 
z
" transform="scale(0.015625)"/>
       <path id="DejaVuSans-72" d="M 2631 2963 
Q 2534 3019 2420 3045 
Q 2306 3072 2169 3072 
Q 1681 3072 1420 2755 
Q 1159 2438 1159 1844 
L 1159 0 
L 581 0 
L 581 3500 
L 1159 3500 
L 1159 2956 
Q 1341 3275 1631 3429 
Q 1922 3584 2338 3584 
Q 2397 3584 2469 3576 
Q 2541 3569 2628 3553 
L 2631 2963 
z
" transform="scale(0.015625)"/>
       <path id="DejaVuSans-6f" d="M 1959 3097 
Q 1497 3097 1228 2736 
Q 959 2375 959 1747 
Q 959 1119 1226 758 
Q 1494 397 1959 397 
Q 2419 397 2687 759 
Q 2956 1122 2956 1747 
Q 2956 2369 2687 2733 
Q 2419 3097 1959 3097 
z
M 1959 3584 
Q 2709 3584 3137 3096 
Q 3566 2609 3566 1747 
Q 3566 888 3137 398 
Q 2709 -91 1959 -91 
Q 1206 -91 779 398 
Q 353 888 353 1747 
Q 353 2609 779 3096 
Q 1206 3584 1959 3584 
z
" transform="scale(0.015625)"/>
       <path id="DejaVuSans-6e" d="M 3513 2113 
L 3513 0 
L 2938 0 
L 2938 2094 
Q 2938 2591 2744 2837 
Q 2550 3084 2163 3084 
Q 1697 3084 1428 2787 
Q 1159 2491 1159 1978 
L 1159 0 
L 581 0 
L 581 3500 
L 1159 3500 
L 1159 2956 
Q 1366 3272 1645 3428 
Q 1925 3584 2291 3584 
Q 2894 3584 3203 3211 
Q 3513 2838 3513 2113 
z
" transform="scale(0.015625)"/>
       <path id="DejaVuSans-66" d="M 2375 4863 
L 2375 4384 
L 1825 4384 
Q 1516 4384 1395 4259 
Q 1275 4134 1275 3809 
L 1275 3500 
L 2222 3500 
L 2222 3053 
L 1275 3053 
L 1275 0 
L 697 0 
L 697 3053 
L 147 3053 
L 147 3500 
L 697 3500 
L 697 3744 
Q 697 4328 969 4595 
Q 1241 4863 1831 4863 
L 2375 4863 
z
" transform="scale(0.015625)"/>
       <path id="DejaVuSans-63" d="M 3122 3366 
L 3122 2828 
Q 2878 2963 2633 3030 
Q 2388 3097 2138 3097 
Q 1578 3097 1268 2742 
Q 959 2388 959 1747 
Q 959 1106 1268 751 
Q 1578 397 2138 397 
Q 2388 397 2633 464 
Q 2878 531 3122 666 
L 3122 134 
Q 2881 22 2623 -34 
Q 2366 -91 2075 -91 
Q 1284 -91 818 406 
Q 353 903 353 1747 
Q 353 2603 823 3093 
Q 1294 3584 2113 3584 
Q 2378 3584 2631 3529 
Q 2884 3475 3122 3366 
z
" transform="scale(0.015625)"/>
       <path id="DejaVuSans-70" d="M 1159 525 
L 1159 -1331 
L 581 -1331 
L 581 3500 
L 1159 3500 
L 1159 2969 
Q 1341 3281 1617 3432 
Q 1894 3584 2278 3584 
Q 2916 3584 3314 3078 
Q 3713 2572 3713 1747 
Q 3713 922 3314 415 
Q 2916 -91 2278 -91 
Q 1894 -91 1617 61 
Q 1341 213 1159 525 
z
M 3116 1747 
Q 3116 2381 2855 2742 
Q 2594 3103 2138 3103 
Q 1681 3103 1420 2742 
Q 1159 2381 1159 1747 
Q 1159 1113 1420 752 
Q 1681 391 2138 391 
Q 2594 391 2855 752 
Q 3116 1113 3116 1747 
z
" transform="scale(0.015625)"/>
      </defs>
      <use xlink:href="#DejaVuSans-41"/>
      <use xlink:href="#DejaVuSans-6c" x="68.408203"/>
      <use xlink:href="#DejaVuSans-74" x="96.191406"/>
      <use xlink:href="#DejaVuSans-69" x="135.400391"/>
      <use xlink:href="#DejaVuSans-74" x="163.183594"/>
      <use xlink:href="#DejaVuSans-75" x="202.392578"/>
      <use xlink:href="#DejaVuSans-64" x="265.771484"/>
      <use xlink:href="#DejaVuSans-65" x="329.248047"/>
      <use xlink:href="#DejaVuSans-20" x="390.771484"/>
      <use xlink:href="#DejaVuSans-76" x="422.558594"/>
      <use xlink:href="#DejaVuSans-61" x="481.738281"/>
      <use xlink:href="#DejaVuSans-72" x="543.017578"/>
      <use xlink:href="#DejaVuSans-69" x="584.130859"/>
      <use xlink:href="#DejaVuSans-61" x="611.914062"/>
      <use xlink:href="#DejaVuSans-74" x="673.193359"/>
      <use xlink:href="#DejaVuSans-69" x="712.402344"/>
      <use xlink:href="#DejaVuSans-6f" x="740.185547"/>
      <use xlink:href="#DejaVuSans-6e" x="801.367188"/>
      <use xlink:href="#DejaVuSans-20" x="864.746094"/>
      <use xlink:href="#DejaVuSans-66" x="896.533203"/>
      <use xlink:href="#DejaVuSans-72" x="931.738281"/>
      <use xlink:href="#DejaVuSans-6f" x="970.601562"/>
      <use xlink:href="#DejaVuSans-6d" x="1031.783203"/>
      <use xlink:href="#DejaVuSans-20" x="1129.195312"/>
      <use xlink:href="#DejaVuSans-72" x="1160.982422"/>
      <use xlink:href="#DejaVuSans-65" x="1199.845703"/>
      <use xlink:href="#DejaVuSans-66" x="1261.369141"/>
      <use xlink:href="#DejaVuSans-65" x="1296.574219"/>
      <use xlink:href="#DejaVuSans-72" x="1358.097656"/>
      <use xlink:href="#DejaVuSans-65" x="1396.960938"/>
      <use xlink:href="#DejaVuSans-6e" x="1458.484375"/>
      <use xlink:href="#DejaVuSans-63" x="1521.863281"/>
      <use xlink:href="#DejaVuSans-65" x="1576.84375"/>
      <use xlink:href="#DejaVuSans-20" x="1638.367188"/>
      <use xlink:href="#DejaVuSans-70" x="1670.154297"/>
      <use xlink:href="#DejaVuSans-6f" x="1733.630859"/>
      <use xlink:href="#DejaVuSans-69" x="1794.8125"/>
      <use xlink:href="#DejaVuSans-6e" x="1822.595703"/>
      <use xlink:href="#DejaVuSans-74" x="1885.974609"/>
      <use xlink:href="#DejaVuSans-20" x="1925.183594"/>
      <use xlink:href="#DejaVuSans-5b" x="1956.970703"/>
      <use xlink:href="#DejaVuSans-6d" x="1995.984375"/>
      <use xlink:href="#DejaVuSans-5d" x="2093.396484"/>
     </g>
    </g>
   </g>
   <g id="line2d_23">
    <path d="M 73.832727 174.528 
L 74.157707 193.536 
L 74.482686 174.528 
L 74.807666 136.512 
L 75.132645 136.512 
L 75.457625 155.52 
L 75.782604 136.512 
L 76.107584 136.512 
L 76.432563 155.52 
L 76.757543 155.52 
L 77.082523 174.528 
L 77.407502 165.024 
L 77.732482 165.024 
L 78.057461 184.032 
L 78.70742 184.032 
L 79.0324 203.04 
L 79.357379 203.04 
L 79.682359 222.048 
L 80.007338 222.048 
L 80.332318 231.552 
L 80.657297 222.048 
L 80.982277 231.552 
L 81.307256 231.552 
L 81.632236 241.056 
L 81.957215 222.048 
L 82.282195 231.552 
L 82.607174 250.56 
L 82.932154 260.064 
L 83.257133 231.552 
L 83.582113 184.032 
L 83.907093 222.048 
L 84.232072 193.536 
L 84.557052 222.048 
L 84.882031 231.552 
L 85.207011 212.544 
L 85.53199 222.048 
L 85.85697 203.04 
L 86.506929 184.032 
L 86.831908 212.544 
L 87.156888 184.032 
L 87.481867 203.04 
L 87.806847 155.52 
L 88.456806 155.52 
L 88.781785 174.528 
L 89.106765 146.016 
L 89.431744 155.52 
L 89.756724 155.52 
L 90.081704 165.024 
L 90.406683 155.52 
L 90.731663 174.528 
L 91.056642 203.04 
L 91.381622 136.512 
L 91.706601 174.528 
L 92.031581 184.032 
L 92.35656 174.528 
L 92.68154 184.032 
L 93.006519 174.528 
L 93.331499 193.536 
L 93.656478 174.528 
L 93.981458 203.04 
L 94.306437 193.536 
L 94.956396 193.536 
L 95.281376 184.032 
L 95.606355 193.536 
L 95.931335 222.048 
L 96.256314 193.536 
L 96.581294 203.04 
L 96.906274 203.04 
L 97.231253 193.536 
L 97.556233 203.04 
L 97.881212 203.04 
L 98.206192 184.032 
L 98.531171 203.04 
L 98.856151 193.536 
L 99.18113 203.04 
L 99.50611 222.048 
L 100.156069 184.032 
L 100.481048 203.04 
L 100.806028 193.536 
L 101.131007 193.536 
L 101.455987 212.544 
L 101.780966 203.04 
L 102.105946 203.04 
L 102.430925 184.032 
L 102.755905 222.048 
L 103.080885 184.032 
L 103.405864 212.544 
L 103.730844 174.528 
L 104.380803 212.544 
L 104.705782 222.048 
L 105.030762 184.032 
L 105.355741 203.04 
L 105.680721 203.04 
L 106.0057 222.048 
L 106.33068 203.04 
L 106.655659 212.544 
L 107.305618 193.536 
L 107.630598 203.04 
L 107.955577 193.536 
L 108.605536 193.536 
L 108.930516 184.032 
L 109.580475 203.04 
L 109.905455 193.536 
L 110.230434 193.536 
L 110.555414 174.528 
L 110.880393 193.536 
L 111.205373 174.528 
L 111.530352 174.528 
L 111.855332 193.536 
L 112.180311 174.528 
L 112.505291 165.024 
L 112.83027 165.024 
L 113.15525 184.032 
L 113.480229 165.024 
L 113.805209 184.032 
L 114.130188 165.024 
L 114.780147 165.024 
L 115.105127 174.528 
L 115.430106 41.472 
L 115.755086 60.48 
L 116.080066 98.496 
L 116.405045 88.992 
L 116.730025 108 
L 117.055004 136.512 
L 117.379984 127.008 
L 117.704963 146.016 
L 118.029943 127.008 
L 118.354922 127.008 
L 119.004881 146.016 
L 119.329861 127.008 
L 119.65484 146.016 
L 119.97982 136.512 
L 120.304799 155.52 
L 120.629779 184.032 
L 120.954758 165.024 
L 121.279738 155.52 
L 121.604717 174.528 
L 121.929697 136.512 
L 122.254676 146.016 
L 122.579656 146.016 
L 122.904636 136.512 
L 123.229615 146.016 
L 123.554595 165.024 
L 123.879574 155.52 
L 124.204554 165.024 
L 124.854513 117.504 
L 125.179492 155.52 
L 125.504472 127.008 
L 125.829451 127.008 
L 126.47941 184.032 
L 126.80439 127.008 
L 127.129369 127.008 
L 127.454349 136.512 
L 127.779328 117.504 
L 128.429287 165.024 
L 128.754267 174.528 
L 129.079247 146.016 
L 129.404226 165.024 
L 129.729206 174.528 
L 130.054185 174.528 
L 130.379165 203.04 
L 130.704144 165.024 
L 131.029124 193.536 
L 131.679083 155.52 
L 132.004062 231.552 
L 132.329042 231.552 
L 132.654021 165.024 
L 132.979001 193.536 
L 133.30398 174.528 
L 133.62896 174.528 
L 133.953939 184.032 
L 134.278919 136.512 
L 134.603898 146.016 
L 134.928878 165.024 
L 135.253857 146.016 
L 135.578837 193.536 
L 135.903817 184.032 
L 136.228796 184.032 
L 136.553776 193.536 
L 137.203735 174.528 
L 137.528714 174.528 
L 138.178673 193.536 
L 138.503653 193.536 
L 138.828632 184.032 
L 139.478591 184.032 
L 139.803571 193.536 
L 140.12855 184.032 
L 140.45353 184.032 
L 140.778509 193.536 
L 141.103489 136.512 
L 141.753448 136.512 
L 142.078428 146.016 
L 143.378346 146.016 
L 143.703325 127.008 
L 144.028305 136.512 
L 144.353284 155.52 
L 144.678264 146.016 
L 145.003243 155.52 
L 145.328223 184.032 
L 145.653202 165.024 
L 145.978182 165.024 
L 146.303161 193.536 
L 146.628141 203.04 
L 146.95312 193.536 
L 147.2781 193.536 
L 147.928059 174.528 
L 148.253038 174.528 
L 148.578018 184.032 
L 148.902998 184.032 
L 149.227977 193.536 
L 149.552957 174.528 
L 149.877936 184.032 
L 150.202916 165.024 
L 150.527895 174.528 
L 151.502834 174.528 
L 151.827813 193.536 
L 152.152793 165.024 
L 152.477772 155.52 
L 152.802752 155.52 
L 153.127731 165.024 
L 153.77769 165.024 
L 154.10267 174.528 
L 154.427649 165.024 
L 154.752629 174.528 
L 155.077609 165.024 
L 155.402588 165.024 
L 155.727568 155.52 
L 156.052547 165.024 
L 156.377527 193.536 
L 157.027486 155.52 
L 157.352465 184.032 
L 157.677445 193.536 
L 158.002424 212.544 
L 158.327404 203.04 
L 159.302342 203.04 
L 159.627322 222.048 
L 159.952301 222.048 
L 160.277281 212.544 
L 160.60226 193.536 
L 160.92724 212.544 
L 161.252219 212.544 
L 161.577199 193.536 
L 161.902179 250.56 
L 162.227158 222.048 
L 162.552138 222.048 
L 162.877117 212.544 
L 163.202097 212.544 
L 163.527076 222.048 
L 164.177035 155.52 
L 164.502015 193.536 
L 165.151974 174.528 
L 165.476953 155.52 
L 165.801933 165.024 
L 166.451892 146.016 
L 166.776871 146.016 
L 167.101851 136.512 
L 167.42683 117.504 
L 167.75181 108 
L 168.401769 108 
L 168.726749 98.496 
L 169.051728 108 
L 169.376708 98.496 
L 169.701687 98.496 
L 170.026667 117.504 
L 170.676626 98.496 
L 171.001605 108 
L 171.326585 108 
L 171.651564 98.496 
L 172.301523 117.504 
L 172.626503 117.504 
L 172.951482 127.008 
L 173.601441 108 
L 173.926421 108 
L 174.57638 127.008 
L 174.90136 108 
L 175.226339 117.504 
L 175.551319 117.504 
L 175.876298 136.512 
L 176.201278 136.512 
L 176.526257 127.008 
L 176.851237 127.008 
L 177.501196 146.016 
L 177.826175 136.512 
L 178.151155 146.016 
L 178.476134 136.512 
L 178.801114 136.512 
L 179.126093 155.52 
L 179.451073 165.024 
L 181.075971 165.024 
L 181.40095 155.52 
L 181.72593 155.52 
L 182.050909 174.528 
L 182.375889 165.024 
L 182.700868 174.528 
L 183.025848 155.52 
L 183.350827 174.528 
L 183.675807 174.528 
L 184.000786 184.032 
L 184.325766 184.032 
L 184.650745 174.528 
L 184.975725 193.536 
L 185.300704 184.032 
L 185.950663 184.032 
L 186.275643 174.528 
L 186.600622 155.52 
L 186.925602 146.016 
L 187.250581 165.024 
L 187.575561 165.024 
L 187.900541 184.032 
L 188.5505 184.032 
L 188.875479 174.528 
L 189.200459 184.032 
L 189.525438 174.528 
L 190.175397 193.536 
L 190.500377 165.024 
L 191.150336 184.032 
L 191.475315 184.032 
L 191.800295 174.528 
L 192.775233 174.528 
L 193.100213 184.032 
L 193.425192 184.032 
L 193.750172 165.024 
L 194.075152 193.536 
L 194.400131 174.528 
L 194.725111 184.032 
L 195.37507 184.032 
L 195.700049 155.52 
L 196.025029 155.52 
L 196.350008 174.528 
L 196.999967 155.52 
L 197.649926 174.528 
L 197.974906 165.024 
L 198.299885 193.536 
L 199.274824 165.024 
L 199.599803 174.528 
L 199.924783 174.528 
L 200.249762 146.016 
L 200.574742 203.04 
L 200.899722 155.52 
L 201.224701 193.536 
L 201.549681 165.024 
L 201.87466 184.032 
L 202.19964 184.032 
L 202.524619 193.536 
L 202.849599 193.536 
L 203.499558 212.544 
L 203.824537 193.536 
L 204.149517 212.544 
L 204.799476 231.552 
L 205.124455 222.048 
L 205.449435 203.04 
L 205.774414 212.544 
L 206.099394 212.544 
L 206.424373 203.04 
L 207.074333 222.048 
L 207.399312 212.544 
L 207.724292 212.544 
L 208.374251 231.552 
L 209.349189 231.552 
L 209.674169 222.048 
L 209.999148 231.552 
L 210.324128 222.048 
L 210.974087 222.048 
L 211.299066 231.552 
L 211.624046 212.544 
L 211.949025 231.552 
L 212.274005 212.544 
L 212.598984 212.544 
L 212.923964 222.048 
L 213.248943 222.048 
L 213.573923 203.04 
L 213.898903 212.544 
L 214.223882 193.536 
L 214.548862 212.544 
L 214.873841 193.536 
L 215.5238 193.536 
L 215.84878 184.032 
L 216.823718 184.032 
L 217.473677 165.024 
L 217.798657 184.032 
L 218.123636 174.528 
L 218.448616 174.528 
L 218.773595 165.024 
L 219.098575 184.032 
L 219.423554 165.024 
L 219.748534 174.528 
L 220.073514 165.024 
L 220.398493 174.528 
L 221.373432 146.016 
L 221.698411 146.016 
L 222.023391 155.52 
L 222.34837 174.528 
L 222.998329 193.536 
L 223.323309 184.032 
L 224.298247 184.032 
L 224.623227 174.528 
L 224.948206 174.528 
L 225.273186 184.032 
L 225.598165 165.024 
L 225.923145 174.528 
L 226.248124 174.528 
L 226.898084 193.536 
L 227.223063 184.032 
L 227.548043 203.04 
L 228.198002 184.032 
L 229.17294 184.032 
L 229.49792 174.528 
L 229.822899 174.528 
L 230.147879 184.032 
L 230.797838 165.024 
L 231.122817 165.024 
L 231.447797 174.528 
L 231.772776 146.016 
L 232.097756 146.016 
L 232.422735 155.52 
L 233.072695 155.52 
L 233.722654 136.512 
L 234.047633 155.52 
L 234.372613 136.512 
L 234.697592 165.024 
L 235.022572 155.52 
L 235.672531 174.528 
L 235.99751 165.024 
L 236.32249 174.528 
L 236.647469 165.024 
L 236.972449 174.528 
L 237.297428 193.536 
L 237.622408 174.528 
L 237.947387 203.04 
L 238.272367 193.536 
L 238.597346 203.04 
L 238.922326 193.536 
L 239.247305 193.536 
L 239.572285 212.544 
L 240.547224 212.544 
L 240.872203 222.048 
L 241.197183 203.04 
L 241.847142 241.056 
L 242.497101 203.04 
L 242.82208 212.544 
L 243.14706 184.032 
L 243.472039 203.04 
L 243.797019 193.536 
L 244.446978 193.536 
L 244.771957 203.04 
L 245.096937 193.536 
L 245.746896 193.536 
L 246.071876 155.52 
L 246.396855 174.528 
L 246.721835 155.52 
L 247.046814 165.024 
L 247.371794 155.52 
L 247.696773 136.512 
L 248.021753 155.52 
L 248.671712 155.52 
L 248.996691 165.024 
L 249.321671 146.016 
L 249.64665 155.52 
L 250.296609 155.52 
L 250.621589 165.024 
L 250.946568 155.52 
L 251.271548 184.032 
L 251.921507 184.032 
L 252.246486 174.528 
L 252.571466 184.032 
L 252.896446 203.04 
L 253.221425 184.032 
L 253.546405 203.04 
L 253.871384 203.04 
L 254.196364 193.536 
L 254.521343 193.536 
L 254.846323 212.544 
L 255.171302 184.032 
L 255.821261 184.032 
L 256.146241 174.528 
L 256.47122 184.032 
L 257.121179 184.032 
L 257.446159 174.528 
L 257.771138 184.032 
L 258.096118 174.528 
L 258.421097 155.52 
L 258.746077 184.032 
L 259.071057 165.024 
L 259.396036 174.528 
L 259.721016 155.52 
L 260.045995 165.024 
L 261.020934 165.024 
L 261.345913 174.528 
L 261.670893 155.52 
L 261.995872 146.016 
L 262.320852 155.52 
L 262.645831 155.52 
L 262.970811 146.016 
L 263.29579 165.024 
L 263.62077 155.52 
L 263.945749 165.024 
L 264.270729 165.024 
L 264.595708 136.512 
L 265.245667 155.52 
L 265.570647 155.52 
L 265.895627 165.024 
L 266.220606 155.52 
L 266.870565 174.528 
L 267.195545 155.52 
L 267.520524 174.528 
L 267.845504 165.024 
L 268.170483 193.536 
L 268.495463 174.528 
L 269.470401 174.528 
L 269.795381 165.024 
L 270.12036 165.024 
L 270.44534 155.52 
L 271.420278 184.032 
L 272.070238 165.024 
L 272.395217 146.016 
L 272.720197 155.52 
L 273.045176 155.52 
L 273.370156 174.528 
L 273.695135 165.024 
L 274.020115 174.528 
L 274.345094 155.52 
L 274.670074 165.024 
L 274.995053 165.024 
L 275.320033 155.52 
L 275.969992 174.528 
L 276.294971 165.024 
L 276.619951 165.024 
L 276.94493 155.52 
L 277.26991 155.52 
L 277.594889 165.024 
L 277.919869 165.024 
L 278.244848 69.984 
L 278.569828 108 
L 278.894808 108 
L 279.219787 127.008 
L 279.869746 127.008 
L 280.194726 146.016 
L 280.519705 146.016 
L 280.844685 155.52 
L 281.494644 155.52 
L 281.819623 165.024 
L 282.144603 165.024 
L 282.469582 174.528 
L 282.794562 165.024 
L 283.119541 174.528 
L 283.444521 155.52 
L 283.7695 174.528 
L 284.09448 174.528 
L 284.419459 165.024 
L 285.069419 184.032 
L 285.394398 174.528 
L 285.719378 174.528 
L 286.044357 165.024 
L 286.369337 193.536 
L 286.694316 184.032 
L 287.019296 184.032 
L 287.344275 174.528 
L 287.669255 184.032 
L 287.994234 184.032 
L 288.644193 165.024 
L 288.969173 184.032 
L 289.294152 174.528 
L 290.269091 174.528 
L 290.59407 203.04 
L 290.91905 184.032 
L 291.244029 146.016 
L 291.569009 174.528 
L 291.893989 184.032 
L 292.218968 203.04 
L 292.543948 174.528 
L 293.193907 193.536 
L 294.493825 193.536 
L 294.818804 174.528 
L 295.143784 174.528 
L 295.468763 203.04 
L 295.793743 184.032 
L 296.118722 174.528 
L 296.443702 174.528 
L 296.768681 136.512 
L 297.093661 165.024 
L 297.41864 136.512 
L 297.74362 136.512 
L 298.0686 117.504 
L 298.393579 184.032 
L 298.718559 184.032 
L 299.043538 174.528 
L 299.368518 184.032 
L 299.693497 174.528 
L 300.018477 155.52 
L 300.343456 155.52 
L 300.668436 165.024 
L 300.993415 165.024 
L 301.318395 203.04 
L 301.643374 165.024 
L 302.293333 184.032 
L 302.943292 184.032 
L 303.268272 193.536 
L 303.593251 184.032 
L 303.918231 193.536 
L 304.24321 174.528 
L 304.56819 174.528 
L 304.89317 184.032 
L 305.868108 184.032 
L 306.193088 165.024 
L 306.518067 174.528 
L 307.168026 155.52 
L 307.817985 155.52 
L 308.142965 165.024 
L 308.792924 146.016 
L 309.117903 155.52 
L 309.442883 155.52 
L 309.767862 136.512 
L 310.092842 146.016 
L 310.417821 146.016 
L 310.742801 155.52 
L 311.067781 155.52 
L 311.39276 165.024 
L 312.042719 165.024 
L 312.367699 184.032 
L 312.692678 184.032 
L 313.017658 174.528 
L 313.342637 155.52 
L 313.667617 184.032 
L 313.992596 174.528 
L 314.317576 155.52 
L 314.642555 155.52 
L 315.292514 174.528 
L 315.617494 193.536 
L 315.942473 184.032 
L 316.267453 193.536 
L 316.592432 193.536 
L 316.917412 184.032 
L 317.242391 165.024 
L 317.567371 155.52 
L 317.892351 174.528 
L 318.21733 174.528 
L 318.54231 184.032 
L 318.867289 174.528 
L 319.192269 193.536 
L 319.517248 184.032 
L 319.842228 165.024 
L 320.167207 184.032 
L 320.492187 165.024 
L 321.142146 184.032 
L 321.792105 184.032 
L 322.117084 193.536 
L 322.442064 184.032 
L 322.767043 193.536 
L 323.417002 193.536 
L 323.741982 203.04 
L 324.066962 193.536 
L 324.391941 203.04 
L 325.691859 203.04 
L 326.016839 193.536 
L 326.341818 203.04 
L 326.991777 184.032 
L 327.316757 193.536 
L 327.641736 184.032 
L 328.941654 184.032 
L 329.266634 174.528 
L 329.591613 174.528 
L 329.916593 165.024 
L 330.241572 146.016 
L 330.566552 155.52 
L 330.891532 146.016 
L 331.216511 146.016 
L 331.541491 155.52 
L 331.86647 146.016 
L 332.516429 146.016 
L 332.841409 155.52 
L 333.166388 146.016 
L 333.491368 146.016 
L 333.816347 155.52 
L 334.141327 155.52 
L 334.466306 174.528 
L 334.791286 174.528 
L 335.116265 184.032 
L 335.441245 174.528 
L 335.766224 174.528 
L 336.091204 184.032 
L 336.416183 174.528 
L 336.741163 174.528 
L 337.066143 193.536 
L 337.391122 174.528 
L 337.716102 174.528 
L 338.366061 193.536 
L 339.01602 193.536 
L 339.340999 203.04 
L 339.665979 193.536 
L 339.990958 193.536 
L 340.315938 184.032 
L 340.640917 184.032 
L 341.290876 203.04 
L 341.615856 193.536 
L 341.940835 212.544 
L 342.265815 193.536 
L 342.590794 212.544 
L 342.915774 203.04 
L 343.240753 203.04 
L 343.890713 184.032 
L 344.215692 165.024 
L 344.540672 193.536 
L 345.51561 165.024 
L 345.84059 165.024 
L 346.815528 136.512 
L 347.140508 108 
L 347.465487 155.52 
L 347.790467 117.504 
L 348.115446 136.512 
L 349.090385 165.024 
L 349.415364 184.032 
L 349.740344 193.536 
L 350.065324 241.056 
L 351.040262 212.544 
L 351.365242 165.024 
L 351.690221 184.032 
L 352.015201 174.528 
L 352.34018 203.04 
L 352.66516 193.536 
L 352.990139 193.536 
L 353.640098 174.528 
L 353.965078 174.528 
L 354.290057 184.032 
L 354.615037 184.032 
L 355.264996 203.04 
L 355.589975 174.528 
L 356.239934 174.528 
L 356.564914 184.032 
L 357.864832 146.016 
L 358.189812 155.52 
L 358.514791 136.512 
L 358.839771 127.008 
L 359.16475 127.008 
L 359.48973 146.016 
L 359.814709 127.008 
L 360.139689 136.512 
L 360.464668 98.496 
L 361.114627 165.024 
L 361.439607 155.52 
L 361.764586 117.504 
L 362.089566 108 
L 362.414545 108 
L 362.739525 136.512 
L 363.064505 127.008 
L 363.714464 127.008 
L 364.039443 146.016 
L 364.364423 146.016 
L 364.689402 155.52 
L 365.014382 146.016 
L 365.339361 165.024 
L 365.664341 146.016 
L 365.98932 184.032 
L 366.964259 184.032 
L 367.289238 193.536 
L 367.614218 212.544 
L 367.939197 222.048 
L 368.264177 222.048 
L 368.589156 241.056 
L 368.914136 231.552 
L 369.239115 279.072 
L 369.564095 269.568 
L 369.889075 298.08 
L 370.214054 269.568 
L 371.188993 269.568 
L 371.513972 231.552 
L 371.838952 231.552 
L 372.488911 193.536 
L 373.13887 174.528 
L 373.788829 193.536 
L 375.088747 155.52 
L 375.413726 174.528 
L 375.738706 146.016 
L 376.063686 174.528 
L 376.388665 165.024 
L 377.038624 184.032 
L 377.363604 165.024 
L 377.688583 184.032 
L 378.013563 193.536 
L 378.338542 184.032 
L 378.663522 184.032 
L 378.988501 193.536 
L 379.313481 193.536 
L 379.63846 184.032 
L 379.96344 184.032 
L 380.288419 203.04 
L 380.613399 241.056 
L 380.938378 212.544 
L 381.263358 203.04 
L 381.588337 212.544 
L 381.913317 193.536 
L 382.238296 184.032 
L 382.563276 146.016 
L 382.888256 165.024 
L 383.213235 165.024 
L 383.538215 184.032 
L 383.863194 193.536 
L 384.188174 165.024 
L 384.513153 174.528 
L 384.838133 174.528 
L 385.163112 165.024 
L 385.488092 165.024 
L 385.813071 155.52 
L 386.138051 165.024 
L 387.112989 165.024 
L 387.437969 155.52 
L 387.762948 155.52 
L 388.087928 165.024 
L 388.737887 146.016 
L 390.037805 184.032 
L 390.362785 174.528 
L 390.687764 174.528 
L 391.012744 165.024 
L 391.337723 165.024 
L 391.662703 174.528 
L 391.987682 174.528 
L 392.312662 165.024 
L 392.637641 193.536 
L 393.2876 174.528 
L 393.61258 184.032 
L 393.937559 203.04 
L 394.262539 193.536 
L 394.587518 203.04 
L 394.912498 193.536 
L 395.562457 193.536 
L 395.887437 203.04 
L 396.212416 184.032 
L 396.537396 193.536 
L 397.512334 165.024 
L 397.837314 136.512 
L 398.162293 165.024 
L 398.487273 136.512 
L 398.487273 136.512 
" clip-path="url(#pb608a97fbe)" style="fill: none; stroke: #1f77b4; stroke-width: 1.5; stroke-linecap: square"/>
   </g>
   <g id="line2d_24">
    <path d="M 73.832727 174.528 
L 74.157707 177.684944 
L 74.482686 165.989416 
L 74.807666 175.754016 
L 75.132645 176.055768 
L 75.457625 173.420024 
L 75.782604 162.344632 
L 76.107584 179.620528 
L 76.432563 176.256112 
L 76.757543 178.053224 
L 77.407502 175.875192 
L 77.732482 175.164768 
L 78.057461 171.837608 
L 78.382441 164.314336 
L 78.70742 165.733664 
L 79.0324 174.463088 
L 79.357379 173.579216 
L 79.682359 177.384712 
L 80.007338 159.803928 
L 80.332318 168.016144 
L 80.657297 171.774216 
L 80.982277 169.073464 
L 81.307256 167.955984 
L 81.632236 169.182 
L 82.282195 172.985976 
L 82.607174 164.817288 
L 82.932154 173.60136 
L 83.257133 176.233208 
L 83.582113 176.247464 
L 83.907093 165.863488 
L 84.232072 173.07864 
L 84.557052 168.586384 
L 84.882031 174.904168 
L 85.207011 178.63924 
L 85.53199 176.662408 
L 85.85697 186.053216 
L 86.181949 170.99888 
L 86.506929 176.694152 
L 86.831908 174.735472 
L 87.156888 175.604328 
L 87.481867 182.224624 
L 87.806847 179.58888 
L 88.131826 170.065872 
L 88.456806 169.163752 
L 88.781785 177.326168 
L 89.106765 175.19328 
L 89.431744 169.011688 
L 90.081704 178.807176 
L 90.406683 175.765136 
L 90.731663 174.4456 
L 91.056642 174.239744 
L 91.381622 179.596768 
L 92.031581 174.340296 
L 92.68154 179.36392 
L 93.331499 173.282216 
L 93.656478 179.447936 
L 93.981458 179.235616 
L 94.306437 169.060064 
L 94.631417 168.800224 
L 94.956396 167.8982 
L 95.281376 168.253744 
L 95.606355 181.586336 
L 96.256314 172.767384 
L 96.581294 174.027424 
L 96.906274 176.19196 
L 97.231253 168.987168 
L 97.556233 174.19536 
L 97.881212 182.802848 
L 98.206192 169.629448 
L 98.531171 176.930136 
L 98.856151 177.048176 
L 99.18113 170.819064 
L 99.50611 179.263368 
L 99.831089 174.223112 
L 100.156069 171.298256 
L 100.481048 174.628552 
L 100.806028 171.829624 
L 101.131007 174.513744 
L 101.455987 175.153648 
L 101.780966 166.571536 
L 102.430925 176.923768 
L 102.755905 166.932688 
L 103.080885 175.673992 
L 103.405864 167.658224 
L 103.730844 172.301688 
L 104.055823 171.378184 
L 104.380803 169.492496 
L 105.030762 181.758168 
L 105.355741 169.411712 
L 105.680721 173.32812 
L 106.0057 183.357976 
L 106.33068 176.853344 
L 106.655659 178.27096 
L 106.980639 185.056056 
L 107.305618 173.735176 
L 107.630598 177.608056 
L 107.955577 178.026232 
L 108.280557 174.04016 
L 108.605536 179.055896 
L 108.930516 177.244528 
L 109.255495 164.930576 
L 109.580475 176.436688 
L 109.905455 176.5476 
L 110.230434 176.912744 
L 110.555414 178.808792 
L 110.880393 176.705176 
L 111.205373 170.4888 
L 111.530352 172.287432 
L 112.180311 182.790968 
L 112.505291 171.767848 
L 112.83027 176.435168 
L 113.15525 173.066 
L 113.480229 173.309872 
L 113.805209 180.092592 
L 114.130188 181.0026 
L 114.455168 175.056232 
L 114.780147 178.702632 
L 115.105127 171.543744 
L 115.430106 167.440392 
L 115.755086 165.603744 
L 116.080066 166.848008 
L 116.405045 176.729792 
L 116.730025 182.390944 
L 117.055004 177.850408 
L 117.379984 174.901792 
L 117.704963 177.028312 
L 118.029943 172.665216 
L 118.354922 176.401048 
L 118.679902 175.90684 
L 119.004881 178.634488 
L 119.329861 178.933864 
L 119.65484 177.138464 
L 119.97982 179.645144 
L 120.304799 186.385 
L 120.629779 173.883344 
L 120.954758 181.261584 
L 121.279738 178.830176 
L 121.604717 166.930312 
L 121.929697 175.016696 
L 122.579656 172.387224 
L 122.904636 174.110584 
L 123.229615 182.284024 
L 124.529533 172.410224 
L 124.854513 173.013728 
L 125.179492 174.830512 
L 125.829451 180.079952 
L 126.154431 172.510016 
L 126.47941 172.205032 
L 126.80439 167.766664 
L 127.129369 171.809856 
L 127.454349 171.410688 
L 127.779328 165.660768 
L 128.104308 174.748208 
L 128.429287 173.832592 
L 128.754267 173.332872 
L 129.079247 173.322608 
L 129.404226 177.849648 
L 129.729206 174.015544 
L 130.054185 179.759952 
L 130.379165 177.738736 
L 130.704144 179.260232 
L 131.029124 176.835096 
L 131.354103 175.631224 
L 131.679083 177.75936 
L 132.004062 176.352008 
L 132.329042 172.921824 
L 132.654021 178.873704 
L 132.979001 164.443496 
L 133.30398 179.388536 
L 133.62896 173.438176 
L 133.953939 177.168496 
L 134.278919 173.634624 
L 134.928878 178.671744 
L 135.578837 173.336008 
L 135.903817 179.896144 
L 136.228796 181.107144 
L 136.553776 169.509128 
L 136.878755 166.880416 
L 137.203735 169.8948 
L 137.528714 163.96592 
L 137.853694 183.465752 
L 138.178673 170.830184 
L 138.503653 185.177232 
L 138.828632 180.831528 
L 139.153612 171.116064 
L 139.478591 182.9628 
L 139.803571 173.307496 
L 140.12855 179.468464 
L 140.45353 178.565584 
L 140.778509 177.258024 
L 141.103489 172.50764 
L 141.428468 180.83704 
L 141.753448 176.308384 
L 142.078428 168.140552 
L 142.403407 165.400168 
L 142.728387 178.940992 
L 143.053366 172.25892 
L 143.378346 171.657792 
L 143.703325 176.912744 
L 144.028305 174.356168 
L 144.353284 175.808664 
L 144.678264 170.0366 
L 145.003243 176.473184 
L 145.328223 164.019712 
L 145.653202 175.220176 
L 145.978182 179.967424 
L 146.303161 177.691216 
L 146.628141 177.96208 
L 146.95312 176.522224 
L 147.603079 166.394192 
L 147.928059 170.105504 
L 148.253038 169.648456 
L 148.578018 164.123496 
L 148.902998 173.34 
L 149.227977 166.899424 
L 149.552957 169.648456 
L 149.877936 178.042864 
L 150.202916 171.899384 
L 150.527895 172.403096 
L 150.852875 181.686128 
L 151.502834 170.183056 
L 151.827813 177.76012 
L 152.152793 177.665936 
L 152.477772 178.268584 
L 152.802752 174.541496 
L 153.127731 166.978688 
L 153.452711 176.364648 
L 153.77769 175.448272 
L 154.10267 179.285512 
L 154.427649 176.355904 
L 154.752629 171.619776 
L 155.077609 177.966832 
L 155.727568 171.507344 
L 156.052547 172.81652 
L 156.377527 176.6434 
L 156.702506 173.317 
L 157.027486 171.71168 
L 157.352465 174.851136 
L 157.677445 174.545392 
L 158.327404 176.779688 
L 158.652383 182.247624 
L 158.977363 171.624528 
L 159.302342 176.472328 
L 159.627322 178.088008 
L 159.952301 174.874136 
L 160.277281 177.714216 
L 160.60226 175.304952 
L 160.92724 175.373096 
L 161.252219 172.582816 
L 161.902179 184.254584 
L 162.227158 178.122888 
L 162.552138 179.334648 
L 162.877117 171.692672 
L 163.202097 181.40728 
L 163.527076 172.20028 
L 163.852056 177.674584 
L 164.177035 171.08204 
L 164.502015 161.772872 
L 164.826994 168.441448 
L 165.151974 168.769336 
L 165.476953 177.33168 
L 165.801933 171.98492 
L 166.126912 177.887664 
L 166.451892 176.10804 
L 166.776871 171.777352 
L 167.101851 180.282672 
L 167.42683 178.628216 
L 167.75181 175.785664 
L 168.07679 170.122136 
L 168.401769 171.116824 
L 168.726749 179.82572 
L 169.051728 176.299736 
L 169.376708 183.943328 
L 169.701687 177.227896 
L 170.026667 177.856016 
L 170.351646 166.836888 
L 170.676626 169.106728 
L 171.001605 177.039432 
L 171.326585 162.221936 
L 171.651564 176.65376 
L 171.976544 175.172656 
L 172.301523 185.390312 
L 172.951482 171.672808 
L 173.276462 172.44824 
L 173.601441 180.676328 
L 173.926421 176.602248 
L 174.2514 175.826912 
L 174.57638 172.780024 
L 174.90136 170.838072 
L 175.226339 171.45184 
L 175.551319 178.350984 
L 175.876298 176.991912 
L 176.201278 178.217928 
L 176.526257 178.082496 
L 177.176216 168.524608 
L 177.501196 176.919016 
L 177.826175 170.290832 
L 178.151155 170.828568 
L 178.476134 175.411112 
L 178.801114 168.605392 
L 179.126093 169.998584 
L 179.451073 179.419424 
L 179.776052 172.563808 
L 180.101032 180.095728 
L 180.426011 172.277168 
L 180.750991 171.393296 
L 181.075971 169.988224 
L 181.40095 176.718672 
L 181.72593 168.577736 
L 182.050909 167.628856 
L 182.375889 178.63924 
L 182.700868 169.245392 
L 183.025848 175.122 
L 183.350827 172.04584 
L 183.675807 163.826496 
L 184.000786 173.465168 
L 184.325766 161.268304 
L 184.650745 175.398376 
L 184.975725 177.737216 
L 185.300704 170.864968 
L 185.625684 180.76424 
L 185.950663 168.260112 
L 186.275643 171.496984 
L 186.600622 165.04776 
L 186.925602 171.01228 
L 187.250581 168.989544 
L 187.575561 180.10048 
L 187.900541 171.229352 
L 188.22552 173.552224 
L 188.5505 166.702216 
L 188.875479 172.15276 
L 189.200459 175.35884 
L 189.525438 170.614728 
L 189.850418 177.175624 
L 190.175397 174.633304 
L 190.500377 158.221512 
L 190.825356 167.616976 
L 191.150336 166.49636 
L 191.475315 174.037784 
L 191.800295 171.2246 
L 192.125274 179.692664 
L 192.775233 172.239152 
L 193.100213 180.416488 
L 193.425192 182.864624 
L 193.750172 172.350824 
L 194.075152 170.1688 
L 194.400131 173.781936 
L 194.725111 166.3078 
L 195.05009 179.294256 
L 195.37507 172.015808 
L 195.700049 176.016992 
L 196.025029 171.466096 
L 196.350008 181.53796 
L 196.999967 169.417984 
L 197.324947 179.203968 
L 197.649926 169.94232 
L 197.974906 175.405504 
L 198.299885 176.100912 
L 198.624865 175.84592 
L 198.949844 167.704888 
L 199.599803 180.960592 
L 200.249762 176.341648 
L 200.574742 170.469792 
L 200.899722 183.670088 
L 201.224701 187.176208 
L 201.549681 183.731864 
L 201.87466 184.045496 
L 202.849599 168.340136 
L 203.174578 172.278688 
L 203.499558 174.305416 
L 203.824537 170.282088 
L 204.149517 172.905192 
L 204.474496 184.107272 
L 205.124455 176.541232 
L 205.449435 175.741376 
L 205.774414 173.425536 
L 206.424373 180.196376 
L 206.749353 178.272576 
L 207.074333 169.709472 
L 207.399312 177.477376 
L 207.724292 177.566144 
L 208.049271 168.760688 
L 208.69923 177.970064 
L 209.02421 173.215688 
L 209.349189 172.795136 
L 209.674169 181.812056 
L 209.999148 175.662112 
L 210.324128 172.351584 
L 210.649107 180.719856 
L 210.974087 177.857536 
L 211.299066 170.1554 
L 211.624046 171.948424 
L 211.949025 180.026064 
L 212.598984 169.355448 
L 212.923964 181.07388 
L 213.248943 178.560832 
L 213.573923 170.89348 
L 213.898903 172.3072 
L 214.223882 167.262952 
L 214.548862 175.53704 
L 214.873841 175.841168 
L 215.198821 178.465032 
L 215.5238 180.083088 
L 215.84878 171.710824 
L 216.173759 180.997088 
L 216.498739 172.220904 
L 216.823718 177.364184 
L 217.148698 170.990896 
L 217.473677 171.195232 
L 217.798657 179.064544 
L 218.123636 172.605816 
L 218.448616 184.818456 
L 218.773595 176.33452 
L 219.098575 176.73768 
L 219.423554 167.154512 
L 219.748534 172.91232 
L 220.073514 172.610568 
L 220.398493 175.037224 
L 220.723473 183.415 
L 221.048452 170.898232 
L 221.373432 169.58516 
L 221.698411 176.849352 
L 222.023391 169.376072 
L 222.34837 175.222552 
L 222.67335 175.534664 
L 222.998329 177.250896 
L 223.323309 174.528 
L 223.648288 175.638352 
L 223.973268 179.472456 
L 224.623227 167.868832 
L 224.948206 175.637592 
L 225.273186 174.32604 
L 225.598165 174.528 
L 225.923145 188.351568 
L 226.248124 169.079072 
L 226.573104 178.666992 
L 226.898084 166.25952 
L 227.223063 168.270376 
L 227.873022 177.760976 
L 228.198002 172.407848 
L 228.522981 176.542088 
L 228.847961 187.142944 
L 229.17294 175.845064 
L 229.49792 172.723 
L 229.822899 172.522656 
L 230.147879 172.123488 
L 230.472858 176.65452 
L 230.797838 183.935344 
L 231.772776 176.284624 
L 232.097756 169.606544 
L 232.422735 179.500208 
L 232.747715 177.060816 
L 233.072695 168.281496 
L 233.722654 176.362272 
L 234.047633 184.346392 
L 234.372613 179.415432 
L 234.697592 179.905648 
L 235.022572 171.359176 
L 235.347551 179.657784 
L 235.672531 179.127936 
L 235.99751 169.758608 
L 236.32249 182.207992 
L 236.647469 185.678568 
L 236.972449 174.493976 
L 237.297428 176.656896 
L 237.622408 181.824696 
L 237.947387 181.153048 
L 238.272367 167.609848 
L 238.597346 173.276608 
L 238.922326 183.26056 
L 239.247305 175.118008 
L 239.572285 178.04448 
L 240.222244 181.705136 
L 240.547224 174.546248 
L 240.872203 185.38708 
L 241.197183 171.916016 
L 241.522162 182.14232 
L 241.847142 177.939176 
L 242.172121 177.608056 
L 242.497101 180.049064 
L 242.82208 181.515056 
L 243.14706 172.86556 
L 243.472039 177.87816 
L 243.797019 171.646672 
L 244.121998 180.815656 
L 244.446978 179.99204 
L 244.771957 175.244792 
L 245.096937 179.13668 
L 245.421916 177.210504 
L 245.746896 179.831232 
L 246.071876 178.67412 
L 246.396855 174.83764 
L 246.721835 183.032464 
L 247.046814 174.227008 
L 247.371794 171.171472 
L 247.696773 171.369536 
L 248.021753 174.482096 
L 248.346732 175.45388 
L 248.671712 174.724448 
L 248.996691 179.117672 
L 249.321671 168.42092 
L 249.64665 164.950344 
L 249.97163 177.085336 
L 250.296609 172.842656 
L 250.621589 172.31908 
L 250.946568 176.734544 
L 251.271548 168.340136 
L 251.596527 173.758176 
L 251.921507 165.686144 
L 252.246486 175.518792 
L 252.571466 174.814736 
L 252.896446 168.52936 
L 253.221425 178.513312 
L 253.546405 169.3966 
L 253.871384 167.919584 
L 254.196364 172.695344 
L 254.521343 171.398048 
L 254.846323 178.618712 
L 255.171302 182.565248 
L 255.821261 175.365112 
L 256.146241 176.209448 
L 256.47122 180.6692 
L 256.7962 171.80824 
L 257.121179 170.000104 
L 257.446159 167.500552 
L 257.771138 182.862248 
L 258.096118 179.753584 
L 258.421097 174.474968 
L 259.071057 177.624688 
L 259.396036 172.410984 
L 259.721016 172.455368 
L 260.045995 180.18212 
L 260.370975 182.295904 
L 260.695954 173.267104 
L 261.020934 172.471144 
L 261.345913 166.337168 
L 261.670893 169.612816 
L 261.995872 170.984624 
L 262.320852 178.945744 
L 262.645831 174.880408 
L 262.970811 184.955504 
L 263.29579 168.972152 
L 263.62077 165.906256 
L 263.945749 180.74048 
L 264.270729 170.656736 
L 264.595708 176.729792 
L 264.920688 173.384384 
L 265.245667 177.170872 
L 265.570647 174.950168 
L 265.895627 169.078216 
L 266.220606 178.895848 
L 266.545586 173.063624 
L 266.870565 174.810744 
L 267.195545 162.857848 
L 267.520524 170.5118 
L 267.845504 172.417352 
L 268.170483 172.160744 
L 268.495463 172.884568 
L 268.820442 178.4484 
L 269.145422 173.741544 
L 269.470401 182.25076 
L 269.795381 172.821272 
L 270.44534 192.59824 
L 270.770319 177.844896 
L 271.095299 169.378448 
L 271.420278 176.671912 
L 271.745258 172.559912 
L 272.070238 174.888392 
L 272.395217 175.722368 
L 272.720197 173.512688 
L 273.045176 168.75356 
L 273.370156 179.892248 
L 273.695135 185.1376 
L 274.345094 174.24212 
L 274.670074 171.885128 
L 274.995053 179.935016 
L 275.320033 172.7096 
L 275.645012 172.953472 
L 276.294971 177.8908 
L 276.94493 165.922888 
L 277.26991 176.42804 
L 277.594889 179.717184 
L 277.919869 171.76072 
L 278.244848 160.107296 
L 278.569828 168.721056 
L 278.894808 172.74524 
L 279.219787 182.386192 
L 279.544767 170.04848 
L 279.869746 173.48256 
L 280.194726 184.931744 
L 280.844685 174.684816 
L 281.169664 176.229976 
L 281.494644 169.779992 
L 282.144603 183.51004 
L 282.469582 164.784024 
L 282.794562 174.162856 
L 283.119541 169.128968 
L 283.444521 174.502624 
L 283.7695 173.773192 
L 284.09448 174.607168 
L 284.744439 178.274952 
L 285.069419 176.271984 
L 285.394398 177.079064 
L 285.719378 176.898488 
L 286.044357 172.254928 
L 286.369337 164.850552 
L 286.694316 182.767968 
L 287.019296 174.869384 
L 287.344275 173.89912 
L 287.669255 178.335968 
L 287.994234 171.766328 
L 288.644193 179.952408 
L 288.969173 171.124808 
L 289.294152 181.115032 
L 289.619132 174.486848 
L 289.944111 171.59364 
L 290.269091 171.347296 
L 290.59407 177.48688 
L 290.91905 173.475432 
L 291.244029 179.874 
L 291.569009 174.809128 
L 291.893989 183.838784 
L 292.543948 173.81596 
L 292.868927 180.352336 
L 293.193907 177.906672 
L 293.518886 173.457184 
L 293.843866 170.768408 
L 294.168845 176.241096 
L 294.493825 175.924328 
L 294.818804 173.954624 
L 295.468763 182.883632 
L 295.793743 172.63984 
L 296.118722 178.918088 
L 296.443702 174.254 
L 296.768681 173.086528 
L 297.093661 174.169224 
L 297.41864 172.304064 
L 297.74362 177.62792 
L 298.0686 175.037224 
L 298.393579 163.793232 
L 298.718559 178.385864 
L 299.043538 180.74124 
L 299.368518 173.806456 
L 299.693497 178.539448 
L 300.343456 171.93892 
L 300.668436 171.556384 
L 300.993415 181.867464 
L 301.318395 170.434152 
L 301.643374 169.821904 
L 301.968354 173.623504 
L 302.293333 174.387816 
L 302.618313 169.718216 
L 302.943292 175.083984 
L 303.268272 170.361256 
L 303.593251 185.11384 
L 303.918231 170.160912 
L 304.24321 178.866576 
L 304.56819 177.02356 
L 304.89317 177.679336 
L 305.218149 174.330792 
L 305.543129 178.997256 
L 305.868108 170.030232 
L 306.193088 180.846544 
L 306.518067 177.708704 
L 306.843047 169.09808 
L 307.493006 178.770776 
L 307.817985 169.608064 
L 308.142965 177.181232 
L 308.467944 177.837768 
L 308.792924 174.992936 
L 309.117903 174.357688 
L 309.442883 170.391384 
L 309.767862 173.786688 
L 310.092842 180.935312 
L 310.417821 174.039304 
L 311.067781 170.033368 
L 311.39276 165.419176 
L 311.71774 167.738152 
L 312.042719 167.74528 
L 312.367699 173.065144 
L 312.692678 175.737384 
L 313.017658 184.120672 
L 313.342637 175.879944 
L 313.667617 181.282208 
L 313.992596 182.425824 
L 314.317576 175.047584 
L 314.642555 178.300328 
L 314.967535 176.715536 
L 315.292514 176.82084 
L 315.617494 178.644848 
L 315.942473 175.592448 
L 316.267453 164.796664 
L 316.592432 179.211096 
L 316.917412 170.575952 
L 317.242391 170.689144 
L 317.567371 178.030224 
L 317.892351 172.301688 
L 318.21733 172.465632 
L 318.54231 169.856024 
L 318.867289 179.337784 
L 319.192269 180.87116 
L 319.517248 180.639832 
L 320.167207 169.124216 
L 320.492187 177.107576 
L 321.142146 165.95064 
L 321.467125 191.0048 
L 321.792105 176.822456 
L 322.117084 168.828736 
L 322.442064 178.137144 
L 322.767043 162.641632 
L 323.092023 171.51048 
L 323.417002 170.617864 
L 323.741982 176.140544 
L 324.066962 166.537512 
L 324.391941 178.226672 
L 324.716921 169.060824 
L 325.0419 177.119456 
L 325.36688 168.024888 
L 325.691859 172.05696 
L 326.016839 177.962936 
L 326.341818 179.90888 
L 326.666798 171.811472 
L 326.991777 186.2528 
L 327.316757 185.151856 
L 327.641736 181.104008 
L 327.966716 178.89984 
L 328.291695 181.550696 
L 328.616675 174.393328 
L 328.941654 169.875032 
L 329.266634 176.985544 
L 329.591613 167.253448 
L 329.916593 168.423296 
L 330.241572 164.78716 
L 330.566552 171.127944 
L 331.216511 174.912152 
L 331.541491 179.370288 
L 331.86647 173.524568 
L 332.19145 163.568272 
L 332.841409 172.8054 
L 333.166388 174.612776 
L 333.491368 178.857832 
L 333.816347 165.504712 
L 334.141327 169.619184 
L 334.466306 167.321592 
L 334.791286 174.534368 
L 335.441245 167.50768 
L 335.766224 167.0072 
L 336.091204 178.766024 
L 336.416183 170.112632 
L 336.741163 175.072104 
L 337.066143 165.619616 
L 337.391122 175.131504 
L 337.716102 164.970112 
L 338.041081 176.502456 
L 338.366061 166.523256 
L 338.69104 176.509584 
L 339.01602 161.09248 
L 339.665979 172.759496 
L 339.990958 163.532632 
L 340.315938 166.172368 
L 340.640917 174.583408 
L 340.965897 174.846384 
L 341.290876 163.36004 
L 341.615856 174.88516 
L 341.940835 174.417088 
L 342.265815 173.285352 
L 342.590794 171.46372 
L 342.915774 173.668648 
L 343.240753 179.703688 
L 343.565733 172.030824 
L 343.890713 174.638056 
L 344.215692 169.117848 
L 344.540672 171.051912 
L 344.865651 176.584856 
L 345.190631 177.601784 
L 345.51561 169.438608 
L 345.84059 169.512264 
L 346.165569 180.045832 
L 346.490549 177.852784 
L 346.815528 180.329432 
L 347.465487 175.064976 
L 347.790467 177.116224 
L 348.115446 178.212416 
L 348.440426 171.322776 
L 348.765405 181.806448 
L 349.090385 168.626776 
L 349.415364 168.834344 
L 349.740344 176.98716 
L 350.065324 175.765136 
L 350.390303 183.86492 
L 350.715283 187.543728 
L 351.040262 178.596472 
L 351.365242 175.896576 
L 351.690221 183.15288 
L 352.015201 175.213904 
L 352.66516 173.72092 
L 352.990139 179.679928 
L 353.315119 168.390792 
L 353.640098 167.179792 
L 353.965078 168.092176 
L 354.290057 174.83688 
L 354.615037 171.4028 
L 354.940016 180.369824 
L 355.264996 178.43728 
L 355.589975 167.035712 
L 356.239934 176.423288 
L 356.564914 175.520408 
L 356.889894 176.036 
L 357.214873 183.087968 
L 357.539853 181.86984 
L 357.864832 174.809984 
L 358.189812 175.635976 
L 358.514791 180.780872 
L 358.839771 174.626176 
L 359.16475 166.04492 
L 359.48973 170.980632 
L 359.814709 169.571664 
L 360.139689 176.842984 
L 360.464668 177.347552 
L 360.789648 175.936208 
L 361.114627 176.141304 
L 361.439607 175.838792 
L 361.764586 175.739 
L 362.089566 181.792192 
L 362.414545 180.077576 
L 362.739525 176.04788 
L 363.064505 170.303472 
L 363.389484 169.588296 
L 363.714464 175.244792 
L 364.039443 178.27096 
L 364.364423 176.055768 
L 364.689402 172.216912 
L 365.014382 174.633304 
L 365.339361 175.22968 
L 365.664341 176.937264 
L 365.98932 172.404616 
L 366.3143 170.898232 
L 366.639279 172.71036 
L 366.964259 175.545688 
L 367.289238 172.015808 
L 367.614218 165.861968 
L 368.264177 176.290232 
L 368.589156 175.876808 
L 368.914136 176.863608 
L 369.239115 181.077872 
L 369.564095 175.838792 
L 369.889075 174.025048 
L 370.214054 179.870864 
L 370.539034 180.661216 
L 370.864013 165.231472 
L 371.188993 175.711248 
L 371.513972 177.73636 
L 371.838952 173.404152 
L 372.488911 173.08976 
L 372.81389 170.47692 
L 373.13887 173.911856 
L 373.463849 169.97872 
L 373.788829 169.27628 
L 374.113808 179.570632 
L 374.438788 182.19136 
L 374.763767 179.771072 
L 375.088747 184.919864 
L 375.413726 181.593464 
L 375.738706 181.695632 
L 376.063686 179.276008 
L 376.388665 170.598096 
L 376.713645 181.0984 
L 377.038624 172.724616 
L 377.363604 171.697424 
L 377.688583 175.434016 
L 378.013563 162.929984 
L 378.338542 175.640728 
L 378.663522 166.767224 
L 378.988501 184.218944 
L 379.313481 164.440264 
L 379.63846 172.208264 
L 379.96344 172.600304 
L 380.288419 179.360024 
L 380.613399 179.973032 
L 380.938378 174.519256 
L 381.263358 178.857072 
L 381.913317 167.86256 
L 382.238296 168.470816 
L 382.563276 173.621128 
L 383.538215 182.301512 
L 383.863194 174.02828 
L 384.188174 174.332408 
L 384.513153 163.542136 
L 384.838133 174.63416 
L 385.163112 178.267064 
L 385.488092 173.83972 
L 385.813071 182.634152 
L 386.138051 176.587232 
L 386.46303 157.838976 
L 386.78801 175.281952 
L 387.112989 167.092736 
L 387.437969 169.036304 
L 387.762948 168.401912 
L 388.087928 163.497848 
L 388.412907 175.721512 
L 388.737887 173.215688 
L 389.062867 165.1658 
L 389.387846 168.4328 
L 389.712826 173.408144 
L 390.037805 169.315816 
L 390.362785 175.088736 
L 390.687764 167.763528 
L 391.012744 175.364352 
L 391.337723 173.764544 
L 391.662703 176.493712 
L 391.987682 176.177704 
L 392.312662 181.52608 
L 392.637641 171.992048 
L 392.962621 172.250176 
L 393.2876 164.590808 
L 393.61258 180.19476 
L 393.937559 170.8452 
L 394.262539 172.878296 
L 394.587518 181.636992 
L 394.912498 162.602856 
L 395.237477 163.19524 
L 395.887437 182.696688 
L 396.212416 168.447816 
L 396.537396 174.661816 
L 396.862375 172.574928 
L 397.187355 176.308384 
L 397.512334 164.189264 
L 397.837314 177.214496 
L 398.162293 184.093016 
L 398.487273 184.569736 
L 398.487273 184.569736 
" clip-path="url(#pb608a97fbe)" style="fill: none; stroke: #ff7f0e; stroke-width: 1.5; stroke-linecap: square"/>
   </g>
   <g id="patch_3">
    <path d="M 57.6 307.584 
L 57.6 41.472 
" style="fill: none; stroke: #000000; stroke-width: 0.8; stroke-linejoin: miter; stroke-linecap: square"/>
   </g>
   <g id="patch_4">
    <path d="M 414.72 307.584 
L 414.72 41.472 
" style="fill: none; stroke: #000000; stroke-width: 0.8; stroke-linejoin: miter; stroke-linecap: square"/>
   </g>
   <g id="patch_5">
    <path d="M 57.6 307.584 
L 414.72 307.584 
" style="fill: none; stroke: #000000; stroke-width: 0.8; stroke-linejoin: miter; stroke-linecap: square"/>
   </g>
   <g id="patch_6">
    <path d="M 57.6 41.472 
L 414.72 41.472 
" style="fill: none; stroke: #000000; stroke-width: 0.8; stroke-linejoin: miter; stroke-linecap: square"/>
   </g>
   <g id="legend_1">
    <g id="patch_7">
     <path d="M 64.6 302.584 
L 215.140625 302.584 
Q 217.140625 302.584 217.140625 300.584 
L 217.140625 272.22775 
Q 217.140625 270.22775 215.140625 270.22775 
L 64.6 270.22775 
Q 62.6 270.22775 62.6 272.22775 
L 62.6 300.584 
Q 62.6 302.584 64.6 302.584 
z
" style="fill: #ffffff; opacity: 0.8; stroke: #cccccc; stroke-linejoin: miter"/>
    </g>
    <g id="line2d_25">
     <path d="M 66.6 278.326187 
L 76.6 278.326187 
L 86.6 278.326187 
" style="fill: none; stroke: #1f77b4; stroke-width: 1.5; stroke-linecap: square"/>
    </g>
    <g id="text_14">
     <!-- GPS derived deltaH -->
     <g transform="translate(94.6 281.826187)scale(0.1 -0.1)">
      <defs>
       <path id="DejaVuSans-47" d="M 3809 666 
L 3809 1919 
L 2778 1919 
L 2778 2438 
L 4434 2438 
L 4434 434 
Q 4069 175 3628 42 
Q 3188 -91 2688 -91 
Q 1594 -91 976 548 
Q 359 1188 359 2328 
Q 359 3472 976 4111 
Q 1594 4750 2688 4750 
Q 3144 4750 3555 4637 
Q 3966 4525 4313 4306 
L 4313 3634 
Q 3963 3931 3569 4081 
Q 3175 4231 2741 4231 
Q 1884 4231 1454 3753 
Q 1025 3275 1025 2328 
Q 1025 1384 1454 906 
Q 1884 428 2741 428 
Q 3075 428 3337 486 
Q 3600 544 3809 666 
z
" transform="scale(0.015625)"/>
       <path id="DejaVuSans-50" d="M 1259 4147 
L 1259 2394 
L 2053 2394 
Q 2494 2394 2734 2622 
Q 2975 2850 2975 3272 
Q 2975 3691 2734 3919 
Q 2494 4147 2053 4147 
L 1259 4147 
z
M 628 4666 
L 2053 4666 
Q 2838 4666 3239 4311 
Q 3641 3956 3641 3272 
Q 3641 2581 3239 2228 
Q 2838 1875 2053 1875 
L 1259 1875 
L 1259 0 
L 628 0 
L 628 4666 
z
" transform="scale(0.015625)"/>
       <path id="DejaVuSans-53" d="M 3425 4513 
L 3425 3897 
Q 3066 4069 2747 4153 
Q 2428 4238 2131 4238 
Q 1616 4238 1336 4038 
Q 1056 3838 1056 3469 
Q 1056 3159 1242 3001 
Q 1428 2844 1947 2747 
L 2328 2669 
Q 3034 2534 3370 2195 
Q 3706 1856 3706 1288 
Q 3706 609 3251 259 
Q 2797 -91 1919 -91 
Q 1588 -91 1214 -16 
Q 841 59 441 206 
L 441 856 
Q 825 641 1194 531 
Q 1563 422 1919 422 
Q 2459 422 2753 634 
Q 3047 847 3047 1241 
Q 3047 1584 2836 1778 
Q 2625 1972 2144 2069 
L 1759 2144 
Q 1053 2284 737 2584 
Q 422 2884 422 3419 
Q 422 4038 858 4394 
Q 1294 4750 2059 4750 
Q 2388 4750 2728 4690 
Q 3069 4631 3425 4513 
z
" transform="scale(0.015625)"/>
       <path id="DejaVuSans-48" d="M 628 4666 
L 1259 4666 
L 1259 2753 
L 3553 2753 
L 3553 4666 
L 4184 4666 
L 4184 0 
L 3553 0 
L 3553 2222 
L 1259 2222 
L 1259 0 
L 628 0 
L 628 4666 
z
" transform="scale(0.015625)"/>
      </defs>
      <use xlink:href="#DejaVuSans-47"/>
      <use xlink:href="#DejaVuSans-50" x="77.490234"/>
      <use xlink:href="#DejaVuSans-53" x="137.792969"/>
      <use xlink:href="#DejaVuSans-20" x="201.269531"/>
      <use xlink:href="#DejaVuSans-64" x="233.056641"/>
      <use xlink:href="#DejaVuSans-65" x="296.533203"/>
      <use xlink:href="#DejaVuSans-72" x="358.056641"/>
      <use xlink:href="#DejaVuSans-69" x="399.169922"/>
      <use xlink:href="#DejaVuSans-76" x="426.953125"/>
      <use xlink:href="#DejaVuSans-65" x="486.132812"/>
      <use xlink:href="#DejaVuSans-64" x="547.65625"/>
      <use xlink:href="#DejaVuSans-20" x="611.132812"/>
      <use xlink:href="#DejaVuSans-64" x="642.919922"/>
      <use xlink:href="#DejaVuSans-65" x="706.396484"/>
      <use xlink:href="#DejaVuSans-6c" x="767.919922"/>
      <use xlink:href="#DejaVuSans-74" x="795.703125"/>
      <use xlink:href="#DejaVuSans-61" x="834.912109"/>
      <use xlink:href="#DejaVuSans-48" x="896.191406"/>
     </g>
    </g>
    <g id="line2d_26">
     <path d="M 66.6 293.004312 
L 76.6 293.004312 
L 86.6 293.004312 
" style="fill: none; stroke: #ff7f0e; stroke-width: 1.5; stroke-linecap: square"/>
    </g>
    <g id="text_15">
     <!-- bmp280 derived deltaH -->
     <g transform="translate(94.6 296.504312)scale(0.1 -0.1)">
      <defs>
       <path id="DejaVuSans-62" d="M 3116 1747 
Q 3116 2381 2855 2742 
Q 2594 3103 2138 3103 
Q 1681 3103 1420 2742 
Q 1159 2381 1159 1747 
Q 1159 1113 1420 752 
Q 1681 391 2138 391 
Q 2594 391 2855 752 
Q 3116 1113 3116 1747 
z
M 1159 2969 
Q 1341 3281 1617 3432 
Q 1894 3584 2278 3584 
Q 2916 3584 3314 3078 
Q 3713 2572 3713 1747 
Q 3713 922 3314 415 
Q 2916 -91 2278 -91 
Q 1894 -91 1617 61 
Q 1341 213 1159 525 
L 1159 0 
L 581 0 
L 581 4863 
L 1159 4863 
L 1159 2969 
z
" transform="scale(0.015625)"/>
      </defs>
      <use xlink:href="#DejaVuSans-62"/>
      <use xlink:href="#DejaVuSans-6d" x="63.476562"/>
      <use xlink:href="#DejaVuSans-70" x="160.888672"/>
      <use xlink:href="#DejaVuSans-32" x="224.365234"/>
      <use xlink:href="#DejaVuSans-38" x="287.988281"/>
      <use xlink:href="#DejaVuSans-30" x="351.611328"/>
      <use xlink:href="#DejaVuSans-20" x="415.234375"/>
      <use xlink:href="#DejaVuSans-64" x="447.021484"/>
      <use xlink:href="#DejaVuSans-65" x="510.498047"/>
      <use xlink:href="#DejaVuSans-72" x="572.021484"/>
      <use xlink:href="#DejaVuSans-69" x="613.134766"/>
      <use xlink:href="#DejaVuSans-76" x="640.917969"/>
      <use xlink:href="#DejaVuSans-65" x="700.097656"/>
      <use xlink:href="#DejaVuSans-64" x="761.621094"/>
      <use xlink:href="#DejaVuSans-20" x="825.097656"/>
      <use xlink:href="#DejaVuSans-64" x="856.884766"/>
      <use xlink:href="#DejaVuSans-65" x="920.361328"/>
      <use xlink:href="#DejaVuSans-6c" x="981.884766"/>
      <use xlink:href="#DejaVuSans-74" x="1009.667969"/>
      <use xlink:href="#DejaVuSans-61" x="1048.876953"/>
      <use xlink:href="#DejaVuSans-48" x="1110.15625"/>
     </g>
    </g>
   </g>
  </g>
 </g>
 <defs>
  <clipPath id="pb608a97fbe">
   <rect x="57.6" y="41.472" width="357.12" height="266.112"/>
  </clipPath>
 </defs>
</svg>
