<?xml version="1.0" encoding="utf-8" standalone="no"?>
<!DOCTYPE svg PUBLIC "-//W3C//DTD SVG 1.1//EN"
  "http://www.w3.org/Graphics/SVG/1.1/DTD/svg11.dtd">
<svg xmlns:xlink="http://www.w3.org/1999/xlink" width="460.8pt" height="345.6pt" viewBox="0 0 460.8 345.6" xmlns="http://www.w3.org/2000/svg" version="1.1">
 <metadata>
  <rdf:RDF xmlns:dc="http://purl.org/dc/elements/1.1/" xmlns:cc="http://creativecommons.org/ns#" xmlns:rdf="http://www.w3.org/1999/02/22-rdf-syntax-ns#">
   <cc:Work>
    <dc:type rdf:resource="http://purl.org/dc/dcmitype/StillImage"/>
    <dc:date>2021-12-12T14:08:03.877720</dc:date>
    <dc:format>image/svg+xml</dc:format>
    <dc:creator>
     <cc:Agent>
      <dc:title>Matplotlib v3.5.0, https://matplotlib.org/</dc:title>
     </cc:Agent>
    </dc:creator>
   </cc:Work>
  </rdf:RDF>
 </metadata>
 <defs>
  <style type="text/css">*{stroke-linejoin: round; stroke-linecap: butt}</style>
 </defs>
 <g id="figure_1">
  <g id="patch_1">
   <path d="M 0 345.6 
L 460.8 345.6 
L 460.8 0 
L 0 0 
z
" style="fill: #ffffff"/>
  </g>
  <g id="axes_1">
   <g id="patch_2">
    <path d="M 57.6 307.584 
L 414.72 307.584 
L 414.72 41.472 
L 57.6 41.472 
z
" style="fill: #ffffff"/>
   </g>
   <g id="matplotlib.axis_1">
    <g id="xtick_1">
     <g id="line2d_1">
      <defs>
       <path id="m01475675f5" d="M 0 0 
L 0 3.5 
" style="stroke: #000000; stroke-width: 0.8"/>
      </defs>
      <g>
       <use xlink:href="#m01475675f5" x="73.832727" y="307.584" style="stroke: #000000; stroke-width: 0.8"/>
      </g>
     </g>
     <g id="text_1">
      <!-- 0 -->
      <g transform="translate(70.651477 322.182437)scale(0.1 -0.1)">
       <defs>
        <path id="DejaVuSans-30" d="M 2034 4250 
Q 1547 4250 1301 3770 
Q 1056 3291 1056 2328 
Q 1056 1369 1301 889 
Q 1547 409 2034 409 
Q 2525 409 2770 889 
Q 3016 1369 3016 2328 
Q 3016 3291 2770 3770 
Q 2525 4250 2034 4250 
z
M 2034 4750 
Q 2819 4750 3233 4129 
Q 3647 3509 3647 2328 
Q 3647 1150 3233 529 
Q 2819 -91 2034 -91 
Q 1250 -91 836 529 
Q 422 1150 422 2328 
Q 422 3509 836 4129 
Q 1250 4750 2034 4750 
z
" transform="scale(0.015625)"/>
       </defs>
       <use xlink:href="#DejaVuSans-30"/>
      </g>
     </g>
    </g>
    <g id="xtick_2">
     <g id="line2d_2">
      <g>
       <use xlink:href="#m01475675f5" x="133.621778" y="307.584" style="stroke: #000000; stroke-width: 0.8"/>
      </g>
     </g>
     <g id="text_2">
      <!-- 200 -->
      <g transform="translate(124.078028 322.182437)scale(0.1 -0.1)">
       <defs>
        <path id="DejaVuSans-32" d="M 1228 531 
L 3431 531 
L 3431 0 
L 469 0 
L 469 531 
Q 828 903 1448 1529 
Q 2069 2156 2228 2338 
Q 2531 2678 2651 2914 
Q 2772 3150 2772 3378 
Q 2772 3750 2511 3984 
Q 2250 4219 1831 4219 
Q 1534 4219 1204 4116 
Q 875 4013 500 3803 
L 500 4441 
Q 881 4594 1212 4672 
Q 1544 4750 1819 4750 
Q 2544 4750 2975 4387 
Q 3406 4025 3406 3419 
Q 3406 3131 3298 2873 
Q 3191 2616 2906 2266 
Q 2828 2175 2409 1742 
Q 1991 1309 1228 531 
z
" transform="scale(0.015625)"/>
       </defs>
       <use xlink:href="#DejaVuSans-32"/>
       <use xlink:href="#DejaVuSans-30" x="63.623047"/>
       <use xlink:href="#DejaVuSans-30" x="127.246094"/>
      </g>
     </g>
    </g>
    <g id="xtick_3">
     <g id="line2d_3">
      <g>
       <use xlink:href="#m01475675f5" x="193.410829" y="307.584" style="stroke: #000000; stroke-width: 0.8"/>
      </g>
     </g>
     <g id="text_3">
      <!-- 400 -->
      <g transform="translate(183.867079 322.182437)scale(0.1 -0.1)">
       <defs>
        <path id="DejaVuSans-34" d="M 2419 4116 
L 825 1625 
L 2419 1625 
L 2419 4116 
z
M 2253 4666 
L 3047 4666 
L 3047 1625 
L 3713 1625 
L 3713 1100 
L 3047 1100 
L 3047 0 
L 2419 0 
L 2419 1100 
L 313 1100 
L 313 1709 
L 2253 4666 
z
" transform="scale(0.015625)"/>
       </defs>
       <use xlink:href="#DejaVuSans-34"/>
       <use xlink:href="#DejaVuSans-30" x="63.623047"/>
       <use xlink:href="#DejaVuSans-30" x="127.246094"/>
      </g>
     </g>
    </g>
    <g id="xtick_4">
     <g id="line2d_4">
      <g>
       <use xlink:href="#m01475675f5" x="253.199879" y="307.584" style="stroke: #000000; stroke-width: 0.8"/>
      </g>
     </g>
     <g id="text_4">
      <!-- 600 -->
      <g transform="translate(243.656129 322.182437)scale(0.1 -0.1)">
       <defs>
        <path id="DejaVuSans-36" d="M 2113 2584 
Q 1688 2584 1439 2293 
Q 1191 2003 1191 1497 
Q 1191 994 1439 701 
Q 1688 409 2113 409 
Q 2538 409 2786 701 
Q 3034 994 3034 1497 
Q 3034 2003 2786 2293 
Q 2538 2584 2113 2584 
z
M 3366 4563 
L 3366 3988 
Q 3128 4100 2886 4159 
Q 2644 4219 2406 4219 
Q 1781 4219 1451 3797 
Q 1122 3375 1075 2522 
Q 1259 2794 1537 2939 
Q 1816 3084 2150 3084 
Q 2853 3084 3261 2657 
Q 3669 2231 3669 1497 
Q 3669 778 3244 343 
Q 2819 -91 2113 -91 
Q 1303 -91 875 529 
Q 447 1150 447 2328 
Q 447 3434 972 4092 
Q 1497 4750 2381 4750 
Q 2619 4750 2861 4703 
Q 3103 4656 3366 4563 
z
" transform="scale(0.015625)"/>
       </defs>
       <use xlink:href="#DejaVuSans-36"/>
       <use xlink:href="#DejaVuSans-30" x="63.623047"/>
       <use xlink:href="#DejaVuSans-30" x="127.246094"/>
      </g>
     </g>
    </g>
    <g id="xtick_5">
     <g id="line2d_5">
      <g>
       <use xlink:href="#m01475675f5" x="312.98893" y="307.584" style="stroke: #000000; stroke-width: 0.8"/>
      </g>
     </g>
     <g id="text_5">
      <!-- 800 -->
      <g transform="translate(303.44518 322.182437)scale(0.1 -0.1)">
       <defs>
        <path id="DejaVuSans-38" d="M 2034 2216 
Q 1584 2216 1326 1975 
Q 1069 1734 1069 1313 
Q 1069 891 1326 650 
Q 1584 409 2034 409 
Q 2484 409 2743 651 
Q 3003 894 3003 1313 
Q 3003 1734 2745 1975 
Q 2488 2216 2034 2216 
z
M 1403 2484 
Q 997 2584 770 2862 
Q 544 3141 544 3541 
Q 544 4100 942 4425 
Q 1341 4750 2034 4750 
Q 2731 4750 3128 4425 
Q 3525 4100 3525 3541 
Q 3525 3141 3298 2862 
Q 3072 2584 2669 2484 
Q 3125 2378 3379 2068 
Q 3634 1759 3634 1313 
Q 3634 634 3220 271 
Q 2806 -91 2034 -91 
Q 1263 -91 848 271 
Q 434 634 434 1313 
Q 434 1759 690 2068 
Q 947 2378 1403 2484 
z
M 1172 3481 
Q 1172 3119 1398 2916 
Q 1625 2713 2034 2713 
Q 2441 2713 2670 2916 
Q 2900 3119 2900 3481 
Q 2900 3844 2670 4047 
Q 2441 4250 2034 4250 
Q 1625 4250 1398 4047 
Q 1172 3844 1172 3481 
z
" transform="scale(0.015625)"/>
       </defs>
       <use xlink:href="#DejaVuSans-38"/>
       <use xlink:href="#DejaVuSans-30" x="63.623047"/>
       <use xlink:href="#DejaVuSans-30" x="127.246094"/>
      </g>
     </g>
    </g>
    <g id="xtick_6">
     <g id="line2d_6">
      <g>
       <use xlink:href="#m01475675f5" x="372.777981" y="307.584" style="stroke: #000000; stroke-width: 0.8"/>
      </g>
     </g>
     <g id="text_6">
      <!-- 1000 -->
      <g transform="translate(360.052981 322.182437)scale(0.1 -0.1)">
       <defs>
        <path id="DejaVuSans-31" d="M 794 531 
L 1825 531 
L 1825 4091 
L 703 3866 
L 703 4441 
L 1819 4666 
L 2450 4666 
L 2450 531 
L 3481 531 
L 3481 0 
L 794 0 
L 794 531 
z
" transform="scale(0.015625)"/>
       </defs>
       <use xlink:href="#DejaVuSans-31"/>
       <use xlink:href="#DejaVuSans-30" x="63.623047"/>
       <use xlink:href="#DejaVuSans-30" x="127.246094"/>
       <use xlink:href="#DejaVuSans-30" x="190.869141"/>
      </g>
     </g>
    </g>
   </g>
   <g id="matplotlib.axis_2">
    <g id="ytick_1">
     <g id="line2d_7">
      <defs>
       <path id="m04fc601184" d="M 0 0 
L -3.5 0 
" style="stroke: #000000; stroke-width: 0.8"/>
      </defs>
      <g>
       <use xlink:href="#m04fc601184" x="57.6" y="289.154086" style="stroke: #000000; stroke-width: 0.8"/>
      </g>
     </g>
     <g id="text_7">
      <!-- −40 -->
      <g transform="translate(29.495313 292.953305)scale(0.1 -0.1)">
       <defs>
        <path id="DejaVuSans-2212" d="M 678 2272 
L 4684 2272 
L 4684 1741 
L 678 1741 
L 678 2272 
z
" transform="scale(0.015625)"/>
       </defs>
       <use xlink:href="#DejaVuSans-2212"/>
       <use xlink:href="#DejaVuSans-34" x="83.789062"/>
       <use xlink:href="#DejaVuSans-30" x="147.412109"/>
      </g>
     </g>
    </g>
    <g id="ytick_2">
     <g id="line2d_8">
      <g>
       <use xlink:href="#m04fc601184" x="57.6" y="245.245565" style="stroke: #000000; stroke-width: 0.8"/>
      </g>
     </g>
     <g id="text_8">
      <!-- −30 -->
      <g transform="translate(29.495313 249.044784)scale(0.1 -0.1)">
       <defs>
        <path id="DejaVuSans-33" d="M 2597 2516 
Q 3050 2419 3304 2112 
Q 3559 1806 3559 1356 
Q 3559 666 3084 287 
Q 2609 -91 1734 -91 
Q 1441 -91 1130 -33 
Q 819 25 488 141 
L 488 750 
Q 750 597 1062 519 
Q 1375 441 1716 441 
Q 2309 441 2620 675 
Q 2931 909 2931 1356 
Q 2931 1769 2642 2001 
Q 2353 2234 1838 2234 
L 1294 2234 
L 1294 2753 
L 1863 2753 
Q 2328 2753 2575 2939 
Q 2822 3125 2822 3475 
Q 2822 3834 2567 4026 
Q 2313 4219 1838 4219 
Q 1578 4219 1281 4162 
Q 984 4106 628 3988 
L 628 4550 
Q 988 4650 1302 4700 
Q 1616 4750 1894 4750 
Q 2613 4750 3031 4423 
Q 3450 4097 3450 3541 
Q 3450 3153 3228 2886 
Q 3006 2619 2597 2516 
z
" transform="scale(0.015625)"/>
       </defs>
       <use xlink:href="#DejaVuSans-2212"/>
       <use xlink:href="#DejaVuSans-33" x="83.789062"/>
       <use xlink:href="#DejaVuSans-30" x="147.412109"/>
      </g>
     </g>
    </g>
    <g id="ytick_3">
     <g id="line2d_9">
      <g>
       <use xlink:href="#m04fc601184" x="57.6" y="201.337044" style="stroke: #000000; stroke-width: 0.8"/>
      </g>
     </g>
     <g id="text_9">
      <!-- −20 -->
      <g transform="translate(29.495313 205.136262)scale(0.1 -0.1)">
       <use xlink:href="#DejaVuSans-2212"/>
       <use xlink:href="#DejaVuSans-32" x="83.789062"/>
       <use xlink:href="#DejaVuSans-30" x="147.412109"/>
      </g>
     </g>
    </g>
    <g id="ytick_4">
     <g id="line2d_10">
      <g>
       <use xlink:href="#m04fc601184" x="57.6" y="157.428522" style="stroke: #000000; stroke-width: 0.8"/>
      </g>
     </g>
     <g id="text_10">
      <!-- −10 -->
      <g transform="translate(29.495313 161.227741)scale(0.1 -0.1)">
       <use xlink:href="#DejaVuSans-2212"/>
       <use xlink:href="#DejaVuSans-31" x="83.789062"/>
       <use xlink:href="#DejaVuSans-30" x="147.412109"/>
      </g>
     </g>
    </g>
    <g id="ytick_5">
     <g id="line2d_11">
      <g>
       <use xlink:href="#m04fc601184" x="57.6" y="113.520001" style="stroke: #000000; stroke-width: 0.8"/>
      </g>
     </g>
     <g id="text_11">
      <!-- 0 -->
      <g transform="translate(44.2375 117.31922)scale(0.1 -0.1)">
       <use xlink:href="#DejaVuSans-30"/>
      </g>
     </g>
    </g>
    <g id="ytick_6">
     <g id="line2d_12">
      <g>
       <use xlink:href="#m04fc601184" x="57.6" y="69.61148" style="stroke: #000000; stroke-width: 0.8"/>
      </g>
     </g>
     <g id="text_12">
      <!-- 10 -->
      <g transform="translate(37.875 73.410699)scale(0.1 -0.1)">
       <use xlink:href="#DejaVuSans-31"/>
       <use xlink:href="#DejaVuSans-30" x="63.623047"/>
      </g>
     </g>
    </g>
   </g>
   <g id="line2d_13">
    <path d="M 73.832727 113.520001 
L 74.131673 113.539027 
L 74.430618 113.704562 
L 74.729563 113.270346 
L 75.028508 113.212861 
L 75.626399 113.560103 
L 76.523235 113.25871 
L 76.82218 113.522491 
L 77.719016 113.759158 
L 78.316906 113.785793 
L 78.615851 113.986419 
L 78.914797 113.856376 
L 79.213742 113.461164 
L 79.512687 113.25439 
L 79.811632 112.358107 
L 80.110578 113.296142 
L 80.409523 114.92478 
L 81.007413 116.022054 
L 81.605304 116.78215 
L 81.904249 116.845488 
L 82.203194 118.610939 
L 82.801085 123.243763 
L 83.10003 123.263267 
L 83.398975 125.045514 
L 83.697921 125.469011 
L 83.996866 126.161594 
L 84.295811 126.116113 
L 84.893702 127.254073 
L 85.192647 127.222643 
L 86.089483 127.650716 
L 86.388428 127.346136 
L 86.687373 126.526583 
L 86.986318 126.118748 
L 87.883154 123.615778 
L 89.078935 116.806809 
L 89.37788 115.977486 
L 89.975771 113.451394 
L 90.274716 112.886436 
L 90.573661 111.509101 
L 90.872607 111.353555 
L 91.470497 110.682997 
L 91.769442 110.625916 
L 92.068388 109.53428 
L 92.367333 109.550341 
L 92.666278 109.139283 
L 93.563114 109.891326 
L 93.862059 109.507785 
L 94.45995 111.883605 
L 94.758895 111.927694 
L 95.356786 112.716879 
L 95.954676 114.448776 
L 96.552567 114.97725 
L 96.851512 114.8909 
L 97.150457 115.445609 
L 97.748348 118.387151 
L 98.047293 118.267939 
L 98.346238 119.670562 
L 98.645183 117.417102 
L 98.944129 119.900239 
L 99.243074 119.816009 
L 99.542019 120.833699 
L 99.840964 123.081266 
L 100.13991 120.42026 
L 100.438855 121.492107 
L 101.036745 130.323243 
L 101.933581 137.936616 
L 102.232526 138.634832 
L 104.026198 169.545553 
L 104.624088 184.605262 
L 104.923034 189.632239 
L 105.221979 191.232121 
L 105.819869 198.077824 
L 106.118815 199.830907 
L 106.41776 204.141007 
L 106.716705 205.077611 
L 107.01565 208.005176 
L 107.314596 213.611416 
L 107.613541 215.09051 
L 108.211431 222.600878 
L 108.510377 227.51468 
L 108.809322 228.973396 
L 109.108267 232.19932 
L 110.005103 246.747091 
L 110.901939 269.754129 
L 111.200884 273.574465 
L 111.798774 277.760154 
L 112.396665 283.494462 
L 112.69561 288.492385 
L 112.994555 289.916009 
L 113.293501 290.393843 
L 113.891391 292.048097 
L 114.190337 292.28897 
L 114.489282 291.761668 
L 114.788227 290.569258 
L 115.087172 290.253591 
L 115.685063 290.185862 
L 115.984008 289.64425 
L 116.282953 289.86493 
L 116.581899 289.341905 
L 116.880844 289.593685 
L 117.179789 290.066725 
L 117.478734 290.270605 
L 117.77768 290.116196 
L 118.37557 289.431443 
L 118.973461 289.018374 
L 119.272406 289.460752 
L 119.571351 289.316144 
L 119.870296 288.315618 
L 120.169242 288.518475 
L 120.468187 288.493886 
L 120.767132 288.77285 
L 121.066077 288.825685 
L 121.365023 288.683791 
L 121.663968 287.521567 
L 122.560804 287.83943 
L 122.859749 288.337093 
L 123.457639 287.65922 
L 123.756585 287.947555 
L 124.354475 287.911475 
L 124.65342 288.252864 
L 124.952366 288.220701 
L 125.251311 287.609968 
L 125.550256 287.560391 
L 125.849201 287.662549 
L 126.148147 288.167975 
L 126.447092 287.979643 
L 126.746037 286.824519 
L 127.044982 287.209962 
L 127.343928 286.937768 
L 127.642873 287.103743 
L 127.941818 286.58639 
L 128.240763 286.74757 
L 128.539709 287.268215 
L 128.838654 287.381244 
L 129.137599 287.857323 
L 129.436544 287.264228 
L 129.73549 287.208425 
L 130.034435 287.577221 
L 130.33338 287.613007 
L 130.632325 287.151309 
L 130.931271 287.351641 
L 131.230216 286.147595 
L 131.529161 286.02974 
L 131.828106 286.556423 
L 132.425997 286.311923 
L 132.724942 286.251623 
L 133.023887 285.610923 
L 133.322833 285.497384 
L 133.920723 285.906063 
L 134.219669 285.924724 
L 134.518614 284.99818 
L 135.116504 285.451171 
L 135.41545 285.635951 
L 135.714395 285.68191 
L 136.01334 285.847445 
L 136.312285 285.561017 
L 136.910176 286.217265 
L 137.209121 285.763106 
L 137.508066 286.067133 
L 137.807012 286.046351 
L 138.105957 285.57137 
L 138.404902 285.723368 
L 138.703847 285.719526 
L 139.002793 285.94829 
L 139.301738 285.720659 
L 139.600683 285.350365 
L 140.198574 286.120885 
L 140.497519 286.896894 
L 141.394355 287.735986 
L 141.6933 287.644695 
L 141.992245 287.958821 
L 142.29119 287.854468 
L 142.590136 288.063873 
L 142.889081 287.904085 
L 143.188026 287.078346 
L 143.486971 287.13378 
L 144.084862 287.752965 
L 144.383807 287.84898 
L 144.981698 287.58015 
L 145.280643 287.552268 
L 145.579588 287.701518 
L 145.878533 287.180872 
L 146.177479 287.409161 
L 146.476424 287.088555 
L 146.775369 287.461742 
L 147.074314 286.974432 
L 147.37326 285.930213 
L 147.97115 285.806795 
L 148.867986 285.023796 
L 149.166931 284.090775 
L 149.465876 285.189037 
L 149.764822 285.123798 
L 150.063767 285.41564 
L 150.661657 285.47316 
L 150.960603 284.608017 
L 151.558493 285.773494 
L 151.857438 285.913857 
L 152.156384 285.840165 
L 152.455329 286.360077 
L 152.754274 287.379817 
L 153.950055 289.006114 
L 154.249001 288.953644 
L 154.547946 289.885273 
L 154.846891 289.902507 
L 155.145836 290.228712 
L 155.444782 290.18663 
L 155.743727 290.347629 
L 156.042672 288.896707 
L 156.341617 289.337294 
L 156.640563 290.16702 
L 156.939508 290.114695 
L 157.238453 290.200791 
L 157.537398 289.161805 
L 157.836344 289.851353 
L 158.135289 289.789442 
L 158.434234 289.891675 
L 158.733179 290.251874 
L 159.032125 289.916118 
L 159.33107 289.228436 
L 159.630015 289.495989 
L 160.227906 288.428204 
L 160.526851 289.919302 
L 160.825796 287.764711 
L 161.423687 286.556093 
L 161.722632 285.517802 
L 162.021577 286.189308 
L 162.320522 287.158224 
L 162.619468 284.819108 
L 162.918413 284.587855 
L 163.217358 283.420072 
L 163.516303 282.749334 
L 163.815249 282.666382 
L 164.114194 282.907076 
L 164.413139 282.309187 
L 164.712084 284.167689 
L 165.309975 281.599111 
L 165.907865 280.414938 
L 166.206811 279.434276 
L 166.505756 279.456305 
L 166.804701 278.441869 
L 167.402592 276.02701 
L 167.701537 275.337501 
L 168.000482 273.338382 
L 168.598373 270.865199 
L 169.196263 272.18238 
L 170.093099 267.862844 
L 170.989935 264.824704 
L 171.28888 264.879664 
L 171.88677 263.311287 
L 172.484661 257.295415 
L 173.680442 249.618489 
L 173.979387 249.49569 
L 174.278332 249.16667 
L 174.876223 246.718366 
L 175.175168 245.768221 
L 175.474114 245.531958 
L 175.773059 246.952693 
L 176.072004 246.4862 
L 176.370949 245.198473 
L 176.96884 239.298704 
L 177.267785 238.946962 
L 177.56673 239.359298 
L 177.865676 239.174079 
L 178.164621 238.694668 
L 178.762511 234.98352 
L 179.659347 230.766146 
L 179.958292 230.318279 
L 180.556183 227.478166 
L 180.855128 227.268428 
L 181.154073 221.736029 
L 181.453019 221.320286 
L 182.050909 224.574166 
L 182.349854 225.825629 
L 182.6488 225.912388 
L 182.947745 226.949323 
L 183.24669 226.865383 
L 183.844581 232.127859 
L 184.143526 233.384446 
L 184.442471 234.129648 
L 184.741416 233.446247 
L 185.638252 235.123663 
L 185.937197 235.171598 
L 186.535088 234.74089 
L 186.834033 234.923879 
L 187.132978 234.757281 
L 187.431924 235.427545 
L 188.029814 235.329155 
L 188.328759 235.594217 
L 188.92665 235.802818 
L 189.52454 234.745206 
L 189.823486 234.489769 
L 190.122431 234.656621 
L 190.421376 234.511139 
L 190.720321 234.67393 
L 191.019267 235.015503 
L 191.318212 234.291083 
L 191.617157 234.530568 
L 191.916102 234.621494 
L 192.215048 234.984218 
L 192.812938 234.783007 
L 193.111883 233.78361 
L 193.709774 234.312967 
L 194.008719 234.440227 
L 194.307664 234.300707 
L 194.905555 235.0653 
L 195.2045 235.000534 
L 195.802391 234.707375 
L 196.101336 234.879018 
L 196.400281 233.689466 
L 196.699227 234.675431 
L 197.596062 234.951028 
L 197.895008 234.441838 
L 199.090789 234.716631 
L 199.389734 234.083031 
L 199.688679 234.609419 
L 199.987624 234.767051 
L 200.28657 234.632621 
L 200.585515 234.657828 
L 200.88446 233.759425 
L 201.183405 233.81702 
L 201.482351 233.699819 
L 201.781296 234.328185 
L 202.080241 234.224197 
L 202.678132 233.296629 
L 202.977077 233.922984 
L 203.276022 233.945413 
L 203.574967 234.360607 
L 203.873913 234.049406 
L 204.172858 234.036194 
L 205.368639 234.720947 
L 205.667584 234.638144 
L 205.966529 233.708566 
L 206.265475 234.063382 
L 207.461256 234.267851 
L 207.760201 233.695832 
L 208.955982 234.356616 
L 209.254927 229.904331 
L 209.852818 232.651833 
L 210.749653 233.652214 
L 211.048599 233.039799 
L 211.347544 233.758182 
L 211.646489 233.611818 
L 211.945434 234.336199 
L 212.24438 234.722194 
L 212.543325 233.667401 
L 212.84227 233.979846 
L 213.141215 234.079044 
L 213.440161 233.813468 
L 213.739106 233.755069 
L 214.038051 232.945875 
L 214.635942 233.852217 
L 214.934887 234.144248 
L 215.233832 234.121012 
L 215.532777 234.223024 
L 215.831723 232.761858 
L 216.130668 233.203468 
L 216.429613 233.218656 
L 216.728559 233.957048 
L 217.027504 233.18587 
L 217.326449 233.456676 
L 217.625394 233.414269 
L 217.92434 233.556642 
L 218.223285 234.099022 
L 218.52223 233.673399 
L 219.120121 234.290573 
L 219.419066 234.667343 
L 219.718011 234.750111 
L 220.016956 234.513738 
L 220.315902 233.634505 
L 220.913792 234.143699 
L 221.212737 234.045673 
L 221.810628 234.46485 
L 222.109573 233.733225 
L 222.707464 233.823237 
L 223.305354 234.057638 
L 223.604299 233.904029 
L 223.903245 233.938462 
L 224.20219 234.217206 
L 224.80008 234.399976 
L 225.099026 234.225185 
L 225.397971 234.601955 
L 225.696916 234.188776 
L 225.995861 234.069604 
L 226.593752 234.207986 
L 226.892697 233.912007 
L 227.191642 233.272405 
L 227.789533 233.620015 
L 228.088478 233.596819 
L 228.387423 233.794806 
L 228.686369 232.730833 
L 228.985314 233.50483 
L 229.284259 233.554447 
L 229.88215 234.242419 
L 230.181095 234.142417 
L 230.48004 233.765647 
L 230.778985 233.963635 
L 231.376876 234.036453 
L 231.675821 234.096058 
L 231.974766 234.038428 
L 232.273712 233.610061 
L 232.572657 233.559716 
L 232.871602 233.847716 
L 233.170547 234.297269 
L 233.469493 234.112524 
L 233.768438 233.223337 
L 234.366328 234.023754 
L 234.665274 233.95617 
L 234.964219 234.067369 
L 235.562109 233.840217 
L 235.861055 234.111022 
L 236.16 233.355431 
L 236.458945 233.139033 
L 236.757891 233.748193 
L 237.056836 233.705821 
L 237.355781 233.946181 
L 237.953672 234.097815 
L 238.252617 233.272185 
L 238.850507 234.065393 
L 239.149453 234.316989 
L 239.448398 234.234186 
L 239.747343 234.677807 
L 240.046288 234.162615 
L 240.345234 234.123427 
L 240.943124 234.664235 
L 241.242069 234.598662 
L 241.541015 233.601464 
L 241.83996 233.741058 
L 242.138905 234.107839 
L 242.736796 233.81702 
L 243.035741 233.838206 
L 243.334686 229.260922 
L 243.633631 231.495941 
L 243.932577 232.509459 
L 244.829412 233.409839 
L 245.128358 232.147872 
L 245.427303 232.856227 
L 245.726248 232.934164 
L 246.025193 233.688952 
L 246.324139 233.57691 
L 246.623084 232.864534 
L 247.818865 233.69927 
L 248.416755 233.839668 
L 248.715701 233.395239 
L 249.014646 233.424697 
L 249.313591 233.724922 
L 249.612536 233.390668 
L 249.911482 231.927706 
L 250.210427 232.093461 
L 250.509372 232.109672 
L 250.808317 232.67441 
L 251.406208 233.283492 
L 251.705153 233.020664 
L 252.303044 233.731618 
L 252.601989 233.405852 
L 252.900934 233.294399 
L 253.199879 233.895577 
L 253.498825 233.998507 
L 253.79777 233.930703 
L 254.39566 232.99871 
L 254.694606 232.863107 
L 254.993551 232.501226 
L 255.890387 230.914667 
L 256.189332 229.944837 
L 256.488277 229.950216 
L 256.787223 230.996446 
L 257.086168 230.576386 
L 257.385113 231.511124 
L 257.983004 228.446055 
L 258.580894 228.694138 
L 258.879839 230.14773 
L 259.178785 230.588791 
L 259.47773 230.767533 
L 260.07562 229.721632 
L 260.374566 228.916425 
L 260.673511 228.616345 
L 260.972456 228.605956 
L 261.271401 228.19669 
L 261.570347 228.584841 
L 262.168237 232.345496 
L 262.467182 235.601243 
L 262.766128 231.960458 
L 263.065073 231.932756 
L 263.364018 230.387251 
L 263.662963 230.583337 
L 263.961909 233.005077 
L 264.260854 232.239606 
L 264.559799 231.881532 
L 264.858744 232.572283 
L 265.15769 231.683355 
L 265.456635 233.409988 
L 265.75558 236.358445 
L 266.054525 235.927882 
L 266.353471 236.642055 
L 266.652416 235.91936 
L 266.951361 235.74669 
L 267.250306 236.013175 
L 267.549252 236.799796 
L 267.848197 236.731483 
L 268.147142 236.407583 
L 268.446087 236.89365 
L 268.745033 237.077043 
L 269.342923 234.998379 
L 269.641868 235.058055 
L 269.940814 234.678575 
L 270.239759 235.780569 
L 270.538704 234.998084 
L 270.837649 235.400396 
L 271.136595 237.098413 
L 271.43554 237.996852 
L 271.734485 240.059824 
L 272.03343 243.035574 
L 272.332376 244.267757 
L 272.930266 247.579777 
L 273.229211 250.87793 
L 273.528157 250.358198 
L 273.827102 251.420236 
L 274.126047 250.862637 
L 274.424992 254.406639 
L 274.723938 255.072182 
L 275.321828 257.191756 
L 276.816554 268.454217 
L 277.1155 270.297936 
L 277.414445 271.096487 
L 278.012336 271.306664 
L 278.311281 271.997126 
L 278.610226 273.147968 
L 278.909171 273.087883 
L 279.208117 273.586285 
L 279.507062 274.747151 
L 279.806007 275.445481 
L 280.104952 276.678358 
L 281.300733 285.215856 
L 281.599679 286.018065 
L 281.898624 287.296756 
L 282.197569 293.26557 
L 282.496514 295.488 
L 282.79546 294.320108 
L 283.094405 291.892915 
L 283.692295 289.488045 
L 283.991241 288.738198 
L 284.888076 280.621418 
L 285.187022 279.706254 
L 285.485967 277.92064 
L 285.784912 274.600861 
L 286.980693 268.763373 
L 287.578584 264.338781 
L 287.877529 262.762101 
L 288.475419 260.871036 
L 288.774365 259.262372 
L 289.07331 258.734737 
L 289.6712 256.96903 
L 289.970146 256.4965 
L 290.269091 254.158042 
L 290.568036 254.417142 
L 290.866981 255.120956 
L 291.165927 255.097026 
L 291.464872 254.759224 
L 291.763817 255.172917 
L 292.062762 254.96519 
L 292.959598 256.055259 
L 293.856434 255.082391 
L 294.454324 255.009099 
L 294.75327 254.92176 
L 295.052215 254.981985 
L 295.35116 253.315622 
L 295.650105 254.089874 
L 295.949051 254.463246 
L 296.247996 254.634524 
L 296.546941 254.563976 
L 296.845886 254.163825 
L 297.144832 254.15658 
L 297.443777 254.427899 
L 298.340613 254.611617 
L 298.639558 253.454702 
L 298.938503 253.212511 
L 299.237449 252.374917 
L 299.536394 251.158251 
L 299.835339 251.015289 
L 300.43323 246.873838 
L 300.732175 246.370426 
L 301.03112 245.164628 
L 301.330065 244.993714 
L 301.629011 244.675338 
L 303.422682 237.416491 
L 303.721627 237.106352 
L 304.020573 234.848062 
L 304.917408 230.155598 
L 305.216354 228.612433 
L 305.814244 224.851449 
L 306.412135 220.663853 
L 306.71108 218.100843 
L 307.010025 217.551727 
L 307.607916 215.957339 
L 307.906861 214.495953 
L 308.205806 211.616283 
L 308.803697 209.254224 
L 309.102642 206.714301 
L 309.401587 205.426903 
L 309.700532 203.253506 
L 309.999478 197.647775 
L 310.298423 198.239736 
L 310.597368 198.123708 
L 310.896313 197.216448 
L 311.494204 193.951336 
L 311.793149 190.559003 
L 312.39104 188.423328 
L 312.689985 187.149836 
L 312.98893 186.651764 
L 313.287875 183.570923 
L 313.586821 183.0007 
L 313.885766 181.838881 
L 314.184711 181.238322 
L 314.483656 180.202775 
L 314.782602 179.786961 
L 315.081547 178.672563 
L 315.380492 178.107934 
L 315.978383 176.665249 
L 316.277328 177.048312 
L 316.576273 176.763275 
L 316.875218 175.791066 
L 317.174164 175.768598 
L 317.473109 174.948352 
L 317.772054 173.663149 
L 318.369945 172.410733 
L 318.967835 173.82861 
L 319.266781 173.282098 
L 319.565726 173.419018 
L 319.864671 172.180688 
L 321.359397 177.019591 
L 321.658343 176.898294 
L 321.957288 177.035179 
L 322.854124 178.154662 
L 323.153069 178.259713 
L 323.452014 177.949754 
L 324.34885 178.099592 
L 324.647795 177.697649 
L 325.245686 178.315621 
L 325.843576 178.432747 
L 326.142521 174.883951 
L 326.740412 177.151536 
L 327.338302 178.028609 
L 327.637248 178.307757 
L 327.936193 176.953799 
L 328.235138 177.786454 
L 328.534083 177.958904 
L 329.131974 178.649546 
L 329.430919 178.396084 
L 329.729864 176.224259 
L 330.327755 174.165169 
L 330.6267 172.566718 
L 330.925645 171.967038 
L 331.224591 170.936869 
L 331.523536 172.530674 
L 331.822481 171.615181 
L 332.121426 172.130887 
L 332.420372 173.302476 
L 332.719317 172.795736 
L 333.018262 172.067623 
L 333.317207 172.014494 
L 333.616153 171.688803 
L 333.915098 171.141667 
L 334.214043 170.854176 
L 334.811934 169.540394 
L 335.409824 169.227436 
L 336.007715 166.955499 
L 336.30666 165.382002 
L 336.605605 164.928502 
L 337.502441 161.747694 
L 338.100331 158.50483 
L 338.399277 158.25766 
L 338.698222 157.215641 
L 338.997167 156.78896 
L 339.296113 156.81995 
L 339.595058 154.787974 
L 339.894003 153.677417 
L 340.192948 153.219157 
L 340.790839 151.658723 
L 341.089784 151.302625 
L 341.388729 149.390444 
L 341.687675 149.236729 
L 341.98662 148.627279 
L 342.285565 148.401334 
L 342.58451 146.655492 
L 342.883456 146.130276 
L 343.780291 143.872609 
L 344.079237 143.70184 
L 344.378182 142.494321 
L 344.677127 142.994329 
L 344.976072 142.740354 
L 345.275018 142.642402 
L 345.573963 142.291863 
L 345.872908 140.605447 
L 346.171853 140.765862 
L 346.769744 140.546684 
L 347.068689 141.099308 
L 347.367634 139.815387 
L 347.965525 140.733295 
L 348.26447 140.831725 
L 348.862361 141.563495 
L 349.161306 140.468601 
L 349.460251 140.656161 
L 349.759196 140.467284 
L 350.058142 140.757519 
L 350.357087 141.375787 
L 350.656032 141.293423 
L 350.954977 140.270864 
L 351.552868 140.445988 
L 351.851813 140.727332 
L 352.150758 141.183173 
L 352.449704 140.3686 
L 352.748649 140.917966 
L 353.047594 141.16283 
L 353.346539 141.186506 
L 353.645485 141.533783 
L 353.94443 141.465944 
L 354.243375 137.161556 
L 354.54232 139.049109 
L 354.841266 139.679087 
L 355.140211 140.651735 
L 355.439156 140.694326 
L 355.738101 140.988149 
L 356.037047 140.249862 
L 356.634937 141.29492 
L 356.933882 141.569498 
L 357.232828 141.622737 
L 357.531773 140.307567 
L 357.830718 140.790631 
L 358.428609 141.035351 
L 358.727554 141.531188 
L 359.325445 139.219694 
L 359.62439 138.985112 
L 359.923335 137.481759 
L 360.22228 131.414809 
L 360.521226 131.413821 
L 361.119116 130.279409 
L 362.613842 124.47847 
L 363.510678 119.42204 
L 363.809623 116.971615 
L 364.108569 116.554005 
L 365.005404 111.044693 
L 365.30435 107.895904 
L 365.603295 106.612168 
L 365.90224 106.295368 
L 366.799076 99.529394 
L 367.098021 96.439477 
L 367.396966 95.229323 
L 367.695912 94.485732 
L 368.293802 91.062659 
L 368.592747 89.31722 
L 368.891693 85.759133 
L 369.190638 84.935369 
L 369.788528 82.092477 
L 370.087474 80.293141 
L 370.386419 76.774352 
L 370.685364 76.022124 
L 370.984309 74.164354 
L 371.283255 74.097065 
L 371.881145 71.952208 
L 372.18009 67.84998 
L 372.479036 67.496077 
L 373.375871 63.589207 
L 373.674817 61.551851 
L 374.272707 60.687477 
L 374.571652 59.360487 
L 374.870598 59.340947 
L 375.169543 58.18546 
L 375.468488 55.241503 
L 375.767433 53.654684 
L 376.365324 53.568 
L 376.664269 54.42217 
L 376.963214 53.996183 
L 377.26216 55.691601 
L 377.561105 56.213453 
L 377.86005 56.978594 
L 378.158995 54.713134 
L 379.055831 59.582809 
L 379.354776 62.60862 
L 379.653722 63.686025 
L 379.952667 66.463204 
L 380.251612 70.553647 
L 380.849503 75.778796 
L 381.447393 88.589327 
L 382.344229 98.12743 
L 382.643174 105.266112 
L 382.94212 105.725835 
L 383.241065 105.856722 
L 383.54001 105.446102 
L 383.838955 106.193061 
L 384.137901 106.627241 
L 384.436846 106.674368 
L 384.735791 107.094648 
L 385.034736 105.527443 
L 385.632627 108.344359 
L 385.931572 108.70642 
L 386.529463 110.312045 
L 386.828408 110.46053 
L 387.127353 111.584843 
L 387.426298 113.322083 
L 387.725244 114.09908 
L 388.323134 119.095799 
L 388.622079 119.608431 
L 389.21997 124.18582 
L 390.116806 126.969256 
L 390.415751 126.915758 
L 390.714696 125.917317 
L 391.013641 124.3994 
L 391.312587 123.892546 
L 391.910477 120.220661 
L 392.209422 120.183484 
L 392.508368 119.876712 
L 393.106258 120.035292 
L 394.003094 121.146398 
L 394.302039 120.824219 
L 394.89993 120.857479 
L 395.198875 121.020968 
L 395.49782 120.958509 
L 395.796765 121.158033 
L 396.992546 120.763076 
L 397.291492 121.209152 
L 397.590437 120.908124 
L 398.487273 121.195176 
L 398.487273 121.195176 
" clip-path="url(#ped0cceb1a7)" style="fill: none; stroke: #1f77b4; stroke-width: 1.5; stroke-linecap: square"/>
   </g>
   <g id="patch_3">
    <path d="M 57.6 307.584 
L 57.6 41.472 
" style="fill: none; stroke: #000000; stroke-width: 0.8; stroke-linejoin: miter; stroke-linecap: square"/>
   </g>
   <g id="patch_4">
    <path d="M 414.72 307.584 
L 414.72 41.472 
" style="fill: none; stroke: #000000; stroke-width: 0.8; stroke-linejoin: miter; stroke-linecap: square"/>
   </g>
   <g id="patch_5">
    <path d="M 57.6 307.584 
L 414.72 307.584 
" style="fill: none; stroke: #000000; stroke-width: 0.8; stroke-linejoin: miter; stroke-linecap: square"/>
   </g>
   <g id="patch_6">
    <path d="M 57.6 41.472 
L 414.72 41.472 
" style="fill: none; stroke: #000000; stroke-width: 0.8; stroke-linejoin: miter; stroke-linecap: square"/>
   </g>
  </g>
 </g>
 <defs>
  <clipPath id="ped0cceb1a7">
   <rect x="57.6" y="41.472" width="357.12" height="266.112"/>
  </clipPath>
 </defs>
</svg>
