<?xml version="1.0" encoding="utf-8" standalone="no"?>
<!DOCTYPE svg PUBLIC "-//W3C//DTD SVG 1.1//EN"
  "http://www.w3.org/Graphics/SVG/1.1/DTD/svg11.dtd">
<!-- Created with matplotlib (https://matplotlib.org/) -->
<svg height="345.6pt" version="1.1" viewBox="0 0 460.8 345.6" width="460.8pt" xmlns="http://www.w3.org/2000/svg" xmlns:xlink="http://www.w3.org/1999/xlink">
 <metadata>
  <rdf:RDF xmlns:cc="http://creativecommons.org/ns#" xmlns:dc="http://purl.org/dc/elements/1.1/" xmlns:rdf="http://www.w3.org/1999/02/22-rdf-syntax-ns#">
   <cc:Work>
    <dc:type rdf:resource="http://purl.org/dc/dcmitype/StillImage"/>
    <dc:date>2021-12-18T22:40:52.062650</dc:date>
    <dc:format>image/svg+xml</dc:format>
    <dc:creator>
     <cc:Agent>
      <dc:title>Matplotlib v3.3.4, https://matplotlib.org/</dc:title>
     </cc:Agent>
    </dc:creator>
   </cc:Work>
  </rdf:RDF>
 </metadata>
 <defs>
  <style type="text/css">*{stroke-linecap:butt;stroke-linejoin:round;}</style>
 </defs>
 <g id="figure_1">
  <g id="patch_1">
   <path d="M 0 345.6 
L 460.8 345.6 
L 460.8 0 
L 0 0 
z
" style="fill:#ffffff;"/>
  </g>
  <g id="axes_1">
   <g id="patch_2">
    <path d="M 57.6 307.584 
L 414.72 307.584 
L 414.72 41.472 
L 57.6 41.472 
z
" style="fill:#ffffff;"/>
   </g>
   <g id="matplotlib.axis_1">
    <g id="xtick_1">
     <g id="line2d_1">
      <path clip-path="url(#p44e78e4589)" d="M 73.832727 307.584 
L 73.832727 41.472 
" style="fill:none;stroke:#b0b0b0;stroke-linecap:square;stroke-width:0.8;"/>
     </g>
     <g id="line2d_2">
      <defs>
       <path d="M 0 0 
L 0 3.5 
" id="ma9c5e5c9cc" style="stroke:#000000;stroke-width:0.8;"/>
      </defs>
      <g>
       <use style="stroke:#000000;stroke-width:0.8;" x="73.832727" xlink:href="#ma9c5e5c9cc" y="307.584"/>
      </g>
     </g>
     <g id="text_1">
      <!-- 0 -->
      <g transform="translate(70.651477 322.182437)scale(0.1 -0.1)">
       <defs>
        <path d="M 31.78125 66.40625 
Q 24.171875 66.40625 20.328125 58.90625 
Q 16.5 51.421875 16.5 36.375 
Q 16.5 21.390625 20.328125 13.890625 
Q 24.171875 6.390625 31.78125 6.390625 
Q 39.453125 6.390625 43.28125 13.890625 
Q 47.125 21.390625 47.125 36.375 
Q 47.125 51.421875 43.28125 58.90625 
Q 39.453125 66.40625 31.78125 66.40625 
z
M 31.78125 74.21875 
Q 44.046875 74.21875 50.515625 64.515625 
Q 56.984375 54.828125 56.984375 36.375 
Q 56.984375 17.96875 50.515625 8.265625 
Q 44.046875 -1.421875 31.78125 -1.421875 
Q 19.53125 -1.421875 13.0625 8.265625 
Q 6.59375 17.96875 6.59375 36.375 
Q 6.59375 54.828125 13.0625 64.515625 
Q 19.53125 74.21875 31.78125 74.21875 
z
" id="DejaVuSans-48"/>
       </defs>
       <use xlink:href="#DejaVuSans-48"/>
      </g>
     </g>
    </g>
    <g id="xtick_2">
     <g id="line2d_3">
      <path clip-path="url(#p44e78e4589)" d="M 133.621778 307.584 
L 133.621778 41.472 
" style="fill:none;stroke:#b0b0b0;stroke-linecap:square;stroke-width:0.8;"/>
     </g>
     <g id="line2d_4">
      <g>
       <use style="stroke:#000000;stroke-width:0.8;" x="133.621778" xlink:href="#ma9c5e5c9cc" y="307.584"/>
      </g>
     </g>
     <g id="text_2">
      <!-- 200 -->
      <g transform="translate(124.078028 322.182437)scale(0.1 -0.1)">
       <defs>
        <path d="M 19.1875 8.296875 
L 53.609375 8.296875 
L 53.609375 0 
L 7.328125 0 
L 7.328125 8.296875 
Q 12.9375 14.109375 22.625 23.890625 
Q 32.328125 33.6875 34.8125 36.53125 
Q 39.546875 41.84375 41.421875 45.53125 
Q 43.3125 49.21875 43.3125 52.78125 
Q 43.3125 58.59375 39.234375 62.25 
Q 35.15625 65.921875 28.609375 65.921875 
Q 23.96875 65.921875 18.8125 64.3125 
Q 13.671875 62.703125 7.8125 59.421875 
L 7.8125 69.390625 
Q 13.765625 71.78125 18.9375 73 
Q 24.125 74.21875 28.421875 74.21875 
Q 39.75 74.21875 46.484375 68.546875 
Q 53.21875 62.890625 53.21875 53.421875 
Q 53.21875 48.921875 51.53125 44.890625 
Q 49.859375 40.875 45.40625 35.40625 
Q 44.1875 33.984375 37.640625 27.21875 
Q 31.109375 20.453125 19.1875 8.296875 
z
" id="DejaVuSans-50"/>
       </defs>
       <use xlink:href="#DejaVuSans-50"/>
       <use x="63.623047" xlink:href="#DejaVuSans-48"/>
       <use x="127.246094" xlink:href="#DejaVuSans-48"/>
      </g>
     </g>
    </g>
    <g id="xtick_3">
     <g id="line2d_5">
      <path clip-path="url(#p44e78e4589)" d="M 193.410829 307.584 
L 193.410829 41.472 
" style="fill:none;stroke:#b0b0b0;stroke-linecap:square;stroke-width:0.8;"/>
     </g>
     <g id="line2d_6">
      <g>
       <use style="stroke:#000000;stroke-width:0.8;" x="193.410829" xlink:href="#ma9c5e5c9cc" y="307.584"/>
      </g>
     </g>
     <g id="text_3">
      <!-- 400 -->
      <g transform="translate(183.867079 322.182437)scale(0.1 -0.1)">
       <defs>
        <path d="M 37.796875 64.3125 
L 12.890625 25.390625 
L 37.796875 25.390625 
z
M 35.203125 72.90625 
L 47.609375 72.90625 
L 47.609375 25.390625 
L 58.015625 25.390625 
L 58.015625 17.1875 
L 47.609375 17.1875 
L 47.609375 0 
L 37.796875 0 
L 37.796875 17.1875 
L 4.890625 17.1875 
L 4.890625 26.703125 
z
" id="DejaVuSans-52"/>
       </defs>
       <use xlink:href="#DejaVuSans-52"/>
       <use x="63.623047" xlink:href="#DejaVuSans-48"/>
       <use x="127.246094" xlink:href="#DejaVuSans-48"/>
      </g>
     </g>
    </g>
    <g id="xtick_4">
     <g id="line2d_7">
      <path clip-path="url(#p44e78e4589)" d="M 253.199879 307.584 
L 253.199879 41.472 
" style="fill:none;stroke:#b0b0b0;stroke-linecap:square;stroke-width:0.8;"/>
     </g>
     <g id="line2d_8">
      <g>
       <use style="stroke:#000000;stroke-width:0.8;" x="253.199879" xlink:href="#ma9c5e5c9cc" y="307.584"/>
      </g>
     </g>
     <g id="text_4">
      <!-- 600 -->
      <g transform="translate(243.656129 322.182437)scale(0.1 -0.1)">
       <defs>
        <path d="M 33.015625 40.375 
Q 26.375 40.375 22.484375 35.828125 
Q 18.609375 31.296875 18.609375 23.390625 
Q 18.609375 15.53125 22.484375 10.953125 
Q 26.375 6.390625 33.015625 6.390625 
Q 39.65625 6.390625 43.53125 10.953125 
Q 47.40625 15.53125 47.40625 23.390625 
Q 47.40625 31.296875 43.53125 35.828125 
Q 39.65625 40.375 33.015625 40.375 
z
M 52.59375 71.296875 
L 52.59375 62.3125 
Q 48.875 64.0625 45.09375 64.984375 
Q 41.3125 65.921875 37.59375 65.921875 
Q 27.828125 65.921875 22.671875 59.328125 
Q 17.53125 52.734375 16.796875 39.40625 
Q 19.671875 43.65625 24.015625 45.921875 
Q 28.375 48.1875 33.59375 48.1875 
Q 44.578125 48.1875 50.953125 41.515625 
Q 57.328125 34.859375 57.328125 23.390625 
Q 57.328125 12.15625 50.6875 5.359375 
Q 44.046875 -1.421875 33.015625 -1.421875 
Q 20.359375 -1.421875 13.671875 8.265625 
Q 6.984375 17.96875 6.984375 36.375 
Q 6.984375 53.65625 15.1875 63.9375 
Q 23.390625 74.21875 37.203125 74.21875 
Q 40.921875 74.21875 44.703125 73.484375 
Q 48.484375 72.75 52.59375 71.296875 
z
" id="DejaVuSans-54"/>
       </defs>
       <use xlink:href="#DejaVuSans-54"/>
       <use x="63.623047" xlink:href="#DejaVuSans-48"/>
       <use x="127.246094" xlink:href="#DejaVuSans-48"/>
      </g>
     </g>
    </g>
    <g id="xtick_5">
     <g id="line2d_9">
      <path clip-path="url(#p44e78e4589)" d="M 312.98893 307.584 
L 312.98893 41.472 
" style="fill:none;stroke:#b0b0b0;stroke-linecap:square;stroke-width:0.8;"/>
     </g>
     <g id="line2d_10">
      <g>
       <use style="stroke:#000000;stroke-width:0.8;" x="312.98893" xlink:href="#ma9c5e5c9cc" y="307.584"/>
      </g>
     </g>
     <g id="text_5">
      <!-- 800 -->
      <g transform="translate(303.44518 322.182437)scale(0.1 -0.1)">
       <defs>
        <path d="M 31.78125 34.625 
Q 24.75 34.625 20.71875 30.859375 
Q 16.703125 27.09375 16.703125 20.515625 
Q 16.703125 13.921875 20.71875 10.15625 
Q 24.75 6.390625 31.78125 6.390625 
Q 38.8125 6.390625 42.859375 10.171875 
Q 46.921875 13.96875 46.921875 20.515625 
Q 46.921875 27.09375 42.890625 30.859375 
Q 38.875 34.625 31.78125 34.625 
z
M 21.921875 38.8125 
Q 15.578125 40.375 12.03125 44.71875 
Q 8.5 49.078125 8.5 55.328125 
Q 8.5 64.0625 14.71875 69.140625 
Q 20.953125 74.21875 31.78125 74.21875 
Q 42.671875 74.21875 48.875 69.140625 
Q 55.078125 64.0625 55.078125 55.328125 
Q 55.078125 49.078125 51.53125 44.71875 
Q 48 40.375 41.703125 38.8125 
Q 48.828125 37.15625 52.796875 32.3125 
Q 56.78125 27.484375 56.78125 20.515625 
Q 56.78125 9.90625 50.3125 4.234375 
Q 43.84375 -1.421875 31.78125 -1.421875 
Q 19.734375 -1.421875 13.25 4.234375 
Q 6.78125 9.90625 6.78125 20.515625 
Q 6.78125 27.484375 10.78125 32.3125 
Q 14.796875 37.15625 21.921875 38.8125 
z
M 18.3125 54.390625 
Q 18.3125 48.734375 21.84375 45.5625 
Q 25.390625 42.390625 31.78125 42.390625 
Q 38.140625 42.390625 41.71875 45.5625 
Q 45.3125 48.734375 45.3125 54.390625 
Q 45.3125 60.0625 41.71875 63.234375 
Q 38.140625 66.40625 31.78125 66.40625 
Q 25.390625 66.40625 21.84375 63.234375 
Q 18.3125 60.0625 18.3125 54.390625 
z
" id="DejaVuSans-56"/>
       </defs>
       <use xlink:href="#DejaVuSans-56"/>
       <use x="63.623047" xlink:href="#DejaVuSans-48"/>
       <use x="127.246094" xlink:href="#DejaVuSans-48"/>
      </g>
     </g>
    </g>
    <g id="xtick_6">
     <g id="line2d_11">
      <path clip-path="url(#p44e78e4589)" d="M 372.777981 307.584 
L 372.777981 41.472 
" style="fill:none;stroke:#b0b0b0;stroke-linecap:square;stroke-width:0.8;"/>
     </g>
     <g id="line2d_12">
      <g>
       <use style="stroke:#000000;stroke-width:0.8;" x="372.777981" xlink:href="#ma9c5e5c9cc" y="307.584"/>
      </g>
     </g>
     <g id="text_6">
      <!-- 1000 -->
      <g transform="translate(360.052981 322.182437)scale(0.1 -0.1)">
       <defs>
        <path d="M 12.40625 8.296875 
L 28.515625 8.296875 
L 28.515625 63.921875 
L 10.984375 60.40625 
L 10.984375 69.390625 
L 28.421875 72.90625 
L 38.28125 72.90625 
L 38.28125 8.296875 
L 54.390625 8.296875 
L 54.390625 0 
L 12.40625 0 
z
" id="DejaVuSans-49"/>
       </defs>
       <use xlink:href="#DejaVuSans-49"/>
       <use x="63.623047" xlink:href="#DejaVuSans-48"/>
       <use x="127.246094" xlink:href="#DejaVuSans-48"/>
       <use x="190.869141" xlink:href="#DejaVuSans-48"/>
      </g>
     </g>
    </g>
    <g id="text_7">
     <!-- Time [s] -->
     <g transform="translate(215.831094 335.860562)scale(0.1 -0.1)">
      <defs>
       <path d="M -0.296875 72.90625 
L 61.375 72.90625 
L 61.375 64.59375 
L 35.5 64.59375 
L 35.5 0 
L 25.59375 0 
L 25.59375 64.59375 
L -0.296875 64.59375 
z
" id="DejaVuSans-84"/>
       <path d="M 9.421875 54.6875 
L 18.40625 54.6875 
L 18.40625 0 
L 9.421875 0 
z
M 9.421875 75.984375 
L 18.40625 75.984375 
L 18.40625 64.59375 
L 9.421875 64.59375 
z
" id="DejaVuSans-105"/>
       <path d="M 52 44.1875 
Q 55.375 50.25 60.0625 53.125 
Q 64.75 56 71.09375 56 
Q 79.640625 56 84.28125 50.015625 
Q 88.921875 44.046875 88.921875 33.015625 
L 88.921875 0 
L 79.890625 0 
L 79.890625 32.71875 
Q 79.890625 40.578125 77.09375 44.375 
Q 74.3125 48.1875 68.609375 48.1875 
Q 61.625 48.1875 57.5625 43.546875 
Q 53.515625 38.921875 53.515625 30.90625 
L 53.515625 0 
L 44.484375 0 
L 44.484375 32.71875 
Q 44.484375 40.625 41.703125 44.40625 
Q 38.921875 48.1875 33.109375 48.1875 
Q 26.21875 48.1875 22.15625 43.53125 
Q 18.109375 38.875 18.109375 30.90625 
L 18.109375 0 
L 9.078125 0 
L 9.078125 54.6875 
L 18.109375 54.6875 
L 18.109375 46.1875 
Q 21.1875 51.21875 25.484375 53.609375 
Q 29.78125 56 35.6875 56 
Q 41.65625 56 45.828125 52.96875 
Q 50 49.953125 52 44.1875 
z
" id="DejaVuSans-109"/>
       <path d="M 56.203125 29.59375 
L 56.203125 25.203125 
L 14.890625 25.203125 
Q 15.484375 15.921875 20.484375 11.0625 
Q 25.484375 6.203125 34.421875 6.203125 
Q 39.59375 6.203125 44.453125 7.46875 
Q 49.3125 8.734375 54.109375 11.28125 
L 54.109375 2.78125 
Q 49.265625 0.734375 44.1875 -0.34375 
Q 39.109375 -1.421875 33.890625 -1.421875 
Q 20.796875 -1.421875 13.15625 6.1875 
Q 5.515625 13.8125 5.515625 26.8125 
Q 5.515625 40.234375 12.765625 48.109375 
Q 20.015625 56 32.328125 56 
Q 43.359375 56 49.78125 48.890625 
Q 56.203125 41.796875 56.203125 29.59375 
z
M 47.21875 32.234375 
Q 47.125 39.59375 43.09375 43.984375 
Q 39.0625 48.390625 32.421875 48.390625 
Q 24.90625 48.390625 20.390625 44.140625 
Q 15.875 39.890625 15.1875 32.171875 
z
" id="DejaVuSans-101"/>
       <path id="DejaVuSans-32"/>
       <path d="M 8.59375 75.984375 
L 29.296875 75.984375 
L 29.296875 69 
L 17.578125 69 
L 17.578125 -6.203125 
L 29.296875 -6.203125 
L 29.296875 -13.1875 
L 8.59375 -13.1875 
z
" id="DejaVuSans-91"/>
       <path d="M 44.28125 53.078125 
L 44.28125 44.578125 
Q 40.484375 46.53125 36.375 47.5 
Q 32.28125 48.484375 27.875 48.484375 
Q 21.1875 48.484375 17.84375 46.4375 
Q 14.5 44.390625 14.5 40.28125 
Q 14.5 37.15625 16.890625 35.375 
Q 19.28125 33.59375 26.515625 31.984375 
L 29.59375 31.296875 
Q 39.15625 29.25 43.1875 25.515625 
Q 47.21875 21.78125 47.21875 15.09375 
Q 47.21875 7.46875 41.1875 3.015625 
Q 35.15625 -1.421875 24.609375 -1.421875 
Q 20.21875 -1.421875 15.453125 -0.5625 
Q 10.6875 0.296875 5.421875 2 
L 5.421875 11.28125 
Q 10.40625 8.6875 15.234375 7.390625 
Q 20.0625 6.109375 24.8125 6.109375 
Q 31.15625 6.109375 34.5625 8.28125 
Q 37.984375 10.453125 37.984375 14.40625 
Q 37.984375 18.0625 35.515625 20.015625 
Q 33.0625 21.96875 24.703125 23.78125 
L 21.578125 24.515625 
Q 13.234375 26.265625 9.515625 29.90625 
Q 5.8125 33.546875 5.8125 39.890625 
Q 5.8125 47.609375 11.28125 51.796875 
Q 16.75 56 26.8125 56 
Q 31.78125 56 36.171875 55.265625 
Q 40.578125 54.546875 44.28125 53.078125 
z
" id="DejaVuSans-115"/>
       <path d="M 30.421875 75.984375 
L 30.421875 -13.1875 
L 9.71875 -13.1875 
L 9.71875 -6.203125 
L 21.390625 -6.203125 
L 21.390625 69 
L 9.71875 69 
L 9.71875 75.984375 
z
" id="DejaVuSans-93"/>
      </defs>
      <use xlink:href="#DejaVuSans-84"/>
      <use x="57.958984" xlink:href="#DejaVuSans-105"/>
      <use x="85.742188" xlink:href="#DejaVuSans-109"/>
      <use x="183.154297" xlink:href="#DejaVuSans-101"/>
      <use x="244.677734" xlink:href="#DejaVuSans-32"/>
      <use x="276.464844" xlink:href="#DejaVuSans-91"/>
      <use x="315.478516" xlink:href="#DejaVuSans-115"/>
      <use x="367.578125" xlink:href="#DejaVuSans-93"/>
     </g>
    </g>
   </g>
   <g id="matplotlib.axis_2">
    <g id="ytick_1">
     <g id="line2d_13">
      <path clip-path="url(#p44e78e4589)" d="M 57.6 289.154086 
L 414.72 289.154086 
" style="fill:none;stroke:#b0b0b0;stroke-linecap:square;stroke-width:0.8;"/>
     </g>
     <g id="line2d_14">
      <defs>
       <path d="M 0 0 
L -3.5 0 
" id="md142b7464e" style="stroke:#000000;stroke-width:0.8;"/>
      </defs>
      <g>
       <use style="stroke:#000000;stroke-width:0.8;" x="57.6" xlink:href="#md142b7464e" y="289.154086"/>
      </g>
     </g>
     <g id="text_8">
      <!-- −40 -->
      <g transform="translate(29.495313 292.953305)scale(0.1 -0.1)">
       <defs>
        <path d="M 10.59375 35.5 
L 73.1875 35.5 
L 73.1875 27.203125 
L 10.59375 27.203125 
z
" id="DejaVuSans-8722"/>
       </defs>
       <use xlink:href="#DejaVuSans-8722"/>
       <use x="83.789062" xlink:href="#DejaVuSans-52"/>
       <use x="147.412109" xlink:href="#DejaVuSans-48"/>
      </g>
     </g>
    </g>
    <g id="ytick_2">
     <g id="line2d_15">
      <path clip-path="url(#p44e78e4589)" d="M 57.6 245.245565 
L 414.72 245.245565 
" style="fill:none;stroke:#b0b0b0;stroke-linecap:square;stroke-width:0.8;"/>
     </g>
     <g id="line2d_16">
      <g>
       <use style="stroke:#000000;stroke-width:0.8;" x="57.6" xlink:href="#md142b7464e" y="245.245565"/>
      </g>
     </g>
     <g id="text_9">
      <!-- −30 -->
      <g transform="translate(29.495313 249.044784)scale(0.1 -0.1)">
       <defs>
        <path d="M 40.578125 39.3125 
Q 47.65625 37.796875 51.625 33 
Q 55.609375 28.21875 55.609375 21.1875 
Q 55.609375 10.40625 48.1875 4.484375 
Q 40.765625 -1.421875 27.09375 -1.421875 
Q 22.515625 -1.421875 17.65625 -0.515625 
Q 12.796875 0.390625 7.625 2.203125 
L 7.625 11.71875 
Q 11.71875 9.328125 16.59375 8.109375 
Q 21.484375 6.890625 26.8125 6.890625 
Q 36.078125 6.890625 40.9375 10.546875 
Q 45.796875 14.203125 45.796875 21.1875 
Q 45.796875 27.640625 41.28125 31.265625 
Q 36.765625 34.90625 28.71875 34.90625 
L 20.21875 34.90625 
L 20.21875 43.015625 
L 29.109375 43.015625 
Q 36.375 43.015625 40.234375 45.921875 
Q 44.09375 48.828125 44.09375 54.296875 
Q 44.09375 59.90625 40.109375 62.90625 
Q 36.140625 65.921875 28.71875 65.921875 
Q 24.65625 65.921875 20.015625 65.03125 
Q 15.375 64.15625 9.8125 62.3125 
L 9.8125 71.09375 
Q 15.4375 72.65625 20.34375 73.4375 
Q 25.25 74.21875 29.59375 74.21875 
Q 40.828125 74.21875 47.359375 69.109375 
Q 53.90625 64.015625 53.90625 55.328125 
Q 53.90625 49.265625 50.4375 45.09375 
Q 46.96875 40.921875 40.578125 39.3125 
z
" id="DejaVuSans-51"/>
       </defs>
       <use xlink:href="#DejaVuSans-8722"/>
       <use x="83.789062" xlink:href="#DejaVuSans-51"/>
       <use x="147.412109" xlink:href="#DejaVuSans-48"/>
      </g>
     </g>
    </g>
    <g id="ytick_3">
     <g id="line2d_17">
      <path clip-path="url(#p44e78e4589)" d="M 57.6 201.337044 
L 414.72 201.337044 
" style="fill:none;stroke:#b0b0b0;stroke-linecap:square;stroke-width:0.8;"/>
     </g>
     <g id="line2d_18">
      <g>
       <use style="stroke:#000000;stroke-width:0.8;" x="57.6" xlink:href="#md142b7464e" y="201.337044"/>
      </g>
     </g>
     <g id="text_10">
      <!-- −20 -->
      <g transform="translate(29.495313 205.136262)scale(0.1 -0.1)">
       <use xlink:href="#DejaVuSans-8722"/>
       <use x="83.789062" xlink:href="#DejaVuSans-50"/>
       <use x="147.412109" xlink:href="#DejaVuSans-48"/>
      </g>
     </g>
    </g>
    <g id="ytick_4">
     <g id="line2d_19">
      <path clip-path="url(#p44e78e4589)" d="M 57.6 157.428522 
L 414.72 157.428522 
" style="fill:none;stroke:#b0b0b0;stroke-linecap:square;stroke-width:0.8;"/>
     </g>
     <g id="line2d_20">
      <g>
       <use style="stroke:#000000;stroke-width:0.8;" x="57.6" xlink:href="#md142b7464e" y="157.428522"/>
      </g>
     </g>
     <g id="text_11">
      <!-- −10 -->
      <g transform="translate(29.495313 161.227741)scale(0.1 -0.1)">
       <use xlink:href="#DejaVuSans-8722"/>
       <use x="83.789062" xlink:href="#DejaVuSans-49"/>
       <use x="147.412109" xlink:href="#DejaVuSans-48"/>
      </g>
     </g>
    </g>
    <g id="ytick_5">
     <g id="line2d_21">
      <path clip-path="url(#p44e78e4589)" d="M 57.6 113.520001 
L 414.72 113.520001 
" style="fill:none;stroke:#b0b0b0;stroke-linecap:square;stroke-width:0.8;"/>
     </g>
     <g id="line2d_22">
      <g>
       <use style="stroke:#000000;stroke-width:0.8;" x="57.6" xlink:href="#md142b7464e" y="113.520001"/>
      </g>
     </g>
     <g id="text_12">
      <!-- 0 -->
      <g transform="translate(44.2375 117.31922)scale(0.1 -0.1)">
       <use xlink:href="#DejaVuSans-48"/>
      </g>
     </g>
    </g>
    <g id="ytick_6">
     <g id="line2d_23">
      <path clip-path="url(#p44e78e4589)" d="M 57.6 69.61148 
L 414.72 69.61148 
" style="fill:none;stroke:#b0b0b0;stroke-linecap:square;stroke-width:0.8;"/>
     </g>
     <g id="line2d_24">
      <g>
       <use style="stroke:#000000;stroke-width:0.8;" x="57.6" xlink:href="#md142b7464e" y="69.61148"/>
      </g>
     </g>
     <g id="text_13">
      <!-- 10 -->
      <g transform="translate(37.875 73.410699)scale(0.1 -0.1)">
       <use xlink:href="#DejaVuSans-49"/>
       <use x="63.623047" xlink:href="#DejaVuSans-48"/>
      </g>
     </g>
    </g>
    <g id="text_14">
     <!-- Altitude profile [m] -->
     <g transform="translate(23.415625 221.807687)rotate(-90)scale(0.1 -0.1)">
      <defs>
       <path d="M 34.1875 63.1875 
L 20.796875 26.90625 
L 47.609375 26.90625 
z
M 28.609375 72.90625 
L 39.796875 72.90625 
L 67.578125 0 
L 57.328125 0 
L 50.6875 18.703125 
L 17.828125 18.703125 
L 11.1875 0 
L 0.78125 0 
z
" id="DejaVuSans-65"/>
       <path d="M 9.421875 75.984375 
L 18.40625 75.984375 
L 18.40625 0 
L 9.421875 0 
z
" id="DejaVuSans-108"/>
       <path d="M 18.3125 70.21875 
L 18.3125 54.6875 
L 36.8125 54.6875 
L 36.8125 47.703125 
L 18.3125 47.703125 
L 18.3125 18.015625 
Q 18.3125 11.328125 20.140625 9.421875 
Q 21.96875 7.515625 27.59375 7.515625 
L 36.8125 7.515625 
L 36.8125 0 
L 27.59375 0 
Q 17.1875 0 13.234375 3.875 
Q 9.28125 7.765625 9.28125 18.015625 
L 9.28125 47.703125 
L 2.6875 47.703125 
L 2.6875 54.6875 
L 9.28125 54.6875 
L 9.28125 70.21875 
z
" id="DejaVuSans-116"/>
       <path d="M 8.5 21.578125 
L 8.5 54.6875 
L 17.484375 54.6875 
L 17.484375 21.921875 
Q 17.484375 14.15625 20.5 10.265625 
Q 23.53125 6.390625 29.59375 6.390625 
Q 36.859375 6.390625 41.078125 11.03125 
Q 45.3125 15.671875 45.3125 23.6875 
L 45.3125 54.6875 
L 54.296875 54.6875 
L 54.296875 0 
L 45.3125 0 
L 45.3125 8.40625 
Q 42.046875 3.421875 37.71875 1 
Q 33.40625 -1.421875 27.6875 -1.421875 
Q 18.265625 -1.421875 13.375 4.4375 
Q 8.5 10.296875 8.5 21.578125 
z
M 31.109375 56 
z
" id="DejaVuSans-117"/>
       <path d="M 45.40625 46.390625 
L 45.40625 75.984375 
L 54.390625 75.984375 
L 54.390625 0 
L 45.40625 0 
L 45.40625 8.203125 
Q 42.578125 3.328125 38.25 0.953125 
Q 33.9375 -1.421875 27.875 -1.421875 
Q 17.96875 -1.421875 11.734375 6.484375 
Q 5.515625 14.40625 5.515625 27.296875 
Q 5.515625 40.1875 11.734375 48.09375 
Q 17.96875 56 27.875 56 
Q 33.9375 56 38.25 53.625 
Q 42.578125 51.265625 45.40625 46.390625 
z
M 14.796875 27.296875 
Q 14.796875 17.390625 18.875 11.75 
Q 22.953125 6.109375 30.078125 6.109375 
Q 37.203125 6.109375 41.296875 11.75 
Q 45.40625 17.390625 45.40625 27.296875 
Q 45.40625 37.203125 41.296875 42.84375 
Q 37.203125 48.484375 30.078125 48.484375 
Q 22.953125 48.484375 18.875 42.84375 
Q 14.796875 37.203125 14.796875 27.296875 
z
" id="DejaVuSans-100"/>
       <path d="M 18.109375 8.203125 
L 18.109375 -20.796875 
L 9.078125 -20.796875 
L 9.078125 54.6875 
L 18.109375 54.6875 
L 18.109375 46.390625 
Q 20.953125 51.265625 25.265625 53.625 
Q 29.59375 56 35.59375 56 
Q 45.5625 56 51.78125 48.09375 
Q 58.015625 40.1875 58.015625 27.296875 
Q 58.015625 14.40625 51.78125 6.484375 
Q 45.5625 -1.421875 35.59375 -1.421875 
Q 29.59375 -1.421875 25.265625 0.953125 
Q 20.953125 3.328125 18.109375 8.203125 
z
M 48.6875 27.296875 
Q 48.6875 37.203125 44.609375 42.84375 
Q 40.53125 48.484375 33.40625 48.484375 
Q 26.265625 48.484375 22.1875 42.84375 
Q 18.109375 37.203125 18.109375 27.296875 
Q 18.109375 17.390625 22.1875 11.75 
Q 26.265625 6.109375 33.40625 6.109375 
Q 40.53125 6.109375 44.609375 11.75 
Q 48.6875 17.390625 48.6875 27.296875 
z
" id="DejaVuSans-112"/>
       <path d="M 41.109375 46.296875 
Q 39.59375 47.171875 37.8125 47.578125 
Q 36.03125 48 33.890625 48 
Q 26.265625 48 22.1875 43.046875 
Q 18.109375 38.09375 18.109375 28.8125 
L 18.109375 0 
L 9.078125 0 
L 9.078125 54.6875 
L 18.109375 54.6875 
L 18.109375 46.1875 
Q 20.953125 51.171875 25.484375 53.578125 
Q 30.03125 56 36.53125 56 
Q 37.453125 56 38.578125 55.875 
Q 39.703125 55.765625 41.0625 55.515625 
z
" id="DejaVuSans-114"/>
       <path d="M 30.609375 48.390625 
Q 23.390625 48.390625 19.1875 42.75 
Q 14.984375 37.109375 14.984375 27.296875 
Q 14.984375 17.484375 19.15625 11.84375 
Q 23.34375 6.203125 30.609375 6.203125 
Q 37.796875 6.203125 41.984375 11.859375 
Q 46.1875 17.53125 46.1875 27.296875 
Q 46.1875 37.015625 41.984375 42.703125 
Q 37.796875 48.390625 30.609375 48.390625 
z
M 30.609375 56 
Q 42.328125 56 49.015625 48.375 
Q 55.71875 40.765625 55.71875 27.296875 
Q 55.71875 13.875 49.015625 6.21875 
Q 42.328125 -1.421875 30.609375 -1.421875 
Q 18.84375 -1.421875 12.171875 6.21875 
Q 5.515625 13.875 5.515625 27.296875 
Q 5.515625 40.765625 12.171875 48.375 
Q 18.84375 56 30.609375 56 
z
" id="DejaVuSans-111"/>
       <path d="M 37.109375 75.984375 
L 37.109375 68.5 
L 28.515625 68.5 
Q 23.6875 68.5 21.796875 66.546875 
Q 19.921875 64.59375 19.921875 59.515625 
L 19.921875 54.6875 
L 34.71875 54.6875 
L 34.71875 47.703125 
L 19.921875 47.703125 
L 19.921875 0 
L 10.890625 0 
L 10.890625 47.703125 
L 2.296875 47.703125 
L 2.296875 54.6875 
L 10.890625 54.6875 
L 10.890625 58.5 
Q 10.890625 67.625 15.140625 71.796875 
Q 19.390625 75.984375 28.609375 75.984375 
z
" id="DejaVuSans-102"/>
      </defs>
      <use xlink:href="#DejaVuSans-65"/>
      <use x="68.408203" xlink:href="#DejaVuSans-108"/>
      <use x="96.191406" xlink:href="#DejaVuSans-116"/>
      <use x="135.400391" xlink:href="#DejaVuSans-105"/>
      <use x="163.183594" xlink:href="#DejaVuSans-116"/>
      <use x="202.392578" xlink:href="#DejaVuSans-117"/>
      <use x="265.771484" xlink:href="#DejaVuSans-100"/>
      <use x="329.248047" xlink:href="#DejaVuSans-101"/>
      <use x="390.771484" xlink:href="#DejaVuSans-32"/>
      <use x="422.558594" xlink:href="#DejaVuSans-112"/>
      <use x="486.035156" xlink:href="#DejaVuSans-114"/>
      <use x="524.898438" xlink:href="#DejaVuSans-111"/>
      <use x="586.080078" xlink:href="#DejaVuSans-102"/>
      <use x="621.285156" xlink:href="#DejaVuSans-105"/>
      <use x="649.068359" xlink:href="#DejaVuSans-108"/>
      <use x="676.851562" xlink:href="#DejaVuSans-101"/>
      <use x="738.375" xlink:href="#DejaVuSans-32"/>
      <use x="770.162109" xlink:href="#DejaVuSans-91"/>
      <use x="809.175781" xlink:href="#DejaVuSans-109"/>
      <use x="906.587891" xlink:href="#DejaVuSans-93"/>
     </g>
    </g>
   </g>
   <g id="line2d_25">
    <path clip-path="url(#p44e78e4589)" d="M 73.832727 113.520001 
L 74.131673 113.539027 
L 74.430618 113.704562 
L 74.729563 113.270346 
L 75.028508 113.212861 
L 75.626399 113.560103 
L 76.523235 113.25871 
L 76.82218 113.522491 
L 77.719016 113.759158 
L 78.316906 113.785793 
L 78.615851 113.986419 
L 78.914797 113.856376 
L 79.213742 113.461164 
L 79.512687 113.25439 
L 79.811632 112.358107 
L 80.110578 113.296142 
L 80.409523 114.92478 
L 81.007413 116.022054 
L 81.605304 116.78215 
L 81.904249 116.845488 
L 82.203194 118.610939 
L 82.801085 123.243763 
L 83.10003 123.263267 
L 83.398975 125.045514 
L 83.697921 125.469011 
L 83.996866 126.161594 
L 84.295811 126.116113 
L 84.893702 127.254073 
L 85.192647 127.222643 
L 86.089483 127.650716 
L 86.388428 127.346136 
L 86.687373 126.526583 
L 86.986318 126.118748 
L 87.883154 123.615778 
L 89.078935 116.806809 
L 89.37788 115.977486 
L 89.975771 113.451394 
L 90.274716 112.886436 
L 90.573661 111.509101 
L 90.872607 111.353555 
L 91.470497 110.682997 
L 91.769442 110.625916 
L 92.068388 109.53428 
L 92.367333 109.550341 
L 92.666278 109.139283 
L 93.563114 109.891326 
L 93.862059 109.507785 
L 94.45995 111.883605 
L 94.758895 111.927694 
L 95.356786 112.716879 
L 95.954676 114.448776 
L 96.552567 114.97725 
L 96.851512 114.8909 
L 97.150457 115.445609 
L 97.748348 118.387151 
L 98.047293 118.267939 
L 98.346238 119.670562 
L 98.645183 117.417102 
L 98.944129 119.900239 
L 99.243074 119.816009 
L 99.542019 120.833699 
L 99.840964 123.081266 
L 100.13991 120.42026 
L 100.438855 121.492107 
L 101.036745 130.323243 
L 101.933581 137.936616 
L 102.232526 138.634832 
L 104.026198 169.545553 
L 104.624088 184.605262 
L 104.923034 189.632239 
L 105.221979 191.232121 
L 105.819869 198.077824 
L 106.118815 199.830907 
L 106.41776 204.141007 
L 106.716705 205.077611 
L 107.01565 208.005176 
L 107.314596 213.611416 
L 107.613541 215.09051 
L 108.211431 222.600878 
L 108.510377 227.51468 
L 108.809322 228.973396 
L 109.108267 232.19932 
L 110.005103 246.747091 
L 110.901939 269.754129 
L 111.200884 273.574465 
L 111.798774 277.760154 
L 112.396665 283.494462 
L 112.69561 288.492385 
L 112.994555 289.916009 
L 113.293501 290.393843 
L 113.891391 292.048097 
L 114.190337 292.28897 
L 114.489282 291.761668 
L 114.788227 290.569258 
L 115.087172 290.253591 
L 115.685063 290.185862 
L 115.984008 289.64425 
L 116.282953 289.86493 
L 116.581899 289.341905 
L 116.880844 289.593685 
L 117.179789 290.066725 
L 117.478734 290.270605 
L 117.77768 290.116196 
L 118.37557 289.431443 
L 118.973461 289.018374 
L 119.272406 289.460752 
L 119.571351 289.316144 
L 119.870296 288.315618 
L 120.169242 288.518475 
L 120.468187 288.493886 
L 120.767132 288.77285 
L 121.066077 288.825685 
L 121.365023 288.683791 
L 121.663968 287.521567 
L 122.560804 287.83943 
L 122.859749 288.337093 
L 123.457639 287.65922 
L 123.756585 287.947555 
L 124.354475 287.911475 
L 124.65342 288.252864 
L 124.952366 288.220701 
L 125.251311 287.609968 
L 125.550256 287.560391 
L 125.849201 287.662549 
L 126.148147 288.167975 
L 126.447092 287.979643 
L 126.746037 286.824519 
L 127.044982 287.209962 
L 127.343928 286.937768 
L 127.642873 287.103743 
L 127.941818 286.58639 
L 128.240763 286.74757 
L 128.539709 287.268215 
L 128.838654 287.381244 
L 129.137599 287.857323 
L 129.436544 287.264228 
L 129.73549 287.208425 
L 130.034435 287.577221 
L 130.33338 287.613007 
L 130.632325 287.151309 
L 130.931271 287.351641 
L 131.230216 286.147595 
L 131.529161 286.02974 
L 131.828106 286.556423 
L 132.425997 286.311923 
L 132.724942 286.251623 
L 133.023887 285.610923 
L 133.322833 285.497384 
L 133.920723 285.906063 
L 134.219669 285.924724 
L 134.518614 284.99818 
L 135.116504 285.451171 
L 135.41545 285.635951 
L 135.714395 285.68191 
L 136.01334 285.847445 
L 136.312285 285.561017 
L 136.910176 286.217265 
L 137.209121 285.763106 
L 137.508066 286.067133 
L 137.807012 286.046351 
L 138.105957 285.57137 
L 138.404902 285.723368 
L 138.703847 285.719526 
L 139.002793 285.94829 
L 139.301738 285.720659 
L 139.600683 285.350365 
L 140.198574 286.120885 
L 140.497519 286.896894 
L 141.394355 287.735986 
L 141.6933 287.644695 
L 141.992245 287.958821 
L 142.29119 287.854468 
L 142.590136 288.063873 
L 142.889081 287.904085 
L 143.188026 287.078346 
L 143.486971 287.13378 
L 144.084862 287.752965 
L 144.383807 287.84898 
L 144.981698 287.58015 
L 145.280643 287.552268 
L 145.579588 287.701518 
L 145.878533 287.180872 
L 146.177479 287.409161 
L 146.476424 287.088555 
L 146.775369 287.461742 
L 147.074314 286.974432 
L 147.37326 285.930213 
L 147.97115 285.806795 
L 148.867986 285.023796 
L 149.166931 284.090775 
L 149.465876 285.189037 
L 149.764822 285.123798 
L 150.063767 285.41564 
L 150.661657 285.47316 
L 150.960603 284.608017 
L 151.558493 285.773494 
L 151.857438 285.913857 
L 152.156384 285.840165 
L 152.455329 286.360077 
L 152.754274 287.379817 
L 153.950055 289.006114 
L 154.249001 288.953644 
L 154.547946 289.885273 
L 154.846891 289.902507 
L 155.145836 290.228712 
L 155.444782 290.18663 
L 155.743727 290.347629 
L 156.042672 288.896707 
L 156.341617 289.337294 
L 156.640563 290.16702 
L 156.939508 290.114695 
L 157.238453 290.200791 
L 157.537398 289.161805 
L 157.836344 289.851353 
L 158.135289 289.789442 
L 158.434234 289.891675 
L 158.733179 290.251874 
L 159.032125 289.916118 
L 159.33107 289.228436 
L 159.630015 289.495989 
L 160.227906 288.428204 
L 160.526851 289.919302 
L 160.825796 287.764711 
L 161.423687 286.556093 
L 161.722632 285.517802 
L 162.021577 286.189308 
L 162.320522 287.158224 
L 162.619468 284.819108 
L 162.918413 284.587855 
L 163.217358 283.420072 
L 163.516303 282.749334 
L 163.815249 282.666382 
L 164.114194 282.907076 
L 164.413139 282.309187 
L 164.712084 284.167689 
L 165.309975 281.599111 
L 165.907865 280.414938 
L 166.206811 279.434276 
L 166.505756 279.456305 
L 166.804701 278.441869 
L 167.402592 276.02701 
L 167.701537 275.337501 
L 168.000482 273.338382 
L 168.598373 270.865199 
L 169.196263 272.18238 
L 170.093099 267.862844 
L 170.989935 264.824704 
L 171.28888 264.879664 
L 171.88677 263.311287 
L 172.484661 257.295415 
L 173.680442 249.618489 
L 173.979387 249.49569 
L 174.278332 249.16667 
L 174.876223 246.718366 
L 175.175168 245.768221 
L 175.474114 245.531958 
L 175.773059 246.952693 
L 176.072004 246.4862 
L 176.370949 245.198473 
L 176.96884 239.298704 
L 177.267785 238.946962 
L 177.56673 239.359298 
L 177.865676 239.174079 
L 178.164621 238.694668 
L 178.762511 234.98352 
L 179.659347 230.766146 
L 179.958292 230.318279 
L 180.556183 227.478166 
L 180.855128 227.268428 
L 181.154073 221.736029 
L 181.453019 221.320286 
L 182.050909 224.574166 
L 182.349854 225.825629 
L 182.6488 225.912388 
L 182.947745 226.949323 
L 183.24669 226.865383 
L 183.844581 232.127859 
L 184.143526 233.384446 
L 184.442471 234.129648 
L 184.741416 233.446247 
L 185.638252 235.123663 
L 185.937197 235.171598 
L 186.535088 234.74089 
L 186.834033 234.923879 
L 187.132978 234.757281 
L 187.431924 235.427545 
L 188.029814 235.329155 
L 188.328759 235.594217 
L 188.92665 235.802818 
L 189.52454 234.745206 
L 189.823486 234.489769 
L 190.122431 234.656621 
L 190.421376 234.511139 
L 190.720321 234.67393 
L 191.019267 235.015503 
L 191.318212 234.291083 
L 191.617157 234.530568 
L 191.916102 234.621494 
L 192.215048 234.984218 
L 192.812938 234.783007 
L 193.111883 233.78361 
L 193.709774 234.312967 
L 194.008719 234.440227 
L 194.307664 234.300707 
L 194.905555 235.0653 
L 195.2045 235.000534 
L 195.802391 234.707375 
L 196.101336 234.879018 
L 196.400281 233.689466 
L 196.699227 234.675431 
L 197.596062 234.951028 
L 197.895008 234.441838 
L 199.090789 234.716631 
L 199.389734 234.083031 
L 199.688679 234.609419 
L 199.987624 234.767051 
L 200.28657 234.632621 
L 200.585515 234.657828 
L 200.88446 233.759425 
L 201.183405 233.81702 
L 201.482351 233.699819 
L 201.781296 234.328185 
L 202.080241 234.224197 
L 202.678132 233.296629 
L 202.977077 233.922984 
L 203.276022 233.945413 
L 203.574967 234.360607 
L 203.873913 234.049406 
L 204.172858 234.036194 
L 205.368639 234.720947 
L 205.667584 234.638144 
L 205.966529 233.708566 
L 206.265475 234.063382 
L 207.461256 234.267851 
L 207.760201 233.695832 
L 208.955982 234.356616 
L 209.254927 229.904331 
L 209.852818 232.651833 
L 210.749653 233.652214 
L 211.048599 233.039799 
L 211.347544 233.758182 
L 211.646489 233.611818 
L 211.945434 234.336199 
L 212.24438 234.722194 
L 212.543325 233.667401 
L 212.84227 233.979846 
L 213.141215 234.079044 
L 213.440161 233.813468 
L 213.739106 233.755069 
L 214.038051 232.945875 
L 214.635942 233.852217 
L 214.934887 234.144248 
L 215.233832 234.121012 
L 215.532777 234.223024 
L 215.831723 232.761858 
L 216.130668 233.203468 
L 216.429613 233.218656 
L 216.728559 233.957048 
L 217.027504 233.18587 
L 217.326449 233.456676 
L 217.625394 233.414269 
L 217.92434 233.556642 
L 218.223285 234.099022 
L 218.52223 233.673399 
L 219.120121 234.290573 
L 219.419066 234.667343 
L 219.718011 234.750111 
L 220.016956 234.513738 
L 220.315902 233.634505 
L 220.913792 234.143699 
L 221.212737 234.045673 
L 221.810628 234.46485 
L 222.109573 233.733225 
L 222.707464 233.823237 
L 223.305354 234.057638 
L 223.604299 233.904029 
L 223.903245 233.938462 
L 224.20219 234.217206 
L 224.80008 234.399976 
L 225.099026 234.225185 
L 225.397971 234.601955 
L 225.696916 234.188776 
L 225.995861 234.069604 
L 226.593752 234.207986 
L 226.892697 233.912007 
L 227.191642 233.272405 
L 227.789533 233.620015 
L 228.088478 233.596819 
L 228.387423 233.794806 
L 228.686369 232.730833 
L 228.985314 233.50483 
L 229.284259 233.554447 
L 229.88215 234.242419 
L 230.181095 234.142417 
L 230.48004 233.765647 
L 230.778985 233.963635 
L 231.376876 234.036453 
L 231.675821 234.096058 
L 231.974766 234.038428 
L 232.273712 233.610061 
L 232.572657 233.559716 
L 232.871602 233.847716 
L 233.170547 234.297269 
L 233.469493 234.112524 
L 233.768438 233.223337 
L 234.366328 234.023754 
L 234.665274 233.95617 
L 234.964219 234.067369 
L 235.562109 233.840217 
L 235.861055 234.111022 
L 236.16 233.355431 
L 236.458945 233.139033 
L 236.757891 233.748193 
L 237.056836 233.705821 
L 237.355781 233.946181 
L 237.953672 234.097815 
L 238.252617 233.272185 
L 238.850507 234.065393 
L 239.149453 234.316989 
L 239.448398 234.234186 
L 239.747343 234.677807 
L 240.046288 234.162615 
L 240.345234 234.123427 
L 240.943124 234.664235 
L 241.242069 234.598662 
L 241.541015 233.601464 
L 241.83996 233.741058 
L 242.138905 234.107839 
L 242.736796 233.81702 
L 243.035741 233.838206 
L 243.334686 229.260922 
L 243.633631 231.495941 
L 243.932577 232.509459 
L 244.829412 233.409839 
L 245.128358 232.147872 
L 245.427303 232.856227 
L 245.726248 232.934164 
L 246.025193 233.688952 
L 246.324139 233.57691 
L 246.623084 232.864534 
L 247.818865 233.69927 
L 248.416755 233.839668 
L 248.715701 233.395239 
L 249.014646 233.424697 
L 249.313591 233.724922 
L 249.612536 233.390668 
L 249.911482 231.927706 
L 250.210427 232.093461 
L 250.509372 232.109672 
L 250.808317 232.67441 
L 251.406208 233.283492 
L 251.705153 233.020664 
L 252.303044 233.731618 
L 252.601989 233.405852 
L 252.900934 233.294399 
L 253.199879 233.895577 
L 253.498825 233.998507 
L 253.79777 233.930703 
L 254.39566 232.99871 
L 254.694606 232.863107 
L 254.993551 232.501226 
L 255.890387 230.914667 
L 256.189332 229.944837 
L 256.488277 229.950216 
L 256.787223 230.996446 
L 257.086168 230.576386 
L 257.385113 231.511124 
L 257.983004 228.446055 
L 258.580894 228.694138 
L 258.879839 230.14773 
L 259.178785 230.588791 
L 259.47773 230.767533 
L 260.07562 229.721632 
L 260.374566 228.916425 
L 260.673511 228.616345 
L 260.972456 228.605956 
L 261.271401 228.19669 
L 261.570347 228.584841 
L 262.168237 232.345496 
L 262.467182 235.601243 
L 262.766128 231.960458 
L 263.065073 231.932756 
L 263.364018 230.387251 
L 263.662963 230.583337 
L 263.961909 233.005077 
L 264.260854 232.239606 
L 264.559799 231.881532 
L 264.858744 232.572283 
L 265.15769 231.683355 
L 265.456635 233.409988 
L 265.75558 236.358445 
L 266.054525 235.927882 
L 266.353471 236.642055 
L 266.652416 235.91936 
L 266.951361 235.74669 
L 267.250306 236.013175 
L 267.549252 236.799796 
L 267.848197 236.731483 
L 268.147142 236.407583 
L 268.446087 236.89365 
L 268.745033 237.077043 
L 269.342923 234.998379 
L 269.641868 235.058055 
L 269.940814 234.678575 
L 270.239759 235.780569 
L 270.538704 234.998084 
L 270.837649 235.400396 
L 271.136595 237.098413 
L 271.43554 237.996852 
L 271.734485 240.059824 
L 272.03343 243.035574 
L 272.332376 244.267757 
L 272.930266 247.579777 
L 273.229211 250.87793 
L 273.528157 250.358198 
L 273.827102 251.420236 
L 274.126047 250.862637 
L 274.424992 254.406639 
L 274.723938 255.072182 
L 275.321828 257.191756 
L 276.816554 268.454217 
L 277.1155 270.297936 
L 277.414445 271.096487 
L 278.012336 271.306664 
L 278.311281 271.997126 
L 278.610226 273.147968 
L 278.909171 273.087883 
L 279.208117 273.586285 
L 279.507062 274.747151 
L 279.806007 275.445481 
L 280.104952 276.678358 
L 281.300733 285.215856 
L 281.599679 286.018065 
L 281.898624 287.296756 
L 282.197569 293.26557 
L 282.496514 295.488 
L 282.79546 294.320108 
L 283.094405 291.892915 
L 283.692295 289.488045 
L 283.991241 288.738198 
L 284.888076 280.621418 
L 285.187022 279.706254 
L 285.485967 277.92064 
L 285.784912 274.600861 
L 286.980693 268.763373 
L 287.578584 264.338781 
L 287.877529 262.762101 
L 288.475419 260.871036 
L 288.774365 259.262372 
L 289.07331 258.734737 
L 289.6712 256.96903 
L 289.970146 256.4965 
L 290.269091 254.158042 
L 290.568036 254.417142 
L 290.866981 255.120956 
L 291.165927 255.097026 
L 291.464872 254.759224 
L 291.763817 255.172917 
L 292.062762 254.96519 
L 292.959598 256.055259 
L 293.856434 255.082391 
L 294.454324 255.009099 
L 294.75327 254.92176 
L 295.052215 254.981985 
L 295.35116 253.315622 
L 295.650105 254.089874 
L 295.949051 254.463246 
L 296.247996 254.634524 
L 296.546941 254.563976 
L 296.845886 254.163825 
L 297.144832 254.15658 
L 297.443777 254.427899 
L 298.340613 254.611617 
L 298.639558 253.454702 
L 298.938503 253.212511 
L 299.237449 252.374917 
L 299.536394 251.158251 
L 299.835339 251.015289 
L 300.43323 246.873838 
L 300.732175 246.370426 
L 301.03112 245.164628 
L 301.330065 244.993714 
L 301.629011 244.675338 
L 303.422682 237.416491 
L 303.721627 237.106352 
L 304.020573 234.848062 
L 304.917408 230.155598 
L 305.216354 228.612433 
L 305.814244 224.851449 
L 306.412135 220.663853 
L 306.71108 218.100843 
L 307.010025 217.551727 
L 307.607916 215.957339 
L 307.906861 214.495953 
L 308.205806 211.616283 
L 308.803697 209.254224 
L 309.102642 206.714301 
L 309.401587 205.426903 
L 309.700532 203.253506 
L 309.999478 197.647775 
L 310.298423 198.239736 
L 310.597368 198.123708 
L 310.896313 197.216448 
L 311.494204 193.951336 
L 311.793149 190.559003 
L 312.39104 188.423328 
L 312.689985 187.149836 
L 312.98893 186.651764 
L 313.287875 183.570923 
L 313.586821 183.0007 
L 313.885766 181.838881 
L 314.184711 181.238322 
L 314.483656 180.202775 
L 314.782602 179.786961 
L 315.081547 178.672563 
L 315.380492 178.107934 
L 315.978383 176.665249 
L 316.277328 177.048312 
L 316.576273 176.763275 
L 316.875218 175.791066 
L 317.174164 175.768598 
L 317.473109 174.948352 
L 317.772054 173.663149 
L 318.369945 172.410733 
L 318.967835 173.82861 
L 319.266781 173.282098 
L 319.565726 173.419018 
L 319.864671 172.180688 
L 321.359397 177.019591 
L 321.658343 176.898294 
L 321.957288 177.035179 
L 322.854124 178.154662 
L 323.153069 178.259713 
L 323.452014 177.949754 
L 324.34885 178.099592 
L 324.647795 177.697649 
L 325.245686 178.315621 
L 325.843576 178.432747 
L 326.142521 174.883951 
L 326.740412 177.151536 
L 327.338302 178.028609 
L 327.637248 178.307757 
L 327.936193 176.953799 
L 328.235138 177.786454 
L 328.534083 177.958904 
L 329.131974 178.649546 
L 329.430919 178.396084 
L 329.729864 176.224259 
L 330.327755 174.165169 
L 330.6267 172.566718 
L 330.925645 171.967038 
L 331.224591 170.936869 
L 331.523536 172.530674 
L 331.822481 171.615181 
L 332.121426 172.130887 
L 332.420372 173.302476 
L 332.719317 172.795736 
L 333.018262 172.067623 
L 333.317207 172.014494 
L 333.616153 171.688803 
L 333.915098 171.141667 
L 334.214043 170.854176 
L 334.811934 169.540394 
L 335.409824 169.227436 
L 336.007715 166.955499 
L 336.30666 165.382002 
L 336.605605 164.928502 
L 337.502441 161.747694 
L 338.100331 158.50483 
L 338.399277 158.25766 
L 338.698222 157.215641 
L 338.997167 156.78896 
L 339.296113 156.81995 
L 339.595058 154.787974 
L 339.894003 153.677417 
L 340.192948 153.219157 
L 340.790839 151.658723 
L 341.089784 151.302625 
L 341.388729 149.390444 
L 341.687675 149.236729 
L 341.98662 148.627279 
L 342.285565 148.401334 
L 342.58451 146.655492 
L 342.883456 146.130276 
L 343.780291 143.872609 
L 344.079237 143.70184 
L 344.378182 142.494321 
L 344.677127 142.994329 
L 344.976072 142.740354 
L 345.275018 142.642402 
L 345.573963 142.291863 
L 345.872908 140.605447 
L 346.171853 140.765862 
L 346.769744 140.546684 
L 347.068689 141.099308 
L 347.367634 139.815387 
L 347.965525 140.733295 
L 348.26447 140.831725 
L 348.862361 141.563495 
L 349.161306 140.468601 
L 349.460251 140.656161 
L 349.759196 140.467284 
L 350.058142 140.757519 
L 350.357087 141.375787 
L 350.656032 141.293423 
L 350.954977 140.270864 
L 351.552868 140.445988 
L 351.851813 140.727332 
L 352.150758 141.183173 
L 352.449704 140.3686 
L 352.748649 140.917966 
L 353.047594 141.16283 
L 353.346539 141.186506 
L 353.645485 141.533783 
L 353.94443 141.465944 
L 354.243375 137.161556 
L 354.54232 139.049109 
L 354.841266 139.679087 
L 355.140211 140.651735 
L 355.439156 140.694326 
L 355.738101 140.988149 
L 356.037047 140.249862 
L 356.634937 141.29492 
L 356.933882 141.569498 
L 357.232828 141.622737 
L 357.531773 140.307567 
L 357.830718 140.790631 
L 358.428609 141.035351 
L 358.727554 141.531188 
L 359.325445 139.219694 
L 359.62439 138.985112 
L 359.923335 137.481759 
L 360.22228 131.414809 
L 360.521226 131.413821 
L 361.119116 130.279409 
L 362.613842 124.47847 
L 363.510678 119.42204 
L 363.809623 116.971615 
L 364.108569 116.554005 
L 365.005404 111.044693 
L 365.30435 107.895904 
L 365.603295 106.612168 
L 365.90224 106.295368 
L 366.799076 99.529394 
L 367.098021 96.439477 
L 367.396966 95.229323 
L 367.695912 94.485732 
L 368.293802 91.062659 
L 368.592747 89.31722 
L 368.891693 85.759133 
L 369.190638 84.935369 
L 369.788528 82.092477 
L 370.087474 80.293141 
L 370.386419 76.774352 
L 370.685364 76.022124 
L 370.984309 74.164354 
L 371.283255 74.097065 
L 371.881145 71.952208 
L 372.18009 67.84998 
L 372.479036 67.496077 
L 373.375871 63.589207 
L 373.674817 61.551851 
L 374.272707 60.687477 
L 374.571652 59.360487 
L 374.870598 59.340947 
L 375.169543 58.18546 
L 375.468488 55.241503 
L 375.767433 53.654684 
L 376.365324 53.568 
L 376.664269 54.42217 
L 376.963214 53.996183 
L 377.26216 55.691601 
L 377.561105 56.213453 
L 377.86005 56.978594 
L 378.158995 54.713134 
L 379.055831 59.582809 
L 379.354776 62.60862 
L 379.653722 63.686025 
L 379.952667 66.463204 
L 380.251612 70.553647 
L 380.849503 75.778796 
L 381.447393 88.589327 
L 382.344229 98.12743 
L 382.643174 105.266112 
L 382.94212 105.725835 
L 383.241065 105.856722 
L 383.54001 105.446102 
L 383.838955 106.193061 
L 384.137901 106.627241 
L 384.436846 106.674368 
L 384.735791 107.094648 
L 385.034736 105.527443 
L 385.632627 108.344359 
L 385.931572 108.70642 
L 386.529463 110.312045 
L 386.828408 110.46053 
L 387.127353 111.584843 
L 387.426298 113.322083 
L 387.725244 114.09908 
L 388.323134 119.095799 
L 388.622079 119.608431 
L 389.21997 124.18582 
L 390.116806 126.969256 
L 390.415751 126.915758 
L 390.714696 125.917317 
L 391.013641 124.3994 
L 391.312587 123.892546 
L 391.910477 120.220661 
L 392.209422 120.183484 
L 392.508368 119.876712 
L 393.106258 120.035292 
L 394.003094 121.146398 
L 394.302039 120.824219 
L 394.89993 120.857479 
L 395.198875 121.020968 
L 395.49782 120.958509 
L 395.796765 121.158033 
L 396.992546 120.763076 
L 397.291492 121.209152 
L 397.590437 120.908124 
L 398.487273 121.195176 
L 398.487273 121.195176 
" style="fill:none;stroke:#1f77b4;stroke-linecap:square;stroke-width:1.5;"/>
   </g>
   <g id="patch_3">
    <path d="M 57.6 307.584 
L 57.6 41.472 
" style="fill:none;stroke:#000000;stroke-linecap:square;stroke-linejoin:miter;stroke-width:0.8;"/>
   </g>
   <g id="patch_4">
    <path d="M 414.72 307.584 
L 414.72 41.472 
" style="fill:none;stroke:#000000;stroke-linecap:square;stroke-linejoin:miter;stroke-width:0.8;"/>
   </g>
   <g id="patch_5">
    <path d="M 57.6 307.584 
L 414.72 307.584 
" style="fill:none;stroke:#000000;stroke-linecap:square;stroke-linejoin:miter;stroke-width:0.8;"/>
   </g>
   <g id="patch_6">
    <path d="M 57.6 41.472 
L 414.72 41.472 
" style="fill:none;stroke:#000000;stroke-linecap:square;stroke-linejoin:miter;stroke-width:0.8;"/>
   </g>
   <g id="text_15">
    <!-- Altitude variation from start point, across time -->
    <g transform="translate(96.814687 35.472)scale(0.12 -0.12)">
     <defs>
      <path d="M 2.984375 54.6875 
L 12.5 54.6875 
L 29.59375 8.796875 
L 46.6875 54.6875 
L 56.203125 54.6875 
L 35.6875 0 
L 23.484375 0 
z
" id="DejaVuSans-118"/>
      <path d="M 34.28125 27.484375 
Q 23.390625 27.484375 19.1875 25 
Q 14.984375 22.515625 14.984375 16.5 
Q 14.984375 11.71875 18.140625 8.90625 
Q 21.296875 6.109375 26.703125 6.109375 
Q 34.1875 6.109375 38.703125 11.40625 
Q 43.21875 16.703125 43.21875 25.484375 
L 43.21875 27.484375 
z
M 52.203125 31.203125 
L 52.203125 0 
L 43.21875 0 
L 43.21875 8.296875 
Q 40.140625 3.328125 35.546875 0.953125 
Q 30.953125 -1.421875 24.3125 -1.421875 
Q 15.921875 -1.421875 10.953125 3.296875 
Q 6 8.015625 6 15.921875 
Q 6 25.140625 12.171875 29.828125 
Q 18.359375 34.515625 30.609375 34.515625 
L 43.21875 34.515625 
L 43.21875 35.40625 
Q 43.21875 41.609375 39.140625 45 
Q 35.0625 48.390625 27.6875 48.390625 
Q 23 48.390625 18.546875 47.265625 
Q 14.109375 46.140625 10.015625 43.890625 
L 10.015625 52.203125 
Q 14.9375 54.109375 19.578125 55.046875 
Q 24.21875 56 28.609375 56 
Q 40.484375 56 46.34375 49.84375 
Q 52.203125 43.703125 52.203125 31.203125 
z
" id="DejaVuSans-97"/>
      <path d="M 54.890625 33.015625 
L 54.890625 0 
L 45.90625 0 
L 45.90625 32.71875 
Q 45.90625 40.484375 42.875 44.328125 
Q 39.84375 48.1875 33.796875 48.1875 
Q 26.515625 48.1875 22.3125 43.546875 
Q 18.109375 38.921875 18.109375 30.90625 
L 18.109375 0 
L 9.078125 0 
L 9.078125 54.6875 
L 18.109375 54.6875 
L 18.109375 46.1875 
Q 21.34375 51.125 25.703125 53.5625 
Q 30.078125 56 35.796875 56 
Q 45.21875 56 50.046875 50.171875 
Q 54.890625 44.34375 54.890625 33.015625 
z
" id="DejaVuSans-110"/>
      <path d="M 11.71875 12.40625 
L 22.015625 12.40625 
L 22.015625 4 
L 14.015625 -11.625 
L 7.71875 -11.625 
L 11.71875 4 
z
" id="DejaVuSans-44"/>
      <path d="M 48.78125 52.59375 
L 48.78125 44.1875 
Q 44.96875 46.296875 41.140625 47.34375 
Q 37.3125 48.390625 33.40625 48.390625 
Q 24.65625 48.390625 19.8125 42.84375 
Q 14.984375 37.3125 14.984375 27.296875 
Q 14.984375 17.28125 19.8125 11.734375 
Q 24.65625 6.203125 33.40625 6.203125 
Q 37.3125 6.203125 41.140625 7.25 
Q 44.96875 8.296875 48.78125 10.40625 
L 48.78125 2.09375 
Q 45.015625 0.34375 40.984375 -0.53125 
Q 36.96875 -1.421875 32.421875 -1.421875 
Q 20.0625 -1.421875 12.78125 6.34375 
Q 5.515625 14.109375 5.515625 27.296875 
Q 5.515625 40.671875 12.859375 48.328125 
Q 20.21875 56 33.015625 56 
Q 37.15625 56 41.109375 55.140625 
Q 45.0625 54.296875 48.78125 52.59375 
z
" id="DejaVuSans-99"/>
     </defs>
     <use xlink:href="#DejaVuSans-65"/>
     <use x="68.408203" xlink:href="#DejaVuSans-108"/>
     <use x="96.191406" xlink:href="#DejaVuSans-116"/>
     <use x="135.400391" xlink:href="#DejaVuSans-105"/>
     <use x="163.183594" xlink:href="#DejaVuSans-116"/>
     <use x="202.392578" xlink:href="#DejaVuSans-117"/>
     <use x="265.771484" xlink:href="#DejaVuSans-100"/>
     <use x="329.248047" xlink:href="#DejaVuSans-101"/>
     <use x="390.771484" xlink:href="#DejaVuSans-32"/>
     <use x="422.558594" xlink:href="#DejaVuSans-118"/>
     <use x="481.738281" xlink:href="#DejaVuSans-97"/>
     <use x="543.017578" xlink:href="#DejaVuSans-114"/>
     <use x="584.130859" xlink:href="#DejaVuSans-105"/>
     <use x="611.914062" xlink:href="#DejaVuSans-97"/>
     <use x="673.193359" xlink:href="#DejaVuSans-116"/>
     <use x="712.402344" xlink:href="#DejaVuSans-105"/>
     <use x="740.185547" xlink:href="#DejaVuSans-111"/>
     <use x="801.367188" xlink:href="#DejaVuSans-110"/>
     <use x="864.746094" xlink:href="#DejaVuSans-32"/>
     <use x="896.533203" xlink:href="#DejaVuSans-102"/>
     <use x="931.738281" xlink:href="#DejaVuSans-114"/>
     <use x="970.601562" xlink:href="#DejaVuSans-111"/>
     <use x="1031.783203" xlink:href="#DejaVuSans-109"/>
     <use x="1129.195312" xlink:href="#DejaVuSans-32"/>
     <use x="1160.982422" xlink:href="#DejaVuSans-115"/>
     <use x="1213.082031" xlink:href="#DejaVuSans-116"/>
     <use x="1252.291016" xlink:href="#DejaVuSans-97"/>
     <use x="1313.570312" xlink:href="#DejaVuSans-114"/>
     <use x="1354.683594" xlink:href="#DejaVuSans-116"/>
     <use x="1393.892578" xlink:href="#DejaVuSans-32"/>
     <use x="1425.679688" xlink:href="#DejaVuSans-112"/>
     <use x="1489.15625" xlink:href="#DejaVuSans-111"/>
     <use x="1550.337891" xlink:href="#DejaVuSans-105"/>
     <use x="1578.121094" xlink:href="#DejaVuSans-110"/>
     <use x="1641.5" xlink:href="#DejaVuSans-116"/>
     <use x="1680.708984" xlink:href="#DejaVuSans-44"/>
     <use x="1712.496094" xlink:href="#DejaVuSans-32"/>
     <use x="1744.283203" xlink:href="#DejaVuSans-97"/>
     <use x="1805.5625" xlink:href="#DejaVuSans-99"/>
     <use x="1860.542969" xlink:href="#DejaVuSans-114"/>
     <use x="1899.40625" xlink:href="#DejaVuSans-111"/>
     <use x="1960.587891" xlink:href="#DejaVuSans-115"/>
     <use x="2012.6875" xlink:href="#DejaVuSans-115"/>
     <use x="2064.787109" xlink:href="#DejaVuSans-32"/>
     <use x="2096.574219" xlink:href="#DejaVuSans-116"/>
     <use x="2135.783203" xlink:href="#DejaVuSans-105"/>
     <use x="2163.566406" xlink:href="#DejaVuSans-109"/>
     <use x="2260.978516" xlink:href="#DejaVuSans-101"/>
    </g>
   </g>
  </g>
 </g>
 <defs>
  <clipPath id="p44e78e4589">
   <rect height="266.112" width="357.12" x="57.6" y="41.472"/>
  </clipPath>
 </defs>
</svg>
