<?xml version="1.0" encoding="utf-8" standalone="no"?>
<!DOCTYPE svg PUBLIC "-//W3C//DTD SVG 1.1//EN"
  "http://www.w3.org/Graphics/SVG/1.1/DTD/svg11.dtd">
<svg xmlns:xlink="http://www.w3.org/1999/xlink" width="460.8pt" height="345.6pt" viewBox="0 0 460.8 345.6" xmlns="http://www.w3.org/2000/svg" version="1.1">
 <metadata>
  <rdf:RDF xmlns:dc="http://purl.org/dc/elements/1.1/" xmlns:cc="http://creativecommons.org/ns#" xmlns:rdf="http://www.w3.org/1999/02/22-rdf-syntax-ns#">
   <cc:Work>
    <dc:type rdf:resource="http://purl.org/dc/dcmitype/StillImage"/>
    <dc:date>2021-12-14T20:21:05.721595</dc:date>
    <dc:format>image/svg+xml</dc:format>
    <dc:creator>
     <cc:Agent>
      <dc:title>Matplotlib v3.5.0, https://matplotlib.org/</dc:title>
     </cc:Agent>
    </dc:creator>
   </cc:Work>
  </rdf:RDF>
 </metadata>
 <defs>
  <style type="text/css">*{stroke-linejoin: round; stroke-linecap: butt}</style>
 </defs>
 <g id="figure_1">
  <g id="patch_1">
   <path d="M 0 345.6 
L 460.8 345.6 
L 460.8 0 
L 0 0 
z
" style="fill: #ffffff"/>
  </g>
  <g id="axes_1">
   <g id="patch_2">
    <path d="M 57.6 307.584 
L 414.72 307.584 
L 414.72 41.472 
L 57.6 41.472 
z
" style="fill: #ffffff"/>
   </g>
   <g id="matplotlib.axis_1">
    <g id="xtick_1">
     <g id="line2d_1">
      <path d="M 73.832727 307.584 
L 73.832727 41.472 
" clip-path="url(#pa2de8d5513)" style="fill: none; stroke: #b0b0b0; stroke-width: 0.8; stroke-linecap: square"/>
     </g>
     <g id="line2d_2">
      <defs>
       <path id="m469430be73" d="M 0 0 
L 0 3.5 
" style="stroke: #000000; stroke-width: 0.8"/>
      </defs>
      <g>
       <use xlink:href="#m469430be73" x="73.832727" y="307.584" style="stroke: #000000; stroke-width: 0.8"/>
      </g>
     </g>
     <g id="text_1">
      <!-- 0 -->
      <g transform="translate(70.651477 322.182437)scale(0.1 -0.1)">
       <defs>
        <path id="DejaVuSans-30" d="M 2034 4250 
Q 1547 4250 1301 3770 
Q 1056 3291 1056 2328 
Q 1056 1369 1301 889 
Q 1547 409 2034 409 
Q 2525 409 2770 889 
Q 3016 1369 3016 2328 
Q 3016 3291 2770 3770 
Q 2525 4250 2034 4250 
z
M 2034 4750 
Q 2819 4750 3233 4129 
Q 3647 3509 3647 2328 
Q 3647 1150 3233 529 
Q 2819 -91 2034 -91 
Q 1250 -91 836 529 
Q 422 1150 422 2328 
Q 422 3509 836 4129 
Q 1250 4750 2034 4750 
z
" transform="scale(0.015625)"/>
       </defs>
       <use xlink:href="#DejaVuSans-30"/>
      </g>
     </g>
    </g>
    <g id="xtick_2">
     <g id="line2d_3">
      <path d="M 138.763636 307.584 
L 138.763636 41.472 
" clip-path="url(#pa2de8d5513)" style="fill: none; stroke: #b0b0b0; stroke-width: 0.8; stroke-linecap: square"/>
     </g>
     <g id="line2d_4">
      <g>
       <use xlink:href="#m469430be73" x="138.763636" y="307.584" style="stroke: #000000; stroke-width: 0.8"/>
      </g>
     </g>
     <g id="text_2">
      <!-- 200 -->
      <g transform="translate(129.219886 322.182437)scale(0.1 -0.1)">
       <defs>
        <path id="DejaVuSans-32" d="M 1228 531 
L 3431 531 
L 3431 0 
L 469 0 
L 469 531 
Q 828 903 1448 1529 
Q 2069 2156 2228 2338 
Q 2531 2678 2651 2914 
Q 2772 3150 2772 3378 
Q 2772 3750 2511 3984 
Q 2250 4219 1831 4219 
Q 1534 4219 1204 4116 
Q 875 4013 500 3803 
L 500 4441 
Q 881 4594 1212 4672 
Q 1544 4750 1819 4750 
Q 2544 4750 2975 4387 
Q 3406 4025 3406 3419 
Q 3406 3131 3298 2873 
Q 3191 2616 2906 2266 
Q 2828 2175 2409 1742 
Q 1991 1309 1228 531 
z
" transform="scale(0.015625)"/>
       </defs>
       <use xlink:href="#DejaVuSans-32"/>
       <use xlink:href="#DejaVuSans-30" x="63.623047"/>
       <use xlink:href="#DejaVuSans-30" x="127.246094"/>
      </g>
     </g>
    </g>
    <g id="xtick_3">
     <g id="line2d_5">
      <path d="M 203.694545 307.584 
L 203.694545 41.472 
" clip-path="url(#pa2de8d5513)" style="fill: none; stroke: #b0b0b0; stroke-width: 0.8; stroke-linecap: square"/>
     </g>
     <g id="line2d_6">
      <g>
       <use xlink:href="#m469430be73" x="203.694545" y="307.584" style="stroke: #000000; stroke-width: 0.8"/>
      </g>
     </g>
     <g id="text_3">
      <!-- 400 -->
      <g transform="translate(194.150795 322.182437)scale(0.1 -0.1)">
       <defs>
        <path id="DejaVuSans-34" d="M 2419 4116 
L 825 1625 
L 2419 1625 
L 2419 4116 
z
M 2253 4666 
L 3047 4666 
L 3047 1625 
L 3713 1625 
L 3713 1100 
L 3047 1100 
L 3047 0 
L 2419 0 
L 2419 1100 
L 313 1100 
L 313 1709 
L 2253 4666 
z
" transform="scale(0.015625)"/>
       </defs>
       <use xlink:href="#DejaVuSans-34"/>
       <use xlink:href="#DejaVuSans-30" x="63.623047"/>
       <use xlink:href="#DejaVuSans-30" x="127.246094"/>
      </g>
     </g>
    </g>
    <g id="xtick_4">
     <g id="line2d_7">
      <path d="M 268.625455 307.584 
L 268.625455 41.472 
" clip-path="url(#pa2de8d5513)" style="fill: none; stroke: #b0b0b0; stroke-width: 0.8; stroke-linecap: square"/>
     </g>
     <g id="line2d_8">
      <g>
       <use xlink:href="#m469430be73" x="268.625455" y="307.584" style="stroke: #000000; stroke-width: 0.8"/>
      </g>
     </g>
     <g id="text_4">
      <!-- 600 -->
      <g transform="translate(259.081705 322.182437)scale(0.1 -0.1)">
       <defs>
        <path id="DejaVuSans-36" d="M 2113 2584 
Q 1688 2584 1439 2293 
Q 1191 2003 1191 1497 
Q 1191 994 1439 701 
Q 1688 409 2113 409 
Q 2538 409 2786 701 
Q 3034 994 3034 1497 
Q 3034 2003 2786 2293 
Q 2538 2584 2113 2584 
z
M 3366 4563 
L 3366 3988 
Q 3128 4100 2886 4159 
Q 2644 4219 2406 4219 
Q 1781 4219 1451 3797 
Q 1122 3375 1075 2522 
Q 1259 2794 1537 2939 
Q 1816 3084 2150 3084 
Q 2853 3084 3261 2657 
Q 3669 2231 3669 1497 
Q 3669 778 3244 343 
Q 2819 -91 2113 -91 
Q 1303 -91 875 529 
Q 447 1150 447 2328 
Q 447 3434 972 4092 
Q 1497 4750 2381 4750 
Q 2619 4750 2861 4703 
Q 3103 4656 3366 4563 
z
" transform="scale(0.015625)"/>
       </defs>
       <use xlink:href="#DejaVuSans-36"/>
       <use xlink:href="#DejaVuSans-30" x="63.623047"/>
       <use xlink:href="#DejaVuSans-30" x="127.246094"/>
      </g>
     </g>
    </g>
    <g id="xtick_5">
     <g id="line2d_9">
      <path d="M 333.556364 307.584 
L 333.556364 41.472 
" clip-path="url(#pa2de8d5513)" style="fill: none; stroke: #b0b0b0; stroke-width: 0.8; stroke-linecap: square"/>
     </g>
     <g id="line2d_10">
      <g>
       <use xlink:href="#m469430be73" x="333.556364" y="307.584" style="stroke: #000000; stroke-width: 0.8"/>
      </g>
     </g>
     <g id="text_5">
      <!-- 800 -->
      <g transform="translate(324.012614 322.182437)scale(0.1 -0.1)">
       <defs>
        <path id="DejaVuSans-38" d="M 2034 2216 
Q 1584 2216 1326 1975 
Q 1069 1734 1069 1313 
Q 1069 891 1326 650 
Q 1584 409 2034 409 
Q 2484 409 2743 651 
Q 3003 894 3003 1313 
Q 3003 1734 2745 1975 
Q 2488 2216 2034 2216 
z
M 1403 2484 
Q 997 2584 770 2862 
Q 544 3141 544 3541 
Q 544 4100 942 4425 
Q 1341 4750 2034 4750 
Q 2731 4750 3128 4425 
Q 3525 4100 3525 3541 
Q 3525 3141 3298 2862 
Q 3072 2584 2669 2484 
Q 3125 2378 3379 2068 
Q 3634 1759 3634 1313 
Q 3634 634 3220 271 
Q 2806 -91 2034 -91 
Q 1263 -91 848 271 
Q 434 634 434 1313 
Q 434 1759 690 2068 
Q 947 2378 1403 2484 
z
M 1172 3481 
Q 1172 3119 1398 2916 
Q 1625 2713 2034 2713 
Q 2441 2713 2670 2916 
Q 2900 3119 2900 3481 
Q 2900 3844 2670 4047 
Q 2441 4250 2034 4250 
Q 1625 4250 1398 4047 
Q 1172 3844 1172 3481 
z
" transform="scale(0.015625)"/>
       </defs>
       <use xlink:href="#DejaVuSans-38"/>
       <use xlink:href="#DejaVuSans-30" x="63.623047"/>
       <use xlink:href="#DejaVuSans-30" x="127.246094"/>
      </g>
     </g>
    </g>
    <g id="xtick_6">
     <g id="line2d_11">
      <path d="M 398.487273 307.584 
L 398.487273 41.472 
" clip-path="url(#pa2de8d5513)" style="fill: none; stroke: #b0b0b0; stroke-width: 0.8; stroke-linecap: square"/>
     </g>
     <g id="line2d_12">
      <g>
       <use xlink:href="#m469430be73" x="398.487273" y="307.584" style="stroke: #000000; stroke-width: 0.8"/>
      </g>
     </g>
     <g id="text_6">
      <!-- 1000 -->
      <g transform="translate(385.762273 322.182437)scale(0.1 -0.1)">
       <defs>
        <path id="DejaVuSans-31" d="M 794 531 
L 1825 531 
L 1825 4091 
L 703 3866 
L 703 4441 
L 1819 4666 
L 2450 4666 
L 2450 531 
L 3481 531 
L 3481 0 
L 794 0 
L 794 531 
z
" transform="scale(0.015625)"/>
       </defs>
       <use xlink:href="#DejaVuSans-31"/>
       <use xlink:href="#DejaVuSans-30" x="63.623047"/>
       <use xlink:href="#DejaVuSans-30" x="127.246094"/>
       <use xlink:href="#DejaVuSans-30" x="190.869141"/>
      </g>
     </g>
    </g>
    <g id="text_7">
     <!-- time [s] -->
     <g transform="translate(216.768594 335.860562)scale(0.1 -0.1)">
      <defs>
       <path id="DejaVuSans-74" d="M 1172 4494 
L 1172 3500 
L 2356 3500 
L 2356 3053 
L 1172 3053 
L 1172 1153 
Q 1172 725 1289 603 
Q 1406 481 1766 481 
L 2356 481 
L 2356 0 
L 1766 0 
Q 1100 0 847 248 
Q 594 497 594 1153 
L 594 3053 
L 172 3053 
L 172 3500 
L 594 3500 
L 594 4494 
L 1172 4494 
z
" transform="scale(0.015625)"/>
       <path id="DejaVuSans-69" d="M 603 3500 
L 1178 3500 
L 1178 0 
L 603 0 
L 603 3500 
z
M 603 4863 
L 1178 4863 
L 1178 4134 
L 603 4134 
L 603 4863 
z
" transform="scale(0.015625)"/>
       <path id="DejaVuSans-6d" d="M 3328 2828 
Q 3544 3216 3844 3400 
Q 4144 3584 4550 3584 
Q 5097 3584 5394 3201 
Q 5691 2819 5691 2113 
L 5691 0 
L 5113 0 
L 5113 2094 
Q 5113 2597 4934 2840 
Q 4756 3084 4391 3084 
Q 3944 3084 3684 2787 
Q 3425 2491 3425 1978 
L 3425 0 
L 2847 0 
L 2847 2094 
Q 2847 2600 2669 2842 
Q 2491 3084 2119 3084 
Q 1678 3084 1418 2786 
Q 1159 2488 1159 1978 
L 1159 0 
L 581 0 
L 581 3500 
L 1159 3500 
L 1159 2956 
Q 1356 3278 1631 3431 
Q 1906 3584 2284 3584 
Q 2666 3584 2933 3390 
Q 3200 3197 3328 2828 
z
" transform="scale(0.015625)"/>
       <path id="DejaVuSans-65" d="M 3597 1894 
L 3597 1613 
L 953 1613 
Q 991 1019 1311 708 
Q 1631 397 2203 397 
Q 2534 397 2845 478 
Q 3156 559 3463 722 
L 3463 178 
Q 3153 47 2828 -22 
Q 2503 -91 2169 -91 
Q 1331 -91 842 396 
Q 353 884 353 1716 
Q 353 2575 817 3079 
Q 1281 3584 2069 3584 
Q 2775 3584 3186 3129 
Q 3597 2675 3597 1894 
z
M 3022 2063 
Q 3016 2534 2758 2815 
Q 2500 3097 2075 3097 
Q 1594 3097 1305 2825 
Q 1016 2553 972 2059 
L 3022 2063 
z
" transform="scale(0.015625)"/>
       <path id="DejaVuSans-20" transform="scale(0.015625)"/>
       <path id="DejaVuSans-5b" d="M 550 4863 
L 1875 4863 
L 1875 4416 
L 1125 4416 
L 1125 -397 
L 1875 -397 
L 1875 -844 
L 550 -844 
L 550 4863 
z
" transform="scale(0.015625)"/>
       <path id="DejaVuSans-73" d="M 2834 3397 
L 2834 2853 
Q 2591 2978 2328 3040 
Q 2066 3103 1784 3103 
Q 1356 3103 1142 2972 
Q 928 2841 928 2578 
Q 928 2378 1081 2264 
Q 1234 2150 1697 2047 
L 1894 2003 
Q 2506 1872 2764 1633 
Q 3022 1394 3022 966 
Q 3022 478 2636 193 
Q 2250 -91 1575 -91 
Q 1294 -91 989 -36 
Q 684 19 347 128 
L 347 722 
Q 666 556 975 473 
Q 1284 391 1588 391 
Q 1994 391 2212 530 
Q 2431 669 2431 922 
Q 2431 1156 2273 1281 
Q 2116 1406 1581 1522 
L 1381 1569 
Q 847 1681 609 1914 
Q 372 2147 372 2553 
Q 372 3047 722 3315 
Q 1072 3584 1716 3584 
Q 2034 3584 2315 3537 
Q 2597 3491 2834 3397 
z
" transform="scale(0.015625)"/>
       <path id="DejaVuSans-5d" d="M 1947 4863 
L 1947 -844 
L 622 -844 
L 622 -397 
L 1369 -397 
L 1369 4416 
L 622 4416 
L 622 4863 
L 1947 4863 
z
" transform="scale(0.015625)"/>
      </defs>
      <use xlink:href="#DejaVuSans-74"/>
      <use xlink:href="#DejaVuSans-69" x="39.208984"/>
      <use xlink:href="#DejaVuSans-6d" x="66.992188"/>
      <use xlink:href="#DejaVuSans-65" x="164.404297"/>
      <use xlink:href="#DejaVuSans-20" x="225.927734"/>
      <use xlink:href="#DejaVuSans-5b" x="257.714844"/>
      <use xlink:href="#DejaVuSans-73" x="296.728516"/>
      <use xlink:href="#DejaVuSans-5d" x="348.828125"/>
     </g>
    </g>
   </g>
   <g id="matplotlib.axis_2">
    <g id="ytick_1">
     <g id="line2d_13">
      <path d="M 57.6 295.488 
L 414.72 295.488 
" clip-path="url(#pa2de8d5513)" style="fill: none; stroke: #b0b0b0; stroke-width: 0.8; stroke-linecap: square"/>
     </g>
     <g id="line2d_14">
      <defs>
       <path id="mb6c946507a" d="M 0 0 
L -3.5 0 
" style="stroke: #000000; stroke-width: 0.8"/>
      </defs>
      <g>
       <use xlink:href="#mb6c946507a" x="57.6" y="295.488" style="stroke: #000000; stroke-width: 0.8"/>
      </g>
     </g>
     <g id="text_8">
      <!-- 0 -->
      <g transform="translate(44.2375 299.287219)scale(0.1 -0.1)">
       <use xlink:href="#DejaVuSans-30"/>
      </g>
     </g>
    </g>
    <g id="ytick_2">
     <g id="line2d_15">
      <path d="M 57.6 241.586666 
L 414.72 241.586666 
" clip-path="url(#pa2de8d5513)" style="fill: none; stroke: #b0b0b0; stroke-width: 0.8; stroke-linecap: square"/>
     </g>
     <g id="line2d_16">
      <g>
       <use xlink:href="#mb6c946507a" x="57.6" y="241.586666" style="stroke: #000000; stroke-width: 0.8"/>
      </g>
     </g>
     <g id="text_9">
      <!-- 1 -->
      <g transform="translate(44.2375 245.385884)scale(0.1 -0.1)">
       <use xlink:href="#DejaVuSans-31"/>
      </g>
     </g>
    </g>
    <g id="ytick_3">
     <g id="line2d_17">
      <path d="M 57.6 187.685331 
L 414.72 187.685331 
" clip-path="url(#pa2de8d5513)" style="fill: none; stroke: #b0b0b0; stroke-width: 0.8; stroke-linecap: square"/>
     </g>
     <g id="line2d_18">
      <g>
       <use xlink:href="#mb6c946507a" x="57.6" y="187.685331" style="stroke: #000000; stroke-width: 0.8"/>
      </g>
     </g>
     <g id="text_10">
      <!-- 2 -->
      <g transform="translate(44.2375 191.48455)scale(0.1 -0.1)">
       <use xlink:href="#DejaVuSans-32"/>
      </g>
     </g>
    </g>
    <g id="ytick_4">
     <g id="line2d_19">
      <path d="M 57.6 133.783997 
L 414.72 133.783997 
" clip-path="url(#pa2de8d5513)" style="fill: none; stroke: #b0b0b0; stroke-width: 0.8; stroke-linecap: square"/>
     </g>
     <g id="line2d_20">
      <g>
       <use xlink:href="#mb6c946507a" x="57.6" y="133.783997" style="stroke: #000000; stroke-width: 0.8"/>
      </g>
     </g>
     <g id="text_11">
      <!-- 3 -->
      <g transform="translate(44.2375 137.583215)scale(0.1 -0.1)">
       <defs>
        <path id="DejaVuSans-33" d="M 2597 2516 
Q 3050 2419 3304 2112 
Q 3559 1806 3559 1356 
Q 3559 666 3084 287 
Q 2609 -91 1734 -91 
Q 1441 -91 1130 -33 
Q 819 25 488 141 
L 488 750 
Q 750 597 1062 519 
Q 1375 441 1716 441 
Q 2309 441 2620 675 
Q 2931 909 2931 1356 
Q 2931 1769 2642 2001 
Q 2353 2234 1838 2234 
L 1294 2234 
L 1294 2753 
L 1863 2753 
Q 2328 2753 2575 2939 
Q 2822 3125 2822 3475 
Q 2822 3834 2567 4026 
Q 2313 4219 1838 4219 
Q 1578 4219 1281 4162 
Q 984 4106 628 3988 
L 628 4550 
Q 988 4650 1302 4700 
Q 1616 4750 1894 4750 
Q 2613 4750 3031 4423 
Q 3450 4097 3450 3541 
Q 3450 3153 3228 2886 
Q 3006 2619 2597 2516 
z
" transform="scale(0.015625)"/>
       </defs>
       <use xlink:href="#DejaVuSans-33"/>
      </g>
     </g>
    </g>
    <g id="ytick_5">
     <g id="line2d_21">
      <path d="M 57.6 79.882662 
L 414.72 79.882662 
" clip-path="url(#pa2de8d5513)" style="fill: none; stroke: #b0b0b0; stroke-width: 0.8; stroke-linecap: square"/>
     </g>
     <g id="line2d_22">
      <g>
       <use xlink:href="#mb6c946507a" x="57.6" y="79.882662" style="stroke: #000000; stroke-width: 0.8"/>
      </g>
     </g>
     <g id="text_12">
      <!-- 4 -->
      <g transform="translate(44.2375 83.681881)scale(0.1 -0.1)">
       <use xlink:href="#DejaVuSans-34"/>
      </g>
     </g>
    </g>
    <g id="text_13">
     <!-- energy [wh] -->
     <g transform="translate(38.157812 204.699875)rotate(-90)scale(0.1 -0.1)">
      <defs>
       <path id="DejaVuSans-6e" d="M 3513 2113 
L 3513 0 
L 2938 0 
L 2938 2094 
Q 2938 2591 2744 2837 
Q 2550 3084 2163 3084 
Q 1697 3084 1428 2787 
Q 1159 2491 1159 1978 
L 1159 0 
L 581 0 
L 581 3500 
L 1159 3500 
L 1159 2956 
Q 1366 3272 1645 3428 
Q 1925 3584 2291 3584 
Q 2894 3584 3203 3211 
Q 3513 2838 3513 2113 
z
" transform="scale(0.015625)"/>
       <path id="DejaVuSans-72" d="M 2631 2963 
Q 2534 3019 2420 3045 
Q 2306 3072 2169 3072 
Q 1681 3072 1420 2755 
Q 1159 2438 1159 1844 
L 1159 0 
L 581 0 
L 581 3500 
L 1159 3500 
L 1159 2956 
Q 1341 3275 1631 3429 
Q 1922 3584 2338 3584 
Q 2397 3584 2469 3576 
Q 2541 3569 2628 3553 
L 2631 2963 
z
" transform="scale(0.015625)"/>
       <path id="DejaVuSans-67" d="M 2906 1791 
Q 2906 2416 2648 2759 
Q 2391 3103 1925 3103 
Q 1463 3103 1205 2759 
Q 947 2416 947 1791 
Q 947 1169 1205 825 
Q 1463 481 1925 481 
Q 2391 481 2648 825 
Q 2906 1169 2906 1791 
z
M 3481 434 
Q 3481 -459 3084 -895 
Q 2688 -1331 1869 -1331 
Q 1566 -1331 1297 -1286 
Q 1028 -1241 775 -1147 
L 775 -588 
Q 1028 -725 1275 -790 
Q 1522 -856 1778 -856 
Q 2344 -856 2625 -561 
Q 2906 -266 2906 331 
L 2906 616 
Q 2728 306 2450 153 
Q 2172 0 1784 0 
Q 1141 0 747 490 
Q 353 981 353 1791 
Q 353 2603 747 3093 
Q 1141 3584 1784 3584 
Q 2172 3584 2450 3431 
Q 2728 3278 2906 2969 
L 2906 3500 
L 3481 3500 
L 3481 434 
z
" transform="scale(0.015625)"/>
       <path id="DejaVuSans-79" d="M 2059 -325 
Q 1816 -950 1584 -1140 
Q 1353 -1331 966 -1331 
L 506 -1331 
L 506 -850 
L 844 -850 
Q 1081 -850 1212 -737 
Q 1344 -625 1503 -206 
L 1606 56 
L 191 3500 
L 800 3500 
L 1894 763 
L 2988 3500 
L 3597 3500 
L 2059 -325 
z
" transform="scale(0.015625)"/>
       <path id="DejaVuSans-77" d="M 269 3500 
L 844 3500 
L 1563 769 
L 2278 3500 
L 2956 3500 
L 3675 769 
L 4391 3500 
L 4966 3500 
L 4050 0 
L 3372 0 
L 2619 2869 
L 1863 0 
L 1184 0 
L 269 3500 
z
" transform="scale(0.015625)"/>
       <path id="DejaVuSans-68" d="M 3513 2113 
L 3513 0 
L 2938 0 
L 2938 2094 
Q 2938 2591 2744 2837 
Q 2550 3084 2163 3084 
Q 1697 3084 1428 2787 
Q 1159 2491 1159 1978 
L 1159 0 
L 581 0 
L 581 4863 
L 1159 4863 
L 1159 2956 
Q 1366 3272 1645 3428 
Q 1925 3584 2291 3584 
Q 2894 3584 3203 3211 
Q 3513 2838 3513 2113 
z
" transform="scale(0.015625)"/>
      </defs>
      <use xlink:href="#DejaVuSans-65"/>
      <use xlink:href="#DejaVuSans-6e" x="61.523438"/>
      <use xlink:href="#DejaVuSans-65" x="124.902344"/>
      <use xlink:href="#DejaVuSans-72" x="186.425781"/>
      <use xlink:href="#DejaVuSans-67" x="225.789062"/>
      <use xlink:href="#DejaVuSans-79" x="289.265625"/>
      <use xlink:href="#DejaVuSans-20" x="348.445312"/>
      <use xlink:href="#DejaVuSans-5b" x="380.232422"/>
      <use xlink:href="#DejaVuSans-77" x="419.246094"/>
      <use xlink:href="#DejaVuSans-68" x="501.033203"/>
      <use xlink:href="#DejaVuSans-5d" x="564.412109"/>
     </g>
    </g>
   </g>
   <g id="line2d_23">
    <path d="M 73.832727 295.488 
L 74.157382 295.488 
L 74.482036 294.055252 
L 75.456 294.041266 
L 75.780655 293.445076 
L 76.429964 293.374247 
L 77.079273 293.374247 
L 77.403927 292.139789 
L 78.377891 292.139789 
L 78.702545 291.472769 
L 79.351855 289.612258 
L 80.325818 289.612258 
L 80.650473 289.35702 
L 80.975127 289.35702 
L 81.299782 289.215468 
L 81.624436 288.051838 
L 82.5984 288.051838 
L 82.923055 287.427663 
L 83.572364 287.413677 
L 83.897018 287.001895 
L 84.221673 286.320771 
L 85.844945 286.249942 
L 86.1696 285.4982 
L 86.494255 285.327671 
L 86.818909 285.327671 
L 87.143564 285.086418 
L 87.468218 285.086418 
L 87.792873 284.546965 
L 88.117527 284.546965 
L 88.442182 284.121304 
L 88.766836 283.936789 
L 89.416145 283.936789 
L 90.390109 283.638693 
L 90.714764 283.638693 
L 91.039418 283.525007 
L 91.364073 282.730303 
L 92.662691 282.730303 
L 92.987345 281.325315 
L 93.312 281.211629 
L 93.636655 280.175672 
L 93.961309 279.665183 
L 94.285964 279.665183 
L 94.610618 278.62912 
L 94.935273 278.615134 
L 95.259927 278.487567 
L 96.558545 278.416738 
L 96.8832 277.934128 
L 97.207855 277.934128 
L 97.532509 277.139423 
L 97.857164 276.699657 
L 98.181818 275.349741 
L 98.506473 275.066518 
L 99.805091 275.066518 
L 100.779055 273.83206 
L 101.753018 273.775217 
L 102.402327 272.668431 
L 103.700945 272.668431 
L 104.0256 272.427178 
L 104.350255 272.427178 
L 104.999564 270.951349 
L 105.324218 270.951349 
L 105.648873 270.709991 
L 105.973527 270.709991 
L 106.298182 269.744757 
L 106.622836 269.744757 
L 107.272145 269.291005 
L 107.5968 269.234162 
L 107.921455 268.212204 
L 108.246109 268.212204 
L 108.570764 268.027689 
L 109.869382 268.027689 
L 110.194036 266.821203 
L 110.843345 266.821203 
L 111.168 266.480145 
L 112.141964 266.480145 
L 112.466618 265.855969 
L 112.791273 265.855969 
L 113.115927 265.530007 
L 113.440582 264.905726 
L 113.765236 264.905726 
L 114.089891 263.614425 
L 114.414545 262.833719 
L 115.388509 262.833719 
L 115.713164 262.535624 
L 116.037818 262.478781 
L 116.362473 262.123843 
L 117.011782 262.123843 
L 117.336436 261.470703 
L 117.985745 261.456717 
L 118.3104 261.01707 
L 118.635055 261.01707 
L 119.609018 260.222378 
L 119.933673 258.831483 
L 120.582982 258.817497 
L 120.907636 258.562259 
L 122.206255 258.562259 
L 122.530909 258.122492 
L 123.829527 258.122492 
L 124.478836 256.150172 
L 127.076073 256.150172 
L 127.400727 255.114215 
L 127.725382 255.114215 
L 128.374691 254.58962 
L 128.699345 254.036168 
L 129.024 254.036168 
L 129.348655 253.056948 
L 129.673309 252.688024 
L 130.647273 252.688024 
L 130.971927 252.517495 
L 131.296582 252.517495 
L 131.621236 250.871255 
L 131.945891 250.871255 
L 132.270545 250.274959 
L 132.919855 250.274959 
L 133.569164 249.792335 
L 134.543127 249.792335 
L 134.867782 249.60782 
L 135.192436 249.068473 
L 135.517091 248.03241 
L 136.1664 248.03241 
L 136.491055 247.777053 
L 137.465018 247.763067 
L 137.789673 246.811938 
L 138.438982 246.755095 
L 138.763636 246.386171 
L 139.088291 245.705152 
L 141.360873 245.691166 
L 141.685527 245.506651 
L 142.334836 245.449914 
L 142.659491 243.903361 
L 142.984145 243.903361 
L 143.3088 243.335922 
L 145.256727 243.265199 
L 145.906036 242.641023 
L 146.230691 242.570194 
L 146.555345 241.903175 
L 146.88 241.761504 
L 147.529309 241.761504 
L 148.178618 241.37858 
L 148.503273 241.37858 
L 148.827927 240.88209 
L 149.152582 240.88209 
L 149.477236 240.527151 
L 149.801891 240.527151 
L 150.126545 240.144228 
L 150.4512 239.235837 
L 151.425164 239.235837 
L 151.749818 238.639541 
L 152.074473 238.355431 
L 152.723782 238.298588 
L 153.697745 238.298588 
L 154.0224 237.078116 
L 154.347055 237.078116 
L 154.671709 236.736173 
L 154.996364 236.736173 
L 155.321018 236.111997 
L 155.645673 235.984325 
L 155.970327 235.984325 
L 156.294982 234.763853 
L 156.619636 234.465757 
L 156.944291 234.465757 
L 157.268945 234.181648 
L 157.5936 234.181648 
L 157.918255 233.514629 
L 158.242909 233.514629 
L 158.892218 233.102847 
L 159.541527 232.804752 
L 160.840145 232.804752 
L 161.1648 232.194457 
L 161.489455 232.194457 
L 161.814109 231.101551 
L 162.138764 230.675889 
L 162.463418 230.548217 
L 163.112727 230.548217 
L 163.437382 229.327745 
L 163.762036 229.327745 
L 164.411345 228.390602 
L 164.736 228.390602 
L 165.060655 227.794412 
L 166.359273 227.794412 
L 166.683927 227.56704 
L 167.008582 226.587926 
L 167.657891 226.587926 
L 167.982545 226.091435 
L 168.956509 226.091435 
L 169.605818 225.977855 
L 169.930473 225.977855 
L 170.255127 225.310716 
L 170.579782 225.310716 
L 170.904436 224.558869 
L 171.229091 224.175945 
L 172.203055 223.679455 
L 172.852364 223.679455 
L 173.501673 222.62852 
L 174.150982 222.62852 
L 174.475636 222.373282 
L 174.800291 221.933515 
L 175.124945 221.933515 
L 175.4496 220.883572 
L 176.098909 220.798863 
L 176.423564 220.004158 
L 177.072873 220.004158 
L 177.722182 218.457711 
L 178.371491 218.457711 
L 178.696145 218.273302 
L 180.319418 218.259316 
L 180.968727 217.350938 
L 181.618036 217.294095 
L 181.942691 217.294095 
L 182.267345 216.045757 
L 182.592 215.988914 
L 182.916655 215.563147 
L 184.539927 215.563147 
L 184.864582 214.725598 
L 186.1632 214.725598 
L 186.487855 214.597926 
L 186.812509 213.718512 
L 187.786473 213.349588 
L 188.435782 213.349588 
L 189.085091 211.930601 
L 189.409745 211.930601 
L 189.7344 211.490835 
L 190.059055 211.434098 
L 190.383709 211.249583 
L 190.708364 211.249583 
L 191.033018 210.398035 
L 191.357673 210.398035 
L 191.682327 209.972267 
L 192.006982 209.972267 
L 192.331636 209.418934 
L 192.656291 209.418934 
L 192.980945 207.87139 
L 193.3056 207.87139 
L 193.630255 207.672995 
L 194.279564 207.602166 
L 194.604218 207.346927 
L 195.578182 207.346927 
L 196.227491 206.140454 
L 198.500073 206.140454 
L 198.824727 205.913082 
L 199.798691 205.899096 
L 200.123345 204.380529 
L 200.448 204.082434 
L 201.421964 204.025591 
L 201.746618 203.174043 
L 202.395927 203.174043 
L 203.045236 201.669356 
L 203.369891 201.484947 
L 203.694545 201.484947 
L 204.343855 201.243589 
L 205.317818 201.243589 
L 205.642473 200.505727 
L 205.967127 200.420899 
L 206.291782 199.853566 
L 206.616436 198.377855 
L 207.265745 198.377855 
L 207.5904 197.810417 
L 208.239709 197.810417 
L 208.564364 197.569059 
L 208.889018 197.569059 
L 209.213673 197.200135 
L 209.538327 197.200135 
L 209.862982 196.646801 
L 210.187636 195.795253 
L 210.512291 195.610738 
L 210.836945 195.610738 
L 211.1616 195.241814 
L 212.135564 195.184971 
L 212.784873 193.524732 
L 213.109527 193.098965 
L 213.758836 193.098965 
L 214.083491 192.290274 
L 214.7328 192.176694 
L 215.057455 191.509674 
L 215.382109 191.509674 
L 215.706764 190.856641 
L 217.330036 190.799798 
L 217.654691 190.317293 
L 217.979345 189.394916 
L 218.304 189.125679 
L 218.953309 189.111693 
L 219.602618 188.274144 
L 220.576582 188.274144 
L 220.901236 188.146578 
L 221.225891 187.564268 
L 221.550545 187.564268 
L 221.8752 187.365873 
L 222.199855 187.365873 
L 222.524509 186.712733 
L 223.823127 186.712733 
L 224.147782 185.676776 
L 224.797091 185.676776 
L 225.4464 185.052614 
L 225.771055 185.052614 
L 226.095709 184.654818 
L 226.420364 184.541132 
L 226.745018 184.030643 
L 227.394327 184.030643 
L 227.718982 183.860114 
L 228.043636 183.491189 
L 228.692945 183.292794 
L 229.0176 183.292794 
L 229.342255 182.937856 
L 229.991564 182.881013 
L 230.316218 182.270717 
L 230.965527 182.256731 
L 231.290182 181.148954 
L 231.939491 181.148954 
L 232.264145 180.652344 
L 232.5888 179.786916 
L 233.562764 179.786916 
L 233.887418 178.921488 
L 234.536727 178.921488 
L 234.861382 178.197625 
L 235.510691 178.197625 
L 235.835345 176.863467 
L 236.809309 176.466558 
L 237.133964 176.466558 
L 237.458618 176.338992 
L 237.783273 175.60113 
L 238.107927 175.60113 
L 238.432582 175.118519 
L 239.081891 175.061782 
L 239.406545 174.636015 
L 239.7312 174.636015 
L 240.055855 174.33792 
L 240.380509 174.33792 
L 240.705164 173.599952 
L 241.029818 173.599952 
L 241.354473 173.117342 
L 242.328436 173.117342 
L 242.977745 172.052421 
L 243.3024 172.052421 
L 243.627055 171.456231 
L 243.951709 171.456231 
L 244.601018 171.158135 
L 244.925673 170.845935 
L 247.522909 170.775212 
L 247.847564 170.334454 
L 248.821527 170.334454 
L 249.146182 170.008492 
L 249.795491 169.937663 
L 250.4448 169.937663 
L 251.094109 168.618483 
L 251.418764 168.490916 
L 252.068073 168.490916 
L 252.392727 167.242578 
L 253.691345 167.228592 
L 254.016 166.604416 
L 254.340655 166.604416 
L 254.665309 165.980241 
L 255.639273 165.980241 
L 255.963927 165.426788 
L 256.613236 165.17155 
L 257.5872 163.965936 
L 258.561164 163.965936 
L 259.210473 163.412484 
L 259.535127 163.412484 
L 259.859782 163.156254 
L 260.184436 163.156254 
L 261.807709 162.404393 
L 262.132364 162.404393 
L 262.781673 161.935769 
L 263.106327 161.935769 
L 263.430982 161.566844 
L 263.755636 160.899706 
L 264.7296 160.88572 
L 265.054255 159.380147 
L 265.378909 159.380147 
L 265.703564 158.826694 
L 266.677527 158.826694 
L 267.326836 158.400927 
L 267.651491 158.400927 
L 267.976145 157.649079 
L 268.3008 157.649079 
L 268.950109 156.669965 
L 269.274764 156.669965 
L 269.599418 156.485556 
L 271.222691 156.485556 
L 271.547345 154.796354 
L 271.872 154.115335 
L 272.521309 154.058492 
L 272.845964 153.079272 
L 273.170618 153.079272 
L 273.495273 152.52582 
L 273.819927 152.52582 
L 274.144582 151.787958 
L 275.118545 151.787958 
L 275.4432 150.922424 
L 276.417164 150.922424 
L 276.741818 150.695052 
L 277.391127 150.695052 
L 277.715782 150.567486 
L 278.040436 150.283271 
L 278.365091 149.488566 
L 278.689745 149.431723 
L 279.0144 148.835533 
L 280.313018 148.835533 
L 280.637673 148.480594 
L 280.962327 147.316965 
L 281.286982 146.820356 
L 282.910255 146.820356 
L 283.234909 146.323746 
L 283.559564 146.323746 
L 283.884218 145.841136 
L 285.182836 145.841136 
L 285.507491 145.21696 
L 285.832145 144.124054 
L 286.481455 144.110174 
L 286.806109 143.868816 
L 289.078691 143.868816 
L 289.403345 143.75513 
L 289.728 143.414178 
L 290.052655 143.414178 
L 290.701964 141.626373 
L 291.026618 141.626373 
L 291.675927 140.945367 
L 292.325236 140.888524 
L 292.649891 140.321086 
L 292.974545 140.207505 
L 293.2992 139.781738 
L 293.948509 139.781738 
L 294.273164 139.355971 
L 294.597818 138.745675 
L 295.247127 138.745675 
L 295.571782 137.326808 
L 295.896436 136.602945 
L 296.221091 136.375573 
L 297.195055 136.375573 
L 297.844364 135.524026 
L 298.169018 135.524026 
L 298.493673 134.303554 
L 299.467636 134.303554 
L 299.792291 134.076182 
L 300.4416 134.076182 
L 300.766255 133.352319 
L 301.090909 133.352319 
L 301.415564 132.954524 
L 301.740218 131.662231 
L 302.389527 130.938369 
L 304.0128 130.938369 
L 304.337455 130.753959 
L 304.662109 130.271349 
L 304.986764 130.271349 
L 305.311418 128.866468 
L 305.636073 128.01492 
L 307.259345 128.01492 
L 307.584 126.723619 
L 307.908655 126.694761 
L 308.233309 125.857213 
L 308.557964 125.488288 
L 309.856582 125.488288 
L 310.181236 124.679703 
L 310.505891 124.679703 
L 311.1552 122.707383 
L 311.479855 122.395302 
L 312.778473 122.395302 
L 313.103127 122.182907 
L 313.427782 121.729261 
L 314.077091 121.729261 
L 314.401745 120.977413 
L 315.051055 120.977413 
L 315.375709 120.282514 
L 316.025018 120.282514 
L 316.349673 118.594303 
L 317.648291 118.325185 
L 318.622255 118.325185 
L 318.946909 118.197618 
L 319.596218 118.140775 
L 319.920873 118.084038 
L 320.245527 117.771838 
L 320.570182 116.309122 
L 320.894836 115.756661 
L 321.8688 115.756661 
L 322.842764 114.394531 
L 323.167418 114.394531 
L 323.816727 113.017516 
L 324.466036 113.017516 
L 324.790691 112.762158 
L 325.44 112.762158 
L 325.764655 111.641386 
L 326.413964 111.641386 
L 327.063273 111.073948 
L 327.387927 110.265257 
L 328.037236 110.265257 
L 328.361891 109.158471 
L 329.335855 109.158471 
L 329.660509 108.973956 
L 329.985164 108.051579 
L 330.309818 107.994736 
L 330.634473 107.753484 
L 332.257745 107.753484 
L 332.5824 107.484246 
L 332.907055 106.405326 
L 333.556364 106.405326 
L 333.881018 105.865873 
L 334.854982 105.865873 
L 335.179636 105.624515 
L 336.802909 105.440106 
L 337.127564 104.404043 
L 337.776873 104.105842 
L 338.101527 103.623338 
L 338.426182 102.771684 
L 338.750836 102.345917 
L 339.075491 101.734749 
L 339.7248 101.734749 
L 340.049455 101.593196 
L 341.023418 101.593196 
L 341.348073 101.053743 
L 341.672727 101.053743 
L 341.997382 100.798505 
L 342.322036 100.245052 
L 342.646691 100.245052 
L 342.971345 99.805286 
L 343.296 99.805286 
L 343.620655 99.436361 
L 344.269964 99.422375 
L 344.594618 98.627671 
L 344.919273 98.627671 
L 345.568582 97.151841 
L 345.893236 97.137961 
L 346.217891 96.399994 
L 346.542545 96.399994 
L 346.8672 96.22957 
L 347.191855 95.662132 
L 347.516509 95.364036 
L 348.490473 95.35005 
L 348.815127 94.286002 
L 349.139782 94.286002 
L 349.464436 94.030645 
L 349.789091 94.030645 
L 350.113745 93.590879 
L 350.4384 93.590879 
L 350.763055 93.207955 
L 351.412364 93.207955 
L 351.737018 92.569793 
L 352.061673 92.20075 
L 352.710982 92.20075 
L 353.035636 91.916535 
L 353.360291 91.916535 
L 353.684945 91.419925 
L 354.0096 91.320225 
L 354.334255 90.951301 
L 355.308218 90.852487 
L 355.632873 90.42672 
L 355.957527 90.369877 
L 356.282182 89.632015 
L 356.931491 89.632015 
L 357.256145 88.908152 
L 357.905455 88.425542 
L 358.230109 88.425542 
L 358.554764 87.21895 
L 358.879418 87.21895 
L 359.853382 86.920749 
L 360.178036 86.438139 
L 360.827345 86.438139 
L 361.152 85.827962 
L 362.775273 85.813976 
L 363.099927 85.388209 
L 363.749236 85.388209 
L 364.073891 85.146957 
L 364.398545 84.210594 
L 364.7232 84.082922 
L 366.346473 84.040065 
L 366.671127 83.869536 
L 366.995782 83.869536 
L 367.320436 83.74197 
L 367.645091 82.719893 
L 367.969745 82.719893 
L 368.2944 82.18044 
L 368.619055 82.066754 
L 368.943709 81.626987 
L 369.268364 80.506215 
L 369.593018 80.250858 
L 369.917673 80.250858 
L 370.242327 79.924777 
L 371.540945 79.924777 
L 371.8656 78.831871 
L 372.514909 78.831871 
L 372.839564 77.980323 
L 373.488873 77.980323 
L 373.813527 76.61818 
L 374.787491 76.547351 
L 375.112145 75.837475 
L 375.4368 75.837475 
L 375.761455 74.475331 
L 376.086109 73.935878 
L 376.735418 73.935878 
L 377.060073 73.694626 
L 377.384727 73.694626 
L 377.709382 73.226001 
L 378.034036 73.226001 
L 378.358691 72.544983 
L 379.657309 72.544983 
L 380.306618 71.026296 
L 380.631273 70.983439 
L 380.955927 70.742187 
L 381.929891 70.642487 
L 382.254545 69.40791 
L 382.5792 68.840577 
L 382.903855 68.840577 
L 383.228509 67.577248 
L 383.553164 67.151481 
L 383.877818 67.151481 
L 384.202473 65.632913 
L 384.527127 65.277975 
L 385.176436 65.121432 
L 387.449018 65.064589 
L 387.773673 64.993866 
L 388.098327 64.582085 
L 388.422982 64.582085 
L 388.747636 63.858222 
L 390.046255 63.801379 
L 390.695564 63.687693 
L 391.344873 63.687693 
L 391.669527 63.560021 
L 391.994182 61.984611 
L 392.643491 61.984611 
L 392.968145 61.686516 
L 393.2928 60.948654 
L 393.617455 60.948654 
L 394.266764 59.657353 
L 394.591418 58.62129 
L 394.916073 58.380038 
L 395.565382 58.380038 
L 395.890036 57.400818 
L 396.539345 57.400818 
L 396.864 54.518243 
L 397.513309 54.518243 
L 397.837964 54.390677 
L 398.162618 53.568 
L 398.487273 53.568 
L 398.487273 53.568 
" clip-path="url(#pa2de8d5513)" style="fill: none; stroke: #ff7f0e; stroke-width: 1.5; stroke-linecap: square"/>
   </g>
   <g id="line2d_24">
    <path d="M 73.832727 295.488 
L 74.157382 295.488 
L 74.482036 294.406092 
L 75.456 294.968607 
L 75.780655 294.630322 
L 76.429964 294.950658 
L 77.079273 295.33395 
L 77.403927 294.4283 
L 78.377891 295.003211 
L 78.702545 294.60197 
L 79.351855 293.331515 
L 80.325818 293.906427 
L 80.650473 293.871229 
L 81.299782 294.128662 
L 81.624436 293.285969 
L 82.5984 293.860934 
L 82.923055 293.497747 
L 83.572364 293.868642 
L 83.897018 293.694271 
L 84.221673 293.280471 
L 85.844945 294.175718 
L 86.1696 293.699176 
L 86.494255 293.739225 
L 86.818909 293.930898 
L 87.143564 293.908098 
L 87.468218 294.099717 
L 87.792873 293.811884 
L 88.117527 294.003503 
L 88.442182 293.816789 
L 88.766836 293.844441 
L 89.7408 294.30589 
L 90.065455 294.346046 
L 91.039418 294.819947 
L 91.364073 294.305189 
L 92.662691 295.071774 
L 92.987345 294.014553 
L 93.312 294.105161 
L 93.636655 293.375984 
L 93.961309 293.113862 
L 94.285964 293.305481 
L 94.610618 292.576196 
L 96.558545 293.537311 
L 96.8832 293.299983 
L 97.207855 293.491602 
L 97.532509 292.976845 
L 97.857164 292.777625 
L 98.181818 291.769347 
L 98.506473 291.709247 
L 99.805091 292.475832 
L 100.779055 291.953474 
L 101.753018 292.47788 
L 102.402327 291.877365 
L 103.700945 292.644004 
L 104.0256 292.621204 
L 104.350255 292.812823 
L 104.999564 291.884318 
L 105.324218 292.075938 
L 105.648873 292.05303 
L 105.973527 292.244703 
L 106.298182 291.578375 
L 106.622836 291.769994 
L 107.272145 291.749996 
L 107.5968 291.89111 
L 107.921455 291.17433 
L 108.246109 291.366003 
L 108.570764 291.393601 
L 109.869382 292.160239 
L 110.194036 291.279438 
L 110.843345 291.66273 
L 111.168 291.551208 
L 112.141964 292.126174 
L 112.466618 291.762987 
L 112.791273 291.95466 
L 113.115927 291.856559 
L 113.440582 291.493264 
L 113.765236 291.684937 
L 114.089891 290.728728 
L 114.414545 290.226421 
L 115.388509 290.801387 
L 115.713164 290.728081 
L 116.037818 290.869195 
L 116.362473 290.745329 
L 117.011782 291.128622 
L 117.336436 290.739724 
L 117.985745 291.110565 
L 118.3104 290.911399 
L 118.635055 291.103073 
L 119.609018 290.971607 
L 119.933673 289.926892 
L 120.582982 290.297787 
L 120.907636 290.262535 
L 122.206255 291.02912 
L 122.530909 290.829901 
L 123.829527 291.596485 
L 124.478836 290.226637 
L 127.076073 291.759806 
L 127.400727 291.030629 
L 127.725382 291.222248 
L 128.374691 291.13924 
L 128.699345 290.838956 
L 129.024 291.030575 
L 129.348655 290.35185 
L 129.673309 290.215533 
L 130.647273 290.790499 
L 130.971927 290.830547 
L 131.296582 291.022221 
L 131.621236 289.750526 
L 131.945891 289.942199 
L 132.270545 289.603807 
L 132.919855 289.987099 
L 133.569164 289.941391 
L 134.543127 290.516357 
L 134.867782 290.543954 
L 135.192436 290.256175 
L 135.517091 289.52689 
L 136.1664 289.910182 
L 136.491055 289.874877 
L 137.465018 290.437391 
L 137.789673 289.783568 
L 138.438982 290.116355 
L 138.763636 289.980092 
L 139.088291 289.566345 
L 141.360873 290.895499 
L 141.685527 290.923096 
L 142.334836 291.255991 
L 142.659491 290.07291 
L 142.984145 290.264583 
L 143.3088 289.951848 
L 145.256727 291.038876 
L 145.581382 290.890108 
L 145.906036 290.867362 
L 146.230691 290.996024 
L 146.555345 290.594783 
L 146.88 290.660489 
L 147.529309 291.043781 
L 148.178618 291.086687 
L 148.503273 291.27836 
L 148.827927 291.028689 
L 149.152582 291.220308 
L 149.477236 291.096497 
L 149.801891 291.288116 
L 150.126545 291.139402 
L 150.4512 290.523579 
L 151.425164 291.098545 
L 151.749818 290.760152 
L 152.074473 290.699244 
L 153.048436 291.223704 
L 153.697745 291.606996 
L 154.0224 290.713743 
L 154.347055 290.905416 
L 154.671709 290.79314 
L 154.996364 290.984759 
L 155.321018 290.621572 
L 155.970327 290.891402 
L 156.294982 289.998203 
L 156.619636 289.924843 
L 156.944291 290.116516 
L 157.268945 290.055608 
L 157.5936 290.247281 
L 157.918255 289.845986 
L 158.242909 290.037659 
L 158.892218 290.054907 
L 159.541527 290.173275 
L 160.840145 290.939859 
L 161.1648 290.589016 
L 161.489455 290.780689 
L 161.814109 290.000844 
L 162.138764 289.81413 
L 162.788073 290.08396 
L 163.112727 290.275579 
L 163.437382 289.38238 
L 163.762036 289.573999 
L 164.086691 289.41208 
L 164.411345 289.124301 
L 164.736 289.315974 
L 165.060655 288.977635 
L 166.359273 289.744274 
L 166.683927 289.733817 
L 167.008582 289.055145 
L 167.657891 289.438438 
L 167.982545 289.188767 
L 169.930473 290.237687 
L 170.255127 289.836337 
L 170.579782 290.027957 
L 170.904436 289.551307 
L 171.229091 289.402593 
L 171.553745 289.430299 
L 171.8784 289.344542 
L 172.852364 289.919507 
L 173.501673 289.368635 
L 174.150982 289.751928 
L 174.475636 289.71673 
L 174.800291 289.517457 
L 175.124945 289.70913 
L 175.4496 288.967448 
L 176.098909 289.275494 
L 176.423564 288.760736 
L 177.072873 289.144029 
L 177.722182 288.152729 
L 178.371491 288.536021 
L 178.696145 288.563727 
L 180.319418 289.509533 
L 180.968727 289.085384 
L 181.942691 289.60979 
L 182.267345 288.691796 
L 182.592 288.832964 
L 182.916655 288.646142 
L 184.539927 289.604346 
L 184.864582 289.051534 
L 186.487855 289.896276 
L 186.812509 289.306218 
L 187.786473 289.553247 
L 188.435782 289.93654 
L 188.760436 289.358825 
L 189.085091 289.058541 
L 189.409745 289.25016 
L 189.7344 289.050941 
L 190.708364 289.411433 
L 191.033018 288.84617 
L 191.357673 289.037789 
L 191.682327 288.850967 
L 192.006982 289.04264 
L 192.331636 288.74241 
L 192.656291 288.934083 
L 192.980945 287.75014 
L 193.3056 287.941759 
L 193.630255 287.957067 
L 194.279564 288.277403 
L 194.604218 288.242151 
L 195.578182 288.817117 
L 196.227491 288.127988 
L 198.500073 289.469539 
L 198.824727 289.459082 
L 199.798691 290.021596 
L 200.123345 288.863418 
L 200.448 288.790058 
L 201.421964 289.314518 
L 201.746618 288.749201 
L 202.395927 289.132494 
L 203.045236 288.178332 
L 203.369891 288.206038 
L 203.694545 288.397711 
L 204.0192 288.425308 
L 204.993164 288.949768 
L 205.317818 289.141387 
L 205.642473 288.677189 
L 205.967127 288.7934 
L 206.291782 288.480773 
L 206.616436 287.360703 
L 207.265745 287.743995 
L 207.5904 287.43126 
L 208.239709 287.814552 
L 208.564364 287.791644 
L 208.889018 287.983317 
L 209.213673 287.847001 
L 209.538327 288.038674 
L 209.862982 287.738443 
L 210.187636 287.17318 
L 210.512291 287.200778 
L 210.836945 287.392451 
L 211.1616 287.256188 
L 212.135564 287.780594 
L 212.784873 286.688122 
L 213.109527 286.5013 
L 213.758836 286.884592 
L 214.083491 286.357437 
L 214.7328 286.639773 
L 215.057455 286.238477 
L 215.382109 286.43015 
L 215.706764 286.041306 
L 217.330036 286.949058 
L 217.654691 286.711785 
L 217.979345 286.083565 
L 218.304 286.035862 
L 218.953309 286.406757 
L 219.602618 286.045564 
L 220.901236 286.698741 
L 221.225891 286.372799 
L 221.550545 286.564472 
L 221.8752 286.579726 
L 222.199855 286.7714 
L 222.524509 286.382448 
L 223.823127 287.149086 
L 224.147782 286.419855 
L 224.797091 286.803147 
L 225.4464 286.631633 
L 225.771055 286.823307 
L 226.095709 286.661333 
L 226.420364 286.751941 
L 226.745018 286.489819 
L 227.394327 286.873111 
L 227.718982 286.913214 
L 228.043636 286.776898 
L 228.692945 286.983825 
L 229.0176 287.175498 
L 229.342255 287.051633 
L 229.991564 287.384419 
L 230.316218 287.033576 
L 230.965527 287.404471 
L 231.290182 286.61142 
L 231.939491 286.994713 
L 232.264145 286.744934 
L 232.5888 286.167327 
L 233.562764 286.742239 
L 233.887418 286.164632 
L 234.536727 286.547925 
L 234.861382 286.096178 
L 235.510691 286.47947 
L 235.835345 285.485206 
L 236.809309 285.707333 
L 237.458618 285.977217 
L 237.783273 285.513019 
L 238.107927 285.704638 
L 238.432582 285.467311 
L 239.081891 285.800205 
L 239.406545 285.613383 
L 239.7312 285.805003 
L 240.055855 285.731697 
L 240.380509 285.923316 
L 240.705164 285.45901 
L 241.029818 285.650683 
L 241.354473 285.413302 
L 242.328436 285.988267 
L 242.653091 285.599369 
L 242.977745 285.424998 
L 243.3024 285.616617 
L 243.627055 285.278333 
L 244.276364 285.56056 
L 244.601018 285.588319 
L 244.925673 285.502454 
L 247.522909 286.972775 
L 247.847564 286.772639 
L 248.821527 287.347605 
L 249.146182 287.249504 
L 249.795491 287.56984 
L 250.4448 287.953132 
L 250.769455 287.426031 
L 251.094109 287.163801 
L 251.743418 287.433739 
L 252.068073 287.625358 
L 252.392727 286.707365 
L 253.691345 287.461552 
L 254.016 287.098365 
L 254.340655 287.290038 
L 254.665309 286.926851 
L 255.639273 287.501817 
L 255.963927 287.201478 
L 256.613236 287.3579 
L 257.5872 286.861199 
L 258.561164 287.436165 
L 259.210473 287.3275 
L 259.535127 287.519173 
L 259.859782 287.483059 
L 260.184436 287.674678 
L 261.807709 287.964613 
L 262.132364 288.156287 
L 262.781673 288.123029 
L 263.106327 288.314649 
L 263.430982 288.178386 
L 263.755636 287.777037 
L 264.7296 288.339551 
L 265.054255 287.192908 
L 265.378909 287.384527 
L 265.703564 287.084243 
L 266.677527 287.659208 
L 267.326836 287.664006 
L 267.651491 287.855679 
L 267.976145 287.379029 
L 268.3008 287.570649 
L 268.950109 287.08365 
L 269.274764 287.275269 
L 269.599418 287.303028 
L 271.222691 288.261286 
L 271.547345 286.951376 
L 271.872 286.537683 
L 272.521309 286.87047 
L 272.845964 286.191691 
L 273.170618 286.383364 
L 273.495273 286.083026 
L 273.819927 286.274699 
L 274.144582 285.810501 
L 275.118545 286.385412 
L 275.4432 285.807698 
L 276.417164 286.382663 
L 276.741818 286.372206 
L 277.715782 286.833763 
L 278.040436 286.772747 
L 278.365091 286.258043 
L 278.689745 286.399157 
L 279.0144 286.060818 
L 280.313018 286.827457 
L 280.637673 286.703592 
L 280.962327 285.860898 
L 281.286982 285.611119 
L 282.910255 286.569377 
L 283.234909 286.319599 
L 283.559564 286.511218 
L 283.884218 286.27389 
L 285.182836 287.040475 
L 285.507491 286.677342 
L 285.832145 285.897497 
L 286.481455 286.268446 
L 286.806109 286.245592 
L 289.403345 287.677697 
L 289.728 287.566283 
L 290.052655 287.757956 
L 290.701964 286.552075 
L 291.026618 286.743748 
L 291.675927 286.521675 
L 292.325236 286.854462 
L 292.649891 286.541726 
L 292.974545 286.632388 
L 293.2992 286.445566 
L 293.948509 286.828912 
L 294.273164 286.64209 
L 294.597818 286.291247 
L 295.247127 286.674539 
L 295.571782 285.604975 
L 295.896436 285.153174 
L 296.221091 285.142717 
L 297.195055 285.717682 
L 297.844364 285.344038 
L 298.169018 285.535712 
L 298.493673 284.642459 
L 299.467636 285.217424 
L 299.792291 285.206967 
L 300.4416 285.59026 
L 300.766255 285.138459 
L 301.090909 285.330132 
L 301.415564 285.168158 
L 301.740218 284.21114 
L 302.389527 283.950958 
L 304.0128 284.909216 
L 304.337455 284.936975 
L 304.662109 284.699594 
L 304.986764 284.891267 
L 305.311418 283.834154 
L 305.636073 283.268837 
L 307.259345 284.227095 
L 307.584 283.270939 
L 307.908655 283.436901 
L 308.233309 282.884089 
L 308.557964 282.747773 
L 309.856582 283.514358 
L 310.181236 282.98731 
L 310.505891 283.17893 
L 311.1552 281.809081 
L 311.479855 281.723324 
L 312.778473 282.489909 
L 313.103127 282.492766 
L 313.427782 282.281149 
L 314.077091 282.664495 
L 314.401745 282.187792 
L 315.051055 282.571084 
L 315.375709 282.145102 
L 316.025018 282.528394 
L 316.349673 281.2194 
L 317.648291 281.746771 
L 319.271564 282.591621 
L 319.920873 282.873956 
L 320.245527 282.788091 
L 320.570182 281.679556 
L 320.894836 281.380134 
L 321.8688 281.9551 
L 322.518109 281.443199 
L 322.842764 281.319226 
L 323.167418 281.510899 
L 323.816727 280.6702 
L 324.466036 281.053492 
L 324.790691 281.018133 
L 325.44 281.401425 
L 325.764655 280.59684 
L 326.413964 280.980132 
L 327.063273 280.85907 
L 327.387927 280.331861 
L 328.037236 280.715153 
L 328.361891 279.923019 
L 329.335855 280.497931 
L 329.660509 280.525582 
L 329.985164 279.897362 
L 330.309818 280.038476 
L 330.634473 280.015676 
L 332.257745 280.973934 
L 332.5824 280.926231 
L 332.907055 280.158838 
L 333.556364 280.54213 
L 333.881018 280.254297 
L 334.854982 280.829209 
L 335.179636 280.806355 
L 336.802909 281.600645 
L 337.127564 280.87136 
L 337.776873 280.989619 
L 338.101527 280.752345 
L 338.426182 280.186974 
L 338.750836 280.000152 
L 339.075491 279.648554 
L 341.023418 280.672625 
L 341.348073 280.384738 
L 341.672727 280.576411 
L 341.997382 280.54116 
L 342.322036 280.240876 
L 342.646691 280.432495 
L 342.971345 280.233276 
L 343.296 280.424895 
L 343.620655 280.288632 
L 344.269964 280.659473 
L 344.594618 280.144716 
L 344.919273 280.336389 
L 345.568582 279.40783 
L 345.893236 279.58716 
L 346.217891 279.1228 
L 346.542545 279.314473 
L 346.8672 279.35463 
L 347.191855 279.041894 
L 347.516509 278.968589 
L 348.490473 279.531103 
L 348.815127 278.776915 
L 349.139782 278.968589 
L 349.464436 278.933229 
L 349.789091 279.124902 
L 350.113745 278.925629 
L 350.4384 279.117302 
L 350.763055 278.968535 
L 351.412364 279.351881 
L 351.737018 278.976243 
L 352.061673 278.839872 
L 352.710982 279.223165 
L 353.035636 279.162202 
L 353.360291 279.353821 
L 353.684945 279.104043 
L 354.0096 279.207102 
L 354.334255 279.070785 
L 355.308218 279.557892 
L 355.632873 279.37107 
L 355.957527 279.512237 
L 356.282182 279.047985 
L 356.931491 279.431278 
L 357.256145 278.979477 
L 357.905455 278.933822 
L 358.230109 279.125441 
L 358.554764 278.244586 
L 359.204073 278.514362 
L 359.528727 278.554465 
L 359.853382 278.746084 
L 360.178036 278.508756 
L 360.827345 278.892049 
L 361.152 278.541313 
L 362.775273 279.487119 
L 363.099927 279.300297 
L 363.749236 279.683644 
L 364.073891 279.660843 
L 364.398545 279.020172 
L 365.047855 279.289948 
L 366.346473 280.018479 
L 366.671127 280.058527 
L 367.320436 280.328411 
L 367.645091 279.611578 
L 367.969745 279.803197 
L 368.2944 279.515364 
L 368.619055 279.605972 
L 368.943709 279.406699 
L 369.268364 278.602113 
L 369.593018 278.566754 
L 369.917673 278.758427 
L 370.242327 278.660219 
L 371.540945 279.426804 
L 371.8656 278.647013 
L 372.514909 279.030306 
L 372.839564 278.465042 
L 373.488873 278.848335 
L 373.813527 277.829168 
L 374.787491 278.341177 
L 375.112145 277.901827 
L 375.4368 278.093446 
L 375.761455 277.074334 
L 376.086109 276.786447 
L 376.735418 277.169739 
L 377.060073 277.146939 
L 377.384727 277.338612 
L 377.709382 277.113682 
L 378.034036 277.305355 
L 378.358691 276.891662 
L 379.657309 277.658247 
L 380.306618 276.691581 
L 380.631273 276.845145 
L 380.955927 276.822345 
L 381.929891 277.308697 
L 382.254545 276.402939 
L 382.5792 276.090311 
L 382.903855 276.28193 
L 383.228509 275.350623 
L 383.553164 275.163855 
L 383.877818 275.355474 
L 384.202473 274.197296 
L 384.527127 274.073431 
L 385.176436 274.317604 
L 387.773673 275.737419 
L 388.098327 275.562994 
L 388.422982 275.754668 
L 388.747636 275.302867 
L 390.046255 276.018946 
L 390.695564 276.301173 
L 391.669527 276.762623 
L 391.994182 275.553939 
L 392.643491 275.937231 
L 392.968145 275.863926 
L 393.2928 275.399673 
L 393.617455 275.591347 
L 394.266764 274.82681 
L 394.591418 274.097525 
L 394.916073 274.074725 
L 395.565382 274.458017 
L 395.890036 273.779238 
L 396.539345 274.16253 
L 396.864 271.791895 
L 397.837964 272.253452 
L 398.162618 271.713846 
L 398.487273 271.905465 
L 398.487273 271.905465 
" clip-path="url(#pa2de8d5513)" style="fill: none; stroke: #008000; stroke-width: 1.5; stroke-linecap: square"/>
   </g>
   <g id="patch_3">
    <path d="M 57.6 307.584 
L 57.6 41.472 
" style="fill: none; stroke: #000000; stroke-width: 0.8; stroke-linejoin: miter; stroke-linecap: square"/>
   </g>
   <g id="patch_4">
    <path d="M 414.72 307.584 
L 414.72 41.472 
" style="fill: none; stroke: #000000; stroke-width: 0.8; stroke-linejoin: miter; stroke-linecap: square"/>
   </g>
   <g id="patch_5">
    <path d="M 57.6 307.584 
L 414.72 307.584 
" style="fill: none; stroke: #000000; stroke-width: 0.8; stroke-linejoin: miter; stroke-linecap: square"/>
   </g>
   <g id="patch_6">
    <path d="M 57.6 41.472 
L 414.72 41.472 
" style="fill: none; stroke: #000000; stroke-width: 0.8; stroke-linejoin: miter; stroke-linecap: square"/>
   </g>
   <g id="legend_1">
    <g id="patch_7">
     <path d="M 64.6 78.82825 
L 279.448438 78.82825 
Q 281.448438 78.82825 281.448438 76.82825 
L 281.448438 48.472 
Q 281.448438 46.472 279.448438 46.472 
L 64.6 46.472 
Q 62.6 46.472 62.6 48.472 
L 62.6 76.82825 
Q 62.6 78.82825 64.6 78.82825 
z
" style="fill: #ffffff; opacity: 0.8; stroke: #cccccc; stroke-linejoin: miter"/>
    </g>
    <g id="line2d_25">
     <path d="M 66.6 54.570437 
L 76.6 54.570437 
L 86.6 54.570437 
" style="fill: none; stroke: #ff7f0e; stroke-width: 1.5; stroke-linecap: square"/>
    </g>
    <g id="text_14">
     <!-- Energy computed without correction -->
     <g transform="translate(94.6 58.070437)scale(0.1 -0.1)">
      <defs>
       <path id="DejaVuSans-45" d="M 628 4666 
L 3578 4666 
L 3578 4134 
L 1259 4134 
L 1259 2753 
L 3481 2753 
L 3481 2222 
L 1259 2222 
L 1259 531 
L 3634 531 
L 3634 0 
L 628 0 
L 628 4666 
z
" transform="scale(0.015625)"/>
       <path id="DejaVuSans-63" d="M 3122 3366 
L 3122 2828 
Q 2878 2963 2633 3030 
Q 2388 3097 2138 3097 
Q 1578 3097 1268 2742 
Q 959 2388 959 1747 
Q 959 1106 1268 751 
Q 1578 397 2138 397 
Q 2388 397 2633 464 
Q 2878 531 3122 666 
L 3122 134 
Q 2881 22 2623 -34 
Q 2366 -91 2075 -91 
Q 1284 -91 818 406 
Q 353 903 353 1747 
Q 353 2603 823 3093 
Q 1294 3584 2113 3584 
Q 2378 3584 2631 3529 
Q 2884 3475 3122 3366 
z
" transform="scale(0.015625)"/>
       <path id="DejaVuSans-6f" d="M 1959 3097 
Q 1497 3097 1228 2736 
Q 959 2375 959 1747 
Q 959 1119 1226 758 
Q 1494 397 1959 397 
Q 2419 397 2687 759 
Q 2956 1122 2956 1747 
Q 2956 2369 2687 2733 
Q 2419 3097 1959 3097 
z
M 1959 3584 
Q 2709 3584 3137 3096 
Q 3566 2609 3566 1747 
Q 3566 888 3137 398 
Q 2709 -91 1959 -91 
Q 1206 -91 779 398 
Q 353 888 353 1747 
Q 353 2609 779 3096 
Q 1206 3584 1959 3584 
z
" transform="scale(0.015625)"/>
       <path id="DejaVuSans-70" d="M 1159 525 
L 1159 -1331 
L 581 -1331 
L 581 3500 
L 1159 3500 
L 1159 2969 
Q 1341 3281 1617 3432 
Q 1894 3584 2278 3584 
Q 2916 3584 3314 3078 
Q 3713 2572 3713 1747 
Q 3713 922 3314 415 
Q 2916 -91 2278 -91 
Q 1894 -91 1617 61 
Q 1341 213 1159 525 
z
M 3116 1747 
Q 3116 2381 2855 2742 
Q 2594 3103 2138 3103 
Q 1681 3103 1420 2742 
Q 1159 2381 1159 1747 
Q 1159 1113 1420 752 
Q 1681 391 2138 391 
Q 2594 391 2855 752 
Q 3116 1113 3116 1747 
z
" transform="scale(0.015625)"/>
       <path id="DejaVuSans-75" d="M 544 1381 
L 544 3500 
L 1119 3500 
L 1119 1403 
Q 1119 906 1312 657 
Q 1506 409 1894 409 
Q 2359 409 2629 706 
Q 2900 1003 2900 1516 
L 2900 3500 
L 3475 3500 
L 3475 0 
L 2900 0 
L 2900 538 
Q 2691 219 2414 64 
Q 2138 -91 1772 -91 
Q 1169 -91 856 284 
Q 544 659 544 1381 
z
M 1991 3584 
L 1991 3584 
z
" transform="scale(0.015625)"/>
       <path id="DejaVuSans-64" d="M 2906 2969 
L 2906 4863 
L 3481 4863 
L 3481 0 
L 2906 0 
L 2906 525 
Q 2725 213 2448 61 
Q 2172 -91 1784 -91 
Q 1150 -91 751 415 
Q 353 922 353 1747 
Q 353 2572 751 3078 
Q 1150 3584 1784 3584 
Q 2172 3584 2448 3432 
Q 2725 3281 2906 2969 
z
M 947 1747 
Q 947 1113 1208 752 
Q 1469 391 1925 391 
Q 2381 391 2643 752 
Q 2906 1113 2906 1747 
Q 2906 2381 2643 2742 
Q 2381 3103 1925 3103 
Q 1469 3103 1208 2742 
Q 947 2381 947 1747 
z
" transform="scale(0.015625)"/>
      </defs>
      <use xlink:href="#DejaVuSans-45"/>
      <use xlink:href="#DejaVuSans-6e" x="63.183594"/>
      <use xlink:href="#DejaVuSans-65" x="126.5625"/>
      <use xlink:href="#DejaVuSans-72" x="188.085938"/>
      <use xlink:href="#DejaVuSans-67" x="227.449219"/>
      <use xlink:href="#DejaVuSans-79" x="290.925781"/>
      <use xlink:href="#DejaVuSans-20" x="350.105469"/>
      <use xlink:href="#DejaVuSans-63" x="381.892578"/>
      <use xlink:href="#DejaVuSans-6f" x="436.873047"/>
      <use xlink:href="#DejaVuSans-6d" x="498.054688"/>
      <use xlink:href="#DejaVuSans-70" x="595.466797"/>
      <use xlink:href="#DejaVuSans-75" x="658.943359"/>
      <use xlink:href="#DejaVuSans-74" x="722.322266"/>
      <use xlink:href="#DejaVuSans-65" x="761.53125"/>
      <use xlink:href="#DejaVuSans-64" x="823.054688"/>
      <use xlink:href="#DejaVuSans-20" x="886.53125"/>
      <use xlink:href="#DejaVuSans-77" x="918.318359"/>
      <use xlink:href="#DejaVuSans-69" x="1000.105469"/>
      <use xlink:href="#DejaVuSans-74" x="1027.888672"/>
      <use xlink:href="#DejaVuSans-68" x="1067.097656"/>
      <use xlink:href="#DejaVuSans-6f" x="1130.476562"/>
      <use xlink:href="#DejaVuSans-75" x="1191.658203"/>
      <use xlink:href="#DejaVuSans-74" x="1255.037109"/>
      <use xlink:href="#DejaVuSans-20" x="1294.246094"/>
      <use xlink:href="#DejaVuSans-63" x="1326.033203"/>
      <use xlink:href="#DejaVuSans-6f" x="1381.013672"/>
      <use xlink:href="#DejaVuSans-72" x="1442.195312"/>
      <use xlink:href="#DejaVuSans-72" x="1481.558594"/>
      <use xlink:href="#DejaVuSans-65" x="1520.421875"/>
      <use xlink:href="#DejaVuSans-63" x="1581.945312"/>
      <use xlink:href="#DejaVuSans-74" x="1636.925781"/>
      <use xlink:href="#DejaVuSans-69" x="1676.134766"/>
      <use xlink:href="#DejaVuSans-6f" x="1703.917969"/>
      <use xlink:href="#DejaVuSans-6e" x="1765.099609"/>
     </g>
    </g>
    <g id="line2d_26">
     <path d="M 66.6 69.248562 
L 76.6 69.248562 
L 86.6 69.248562 
" style="fill: none; stroke: #008000; stroke-width: 1.5; stroke-linecap: square"/>
    </g>
    <g id="text_15">
     <!-- Energy corrected with linear factor -->
     <g transform="translate(94.6 72.748562)scale(0.1 -0.1)">
      <defs>
       <path id="DejaVuSans-6c" d="M 603 4863 
L 1178 4863 
L 1178 0 
L 603 0 
L 603 4863 
z
" transform="scale(0.015625)"/>
       <path id="DejaVuSans-61" d="M 2194 1759 
Q 1497 1759 1228 1600 
Q 959 1441 959 1056 
Q 959 750 1161 570 
Q 1363 391 1709 391 
Q 2188 391 2477 730 
Q 2766 1069 2766 1631 
L 2766 1759 
L 2194 1759 
z
M 3341 1997 
L 3341 0 
L 2766 0 
L 2766 531 
Q 2569 213 2275 61 
Q 1981 -91 1556 -91 
Q 1019 -91 701 211 
Q 384 513 384 1019 
Q 384 1609 779 1909 
Q 1175 2209 1959 2209 
L 2766 2209 
L 2766 2266 
Q 2766 2663 2505 2880 
Q 2244 3097 1772 3097 
Q 1472 3097 1187 3025 
Q 903 2953 641 2809 
L 641 3341 
Q 956 3463 1253 3523 
Q 1550 3584 1831 3584 
Q 2591 3584 2966 3190 
Q 3341 2797 3341 1997 
z
" transform="scale(0.015625)"/>
       <path id="DejaVuSans-66" d="M 2375 4863 
L 2375 4384 
L 1825 4384 
Q 1516 4384 1395 4259 
Q 1275 4134 1275 3809 
L 1275 3500 
L 2222 3500 
L 2222 3053 
L 1275 3053 
L 1275 0 
L 697 0 
L 697 3053 
L 147 3053 
L 147 3500 
L 697 3500 
L 697 3744 
Q 697 4328 969 4595 
Q 1241 4863 1831 4863 
L 2375 4863 
z
" transform="scale(0.015625)"/>
      </defs>
      <use xlink:href="#DejaVuSans-45"/>
      <use xlink:href="#DejaVuSans-6e" x="63.183594"/>
      <use xlink:href="#DejaVuSans-65" x="126.5625"/>
      <use xlink:href="#DejaVuSans-72" x="188.085938"/>
      <use xlink:href="#DejaVuSans-67" x="227.449219"/>
      <use xlink:href="#DejaVuSans-79" x="290.925781"/>
      <use xlink:href="#DejaVuSans-20" x="350.105469"/>
      <use xlink:href="#DejaVuSans-63" x="381.892578"/>
      <use xlink:href="#DejaVuSans-6f" x="436.873047"/>
      <use xlink:href="#DejaVuSans-72" x="498.054688"/>
      <use xlink:href="#DejaVuSans-72" x="537.417969"/>
      <use xlink:href="#DejaVuSans-65" x="576.28125"/>
      <use xlink:href="#DejaVuSans-63" x="637.804688"/>
      <use xlink:href="#DejaVuSans-74" x="692.785156"/>
      <use xlink:href="#DejaVuSans-65" x="731.994141"/>
      <use xlink:href="#DejaVuSans-64" x="793.517578"/>
      <use xlink:href="#DejaVuSans-20" x="856.994141"/>
      <use xlink:href="#DejaVuSans-77" x="888.78125"/>
      <use xlink:href="#DejaVuSans-69" x="970.568359"/>
      <use xlink:href="#DejaVuSans-74" x="998.351562"/>
      <use xlink:href="#DejaVuSans-68" x="1037.560547"/>
      <use xlink:href="#DejaVuSans-20" x="1100.939453"/>
      <use xlink:href="#DejaVuSans-6c" x="1132.726562"/>
      <use xlink:href="#DejaVuSans-69" x="1160.509766"/>
      <use xlink:href="#DejaVuSans-6e" x="1188.292969"/>
      <use xlink:href="#DejaVuSans-65" x="1251.671875"/>
      <use xlink:href="#DejaVuSans-61" x="1313.195312"/>
      <use xlink:href="#DejaVuSans-72" x="1374.474609"/>
      <use xlink:href="#DejaVuSans-20" x="1415.587891"/>
      <use xlink:href="#DejaVuSans-66" x="1447.375"/>
      <use xlink:href="#DejaVuSans-61" x="1482.580078"/>
      <use xlink:href="#DejaVuSans-63" x="1543.859375"/>
      <use xlink:href="#DejaVuSans-74" x="1598.839844"/>
      <use xlink:href="#DejaVuSans-6f" x="1638.048828"/>
      <use xlink:href="#DejaVuSans-72" x="1699.230469"/>
     </g>
    </g>
   </g>
  </g>
 </g>
 <defs>
  <clipPath id="pa2de8d5513">
   <rect x="57.6" y="41.472" width="357.12" height="266.112"/>
  </clipPath>
 </defs>
</svg>
