<?xml version="1.0" encoding="utf-8" standalone="no"?>
<!DOCTYPE svg PUBLIC "-//W3C//DTD SVG 1.1//EN"
  "http://www.w3.org/Graphics/SVG/1.1/DTD/svg11.dtd">
<svg xmlns:xlink="http://www.w3.org/1999/xlink" width="460.8pt" height="345.6pt" viewBox="0 0 460.8 345.6" xmlns="http://www.w3.org/2000/svg" version="1.1">
 <metadata>
  <rdf:RDF xmlns:dc="http://purl.org/dc/elements/1.1/" xmlns:cc="http://creativecommons.org/ns#" xmlns:rdf="http://www.w3.org/1999/02/22-rdf-syntax-ns#">
   <cc:Work>
    <dc:type rdf:resource="http://purl.org/dc/dcmitype/StillImage"/>
    <dc:date>2021-11-21T14:35:09.185776</dc:date>
    <dc:format>image/svg+xml</dc:format>
    <dc:creator>
     <cc:Agent>
      <dc:title>Matplotlib v3.5.0, https://matplotlib.org/</dc:title>
     </cc:Agent>
    </dc:creator>
   </cc:Work>
  </rdf:RDF>
 </metadata>
 <defs>
  <style type="text/css">*{stroke-linejoin: round; stroke-linecap: butt}</style>
 </defs>
 <g id="figure_1">
  <g id="patch_1">
   <path d="M 0 345.6 
L 460.8 345.6 
L 460.8 0 
L 0 0 
z
" style="fill: #ffffff"/>
  </g>
  <g id="axes_1">
   <g id="patch_2">
    <path d="M 57.6 162.432 
L 414.72 162.432 
L 414.72 41.472 
L 57.6 41.472 
z
" style="fill: #ffffff"/>
   </g>
   <g id="matplotlib.axis_1">
    <g id="xtick_1">
     <g id="line2d_1">
      <path d="M 73.832727 162.432 
L 73.832727 41.472 
" clip-path="url(#p38272f38fe)" style="fill: none; stroke: #b0b0b0; stroke-width: 0.8; stroke-linecap: square"/>
     </g>
     <g id="line2d_2">
      <defs>
       <path id="m9a71666d50" d="M 0 0 
L 0 3.5 
" style="stroke: #000000; stroke-width: 0.8"/>
      </defs>
      <g>
       <use xlink:href="#m9a71666d50" x="73.832727" y="162.432" style="stroke: #000000; stroke-width: 0.8"/>
      </g>
     </g>
     <g id="text_1">
      <!-- 0 -->
      <g transform="translate(70.651477 177.030437)scale(0.1 -0.1)">
       <defs>
        <path id="DejaVuSans-30" d="M 2034 4250 
Q 1547 4250 1301 3770 
Q 1056 3291 1056 2328 
Q 1056 1369 1301 889 
Q 1547 409 2034 409 
Q 2525 409 2770 889 
Q 3016 1369 3016 2328 
Q 3016 3291 2770 3770 
Q 2525 4250 2034 4250 
z
M 2034 4750 
Q 2819 4750 3233 4129 
Q 3647 3509 3647 2328 
Q 3647 1150 3233 529 
Q 2819 -91 2034 -91 
Q 1250 -91 836 529 
Q 422 1150 422 2328 
Q 422 3509 836 4129 
Q 1250 4750 2034 4750 
z
" transform="scale(0.015625)"/>
       </defs>
       <use xlink:href="#DejaVuSans-30"/>
      </g>
     </g>
    </g>
    <g id="xtick_2">
     <g id="line2d_3">
      <path d="M 138.828632 162.432 
L 138.828632 41.472 
" clip-path="url(#p38272f38fe)" style="fill: none; stroke: #b0b0b0; stroke-width: 0.8; stroke-linecap: square"/>
     </g>
     <g id="line2d_4">
      <g>
       <use xlink:href="#m9a71666d50" x="138.828632" y="162.432" style="stroke: #000000; stroke-width: 0.8"/>
      </g>
     </g>
     <g id="text_2">
      <!-- 200 -->
      <g transform="translate(129.284882 177.030437)scale(0.1 -0.1)">
       <defs>
        <path id="DejaVuSans-32" d="M 1228 531 
L 3431 531 
L 3431 0 
L 469 0 
L 469 531 
Q 828 903 1448 1529 
Q 2069 2156 2228 2338 
Q 2531 2678 2651 2914 
Q 2772 3150 2772 3378 
Q 2772 3750 2511 3984 
Q 2250 4219 1831 4219 
Q 1534 4219 1204 4116 
Q 875 4013 500 3803 
L 500 4441 
Q 881 4594 1212 4672 
Q 1544 4750 1819 4750 
Q 2544 4750 2975 4387 
Q 3406 4025 3406 3419 
Q 3406 3131 3298 2873 
Q 3191 2616 2906 2266 
Q 2828 2175 2409 1742 
Q 1991 1309 1228 531 
z
" transform="scale(0.015625)"/>
       </defs>
       <use xlink:href="#DejaVuSans-32"/>
       <use xlink:href="#DejaVuSans-30" x="63.623047"/>
       <use xlink:href="#DejaVuSans-30" x="127.246094"/>
      </g>
     </g>
    </g>
    <g id="xtick_3">
     <g id="line2d_5">
      <path d="M 203.824537 162.432 
L 203.824537 41.472 
" clip-path="url(#p38272f38fe)" style="fill: none; stroke: #b0b0b0; stroke-width: 0.8; stroke-linecap: square"/>
     </g>
     <g id="line2d_6">
      <g>
       <use xlink:href="#m9a71666d50" x="203.824537" y="162.432" style="stroke: #000000; stroke-width: 0.8"/>
      </g>
     </g>
     <g id="text_3">
      <!-- 400 -->
      <g transform="translate(194.280787 177.030437)scale(0.1 -0.1)">
       <defs>
        <path id="DejaVuSans-34" d="M 2419 4116 
L 825 1625 
L 2419 1625 
L 2419 4116 
z
M 2253 4666 
L 3047 4666 
L 3047 1625 
L 3713 1625 
L 3713 1100 
L 3047 1100 
L 3047 0 
L 2419 0 
L 2419 1100 
L 313 1100 
L 313 1709 
L 2253 4666 
z
" transform="scale(0.015625)"/>
       </defs>
       <use xlink:href="#DejaVuSans-34"/>
       <use xlink:href="#DejaVuSans-30" x="63.623047"/>
       <use xlink:href="#DejaVuSans-30" x="127.246094"/>
      </g>
     </g>
    </g>
    <g id="xtick_4">
     <g id="line2d_7">
      <path d="M 268.820442 162.432 
L 268.820442 41.472 
" clip-path="url(#p38272f38fe)" style="fill: none; stroke: #b0b0b0; stroke-width: 0.8; stroke-linecap: square"/>
     </g>
     <g id="line2d_8">
      <g>
       <use xlink:href="#m9a71666d50" x="268.820442" y="162.432" style="stroke: #000000; stroke-width: 0.8"/>
      </g>
     </g>
     <g id="text_4">
      <!-- 600 -->
      <g transform="translate(259.276692 177.030437)scale(0.1 -0.1)">
       <defs>
        <path id="DejaVuSans-36" d="M 2113 2584 
Q 1688 2584 1439 2293 
Q 1191 2003 1191 1497 
Q 1191 994 1439 701 
Q 1688 409 2113 409 
Q 2538 409 2786 701 
Q 3034 994 3034 1497 
Q 3034 2003 2786 2293 
Q 2538 2584 2113 2584 
z
M 3366 4563 
L 3366 3988 
Q 3128 4100 2886 4159 
Q 2644 4219 2406 4219 
Q 1781 4219 1451 3797 
Q 1122 3375 1075 2522 
Q 1259 2794 1537 2939 
Q 1816 3084 2150 3084 
Q 2853 3084 3261 2657 
Q 3669 2231 3669 1497 
Q 3669 778 3244 343 
Q 2819 -91 2113 -91 
Q 1303 -91 875 529 
Q 447 1150 447 2328 
Q 447 3434 972 4092 
Q 1497 4750 2381 4750 
Q 2619 4750 2861 4703 
Q 3103 4656 3366 4563 
z
" transform="scale(0.015625)"/>
       </defs>
       <use xlink:href="#DejaVuSans-36"/>
       <use xlink:href="#DejaVuSans-30" x="63.623047"/>
       <use xlink:href="#DejaVuSans-30" x="127.246094"/>
      </g>
     </g>
    </g>
    <g id="xtick_5">
     <g id="line2d_9">
      <path d="M 333.816347 162.432 
L 333.816347 41.472 
" clip-path="url(#p38272f38fe)" style="fill: none; stroke: #b0b0b0; stroke-width: 0.8; stroke-linecap: square"/>
     </g>
     <g id="line2d_10">
      <g>
       <use xlink:href="#m9a71666d50" x="333.816347" y="162.432" style="stroke: #000000; stroke-width: 0.8"/>
      </g>
     </g>
     <g id="text_5">
      <!-- 800 -->
      <g transform="translate(324.272597 177.030437)scale(0.1 -0.1)">
       <defs>
        <path id="DejaVuSans-38" d="M 2034 2216 
Q 1584 2216 1326 1975 
Q 1069 1734 1069 1313 
Q 1069 891 1326 650 
Q 1584 409 2034 409 
Q 2484 409 2743 651 
Q 3003 894 3003 1313 
Q 3003 1734 2745 1975 
Q 2488 2216 2034 2216 
z
M 1403 2484 
Q 997 2584 770 2862 
Q 544 3141 544 3541 
Q 544 4100 942 4425 
Q 1341 4750 2034 4750 
Q 2731 4750 3128 4425 
Q 3525 4100 3525 3541 
Q 3525 3141 3298 2862 
Q 3072 2584 2669 2484 
Q 3125 2378 3379 2068 
Q 3634 1759 3634 1313 
Q 3634 634 3220 271 
Q 2806 -91 2034 -91 
Q 1263 -91 848 271 
Q 434 634 434 1313 
Q 434 1759 690 2068 
Q 947 2378 1403 2484 
z
M 1172 3481 
Q 1172 3119 1398 2916 
Q 1625 2713 2034 2713 
Q 2441 2713 2670 2916 
Q 2900 3119 2900 3481 
Q 2900 3844 2670 4047 
Q 2441 4250 2034 4250 
Q 1625 4250 1398 4047 
Q 1172 3844 1172 3481 
z
" transform="scale(0.015625)"/>
       </defs>
       <use xlink:href="#DejaVuSans-38"/>
       <use xlink:href="#DejaVuSans-30" x="63.623047"/>
       <use xlink:href="#DejaVuSans-30" x="127.246094"/>
      </g>
     </g>
    </g>
    <g id="xtick_6">
     <g id="line2d_11">
      <path d="M 398.812252 162.432 
L 398.812252 41.472 
" clip-path="url(#p38272f38fe)" style="fill: none; stroke: #b0b0b0; stroke-width: 0.8; stroke-linecap: square"/>
     </g>
     <g id="line2d_12">
      <g>
       <use xlink:href="#m9a71666d50" x="398.812252" y="162.432" style="stroke: #000000; stroke-width: 0.8"/>
      </g>
     </g>
     <g id="text_6">
      <!-- 1000 -->
      <g transform="translate(386.087252 177.030437)scale(0.1 -0.1)">
       <defs>
        <path id="DejaVuSans-31" d="M 794 531 
L 1825 531 
L 1825 4091 
L 703 3866 
L 703 4441 
L 1819 4666 
L 2450 4666 
L 2450 531 
L 3481 531 
L 3481 0 
L 794 0 
L 794 531 
z
" transform="scale(0.015625)"/>
       </defs>
       <use xlink:href="#DejaVuSans-31"/>
       <use xlink:href="#DejaVuSans-30" x="63.623047"/>
       <use xlink:href="#DejaVuSans-30" x="127.246094"/>
       <use xlink:href="#DejaVuSans-30" x="190.869141"/>
      </g>
     </g>
    </g>
   </g>
   <g id="matplotlib.axis_2">
    <g id="ytick_1">
     <g id="line2d_13">
      <path d="M 57.6 156.933818 
L 414.72 156.933818 
" clip-path="url(#p38272f38fe)" style="fill: none; stroke: #b0b0b0; stroke-width: 0.8; stroke-linecap: square"/>
     </g>
     <g id="line2d_14">
      <defs>
       <path id="m9a1fb21b7b" d="M 0 0 
L -3.5 0 
" style="stroke: #000000; stroke-width: 0.8"/>
      </defs>
      <g>
       <use xlink:href="#m9a1fb21b7b" x="57.6" y="156.933818" style="stroke: #000000; stroke-width: 0.8"/>
      </g>
     </g>
     <g id="text_7">
      <!-- 0 -->
      <g transform="translate(44.2375 160.733037)scale(0.1 -0.1)">
       <use xlink:href="#DejaVuSans-30"/>
      </g>
     </g>
    </g>
    <g id="ytick_2">
     <g id="line2d_15">
      <path d="M 57.6 134.693062 
L 414.72 134.693062 
" clip-path="url(#p38272f38fe)" style="fill: none; stroke: #b0b0b0; stroke-width: 0.8; stroke-linecap: square"/>
     </g>
     <g id="line2d_16">
      <g>
       <use xlink:href="#m9a1fb21b7b" x="57.6" y="134.693062" style="stroke: #000000; stroke-width: 0.8"/>
      </g>
     </g>
     <g id="text_8">
      <!-- 250 -->
      <g transform="translate(31.5125 138.492281)scale(0.1 -0.1)">
       <defs>
        <path id="DejaVuSans-35" d="M 691 4666 
L 3169 4666 
L 3169 4134 
L 1269 4134 
L 1269 2991 
Q 1406 3038 1543 3061 
Q 1681 3084 1819 3084 
Q 2600 3084 3056 2656 
Q 3513 2228 3513 1497 
Q 3513 744 3044 326 
Q 2575 -91 1722 -91 
Q 1428 -91 1123 -41 
Q 819 9 494 109 
L 494 744 
Q 775 591 1075 516 
Q 1375 441 1709 441 
Q 2250 441 2565 725 
Q 2881 1009 2881 1497 
Q 2881 1984 2565 2268 
Q 2250 2553 1709 2553 
Q 1456 2553 1204 2497 
Q 953 2441 691 2322 
L 691 4666 
z
" transform="scale(0.015625)"/>
       </defs>
       <use xlink:href="#DejaVuSans-32"/>
       <use xlink:href="#DejaVuSans-35" x="63.623047"/>
       <use xlink:href="#DejaVuSans-30" x="127.246094"/>
      </g>
     </g>
    </g>
    <g id="ytick_3">
     <g id="line2d_17">
      <path d="M 57.6 112.452306 
L 414.72 112.452306 
" clip-path="url(#p38272f38fe)" style="fill: none; stroke: #b0b0b0; stroke-width: 0.8; stroke-linecap: square"/>
     </g>
     <g id="line2d_18">
      <g>
       <use xlink:href="#m9a1fb21b7b" x="57.6" y="112.452306" style="stroke: #000000; stroke-width: 0.8"/>
      </g>
     </g>
     <g id="text_9">
      <!-- 500 -->
      <g transform="translate(31.5125 116.251525)scale(0.1 -0.1)">
       <use xlink:href="#DejaVuSans-35"/>
       <use xlink:href="#DejaVuSans-30" x="63.623047"/>
       <use xlink:href="#DejaVuSans-30" x="127.246094"/>
      </g>
     </g>
    </g>
    <g id="ytick_4">
     <g id="line2d_19">
      <path d="M 57.6 90.21155 
L 414.72 90.21155 
" clip-path="url(#p38272f38fe)" style="fill: none; stroke: #b0b0b0; stroke-width: 0.8; stroke-linecap: square"/>
     </g>
     <g id="line2d_20">
      <g>
       <use xlink:href="#m9a1fb21b7b" x="57.6" y="90.21155" style="stroke: #000000; stroke-width: 0.8"/>
      </g>
     </g>
     <g id="text_10">
      <!-- 750 -->
      <g transform="translate(31.5125 94.010768)scale(0.1 -0.1)">
       <defs>
        <path id="DejaVuSans-37" d="M 525 4666 
L 3525 4666 
L 3525 4397 
L 1831 0 
L 1172 0 
L 2766 4134 
L 525 4134 
L 525 4666 
z
" transform="scale(0.015625)"/>
       </defs>
       <use xlink:href="#DejaVuSans-37"/>
       <use xlink:href="#DejaVuSans-35" x="63.623047"/>
       <use xlink:href="#DejaVuSans-30" x="127.246094"/>
      </g>
     </g>
    </g>
    <g id="ytick_5">
     <g id="line2d_21">
      <path d="M 57.6 67.970793 
L 414.72 67.970793 
" clip-path="url(#p38272f38fe)" style="fill: none; stroke: #b0b0b0; stroke-width: 0.8; stroke-linecap: square"/>
     </g>
     <g id="line2d_22">
      <g>
       <use xlink:href="#m9a1fb21b7b" x="57.6" y="67.970793" style="stroke: #000000; stroke-width: 0.8"/>
      </g>
     </g>
     <g id="text_11">
      <!-- 1000 -->
      <g transform="translate(25.15 71.770012)scale(0.1 -0.1)">
       <use xlink:href="#DejaVuSans-31"/>
       <use xlink:href="#DejaVuSans-30" x="63.623047"/>
       <use xlink:href="#DejaVuSans-30" x="127.246094"/>
       <use xlink:href="#DejaVuSans-30" x="190.869141"/>
      </g>
     </g>
    </g>
    <g id="ytick_6">
     <g id="line2d_23">
      <path d="M 57.6 45.730037 
L 414.72 45.730037 
" clip-path="url(#p38272f38fe)" style="fill: none; stroke: #b0b0b0; stroke-width: 0.8; stroke-linecap: square"/>
     </g>
     <g id="line2d_24">
      <g>
       <use xlink:href="#m9a1fb21b7b" x="57.6" y="45.730037" style="stroke: #000000; stroke-width: 0.8"/>
      </g>
     </g>
     <g id="text_12">
      <!-- 1250 -->
      <g transform="translate(25.15 49.529256)scale(0.1 -0.1)">
       <use xlink:href="#DejaVuSans-31"/>
       <use xlink:href="#DejaVuSans-32" x="63.623047"/>
       <use xlink:href="#DejaVuSans-35" x="127.246094"/>
       <use xlink:href="#DejaVuSans-30" x="190.869141"/>
      </g>
     </g>
    </g>
    <g id="text_13">
     <!-- power [w] -->
     <g transform="translate(19.070312 126.986375)rotate(-90)scale(0.1 -0.1)">
      <defs>
       <path id="DejaVuSans-70" d="M 1159 525 
L 1159 -1331 
L 581 -1331 
L 581 3500 
L 1159 3500 
L 1159 2969 
Q 1341 3281 1617 3432 
Q 1894 3584 2278 3584 
Q 2916 3584 3314 3078 
Q 3713 2572 3713 1747 
Q 3713 922 3314 415 
Q 2916 -91 2278 -91 
Q 1894 -91 1617 61 
Q 1341 213 1159 525 
z
M 3116 1747 
Q 3116 2381 2855 2742 
Q 2594 3103 2138 3103 
Q 1681 3103 1420 2742 
Q 1159 2381 1159 1747 
Q 1159 1113 1420 752 
Q 1681 391 2138 391 
Q 2594 391 2855 752 
Q 3116 1113 3116 1747 
z
" transform="scale(0.015625)"/>
       <path id="DejaVuSans-6f" d="M 1959 3097 
Q 1497 3097 1228 2736 
Q 959 2375 959 1747 
Q 959 1119 1226 758 
Q 1494 397 1959 397 
Q 2419 397 2687 759 
Q 2956 1122 2956 1747 
Q 2956 2369 2687 2733 
Q 2419 3097 1959 3097 
z
M 1959 3584 
Q 2709 3584 3137 3096 
Q 3566 2609 3566 1747 
Q 3566 888 3137 398 
Q 2709 -91 1959 -91 
Q 1206 -91 779 398 
Q 353 888 353 1747 
Q 353 2609 779 3096 
Q 1206 3584 1959 3584 
z
" transform="scale(0.015625)"/>
       <path id="DejaVuSans-77" d="M 269 3500 
L 844 3500 
L 1563 769 
L 2278 3500 
L 2956 3500 
L 3675 769 
L 4391 3500 
L 4966 3500 
L 4050 0 
L 3372 0 
L 2619 2869 
L 1863 0 
L 1184 0 
L 269 3500 
z
" transform="scale(0.015625)"/>
       <path id="DejaVuSans-65" d="M 3597 1894 
L 3597 1613 
L 953 1613 
Q 991 1019 1311 708 
Q 1631 397 2203 397 
Q 2534 397 2845 478 
Q 3156 559 3463 722 
L 3463 178 
Q 3153 47 2828 -22 
Q 2503 -91 2169 -91 
Q 1331 -91 842 396 
Q 353 884 353 1716 
Q 353 2575 817 3079 
Q 1281 3584 2069 3584 
Q 2775 3584 3186 3129 
Q 3597 2675 3597 1894 
z
M 3022 2063 
Q 3016 2534 2758 2815 
Q 2500 3097 2075 3097 
Q 1594 3097 1305 2825 
Q 1016 2553 972 2059 
L 3022 2063 
z
" transform="scale(0.015625)"/>
       <path id="DejaVuSans-72" d="M 2631 2963 
Q 2534 3019 2420 3045 
Q 2306 3072 2169 3072 
Q 1681 3072 1420 2755 
Q 1159 2438 1159 1844 
L 1159 0 
L 581 0 
L 581 3500 
L 1159 3500 
L 1159 2956 
Q 1341 3275 1631 3429 
Q 1922 3584 2338 3584 
Q 2397 3584 2469 3576 
Q 2541 3569 2628 3553 
L 2631 2963 
z
" transform="scale(0.015625)"/>
       <path id="DejaVuSans-20" transform="scale(0.015625)"/>
       <path id="DejaVuSans-5b" d="M 550 4863 
L 1875 4863 
L 1875 4416 
L 1125 4416 
L 1125 -397 
L 1875 -397 
L 1875 -844 
L 550 -844 
L 550 4863 
z
" transform="scale(0.015625)"/>
       <path id="DejaVuSans-5d" d="M 1947 4863 
L 1947 -844 
L 622 -844 
L 622 -397 
L 1369 -397 
L 1369 4416 
L 622 4416 
L 622 4863 
L 1947 4863 
z
" transform="scale(0.015625)"/>
      </defs>
      <use xlink:href="#DejaVuSans-70"/>
      <use xlink:href="#DejaVuSans-6f" x="63.476562"/>
      <use xlink:href="#DejaVuSans-77" x="124.658203"/>
      <use xlink:href="#DejaVuSans-65" x="206.445312"/>
      <use xlink:href="#DejaVuSans-72" x="267.96875"/>
      <use xlink:href="#DejaVuSans-20" x="309.082031"/>
      <use xlink:href="#DejaVuSans-5b" x="340.869141"/>
      <use xlink:href="#DejaVuSans-77" x="379.882812"/>
      <use xlink:href="#DejaVuSans-5d" x="461.669922"/>
     </g>
    </g>
   </g>
   <g id="line2d_25">
    <path d="M 73.832727 156.933818 
L 74.482686 156.933818 
L 74.807666 125.515636 
L 75.132645 125.515636 
L 75.457625 141.224727 
L 75.782604 125.515636 
L 76.107584 125.515636 
L 76.432563 141.224727 
L 76.757543 141.224727 
L 77.082523 156.933818 
L 77.407502 149.079273 
L 77.732482 149.079273 
L 78.057461 156.933818 
L 87.481867 156.933818 
L 87.806847 141.224727 
L 88.456806 141.224727 
L 88.781785 156.933818 
L 89.106765 133.370182 
L 89.431744 141.224727 
L 89.756724 141.224727 
L 90.081704 149.079273 
L 90.406683 141.224727 
L 90.731663 156.933818 
L 91.056642 156.933818 
L 91.381622 125.515636 
L 91.706601 156.933818 
L 112.180311 156.933818 
L 112.505291 149.079273 
L 112.83027 149.079273 
L 113.15525 156.933818 
L 113.480229 149.079273 
L 113.805209 156.933818 
L 114.130188 149.079273 
L 114.780147 149.079273 
L 115.105127 156.933818 
L 115.430106 46.970182 
L 115.755086 62.679273 
L 116.080066 94.097455 
L 116.405045 86.242909 
L 116.730025 101.952 
L 117.055004 125.515636 
L 117.379984 117.661091 
L 117.704963 133.370182 
L 118.029943 117.661091 
L 118.354922 117.661091 
L 119.004881 133.370182 
L 119.329861 117.661091 
L 119.65484 133.370182 
L 119.97982 125.515636 
L 120.629779 156.933818 
L 121.279738 141.224727 
L 121.604717 156.933818 
L 121.929697 125.515636 
L 122.254676 133.370182 
L 122.579656 133.370182 
L 122.904636 125.515636 
L 123.229615 133.370182 
L 123.554595 149.079273 
L 123.879574 141.224727 
L 124.204554 149.079273 
L 124.854513 109.806545 
L 125.179492 141.224727 
L 125.504472 117.661091 
L 125.829451 117.661091 
L 126.47941 156.933818 
L 126.80439 117.661091 
L 127.129369 117.661091 
L 127.454349 125.515636 
L 127.779328 109.806545 
L 128.429287 149.079273 
L 128.754267 156.933818 
L 129.079247 133.370182 
L 129.404226 149.079273 
L 129.729206 156.933818 
L 130.379165 156.933818 
L 130.704144 149.079273 
L 131.029124 156.933818 
L 131.354103 156.933818 
L 131.679083 141.224727 
L 132.004062 156.933818 
L 132.329042 156.933818 
L 132.654021 149.079273 
L 132.979001 156.933818 
L 133.953939 156.933818 
L 134.278919 125.515636 
L 134.603898 133.370182 
L 134.928878 149.079273 
L 135.253857 133.370182 
L 135.578837 156.933818 
L 140.778509 156.933818 
L 141.103489 125.515636 
L 141.753448 125.515636 
L 142.078428 133.370182 
L 143.378346 133.370182 
L 143.703325 117.661091 
L 144.028305 125.515636 
L 144.353284 141.224727 
L 144.678264 133.370182 
L 145.003243 141.224727 
L 145.328223 156.933818 
L 145.653202 149.079273 
L 145.978182 149.079273 
L 146.303161 156.933818 
L 149.877936 156.933818 
L 150.202916 149.079273 
L 150.527895 156.933818 
L 151.827813 156.933818 
L 152.477772 141.224727 
L 152.802752 141.224727 
L 153.127731 149.079273 
L 153.77769 149.079273 
L 154.10267 156.933818 
L 154.427649 149.079273 
L 154.752629 156.933818 
L 155.077609 149.079273 
L 155.402588 149.079273 
L 155.727568 141.224727 
L 156.377527 156.933818 
L 156.702506 156.933818 
L 157.027486 141.224727 
L 157.352465 156.933818 
L 163.852056 156.933818 
L 164.177035 141.224727 
L 164.502015 156.933818 
L 165.151974 156.933818 
L 165.476953 141.224727 
L 165.801933 149.079273 
L 166.451892 133.370182 
L 166.776871 133.370182 
L 167.101851 125.515636 
L 167.42683 109.806545 
L 167.75181 101.952 
L 168.401769 101.952 
L 168.726749 94.097455 
L 169.051728 101.952 
L 169.376708 94.097455 
L 169.701687 94.097455 
L 170.026667 109.806545 
L 170.676626 94.097455 
L 171.001605 101.952 
L 171.326585 101.952 
L 171.651564 94.097455 
L 172.301523 109.806545 
L 172.626503 109.806545 
L 172.951482 117.661091 
L 173.601441 101.952 
L 173.926421 101.952 
L 174.57638 117.661091 
L 174.90136 101.952 
L 175.226339 109.806545 
L 175.551319 109.806545 
L 175.876298 125.515636 
L 176.201278 125.515636 
L 176.526257 117.661091 
L 176.851237 117.661091 
L 177.501196 133.370182 
L 177.826175 125.515636 
L 178.151155 133.370182 
L 178.476134 125.515636 
L 178.801114 125.515636 
L 179.126093 141.224727 
L 179.451073 149.079273 
L 181.075971 149.079273 
L 181.40095 141.224727 
L 181.72593 141.224727 
L 182.050909 156.933818 
L 182.375889 149.079273 
L 182.700868 156.933818 
L 183.025848 141.224727 
L 183.350827 156.933818 
L 186.275643 156.933818 
L 186.600622 141.224727 
L 186.925602 133.370182 
L 187.250581 149.079273 
L 187.575561 149.079273 
L 187.900541 156.933818 
L 190.175397 156.933818 
L 190.500377 149.079273 
L 190.825356 156.933818 
L 193.425192 156.933818 
L 193.750172 149.079273 
L 194.075152 156.933818 
L 195.37507 156.933818 
L 195.700049 141.224727 
L 196.025029 141.224727 
L 196.350008 156.933818 
L 196.999967 141.224727 
L 197.649926 156.933818 
L 197.974906 149.079273 
L 198.299885 156.933818 
L 198.949844 156.933818 
L 199.274824 149.079273 
L 199.599803 156.933818 
L 199.924783 156.933818 
L 200.249762 133.370182 
L 200.574742 156.933818 
L 200.899722 141.224727 
L 201.224701 156.933818 
L 201.549681 149.079273 
L 201.87466 156.933818 
L 217.148698 156.933818 
L 217.473677 149.079273 
L 217.798657 156.933818 
L 218.448616 156.933818 
L 218.773595 149.079273 
L 219.098575 156.933818 
L 219.423554 149.079273 
L 219.748534 156.933818 
L 220.073514 149.079273 
L 220.398493 156.933818 
L 221.373432 133.370182 
L 221.698411 133.370182 
L 222.023391 141.224727 
L 222.34837 156.933818 
L 225.273186 156.933818 
L 225.598165 149.079273 
L 225.923145 156.933818 
L 230.472858 156.933818 
L 230.797838 149.079273 
L 231.122817 149.079273 
L 231.447797 156.933818 
L 231.772776 133.370182 
L 232.097756 133.370182 
L 232.422735 141.224727 
L 233.072695 141.224727 
L 233.722654 125.515636 
L 234.047633 141.224727 
L 234.372613 125.515636 
L 234.697592 149.079273 
L 235.022572 141.224727 
L 235.672531 156.933818 
L 235.99751 149.079273 
L 236.32249 156.933818 
L 236.647469 149.079273 
L 236.972449 156.933818 
L 245.746896 156.933818 
L 246.071876 141.224727 
L 246.396855 156.933818 
L 246.721835 141.224727 
L 247.046814 149.079273 
L 247.371794 141.224727 
L 247.696773 125.515636 
L 248.021753 141.224727 
L 248.671712 141.224727 
L 248.996691 149.079273 
L 249.321671 133.370182 
L 249.64665 141.224727 
L 250.296609 141.224727 
L 250.621589 149.079273 
L 250.946568 141.224727 
L 251.271548 156.933818 
L 258.096118 156.933818 
L 258.421097 141.224727 
L 258.746077 156.933818 
L 259.071057 149.079273 
L 259.396036 156.933818 
L 259.721016 141.224727 
L 260.045995 149.079273 
L 261.020934 149.079273 
L 261.345913 156.933818 
L 261.670893 141.224727 
L 261.995872 133.370182 
L 262.320852 141.224727 
L 262.645831 141.224727 
L 262.970811 133.370182 
L 263.29579 149.079273 
L 263.62077 141.224727 
L 263.945749 149.079273 
L 264.270729 149.079273 
L 264.595708 125.515636 
L 265.245667 141.224727 
L 265.570647 141.224727 
L 265.895627 149.079273 
L 266.220606 141.224727 
L 266.870565 156.933818 
L 267.195545 141.224727 
L 267.520524 156.933818 
L 267.845504 149.079273 
L 268.170483 156.933818 
L 269.470401 156.933818 
L 269.795381 149.079273 
L 270.12036 149.079273 
L 270.44534 141.224727 
L 271.095299 156.933818 
L 271.745258 156.933818 
L 272.070238 149.079273 
L 272.395217 133.370182 
L 272.720197 141.224727 
L 273.045176 141.224727 
L 273.370156 156.933818 
L 273.695135 149.079273 
L 274.020115 156.933818 
L 274.345094 141.224727 
L 274.670074 149.079273 
L 274.995053 149.079273 
L 275.320033 141.224727 
L 275.969992 156.933818 
L 276.294971 149.079273 
L 276.619951 149.079273 
L 276.94493 141.224727 
L 277.26991 141.224727 
L 277.594889 149.079273 
L 277.919869 149.079273 
L 278.244848 70.533818 
L 278.569828 101.952 
L 278.894808 101.952 
L 279.219787 117.661091 
L 279.869746 117.661091 
L 280.194726 133.370182 
L 280.519705 133.370182 
L 280.844685 141.224727 
L 281.494644 141.224727 
L 281.819623 149.079273 
L 282.144603 149.079273 
L 282.469582 156.933818 
L 282.794562 149.079273 
L 283.119541 156.933818 
L 283.444521 141.224727 
L 283.7695 156.933818 
L 284.09448 156.933818 
L 284.419459 149.079273 
L 284.744439 156.933818 
L 285.719378 156.933818 
L 286.044357 149.079273 
L 286.369337 156.933818 
L 288.319214 156.933818 
L 288.644193 149.079273 
L 288.969173 156.933818 
L 290.91905 156.933818 
L 291.244029 133.370182 
L 291.569009 156.933818 
L 296.443702 156.933818 
L 296.768681 125.515636 
L 297.093661 149.079273 
L 297.41864 125.515636 
L 297.74362 125.515636 
L 298.0686 109.806545 
L 298.393579 156.933818 
L 299.693497 156.933818 
L 300.018477 141.224727 
L 300.343456 141.224727 
L 300.668436 149.079273 
L 300.993415 149.079273 
L 301.318395 156.933818 
L 301.643374 149.079273 
L 301.968354 156.933818 
L 305.868108 156.933818 
L 306.193088 149.079273 
L 306.518067 156.933818 
L 307.168026 141.224727 
L 307.817985 141.224727 
L 308.142965 149.079273 
L 308.792924 133.370182 
L 309.117903 141.224727 
L 309.442883 141.224727 
L 309.767862 125.515636 
L 310.092842 133.370182 
L 310.417821 133.370182 
L 310.742801 141.224727 
L 311.067781 141.224727 
L 311.39276 149.079273 
L 312.042719 149.079273 
L 312.367699 156.933818 
L 313.017658 156.933818 
L 313.342637 141.224727 
L 313.667617 156.933818 
L 313.992596 156.933818 
L 314.317576 141.224727 
L 314.642555 141.224727 
L 315.292514 156.933818 
L 316.917412 156.933818 
L 317.567371 141.224727 
L 317.892351 156.933818 
L 319.517248 156.933818 
L 319.842228 149.079273 
L 320.167207 156.933818 
L 320.492187 149.079273 
L 320.817166 156.933818 
L 329.591613 156.933818 
L 329.916593 149.079273 
L 330.241572 133.370182 
L 330.566552 141.224727 
L 330.891532 133.370182 
L 331.216511 133.370182 
L 331.541491 141.224727 
L 331.86647 133.370182 
L 332.516429 133.370182 
L 332.841409 141.224727 
L 333.166388 133.370182 
L 333.491368 133.370182 
L 333.816347 141.224727 
L 334.141327 141.224727 
L 334.466306 156.933818 
L 343.890713 156.933818 
L 344.215692 149.079273 
L 344.540672 156.933818 
L 345.190631 156.933818 
L 345.51561 149.079273 
L 345.84059 149.079273 
L 346.815528 125.515636 
L 347.140508 101.952 
L 347.465487 141.224727 
L 347.790467 109.806545 
L 348.115446 125.515636 
L 349.415364 156.933818 
L 351.040262 156.933818 
L 351.365242 149.079273 
L 351.690221 156.933818 
L 356.889894 156.933818 
L 357.864832 133.370182 
L 358.189812 141.224727 
L 358.514791 125.515636 
L 358.839771 117.661091 
L 359.16475 117.661091 
L 359.48973 133.370182 
L 359.814709 117.661091 
L 360.139689 125.515636 
L 360.464668 94.097455 
L 361.114627 149.079273 
L 361.439607 141.224727 
L 361.764586 109.806545 
L 362.089566 101.952 
L 362.414545 101.952 
L 362.739525 125.515636 
L 363.064505 117.661091 
L 363.714464 117.661091 
L 364.039443 133.370182 
L 364.364423 133.370182 
L 364.689402 141.224727 
L 365.014382 133.370182 
L 365.339361 149.079273 
L 365.664341 133.370182 
L 365.98932 156.933818 
L 374.438788 156.933818 
L 375.088747 141.224727 
L 375.413726 156.933818 
L 375.738706 133.370182 
L 376.063686 156.933818 
L 376.388665 149.079273 
L 376.713645 156.933818 
L 377.038624 156.933818 
L 377.363604 149.079273 
L 377.688583 156.933818 
L 382.238296 156.933818 
L 382.563276 133.370182 
L 382.888256 149.079273 
L 383.213235 149.079273 
L 383.538215 156.933818 
L 383.863194 156.933818 
L 384.188174 149.079273 
L 384.513153 156.933818 
L 384.838133 156.933818 
L 385.163112 149.079273 
L 385.488092 149.079273 
L 385.813071 141.224727 
L 386.138051 149.079273 
L 387.112989 149.079273 
L 387.437969 141.224727 
L 387.762948 141.224727 
L 388.087928 149.079273 
L 388.737887 133.370182 
L 389.712826 156.933818 
L 390.687764 156.933818 
L 391.012744 149.079273 
L 391.337723 149.079273 
L 391.662703 156.933818 
L 391.987682 156.933818 
L 392.312662 149.079273 
L 392.637641 156.933818 
L 397.187355 156.933818 
L 397.512334 149.079273 
L 397.837314 125.515636 
L 398.162293 149.079273 
L 398.487273 125.515636 
L 398.487273 125.515636 
" clip-path="url(#p38272f38fe)" style="fill: none; stroke: #1f77b4; stroke-width: 1.5; stroke-linecap: square"/>
   </g>
   <g id="line2d_26">
    <path d="M 73.832727 156.933818 
L 74.157707 156.933818 
L 74.482686 149.877164 
L 74.807666 156.933818 
L 75.132645 156.933818 
L 75.457625 156.018109 
L 75.782604 146.864945 
L 76.107584 156.933818 
L 77.732482 156.933818 
L 78.057461 154.710327 
L 78.382441 148.4928 
L 78.70742 149.665745 
L 79.0324 156.880145 
L 79.357379 156.149673 
L 79.682359 156.933818 
L 80.007338 144.765164 
L 80.332318 151.552145 
L 80.657297 154.657964 
L 80.982277 152.425964 
L 81.307256 151.5024 
L 81.632236 152.515636 
L 82.282195 155.659418 
L 82.607174 148.908436 
L 82.932154 156.168 
L 83.257133 156.933818 
L 83.582113 156.933818 
L 83.907093 149.773091 
L 84.232072 155.736 
L 84.557052 152.023418 
L 84.882031 156.933818 
L 85.85697 156.933818 
L 86.181949 154.017164 
L 86.506929 156.933818 
L 87.806847 156.933818 
L 88.131826 153.246109 
L 88.456806 152.500582 
L 88.781785 156.933818 
L 89.106765 156.933818 
L 89.431744 152.374909 
L 89.756724 156.933818 
L 90.731663 156.865745 
L 91.056642 156.695564 
L 91.381622 156.933818 
L 91.706601 156.933818 
L 92.031581 156.778691 
L 92.35656 156.933818 
L 93.006519 156.933818 
L 93.331499 155.904218 
L 93.656478 156.933818 
L 93.981458 156.933818 
L 94.306437 152.414836 
L 94.631417 152.200145 
L 94.956396 151.454618 
L 95.281376 151.748509 
L 95.606355 156.933818 
L 95.931335 156.933818 
L 96.256314 155.478764 
L 96.581294 156.520145 
L 96.906274 156.933818 
L 97.231253 152.354618 
L 97.556233 156.658909 
L 97.881212 156.933818 
L 98.206192 152.885455 
L 98.531171 156.933818 
L 98.856151 156.933818 
L 99.18113 153.868582 
L 99.50611 156.933818 
L 99.831089 156.681818 
L 100.156069 154.264582 
L 100.481048 156.933818 
L 100.806028 154.703782 
L 101.131007 156.922036 
L 101.455987 156.933818 
L 101.780966 150.358255 
L 102.105946 154.788873 
L 102.430925 156.933818 
L 102.755905 150.656727 
L 103.080885 156.933818 
L 103.405864 151.256291 
L 103.730844 155.093891 
L 104.055823 154.330691 
L 104.380803 152.772218 
L 104.705782 156.933818 
L 105.030762 156.933818 
L 105.355741 152.705455 
L 105.680721 155.942182 
L 106.0057 156.933818 
L 106.980639 156.933818 
L 107.305618 156.278618 
L 107.630598 156.933818 
L 107.955577 156.933818 
L 108.280557 156.530618 
L 108.605536 156.933818 
L 108.930516 156.933818 
L 109.255495 149.002036 
L 109.580475 156.933818 
L 110.880393 156.933818 
L 111.205373 153.595636 
L 111.855332 156.933818 
L 112.180311 156.933818 
L 112.505291 154.652727 
L 112.83027 156.933818 
L 113.15525 155.725527 
L 113.480229 155.927127 
L 113.805209 156.933818 
L 114.780147 156.933818 
L 115.105127 154.467491 
L 115.430106 151.076291 
L 115.755086 149.5584 
L 116.080066 150.586691 
L 116.405045 156.933818 
L 117.704963 156.933818 
L 118.029943 155.394327 
L 118.354922 156.933818 
L 120.304799 156.933818 
L 120.629779 156.401018 
L 120.954758 156.933818 
L 121.279738 156.933818 
L 121.604717 150.654764 
L 121.929697 156.933818 
L 122.254676 156.410182 
L 122.579656 155.164582 
L 122.904636 156.588873 
L 123.229615 156.933818 
L 124.204554 156.933818 
L 124.529533 155.183564 
L 124.854513 155.682327 
L 125.179492 156.933818 
L 125.829451 156.933818 
L 126.154431 155.266036 
L 126.47941 155.014036 
L 126.80439 151.345964 
L 127.129369 154.687418 
L 127.454349 154.357527 
L 127.779328 149.605527 
L 128.104308 156.933818 
L 128.754267 155.946109 
L 129.079247 155.9376 
L 129.404226 156.933818 
L 129.729206 156.510327 
L 130.054185 156.933818 
L 132.004062 156.933818 
L 132.329042 155.6064 
L 132.654021 156.933818 
L 132.979001 148.599491 
L 133.30398 156.933818 
L 133.62896 156.033164 
L 133.953939 156.933818 
L 134.278919 156.195491 
L 134.603898 156.933818 
L 135.253857 156.933818 
L 135.578837 155.948727 
L 135.903817 156.933818 
L 136.228796 156.933818 
L 136.553776 152.785964 
L 136.878755 150.613527 
L 137.203735 153.104727 
L 137.528714 148.2048 
L 137.853694 156.933818 
L 138.178673 153.877745 
L 138.503653 156.933818 
L 138.828632 156.933818 
L 139.153612 154.114036 
L 139.478591 156.933818 
L 139.803571 155.925164 
L 140.12855 156.933818 
L 140.778509 156.933818 
L 141.103489 155.264073 
L 141.428468 156.933818 
L 141.753448 156.933818 
L 142.078428 151.654909 
L 142.403407 149.390182 
L 142.728387 156.933818 
L 143.053366 155.058545 
L 143.378346 154.561745 
L 143.703325 156.933818 
L 144.028305 156.791782 
L 144.353284 156.933818 
L 144.678264 153.221891 
L 145.003243 156.933818 
L 145.328223 148.249309 
L 145.653202 156.933818 
L 146.95312 156.933818 
L 147.603079 150.211636 
L 147.928059 153.278836 
L 148.253038 152.901164 
L 148.578018 148.335055 
L 148.902998 155.952 
L 149.227977 150.629236 
L 149.552957 152.901164 
L 149.877936 156.933818 
L 150.202916 154.761382 
L 150.527895 155.177673 
L 150.852875 156.933818 
L 151.177854 156.933818 
L 151.502834 153.342982 
L 151.827813 156.933818 
L 152.802752 156.933818 
L 153.127731 150.694691 
L 153.452711 156.933818 
L 154.427649 156.933818 
L 154.752629 154.530327 
L 155.077609 156.933818 
L 155.402588 156.933818 
L 155.727568 154.437382 
L 156.377527 156.933818 
L 157.027486 154.606255 
L 157.352465 156.933818 
L 158.652383 156.933818 
L 158.977363 154.534255 
L 159.302342 156.933818 
L 160.92724 156.933818 
L 161.252219 155.326255 
L 161.577199 156.933818 
L 162.552138 156.933818 
L 162.877117 154.590545 
L 163.202097 156.933818 
L 163.527076 155.010109 
L 163.852056 156.933818 
L 164.177035 154.085891 
L 164.502015 146.392364 
L 164.826994 151.903636 
L 165.151974 152.174618 
L 165.476953 156.933818 
L 165.801933 154.832073 
L 166.126912 156.933818 
L 166.451892 156.933818 
L 166.776871 154.660582 
L 167.101851 156.933818 
L 167.75181 156.933818 
L 168.07679 153.292582 
L 168.401769 154.114691 
L 168.726749 156.933818 
L 170.026667 156.933818 
L 170.351646 150.577527 
L 170.676626 152.453455 
L 171.001605 156.933818 
L 171.326585 146.763491 
L 171.651564 156.933818 
L 172.626503 156.933818 
L 172.951482 154.574182 
L 173.276462 155.214982 
L 173.601441 156.933818 
L 174.2514 156.933818 
L 174.90136 153.884291 
L 175.226339 154.391564 
L 175.551319 156.933818 
L 176.526257 156.933818 
L 176.851237 156.057382 
L 177.176216 151.972364 
L 177.501196 156.933818 
L 177.826175 153.432 
L 178.151155 153.876436 
L 178.476134 156.933818 
L 178.801114 152.039127 
L 179.126093 153.190473 
L 179.451073 156.933818 
L 179.776052 155.310545 
L 180.101032 156.933818 
L 180.426011 155.0736 
L 180.750991 154.343127 
L 181.075971 153.181964 
L 181.40095 156.933818 
L 181.72593 152.016218 
L 182.050909 151.232073 
L 182.375889 156.933818 
L 182.700868 152.568 
L 183.025848 156.933818 
L 183.350827 154.882473 
L 183.675807 148.0896 
L 184.000786 156.055418 
L 184.325766 145.975418 
L 184.650745 156.933818 
L 184.975725 156.933818 
L 185.300704 153.906545 
L 185.625684 156.933818 
L 185.950663 151.753745 
L 186.275643 154.428873 
L 186.600622 149.098909 
L 186.925602 154.028291 
L 187.250581 152.356582 
L 187.575561 156.933818 
L 187.900541 154.207636 
L 188.22552 156.127418 
L 188.5505 150.466255 
L 188.875479 154.970836 
L 189.200459 156.933818 
L 189.525438 153.699709 
L 189.850418 156.933818 
L 190.175397 156.933818 
L 190.500377 143.457382 
L 190.825356 151.222255 
L 191.150336 150.296073 
L 191.475315 156.528655 
L 191.800295 154.203709 
L 192.125274 156.933818 
L 192.450254 156.933818 
L 192.775233 155.042182 
L 193.100213 156.933818 
L 193.425192 156.933818 
L 194.075152 153.3312 
L 194.400131 156.317236 
L 194.725111 150.140291 
L 195.05009 156.933818 
L 195.37507 154.8576 
L 195.700049 156.933818 
L 196.025029 154.403345 
L 196.350008 156.933818 
L 196.674988 156.933818 
L 196.999967 152.710691 
L 197.324947 156.933818 
L 197.649926 153.144 
L 197.974906 156.933818 
L 198.624865 156.933818 
L 198.949844 151.294909 
L 199.274824 156.933818 
L 200.249762 156.933818 
L 200.574742 153.579927 
L 200.899722 156.933818 
L 202.19964 156.933818 
L 202.524619 156.1464 
L 202.849599 151.819855 
L 203.174578 155.074909 
L 203.499558 156.749891 
L 203.824537 153.4248 
L 204.149517 155.592655 
L 204.474496 156.933818 
L 205.449435 156.933818 
L 205.774414 156.022691 
L 206.099394 156.933818 
L 206.749353 156.933818 
L 207.074333 152.951564 
L 207.399312 156.933818 
L 207.724292 156.933818 
L 208.049271 152.167418 
L 208.374251 155.949382 
L 208.69923 156.933818 
L 209.02421 155.849236 
L 209.349189 155.501673 
L 209.674169 156.933818 
L 209.999148 156.933818 
L 210.324128 155.135127 
L 210.649107 156.933818 
L 210.974087 156.933818 
L 211.299066 153.320073 
L 211.624046 154.801964 
L 211.949025 156.933818 
L 212.274005 156.933818 
L 212.598984 152.658982 
L 212.923964 156.933818 
L 213.248943 156.933818 
L 213.573923 153.930109 
L 213.898903 155.098473 
L 214.223882 150.929673 
L 214.548862 156.933818 
L 215.5238 156.933818 
L 215.84878 154.6056 
L 216.173759 156.933818 
L 216.498739 155.027127 
L 216.823718 156.933818 
L 217.148698 154.010618 
L 217.473677 154.179491 
L 217.798657 156.933818 
L 218.123636 155.345236 
L 218.448616 156.933818 
L 219.098575 156.933818 
L 219.423554 150.84 
L 219.748534 155.598545 
L 220.073514 155.349164 
L 220.398493 156.933818 
L 220.723473 156.933818 
L 221.048452 153.934036 
L 221.373432 152.8488 
L 221.698411 156.933818 
L 222.023391 152.676 
L 222.34837 156.933818 
L 223.973268 156.933818 
L 224.298247 156.6 
L 224.623227 151.4304 
L 224.948206 156.933818 
L 225.273186 156.766909 
L 225.598165 156.933818 
L 225.923145 156.933818 
L 226.248124 152.430545 
L 226.573104 156.933818 
L 226.898084 150.100364 
L 227.223063 151.762255 
L 227.548043 155.267345 
L 227.873022 156.933818 
L 228.198002 155.1816 
L 228.522981 156.933818 
L 229.17294 156.933818 
L 229.49792 155.442109 
L 229.822899 155.276509 
L 230.147879 154.946618 
L 230.472858 156.933818 
L 231.772776 156.933818 
L 232.097756 152.866473 
L 232.422735 156.933818 
L 232.747715 156.933818 
L 233.072695 151.771418 
L 233.397674 155.190109 
L 233.722654 156.933818 
L 234.697592 156.933818 
L 235.022572 154.314982 
L 235.347551 156.933818 
L 235.672531 156.933818 
L 235.99751 152.992145 
L 236.32249 156.933818 
L 237.947387 156.933818 
L 238.272367 151.216364 
L 238.597346 155.899636 
L 238.922326 156.933818 
L 240.872203 156.933818 
L 241.197183 154.775127 
L 241.522162 156.933818 
L 242.82208 156.933818 
L 243.14706 155.559927 
L 243.472039 156.933818 
L 243.797019 154.552582 
L 244.121998 156.933818 
L 246.721835 156.933818 
L 247.046814 156.685091 
L 247.371794 154.159855 
L 247.696773 154.323491 
L 248.021753 156.895855 
L 248.996691 156.933818 
L 249.321671 151.886618 
L 249.64665 149.0184 
L 249.97163 156.933818 
L 250.296609 155.540945 
L 250.621589 155.108291 
L 250.946568 156.933818 
L 251.271548 151.819855 
L 251.596527 156.2976 
L 251.921507 149.626473 
L 252.246486 156.933818 
L 252.571466 156.933818 
L 252.896446 151.976291 
L 253.221425 156.933818 
L 253.546405 152.693018 
L 253.871384 151.472291 
L 254.196364 155.4192 
L 254.521343 154.347055 
L 254.846323 156.933818 
L 256.47122 156.933818 
L 257.121179 153.191782 
L 257.446159 151.126036 
L 257.771138 156.933818 
L 259.071057 156.933818 
L 259.396036 155.184218 
L 259.721016 155.220873 
L 260.045995 156.933818 
L 260.370975 156.933818 
L 260.695954 155.891782 
L 261.020934 155.233964 
L 261.345913 150.164509 
L 261.670893 152.871709 
L 261.995872 154.005382 
L 262.320852 156.933818 
L 262.970811 156.933818 
L 263.29579 152.342182 
L 263.62077 149.808436 
L 263.945749 156.933818 
L 264.270729 153.7344 
L 264.595708 156.933818 
L 264.920688 155.988655 
L 265.245667 156.933818 
L 265.570647 156.933818 
L 265.895627 152.429891 
L 266.220606 156.933818 
L 266.545586 155.723564 
L 266.870565 156.933818 
L 267.195545 147.289091 
L 267.520524 153.614618 
L 267.845504 155.189455 
L 268.170483 154.977382 
L 268.495463 155.575636 
L 268.820442 156.933818 
L 269.145422 156.283855 
L 269.470401 156.933818 
L 269.795381 155.523273 
L 270.12036 156.933818 
L 270.770319 156.933818 
L 271.095299 152.677964 
L 271.420278 156.933818 
L 271.745258 155.307273 
L 272.070238 156.933818 
L 272.395217 156.933818 
L 272.720197 156.094691 
L 273.045176 152.161527 
L 273.370156 156.933818 
L 274.020115 156.933818 
L 274.345094 156.697527 
L 274.670074 154.7496 
L 274.995053 156.933818 
L 275.320033 155.430982 
L 275.645012 155.632582 
L 275.969992 156.933818 
L 276.294971 156.933818 
L 276.619951 154.387636 
L 276.94493 149.822182 
L 277.26991 156.933818 
L 277.594889 156.933818 
L 277.919869 154.646836 
L 278.244848 145.015855 
L 278.569828 152.134691 
L 278.894808 155.460436 
L 279.219787 156.933818 
L 279.544767 153.231709 
L 279.869746 156.069818 
L 280.194726 156.933818 
L 281.169664 156.933818 
L 281.494644 153.009818 
L 281.819623 156.933818 
L 282.144603 156.933818 
L 282.469582 148.880945 
L 282.794562 156.632073 
L 283.119541 152.471782 
L 283.444521 156.912873 
L 283.7695 156.310036 
L 284.09448 156.933818 
L 285.719378 156.933818 
L 286.044357 155.055273 
L 286.369337 148.935927 
L 286.694316 156.933818 
L 287.019296 156.933818 
L 287.344275 156.414109 
L 287.669255 156.933818 
L 287.994234 154.651418 
L 288.319214 156.933818 
L 288.644193 156.933818 
L 288.969173 154.121236 
L 289.294152 156.933818 
L 289.619132 156.899782 
L 289.944111 154.508727 
L 290.269091 154.305164 
L 290.59407 156.933818 
L 290.91905 156.063927 
L 291.244029 156.933818 
L 292.218968 156.933818 
L 292.543948 156.345382 
L 292.868927 156.933818 
L 293.193907 156.933818 
L 293.518886 156.048873 
L 293.843866 153.826691 
L 294.168845 156.933818 
L 294.493825 156.933818 
L 294.818804 156.459927 
L 295.143784 156.933818 
L 295.468763 156.933818 
L 295.793743 155.373382 
L 296.118722 156.933818 
L 296.443702 156.707345 
L 296.768681 155.742545 
L 297.093661 156.637309 
L 297.41864 155.095855 
L 297.74362 156.933818 
L 298.0686 156.933818 
L 298.393579 148.062109 
L 298.718559 156.933818 
L 299.043538 156.933818 
L 299.368518 156.337527 
L 299.693497 156.933818 
L 300.018477 156.933818 
L 300.343456 154.794109 
L 300.668436 154.477964 
L 300.993415 156.933818 
L 301.318395 153.550473 
L 301.643374 153.044509 
L 301.968354 156.186327 
L 302.293333 156.817964 
L 302.618313 152.958764 
L 302.943292 156.933818 
L 303.268272 153.490255 
L 303.593251 156.933818 
L 303.918231 153.324655 
L 304.24321 156.933818 
L 304.89317 156.933818 
L 305.218149 156.770836 
L 305.543129 156.933818 
L 305.868108 153.216655 
L 306.193088 156.933818 
L 306.518067 156.933818 
L 306.843047 152.446255 
L 307.168026 156.933818 
L 307.493006 156.933818 
L 307.817985 152.867782 
L 308.142965 156.933818 
L 308.792924 156.933818 
L 309.117903 156.793091 
L 309.442883 153.515127 
L 309.767862 156.321164 
L 310.092842 156.933818 
L 310.417821 156.529964 
L 311.067781 153.219273 
L 311.39276 149.405891 
L 311.71774 151.3224 
L 312.042719 151.328291 
L 312.367699 155.724873 
L 312.692678 156.933818 
L 315.942473 156.933818 
L 316.267453 148.891418 
L 316.592432 156.933818 
L 316.917412 153.667636 
L 317.242391 153.761236 
L 317.567371 156.933818 
L 317.892351 155.093891 
L 318.21733 155.229382 
L 318.54231 153.072655 
L 318.867289 156.933818 
L 319.842228 156.933818 
L 320.167207 152.467855 
L 320.492187 156.933818 
L 321.142146 149.845091 
L 321.467125 156.933818 
L 321.792105 156.933818 
L 322.117084 152.223709 
L 322.442064 156.933818 
L 322.767043 147.1104 
L 323.092023 154.44 
L 323.417002 153.702327 
L 323.741982 156.933818 
L 324.066962 150.330109 
L 324.391941 156.933818 
L 324.716921 152.415491 
L 325.0419 156.933818 
L 325.36688 151.559345 
L 325.691859 154.891636 
L 326.016839 156.933818 
L 326.341818 156.933818 
L 326.666798 154.688727 
L 326.991777 156.933818 
L 328.291695 156.933818 
L 328.616675 156.822545 
L 328.941654 153.088364 
L 329.266634 156.933818 
L 329.591613 150.921818 
L 329.916593 151.888582 
L 330.241572 148.883564 
L 330.566552 154.123855 
L 330.891532 155.988 
L 331.216511 156.933818 
L 331.541491 156.933818 
L 331.86647 156.104509 
L 332.19145 147.876218 
L 332.841409 155.510182 
L 333.166388 156.933818 
L 333.491368 156.933818 
L 333.816347 149.476582 
L 334.141327 152.876945 
L 334.466306 150.978109 
L 334.791286 156.933818 
L 335.441245 151.131927 
L 335.766224 150.718255 
L 336.091204 156.933818 
L 336.416183 153.284727 
L 336.741163 156.933818 
L 337.066143 149.571491 
L 337.391122 156.933818 
L 337.716102 149.034764 
L 338.041081 156.933818 
L 338.366061 150.318327 
L 338.69104 156.933818 
L 339.01602 145.830109 
L 339.665979 155.472218 
L 339.990958 147.846764 
L 340.315938 150.028364 
L 340.640917 156.933818 
L 340.965897 156.933818 
L 341.290876 147.704073 
L 341.615856 156.933818 
L 341.940835 156.842182 
L 342.265815 155.906836 
L 342.590794 154.401382 
L 342.915774 156.223636 
L 343.240753 156.933818 
L 343.565733 154.870036 
L 343.890713 156.933818 
L 344.215692 152.462618 
L 344.540672 154.061018 
L 344.865651 156.933818 
L 345.190631 156.933818 
L 345.51561 152.727709 
L 345.84059 152.788582 
L 346.165569 156.933818 
L 348.115446 156.933818 
L 348.440426 154.284873 
L 348.765405 156.933818 
L 349.090385 152.0568 
L 349.415364 152.228291 
L 349.740344 156.933818 
L 352.015201 156.933818 
L 352.34018 156.761673 
L 352.66516 156.266836 
L 352.990139 156.933818 
L 353.315119 151.861745 
L 353.640098 150.860945 
L 353.965078 151.614982 
L 354.290057 156.933818 
L 354.615037 154.350982 
L 354.940016 156.933818 
L 355.264996 156.933818 
L 355.589975 150.741818 
L 355.914955 155.251636 
L 356.239934 156.933818 
L 358.839771 156.933818 
L 359.16475 149.922982 
L 359.48973 154.002109 
L 359.814709 152.837673 
L 360.139689 156.933818 
L 362.739525 156.933818 
L 363.064505 153.442473 
L 363.389484 152.851418 
L 363.714464 156.933818 
L 364.364423 156.933818 
L 364.689402 155.023855 
L 365.014382 156.933818 
L 365.664341 156.933818 
L 366.3143 153.934036 
L 366.964259 156.933818 
L 367.289238 154.8576 
L 367.614218 149.771782 
L 367.939197 154.875273 
L 368.264177 156.933818 
L 369.564095 156.933818 
L 369.889075 156.518182 
L 370.214054 156.933818 
L 370.539034 156.933818 
L 370.864013 149.250764 
L 371.188993 156.933818 
L 371.513972 156.933818 
L 371.838952 156.005018 
L 372.488911 155.745164 
L 372.81389 153.585818 
L 373.13887 156.424582 
L 373.463849 153.174109 
L 373.788829 152.593527 
L 374.113808 156.933818 
L 376.063686 156.933818 
L 376.388665 153.685964 
L 376.713645 156.933818 
L 377.038624 155.443418 
L 377.363604 154.594473 
L 377.688583 156.933818 
L 378.013563 147.348655 
L 378.338542 156.933818 
L 378.663522 150.519927 
L 378.988501 156.933818 
L 379.313481 148.596873 
L 379.63846 155.016655 
L 379.96344 155.340655 
L 380.288419 156.933818 
L 381.263358 156.933818 
L 381.588337 156.2616 
L 381.913317 151.425164 
L 382.238296 151.927855 
L 382.563276 156.184364 
L 382.888256 156.933818 
L 383.538215 156.933818 
L 383.863194 156.5208 
L 384.188174 156.772145 
L 384.513153 147.854618 
L 384.838133 156.933818 
L 385.163112 156.933818 
L 385.488092 156.365018 
L 385.813071 156.933818 
L 386.138051 156.933818 
L 386.46303 143.141236 
L 386.78801 156.933818 
L 387.112989 150.788945 
L 387.437969 152.3952 
L 387.762948 151.870909 
L 388.087928 147.817964 
L 388.412907 156.933818 
L 388.737887 155.849236 
L 389.062867 149.196436 
L 389.387846 151.896436 
L 389.712826 156.008291 
L 390.037805 152.626255 
L 390.362785 156.933818 
L 390.687764 151.343345 
L 391.012744 156.933818 
L 391.337723 156.302836 
L 391.662703 156.933818 
L 392.312662 156.933818 
L 392.637641 154.837964 
L 392.962621 155.051345 
L 393.2876 148.721236 
L 393.61258 156.933818 
L 393.937559 153.890182 
L 394.587518 156.933818 
L 394.912498 147.078327 
L 395.237477 147.567927 
L 395.562457 155.140364 
L 395.887437 156.933818 
L 396.212416 151.908873 
L 396.537396 156.933818 
L 396.862375 155.319709 
L 397.187355 156.933818 
L 397.512334 148.389382 
L 397.837314 156.933818 
L 398.487273 156.933818 
L 398.487273 156.933818 
" clip-path="url(#p38272f38fe)" style="fill: none; stroke: #ff7f0e; stroke-width: 1.5; stroke-linecap: square"/>
   </g>
   <g id="patch_3">
    <path d="M 57.6 162.432 
L 57.6 41.472 
" style="fill: none; stroke: #000000; stroke-width: 0.8; stroke-linejoin: miter; stroke-linecap: square"/>
   </g>
   <g id="patch_4">
    <path d="M 414.72 162.432 
L 414.72 41.472 
" style="fill: none; stroke: #000000; stroke-width: 0.8; stroke-linejoin: miter; stroke-linecap: square"/>
   </g>
   <g id="patch_5">
    <path d="M 57.6 162.432 
L 414.72 162.432 
" style="fill: none; stroke: #000000; stroke-width: 0.8; stroke-linejoin: miter; stroke-linecap: square"/>
   </g>
   <g id="patch_6">
    <path d="M 57.6 41.472 
L 414.72 41.472 
" style="fill: none; stroke: #000000; stroke-width: 0.8; stroke-linejoin: miter; stroke-linecap: square"/>
   </g>
   <g id="legend_1">
    <g id="patch_7">
     <path d="M 334.195 78.82825 
L 407.72 78.82825 
Q 409.72 78.82825 409.72 76.82825 
L 409.72 48.472 
Q 409.72 46.472 407.72 46.472 
L 334.195 46.472 
Q 332.195 46.472 332.195 48.472 
L 332.195 76.82825 
Q 332.195 78.82825 334.195 78.82825 
z
" style="fill: #ffffff; opacity: 0.8; stroke: #cccccc; stroke-linejoin: miter"/>
    </g>
    <g id="line2d_27">
     <path d="M 336.195 54.570437 
L 346.195 54.570437 
L 356.195 54.570437 
" style="fill: none; stroke: #1f77b4; stroke-width: 1.5; stroke-linecap: square"/>
    </g>
    <g id="text_14">
     <!-- gps -->
     <g transform="translate(364.195 58.070437)scale(0.1 -0.1)">
      <defs>
       <path id="DejaVuSans-67" d="M 2906 1791 
Q 2906 2416 2648 2759 
Q 2391 3103 1925 3103 
Q 1463 3103 1205 2759 
Q 947 2416 947 1791 
Q 947 1169 1205 825 
Q 1463 481 1925 481 
Q 2391 481 2648 825 
Q 2906 1169 2906 1791 
z
M 3481 434 
Q 3481 -459 3084 -895 
Q 2688 -1331 1869 -1331 
Q 1566 -1331 1297 -1286 
Q 1028 -1241 775 -1147 
L 775 -588 
Q 1028 -725 1275 -790 
Q 1522 -856 1778 -856 
Q 2344 -856 2625 -561 
Q 2906 -266 2906 331 
L 2906 616 
Q 2728 306 2450 153 
Q 2172 0 1784 0 
Q 1141 0 747 490 
Q 353 981 353 1791 
Q 353 2603 747 3093 
Q 1141 3584 1784 3584 
Q 2172 3584 2450 3431 
Q 2728 3278 2906 2969 
L 2906 3500 
L 3481 3500 
L 3481 434 
z
" transform="scale(0.015625)"/>
       <path id="DejaVuSans-73" d="M 2834 3397 
L 2834 2853 
Q 2591 2978 2328 3040 
Q 2066 3103 1784 3103 
Q 1356 3103 1142 2972 
Q 928 2841 928 2578 
Q 928 2378 1081 2264 
Q 1234 2150 1697 2047 
L 1894 2003 
Q 2506 1872 2764 1633 
Q 3022 1394 3022 966 
Q 3022 478 2636 193 
Q 2250 -91 1575 -91 
Q 1294 -91 989 -36 
Q 684 19 347 128 
L 347 722 
Q 666 556 975 473 
Q 1284 391 1588 391 
Q 1994 391 2212 530 
Q 2431 669 2431 922 
Q 2431 1156 2273 1281 
Q 2116 1406 1581 1522 
L 1381 1569 
Q 847 1681 609 1914 
Q 372 2147 372 2553 
Q 372 3047 722 3315 
Q 1072 3584 1716 3584 
Q 2034 3584 2315 3537 
Q 2597 3491 2834 3397 
z
" transform="scale(0.015625)"/>
      </defs>
      <use xlink:href="#DejaVuSans-67"/>
      <use xlink:href="#DejaVuSans-70" x="63.476562"/>
      <use xlink:href="#DejaVuSans-73" x="126.953125"/>
     </g>
    </g>
    <g id="line2d_28">
     <path d="M 336.195 69.248562 
L 346.195 69.248562 
L 356.195 69.248562 
" style="fill: none; stroke: #ff7f0e; stroke-width: 1.5; stroke-linecap: square"/>
    </g>
    <g id="text_15">
     <!-- bmp280 -->
     <g transform="translate(364.195 72.748562)scale(0.1 -0.1)">
      <defs>
       <path id="DejaVuSans-62" d="M 3116 1747 
Q 3116 2381 2855 2742 
Q 2594 3103 2138 3103 
Q 1681 3103 1420 2742 
Q 1159 2381 1159 1747 
Q 1159 1113 1420 752 
Q 1681 391 2138 391 
Q 2594 391 2855 752 
Q 3116 1113 3116 1747 
z
M 1159 2969 
Q 1341 3281 1617 3432 
Q 1894 3584 2278 3584 
Q 2916 3584 3314 3078 
Q 3713 2572 3713 1747 
Q 3713 922 3314 415 
Q 2916 -91 2278 -91 
Q 1894 -91 1617 61 
Q 1341 213 1159 525 
L 1159 0 
L 581 0 
L 581 4863 
L 1159 4863 
L 1159 2969 
z
" transform="scale(0.015625)"/>
       <path id="DejaVuSans-6d" d="M 3328 2828 
Q 3544 3216 3844 3400 
Q 4144 3584 4550 3584 
Q 5097 3584 5394 3201 
Q 5691 2819 5691 2113 
L 5691 0 
L 5113 0 
L 5113 2094 
Q 5113 2597 4934 2840 
Q 4756 3084 4391 3084 
Q 3944 3084 3684 2787 
Q 3425 2491 3425 1978 
L 3425 0 
L 2847 0 
L 2847 2094 
Q 2847 2600 2669 2842 
Q 2491 3084 2119 3084 
Q 1678 3084 1418 2786 
Q 1159 2488 1159 1978 
L 1159 0 
L 581 0 
L 581 3500 
L 1159 3500 
L 1159 2956 
Q 1356 3278 1631 3431 
Q 1906 3584 2284 3584 
Q 2666 3584 2933 3390 
Q 3200 3197 3328 2828 
z
" transform="scale(0.015625)"/>
      </defs>
      <use xlink:href="#DejaVuSans-62"/>
      <use xlink:href="#DejaVuSans-6d" x="63.476562"/>
      <use xlink:href="#DejaVuSans-70" x="160.888672"/>
      <use xlink:href="#DejaVuSans-32" x="224.365234"/>
      <use xlink:href="#DejaVuSans-38" x="287.988281"/>
      <use xlink:href="#DejaVuSans-30" x="351.611328"/>
     </g>
    </g>
   </g>
  </g>
  <g id="axes_2">
   <g id="patch_8">
    <path d="M 57.6 307.584 
L 414.72 307.584 
L 414.72 186.624 
L 57.6 186.624 
z
" style="fill: #ffffff"/>
   </g>
   <g id="matplotlib.axis_3">
    <g id="xtick_7">
     <g id="line2d_29">
      <path d="M 73.832727 307.584 
L 73.832727 186.624 
" clip-path="url(#p7fa21603e7)" style="fill: none; stroke: #b0b0b0; stroke-width: 0.8; stroke-linecap: square"/>
     </g>
     <g id="line2d_30">
      <g>
       <use xlink:href="#m9a71666d50" x="73.832727" y="307.584" style="stroke: #000000; stroke-width: 0.8"/>
      </g>
     </g>
     <g id="text_16">
      <!-- 0 -->
      <g transform="translate(70.651477 322.182437)scale(0.1 -0.1)">
       <use xlink:href="#DejaVuSans-30"/>
      </g>
     </g>
    </g>
    <g id="xtick_8">
     <g id="line2d_31">
      <path d="M 138.828632 307.584 
L 138.828632 186.624 
" clip-path="url(#p7fa21603e7)" style="fill: none; stroke: #b0b0b0; stroke-width: 0.8; stroke-linecap: square"/>
     </g>
     <g id="line2d_32">
      <g>
       <use xlink:href="#m9a71666d50" x="138.828632" y="307.584" style="stroke: #000000; stroke-width: 0.8"/>
      </g>
     </g>
     <g id="text_17">
      <!-- 200 -->
      <g transform="translate(129.284882 322.182437)scale(0.1 -0.1)">
       <use xlink:href="#DejaVuSans-32"/>
       <use xlink:href="#DejaVuSans-30" x="63.623047"/>
       <use xlink:href="#DejaVuSans-30" x="127.246094"/>
      </g>
     </g>
    </g>
    <g id="xtick_9">
     <g id="line2d_33">
      <path d="M 203.824537 307.584 
L 203.824537 186.624 
" clip-path="url(#p7fa21603e7)" style="fill: none; stroke: #b0b0b0; stroke-width: 0.8; stroke-linecap: square"/>
     </g>
     <g id="line2d_34">
      <g>
       <use xlink:href="#m9a71666d50" x="203.824537" y="307.584" style="stroke: #000000; stroke-width: 0.8"/>
      </g>
     </g>
     <g id="text_18">
      <!-- 400 -->
      <g transform="translate(194.280787 322.182437)scale(0.1 -0.1)">
       <use xlink:href="#DejaVuSans-34"/>
       <use xlink:href="#DejaVuSans-30" x="63.623047"/>
       <use xlink:href="#DejaVuSans-30" x="127.246094"/>
      </g>
     </g>
    </g>
    <g id="xtick_10">
     <g id="line2d_35">
      <path d="M 268.820442 307.584 
L 268.820442 186.624 
" clip-path="url(#p7fa21603e7)" style="fill: none; stroke: #b0b0b0; stroke-width: 0.8; stroke-linecap: square"/>
     </g>
     <g id="line2d_36">
      <g>
       <use xlink:href="#m9a71666d50" x="268.820442" y="307.584" style="stroke: #000000; stroke-width: 0.8"/>
      </g>
     </g>
     <g id="text_19">
      <!-- 600 -->
      <g transform="translate(259.276692 322.182437)scale(0.1 -0.1)">
       <use xlink:href="#DejaVuSans-36"/>
       <use xlink:href="#DejaVuSans-30" x="63.623047"/>
       <use xlink:href="#DejaVuSans-30" x="127.246094"/>
      </g>
     </g>
    </g>
    <g id="xtick_11">
     <g id="line2d_37">
      <path d="M 333.816347 307.584 
L 333.816347 186.624 
" clip-path="url(#p7fa21603e7)" style="fill: none; stroke: #b0b0b0; stroke-width: 0.8; stroke-linecap: square"/>
     </g>
     <g id="line2d_38">
      <g>
       <use xlink:href="#m9a71666d50" x="333.816347" y="307.584" style="stroke: #000000; stroke-width: 0.8"/>
      </g>
     </g>
     <g id="text_20">
      <!-- 800 -->
      <g transform="translate(324.272597 322.182437)scale(0.1 -0.1)">
       <use xlink:href="#DejaVuSans-38"/>
       <use xlink:href="#DejaVuSans-30" x="63.623047"/>
       <use xlink:href="#DejaVuSans-30" x="127.246094"/>
      </g>
     </g>
    </g>
    <g id="xtick_12">
     <g id="line2d_39">
      <path d="M 398.812252 307.584 
L 398.812252 186.624 
" clip-path="url(#p7fa21603e7)" style="fill: none; stroke: #b0b0b0; stroke-width: 0.8; stroke-linecap: square"/>
     </g>
     <g id="line2d_40">
      <g>
       <use xlink:href="#m9a71666d50" x="398.812252" y="307.584" style="stroke: #000000; stroke-width: 0.8"/>
      </g>
     </g>
     <g id="text_21">
      <!-- 1000 -->
      <g transform="translate(386.087252 322.182437)scale(0.1 -0.1)">
       <use xlink:href="#DejaVuSans-31"/>
       <use xlink:href="#DejaVuSans-30" x="63.623047"/>
       <use xlink:href="#DejaVuSans-30" x="127.246094"/>
       <use xlink:href="#DejaVuSans-30" x="190.869141"/>
      </g>
     </g>
    </g>
    <g id="text_22">
     <!-- time [s] -->
     <g transform="translate(216.768594 335.860562)scale(0.1 -0.1)">
      <defs>
       <path id="DejaVuSans-74" d="M 1172 4494 
L 1172 3500 
L 2356 3500 
L 2356 3053 
L 1172 3053 
L 1172 1153 
Q 1172 725 1289 603 
Q 1406 481 1766 481 
L 2356 481 
L 2356 0 
L 1766 0 
Q 1100 0 847 248 
Q 594 497 594 1153 
L 594 3053 
L 172 3053 
L 172 3500 
L 594 3500 
L 594 4494 
L 1172 4494 
z
" transform="scale(0.015625)"/>
       <path id="DejaVuSans-69" d="M 603 3500 
L 1178 3500 
L 1178 0 
L 603 0 
L 603 3500 
z
M 603 4863 
L 1178 4863 
L 1178 4134 
L 603 4134 
L 603 4863 
z
" transform="scale(0.015625)"/>
      </defs>
      <use xlink:href="#DejaVuSans-74"/>
      <use xlink:href="#DejaVuSans-69" x="39.208984"/>
      <use xlink:href="#DejaVuSans-6d" x="66.992188"/>
      <use xlink:href="#DejaVuSans-65" x="164.404297"/>
      <use xlink:href="#DejaVuSans-20" x="225.927734"/>
      <use xlink:href="#DejaVuSans-5b" x="257.714844"/>
      <use xlink:href="#DejaVuSans-73" x="296.728516"/>
      <use xlink:href="#DejaVuSans-5d" x="348.828125"/>
     </g>
    </g>
   </g>
   <g id="matplotlib.axis_4">
    <g id="ytick_7">
     <g id="line2d_41">
      <path d="M 57.6 302.085818 
L 414.72 302.085818 
" clip-path="url(#p7fa21603e7)" style="fill: none; stroke: #b0b0b0; stroke-width: 0.8; stroke-linecap: square"/>
     </g>
     <g id="line2d_42">
      <g>
       <use xlink:href="#m9a1fb21b7b" x="57.6" y="302.085818" style="stroke: #000000; stroke-width: 0.8"/>
      </g>
     </g>
     <g id="text_23">
      <!-- 0 -->
      <g transform="translate(44.2375 305.885037)scale(0.1 -0.1)">
       <use xlink:href="#DejaVuSans-30"/>
      </g>
     </g>
    </g>
    <g id="ytick_8">
     <g id="line2d_43">
      <path d="M 57.6 281.346982 
L 414.72 281.346982 
" clip-path="url(#p7fa21603e7)" style="fill: none; stroke: #b0b0b0; stroke-width: 0.8; stroke-linecap: square"/>
     </g>
     <g id="line2d_44">
      <g>
       <use xlink:href="#m9a1fb21b7b" x="57.6" y="281.346982" style="stroke: #000000; stroke-width: 0.8"/>
      </g>
     </g>
     <g id="text_24">
      <!-- 5 -->
      <g transform="translate(44.2375 285.1462)scale(0.1 -0.1)">
       <use xlink:href="#DejaVuSans-35"/>
      </g>
     </g>
    </g>
    <g id="ytick_9">
     <g id="line2d_45">
      <path d="M 57.6 260.608145 
L 414.72 260.608145 
" clip-path="url(#p7fa21603e7)" style="fill: none; stroke: #b0b0b0; stroke-width: 0.8; stroke-linecap: square"/>
     </g>
     <g id="line2d_46">
      <g>
       <use xlink:href="#m9a1fb21b7b" x="57.6" y="260.608145" style="stroke: #000000; stroke-width: 0.8"/>
      </g>
     </g>
     <g id="text_25">
      <!-- 10 -->
      <g transform="translate(37.875 264.407364)scale(0.1 -0.1)">
       <use xlink:href="#DejaVuSans-31"/>
       <use xlink:href="#DejaVuSans-30" x="63.623047"/>
      </g>
     </g>
    </g>
    <g id="ytick_10">
     <g id="line2d_47">
      <path d="M 57.6 239.869309 
L 414.72 239.869309 
" clip-path="url(#p7fa21603e7)" style="fill: none; stroke: #b0b0b0; stroke-width: 0.8; stroke-linecap: square"/>
     </g>
     <g id="line2d_48">
      <g>
       <use xlink:href="#m9a1fb21b7b" x="57.6" y="239.869309" style="stroke: #000000; stroke-width: 0.8"/>
      </g>
     </g>
     <g id="text_26">
      <!-- 15 -->
      <g transform="translate(37.875 243.668527)scale(0.1 -0.1)">
       <use xlink:href="#DejaVuSans-31"/>
       <use xlink:href="#DejaVuSans-35" x="63.623047"/>
      </g>
     </g>
    </g>
    <g id="ytick_11">
     <g id="line2d_49">
      <path d="M 57.6 219.130472 
L 414.72 219.130472 
" clip-path="url(#p7fa21603e7)" style="fill: none; stroke: #b0b0b0; stroke-width: 0.8; stroke-linecap: square"/>
     </g>
     <g id="line2d_50">
      <g>
       <use xlink:href="#m9a1fb21b7b" x="57.6" y="219.130472" style="stroke: #000000; stroke-width: 0.8"/>
      </g>
     </g>
     <g id="text_27">
      <!-- 20 -->
      <g transform="translate(37.875 222.929691)scale(0.1 -0.1)">
       <use xlink:href="#DejaVuSans-32"/>
       <use xlink:href="#DejaVuSans-30" x="63.623047"/>
      </g>
     </g>
    </g>
    <g id="ytick_12">
     <g id="line2d_51">
      <path d="M 57.6 198.391636 
L 414.72 198.391636 
" clip-path="url(#p7fa21603e7)" style="fill: none; stroke: #b0b0b0; stroke-width: 0.8; stroke-linecap: square"/>
     </g>
     <g id="line2d_52">
      <g>
       <use xlink:href="#m9a1fb21b7b" x="57.6" y="198.391636" style="stroke: #000000; stroke-width: 0.8"/>
      </g>
     </g>
     <g id="text_28">
      <!-- 25 -->
      <g transform="translate(37.875 202.190855)scale(0.1 -0.1)">
       <use xlink:href="#DejaVuSans-32"/>
       <use xlink:href="#DejaVuSans-35" x="63.623047"/>
      </g>
     </g>
    </g>
    <g id="text_29">
     <!-- energy [wh] -->
     <g transform="translate(31.795312 277.275875)rotate(-90)scale(0.1 -0.1)">
      <defs>
       <path id="DejaVuSans-6e" d="M 3513 2113 
L 3513 0 
L 2938 0 
L 2938 2094 
Q 2938 2591 2744 2837 
Q 2550 3084 2163 3084 
Q 1697 3084 1428 2787 
Q 1159 2491 1159 1978 
L 1159 0 
L 581 0 
L 581 3500 
L 1159 3500 
L 1159 2956 
Q 1366 3272 1645 3428 
Q 1925 3584 2291 3584 
Q 2894 3584 3203 3211 
Q 3513 2838 3513 2113 
z
" transform="scale(0.015625)"/>
       <path id="DejaVuSans-79" d="M 2059 -325 
Q 1816 -950 1584 -1140 
Q 1353 -1331 966 -1331 
L 506 -1331 
L 506 -850 
L 844 -850 
Q 1081 -850 1212 -737 
Q 1344 -625 1503 -206 
L 1606 56 
L 191 3500 
L 800 3500 
L 1894 763 
L 2988 3500 
L 3597 3500 
L 2059 -325 
z
" transform="scale(0.015625)"/>
       <path id="DejaVuSans-68" d="M 3513 2113 
L 3513 0 
L 2938 0 
L 2938 2094 
Q 2938 2591 2744 2837 
Q 2550 3084 2163 3084 
Q 1697 3084 1428 2787 
Q 1159 2491 1159 1978 
L 1159 0 
L 581 0 
L 581 4863 
L 1159 4863 
L 1159 2956 
Q 1366 3272 1645 3428 
Q 1925 3584 2291 3584 
Q 2894 3584 3203 3211 
Q 3513 2838 3513 2113 
z
" transform="scale(0.015625)"/>
      </defs>
      <use xlink:href="#DejaVuSans-65"/>
      <use xlink:href="#DejaVuSans-6e" x="61.523438"/>
      <use xlink:href="#DejaVuSans-65" x="124.902344"/>
      <use xlink:href="#DejaVuSans-72" x="186.425781"/>
      <use xlink:href="#DejaVuSans-67" x="225.789062"/>
      <use xlink:href="#DejaVuSans-79" x="289.265625"/>
      <use xlink:href="#DejaVuSans-20" x="348.445312"/>
      <use xlink:href="#DejaVuSans-5b" x="380.232422"/>
      <use xlink:href="#DejaVuSans-77" x="419.246094"/>
      <use xlink:href="#DejaVuSans-68" x="501.033203"/>
      <use xlink:href="#DejaVuSans-5d" x="564.412109"/>
     </g>
    </g>
   </g>
   <g id="line2d_53">
    <path d="M 73.832727 302.085818 
L 74.482686 302.085818 
L 75.132645 301.272026 
L 75.457625 301.068578 
L 76.107584 300.254786 
L 76.757543 299.84789 
L 77.407502 299.746166 
L 78.057461 299.644442 
L 87.481867 299.644442 
L 88.456806 299.034098 
L 88.781785 299.034098 
L 89.431744 298.525478 
L 90.406683 298.016858 
L 91.056642 298.016858 
L 91.381622 297.609962 
L 112.505291 297.508238 
L 113.480229 297.304791 
L 114.130188 297.203067 
L 115.105127 296.999619 
L 115.755086 294.354795 
L 116.730025 291.913419 
L 118.029943 290.184111 
L 118.679902 289.268595 
L 119.004881 288.963423 
L 119.65484 288.149631 
L 119.97982 287.742735 
L 120.304799 287.539287 
L 120.954758 287.437563 
L 121.279738 287.234115 
L 121.604717 287.234115 
L 122.254676 286.522047 
L 123.554595 285.403083 
L 124.529533 284.691015 
L 124.854513 284.080671 
L 125.179492 283.877223 
L 125.829451 282.859984 
L 126.154431 282.656536 
L 126.47941 282.656536 
L 128.104308 280.316884 
L 130.054185 279.808264 
L 131.354103 279.70654 
L 131.679083 279.503092 
L 133.953939 279.401368 
L 134.603898 278.6893 
L 134.928878 278.587576 
L 135.253857 278.282404 
L 140.778509 278.282404 
L 142.078428 276.756544 
L 143.378346 275.535856 
L 144.028305 274.62034 
L 145.328223 273.908272 
L 146.303161 273.704824 
L 151.827813 273.6031 
L 152.477772 273.297928 
L 153.127731 272.992756 
L 154.427649 272.687584 
L 155.077609 272.58586 
L 157.352465 271.975516 
L 163.852056 271.975516 
L 164.177035 271.772068 
L 165.151974 271.772068 
L 166.776871 270.653104 
L 167.101851 270.246208 
L 168.07679 268.211729 
L 169.376708 265.160009 
L 170.026667 263.735873 
L 172.951482 257.530709 
L 176.201278 251.630718 
L 177.176216 250.206582 
L 178.151155 249.189342 
L 178.801114 248.37555 
L 179.451073 248.070378 
L 181.40095 247.35831 
L 181.72593 247.154862 
L 182.700868 247.053138 
L 183.025848 246.84969 
L 186.275643 246.84969 
L 187.575561 246.137622 
L 193.425192 246.035898 
L 194.075152 245.934174 
L 195.37507 245.934174 
L 196.025029 245.527278 
L 196.674988 245.425554 
L 197.324947 245.120382 
L 198.949844 245.018658 
L 199.599803 244.916934 
L 199.924783 244.916934 
L 200.249762 244.611762 
L 200.574742 244.611762 
L 200.899722 244.408314 
L 217.148698 244.30659 
L 217.798657 244.204866 
L 219.098575 244.103142 
L 220.073514 243.899694 
L 220.723473 243.79797 
L 221.373432 243.28935 
L 222.023391 242.78073 
L 230.472858 242.679006 
L 231.772776 242.170386 
L 232.422735 241.661766 
L 233.397674 240.949698 
L 233.722654 240.542802 
L 234.047633 240.339354 
L 234.372613 239.932458 
L 236.647469 239.322115 
L 245.746896 239.322115 
L 246.071876 239.118667 
L 246.396855 239.118667 
L 250.946568 236.270395 
L 258.096118 236.270395 
L 258.421097 236.066947 
L 259.396036 235.965223 
L 260.045995 235.660051 
L 261.670893 235.151431 
L 262.320852 234.642811 
L 263.945749 233.727295 
L 264.270729 233.625571 
L 264.920688 232.913503 
L 266.220606 232.201435 
L 267.845504 231.794539 
L 269.795381 231.692815 
L 271.420278 231.285919 
L 272.070238 231.184195 
L 272.720197 230.675575 
L 273.045176 230.472127 
L 274.020115 230.370403 
L 274.670074 230.065231 
L 276.94493 229.251439 
L 277.594889 228.946267 
L 277.919869 228.844543 
L 278.244848 227.725579 
L 279.219787 225.792823 
L 280.194726 224.470412 
L 280.844685 223.961792 
L 281.819623 223.453172 
L 282.794562 223.249724 
L 283.119541 223.249724 
L 283.444521 223.046276 
L 285.719378 222.944552 
L 286.369337 222.842828 
L 290.91905 222.741104 
L 291.244029 222.435932 
L 296.443702 222.435932 
L 296.768681 222.029036 
L 297.093661 221.927312 
L 297.74362 221.11352 
L 298.0686 220.503176 
L 299.693497 220.503176 
L 300.668436 219.994556 
L 301.643374 219.791108 
L 306.518067 219.689384 
L 307.168026 219.384212 
L 309.442883 217.960076 
L 310.092842 217.248008 
L 310.742801 216.739388 
L 311.39276 216.434216 
L 312.367699 216.230768 
L 313.017658 216.230768 
L 313.342637 216.02732 
L 313.992596 216.02732 
L 314.967535 215.5187 
L 317.242391 215.416976 
L 317.567371 215.213528 
L 320.167207 215.111804 
L 320.817166 215.01008 
L 329.916593 214.908356 
L 331.216511 213.789392 
L 331.86647 213.280772 
L 333.491368 211.856636 
L 334.141327 211.44974 
L 345.190631 211.348016 
L 346.165569 210.941121 
L 346.815528 210.229053 
L 347.140508 209.516985 
L 347.465487 209.313537 
L 348.115446 208.296297 
L 348.765405 207.787677 
L 349.415364 207.685953 
L 356.889894 207.584229 
L 357.539853 207.279057 
L 358.514791 206.363541 
L 359.814709 204.532509 
L 360.139689 204.125613 
L 360.464668 203.311821 
L 360.789648 202.803201 
L 361.439607 202.498029 
L 363.389484 199.039413 
L 364.039443 198.225621 
L 365.014382 197.411829 
L 365.339361 197.310105 
L 365.664341 197.004933 
L 374.763767 196.903209 
L 375.088747 196.699762 
L 375.413726 196.699762 
L 375.738706 196.39459 
L 377.038624 196.292866 
L 377.688583 196.191142 
L 382.238296 196.191142 
L 382.563276 195.88597 
L 383.538215 195.682522 
L 384.838133 195.580798 
L 387.112989 194.767006 
L 389.387846 193.444594 
L 391.012744 193.34287 
L 391.662703 193.241146 
L 397.187355 193.139422 
L 397.512334 193.037698 
L 397.837314 192.630802 
L 398.162293 192.529078 
L 398.487273 192.122182 
L 398.487273 192.122182 
" clip-path="url(#p7fa21603e7)" style="fill: none; stroke: #1f77b4; stroke-width: 1.5; stroke-linecap: square"/>
   </g>
   <g id="line2d_54">
    <path d="M 73.832727 302.085818 
L 75.457625 301.982568 
L 75.782604 301.852166 
L 78.057461 301.823372 
L 78.70742 301.619924 
L 79.682359 301.60907 
L 80.332318 301.381776 
L 82.282195 301.110728 
L 82.932154 300.996872 
L 84.232072 300.888619 
L 84.882031 300.825026 
L 88.131826 300.739494 
L 88.781785 300.682077 
L 93.981458 300.603726 
L 95.931335 300.34578 
L 104.055823 299.774413 
L 105.355741 299.665754 
L 108.605536 299.639204 
L 110.880393 299.53648 
L 112.180311 299.469266 
L 113.805209 299.411035 
L 115.430106 299.303235 
L 116.405045 299.125515 
L 121.929697 299.017358 
L 126.80439 298.825486 
L 130.054185 298.6295 
L 132.654021 298.612308 
L 133.30398 298.50437 
L 137.203735 298.285223 
L 137.853694 298.172176 
L 139.153612 298.096077 
L 142.078428 297.993021 
L 142.728387 297.895325 
L 148.253038 297.452936 
L 148.902998 297.328856 
L 149.877936 297.194978 
L 152.152793 297.097597 
L 154.427649 297.016794 
L 156.377527 296.935017 
L 161.252219 296.840012 
L 164.177035 296.74787 
L 164.826994 296.546201 
L 165.801933 296.457344 
L 168.07679 296.380747 
L 169.376708 296.344238 
L 170.351646 296.261917 
L 171.976544 296.072174 
L 174.90136 295.96115 
L 176.201278 295.92823 
L 177.501196 295.85262 
L 179.776052 295.634779 
L 181.40095 295.528546 
L 182.700868 295.334472 
L 183.350827 295.307906 
L 184.325766 295.040068 
L 185.950663 294.933773 
L 190.175397 294.506134 
L 190.825356 294.257633 
L 191.475315 294.16642 
L 192.775233 294.106563 
L 194.400131 294.028618 
L 195.05009 293.940636 
L 198.299885 293.777197 
L 200.249762 293.704168 
L 201.224701 293.660732 
L 203.499558 293.557847 
L 204.474496 293.495033 
L 207.724292 293.431659 
L 208.69923 293.357178 
L 221.048452 292.726551 
L 222.34837 292.618502 
L 225.923145 292.540744 
L 227.548043 292.305362 
L 231.772776 292.216148 
L 233.072695 292.096613 
L 235.347551 292.040117 
L 237.947387 291.988705 
L 238.597346 291.901262 
L 247.046814 291.82145 
L 248.671712 291.751229 
L 249.321671 291.685864 
L 249.97163 291.583352 
L 252.571466 291.372562 
L 254.196364 291.163088 
L 255.496282 291.129586 
L 257.121179 291.052011 
L 257.771138 290.976795 
L 261.020934 290.895872 
L 261.995872 290.717671 
L 263.29579 290.658205 
L 263.945749 290.565925 
L 264.920688 290.512249 
L 266.870565 290.438245 
L 267.520524 290.270347 
L 270.44534 290.178142 
L 272.720197 290.091093 
L 273.370156 290.029287 
L 276.619951 289.92865 
L 277.26991 289.836545 
L 277.919869 289.806925 
L 278.569828 289.590424 
L 285.394398 289.287048 
L 286.044357 289.262722 
L 286.694316 289.15914 
L 289.944111 289.054574 
L 291.244029 289.009268 
L 297.093661 288.901397 
L 304.56819 288.447267 
L 307.493006 288.338898 
L 308.467944 288.286238 
L 310.742801 288.201097 
L 313.342637 287.894568 
L 316.592432 287.79041 
L 318.54231 287.611114 
L 320.817166 287.509838 
L 321.467125 287.418031 
L 322.442064 287.35703 
L 323.092023 287.197511 
L 326.016839 286.915567 
L 329.266634 286.835245 
L 330.891532 286.539144 
L 331.86647 286.528406 
L 332.516429 286.347327 
L 334.141327 286.179774 
L 334.791286 286.102637 
L 338.041081 285.665608 
L 340.315938 285.12685 
L 340.965897 285.12685 
L 341.290876 285.007316 
L 343.890713 284.924107 
L 344.865651 284.828995 
L 348.115446 284.720838 
L 350.390303 284.562426 
L 353.315119 284.485871 
L 354.290057 284.338339 
L 356.564914 284.20291 
L 359.16475 284.112112 
L 360.789648 284.021097 
L 364.364423 283.923007 
L 368.914136 283.670934 
L 371.513972 283.56605 
L 373.463849 283.425652 
L 374.438788 283.369441 
L 377.688583 283.27778 
L 378.013563 283.153645 
L 378.988501 283.070578 
L 379.63846 282.937775 
L 387.112989 282.371862 
L 390.687764 281.809785 
L 392.962621 281.750091 
L 393.61258 281.64373 
L 398.487273 281.117851 
L 398.487273 281.117851 
" clip-path="url(#p7fa21603e7)" style="fill: none; stroke: #ff7f0e; stroke-width: 1.5; stroke-linecap: square"/>
   </g>
   <g id="patch_9">
    <path d="M 57.6 307.584 
L 57.6 186.624 
" style="fill: none; stroke: #000000; stroke-width: 0.8; stroke-linejoin: miter; stroke-linecap: square"/>
   </g>
   <g id="patch_10">
    <path d="M 414.72 307.584 
L 414.72 186.624 
" style="fill: none; stroke: #000000; stroke-width: 0.8; stroke-linejoin: miter; stroke-linecap: square"/>
   </g>
   <g id="patch_11">
    <path d="M 57.6 307.584 
L 414.72 307.584 
" style="fill: none; stroke: #000000; stroke-width: 0.8; stroke-linejoin: miter; stroke-linecap: square"/>
   </g>
   <g id="patch_12">
    <path d="M 57.6 186.624 
L 414.72 186.624 
" style="fill: none; stroke: #000000; stroke-width: 0.8; stroke-linejoin: miter; stroke-linecap: square"/>
   </g>
  </g>
 </g>
 <defs>
  <clipPath id="p38272f38fe">
   <rect x="57.6" y="41.472" width="357.12" height="120.96"/>
  </clipPath>
  <clipPath id="p7fa21603e7">
   <rect x="57.6" y="186.624" width="357.12" height="120.96"/>
  </clipPath>
 </defs>
</svg>
