<?xml version="1.0" encoding="utf-8" standalone="no"?>
<!DOCTYPE svg PUBLIC "-//W3C//DTD SVG 1.1//EN"
  "http://www.w3.org/Graphics/SVG/1.1/DTD/svg11.dtd">
<svg xmlns:xlink="http://www.w3.org/1999/xlink" width="460.8pt" height="345.6pt" viewBox="0 0 460.8 345.6" xmlns="http://www.w3.org/2000/svg" version="1.1">
 <metadata>
  <rdf:RDF xmlns:dc="http://purl.org/dc/elements/1.1/" xmlns:cc="http://creativecommons.org/ns#" xmlns:rdf="http://www.w3.org/1999/02/22-rdf-syntax-ns#">
   <cc:Work>
    <dc:type rdf:resource="http://purl.org/dc/dcmitype/StillImage"/>
    <dc:date>2021-11-21T13:39:50.670169</dc:date>
    <dc:format>image/svg+xml</dc:format>
    <dc:creator>
     <cc:Agent>
      <dc:title>Matplotlib v3.5.0, https://matplotlib.org/</dc:title>
     </cc:Agent>
    </dc:creator>
   </cc:Work>
  </rdf:RDF>
 </metadata>
 <defs>
  <style type="text/css">*{stroke-linejoin: round; stroke-linecap: butt}</style>
 </defs>
 <g id="figure_1">
  <g id="patch_1">
   <path d="M 0 345.6 
L 460.8 345.6 
L 460.8 0 
L 0 0 
z
" style="fill: #ffffff"/>
  </g>
  <g id="axes_1">
   <g id="patch_2">
    <path d="M 57.6 162.432 
L 414.72 162.432 
L 414.72 41.472 
L 57.6 41.472 
z
" style="fill: #ffffff"/>
   </g>
   <g id="matplotlib.axis_1">
    <g id="xtick_1">
     <g id="line2d_1">
      <path d="M 73.832727 162.432 
L 73.832727 41.472 
" clip-path="url(#p43eea819ba)" style="fill: none; stroke: #b0b0b0; stroke-width: 0.8; stroke-linecap: square"/>
     </g>
     <g id="line2d_2">
      <defs>
       <path id="m0c98e93efc" d="M 0 0 
L 0 3.5 
" style="stroke: #000000; stroke-width: 0.8"/>
      </defs>
      <g>
       <use xlink:href="#m0c98e93efc" x="73.832727" y="162.432" style="stroke: #000000; stroke-width: 0.8"/>
      </g>
     </g>
     <g id="text_1">
      <!-- 0 -->
      <g transform="translate(70.651477 177.030437)scale(0.1 -0.1)">
       <defs>
        <path id="DejaVuSans-30" d="M 2034 4250 
Q 1547 4250 1301 3770 
Q 1056 3291 1056 2328 
Q 1056 1369 1301 889 
Q 1547 409 2034 409 
Q 2525 409 2770 889 
Q 3016 1369 3016 2328 
Q 3016 3291 2770 3770 
Q 2525 4250 2034 4250 
z
M 2034 4750 
Q 2819 4750 3233 4129 
Q 3647 3509 3647 2328 
Q 3647 1150 3233 529 
Q 2819 -91 2034 -91 
Q 1250 -91 836 529 
Q 422 1150 422 2328 
Q 422 3509 836 4129 
Q 1250 4750 2034 4750 
z
" transform="scale(0.015625)"/>
       </defs>
       <use xlink:href="#DejaVuSans-30"/>
      </g>
     </g>
    </g>
    <g id="xtick_2">
     <g id="line2d_3">
      <path d="M 138.828632 162.432 
L 138.828632 41.472 
" clip-path="url(#p43eea819ba)" style="fill: none; stroke: #b0b0b0; stroke-width: 0.8; stroke-linecap: square"/>
     </g>
     <g id="line2d_4">
      <g>
       <use xlink:href="#m0c98e93efc" x="138.828632" y="162.432" style="stroke: #000000; stroke-width: 0.8"/>
      </g>
     </g>
     <g id="text_2">
      <!-- 200 -->
      <g transform="translate(129.284882 177.030437)scale(0.1 -0.1)">
       <defs>
        <path id="DejaVuSans-32" d="M 1228 531 
L 3431 531 
L 3431 0 
L 469 0 
L 469 531 
Q 828 903 1448 1529 
Q 2069 2156 2228 2338 
Q 2531 2678 2651 2914 
Q 2772 3150 2772 3378 
Q 2772 3750 2511 3984 
Q 2250 4219 1831 4219 
Q 1534 4219 1204 4116 
Q 875 4013 500 3803 
L 500 4441 
Q 881 4594 1212 4672 
Q 1544 4750 1819 4750 
Q 2544 4750 2975 4387 
Q 3406 4025 3406 3419 
Q 3406 3131 3298 2873 
Q 3191 2616 2906 2266 
Q 2828 2175 2409 1742 
Q 1991 1309 1228 531 
z
" transform="scale(0.015625)"/>
       </defs>
       <use xlink:href="#DejaVuSans-32"/>
       <use xlink:href="#DejaVuSans-30" x="63.623047"/>
       <use xlink:href="#DejaVuSans-30" x="127.246094"/>
      </g>
     </g>
    </g>
    <g id="xtick_3">
     <g id="line2d_5">
      <path d="M 203.824537 162.432 
L 203.824537 41.472 
" clip-path="url(#p43eea819ba)" style="fill: none; stroke: #b0b0b0; stroke-width: 0.8; stroke-linecap: square"/>
     </g>
     <g id="line2d_6">
      <g>
       <use xlink:href="#m0c98e93efc" x="203.824537" y="162.432" style="stroke: #000000; stroke-width: 0.8"/>
      </g>
     </g>
     <g id="text_3">
      <!-- 400 -->
      <g transform="translate(194.280787 177.030437)scale(0.1 -0.1)">
       <defs>
        <path id="DejaVuSans-34" d="M 2419 4116 
L 825 1625 
L 2419 1625 
L 2419 4116 
z
M 2253 4666 
L 3047 4666 
L 3047 1625 
L 3713 1625 
L 3713 1100 
L 3047 1100 
L 3047 0 
L 2419 0 
L 2419 1100 
L 313 1100 
L 313 1709 
L 2253 4666 
z
" transform="scale(0.015625)"/>
       </defs>
       <use xlink:href="#DejaVuSans-34"/>
       <use xlink:href="#DejaVuSans-30" x="63.623047"/>
       <use xlink:href="#DejaVuSans-30" x="127.246094"/>
      </g>
     </g>
    </g>
    <g id="xtick_4">
     <g id="line2d_7">
      <path d="M 268.820442 162.432 
L 268.820442 41.472 
" clip-path="url(#p43eea819ba)" style="fill: none; stroke: #b0b0b0; stroke-width: 0.8; stroke-linecap: square"/>
     </g>
     <g id="line2d_8">
      <g>
       <use xlink:href="#m0c98e93efc" x="268.820442" y="162.432" style="stroke: #000000; stroke-width: 0.8"/>
      </g>
     </g>
     <g id="text_4">
      <!-- 600 -->
      <g transform="translate(259.276692 177.030437)scale(0.1 -0.1)">
       <defs>
        <path id="DejaVuSans-36" d="M 2113 2584 
Q 1688 2584 1439 2293 
Q 1191 2003 1191 1497 
Q 1191 994 1439 701 
Q 1688 409 2113 409 
Q 2538 409 2786 701 
Q 3034 994 3034 1497 
Q 3034 2003 2786 2293 
Q 2538 2584 2113 2584 
z
M 3366 4563 
L 3366 3988 
Q 3128 4100 2886 4159 
Q 2644 4219 2406 4219 
Q 1781 4219 1451 3797 
Q 1122 3375 1075 2522 
Q 1259 2794 1537 2939 
Q 1816 3084 2150 3084 
Q 2853 3084 3261 2657 
Q 3669 2231 3669 1497 
Q 3669 778 3244 343 
Q 2819 -91 2113 -91 
Q 1303 -91 875 529 
Q 447 1150 447 2328 
Q 447 3434 972 4092 
Q 1497 4750 2381 4750 
Q 2619 4750 2861 4703 
Q 3103 4656 3366 4563 
z
" transform="scale(0.015625)"/>
       </defs>
       <use xlink:href="#DejaVuSans-36"/>
       <use xlink:href="#DejaVuSans-30" x="63.623047"/>
       <use xlink:href="#DejaVuSans-30" x="127.246094"/>
      </g>
     </g>
    </g>
    <g id="xtick_5">
     <g id="line2d_9">
      <path d="M 333.816347 162.432 
L 333.816347 41.472 
" clip-path="url(#p43eea819ba)" style="fill: none; stroke: #b0b0b0; stroke-width: 0.8; stroke-linecap: square"/>
     </g>
     <g id="line2d_10">
      <g>
       <use xlink:href="#m0c98e93efc" x="333.816347" y="162.432" style="stroke: #000000; stroke-width: 0.8"/>
      </g>
     </g>
     <g id="text_5">
      <!-- 800 -->
      <g transform="translate(324.272597 177.030437)scale(0.1 -0.1)">
       <defs>
        <path id="DejaVuSans-38" d="M 2034 2216 
Q 1584 2216 1326 1975 
Q 1069 1734 1069 1313 
Q 1069 891 1326 650 
Q 1584 409 2034 409 
Q 2484 409 2743 651 
Q 3003 894 3003 1313 
Q 3003 1734 2745 1975 
Q 2488 2216 2034 2216 
z
M 1403 2484 
Q 997 2584 770 2862 
Q 544 3141 544 3541 
Q 544 4100 942 4425 
Q 1341 4750 2034 4750 
Q 2731 4750 3128 4425 
Q 3525 4100 3525 3541 
Q 3525 3141 3298 2862 
Q 3072 2584 2669 2484 
Q 3125 2378 3379 2068 
Q 3634 1759 3634 1313 
Q 3634 634 3220 271 
Q 2806 -91 2034 -91 
Q 1263 -91 848 271 
Q 434 634 434 1313 
Q 434 1759 690 2068 
Q 947 2378 1403 2484 
z
M 1172 3481 
Q 1172 3119 1398 2916 
Q 1625 2713 2034 2713 
Q 2441 2713 2670 2916 
Q 2900 3119 2900 3481 
Q 2900 3844 2670 4047 
Q 2441 4250 2034 4250 
Q 1625 4250 1398 4047 
Q 1172 3844 1172 3481 
z
" transform="scale(0.015625)"/>
       </defs>
       <use xlink:href="#DejaVuSans-38"/>
       <use xlink:href="#DejaVuSans-30" x="63.623047"/>
       <use xlink:href="#DejaVuSans-30" x="127.246094"/>
      </g>
     </g>
    </g>
    <g id="xtick_6">
     <g id="line2d_11">
      <path d="M 398.812252 162.432 
L 398.812252 41.472 
" clip-path="url(#p43eea819ba)" style="fill: none; stroke: #b0b0b0; stroke-width: 0.8; stroke-linecap: square"/>
     </g>
     <g id="line2d_12">
      <g>
       <use xlink:href="#m0c98e93efc" x="398.812252" y="162.432" style="stroke: #000000; stroke-width: 0.8"/>
      </g>
     </g>
     <g id="text_6">
      <!-- 1000 -->
      <g transform="translate(386.087252 177.030437)scale(0.1 -0.1)">
       <defs>
        <path id="DejaVuSans-31" d="M 794 531 
L 1825 531 
L 1825 4091 
L 703 3866 
L 703 4441 
L 1819 4666 
L 2450 4666 
L 2450 531 
L 3481 531 
L 3481 0 
L 794 0 
L 794 531 
z
" transform="scale(0.015625)"/>
       </defs>
       <use xlink:href="#DejaVuSans-31"/>
       <use xlink:href="#DejaVuSans-30" x="63.623047"/>
       <use xlink:href="#DejaVuSans-30" x="127.246094"/>
       <use xlink:href="#DejaVuSans-30" x="190.869141"/>
      </g>
     </g>
    </g>
   </g>
   <g id="matplotlib.axis_2">
    <g id="ytick_1">
     <g id="line2d_13">
      <path d="M 57.6 156.933818 
L 414.72 156.933818 
" clip-path="url(#p43eea819ba)" style="fill: none; stroke: #b0b0b0; stroke-width: 0.8; stroke-linecap: square"/>
     </g>
     <g id="line2d_14">
      <defs>
       <path id="m92f32cc674" d="M 0 0 
L -3.5 0 
" style="stroke: #000000; stroke-width: 0.8"/>
      </defs>
      <g>
       <use xlink:href="#m92f32cc674" x="57.6" y="156.933818" style="stroke: #000000; stroke-width: 0.8"/>
      </g>
     </g>
     <g id="text_7">
      <!-- 0 -->
      <g transform="translate(44.2375 160.733037)scale(0.1 -0.1)">
       <use xlink:href="#DejaVuSans-30"/>
      </g>
     </g>
    </g>
    <g id="ytick_2">
     <g id="line2d_15">
      <path d="M 57.6 132.024171 
L 414.72 132.024171 
" clip-path="url(#p43eea819ba)" style="fill: none; stroke: #b0b0b0; stroke-width: 0.8; stroke-linecap: square"/>
     </g>
     <g id="line2d_16">
      <g>
       <use xlink:href="#m92f32cc674" x="57.6" y="132.024171" style="stroke: #000000; stroke-width: 0.8"/>
      </g>
     </g>
     <g id="text_8">
      <!-- 100 -->
      <g transform="translate(31.5125 135.82339)scale(0.1 -0.1)">
       <use xlink:href="#DejaVuSans-31"/>
       <use xlink:href="#DejaVuSans-30" x="63.623047"/>
       <use xlink:href="#DejaVuSans-30" x="127.246094"/>
      </g>
     </g>
    </g>
    <g id="ytick_3">
     <g id="line2d_17">
      <path d="M 57.6 107.114524 
L 414.72 107.114524 
" clip-path="url(#p43eea819ba)" style="fill: none; stroke: #b0b0b0; stroke-width: 0.8; stroke-linecap: square"/>
     </g>
     <g id="line2d_18">
      <g>
       <use xlink:href="#m92f32cc674" x="57.6" y="107.114524" style="stroke: #000000; stroke-width: 0.8"/>
      </g>
     </g>
     <g id="text_9">
      <!-- 200 -->
      <g transform="translate(31.5125 110.913743)scale(0.1 -0.1)">
       <use xlink:href="#DejaVuSans-32"/>
       <use xlink:href="#DejaVuSans-30" x="63.623047"/>
       <use xlink:href="#DejaVuSans-30" x="127.246094"/>
      </g>
     </g>
    </g>
    <g id="ytick_4">
     <g id="line2d_19">
      <path d="M 57.6 82.204877 
L 414.72 82.204877 
" clip-path="url(#p43eea819ba)" style="fill: none; stroke: #b0b0b0; stroke-width: 0.8; stroke-linecap: square"/>
     </g>
     <g id="line2d_20">
      <g>
       <use xlink:href="#m92f32cc674" x="57.6" y="82.204877" style="stroke: #000000; stroke-width: 0.8"/>
      </g>
     </g>
     <g id="text_10">
      <!-- 300 -->
      <g transform="translate(31.5125 86.004096)scale(0.1 -0.1)">
       <defs>
        <path id="DejaVuSans-33" d="M 2597 2516 
Q 3050 2419 3304 2112 
Q 3559 1806 3559 1356 
Q 3559 666 3084 287 
Q 2609 -91 1734 -91 
Q 1441 -91 1130 -33 
Q 819 25 488 141 
L 488 750 
Q 750 597 1062 519 
Q 1375 441 1716 441 
Q 2309 441 2620 675 
Q 2931 909 2931 1356 
Q 2931 1769 2642 2001 
Q 2353 2234 1838 2234 
L 1294 2234 
L 1294 2753 
L 1863 2753 
Q 2328 2753 2575 2939 
Q 2822 3125 2822 3475 
Q 2822 3834 2567 4026 
Q 2313 4219 1838 4219 
Q 1578 4219 1281 4162 
Q 984 4106 628 3988 
L 628 4550 
Q 988 4650 1302 4700 
Q 1616 4750 1894 4750 
Q 2613 4750 3031 4423 
Q 3450 4097 3450 3541 
Q 3450 3153 3228 2886 
Q 3006 2619 2597 2516 
z
" transform="scale(0.015625)"/>
       </defs>
       <use xlink:href="#DejaVuSans-33"/>
       <use xlink:href="#DejaVuSans-30" x="63.623047"/>
       <use xlink:href="#DejaVuSans-30" x="127.246094"/>
      </g>
     </g>
    </g>
    <g id="ytick_5">
     <g id="line2d_21">
      <path d="M 57.6 57.29523 
L 414.72 57.29523 
" clip-path="url(#p43eea819ba)" style="fill: none; stroke: #b0b0b0; stroke-width: 0.8; stroke-linecap: square"/>
     </g>
     <g id="line2d_22">
      <g>
       <use xlink:href="#m92f32cc674" x="57.6" y="57.29523" style="stroke: #000000; stroke-width: 0.8"/>
      </g>
     </g>
     <g id="text_11">
      <!-- 400 -->
      <g transform="translate(31.5125 61.094449)scale(0.1 -0.1)">
       <use xlink:href="#DejaVuSans-34"/>
       <use xlink:href="#DejaVuSans-30" x="63.623047"/>
       <use xlink:href="#DejaVuSans-30" x="127.246094"/>
      </g>
     </g>
    </g>
    <g id="text_12">
     <!-- power [w] -->
     <g transform="translate(25.432812 126.986375)rotate(-90)scale(0.1 -0.1)">
      <defs>
       <path id="DejaVuSans-70" d="M 1159 525 
L 1159 -1331 
L 581 -1331 
L 581 3500 
L 1159 3500 
L 1159 2969 
Q 1341 3281 1617 3432 
Q 1894 3584 2278 3584 
Q 2916 3584 3314 3078 
Q 3713 2572 3713 1747 
Q 3713 922 3314 415 
Q 2916 -91 2278 -91 
Q 1894 -91 1617 61 
Q 1341 213 1159 525 
z
M 3116 1747 
Q 3116 2381 2855 2742 
Q 2594 3103 2138 3103 
Q 1681 3103 1420 2742 
Q 1159 2381 1159 1747 
Q 1159 1113 1420 752 
Q 1681 391 2138 391 
Q 2594 391 2855 752 
Q 3116 1113 3116 1747 
z
" transform="scale(0.015625)"/>
       <path id="DejaVuSans-6f" d="M 1959 3097 
Q 1497 3097 1228 2736 
Q 959 2375 959 1747 
Q 959 1119 1226 758 
Q 1494 397 1959 397 
Q 2419 397 2687 759 
Q 2956 1122 2956 1747 
Q 2956 2369 2687 2733 
Q 2419 3097 1959 3097 
z
M 1959 3584 
Q 2709 3584 3137 3096 
Q 3566 2609 3566 1747 
Q 3566 888 3137 398 
Q 2709 -91 1959 -91 
Q 1206 -91 779 398 
Q 353 888 353 1747 
Q 353 2609 779 3096 
Q 1206 3584 1959 3584 
z
" transform="scale(0.015625)"/>
       <path id="DejaVuSans-77" d="M 269 3500 
L 844 3500 
L 1563 769 
L 2278 3500 
L 2956 3500 
L 3675 769 
L 4391 3500 
L 4966 3500 
L 4050 0 
L 3372 0 
L 2619 2869 
L 1863 0 
L 1184 0 
L 269 3500 
z
" transform="scale(0.015625)"/>
       <path id="DejaVuSans-65" d="M 3597 1894 
L 3597 1613 
L 953 1613 
Q 991 1019 1311 708 
Q 1631 397 2203 397 
Q 2534 397 2845 478 
Q 3156 559 3463 722 
L 3463 178 
Q 3153 47 2828 -22 
Q 2503 -91 2169 -91 
Q 1331 -91 842 396 
Q 353 884 353 1716 
Q 353 2575 817 3079 
Q 1281 3584 2069 3584 
Q 2775 3584 3186 3129 
Q 3597 2675 3597 1894 
z
M 3022 2063 
Q 3016 2534 2758 2815 
Q 2500 3097 2075 3097 
Q 1594 3097 1305 2825 
Q 1016 2553 972 2059 
L 3022 2063 
z
" transform="scale(0.015625)"/>
       <path id="DejaVuSans-72" d="M 2631 2963 
Q 2534 3019 2420 3045 
Q 2306 3072 2169 3072 
Q 1681 3072 1420 2755 
Q 1159 2438 1159 1844 
L 1159 0 
L 581 0 
L 581 3500 
L 1159 3500 
L 1159 2956 
Q 1341 3275 1631 3429 
Q 1922 3584 2338 3584 
Q 2397 3584 2469 3576 
Q 2541 3569 2628 3553 
L 2631 2963 
z
" transform="scale(0.015625)"/>
       <path id="DejaVuSans-20" transform="scale(0.015625)"/>
       <path id="DejaVuSans-5b" d="M 550 4863 
L 1875 4863 
L 1875 4416 
L 1125 4416 
L 1125 -397 
L 1875 -397 
L 1875 -844 
L 550 -844 
L 550 4863 
z
" transform="scale(0.015625)"/>
       <path id="DejaVuSans-5d" d="M 1947 4863 
L 1947 -844 
L 622 -844 
L 622 -397 
L 1369 -397 
L 1369 4416 
L 622 4416 
L 622 4863 
L 1947 4863 
z
" transform="scale(0.015625)"/>
      </defs>
      <use xlink:href="#DejaVuSans-70"/>
      <use xlink:href="#DejaVuSans-6f" x="63.476562"/>
      <use xlink:href="#DejaVuSans-77" x="124.658203"/>
      <use xlink:href="#DejaVuSans-65" x="206.445312"/>
      <use xlink:href="#DejaVuSans-72" x="267.96875"/>
      <use xlink:href="#DejaVuSans-20" x="309.082031"/>
      <use xlink:href="#DejaVuSans-5b" x="340.869141"/>
      <use xlink:href="#DejaVuSans-77" x="379.882812"/>
      <use xlink:href="#DejaVuSans-5d" x="461.669922"/>
     </g>
    </g>
   </g>
   <g id="line2d_23">
    <path d="M 73.832727 156.933818 
L 74.157707 134.941091 
L 74.482686 156.933818 
L 74.807666 134.941091 
L 75.132645 134.941091 
L 75.457625 156.933818 
L 75.782604 134.941091 
L 77.732482 134.941091 
L 78.057461 156.933818 
L 78.382441 134.941091 
L 78.70742 134.941091 
L 79.0324 156.933818 
L 80.007338 156.933818 
L 80.332318 134.941091 
L 80.657297 156.933818 
L 80.982277 134.941091 
L 81.957215 134.941091 
L 82.282195 156.933818 
L 82.607174 134.941091 
L 82.932154 134.941091 
L 83.257133 156.933818 
L 83.582113 134.941091 
L 83.907093 156.933818 
L 84.232072 156.933818 
L 84.557052 134.941091 
L 84.882031 156.933818 
L 85.207011 134.941091 
L 85.53199 156.933818 
L 85.85697 134.941091 
L 86.181949 156.933818 
L 94.306437 156.933818 
L 94.631417 134.941091 
L 94.956396 156.933818 
L 95.931335 156.933818 
L 96.256314 134.941091 
L 96.581294 156.933818 
L 97.556233 156.933818 
L 97.881212 134.941091 
L 98.206192 156.933818 
L 98.531171 134.941091 
L 98.856151 156.933818 
L 101.131007 156.933818 
L 101.455987 134.941091 
L 101.780966 156.933818 
L 109.255495 156.933818 
L 109.580475 134.941091 
L 109.905455 156.933818 
L 110.230434 156.933818 
L 110.555414 134.941091 
L 110.880393 156.933818 
L 111.205373 134.941091 
L 111.530352 90.955636 
L 112.180311 134.941091 
L 112.505291 112.948364 
L 112.83027 112.948364 
L 113.15525 134.941091 
L 113.480229 112.948364 
L 113.805209 134.941091 
L 114.780147 134.941091 
L 115.105127 112.948364 
L 115.755086 112.948364 
L 116.080066 134.941091 
L 116.405045 112.948364 
L 117.055004 156.933818 
L 117.379984 134.941091 
L 118.029943 134.941091 
L 118.354922 112.948364 
L 118.679902 156.933818 
L 119.004881 156.933818 
L 119.329861 134.941091 
L 119.97982 134.941091 
L 120.304799 156.933818 
L 120.954758 156.933818 
L 121.279738 134.941091 
L 121.604717 156.933818 
L 121.929697 112.948364 
L 122.254676 134.941091 
L 122.579656 134.941091 
L 122.904636 156.933818 
L 123.229615 156.933818 
L 123.554595 134.941091 
L 123.879574 134.941091 
L 124.204554 112.948364 
L 124.529533 112.948364 
L 124.854513 134.941091 
L 126.47941 134.941091 
L 126.80439 112.948364 
L 127.129369 134.941091 
L 128.104308 134.941091 
L 128.429287 112.948364 
L 128.754267 112.948364 
L 129.079247 134.941091 
L 129.729206 134.941091 
L 130.054185 112.948364 
L 130.704144 156.933818 
L 131.029124 156.933818 
L 131.354103 134.941091 
L 131.679083 134.941091 
L 132.004062 112.948364 
L 132.329042 112.948364 
L 132.654021 134.941091 
L 132.979001 46.970182 
L 133.30398 112.948364 
L 133.62896 112.948364 
L 133.953939 90.955636 
L 134.928878 156.933818 
L 135.253857 112.948364 
L 135.903817 156.933818 
L 136.228796 134.941091 
L 136.553776 156.933818 
L 136.878755 134.941091 
L 137.203735 156.933818 
L 141.753448 156.933818 
L 142.078428 134.941091 
L 142.403407 156.933818 
L 148.902998 156.933818 
L 149.227977 134.941091 
L 149.552957 156.933818 
L 150.527895 156.933818 
L 150.852875 134.941091 
L 151.177854 134.941091 
L 151.502834 156.933818 
L 151.827813 134.941091 
L 152.152793 156.933818 
L 153.127731 156.933818 
L 153.452711 134.941091 
L 153.77769 156.933818 
L 154.10267 134.941091 
L 154.427649 134.941091 
L 154.752629 156.933818 
L 155.077609 134.941091 
L 158.977363 134.941091 
L 159.302342 156.933818 
L 159.627322 134.941091 
L 160.60226 134.941091 
L 160.92724 156.933818 
L 161.577199 112.948364 
L 161.902179 134.941091 
L 162.227158 134.941091 
L 162.552138 112.948364 
L 162.877117 134.941091 
L 163.202097 112.948364 
L 163.527076 134.941091 
L 164.177035 134.941091 
L 164.502015 112.948364 
L 164.826994 134.941091 
L 165.801933 134.941091 
L 166.126912 156.933818 
L 166.451892 134.941091 
L 166.776871 156.933818 
L 171.976544 156.933818 
L 172.301523 134.941091 
L 172.626503 156.933818 
L 173.276462 156.933818 
L 173.601441 134.941091 
L 173.926421 156.933818 
L 174.2514 134.941091 
L 174.57638 134.941091 
L 174.90136 156.933818 
L 175.226339 134.941091 
L 175.551319 134.941091 
L 175.876298 156.933818 
L 176.201278 156.933818 
L 176.526257 134.941091 
L 176.851237 156.933818 
L 180.426011 156.933818 
L 180.750991 134.941091 
L 181.075971 156.933818 
L 192.775233 156.933818 
L 193.100213 134.941091 
L 193.425192 156.933818 
L 194.075152 156.933818 
L 194.400131 134.941091 
L 194.725111 134.941091 
L 195.05009 156.933818 
L 195.37507 134.941091 
L 195.700049 134.941091 
L 196.025029 156.933818 
L 196.350008 134.941091 
L 196.674988 134.941091 
L 196.999967 156.933818 
L 197.324947 134.941091 
L 197.649926 134.941091 
L 197.974906 156.933818 
L 198.624865 156.933818 
L 198.949844 134.941091 
L 199.274824 156.933818 
L 207.724292 156.933818 
L 208.049271 134.941091 
L 208.374251 156.933818 
L 214.548862 156.933818 
L 214.873841 134.941091 
L 215.198821 156.933818 
L 215.84878 156.933818 
L 216.173759 134.941091 
L 216.498739 134.941091 
L 216.823718 156.933818 
L 217.473677 112.948364 
L 217.798657 134.941091 
L 218.123636 134.941091 
L 218.448616 156.933818 
L 218.773595 156.933818 
L 219.098575 134.941091 
L 219.423554 156.933818 
L 224.298247 156.933818 
L 224.623227 134.941091 
L 224.948206 156.933818 
L 225.273186 134.941091 
L 225.598165 156.933818 
L 225.923145 134.941091 
L 226.248124 156.933818 
L 226.573104 134.941091 
L 226.898084 156.933818 
L 227.548043 156.933818 
L 227.873022 134.941091 
L 228.198002 134.941091 
L 228.522981 156.933818 
L 235.672531 156.933818 
L 235.99751 134.941091 
L 236.32249 134.941091 
L 236.647469 156.933818 
L 236.972449 134.941091 
L 237.947387 134.941091 
L 238.272367 112.948364 
L 238.597346 134.941091 
L 238.922326 112.948364 
L 239.247305 134.941091 
L 239.572285 134.941091 
L 239.897265 156.933818 
L 240.222244 134.941091 
L 240.547224 134.941091 
L 240.872203 156.933818 
L 241.197183 134.941091 
L 241.522162 134.941091 
L 241.847142 156.933818 
L 242.172121 134.941091 
L 242.497101 156.933818 
L 242.82208 134.941091 
L 243.14706 156.933818 
L 243.472039 156.933818 
L 243.797019 134.941091 
L 244.121998 156.933818 
L 244.446978 134.941091 
L 244.771957 156.933818 
L 245.421916 156.933818 
L 245.746896 134.941091 
L 246.071876 156.933818 
L 246.396855 156.933818 
L 246.721835 134.941091 
L 247.046814 156.933818 
L 247.371794 156.933818 
L 247.696773 134.941091 
L 248.021753 156.933818 
L 248.346732 156.933818 
L 248.671712 134.941091 
L 248.996691 156.933818 
L 249.321671 156.933818 
L 249.64665 134.941091 
L 249.97163 156.933818 
L 250.621589 156.933818 
L 250.946568 134.941091 
L 251.271548 156.933818 
L 251.596527 134.941091 
L 251.921507 156.933818 
L 261.995872 156.933818 
L 262.320852 134.941091 
L 262.645831 156.933818 
L 263.29579 156.933818 
L 263.62077 134.941091 
L 263.945749 134.941091 
L 264.270729 156.933818 
L 264.595708 156.933818 
L 264.920688 134.941091 
L 265.245667 156.933818 
L 265.570647 156.933818 
L 265.895627 134.941091 
L 266.220606 156.933818 
L 266.545586 156.933818 
L 266.870565 134.941091 
L 267.195545 156.933818 
L 267.845504 156.933818 
L 268.170483 134.941091 
L 268.495463 156.933818 
L 269.145422 156.933818 
L 269.470401 134.941091 
L 269.795381 134.941091 
L 270.12036 156.933818 
L 270.44534 134.941091 
L 271.095299 134.941091 
L 271.420278 112.948364 
L 271.745258 134.941091 
L 272.070238 112.948364 
L 272.395217 134.941091 
L 272.720197 112.948364 
L 273.045176 156.933818 
L 273.370156 134.941091 
L 274.670074 134.941091 
L 274.995053 112.948364 
L 275.969992 112.948364 
L 276.294971 134.941091 
L 276.619951 112.948364 
L 276.94493 134.941091 
L 277.26991 134.941091 
L 277.594889 156.933818 
L 277.919869 112.948364 
L 278.244848 156.933818 
L 278.569828 134.941091 
L 279.219787 134.941091 
L 279.544767 112.948364 
L 281.819623 112.948364 
L 282.144603 134.941091 
L 282.469582 112.948364 
L 283.444521 112.948364 
L 283.7695 134.941091 
L 284.09448 112.948364 
L 284.419459 112.948364 
L 284.744439 90.955636 
L 285.069419 134.941091 
L 285.394398 112.948364 
L 285.719378 134.941091 
L 286.044357 112.948364 
L 286.694316 156.933818 
L 287.019296 156.933818 
L 287.669255 112.948364 
L 287.994234 134.941091 
L 288.319214 112.948364 
L 288.644193 134.941091 
L 288.969173 112.948364 
L 289.294152 134.941091 
L 290.269091 134.941091 
L 290.59407 112.948364 
L 290.91905 156.933818 
L 291.244029 134.941091 
L 291.569009 156.933818 
L 292.543948 156.933818 
L 292.868927 134.941091 
L 293.193907 156.933818 
L 293.843866 156.933818 
L 294.168845 134.941091 
L 294.493825 156.933818 
L 295.143784 156.933818 
L 295.468763 134.941091 
L 296.443702 134.941091 
L 296.768681 112.948364 
L 297.41864 156.933818 
L 299.043538 156.933818 
L 299.368518 134.941091 
L 299.693497 156.933818 
L 301.643374 156.933818 
L 301.968354 134.941091 
L 302.293333 156.933818 
L 307.168026 156.933818 
L 307.493006 134.941091 
L 307.817985 156.933818 
L 308.142965 156.933818 
L 308.467944 134.941091 
L 308.792924 156.933818 
L 315.292514 156.933818 
L 315.617494 134.941091 
L 315.942473 156.933818 
L 318.867289 156.933818 
L 319.192269 134.941091 
L 319.517248 156.933818 
L 319.842228 156.933818 
L 320.167207 112.948364 
L 320.492187 156.933818 
L 320.817166 112.948364 
L 321.142146 156.933818 
L 322.117084 156.933818 
L 322.767043 112.948364 
L 323.092023 156.933818 
L 325.0419 156.933818 
L 325.691859 112.948364 
L 326.341818 156.933818 
L 326.991777 112.948364 
L 327.316757 134.941091 
L 327.641736 134.941091 
L 327.966716 90.955636 
L 328.291695 90.955636 
L 328.616675 134.941091 
L 329.266634 90.955636 
L 329.591613 90.955636 
L 329.916593 134.941091 
L 330.566552 90.955636 
L 330.891532 156.933818 
L 331.216511 68.962909 
L 331.541491 134.941091 
L 331.86647 134.941091 
L 332.19145 90.955636 
L 332.516429 112.948364 
L 332.841409 112.948364 
L 333.166388 134.941091 
L 334.466306 134.941091 
L 334.791286 112.948364 
L 335.441245 156.933818 
L 335.766224 134.941091 
L 336.091204 134.941091 
L 336.416183 156.933818 
L 336.741163 134.941091 
L 337.066143 156.933818 
L 337.716102 156.933818 
L 338.041081 134.941091 
L 338.366061 156.933818 
L 345.190631 156.933818 
L 345.51561 134.941091 
L 345.84059 156.933818 
L 363.064505 156.933818 
L 363.389484 134.941091 
L 363.714464 156.933818 
L 364.039443 156.933818 
L 364.364423 134.941091 
L 365.339361 134.941091 
L 365.664341 112.948364 
L 365.98932 156.933818 
L 366.3143 112.948364 
L 366.639279 134.941091 
L 366.964259 134.941091 
L 367.289238 112.948364 
L 367.614218 134.941091 
L 367.939197 134.941091 
L 368.264177 112.948364 
L 368.914136 112.948364 
L 369.239115 134.941091 
L 369.564095 112.948364 
L 369.889075 134.941091 
L 370.864013 134.941091 
L 371.188993 156.933818 
L 371.513972 134.941091 
L 371.838952 156.933818 
L 372.488911 156.933818 
L 372.81389 134.941091 
L 373.13887 156.933818 
L 373.788829 156.933818 
L 374.113808 134.941091 
L 374.438788 156.933818 
L 374.763767 134.941091 
L 375.088747 156.933818 
L 381.588337 156.933818 
L 381.913317 134.941091 
L 382.238296 156.933818 
L 391.987682 156.933818 
L 392.312662 134.941091 
L 392.637641 156.933818 
L 392.962621 134.941091 
L 393.2876 134.941091 
L 393.61258 156.933818 
L 393.937559 156.933818 
L 394.262539 134.941091 
L 395.887437 134.941091 
L 396.212416 112.948364 
L 396.537396 156.933818 
L 396.862375 134.941091 
L 397.837314 134.941091 
L 398.162293 112.948364 
L 398.487273 112.948364 
L 398.487273 112.948364 
" clip-path="url(#p43eea819ba)" style="fill: none; stroke: #1f77b4; stroke-width: 1.5; stroke-linecap: square"/>
   </g>
   <g id="line2d_24">
    <path d="M 73.832727 156.933818 
L 75.457625 156.933818 
L 75.782604 139.748335 
L 76.107584 156.933818 
L 76.432563 152.146735 
L 76.757543 153.697222 
L 77.082523 156.933818 
L 77.407502 146.998604 
L 77.732482 147.740858 
L 78.057461 155.865338 
L 78.382441 156.933818 
L 78.70742 156.578269 
L 79.0324 129.133178 
L 79.357379 156.933818 
L 79.682359 152.308015 
L 80.007338 149.296844 
L 80.332318 147.77568 
L 80.657297 147.066415 
L 80.982277 156.933818 
L 81.307256 152.381324 
L 81.632236 156.933818 
L 82.932154 156.933818 
L 83.257133 134.105367 
L 83.582113 156.933818 
L 83.907093 151.267025 
L 84.232072 142.041076 
L 84.557052 151.197382 
L 84.882031 156.933818 
L 85.207011 148.028596 
L 85.53199 143.371636 
L 85.85697 143.175535 
L 86.181949 156.933818 
L 86.506929 153.695389 
L 86.831908 148.451956 
L 87.156888 156.933818 
L 87.806847 156.933818 
L 88.131826 147.449454 
L 88.456806 156.933818 
L 89.106765 156.933818 
L 89.431744 155.962473 
L 89.756724 156.933818 
L 90.731663 156.933818 
L 91.056642 132.05088 
L 91.381622 156.933818 
L 91.706601 144.255011 
L 92.031581 156.933818 
L 92.35656 156.933818 
L 92.68154 149.755025 
L 93.006519 149.782516 
L 93.331499 156.933818 
L 93.981458 156.933818 
L 94.306437 138.936436 
L 94.631417 156.933818 
L 94.956396 148.323665 
L 95.281376 156.933818 
L 95.606355 156.933818 
L 95.931335 139.816145 
L 96.256314 156.933818 
L 96.581294 147.354153 
L 96.906274 154.862836 
L 97.231253 153.955636 
L 97.556233 145.475607 
L 97.881212 146.804334 
L 98.206192 156.576436 
L 98.531171 156.933818 
L 99.50611 156.933818 
L 99.831089 150.363491 
L 100.156069 147.872815 
L 100.481048 156.933818 
L 100.806028 156.933818 
L 101.131007 150.169222 
L 101.455987 150.526604 
L 101.780966 141.078895 
L 102.105946 156.933818 
L 102.430925 153.312349 
L 102.755905 156.933818 
L 103.080885 156.933818 
L 103.405864 155.863505 
L 103.730844 150.006109 
L 104.055823 156.933818 
L 104.380803 149.65056 
L 104.705782 156.933818 
L 105.030762 154.538444 
L 105.355741 156.384 
L 105.680721 156.933818 
L 106.33068 156.933818 
L 106.655659 139.394618 
L 106.980639 156.933818 
L 108.280557 156.933818 
L 108.605536 136.746327 
L 108.930516 150.334167 
L 109.255495 156.933818 
L 109.580475 155.280698 
L 109.905455 151.52544 
L 110.230434 156.933818 
L 110.555414 146.833658 
L 110.880393 156.933818 
L 111.205373 156.933818 
L 111.530352 134.22816 
L 111.855332 156.933818 
L 112.180311 156.933818 
L 112.505291 150.777687 
L 112.83027 156.933818 
L 113.15525 152.932975 
L 113.480229 155.583098 
L 113.805209 155.634415 
L 114.130188 153.951971 
L 114.455168 156.933818 
L 114.780147 156.933818 
L 115.105127 154.422982 
L 115.430106 156.933818 
L 115.755086 154.041775 
L 116.080066 156.933818 
L 117.055004 156.933818 
L 117.379984 145.121891 
L 117.704963 152.953135 
L 118.029943 148.618735 
L 118.354922 151.371491 
L 118.679902 155.903825 
L 119.004881 156.933818 
L 119.329861 151.930473 
L 119.65484 156.933818 
L 119.97982 156.933818 
L 120.304799 149.897978 
L 120.629779 156.933818 
L 121.604717 156.933818 
L 121.929697 152.504116 
L 122.254676 150.121571 
L 122.579656 156.933818 
L 122.904636 156.933818 
L 123.229615 149.890647 
L 123.554595 155.185396 
L 123.879574 138.075055 
L 124.204554 156.933818 
L 124.529533 155.016785 
L 124.854513 140.915782 
L 125.179492 156.933818 
L 127.779328 156.933818 
L 128.104308 140.378793 
L 128.429287 156.933818 
L 128.754267 146.095069 
L 129.079247 146.139055 
L 129.404226 156.933818 
L 129.729206 156.933818 
L 130.054185 156.259375 
L 130.379165 154.384494 
L 130.704144 156.933818 
L 131.029124 156.933818 
L 131.354103 145.33632 
L 132.004062 156.933818 
L 132.329042 154.258036 
L 132.654021 149.951127 
L 132.979001 156.933818 
L 133.30398 148.074415 
L 133.62896 151.276189 
L 133.953939 156.933818 
L 134.278919 156.933818 
L 134.603898 148.074415 
L 134.928878 146.533091 
L 135.253857 156.933818 
L 137.203735 156.933818 
L 137.528714 154.501789 
L 138.178673 151.494284 
L 138.503653 156.933818 
L 138.828632 156.933818 
L 139.478591 144.755345 
L 139.803571 156.933818 
L 140.12855 145.334487 
L 140.45353 156.933818 
L 140.778509 150.968291 
L 141.103489 148.373149 
L 141.428468 156.933818 
L 142.403407 156.933818 
L 142.728387 153.625746 
L 143.053366 154.699724 
L 143.378346 156.933818 
L 143.703325 143.437615 
L 144.028305 154.536611 
L 144.353284 156.933818 
L 144.678264 156.933818 
L 145.003243 152.077091 
L 145.328223 149.683549 
L 145.653202 156.933818 
L 145.978182 156.933818 
L 146.303161 138.875956 
L 146.628141 156.481135 
L 146.95312 156.933818 
L 147.2781 156.933818 
L 147.603079 145.57824 
L 147.928059 156.933818 
L 148.578018 156.933818 
L 148.902998 146.355316 
L 149.227977 156.933818 
L 149.552957 156.933818 
L 149.877936 149.976785 
L 150.202916 156.933818 
L 150.527895 156.933818 
L 151.177854 146.194036 
L 151.502834 156.933818 
L 151.827813 155.027782 
L 152.152793 156.933818 
L 152.802752 156.933818 
L 153.127731 150.336 
L 153.452711 156.933818 
L 153.77769 143.765673 
L 154.10267 149.010938 
L 154.427649 156.933818 
L 154.752629 156.933818 
L 155.077609 148.459287 
L 155.402588 151.107578 
L 155.727568 156.933818 
L 156.377527 156.933818 
L 156.702506 146.44512 
L 157.027486 156.933818 
L 157.352465 156.933818 
L 157.677445 141.753338 
L 158.002424 156.933818 
L 158.327404 156.933818 
L 158.652383 150.752029 
L 158.977363 156.933818 
L 159.302342 150.55776 
L 159.627322 156.933818 
L 159.952301 147.935127 
L 160.277281 150.202211 
L 160.60226 148.129396 
L 160.92724 156.933818 
L 161.252219 149.456291 
L 161.577199 156.933818 
L 161.902179 156.933818 
L 162.227158 138.940102 
L 162.552138 152.434473 
L 162.877117 155.251375 
L 163.202097 156.933818 
L 163.852056 156.933818 
L 164.177035 145.252015 
L 164.502015 141.108218 
L 164.826994 154.668567 
L 165.151974 154.118749 
L 165.476953 156.933818 
L 167.42683 156.933818 
L 167.75181 152.791855 
L 168.07679 145.834822 
L 168.401769 144.896465 
L 168.726749 156.933818 
L 169.701687 156.933818 
L 170.026667 151.690386 
L 170.351646 156.933818 
L 170.676626 153.92448 
L 171.001605 134.572713 
L 171.326585 156.933818 
L 172.301523 156.933818 
L 172.626503 137.35296 
L 172.951482 152.014778 
L 173.276462 156.933818 
L 173.601441 139.750167 
L 173.926421 156.933818 
L 174.57638 156.933818 
L 174.90136 156.127418 
L 175.226339 156.933818 
L 175.876298 152.731374 
L 176.201278 156.933818 
L 176.526257 146.522094 
L 176.851237 156.933818 
L 177.501196 156.933818 
L 177.826175 144.980771 
L 178.151155 147.685876 
L 178.476134 156.933818 
L 178.801114 143.160873 
L 179.126093 151.470458 
L 179.451073 145.810996 
L 179.776052 152.57376 
L 180.101032 156.933818 
L 180.426011 152.601251 
L 180.750991 156.933818 
L 181.075971 156.933818 
L 181.40095 142.083229 
L 181.72593 146.197702 
L 182.050909 156.933818 
L 182.375889 156.933818 
L 182.700868 143.600727 
L 183.025848 143.459607 
L 183.350827 156.933818 
L 183.675807 155.71872 
L 184.000786 153.84384 
L 184.325766 154.534778 
L 184.650745 156.933818 
L 184.975725 156.798196 
L 185.300704 156.933818 
L 185.625684 147.222196 
L 185.950663 156.933818 
L 186.275643 146.996771 
L 186.600622 156.933818 
L 187.250581 149.65056 
L 187.575561 146.285673 
L 187.900541 155.4768 
L 188.22552 156.933818 
L 188.5505 156.772538 
L 188.875479 154.538444 
L 189.200459 156.933818 
L 189.525438 150.204044 
L 189.850418 145.832989 
L 190.175397 153.957469 
L 190.500377 156.933818 
L 191.150336 156.933818 
L 191.475315 149.263855 
L 191.800295 156.739549 
L 192.125274 138.293149 
L 192.450254 156.933818 
L 192.775233 156.933818 
L 193.100213 155.96064 
L 193.425192 153.374662 
L 193.750172 156.933818 
L 194.075152 150.169222 
L 194.400131 156.933818 
L 194.725111 156.933818 
L 195.05009 146.806167 
L 195.37507 156.933818 
L 195.700049 150.686051 
L 196.025029 156.933818 
L 196.350008 156.739549 
L 196.674988 156.933818 
L 197.649926 156.933818 
L 197.974906 137.395113 
L 198.299885 156.933818 
L 198.624865 156.933818 
L 198.949844 154.793193 
L 199.274824 145.147549 
L 199.599803 156.933818 
L 200.249762 156.933818 
L 200.574742 151.796684 
L 200.899722 154.269033 
L 201.224701 125.495215 
L 201.87466 156.32352 
L 202.19964 156.933818 
L 202.849599 156.933818 
L 203.174578 155.247709 
L 203.499558 142.105222 
L 203.824537 156.933818 
L 204.149517 156.933818 
L 204.474496 145.842153 
L 204.799476 156.376669 
L 205.124455 149.406807 
L 205.449435 156.933818 
L 205.774414 154.655738 
L 206.099394 156.933818 
L 206.424373 156.933818 
L 206.749353 149.998778 
L 207.074333 147.181876 
L 207.399312 156.933818 
L 207.724292 156.933818 
L 208.049271 153.620247 
L 208.374251 156.800029 
L 208.69923 156.933818 
L 209.02421 154.138909 
L 209.349189 136.282647 
L 209.674169 148.847825 
L 209.999148 156.933818 
L 211.299066 156.933818 
L 211.624046 133.791971 
L 211.949025 156.933818 
L 212.274005 148.869818 
L 212.598984 155.075433 
L 212.923964 152.645236 
L 213.248943 152.430807 
L 213.573923 156.933818 
L 214.548862 156.933818 
L 214.873841 156.209891 
L 215.198821 156.933818 
L 215.5238 156.933818 
L 216.173759 145.47744 
L 216.498739 156.933818 
L 216.823718 156.933818 
L 217.148698 135.17568 
L 217.473677 151.879156 
L 217.798657 151.301847 
L 218.123636 148.270516 
L 218.448616 156.933818 
L 218.773595 150.770356 
L 219.098575 156.933818 
L 219.423554 156.933818 
L 219.748534 156.235549 
L 220.073514 156.933818 
L 221.048452 156.933818 
L 221.698411 141.170531 
L 222.023391 156.933818 
L 222.67335 156.933818 
L 222.998329 153.951971 
L 223.323309 156.933818 
L 223.648288 148.433629 
L 224.298247 141.839476 
L 224.623227 146.150051 
L 224.948206 153.297687 
L 225.273186 156.933818 
L 225.598165 153.349004 
L 225.923145 152.746036 
L 226.248124 156.933818 
L 226.573104 156.933818 
L 226.898084 145.47744 
L 227.223063 156.933818 
L 228.522981 156.933818 
L 228.847961 154.050938 
L 229.17294 148.589411 
L 229.49792 154.800524 
L 229.822899 156.933818 
L 230.147879 156.933818 
L 230.472858 151.987287 
L 230.797838 156.933818 
L 231.122817 150.343331 
L 231.447797 156.933818 
L 232.097756 156.933818 
L 232.422735 146.820829 
L 232.747715 156.933818 
L 233.397674 156.933818 
L 233.722654 146.459782 
L 234.047633 143.237847 
L 234.372613 156.933818 
L 234.697592 151.472291 
L 235.022572 156.911825 
L 235.347551 155.01312 
L 235.672531 156.933818 
L 235.99751 156.913658 
L 236.32249 150.706211 
L 236.647469 152.047767 
L 236.972449 146.437789 
L 237.297428 148.697542 
L 237.622408 147.953455 
L 237.947387 156.933818 
L 238.272367 156.933818 
L 238.597346 145.136553 
L 238.922326 156.933818 
L 239.572285 137.268655 
L 239.897265 156.933818 
L 240.547224 156.933818 
L 240.872203 147.740858 
L 241.197183 156.933818 
L 241.522162 156.933818 
L 241.847142 155.106589 
L 242.172121 156.933818 
L 242.497101 144.372305 
L 242.82208 143.793164 
L 243.14706 156.16224 
L 243.472039 156.933818 
L 244.121998 156.933818 
L 244.446978 130.773469 
L 244.771957 156.933818 
L 245.421916 156.933818 
L 245.746896 150.726371 
L 246.071876 156.933818 
L 246.396855 156.933818 
L 246.721835 148.270516 
L 247.371794 156.933818 
L 247.696773 156.933818 
L 248.021753 146.118895 
L 248.346732 156.933818 
L 248.671712 129.189993 
L 248.996691 156.266705 
L 249.321671 156.933818 
L 249.64665 140.906618 
L 250.296609 156.933818 
L 250.621589 140.036073 
L 250.946568 156.933818 
L 251.271548 143.809658 
L 251.596527 156.933818 
L 252.246486 156.933818 
L 252.571466 152.43264 
L 252.896446 156.933818 
L 253.871384 156.933818 
L 254.196364 138.17952 
L 254.521343 153.17856 
L 254.846323 151.877324 
L 255.171302 156.933818 
L 255.496282 156.933818 
L 255.821261 155.845178 
L 256.146241 156.933818 
L 256.47122 155.271535 
L 256.7962 156.933818 
L 257.771138 156.933818 
L 258.096118 152.625076 
L 258.421097 156.933818 
L 258.746077 156.933818 
L 259.071057 130.676335 
L 259.396036 143.816989 
L 259.721016 146.800669 
L 260.045995 156.933818 
L 260.370975 156.933818 
L 260.695954 153.349004 
L 261.020934 156.933818 
L 261.345913 155.057105 
L 261.670893 154.886662 
L 261.995872 141.916451 
L 262.320852 147.548422 
L 262.645831 144.900131 
L 262.970811 156.933818 
L 263.62077 156.933818 
L 263.945749 151.448466 
L 264.270729 139.609047 
L 264.595708 152.771694 
L 264.920688 156.933818 
L 265.245667 156.911825 
L 265.570647 149.978618 
L 265.895627 156.933818 
L 266.220606 146.010764 
L 266.545586 156.506793 
L 266.870565 154.652073 
L 267.195545 156.933818 
L 268.170483 156.933818 
L 268.495463 142.41312 
L 268.820442 155.748044 
L 269.145422 155.977135 
L 269.470401 156.933818 
L 270.12036 156.933818 
L 270.44534 150.535767 
L 270.770319 156.187898 
L 271.095299 156.567273 
L 271.420278 142.488262 
L 271.745258 153.735709 
L 272.070238 156.933818 
L 272.395217 150.136233 
L 272.720197 156.933818 
L 273.045176 149.789847 
L 273.370156 156.933818 
L 273.695135 144.346647 
L 274.020115 156.186065 
L 274.345094 156.933818 
L 274.670074 156.933818 
L 274.995053 143.981934 
L 275.320033 156.933818 
L 275.645012 154.708887 
L 275.969992 156.933818 
L 276.294971 149.459956 
L 276.619951 156.933818 
L 276.94493 146.64672 
L 277.26991 156.933818 
L 277.594889 151.532771 
L 277.919869 150.574255 
L 278.244848 153.200553 
L 278.569828 156.933818 
L 278.894808 156.933818 
L 279.219787 153.563433 
L 279.544767 145.4976 
L 279.869746 156.933818 
L 280.194726 144.901964 
L 280.519705 154.309353 
L 280.844685 140.571229 
L 281.169664 151.857164 
L 281.494644 156.933818 
L 282.144603 156.933818 
L 282.469582 151.153396 
L 282.794562 156.933818 
L 283.119541 154.333178 
L 283.444521 156.933818 
L 284.09448 156.933818 
L 284.419459 142.299491 
L 284.744439 156.933818 
L 285.394398 156.933818 
L 285.719378 148.633396 
L 286.044357 156.933818 
L 286.369337 156.933818 
L 286.694316 146.225193 
L 287.019296 156.933818 
L 287.344275 147.502604 
L 287.669255 145.84032 
L 287.994234 156.933818 
L 288.319214 156.933818 
L 288.644193 138.225338 
L 288.969173 156.933818 
L 289.619132 156.933818 
L 289.944111 132.802298 
L 290.269091 156.933818 
L 290.59407 156.933818 
L 290.91905 141.4656 
L 291.244029 151.254196 
L 291.569009 156.933818 
L 291.893989 146.210531 
L 292.218968 150.522938 
L 292.543948 156.728553 
L 292.868927 149.601076 
L 293.193907 145.081571 
L 293.518886 156.933818 
L 294.818804 156.933818 
L 295.143784 155.277033 
L 295.468763 156.933818 
L 295.793743 153.576262 
L 296.118722 156.933818 
L 296.443702 144.797498 
L 296.768681 156.933818 
L 297.093661 143.846313 
L 297.41864 156.933818 
L 298.0686 156.933818 
L 298.393579 147.949789 
L 298.718559 156.933818 
L 299.043538 136.493411 
L 299.693497 156.933818 
L 300.018477 147.951622 
L 300.343456 156.933818 
L 300.668436 156.933818 
L 300.993415 150.816175 
L 301.318395 156.933818 
L 301.643374 151.234036 
L 301.968354 156.933818 
L 302.293333 143.151709 
L 302.618313 154.058269 
L 302.943292 147.465949 
L 303.268272 156.933818 
L 303.593251 148.186211 
L 303.918231 156.933818 
L 304.24321 153.596422 
L 304.56819 155.146909 
L 304.89317 147.25152 
L 305.218149 156.933818 
L 305.543129 154.214051 
L 305.868108 148.389644 
L 306.193088 156.933818 
L 306.843047 156.933818 
L 307.168026 138.694516 
L 307.493006 133.777309 
L 307.817985 140.858967 
L 308.142965 144.770007 
L 308.467944 156.933818 
L 308.792924 156.933818 
L 309.117903 138.830138 
L 309.442883 146.729193 
L 309.767862 146.927127 
L 310.092842 156.933818 
L 310.742801 156.933818 
L 311.067781 150.099578 
L 311.39276 147.63456 
L 311.71774 147.288174 
L 312.042719 156.933818 
L 314.317576 156.933818 
L 314.642555 147.205702 
L 314.967535 156.933818 
L 315.292514 146.564247 
L 315.617494 156.933818 
L 315.942473 156.933818 
L 316.267453 153.132742 
L 316.592432 156.933818 
L 316.917412 156.933818 
L 317.242391 142.317818 
L 317.567371 156.933818 
L 317.892351 150.764858 
L 318.21733 146.960116 
L 318.54231 140.047069 
L 318.867289 150.660393 
L 319.192269 152.293353 
L 319.517248 156.933818 
L 319.842228 156.933818 
L 320.167207 149.678051 
L 320.492187 156.933818 
L 320.817166 150.909644 
L 321.142146 156.933818 
L 321.467125 155.057105 
L 321.792105 156.933818 
L 322.442064 156.933818 
L 322.767043 152.786356 
L 323.092023 156.933818 
L 323.417002 156.933818 
L 323.741982 155.161571 
L 324.066962 146.322327 
L 324.391941 156.933818 
L 324.716921 138.120873 
L 325.0419 151.107578 
L 325.36688 139.455098 
L 325.691859 156.933818 
L 327.641736 156.933818 
L 328.291695 133.572044 
L 328.616675 146.797004 
L 328.941654 149.520436 
L 329.266634 150.605411 
L 329.591613 149.322502 
L 329.916593 156.933818 
L 330.241572 155.308189 
L 330.566552 146.813498 
L 330.891532 141.423447 
L 331.216511 154.463302 
L 331.541491 156.933818 
L 331.86647 156.933818 
L 332.19145 143.096727 
L 332.841409 136.493411 
L 333.491368 156.933818 
L 333.816347 150.61824 
L 334.141327 156.933818 
L 334.466306 148.490444 
L 334.791286 156.933818 
L 335.116265 146.164713 
L 335.441245 156.933818 
L 335.766224 156.933818 
L 336.091204 138.516742 
L 336.416183 156.933818 
L 336.741163 148.791011 
L 337.066143 151.012276 
L 337.391122 156.933818 
L 337.716102 151.554764 
L 338.041081 155.848844 
L 338.366061 140.789324 
L 338.69104 156.933818 
L 339.01602 154.910487 
L 339.340999 156.933818 
L 339.665979 155.650909 
L 339.990958 156.933818 
L 340.315938 151.503447 
L 340.640917 148.398807 
L 340.965897 156.933818 
L 341.940835 147.751855 
L 342.265815 154.426647 
L 342.590794 146.813498 
L 343.240753 156.933818 
L 343.565733 156.933818 
L 343.890713 151.935971 
L 344.215692 156.933818 
L 345.51561 156.933818 
L 345.84059 152.810182 
L 346.165569 156.933818 
L 346.490549 149.379316 
L 346.815528 153.27936 
L 347.140508 141.826647 
L 347.790467 156.933818 
L 348.765405 156.933818 
L 349.090385 149.219869 
L 349.415364 138.639535 
L 349.740344 156.933818 
L 350.065324 144.605062 
L 350.390303 156.933818 
L 350.715283 144.003927 
L 351.365242 156.933818 
L 351.690221 156.933818 
L 352.015201 140.587724 
L 352.34018 156.933818 
L 352.990139 156.933818 
L 353.640098 143.016087 
L 353.965078 156.933818 
L 357.864832 156.933818 
L 358.514791 148.737862 
L 358.839771 156.933818 
L 359.814709 156.933818 
L 360.139689 146.496436 
L 360.464668 156.933818 
L 360.789648 156.933818 
L 361.114627 140.03424 
L 361.439607 137.589382 
L 361.764586 156.933818 
L 362.089566 142.435113 
L 362.414545 149.406807 
L 362.739525 147.911302 
L 363.064505 142.217018 
L 363.389484 156.933818 
L 363.714464 146.32416 
L 364.039443 156.933818 
L 364.364423 154.452305 
L 364.689402 148.2192 
L 365.014382 148.164218 
L 365.339361 156.933818 
L 367.289238 156.933818 
L 367.614218 141.603054 
L 367.939197 137.499578 
L 368.264177 156.933818 
L 368.589156 156.933818 
L 368.914136 144.392465 
L 369.564095 149.742196 
L 369.889075 146.855651 
L 370.214054 148.404305 
L 370.539034 155.300858 
L 370.864013 156.933818 
L 371.188993 156.933818 
L 371.838952 139.71168 
L 372.163931 156.933818 
L 372.488911 152.044102 
L 372.81389 156.933818 
L 373.13887 156.933818 
L 373.463849 147.366982 
L 373.788829 156.933818 
L 374.113808 144.225687 
L 374.438788 153.951971 
L 374.763767 156.933818 
L 376.063686 156.933818 
L 376.388665 153.785193 
L 376.713645 147.960785 
L 377.038624 156.933818 
L 377.688583 156.933818 
L 378.013563 154.217716 
L 378.338542 156.933818 
L 378.988501 156.933818 
L 379.313481 150.400146 
L 379.63846 156.933818 
L 379.96344 156.933818 
L 380.288419 146.159215 
L 380.613399 156.933818 
L 380.938378 156.933818 
L 381.263358 150.348829 
L 381.588337 156.933818 
L 381.913317 156.933818 
L 382.238296 150.352494 
L 382.888256 143.906793 
L 383.213235 156.915491 
L 383.538215 156.933818 
L 383.863194 147.214865 
L 384.188174 156.933818 
L 384.513153 147.409135 
L 384.838133 156.933818 
L 385.163112 149.311505 
L 385.488092 156.933818 
L 385.813071 156.933818 
L 386.138051 153.708218 
L 386.46303 154.030778 
L 386.78801 156.933818 
L 387.112989 144.047913 
L 387.437969 156.933818 
L 387.762948 156.933818 
L 388.087928 156.537949 
L 388.412907 145.409629 
L 388.737887 156.933818 
L 390.362785 156.933818 
L 390.687764 143.862807 
L 391.012744 136.88928 
L 391.337723 141.665367 
L 391.662703 156.933818 
L 391.987682 155.258705 
L 392.637641 138.080553 
L 392.962621 153.497454 
L 393.2876 156.933818 
L 393.61258 152.612247 
L 393.937559 141.68736 
L 394.262539 156.933818 
L 394.587518 156.933818 
L 394.912498 156.818356 
L 395.237477 154.151738 
L 395.562457 146.917964 
L 395.887437 156.933818 
L 396.212416 156.933818 
L 396.537396 139.761164 
L 396.862375 156.933818 
L 397.512334 156.933818 
L 397.837314 146.316829 
L 398.487273 156.933818 
L 398.487273 156.933818 
" clip-path="url(#p43eea819ba)" style="fill: none; stroke: #ff7f0e; stroke-width: 1.5; stroke-linecap: square"/>
   </g>
   <g id="patch_3">
    <path d="M 57.6 162.432 
L 57.6 41.472 
" style="fill: none; stroke: #000000; stroke-width: 0.8; stroke-linejoin: miter; stroke-linecap: square"/>
   </g>
   <g id="patch_4">
    <path d="M 414.72 162.432 
L 414.72 41.472 
" style="fill: none; stroke: #000000; stroke-width: 0.8; stroke-linejoin: miter; stroke-linecap: square"/>
   </g>
   <g id="patch_5">
    <path d="M 57.6 162.432 
L 414.72 162.432 
" style="fill: none; stroke: #000000; stroke-width: 0.8; stroke-linejoin: miter; stroke-linecap: square"/>
   </g>
   <g id="patch_6">
    <path d="M 57.6 41.472 
L 414.72 41.472 
" style="fill: none; stroke: #000000; stroke-width: 0.8; stroke-linejoin: miter; stroke-linecap: square"/>
   </g>
   <g id="legend_1">
    <g id="patch_7">
     <path d="M 334.195 78.82825 
L 407.72 78.82825 
Q 409.72 78.82825 409.72 76.82825 
L 409.72 48.472 
Q 409.72 46.472 407.72 46.472 
L 334.195 46.472 
Q 332.195 46.472 332.195 48.472 
L 332.195 76.82825 
Q 332.195 78.82825 334.195 78.82825 
z
" style="fill: #ffffff; opacity: 0.8; stroke: #cccccc; stroke-linejoin: miter"/>
    </g>
    <g id="line2d_25">
     <path d="M 336.195 54.570437 
L 346.195 54.570437 
L 356.195 54.570437 
" style="fill: none; stroke: #1f77b4; stroke-width: 1.5; stroke-linecap: square"/>
    </g>
    <g id="text_13">
     <!-- gps -->
     <g transform="translate(364.195 58.070437)scale(0.1 -0.1)">
      <defs>
       <path id="DejaVuSans-67" d="M 2906 1791 
Q 2906 2416 2648 2759 
Q 2391 3103 1925 3103 
Q 1463 3103 1205 2759 
Q 947 2416 947 1791 
Q 947 1169 1205 825 
Q 1463 481 1925 481 
Q 2391 481 2648 825 
Q 2906 1169 2906 1791 
z
M 3481 434 
Q 3481 -459 3084 -895 
Q 2688 -1331 1869 -1331 
Q 1566 -1331 1297 -1286 
Q 1028 -1241 775 -1147 
L 775 -588 
Q 1028 -725 1275 -790 
Q 1522 -856 1778 -856 
Q 2344 -856 2625 -561 
Q 2906 -266 2906 331 
L 2906 616 
Q 2728 306 2450 153 
Q 2172 0 1784 0 
Q 1141 0 747 490 
Q 353 981 353 1791 
Q 353 2603 747 3093 
Q 1141 3584 1784 3584 
Q 2172 3584 2450 3431 
Q 2728 3278 2906 2969 
L 2906 3500 
L 3481 3500 
L 3481 434 
z
" transform="scale(0.015625)"/>
       <path id="DejaVuSans-73" d="M 2834 3397 
L 2834 2853 
Q 2591 2978 2328 3040 
Q 2066 3103 1784 3103 
Q 1356 3103 1142 2972 
Q 928 2841 928 2578 
Q 928 2378 1081 2264 
Q 1234 2150 1697 2047 
L 1894 2003 
Q 2506 1872 2764 1633 
Q 3022 1394 3022 966 
Q 3022 478 2636 193 
Q 2250 -91 1575 -91 
Q 1294 -91 989 -36 
Q 684 19 347 128 
L 347 722 
Q 666 556 975 473 
Q 1284 391 1588 391 
Q 1994 391 2212 530 
Q 2431 669 2431 922 
Q 2431 1156 2273 1281 
Q 2116 1406 1581 1522 
L 1381 1569 
Q 847 1681 609 1914 
Q 372 2147 372 2553 
Q 372 3047 722 3315 
Q 1072 3584 1716 3584 
Q 2034 3584 2315 3537 
Q 2597 3491 2834 3397 
z
" transform="scale(0.015625)"/>
      </defs>
      <use xlink:href="#DejaVuSans-67"/>
      <use xlink:href="#DejaVuSans-70" x="63.476562"/>
      <use xlink:href="#DejaVuSans-73" x="126.953125"/>
     </g>
    </g>
    <g id="line2d_26">
     <path d="M 336.195 69.248562 
L 346.195 69.248562 
L 356.195 69.248562 
" style="fill: none; stroke: #ff7f0e; stroke-width: 1.5; stroke-linecap: square"/>
    </g>
    <g id="text_14">
     <!-- bmp280 -->
     <g transform="translate(364.195 72.748562)scale(0.1 -0.1)">
      <defs>
       <path id="DejaVuSans-62" d="M 3116 1747 
Q 3116 2381 2855 2742 
Q 2594 3103 2138 3103 
Q 1681 3103 1420 2742 
Q 1159 2381 1159 1747 
Q 1159 1113 1420 752 
Q 1681 391 2138 391 
Q 2594 391 2855 752 
Q 3116 1113 3116 1747 
z
M 1159 2969 
Q 1341 3281 1617 3432 
Q 1894 3584 2278 3584 
Q 2916 3584 3314 3078 
Q 3713 2572 3713 1747 
Q 3713 922 3314 415 
Q 2916 -91 2278 -91 
Q 1894 -91 1617 61 
Q 1341 213 1159 525 
L 1159 0 
L 581 0 
L 581 4863 
L 1159 4863 
L 1159 2969 
z
" transform="scale(0.015625)"/>
       <path id="DejaVuSans-6d" d="M 3328 2828 
Q 3544 3216 3844 3400 
Q 4144 3584 4550 3584 
Q 5097 3584 5394 3201 
Q 5691 2819 5691 2113 
L 5691 0 
L 5113 0 
L 5113 2094 
Q 5113 2597 4934 2840 
Q 4756 3084 4391 3084 
Q 3944 3084 3684 2787 
Q 3425 2491 3425 1978 
L 3425 0 
L 2847 0 
L 2847 2094 
Q 2847 2600 2669 2842 
Q 2491 3084 2119 3084 
Q 1678 3084 1418 2786 
Q 1159 2488 1159 1978 
L 1159 0 
L 581 0 
L 581 3500 
L 1159 3500 
L 1159 2956 
Q 1356 3278 1631 3431 
Q 1906 3584 2284 3584 
Q 2666 3584 2933 3390 
Q 3200 3197 3328 2828 
z
" transform="scale(0.015625)"/>
      </defs>
      <use xlink:href="#DejaVuSans-62"/>
      <use xlink:href="#DejaVuSans-6d" x="63.476562"/>
      <use xlink:href="#DejaVuSans-70" x="160.888672"/>
      <use xlink:href="#DejaVuSans-32" x="224.365234"/>
      <use xlink:href="#DejaVuSans-38" x="287.988281"/>
      <use xlink:href="#DejaVuSans-30" x="351.611328"/>
     </g>
    </g>
   </g>
  </g>
  <g id="axes_2">
   <g id="patch_8">
    <path d="M 57.6 307.584 
L 414.72 307.584 
L 414.72 186.624 
L 57.6 186.624 
z
" style="fill: #ffffff"/>
   </g>
   <g id="matplotlib.axis_3">
    <g id="xtick_7">
     <g id="line2d_27">
      <path d="M 73.832727 307.584 
L 73.832727 186.624 
" clip-path="url(#p3182dcf1f4)" style="fill: none; stroke: #b0b0b0; stroke-width: 0.8; stroke-linecap: square"/>
     </g>
     <g id="line2d_28">
      <g>
       <use xlink:href="#m0c98e93efc" x="73.832727" y="307.584" style="stroke: #000000; stroke-width: 0.8"/>
      </g>
     </g>
     <g id="text_15">
      <!-- 0 -->
      <g transform="translate(70.651477 322.182437)scale(0.1 -0.1)">
       <use xlink:href="#DejaVuSans-30"/>
      </g>
     </g>
    </g>
    <g id="xtick_8">
     <g id="line2d_29">
      <path d="M 138.828632 307.584 
L 138.828632 186.624 
" clip-path="url(#p3182dcf1f4)" style="fill: none; stroke: #b0b0b0; stroke-width: 0.8; stroke-linecap: square"/>
     </g>
     <g id="line2d_30">
      <g>
       <use xlink:href="#m0c98e93efc" x="138.828632" y="307.584" style="stroke: #000000; stroke-width: 0.8"/>
      </g>
     </g>
     <g id="text_16">
      <!-- 200 -->
      <g transform="translate(129.284882 322.182437)scale(0.1 -0.1)">
       <use xlink:href="#DejaVuSans-32"/>
       <use xlink:href="#DejaVuSans-30" x="63.623047"/>
       <use xlink:href="#DejaVuSans-30" x="127.246094"/>
      </g>
     </g>
    </g>
    <g id="xtick_9">
     <g id="line2d_31">
      <path d="M 203.824537 307.584 
L 203.824537 186.624 
" clip-path="url(#p3182dcf1f4)" style="fill: none; stroke: #b0b0b0; stroke-width: 0.8; stroke-linecap: square"/>
     </g>
     <g id="line2d_32">
      <g>
       <use xlink:href="#m0c98e93efc" x="203.824537" y="307.584" style="stroke: #000000; stroke-width: 0.8"/>
      </g>
     </g>
     <g id="text_17">
      <!-- 400 -->
      <g transform="translate(194.280787 322.182437)scale(0.1 -0.1)">
       <use xlink:href="#DejaVuSans-34"/>
       <use xlink:href="#DejaVuSans-30" x="63.623047"/>
       <use xlink:href="#DejaVuSans-30" x="127.246094"/>
      </g>
     </g>
    </g>
    <g id="xtick_10">
     <g id="line2d_33">
      <path d="M 268.820442 307.584 
L 268.820442 186.624 
" clip-path="url(#p3182dcf1f4)" style="fill: none; stroke: #b0b0b0; stroke-width: 0.8; stroke-linecap: square"/>
     </g>
     <g id="line2d_34">
      <g>
       <use xlink:href="#m0c98e93efc" x="268.820442" y="307.584" style="stroke: #000000; stroke-width: 0.8"/>
      </g>
     </g>
     <g id="text_18">
      <!-- 600 -->
      <g transform="translate(259.276692 322.182437)scale(0.1 -0.1)">
       <use xlink:href="#DejaVuSans-36"/>
       <use xlink:href="#DejaVuSans-30" x="63.623047"/>
       <use xlink:href="#DejaVuSans-30" x="127.246094"/>
      </g>
     </g>
    </g>
    <g id="xtick_11">
     <g id="line2d_35">
      <path d="M 333.816347 307.584 
L 333.816347 186.624 
" clip-path="url(#p3182dcf1f4)" style="fill: none; stroke: #b0b0b0; stroke-width: 0.8; stroke-linecap: square"/>
     </g>
     <g id="line2d_36">
      <g>
       <use xlink:href="#m0c98e93efc" x="333.816347" y="307.584" style="stroke: #000000; stroke-width: 0.8"/>
      </g>
     </g>
     <g id="text_19">
      <!-- 800 -->
      <g transform="translate(324.272597 322.182437)scale(0.1 -0.1)">
       <use xlink:href="#DejaVuSans-38"/>
       <use xlink:href="#DejaVuSans-30" x="63.623047"/>
       <use xlink:href="#DejaVuSans-30" x="127.246094"/>
      </g>
     </g>
    </g>
    <g id="xtick_12">
     <g id="line2d_37">
      <path d="M 398.812252 307.584 
L 398.812252 186.624 
" clip-path="url(#p3182dcf1f4)" style="fill: none; stroke: #b0b0b0; stroke-width: 0.8; stroke-linecap: square"/>
     </g>
     <g id="line2d_38">
      <g>
       <use xlink:href="#m0c98e93efc" x="398.812252" y="307.584" style="stroke: #000000; stroke-width: 0.8"/>
      </g>
     </g>
     <g id="text_20">
      <!-- 1000 -->
      <g transform="translate(386.087252 322.182437)scale(0.1 -0.1)">
       <use xlink:href="#DejaVuSans-31"/>
       <use xlink:href="#DejaVuSans-30" x="63.623047"/>
       <use xlink:href="#DejaVuSans-30" x="127.246094"/>
       <use xlink:href="#DejaVuSans-30" x="190.869141"/>
      </g>
     </g>
    </g>
    <g id="text_21">
     <!-- time [s] -->
     <g transform="translate(216.768594 335.860562)scale(0.1 -0.1)">
      <defs>
       <path id="DejaVuSans-74" d="M 1172 4494 
L 1172 3500 
L 2356 3500 
L 2356 3053 
L 1172 3053 
L 1172 1153 
Q 1172 725 1289 603 
Q 1406 481 1766 481 
L 2356 481 
L 2356 0 
L 1766 0 
Q 1100 0 847 248 
Q 594 497 594 1153 
L 594 3053 
L 172 3053 
L 172 3500 
L 594 3500 
L 594 4494 
L 1172 4494 
z
" transform="scale(0.015625)"/>
       <path id="DejaVuSans-69" d="M 603 3500 
L 1178 3500 
L 1178 0 
L 603 0 
L 603 3500 
z
M 603 4863 
L 1178 4863 
L 1178 4134 
L 603 4134 
L 603 4863 
z
" transform="scale(0.015625)"/>
      </defs>
      <use xlink:href="#DejaVuSans-74"/>
      <use xlink:href="#DejaVuSans-69" x="39.208984"/>
      <use xlink:href="#DejaVuSans-6d" x="66.992188"/>
      <use xlink:href="#DejaVuSans-65" x="164.404297"/>
      <use xlink:href="#DejaVuSans-20" x="225.927734"/>
      <use xlink:href="#DejaVuSans-5b" x="257.714844"/>
      <use xlink:href="#DejaVuSans-73" x="296.728516"/>
      <use xlink:href="#DejaVuSans-5d" x="348.828125"/>
     </g>
    </g>
   </g>
   <g id="matplotlib.axis_4">
    <g id="ytick_6">
     <g id="line2d_39">
      <path d="M 57.6 302.085818 
L 414.72 302.085818 
" clip-path="url(#p3182dcf1f4)" style="fill: none; stroke: #b0b0b0; stroke-width: 0.8; stroke-linecap: square"/>
     </g>
     <g id="line2d_40">
      <g>
       <use xlink:href="#m92f32cc674" x="57.6" y="302.085818" style="stroke: #000000; stroke-width: 0.8"/>
      </g>
     </g>
     <g id="text_22">
      <!-- 0.0 -->
      <g transform="translate(34.696875 305.885037)scale(0.1 -0.1)">
       <defs>
        <path id="DejaVuSans-2e" d="M 684 794 
L 1344 794 
L 1344 0 
L 684 0 
L 684 794 
z
" transform="scale(0.015625)"/>
       </defs>
       <use xlink:href="#DejaVuSans-30"/>
       <use xlink:href="#DejaVuSans-2e" x="63.623047"/>
       <use xlink:href="#DejaVuSans-30" x="95.410156"/>
      </g>
     </g>
    </g>
    <g id="ytick_7">
     <g id="line2d_41">
      <path d="M 57.6 277.823175 
L 414.72 277.823175 
" clip-path="url(#p3182dcf1f4)" style="fill: none; stroke: #b0b0b0; stroke-width: 0.8; stroke-linecap: square"/>
     </g>
     <g id="line2d_42">
      <g>
       <use xlink:href="#m92f32cc674" x="57.6" y="277.823175" style="stroke: #000000; stroke-width: 0.8"/>
      </g>
     </g>
     <g id="text_23">
      <!-- 2.5 -->
      <g transform="translate(34.696875 281.622394)scale(0.1 -0.1)">
       <defs>
        <path id="DejaVuSans-35" d="M 691 4666 
L 3169 4666 
L 3169 4134 
L 1269 4134 
L 1269 2991 
Q 1406 3038 1543 3061 
Q 1681 3084 1819 3084 
Q 2600 3084 3056 2656 
Q 3513 2228 3513 1497 
Q 3513 744 3044 326 
Q 2575 -91 1722 -91 
Q 1428 -91 1123 -41 
Q 819 9 494 109 
L 494 744 
Q 775 591 1075 516 
Q 1375 441 1709 441 
Q 2250 441 2565 725 
Q 2881 1009 2881 1497 
Q 2881 1984 2565 2268 
Q 2250 2553 1709 2553 
Q 1456 2553 1204 2497 
Q 953 2441 691 2322 
L 691 4666 
z
" transform="scale(0.015625)"/>
       </defs>
       <use xlink:href="#DejaVuSans-32"/>
       <use xlink:href="#DejaVuSans-2e" x="63.623047"/>
       <use xlink:href="#DejaVuSans-35" x="95.410156"/>
      </g>
     </g>
    </g>
    <g id="ytick_8">
     <g id="line2d_43">
      <path d="M 57.6 253.560532 
L 414.72 253.560532 
" clip-path="url(#p3182dcf1f4)" style="fill: none; stroke: #b0b0b0; stroke-width: 0.8; stroke-linecap: square"/>
     </g>
     <g id="line2d_44">
      <g>
       <use xlink:href="#m92f32cc674" x="57.6" y="253.560532" style="stroke: #000000; stroke-width: 0.8"/>
      </g>
     </g>
     <g id="text_24">
      <!-- 5.0 -->
      <g transform="translate(34.696875 257.359751)scale(0.1 -0.1)">
       <use xlink:href="#DejaVuSans-35"/>
       <use xlink:href="#DejaVuSans-2e" x="63.623047"/>
       <use xlink:href="#DejaVuSans-30" x="95.410156"/>
      </g>
     </g>
    </g>
    <g id="ytick_9">
     <g id="line2d_45">
      <path d="M 57.6 229.297889 
L 414.72 229.297889 
" clip-path="url(#p3182dcf1f4)" style="fill: none; stroke: #b0b0b0; stroke-width: 0.8; stroke-linecap: square"/>
     </g>
     <g id="line2d_46">
      <g>
       <use xlink:href="#m92f32cc674" x="57.6" y="229.297889" style="stroke: #000000; stroke-width: 0.8"/>
      </g>
     </g>
     <g id="text_25">
      <!-- 7.5 -->
      <g transform="translate(34.696875 233.097108)scale(0.1 -0.1)">
       <defs>
        <path id="DejaVuSans-37" d="M 525 4666 
L 3525 4666 
L 3525 4397 
L 1831 0 
L 1172 0 
L 2766 4134 
L 525 4134 
L 525 4666 
z
" transform="scale(0.015625)"/>
       </defs>
       <use xlink:href="#DejaVuSans-37"/>
       <use xlink:href="#DejaVuSans-2e" x="63.623047"/>
       <use xlink:href="#DejaVuSans-35" x="95.410156"/>
      </g>
     </g>
    </g>
    <g id="ytick_10">
     <g id="line2d_47">
      <path d="M 57.6 205.035246 
L 414.72 205.035246 
" clip-path="url(#p3182dcf1f4)" style="fill: none; stroke: #b0b0b0; stroke-width: 0.8; stroke-linecap: square"/>
     </g>
     <g id="line2d_48">
      <g>
       <use xlink:href="#m92f32cc674" x="57.6" y="205.035246" style="stroke: #000000; stroke-width: 0.8"/>
      </g>
     </g>
     <g id="text_26">
      <!-- 10.0 -->
      <g transform="translate(28.334375 208.834464)scale(0.1 -0.1)">
       <use xlink:href="#DejaVuSans-31"/>
       <use xlink:href="#DejaVuSans-30" x="63.623047"/>
       <use xlink:href="#DejaVuSans-2e" x="127.246094"/>
       <use xlink:href="#DejaVuSans-30" x="159.033203"/>
      </g>
     </g>
    </g>
    <g id="text_27">
     <!-- energy [wh] -->
     <g transform="translate(22.254687 277.275875)rotate(-90)scale(0.1 -0.1)">
      <defs>
       <path id="DejaVuSans-6e" d="M 3513 2113 
L 3513 0 
L 2938 0 
L 2938 2094 
Q 2938 2591 2744 2837 
Q 2550 3084 2163 3084 
Q 1697 3084 1428 2787 
Q 1159 2491 1159 1978 
L 1159 0 
L 581 0 
L 581 3500 
L 1159 3500 
L 1159 2956 
Q 1366 3272 1645 3428 
Q 1925 3584 2291 3584 
Q 2894 3584 3203 3211 
Q 3513 2838 3513 2113 
z
" transform="scale(0.015625)"/>
       <path id="DejaVuSans-79" d="M 2059 -325 
Q 1816 -950 1584 -1140 
Q 1353 -1331 966 -1331 
L 506 -1331 
L 506 -850 
L 844 -850 
Q 1081 -850 1212 -737 
Q 1344 -625 1503 -206 
L 1606 56 
L 191 3500 
L 800 3500 
L 1894 763 
L 2988 3500 
L 3597 3500 
L 2059 -325 
z
" transform="scale(0.015625)"/>
       <path id="DejaVuSans-68" d="M 3513 2113 
L 3513 0 
L 2938 0 
L 2938 2094 
Q 2938 2591 2744 2837 
Q 2550 3084 2163 3084 
Q 1697 3084 1428 2787 
Q 1159 2491 1159 1978 
L 1159 0 
L 581 0 
L 581 4863 
L 1159 4863 
L 1159 2956 
Q 1366 3272 1645 3428 
Q 1925 3584 2291 3584 
Q 2894 3584 3203 3211 
Q 3513 2838 3513 2113 
z
" transform="scale(0.015625)"/>
      </defs>
      <use xlink:href="#DejaVuSans-65"/>
      <use xlink:href="#DejaVuSans-6e" x="61.523438"/>
      <use xlink:href="#DejaVuSans-65" x="124.902344"/>
      <use xlink:href="#DejaVuSans-72" x="186.425781"/>
      <use xlink:href="#DejaVuSans-67" x="225.789062"/>
      <use xlink:href="#DejaVuSans-79" x="289.265625"/>
      <use xlink:href="#DejaVuSans-20" x="348.445312"/>
      <use xlink:href="#DejaVuSans-5b" x="380.232422"/>
      <use xlink:href="#DejaVuSans-77" x="419.246094"/>
      <use xlink:href="#DejaVuSans-68" x="501.033203"/>
      <use xlink:href="#DejaVuSans-5d" x="564.412109"/>
     </g>
    </g>
   </g>
   <g id="line2d_49">
    <path d="M 73.832727 302.085818 
L 74.157707 301.847802 
L 74.482686 301.847802 
L 75.132645 301.371769 
L 75.457625 301.371769 
L 77.732482 299.705653 
L 78.057461 299.705653 
L 78.70742 299.22962 
L 80.007338 299.22962 
L 80.332318 298.991603 
L 80.657297 298.991603 
L 81.957215 298.039537 
L 82.282195 298.039537 
L 82.932154 297.563504 
L 83.257133 297.563504 
L 83.582113 297.325488 
L 84.232072 297.325488 
L 84.557052 297.087471 
L 84.882031 297.087471 
L 85.207011 296.849455 
L 85.53199 296.849455 
L 85.85697 296.611438 
L 94.306437 296.611438 
L 94.631417 296.373421 
L 95.931335 296.373421 
L 96.256314 296.135405 
L 97.556233 296.135405 
L 97.881212 295.897388 
L 98.206192 295.897388 
L 98.531171 295.659372 
L 101.131007 295.659372 
L 101.455987 295.421355 
L 109.255495 295.421355 
L 109.580475 295.183339 
L 110.230434 295.183339 
L 110.555414 294.945322 
L 110.880393 294.945322 
L 111.205373 294.707306 
L 111.855332 293.517223 
L 112.180311 293.279207 
L 112.83027 292.32714 
L 113.15525 292.089124 
L 113.480229 291.613091 
L 114.780147 290.661025 
L 115.755086 289.232926 
L 116.080066 288.994909 
L 116.405045 288.518876 
L 116.730025 288.28086 
L 117.055004 288.28086 
L 118.029943 287.56681 
L 118.354922 287.090777 
L 119.004881 287.090777 
L 119.97982 286.376727 
L 120.954758 286.376727 
L 121.279738 286.138711 
L 121.604717 286.138711 
L 121.929697 285.662678 
L 122.579656 285.186645 
L 123.229615 285.186645 
L 123.879574 284.710612 
L 124.529533 283.758545 
L 126.47941 282.330446 
L 126.80439 281.854413 
L 128.104308 280.902347 
L 128.754267 279.950281 
L 129.729206 279.236231 
L 130.054185 278.760198 
L 130.379165 278.522182 
L 131.029124 278.522182 
L 131.679083 278.046149 
L 132.329042 277.094083 
L 132.654021 276.856066 
L 132.979001 275.665983 
L 133.62896 274.713917 
L 134.278919 273.523835 
L 134.603898 273.285818 
L 134.928878 273.285818 
L 135.253857 272.809785 
L 135.578837 272.571769 
L 135.903817 272.571769 
L 136.228796 272.333752 
L 136.553776 272.333752 
L 136.878755 272.095736 
L 141.753448 272.095736 
L 142.078428 271.857719 
L 148.902998 271.857719 
L 149.227977 271.619702 
L 150.527895 271.619702 
L 151.177854 271.143669 
L 151.502834 271.143669 
L 151.827813 270.905653 
L 153.127731 270.905653 
L 153.452711 270.667636 
L 153.77769 270.667636 
L 154.427649 270.191603 
L 154.752629 270.191603 
L 158.977363 267.097388 
L 159.302342 267.097388 
L 160.60226 266.145322 
L 160.92724 266.145322 
L 161.252219 265.907306 
L 161.577199 265.431273 
L 162.227158 264.95524 
L 162.552138 264.479207 
L 162.877117 264.24119 
L 163.202097 263.765157 
L 164.177035 263.051107 
L 164.502015 262.575074 
L 165.801933 261.623008 
L 166.126912 261.623008 
L 166.451892 261.384992 
L 171.976544 261.384992 
L 172.301523 261.146975 
L 173.276462 261.146975 
L 173.601441 260.908959 
L 173.926421 260.908959 
L 174.57638 260.432926 
L 174.90136 260.432926 
L 175.551319 259.956893 
L 176.201278 259.956893 
L 176.526257 259.718876 
L 180.426011 259.718876 
L 180.750991 259.48086 
L 192.775233 259.48086 
L 193.100213 259.242843 
L 194.075152 259.242843 
L 194.725111 258.76681 
L 195.05009 258.76681 
L 195.700049 258.290777 
L 196.025029 258.290777 
L 196.674988 257.814744 
L 196.999967 257.814744 
L 197.649926 257.338711 
L 198.624865 257.338711 
L 198.949844 257.100694 
L 207.724292 257.100694 
L 208.049271 256.862678 
L 214.548862 256.862678 
L 214.873841 256.624661 
L 215.84878 256.624661 
L 216.498739 256.148628 
L 216.823718 256.148628 
L 217.148698 255.910612 
L 217.473677 255.434579 
L 218.123636 254.958545 
L 218.773595 254.958545 
L 219.098575 254.720529 
L 224.298247 254.720529 
L 224.623227 254.482512 
L 224.948206 254.482512 
L 225.273186 254.244496 
L 225.598165 254.244496 
L 225.923145 254.006479 
L 226.248124 254.006479 
L 226.573104 253.768463 
L 227.548043 253.768463 
L 228.198002 253.29243 
L 235.672531 253.29243 
L 236.32249 252.816397 
L 236.647469 252.816397 
L 237.947387 251.864331 
L 238.272367 251.388298 
L 238.597346 251.150281 
L 238.922326 250.674248 
L 239.572285 250.198215 
L 239.897265 250.198215 
L 240.547224 249.722182 
L 240.872203 249.722182 
L 241.522162 249.246149 
L 241.847142 249.246149 
L 242.172121 249.008132 
L 242.497101 249.008132 
L 242.82208 248.770116 
L 243.472039 248.770116 
L 243.797019 248.532099 
L 244.121998 248.532099 
L 244.446978 248.294083 
L 245.421916 248.294083 
L 245.746896 248.056066 
L 246.396855 248.056066 
L 246.721835 247.81805 
L 247.371794 247.81805 
L 247.696773 247.580033 
L 248.346732 247.580033 
L 248.671712 247.342017 
L 249.321671 247.342017 
L 249.64665 247.104 
L 250.621589 247.104 
L 250.946568 246.865983 
L 251.271548 246.865983 
L 251.596527 246.627967 
L 261.995872 246.627967 
L 262.320852 246.38995 
L 263.29579 246.38995 
L 263.945749 245.913917 
L 264.595708 245.913917 
L 264.920688 245.675901 
L 265.570647 245.675901 
L 265.895627 245.437884 
L 266.545586 245.437884 
L 266.870565 245.199868 
L 267.845504 245.199868 
L 268.170483 244.961851 
L 269.145422 244.961851 
L 269.795381 244.485818 
L 270.12036 244.485818 
L 271.095299 243.771769 
L 271.420278 243.295736 
L 271.745258 243.057719 
L 272.070238 242.581686 
L 272.395217 242.343669 
L 272.720197 241.867636 
L 273.045176 241.867636 
L 274.670074 240.677554 
L 275.969992 238.773421 
L 276.294971 238.535405 
L 276.619951 238.059372 
L 277.26991 237.583339 
L 277.594889 237.583339 
L 277.919869 237.107306 
L 278.244848 237.107306 
L 279.219787 236.393256 
L 281.819623 232.584992 
L 282.144603 232.346975 
L 283.444521 230.442843 
L 283.7695 230.204826 
L 284.419459 229.25276 
L 284.744439 228.538711 
L 285.069419 228.300694 
L 285.394398 227.824661 
L 285.719378 227.586645 
L 286.044357 227.110612 
L 286.369337 226.872595 
L 287.019296 226.872595 
L 287.344275 226.634579 
L 287.669255 226.158545 
L 287.994234 225.920529 
L 288.319214 225.444496 
L 288.644193 225.206479 
L 288.969173 224.730446 
L 290.269091 223.77838 
L 290.59407 223.302347 
L 290.91905 223.302347 
L 291.244029 223.064331 
L 292.543948 223.064331 
L 292.868927 222.826314 
L 293.843866 222.826314 
L 294.168845 222.588298 
L 295.143784 222.588298 
L 296.443702 221.636231 
L 296.768681 221.160198 
L 297.093661 220.922182 
L 299.043538 220.922182 
L 299.368518 220.684165 
L 301.643374 220.684165 
L 301.968354 220.446149 
L 307.168026 220.446149 
L 307.493006 220.208132 
L 308.142965 220.208132 
L 308.467944 219.970116 
L 315.292514 219.970116 
L 315.617494 219.732099 
L 318.867289 219.732099 
L 319.192269 219.494083 
L 319.842228 219.494083 
L 320.167207 219.01805 
L 320.492187 219.01805 
L 320.817166 218.542017 
L 322.117084 218.542017 
L 322.442064 218.304 
L 322.767043 217.827967 
L 325.0419 217.827967 
L 325.36688 217.58995 
L 325.691859 217.113917 
L 326.016839 216.875901 
L 326.341818 216.875901 
L 326.666798 216.637884 
L 326.991777 216.161851 
L 327.641736 215.685818 
L 328.291695 214.257719 
L 328.616675 214.019702 
L 328.941654 213.543669 
L 329.591613 212.11557 
L 329.916593 211.877554 
L 330.241572 211.401521 
L 330.566552 210.687471 
L 330.891532 210.687471 
L 331.216511 209.735405 
L 331.86647 209.259372 
L 332.516429 208.069289 
L 332.841409 207.593256 
L 334.466306 206.403174 
L 334.791286 205.92714 
L 335.116265 205.689124 
L 335.441245 205.689124 
L 336.091204 205.213091 
L 336.416183 205.213091 
L 336.741163 204.975074 
L 337.716102 204.975074 
L 338.041081 204.737058 
L 345.190631 204.737058 
L 345.51561 204.499041 
L 363.064505 204.499041 
L 363.389484 204.261025 
L 364.039443 204.261025 
L 365.339361 203.308959 
L 365.664341 202.832926 
L 365.98932 202.832926 
L 366.3143 202.356893 
L 366.964259 201.88086 
L 367.289238 201.404826 
L 367.939197 200.928793 
L 368.914136 199.500694 
L 369.239115 199.262678 
L 369.564095 198.786645 
L 370.864013 197.834579 
L 371.188993 197.834579 
L 371.513972 197.596562 
L 372.488911 197.596562 
L 372.81389 197.358545 
L 373.788829 197.358545 
L 374.113808 197.120529 
L 374.438788 197.120529 
L 374.763767 196.882512 
L 381.588337 196.882512 
L 381.913317 196.644496 
L 391.987682 196.644496 
L 392.312662 196.406479 
L 392.637641 196.406479 
L 393.2876 195.930446 
L 393.937559 195.930446 
L 395.887437 194.502347 
L 396.212416 194.026314 
L 396.537396 194.026314 
L 397.837314 193.074248 
L 398.487273 192.122182 
L 398.487273 192.122182 
" clip-path="url(#p3182dcf1f4)" style="fill: none; stroke: #1f77b4; stroke-width: 1.5; stroke-linecap: square"/>
   </g>
   <g id="line2d_50">
    <path d="M 73.832727 302.085818 
L 75.457625 302.085818 
L 75.782604 301.89983 
L 77.082523 301.81299 
L 78.057461 301.594412 
L 78.70742 301.590569 
L 79.0324 301.289693 
L 79.682359 301.239634 
L 81.307256 300.901801 
L 82.932154 300.901801 
L 83.257133 300.65474 
L 83.907093 300.593413 
L 84.557052 300.370158 
L 85.207011 300.273777 
L 85.85697 299.978103 
L 86.506929 299.943058 
L 87.156888 299.851258 
L 89.106765 299.748617 
L 90.731663 299.738107 
L 91.056642 299.468811 
L 91.381622 299.468811 
L 91.706601 299.331591 
L 92.68154 299.253902 
L 93.331499 299.176504 
L 93.981458 299.176504 
L 94.306437 298.981724 
L 95.606355 298.888545 
L 95.931335 298.703285 
L 96.581294 298.599606 
L 97.231253 298.544967 
L 97.881212 298.311337 
L 99.831089 298.236356 
L 100.481048 298.138296 
L 101.131007 298.065081 
L 102.755905 297.784954 
L 104.055823 297.698404 
L 104.705782 297.61958 
L 108.280557 297.397887 
L 108.605536 297.179407 
L 109.255495 297.107978 
L 110.230434 297.03156 
L 110.880393 296.922252 
L 111.205373 296.922252 
L 111.530352 296.67652 
L 113.15525 296.566591 
L 117.704963 296.276254 
L 118.679902 296.114918 
L 119.97982 296.060763 
L 120.629779 295.984617 
L 121.929697 295.936684 
L 122.579656 295.862955 
L 123.554595 295.767807 
L 123.879574 295.563709 
L 124.529533 295.54296 
L 124.854513 295.369608 
L 127.779328 295.369608 
L 128.104308 295.190443 
L 128.429287 295.190443 
L 129.404226 294.956308 
L 131.029124 294.921419 
L 131.679083 294.73942 
L 132.979001 294.634887 
L 133.62896 294.477781 
L 134.603898 294.381895 
L 135.253857 294.269336 
L 137.853694 294.20239 
L 138.503653 294.14352 
L 139.153612 294.068509 
L 139.478591 293.936705 
L 139.803571 293.936705 
L 140.12855 293.81117 
L 140.778509 293.746612 
L 141.428468 293.653967 
L 143.378346 293.59398 
L 144.028305 293.421978 
L 145.003243 293.369415 
L 145.653202 293.29095 
L 145.978182 293.29095 
L 146.303161 293.095519 
L 148.578018 292.967723 
L 149.227977 292.853232 
L 150.527895 292.77794 
L 152.152793 292.589973 
L 153.452711 292.518563 
L 154.10267 292.29031 
L 155.077609 292.198587 
L 155.727568 292.135534 
L 156.377527 292.135534 
L 157.027486 292.022023 
L 157.352465 292.022023 
L 157.677445 291.857736 
L 158.977363 291.790829 
L 161.252219 291.375375 
L 161.902179 291.375375 
L 162.227158 291.180634 
L 163.202097 291.113737 
L 163.852056 291.113737 
L 164.826994 290.791519 
L 166.126912 290.761055 
L 167.75181 290.716227 
L 168.726749 290.465827 
L 170.676626 290.376511 
L 171.001605 290.134516 
L 172.301523 290.134516 
L 172.626503 289.922596 
L 174.57638 289.683396 
L 176.201278 289.605775 
L 176.851237 289.493099 
L 177.501196 289.493099 
L 178.151155 289.263652 
L 178.476134 289.263652 
L 179.451073 288.935087 
L 180.750991 288.841016 
L 181.075971 288.841016 
L 181.72593 288.564102 
L 182.375889 288.564102 
L 183.025848 288.273979 
L 185.300704 288.199958 
L 186.275643 287.987311 
L 186.925602 287.952974 
L 188.22552 287.743141 
L 189.525438 287.642636 
L 190.175397 287.490286 
L 191.800295 287.405172 
L 192.125274 287.203443 
L 193.750172 287.154384 
L 194.400131 287.081179 
L 195.37507 286.97157 
L 196.025029 286.903955 
L 197.649926 286.901849 
L 197.974906 286.690395 
L 198.949844 286.667229 
L 199.274824 286.539665 
L 200.899722 286.455231 
L 201.224701 286.114992 
L 201.549681 285.95183 
L 203.174578 285.926976 
L 203.499558 285.766493 
L 204.149517 285.766493 
L 204.799476 285.640424 
L 205.449435 285.55896 
L 209.02421 285.286151 
L 209.349189 285.062663 
L 209.999148 284.975142 
L 211.299066 284.975142 
L 211.624046 284.724694 
L 212.598984 284.617307 
L 213.898903 284.522159 
L 215.84878 284.451535 
L 216.173759 284.327543 
L 216.823718 284.327543 
L 217.148698 284.092069 
L 219.423554 283.815951 
L 221.373432 283.715445 
L 221.698411 283.54485 
L 223.323309 283.512571 
L 224.298247 283.13419 
L 224.948206 282.978133 
L 226.573104 282.894009 
L 226.898084 282.770027 
L 228.847961 282.738825 
L 229.49792 282.625431 
L 230.797838 282.571898 
L 231.447797 282.500566 
L 233.397674 282.391122 
L 234.372613 282.129542 
L 235.347551 282.049407 
L 236.32249 281.981792 
L 237.297428 281.72618 
L 237.947387 281.628994 
L 238.272367 281.628994 
L 238.597346 281.501314 
L 239.247305 281.400217 
L 239.572285 281.187394 
L 241.522162 281.087898 
L 242.497101 280.93218 
L 242.82208 280.789963 
L 244.121998 280.781616 
L 244.446978 280.498491 
L 246.396855 280.431312 
L 247.046814 280.292268 
L 247.696773 280.292268 
L 248.996691 279.867749 
L 249.321671 279.867749 
L 249.97163 279.62093 
L 250.296609 279.62093 
L 250.621589 279.438048 
L 250.946568 279.438048 
L 251.271548 279.296015 
L 253.871384 279.247295 
L 254.196364 279.044333 
L 255.821261 278.93718 
L 258.746077 278.872563 
L 259.396036 278.446434 
L 260.045995 278.336767 
L 261.670893 278.255506 
L 262.645831 277.86117 
L 263.945749 277.801805 
L 264.270729 277.614303 
L 266.870565 277.34622 
L 268.170483 277.34622 
L 268.495463 277.189076 
L 271.095299 277.084601 
L 271.745258 276.893654 
L 272.720197 276.820089 
L 274.020115 276.598455 
L 274.670074 276.598455 
L 274.995053 276.458285 
L 276.619951 276.353315 
L 277.26991 276.241988 
L 278.569828 276.074304 
L 279.219787 276.037823 
L 279.544767 275.914054 
L 279.869746 275.914054 
L 280.844685 275.578357 
L 281.819623 275.523416 
L 284.09448 275.432703 
L 284.419459 275.274326 
L 286.369337 275.184496 
L 287.019296 275.068598 
L 287.994234 274.846469 
L 288.319214 274.846469 
L 288.644193 274.644002 
L 289.619132 274.644002 
L 289.944111 274.382839 
L 290.59407 274.382839 
L 291.244029 274.153965 
L 291.569009 274.153965 
L 292.218968 273.96853 
L 292.868927 273.886949 
L 293.193907 273.758678 
L 296.118722 273.704407 
L 296.443702 273.573068 
L 296.768681 273.573068 
L 297.093661 273.431423 
L 298.718559 273.334198 
L 299.368518 272.987368 
L 300.668436 272.890153 
L 301.643374 272.762259 
L 301.968354 272.762259 
L 302.618313 272.581988 
L 303.593251 272.384849 
L 304.56819 272.329385 
L 305.218149 272.224599 
L 306.843047 272.102694 
L 308.142965 271.349077 
L 308.792924 271.349077 
L 309.442883 271.042708 
L 310.092842 270.934409 
L 311.067781 270.860447 
L 312.042719 270.655418 
L 314.967535 270.550137 
L 315.617494 270.437908 
L 316.917412 270.396778 
L 317.242391 270.238595 
L 317.892351 270.171824 
L 319.192269 269.763018 
L 320.492187 269.684485 
L 321.467125 269.598983 
L 323.741982 269.53492 
L 325.36688 268.964253 
L 327.641736 268.964253 
L 329.266634 268.302883 
L 329.916593 268.220506 
L 330.566552 268.093389 
L 330.891532 267.925531 
L 332.19145 267.749034 
L 333.166388 267.244585 
L 334.141327 267.176232 
L 335.116265 266.968301 
L 335.766224 266.968301 
L 336.091204 266.768989 
L 336.741163 266.680857 
L 337.716102 266.558554 
L 338.041081 266.546821 
L 338.366061 266.372091 
L 340.315938 266.277544 
L 340.965897 266.185171 
L 342.265815 265.946 
L 342.915774 265.777704 
L 346.165569 265.678985 
L 347.790467 265.311949 
L 349.090385 265.228466 
L 349.415364 265.030473 
L 349.740344 265.030473 
L 350.065324 264.897048 
L 350.390303 264.897048 
L 351.040262 264.680946 
L 351.690221 264.680946 
L 352.015201 264.504042 
L 353.315119 264.433127 
L 353.640098 264.282505 
L 358.189812 264.238395 
L 358.839771 264.149691 
L 359.814709 264.149691 
L 360.464668 264.036734 
L 360.789648 264.036734 
L 361.439607 263.644484 
L 361.764586 263.644484 
L 362.414545 263.406109 
L 363.714464 263.034366 
L 364.364423 263.007512 
L 365.339361 262.818283 
L 367.289238 262.818283 
L 368.264177 262.442047 
L 368.589156 262.442047 
L 369.889075 262.016315 
L 370.539034 261.906328 
L 371.513972 261.822845 
L 371.838952 261.636459 
L 373.13887 261.583538 
L 374.113808 261.342464 
L 375.413726 261.310195 
L 376.388665 261.27612 
L 377.038624 261.179012 
L 379.96344 261.078904 
L 380.613399 260.962298 
L 381.913317 260.891024 
L 384.513153 260.36729 
L 385.813071 260.284797 
L 389.712826 259.950012 
L 390.362785 259.950012 
L 391.662703 259.426375 
L 392.312662 259.294707 
L 392.637641 259.090668 
L 396.212416 258.701951 
L 396.537396 258.516099 
L 397.512334 258.516099 
L 398.162293 258.342485 
L 398.487273 258.342485 
L 398.487273 258.342485 
" clip-path="url(#p3182dcf1f4)" style="fill: none; stroke: #ff7f0e; stroke-width: 1.5; stroke-linecap: square"/>
   </g>
   <g id="patch_9">
    <path d="M 57.6 307.584 
L 57.6 186.624 
" style="fill: none; stroke: #000000; stroke-width: 0.8; stroke-linejoin: miter; stroke-linecap: square"/>
   </g>
   <g id="patch_10">
    <path d="M 414.72 307.584 
L 414.72 186.624 
" style="fill: none; stroke: #000000; stroke-width: 0.8; stroke-linejoin: miter; stroke-linecap: square"/>
   </g>
   <g id="patch_11">
    <path d="M 57.6 307.584 
L 414.72 307.584 
" style="fill: none; stroke: #000000; stroke-width: 0.8; stroke-linejoin: miter; stroke-linecap: square"/>
   </g>
   <g id="patch_12">
    <path d="M 57.6 186.624 
L 414.72 186.624 
" style="fill: none; stroke: #000000; stroke-width: 0.8; stroke-linejoin: miter; stroke-linecap: square"/>
   </g>
  </g>
 </g>
 <defs>
  <clipPath id="p43eea819ba">
   <rect x="57.6" y="41.472" width="357.12" height="120.96"/>
  </clipPath>
  <clipPath id="p3182dcf1f4">
   <rect x="57.6" y="186.624" width="357.12" height="120.96"/>
  </clipPath>
 </defs>
</svg>
