<?xml version="1.0" encoding="utf-8" standalone="no"?>
<!DOCTYPE svg PUBLIC "-//W3C//DTD SVG 1.1//EN"
  "http://www.w3.org/Graphics/SVG/1.1/DTD/svg11.dtd">
<svg xmlns:xlink="http://www.w3.org/1999/xlink" width="460.8pt" height="345.6pt" viewBox="0 0 460.8 345.6" xmlns="http://www.w3.org/2000/svg" version="1.1">
 <metadata>
  <rdf:RDF xmlns:dc="http://purl.org/dc/elements/1.1/" xmlns:cc="http://creativecommons.org/ns#" xmlns:rdf="http://www.w3.org/1999/02/22-rdf-syntax-ns#">
   <cc:Work>
    <dc:type rdf:resource="http://purl.org/dc/dcmitype/StillImage"/>
    <dc:date>2021-12-15T13:31:28.356849</dc:date>
    <dc:format>image/svg+xml</dc:format>
    <dc:creator>
     <cc:Agent>
      <dc:title>Matplotlib v3.5.0, https://matplotlib.org/</dc:title>
     </cc:Agent>
    </dc:creator>
   </cc:Work>
  </rdf:RDF>
 </metadata>
 <defs>
  <style type="text/css">*{stroke-linejoin: round; stroke-linecap: butt}</style>
 </defs>
 <g id="figure_1">
  <g id="patch_1">
   <path d="M 0 345.6 
L 460.8 345.6 
L 460.8 0 
L 0 0 
z
" style="fill: #ffffff"/>
  </g>
  <g id="axes_1">
   <g id="patch_2">
    <path d="M 57.6 162.432 
L 414.72 162.432 
L 414.72 41.472 
L 57.6 41.472 
z
" style="fill: #ffffff"/>
   </g>
   <g id="matplotlib.axis_1">
    <g id="xtick_1">
     <g id="line2d_1">
      <path d="M 72.899812 162.432 
L 72.899812 41.472 
" clip-path="url(#p31ef16153b)" style="fill: none; stroke: #b0b0b0; stroke-width: 0.8; stroke-linecap: square"/>
     </g>
     <g id="line2d_2">
      <defs>
       <path id="mca26fac588" d="M 0 0 
L 0 3.5 
" style="stroke: #000000; stroke-width: 0.8"/>
      </defs>
      <g>
       <use xlink:href="#mca26fac588" x="72.899812" y="162.432" style="stroke: #000000; stroke-width: 0.8"/>
      </g>
     </g>
     <g id="text_1">
      <!-- 0 -->
      <g transform="translate(69.718562 177.030437)scale(0.1 -0.1)">
       <defs>
        <path id="DejaVuSans-30" d="M 2034 4250 
Q 1547 4250 1301 3770 
Q 1056 3291 1056 2328 
Q 1056 1369 1301 889 
Q 1547 409 2034 409 
Q 2525 409 2770 889 
Q 3016 1369 3016 2328 
Q 3016 3291 2770 3770 
Q 2525 4250 2034 4250 
z
M 2034 4750 
Q 2819 4750 3233 4129 
Q 3647 3509 3647 2328 
Q 3647 1150 3233 529 
Q 2819 -91 2034 -91 
Q 1250 -91 836 529 
Q 422 1150 422 2328 
Q 422 3509 836 4129 
Q 1250 4750 2034 4750 
z
" transform="scale(0.015625)"/>
       </defs>
       <use xlink:href="#DejaVuSans-30"/>
      </g>
     </g>
    </g>
    <g id="xtick_2">
     <g id="line2d_3">
      <path d="M 135.094169 162.432 
L 135.094169 41.472 
" clip-path="url(#p31ef16153b)" style="fill: none; stroke: #b0b0b0; stroke-width: 0.8; stroke-linecap: square"/>
     </g>
     <g id="line2d_4">
      <g>
       <use xlink:href="#mca26fac588" x="135.094169" y="162.432" style="stroke: #000000; stroke-width: 0.8"/>
      </g>
     </g>
     <g id="text_2">
      <!-- 200 -->
      <g transform="translate(125.550419 177.030437)scale(0.1 -0.1)">
       <defs>
        <path id="DejaVuSans-32" d="M 1228 531 
L 3431 531 
L 3431 0 
L 469 0 
L 469 531 
Q 828 903 1448 1529 
Q 2069 2156 2228 2338 
Q 2531 2678 2651 2914 
Q 2772 3150 2772 3378 
Q 2772 3750 2511 3984 
Q 2250 4219 1831 4219 
Q 1534 4219 1204 4116 
Q 875 4013 500 3803 
L 500 4441 
Q 881 4594 1212 4672 
Q 1544 4750 1819 4750 
Q 2544 4750 2975 4387 
Q 3406 4025 3406 3419 
Q 3406 3131 3298 2873 
Q 3191 2616 2906 2266 
Q 2828 2175 2409 1742 
Q 1991 1309 1228 531 
z
" transform="scale(0.015625)"/>
       </defs>
       <use xlink:href="#DejaVuSans-32"/>
       <use xlink:href="#DejaVuSans-30" x="63.623047"/>
       <use xlink:href="#DejaVuSans-30" x="127.246094"/>
      </g>
     </g>
    </g>
    <g id="xtick_3">
     <g id="line2d_5">
      <path d="M 197.288527 162.432 
L 197.288527 41.472 
" clip-path="url(#p31ef16153b)" style="fill: none; stroke: #b0b0b0; stroke-width: 0.8; stroke-linecap: square"/>
     </g>
     <g id="line2d_6">
      <g>
       <use xlink:href="#mca26fac588" x="197.288527" y="162.432" style="stroke: #000000; stroke-width: 0.8"/>
      </g>
     </g>
     <g id="text_3">
      <!-- 400 -->
      <g transform="translate(187.744777 177.030437)scale(0.1 -0.1)">
       <defs>
        <path id="DejaVuSans-34" d="M 2419 4116 
L 825 1625 
L 2419 1625 
L 2419 4116 
z
M 2253 4666 
L 3047 4666 
L 3047 1625 
L 3713 1625 
L 3713 1100 
L 3047 1100 
L 3047 0 
L 2419 0 
L 2419 1100 
L 313 1100 
L 313 1709 
L 2253 4666 
z
" transform="scale(0.015625)"/>
       </defs>
       <use xlink:href="#DejaVuSans-34"/>
       <use xlink:href="#DejaVuSans-30" x="63.623047"/>
       <use xlink:href="#DejaVuSans-30" x="127.246094"/>
      </g>
     </g>
    </g>
    <g id="xtick_4">
     <g id="line2d_7">
      <path d="M 259.482884 162.432 
L 259.482884 41.472 
" clip-path="url(#p31ef16153b)" style="fill: none; stroke: #b0b0b0; stroke-width: 0.8; stroke-linecap: square"/>
     </g>
     <g id="line2d_8">
      <g>
       <use xlink:href="#mca26fac588" x="259.482884" y="162.432" style="stroke: #000000; stroke-width: 0.8"/>
      </g>
     </g>
     <g id="text_4">
      <!-- 600 -->
      <g transform="translate(249.939134 177.030437)scale(0.1 -0.1)">
       <defs>
        <path id="DejaVuSans-36" d="M 2113 2584 
Q 1688 2584 1439 2293 
Q 1191 2003 1191 1497 
Q 1191 994 1439 701 
Q 1688 409 2113 409 
Q 2538 409 2786 701 
Q 3034 994 3034 1497 
Q 3034 2003 2786 2293 
Q 2538 2584 2113 2584 
z
M 3366 4563 
L 3366 3988 
Q 3128 4100 2886 4159 
Q 2644 4219 2406 4219 
Q 1781 4219 1451 3797 
Q 1122 3375 1075 2522 
Q 1259 2794 1537 2939 
Q 1816 3084 2150 3084 
Q 2853 3084 3261 2657 
Q 3669 2231 3669 1497 
Q 3669 778 3244 343 
Q 2819 -91 2113 -91 
Q 1303 -91 875 529 
Q 447 1150 447 2328 
Q 447 3434 972 4092 
Q 1497 4750 2381 4750 
Q 2619 4750 2861 4703 
Q 3103 4656 3366 4563 
z
" transform="scale(0.015625)"/>
       </defs>
       <use xlink:href="#DejaVuSans-36"/>
       <use xlink:href="#DejaVuSans-30" x="63.623047"/>
       <use xlink:href="#DejaVuSans-30" x="127.246094"/>
      </g>
     </g>
    </g>
    <g id="xtick_5">
     <g id="line2d_9">
      <path d="M 321.677241 162.432 
L 321.677241 41.472 
" clip-path="url(#p31ef16153b)" style="fill: none; stroke: #b0b0b0; stroke-width: 0.8; stroke-linecap: square"/>
     </g>
     <g id="line2d_10">
      <g>
       <use xlink:href="#mca26fac588" x="321.677241" y="162.432" style="stroke: #000000; stroke-width: 0.8"/>
      </g>
     </g>
     <g id="text_5">
      <!-- 800 -->
      <g transform="translate(312.133491 177.030437)scale(0.1 -0.1)">
       <defs>
        <path id="DejaVuSans-38" d="M 2034 2216 
Q 1584 2216 1326 1975 
Q 1069 1734 1069 1313 
Q 1069 891 1326 650 
Q 1584 409 2034 409 
Q 2484 409 2743 651 
Q 3003 894 3003 1313 
Q 3003 1734 2745 1975 
Q 2488 2216 2034 2216 
z
M 1403 2484 
Q 997 2584 770 2862 
Q 544 3141 544 3541 
Q 544 4100 942 4425 
Q 1341 4750 2034 4750 
Q 2731 4750 3128 4425 
Q 3525 4100 3525 3541 
Q 3525 3141 3298 2862 
Q 3072 2584 2669 2484 
Q 3125 2378 3379 2068 
Q 3634 1759 3634 1313 
Q 3634 634 3220 271 
Q 2806 -91 2034 -91 
Q 1263 -91 848 271 
Q 434 634 434 1313 
Q 434 1759 690 2068 
Q 947 2378 1403 2484 
z
M 1172 3481 
Q 1172 3119 1398 2916 
Q 1625 2713 2034 2713 
Q 2441 2713 2670 2916 
Q 2900 3119 2900 3481 
Q 2900 3844 2670 4047 
Q 2441 4250 2034 4250 
Q 1625 4250 1398 4047 
Q 1172 3844 1172 3481 
z
" transform="scale(0.015625)"/>
       </defs>
       <use xlink:href="#DejaVuSans-38"/>
       <use xlink:href="#DejaVuSans-30" x="63.623047"/>
       <use xlink:href="#DejaVuSans-30" x="127.246094"/>
      </g>
     </g>
    </g>
    <g id="xtick_6">
     <g id="line2d_11">
      <path d="M 383.871599 162.432 
L 383.871599 41.472 
" clip-path="url(#p31ef16153b)" style="fill: none; stroke: #b0b0b0; stroke-width: 0.8; stroke-linecap: square"/>
     </g>
     <g id="line2d_12">
      <g>
       <use xlink:href="#mca26fac588" x="383.871599" y="162.432" style="stroke: #000000; stroke-width: 0.8"/>
      </g>
     </g>
     <g id="text_6">
      <!-- 1000 -->
      <g transform="translate(371.146599 177.030437)scale(0.1 -0.1)">
       <defs>
        <path id="DejaVuSans-31" d="M 794 531 
L 1825 531 
L 1825 4091 
L 703 3866 
L 703 4441 
L 1819 4666 
L 2450 4666 
L 2450 531 
L 3481 531 
L 3481 0 
L 794 0 
L 794 531 
z
" transform="scale(0.015625)"/>
       </defs>
       <use xlink:href="#DejaVuSans-31"/>
       <use xlink:href="#DejaVuSans-30" x="63.623047"/>
       <use xlink:href="#DejaVuSans-30" x="127.246094"/>
       <use xlink:href="#DejaVuSans-30" x="190.869141"/>
      </g>
     </g>
    </g>
   </g>
   <g id="matplotlib.axis_2">
    <g id="ytick_1">
     <g id="line2d_13">
      <path d="M 57.6 154.743188 
L 414.72 154.743188 
" clip-path="url(#p31ef16153b)" style="fill: none; stroke: #b0b0b0; stroke-width: 0.8; stroke-linecap: square"/>
     </g>
     <g id="line2d_14">
      <defs>
       <path id="m43a1e0522c" d="M 0 0 
L -3.5 0 
" style="stroke: #000000; stroke-width: 0.8"/>
      </defs>
      <g>
       <use xlink:href="#m43a1e0522c" x="57.6" y="154.743188" style="stroke: #000000; stroke-width: 0.8"/>
      </g>
     </g>
     <g id="text_7">
      <!-- −750 -->
      <g transform="translate(23.132812 158.542407)scale(0.1 -0.1)">
       <defs>
        <path id="DejaVuSans-2212" d="M 678 2272 
L 4684 2272 
L 4684 1741 
L 678 1741 
L 678 2272 
z
" transform="scale(0.015625)"/>
        <path id="DejaVuSans-37" d="M 525 4666 
L 3525 4666 
L 3525 4397 
L 1831 0 
L 1172 0 
L 2766 4134 
L 525 4134 
L 525 4666 
z
" transform="scale(0.015625)"/>
        <path id="DejaVuSans-35" d="M 691 4666 
L 3169 4666 
L 3169 4134 
L 1269 4134 
L 1269 2991 
Q 1406 3038 1543 3061 
Q 1681 3084 1819 3084 
Q 2600 3084 3056 2656 
Q 3513 2228 3513 1497 
Q 3513 744 3044 326 
Q 2575 -91 1722 -91 
Q 1428 -91 1123 -41 
Q 819 9 494 109 
L 494 744 
Q 775 591 1075 516 
Q 1375 441 1709 441 
Q 2250 441 2565 725 
Q 2881 1009 2881 1497 
Q 2881 1984 2565 2268 
Q 2250 2553 1709 2553 
Q 1456 2553 1204 2497 
Q 953 2441 691 2322 
L 691 4666 
z
" transform="scale(0.015625)"/>
       </defs>
       <use xlink:href="#DejaVuSans-2212"/>
       <use xlink:href="#DejaVuSans-37" x="83.789062"/>
       <use xlink:href="#DejaVuSans-35" x="147.412109"/>
       <use xlink:href="#DejaVuSans-30" x="211.035156"/>
      </g>
     </g>
    </g>
    <g id="ytick_2">
     <g id="line2d_15">
      <path d="M 57.6 130.778203 
L 414.72 130.778203 
" clip-path="url(#p31ef16153b)" style="fill: none; stroke: #b0b0b0; stroke-width: 0.8; stroke-linecap: square"/>
     </g>
     <g id="line2d_16">
      <g>
       <use xlink:href="#m43a1e0522c" x="57.6" y="130.778203" style="stroke: #000000; stroke-width: 0.8"/>
      </g>
     </g>
     <g id="text_8">
      <!-- −500 -->
      <g transform="translate(23.132812 134.577422)scale(0.1 -0.1)">
       <use xlink:href="#DejaVuSans-2212"/>
       <use xlink:href="#DejaVuSans-35" x="83.789062"/>
       <use xlink:href="#DejaVuSans-30" x="147.412109"/>
       <use xlink:href="#DejaVuSans-30" x="211.035156"/>
      </g>
     </g>
    </g>
    <g id="ytick_3">
     <g id="line2d_17">
      <path d="M 57.6 106.813217 
L 414.72 106.813217 
" clip-path="url(#p31ef16153b)" style="fill: none; stroke: #b0b0b0; stroke-width: 0.8; stroke-linecap: square"/>
     </g>
     <g id="line2d_18">
      <g>
       <use xlink:href="#m43a1e0522c" x="57.6" y="106.813217" style="stroke: #000000; stroke-width: 0.8"/>
      </g>
     </g>
     <g id="text_9">
      <!-- −250 -->
      <g transform="translate(23.132812 110.612436)scale(0.1 -0.1)">
       <use xlink:href="#DejaVuSans-2212"/>
       <use xlink:href="#DejaVuSans-32" x="83.789062"/>
       <use xlink:href="#DejaVuSans-35" x="147.412109"/>
       <use xlink:href="#DejaVuSans-30" x="211.035156"/>
      </g>
     </g>
    </g>
    <g id="ytick_4">
     <g id="line2d_19">
      <path d="M 57.6 82.848232 
L 414.72 82.848232 
" clip-path="url(#p31ef16153b)" style="fill: none; stroke: #b0b0b0; stroke-width: 0.8; stroke-linecap: square"/>
     </g>
     <g id="line2d_20">
      <g>
       <use xlink:href="#m43a1e0522c" x="57.6" y="82.848232" style="stroke: #000000; stroke-width: 0.8"/>
      </g>
     </g>
     <g id="text_10">
      <!-- 0 -->
      <g transform="translate(44.2375 86.647451)scale(0.1 -0.1)">
       <use xlink:href="#DejaVuSans-30"/>
      </g>
     </g>
    </g>
    <g id="ytick_5">
     <g id="line2d_21">
      <path d="M 57.6 58.883247 
L 414.72 58.883247 
" clip-path="url(#p31ef16153b)" style="fill: none; stroke: #b0b0b0; stroke-width: 0.8; stroke-linecap: square"/>
     </g>
     <g id="line2d_22">
      <g>
       <use xlink:href="#m43a1e0522c" x="57.6" y="58.883247" style="stroke: #000000; stroke-width: 0.8"/>
      </g>
     </g>
     <g id="text_11">
      <!-- 250 -->
      <g transform="translate(31.5125 62.682465)scale(0.1 -0.1)">
       <use xlink:href="#DejaVuSans-32"/>
       <use xlink:href="#DejaVuSans-35" x="63.623047"/>
       <use xlink:href="#DejaVuSans-30" x="127.246094"/>
      </g>
     </g>
    </g>
    <g id="text_12">
     <!-- Power [w] -->
     <g transform="translate(17.053125 126.64575)rotate(-90)scale(0.1 -0.1)">
      <defs>
       <path id="DejaVuSans-50" d="M 1259 4147 
L 1259 2394 
L 2053 2394 
Q 2494 2394 2734 2622 
Q 2975 2850 2975 3272 
Q 2975 3691 2734 3919 
Q 2494 4147 2053 4147 
L 1259 4147 
z
M 628 4666 
L 2053 4666 
Q 2838 4666 3239 4311 
Q 3641 3956 3641 3272 
Q 3641 2581 3239 2228 
Q 2838 1875 2053 1875 
L 1259 1875 
L 1259 0 
L 628 0 
L 628 4666 
z
" transform="scale(0.015625)"/>
       <path id="DejaVuSans-6f" d="M 1959 3097 
Q 1497 3097 1228 2736 
Q 959 2375 959 1747 
Q 959 1119 1226 758 
Q 1494 397 1959 397 
Q 2419 397 2687 759 
Q 2956 1122 2956 1747 
Q 2956 2369 2687 2733 
Q 2419 3097 1959 3097 
z
M 1959 3584 
Q 2709 3584 3137 3096 
Q 3566 2609 3566 1747 
Q 3566 888 3137 398 
Q 2709 -91 1959 -91 
Q 1206 -91 779 398 
Q 353 888 353 1747 
Q 353 2609 779 3096 
Q 1206 3584 1959 3584 
z
" transform="scale(0.015625)"/>
       <path id="DejaVuSans-77" d="M 269 3500 
L 844 3500 
L 1563 769 
L 2278 3500 
L 2956 3500 
L 3675 769 
L 4391 3500 
L 4966 3500 
L 4050 0 
L 3372 0 
L 2619 2869 
L 1863 0 
L 1184 0 
L 269 3500 
z
" transform="scale(0.015625)"/>
       <path id="DejaVuSans-65" d="M 3597 1894 
L 3597 1613 
L 953 1613 
Q 991 1019 1311 708 
Q 1631 397 2203 397 
Q 2534 397 2845 478 
Q 3156 559 3463 722 
L 3463 178 
Q 3153 47 2828 -22 
Q 2503 -91 2169 -91 
Q 1331 -91 842 396 
Q 353 884 353 1716 
Q 353 2575 817 3079 
Q 1281 3584 2069 3584 
Q 2775 3584 3186 3129 
Q 3597 2675 3597 1894 
z
M 3022 2063 
Q 3016 2534 2758 2815 
Q 2500 3097 2075 3097 
Q 1594 3097 1305 2825 
Q 1016 2553 972 2059 
L 3022 2063 
z
" transform="scale(0.015625)"/>
       <path id="DejaVuSans-72" d="M 2631 2963 
Q 2534 3019 2420 3045 
Q 2306 3072 2169 3072 
Q 1681 3072 1420 2755 
Q 1159 2438 1159 1844 
L 1159 0 
L 581 0 
L 581 3500 
L 1159 3500 
L 1159 2956 
Q 1341 3275 1631 3429 
Q 1922 3584 2338 3584 
Q 2397 3584 2469 3576 
Q 2541 3569 2628 3553 
L 2631 2963 
z
" transform="scale(0.015625)"/>
       <path id="DejaVuSans-20" transform="scale(0.015625)"/>
       <path id="DejaVuSans-5b" d="M 550 4863 
L 1875 4863 
L 1875 4416 
L 1125 4416 
L 1125 -397 
L 1875 -397 
L 1875 -844 
L 550 -844 
L 550 4863 
z
" transform="scale(0.015625)"/>
       <path id="DejaVuSans-5d" d="M 1947 4863 
L 1947 -844 
L 622 -844 
L 622 -397 
L 1369 -397 
L 1369 4416 
L 622 4416 
L 622 4863 
L 1947 4863 
z
" transform="scale(0.015625)"/>
      </defs>
      <use xlink:href="#DejaVuSans-50"/>
      <use xlink:href="#DejaVuSans-6f" x="56.677734"/>
      <use xlink:href="#DejaVuSans-77" x="117.859375"/>
      <use xlink:href="#DejaVuSans-65" x="199.646484"/>
      <use xlink:href="#DejaVuSans-72" x="261.169922"/>
      <use xlink:href="#DejaVuSans-20" x="302.283203"/>
      <use xlink:href="#DejaVuSans-5b" x="334.070312"/>
      <use xlink:href="#DejaVuSans-77" x="373.083984"/>
      <use xlink:href="#DejaVuSans-5d" x="454.871094"/>
     </g>
    </g>
   </g>
   <g id="line2d_23">
    <path d="M 73.832727 85.097456 
L 74.143699 85.175106 
L 74.454671 85.791461 
L 74.765643 86.115223 
L 75.076614 86.144241 
L 75.387586 86.772777 
L 75.698558 85.472357 
L 76.00953 83.330516 
L 76.631473 81.401023 
L 76.942445 81.283161 
L 77.253417 80.823178 
L 77.564389 81.3772 
L 77.875361 81.6114 
L 78.186332 82.890594 
L 78.497304 83.28484 
L 78.808276 84.826625 
L 79.119248 84.90302 
L 79.430219 85.194003 
L 79.741191 84.879108 
L 80.052163 86.298643 
L 80.363135 86.384263 
L 80.674107 87.417702 
L 81.29605 90.696426 
L 81.607022 95.552938 
L 81.917994 96.225627 
L 82.539937 103.464451 
L 82.850909 103.426566 
L 83.161881 101.507821 
L 83.472853 102.229948 
L 83.783824 97.831986 
L 84.094796 97.623578 
L 84.405768 95.014858 
L 84.71674 94.465583 
L 85.027712 97.316923 
L 85.338683 96.755468 
L 85.649655 95.931152 
L 85.960627 99.542772 
L 86.271599 104.769527 
L 86.582571 107.601433 
L 86.893542 111.587864 
L 87.204514 109.939412 
L 87.515486 113.889302 
L 88.137429 117.436528 
L 88.448401 116.075297 
L 88.759373 117.79889 
L 89.070345 114.650836 
L 89.692288 119.341302 
L 90.00326 124.816051 
L 90.625204 128.522784 
L 90.936176 126.175043 
L 91.247147 130.067167 
L 91.558119 132.039649 
L 91.869091 128.937718 
L 92.802006 111.193439 
L 93.112978 108.234626 
L 93.734922 93.295295 
L 94.356865 87.580613 
L 94.667837 86.430745 
L 94.978809 86.577535 
L 95.289781 85.262158 
L 95.600752 84.790174 
L 95.911724 85.508271 
L 96.222696 85.701901 
L 96.533668 84.721392 
L 96.844639 82.972453 
L 97.155611 80.564258 
L 97.777555 83.969531 
L 98.71047 91.378877 
L 99.021442 94.935597 
L 99.332414 99.849875 
L 99.643386 102.563292 
L 100.265329 115.682126 
L 100.576301 118.197614 
L 101.198245 127.423697 
L 101.509216 127.64312 
L 101.820188 125.057775 
L 102.753103 107.291195 
L 103.686019 94.75755 
L 103.996991 92.079778 
L 104.307962 90.456135 
L 104.618934 90.260266 
L 104.929906 89.524436 
L 105.240878 88.244794 
L 105.55185 85.886217 
L 105.862821 82.233757 
L 106.173793 85.570157 
L 106.484765 83.844773 
L 106.795737 83.48653 
L 107.106708 83.839309 
L 107.41768 83.698968 
L 107.728652 81.739472 
L 108.039624 85.486955 
L 108.350596 83.65177 
L 108.661567 86.897714 
L 108.972539 91.487066 
L 109.283511 99.247132 
L 109.905455 123.449446 
L 110.216426 126.636907 
L 110.527398 133.565582 
L 110.83837 135.255769 
L 111.149342 132.019408 
L 111.460313 123.511422 
L 112.082257 100.177488 
L 112.393229 96.425347 
L 112.704201 88.407795 
L 113.015172 84.0084 
L 113.326144 82.966452 
L 113.637116 81.3609 
L 113.948088 79.010472 
L 114.570031 82.14948 
L 114.881003 86.216785 
L 115.191975 86.756387 
L 115.502947 85.091277 
L 115.813918 89.296146 
L 116.12489 91.364637 
L 116.435862 92.63989 
L 116.746834 90.59979 
L 117.057806 86.27894 
L 117.679749 88.575094 
L 117.990721 86.244638 
L 118.301693 85.445578 
L 118.612665 83.136259 
L 118.923636 83.122467 
L 119.234608 83.646396 
L 119.54558 82.60006 
L 119.856552 83.514831 
L 120.167524 82.798795 
L 120.478495 84.597888 
L 120.789467 84.343625 
L 121.100439 86.57243 
L 121.411411 87.812665 
L 121.722382 85.733605 
L 122.033354 82.75088 
L 122.655298 79.986055 
L 122.96627 84.501162 
L 123.277241 85.996466 
L 123.588213 85.756085 
L 123.899185 87.138273 
L 124.210157 87.464811 
L 124.521129 88.267991 
L 124.8321 90.17581 
L 125.143072 87.205175 
L 125.454044 85.456415 
L 125.765016 84.942696 
L 126.075987 83.605467 
L 126.386959 87.085612 
L 126.697931 87.843026 
L 127.008903 85.25562 
L 127.319875 84.30995 
L 127.630846 83.805993 
L 127.941818 84.99679 
L 128.25279 87.262404 
L 128.563762 87.178665 
L 128.874734 86.628315 
L 129.496677 90.327884 
L 129.807649 89.73356 
L 130.118621 88.309547 
L 130.740564 86.511976 
L 131.051536 86.238279 
L 131.362508 85.707812 
L 131.67348 83.732464 
L 131.984451 85.904845 
L 132.295423 84.893527 
L 132.606395 87.049519 
L 132.917367 87.243865 
L 133.228339 88.606709 
L 133.53931 89.253694 
L 133.850282 91.240596 
L 134.161254 90.596924 
L 134.472226 93.689809 
L 134.783197 93.360942 
L 135.094169 92.572899 
L 135.405141 92.406764 
L 135.716113 91.781542 
L 136.027085 91.937646 
L 136.338056 91.193039 
L 136.96 88.587543 
L 137.270972 88.596499 
L 137.581944 86.822662 
L 137.892915 86.647034 
L 138.203887 84.574333 
L 138.514859 83.711417 
L 138.825831 83.24821 
L 139.447774 81.190108 
L 139.758746 83.001112 
L 140.069718 82.00081 
L 140.691661 83.643888 
L 141.002633 83.065417 
L 141.313605 80.854076 
L 141.624577 82.448523 
L 142.24652 82.654781 
L 142.557492 82.226144 
L 142.868464 80.324146 
L 143.179436 80.694479 
L 143.490408 83.154529 
L 144.112351 82.888803 
L 144.423323 83.02404 
L 144.734295 82.443329 
L 145.045266 84.184565 
L 145.356238 84.225942 
L 145.66721 83.244269 
L 145.978182 82.915313 
L 146.289154 81.239993 
L 146.600125 81.408456 
L 147.222069 82.068965 
L 147.533041 81.048781 
L 147.844013 82.754373 
L 148.465956 84.064465 
L 149.0879 82.408669 
L 149.398871 80.202792 
L 149.709843 80.686508 
L 150.331787 75.354071 
L 151.575674 80.759769 
L 151.886646 81.076007 
L 152.197618 82.87322 
L 152.508589 83.869939 
L 152.819561 82.438492 
L 153.130533 82.977916 
L 153.752476 85.041302 
L 154.063448 84.457636 
L 154.37442 85.558156 
L 154.685392 85.533885 
L 154.996364 85.805522 
L 155.307335 85.206183 
L 155.618307 87.963126 
L 155.929279 89.556051 
L 156.240251 89.62349 
L 156.551223 92.490503 
L 156.862194 93.541586 
L 157.173166 93.30022 
L 157.484138 94.763013 
L 157.79511 91.886328 
L 158.106082 91.775541 
L 158.417053 94.637181 
L 158.728025 92.570033 
L 159.038997 93.661418 
L 159.349969 98.197662 
L 159.66094 96.561211 
L 159.971912 99.361233 
L 160.282884 98.000091 
L 160.904828 93.567021 
L 161.215799 92.761782 
L 161.526771 92.295351 
L 161.837743 95.110867 
L 162.148715 95.873027 
L 162.459687 95.433643 
L 162.770658 97.591874 
L 163.08163 101.657208 
L 163.392602 101.452562 
L 163.703574 100.573614 
L 164.325517 92.92738 
L 164.636489 92.378194 
L 164.947461 91.070431 
L 165.258433 88.780635 
L 165.880376 86.113342 
L 166.191348 87.590913 
L 166.50232 91.701295 
L 166.813292 93.951595 
L 167.124263 92.984251 
L 167.435235 93.139638 
L 167.746207 92.245824 
L 168.057179 89.795536 
L 168.36815 91.248298 
L 168.679122 89.163328 
L 168.990094 90.192558 
L 169.301066 90.255519 
L 169.612038 86.822035 
L 170.233981 92.418855 
L 170.544953 91.697265 
L 170.855925 89.894411 
L 171.166897 87.114988 
L 171.477868 89.031136 
L 171.78884 91.881491 
L 172.099812 90.148136 
L 172.410784 89.907576 
L 172.721755 86.669692 
L 173.032727 79.491681 
L 173.343699 81.496853 
L 173.654671 82.515335 
L 173.965643 82.202679 
L 174.276614 82.861756 
L 174.587586 80.957071 
L 174.898558 83.695475 
L 175.20953 89.741889 
L 175.520502 88.913275 
L 175.831473 89.289787 
L 176.453417 93.288219 
L 176.764389 97.87999 
L 177.075361 99.353262 
L 177.386332 103.805229 
L 177.697304 102.711963 
L 178.008276 97.623578 
L 178.319248 101.421215 
L 178.630219 103.615539 
L 178.941191 103.078803 
L 179.252163 105.141831 
L 179.563135 101.068884 
L 180.185078 109.162295 
L 180.807022 102.337062 
L 181.117994 100.928005 
L 181.428966 97.49273 
L 181.739937 98.078636 
L 182.050909 95.939302 
L 182.361881 97.923069 
L 182.672853 93.789759 
L 182.983824 93.589322 
L 183.294796 86.397249 
L 183.605768 89.977165 
L 183.91674 90.690246 
L 184.227712 90.509692 
L 184.538683 83.50489 
L 184.849655 89.30546 
L 185.160627 88.992446 
L 185.471599 95.260522 
L 185.782571 93.659 
L 186.715486 99.971319 
L 187.026458 96.719643 
L 187.337429 96.643696 
L 187.648401 95.158871 
L 187.959373 94.627419 
L 188.270345 94.782538 
L 188.581317 92.259079 
L 188.892288 94.872277 
L 189.825204 88.960563 
L 190.136176 94.584071 
L 190.447147 93.900455 
L 190.758119 94.131343 
L 191.069091 90.702426 
L 191.691034 97.324983 
L 192.002006 101.798266 
L 192.312978 97.805565 
L 192.62395 97.060332 
L 192.934922 94.8961 
L 193.245893 96.6591 
L 193.556865 96.091465 
L 193.867837 98.575159 
L 194.178809 98.272176 
L 194.489781 102.320404 
L 194.800752 101.406975 
L 196.044639 142.757274 
L 196.977555 156.933818 
L 197.288527 154.074865 
L 197.599498 149.442613 
L 199.154357 110.197257 
L 199.776301 100.341831 
L 200.398245 95.170156 
L 200.709216 100.076643 
L 201.020188 99.967916 
L 201.642132 104.232253 
L 201.953103 102.905503 
L 202.264075 105.608441 
L 202.575047 103.758926 
L 202.886019 106.361287 
L 203.818934 123.436908 
L 204.129906 127.373632 
L 204.440878 127.11122 
L 204.75185 130.471802 
L 205.373793 125.136767 
L 205.684765 125.308455 
L 205.995737 121.074568 
L 206.306708 118.753337 
L 206.61768 121.480905 
L 206.928652 118.579231 
L 207.239624 123.604117 
L 207.550596 124.862712 
L 208.172539 119.760983 
L 208.483511 122.011282 
L 208.794483 122.27056 
L 209.105455 122.869273 
L 209.416426 119.699186 
L 209.727398 118.805551 
L 210.03837 116.827516 
L 210.349342 119.388053 
L 210.660313 117.681655 
L 210.971285 115.321913 
L 211.282257 118.416231 
L 211.593229 115.99514 
L 211.904201 109.421752 
L 212.215172 111.125283 
L 212.526144 111.241533 
L 212.837116 110.947864 
L 213.148088 108.894329 
L 213.770031 99.592388 
L 214.081003 100.25845 
L 214.391975 96.537029 
L 215.32489 81.577278 
L 215.635862 81.520944 
L 215.946834 83.485993 
L 216.257806 81.739741 
L 216.568777 82.719713 
L 216.879749 87.187084 
L 217.190721 87.2204 
L 217.501693 94.250279 
L 217.812665 91.914718 
L 218.123636 90.800047 
L 218.434608 92.893078 
L 218.74558 97.255663 
L 219.056552 95.065101 
L 219.367524 102.717874 
L 219.678495 101.887557 
L 220.300439 116.385803 
L 220.611411 120.594434 
L 220.922382 121.902914 
L 221.233354 126.161788 
L 221.544326 121.750213 
L 221.855298 121.794277 
L 222.16627 118.259679 
L 223.099185 100.018607 
L 224.343072 71.11902 
L 225.275987 54.76087 
L 225.586959 50.957411 
L 225.897931 49.183485 
L 226.208903 50.821906 
L 226.519875 51.35515 
L 226.830846 54.259599 
L 227.141818 59.068107 
L 227.763762 64.792371 
L 228.074734 69.557442 
L 228.696677 74.99574 
L 229.007649 79.813651 
L 229.318621 81.809777 
L 229.629592 81.280922 
L 229.940564 83.579673 
L 230.251536 82.850919 
L 230.562508 80.943189 
L 230.87348 83.984577 
L 231.184451 82.490258 
L 231.495423 77.489106 
L 231.806395 77.770774 
L 232.117367 76.118023 
L 232.428339 78.700861 
L 232.73931 84.172923 
L 233.361254 81.569934 
L 233.672226 91.078222 
L 234.605141 104.848341 
L 234.916113 103.545592 
L 235.538056 113.78783 
L 235.849028 108.738315 
L 236.16 105.581573 
L 237.092915 89.767056 
L 237.403887 82.681649 
L 237.714859 69.846365 
L 238.025831 68.223616 
L 238.336803 64.543751 
L 238.647774 66.136318 
L 238.958746 65.421982 
L 239.269718 63.845268 
L 239.58069 65.501691 
L 239.891661 70.051727 
L 240.202633 70.510814 
L 240.513605 70.436748 
L 240.824577 70.527294 
L 241.135549 71.887629 
L 241.44652 75.606364 
L 241.757492 75.336876 
L 242.379436 77.433937 
L 242.690408 80.576349 
L 243.312351 78.092565 
L 243.934295 78.810752 
L 244.556238 85.934669 
L 244.86721 87.029278 
L 245.489154 94.51914 
L 246.111097 100.386522 
L 246.733041 99.26997 
L 247.044013 99.760583 
L 247.354984 98.395053 
L 247.665956 97.933279 
L 247.976928 98.854768 
L 248.2879 97.593665 
L 248.598871 98.007345 
L 249.220815 94.573861 
L 249.842759 96.68364 
L 250.15373 95.048622 
L 250.464702 96.734152 
L 250.775674 94.965152 
L 251.397618 96.121379 
L 251.708589 93.863556 
L 252.019561 90.733235 
L 252.330533 88.811265 
L 252.641505 83.328814 
L 252.952476 83.617378 
L 253.263448 83.36831 
L 253.57442 84.209105 
L 253.885392 84.086138 
L 254.196364 84.3936 
L 254.507335 85.715604 
L 254.818307 88.813594 
L 255.129279 89.492194 
L 255.440251 88.477741 
L 255.751223 89.685108 
L 256.062194 88.51267 
L 256.373166 87.82574 
L 256.684138 86.511081 
L 256.99511 85.922936 
L 257.306082 83.862685 
L 257.617053 84.245467 
L 257.928025 80.543122 
L 258.86094 79.378655 
L 259.171912 78.064175 
L 259.482884 80.21121 
L 259.793856 80.27032 
L 260.104828 82.997888 
L 260.415799 83.112078 
L 261.348715 88.369642 
L 261.659687 86.818363 
L 262.28163 84.658431 
L 262.592602 84.579438 
L 262.903574 85.827107 
L 263.214545 85.819225 
L 263.525517 87.126272 
L 263.836489 87.572374 
L 264.458433 90.115715 
L 264.769404 89.105113 
L 265.080376 90.723921 
L 265.391348 90.487212 
L 265.70232 89.697557 
L 266.013292 91.497903 
L 266.324263 90.345169 
L 266.635235 90.155748 
L 266.946207 91.253403 
L 267.257179 88.837417 
L 267.879122 85.995391 
L 268.190094 84.483429 
L 268.501066 85.241559 
L 268.812038 83.385954 
L 269.123009 84.057031 
L 269.433981 83.744913 
L 269.744953 83.065685 
L 270.055925 82.808736 
L 270.366897 82.871518 
L 270.677868 80.226436 
L 270.98884 79.49589 
L 271.299812 80.190432 
L 271.610784 75.24033 
L 271.921755 76.175879 
L 272.232727 79.443587 
L 272.543699 79.178577 
L 272.854671 81.522736 
L 273.165643 82.71407 
L 273.476614 82.113388 
L 273.787586 85.799701 
L 274.098558 85.668943 
L 274.40953 83.102584 
L 274.720502 78.693696 
L 275.031473 80.442277 
L 275.342445 80.670746 
L 275.653417 80.279814 
L 275.964389 82.370874 
L 276.275361 82.741745 
L 276.586332 77.648434 
L 276.897304 82.566922 
L 277.208276 85.427129 
L 277.519248 83.368937 
L 277.830219 83.885881 
L 278.141191 84.004549 
L 278.452163 84.864868 
L 278.763135 90.002242 
L 279.074107 91.030128 
L 279.385078 85.805343 
L 279.69605 84.840955 
L 280.007022 85.949625 
L 280.317994 83.790409 
L 280.628966 83.928512 
L 280.939937 86.19932 
L 281.250909 81.522467 
L 281.561881 83.582808 
L 281.872853 86.935687 
L 282.183824 84.638011 
L 282.494796 85.577949 
L 282.805768 87.548819 
L 283.11674 86.512872 
L 283.427712 90.527246 
L 283.738683 88.589871 
L 284.049655 89.766787 
L 284.360627 89.607727 
L 284.671599 89.224677 
L 285.293542 84.867913 
L 285.604514 84.612128 
L 285.915486 88.095766 
L 286.226458 89.335463 
L 286.848401 82.213427 
L 287.159373 81.154283 
L 287.470345 84.85009 
L 287.781317 84.349805 
L 288.40326 75.328188 
L 288.714232 80.102753 
L 289.025204 80.143861 
L 289.647147 72.873423 
L 289.958119 68.934817 
L 290.580063 76.011804 
L 290.891034 77.471194 
L 291.512978 84.231585 
L 291.82395 84.483608 
L 292.134922 84.478235 
L 292.445893 86.14227 
L 292.756865 79.49177 
L 293.067837 75.413092 
L 293.378809 73.155717 
L 293.689781 75.049118 
L 294.000752 75.052969 
L 294.311724 78.10788 
L 294.622696 73.890831 
L 295.555611 84.494356 
L 295.866583 84.363328 
L 296.177555 82.904028 
L 296.488527 82.17814 
L 296.799498 83.417748 
L 297.11047 83.650874 
L 297.421442 81.115145 
L 297.732414 80.673522 
L 298.043386 80.622473 
L 298.665329 87.611422 
L 298.976301 88.450694 
L 299.598245 92.998849 
L 299.909216 92.82143 
L 300.220188 94.403965 
L 300.53116 94.468807 
L 300.842132 90.280865 
L 301.153103 89.656269 
L 301.464075 88.101139 
L 301.775047 88.122455 
L 302.086019 86.450269 
L 302.396991 82.6203 
L 302.707962 75.595169 
L 303.640878 72.484461 
L 303.95185 68.826628 
L 304.262821 67.615858 
L 304.573793 69.065038 
L 304.884765 73.447327 
L 305.506708 79.507175 
L 305.81768 83.065864 
L 306.439624 94.282073 
L 306.750596 94.682857 
L 307.061567 94.608969 
L 307.372539 95.198367 
L 307.683511 95.313811 
L 308.305455 93.999062 
L 308.616426 88.973011 
L 308.927398 88.523865 
L 309.23837 90.747923 
L 309.549342 90.583579 
L 310.171285 86.611926 
L 310.482257 81.539215 
L 310.793229 83.654188 
L 311.104201 84.649833 
L 311.415172 85.204123 
L 311.726144 84.511193 
L 312.037116 78.909985 
L 312.65906 85.441011 
L 312.970031 85.273264 
L 313.281003 85.437339 
L 313.902947 80.962982 
L 314.213918 84.966788 
L 314.52489 79.423973 
L 314.835862 77.22132 
L 315.768777 63.815982 
L 316.079749 64.242559 
L 316.390721 64.337672 
L 316.701693 67.244182 
L 317.012665 68.247798 
L 317.323636 70.960856 
L 317.634608 76.474743 
L 318.256552 78.502305 
L 318.567524 71.830669 
L 319.189467 78.906313 
L 319.500439 81.177927 
L 319.811411 81.546021 
L 320.433354 79.267511 
L 320.744326 85.938609 
L 321.055298 82.603373 
L 321.36627 80.71875 
L 321.988213 73.094548 
L 322.299185 75.176652 
L 322.610157 78.381309 
L 322.921129 72.824433 
L 323.2321 71.993042 
L 323.543072 69.644495 
L 324.165016 75.784768 
L 324.786959 66.770048 
L 325.097931 71.729376 
L 326.341818 67.676222 
L 326.65279 72.80464 
L 326.963762 74.800318 
L 327.585705 70.725133 
L 327.896677 71.814996 
L 328.207649 71.716569 
L 328.518621 72.934592 
L 328.829592 71.64707 
L 329.140564 68.843644 
L 329.451536 68.61616 
L 329.762508 70.897537 
L 330.07348 67.250362 
L 330.384451 65.877756 
L 331.006395 58.574986 
L 331.317367 56.726993 
L 331.628339 59.552361 
L 331.93931 58.453453 
L 332.250282 60.818121 
L 332.561254 57.752373 
L 332.872226 57.392966 
L 333.494169 62.903181 
L 333.805141 62.168426 
L 334.116113 62.522011 
L 334.427085 63.758484 
L 334.738056 65.843544 
L 335.049028 66.519637 
L 335.36 64.656418 
L 335.670972 63.650385 
L 335.981944 61.612971 
L 336.292915 62.325694 
L 336.603887 61.828006 
L 336.914859 62.434689 
L 337.225831 62.500516 
L 337.536803 66.222743 
L 337.847774 67.038282 
L 338.158746 65.184915 
L 338.469718 65.109774 
L 338.78069 66.658724 
L 339.091661 66.410104 
L 339.402633 68.421366 
L 339.713605 68.239916 
L 340.024577 69.276759 
L 340.335549 73.376753 
L 340.64652 71.421198 
L 340.957492 70.56276 
L 341.268464 73.851245 
L 341.579436 73.299552 
L 342.201379 74.238236 
L 342.512351 69.673154 
L 342.823323 73.292656 
L 343.134295 74.707444 
L 343.445266 75.294335 
L 343.756238 77.572397 
L 344.06721 78.892879 
L 344.378182 77.098801 
L 344.689154 82.823424 
L 345.000125 82.630331 
L 345.622069 81.275101 
L 345.933041 80.939965 
L 346.244013 80.329341 
L 346.554984 81.224947 
L 346.865956 81.035616 
L 347.176928 78.118627 
L 347.4879 77.298611 
L 347.798871 74.448524 
L 348.109843 75.209789 
L 348.420815 74.125659 
L 348.731787 76.64446 
L 349.042759 76.478952 
L 349.35373 78.847919 
L 349.664702 78.086923 
L 349.975674 81.374423 
L 350.286646 80.424365 
L 350.597618 83.317709 
L 350.908589 83.664577 
L 351.219561 81.732755 
L 351.530533 81.425294 
L 351.841505 80.956086 
L 352.152476 82.17814 
L 352.463448 81.689318 
L 352.77442 81.531602 
L 353.085392 79.438303 
L 353.396364 81.969195 
L 353.707335 81.405322 
L 354.018307 81.689139 
L 354.329279 80.605008 
L 354.640251 80.139651 
L 354.951223 77.202512 
L 355.262194 76.480923 
L 355.573166 78.21177 
L 355.884138 77.805971 
L 356.19511 79.784902 
L 357.128025 72.385855 
L 357.438997 71.11714 
L 357.749969 64.636715 
L 358.06094 66.16229 
L 358.371912 66.903493 
L 358.682884 67.999715 
L 358.993856 69.955449 
L 359.304828 70.417045 
L 359.615799 71.469381 
L 359.926771 73.834318 
L 360.859687 77.634105 
L 361.48163 86.297837 
L 362.103574 91.106434 
L 362.414545 92.395121 
L 363.347461 83.120317 
L 363.658433 81.70123 
L 363.969404 82.556533 
L 364.280376 83.916242 
L 364.591348 80.885154 
L 365.213292 88.811534 
L 365.524263 85.481134 
L 365.835235 84.629771 
L 366.457179 76.82188 
L 366.76815 79.14741 
L 367.079122 77.614133 
L 367.390094 77.917385 
L 367.701066 82.560295 
L 368.012038 84.278694 
L 368.323009 82.899282 
L 368.633981 86.205948 
L 368.944953 82.666603 
L 369.255925 83.123541 
L 369.877868 80.853002 
L 370.18884 82.984812 
L 370.499812 88.246317 
L 371.121755 85.034316 
L 371.432727 84.041 
L 371.743699 85.494747 
L 372.054671 86.266849 
L 372.365643 83.795067 
L 372.676614 84.807012 
L 372.987586 84.574244 
L 373.298558 88.038536 
L 374.231473 84.61983 
L 374.542445 81.585876 
L 374.853417 81.653942 
L 375.475361 84.606306 
L 375.786332 84.22854 
L 376.097304 86.06892 
L 376.408276 83.483306 
L 376.719248 86.021543 
L 377.030219 82.947465 
L 377.341191 84.137098 
L 377.652163 82.899461 
L 377.963135 78.127763 
L 378.274107 82.140077 
L 378.585078 89.088724 
L 378.89605 89.834047 
L 379.207022 92.550061 
L 379.517994 91.541967 
L 379.828966 91.621049 
L 380.139937 97.456816 
L 380.761881 88.846462 
L 381.072853 87.156365 
L 381.383824 86.498542 
L 381.694796 83.88606 
L 382.31674 81.892352 
L 382.627712 81.481627 
L 382.938683 82.0884 
L 383.249655 80.199478 
L 383.871599 81.940446 
L 384.493542 82.258297 
L 384.804514 83.649531 
L 385.115486 81.804404 
L 385.426458 84.662013 
L 385.737429 82.430611 
L 386.048401 82.209576 
L 386.670345 82.839993 
L 386.981317 81.097591 
L 387.292288 83.332486 
L 387.60326 82.650214 
L 387.914232 82.933852 
L 388.225204 83.947051 
L 388.536176 83.150857 
L 388.847147 83.722433 
L 389.469091 83.745629 
L 390.712978 82.060726 
L 391.02395 80.636981 
L 391.334922 81.318717 
L 391.645893 80.194821 
L 391.956865 80.966654 
L 392.267837 80.556466 
L 392.889781 82.731982 
L 393.200752 82.274776 
L 393.511724 82.897311 
L 393.822696 82.917194 
L 394.444639 81.696214 
L 394.755611 80.379853 
L 395.066583 80.113142 
L 395.377555 81.366811 
L 395.688527 81.540916 
L 395.999498 82.270387 
L 396.31047 83.499964 
L 396.621442 85.526631 
L 396.932414 85.352346 
L 397.243386 86.091668 
L 397.554357 85.428114 
L 397.865329 84.457904 
L 398.176301 84.397003 
L 398.487273 82.573998 
L 398.487273 82.573998 
" clip-path="url(#p31ef16153b)" style="fill: none; stroke: #1f77b4; stroke-width: 1.5; stroke-linecap: square"/>
   </g>
   <g id="line2d_24">
    <path d="M 73.832727 85.097456 
L 74.143699 85.175105 
L 74.454671 85.791461 
L 74.765643 86.115223 
L 75.076614 86.14424 
L 75.387586 86.772777 
L 75.698558 85.472357 
L 76.00953 83.330516 
L 76.631473 81.385443 
L 76.942445 81.267582 
L 77.253417 80.807599 
L 77.564389 81.36162 
L 77.875361 81.595821 
L 78.186332 67.291814 
L 78.497304 66.832997 
L 78.808276 68.390361 
L 79.119248 68.466757 
L 79.430219 68.757739 
L 79.741191 68.442844 
L 80.052163 69.862379 
L 80.363135 85.5312 
L 81.29605 90.636704 
L 81.607022 95.379968 
L 81.917994 95.959178 
L 82.539937 103.143615 
L 82.850909 103.032546 
L 83.161881 97.893941 
L 83.472853 98.675789 
L 83.783824 94.391075 
L 84.094796 94.276147 
L 84.405768 91.667427 
L 84.71674 91.172539 
L 85.338683 96.628382 
L 85.649655 95.15847 
L 85.960627 97.990866 
L 86.271599 103.060412 
L 86.582571 104.824915 
L 86.893542 108.064839 
L 87.204514 104.592275 
L 87.515486 107.086585 
L 87.826458 107.914852 
L 88.137429 107.869191 
L 88.448401 103.287382 
L 88.759373 102.470547 
L 89.070345 96.391257 
L 89.381317 98.917262 
L 89.692288 102.619379 
L 90.314232 114.214762 
L 90.625204 119.368087 
L 90.936176 120.628178 
L 91.247147 128.198044 
L 91.558119 132.039648 
L 91.869091 128.884616 
L 92.491034 116.793611 
L 92.802006 108.292914 
L 93.112978 105.334101 
L 93.734922 90.39477 
L 94.356865 84.844045 
L 94.667837 83.782832 
L 94.978809 86.544501 
L 95.289781 85.205115 
L 95.600752 84.709181 
L 95.911724 85.427278 
L 96.222696 85.564664 
L 96.533668 84.473286 
L 97.155611 79.096739 
L 97.777555 81.570164 
L 98.399498 84.909757 
L 98.71047 85.376274 
L 99.021442 87.594795 
L 99.332414 90.754096 
L 99.643386 90.204276 
L 100.265329 103.134669 
L 100.576301 106.585661 
L 101.198245 119.04773 
L 101.509216 121.665769 
L 101.820188 122.627235 
L 103.064075 102.727187 
L 103.686019 94.75755 
L 103.996991 92.079778 
L 104.307962 90.456134 
L 104.618934 90.260266 
L 104.929906 89.524436 
L 105.240878 88.244794 
L 105.55185 85.886216 
L 105.862821 82.233757 
L 106.173793 85.570157 
L 106.484765 83.844773 
L 106.795737 83.48653 
L 107.106708 83.839309 
L 107.41768 83.698968 
L 107.728652 81.739472 
L 108.039624 85.486955 
L 108.350596 83.65177 
L 108.661567 86.897714 
L 108.972539 91.487066 
L 109.283511 99.1064 
L 109.905455 119.056271 
L 110.216426 120.304172 
L 110.527398 127.232847 
L 110.83837 128.923034 
L 111.149342 125.686673 
L 112.704201 84.961065 
L 113.015172 59.276779 
L 113.326144 58.234831 
L 113.637116 56.629279 
L 113.948088 54.278851 
L 114.25906 55.780065 
L 114.570031 59.445167 
L 114.881003 64.931893 
L 115.191975 86.756387 
L 115.502947 85.091277 
L 115.813918 89.296146 
L 116.12489 91.364637 
L 116.435862 92.63989 
L 116.746834 90.59979 
L 117.057806 86.27894 
L 117.679749 88.575094 
L 117.990721 86.244638 
L 118.301693 85.445578 
L 118.612665 83.136259 
L 118.923636 83.122467 
L 119.234608 83.646396 
L 119.54558 82.60006 
L 119.856552 83.514831 
L 120.167524 82.798795 
L 120.478495 84.597888 
L 120.789467 84.343625 
L 121.100439 86.57243 
L 121.411411 87.812664 
L 121.722382 85.733605 
L 122.033354 82.75088 
L 122.655298 79.986055 
L 122.96627 84.501162 
L 123.277241 85.747932 
L 123.588213 84.635468 
L 123.899185 85.254939 
L 124.210157 84.567968 
L 124.521129 84.433252 
L 124.8321 85.014649 
L 125.143072 80.791894 
L 125.454044 78.446489 
L 125.765016 78.114202 
L 126.075987 76.463155 
L 126.386959 79.623522 
L 126.697931 79.546575 
L 127.008903 76.707349 
L 127.630846 74.611539 
L 127.941818 75.179178 
L 128.25279 77.392371 
L 128.874734 77.025734 
L 129.496677 81.28604 
L 129.807649 80.629348 
L 130.118621 79.544804 
L 130.429592 79.222599 
L 130.740564 78.396548 
L 131.051536 57.206251 
L 131.362508 58.015215 
L 131.67348 57.300748 
L 131.984451 60.696172 
L 132.295423 60.659193 
L 132.606395 63.414625 
L 132.917367 64.982447 
L 133.228339 88.606709 
L 133.53931 89.253694 
L 133.850282 91.240596 
L 134.161254 90.596924 
L 134.472226 93.689809 
L 134.783197 93.360942 
L 135.094169 92.441726 
L 135.405141 92.119011 
L 135.716113 91.402532 
L 136.027085 91.519809 
L 136.338056 90.775202 
L 136.96 87.81494 
L 137.270972 87.822836 
L 137.581944 86.12522 
L 137.892915 86.009891 
L 138.203887 83.907659 
L 138.825831 82.337668 
L 139.136803 81.70733 
L 139.447774 80.729012 
L 139.758746 82.620376 
L 140.069718 81.651031 
L 140.691661 83.386966 
L 141.002633 83.065416 
L 141.313605 80.854076 
L 141.624577 82.448523 
L 142.24652 82.569135 
L 142.557492 82.095188 
L 142.868464 80.15538 
L 143.179436 80.503735 
L 143.490408 82.936335 
L 144.112351 82.65146 
L 144.423323 82.820647 
L 144.734295 82.252436 
L 145.045266 83.990426 
L 145.356238 84.006219 
L 145.66721 83.013194 
L 145.978182 82.670958 
L 146.289154 80.973988 
L 146.600125 81.14356 
L 147.222069 81.630083 
L 147.533041 80.608964 
L 147.844013 82.313804 
L 148.465956 83.563027 
L 149.0879 81.903488 
L 149.398871 79.452096 
L 149.709843 79.267749 
L 150.331787 71.530863 
L 150.642759 71.556303 
L 150.95373 71.436529 
L 151.264702 72.779141 
L 151.575674 74.764738 
L 151.886646 75.797537 
L 152.508589 81.088565 
L 152.819561 81.135643 
L 153.130533 82.977916 
L 153.752476 85.041302 
L 154.063448 84.457636 
L 154.37442 85.417517 
L 154.685392 84.066904 
L 154.996364 83.899912 
L 155.307335 80.521532 
L 155.618307 81.750713 
L 155.929279 81.7886 
L 156.240251 79.894145 
L 156.551223 68.646258 
L 156.862194 71.023683 
L 157.173166 71.220947 
L 157.484138 75.46278 
L 157.79511 74.113857 
L 158.106082 75.558108 
L 158.417053 80.381642 
L 158.728025 92.570033 
L 159.038997 93.661418 
L 159.349969 98.197661 
L 159.66094 96.56121 
L 159.971912 97.888192 
L 160.282884 94.387651 
L 160.904828 85.088957 
L 161.215799 83.001725 
L 161.526771 79.112575 
L 161.837743 77.828079 
L 162.148715 78.446085 
L 162.459687 78.523548 
L 162.770658 81.605194 
L 163.08163 86.050847 
L 163.392602 84.033078 
L 163.703574 85.705754 
L 164.014545 83.997462 
L 164.325517 79.223144 
L 165.258433 69.813357 
L 165.569404 69.902648 
L 165.880376 67.393541 
L 166.191348 68.414849 
L 166.813292 77.864881 
L 167.124263 77.767074 
L 167.435235 79.826689 
L 167.746207 78.795155 
L 168.057179 77.216539 
L 168.36815 79.501085 
L 168.679122 77.712769 
L 169.301066 79.402767 
L 169.612038 75.810444 
L 169.923009 79.175038 
L 170.233981 80.552323 
L 170.544953 79.816447 
L 170.855925 78.388049 
L 171.166897 75.856888 
L 171.477868 78.030243 
L 171.78884 81.078688 
L 172.099812 79.784283 
L 172.410784 80.482343 
L 172.721755 77.469099 
L 173.032727 70.242873 
L 173.343699 72.491467 
L 173.654671 73.599727 
L 173.965643 73.566126 
L 174.276614 74.522082 
L 174.587586 72.575145 
L 174.898558 68.037779 
L 175.20953 74.091554 
L 175.520502 73.274497 
L 175.831473 73.495197 
L 176.453417 75.809041 
L 176.764389 79.80587 
L 177.075361 87.947904 
L 177.386332 91.442997 
L 177.697304 89.790011 
L 178.008276 83.860806 
L 178.319248 87.140624 
L 178.630219 88.710127 
L 178.941191 88.893736 
L 179.252163 90.82042 
L 179.563135 86.755945 
L 180.185078 94.065822 
L 180.49605 92.492548 
L 181.117994 86.861451 
L 181.428966 83.528076 
L 181.739937 84.528499 
L 182.050909 83.490685 
L 182.361881 85.975641 
L 182.672853 81.246983 
L 182.983824 81.528427 
L 183.294796 74.537521 
L 183.605768 78.303142 
L 183.91674 79.276941 
L 184.227712 79.036484 
L 184.538683 72.099226 
L 184.849655 78.220834 
L 185.160627 77.773183 
L 185.471599 84.191213 
L 185.782571 82.728248 
L 186.093542 84.563061 
L 186.404514 85.479547 
L 186.715486 88.364857 
L 187.026458 84.52323 
L 187.337429 84.714146 
L 187.648401 83.169923 
L 187.959373 82.399225 
L 188.270345 82.239448 
L 188.581317 79.423914 
L 188.892288 82.153554 
L 189.514232 76.484001 
L 189.825204 74.822841 
L 190.136176 80.137778 
L 190.447147 79.209902 
L 190.758119 79.178412 
L 191.069091 75.444646 
L 191.691034 82.05671 
L 192.002006 86.652741 
L 192.312978 83.010893 
L 192.62395 82.646703 
L 192.934922 80.791727 
L 193.245893 83.449222 
L 193.556865 82.865211 
L 193.867837 85.8298 
L 194.178809 85.544091 
L 194.489781 89.434564 
L 194.800752 87.702168 
L 195.422696 106.433834 
L 195.733668 91.168113 
L 196.044639 102.736013 
L 196.977555 123.546969 
L 197.288527 123.625715 
L 197.599498 122.2884 
L 197.91047 140.717015 
L 199.154357 104.181897 
L 200.398245 78.460034 
L 200.709216 80.128752 
L 201.020188 77.549186 
L 201.33116 78.282687 
L 201.642132 78.248434 
L 201.953103 75.875737 
L 202.264075 78.826721 
L 202.575047 76.896161 
L 202.886019 79.235969 
L 203.507962 88.909211 
L 204.129906 97.249856 
L 204.440878 95.183501 
L 204.75185 97.787776 
L 205.373793 90.550474 
L 205.684765 90.178243 
L 205.995737 87.520785 
L 206.306708 89.298889 
L 206.61768 93.304637 
L 206.928652 89.552366 
L 207.550596 106.333931 
L 207.861567 108.499928 
L 208.172539 109.600776 
L 208.794483 116.51495 
L 209.105455 122.869272 
L 209.416426 119.699186 
L 209.727398 118.80555 
L 210.03837 111.921854 
L 210.349342 112.261619 
L 210.971285 104.105103 
L 211.282257 104.677013 
L 211.593229 100.192688 
L 211.904201 92.588819 
L 212.215172 98.79665 
L 212.837116 102.809848 
L 213.148088 102.472195 
L 213.45906 100.751066 
L 213.770031 97.438057 
L 214.081003 99.085759 
L 214.391975 95.711297 
L 215.32489 80.954843 
L 215.635862 80.606985 
L 215.946834 81.783573 
L 216.257806 79.160629 
L 216.568777 79.193414 
L 216.879749 82.444191 
L 217.190721 81.12166 
L 217.501693 86.864434 
L 217.812665 83.697025 
L 218.123636 82.011906 
L 218.434608 83.720332 
L 218.74558 87.62566 
L 219.056552 85.150605 
L 219.367524 91.674603 
L 219.678495 90.498405 
L 220.300439 105.010635 
L 220.611411 109.490428 
L 220.922382 111.297151 
L 221.233354 116.779498 
L 221.544326 114.719131 
L 221.855298 116.376911 
L 222.16627 114.226986 
L 222.477241 107.800542 
L 222.788213 104.425564 
L 224.343072 67.985974 
L 224.654044 63.913768 
L 224.965016 56.09379 
L 225.897931 46.970182 
L 226.208903 48.48474 
L 226.519875 48.666489 
L 226.830846 51.027125 
L 227.141818 55.49995 
L 227.763762 60.967899 
L 228.074734 65.22537 
L 228.696677 70.029827 
L 229.007649 74.771542 
L 229.318621 76.504642 
L 229.629592 75.28471 
L 229.940564 76.948241 
L 230.251536 76.122663 
L 230.562508 73.8001 
L 230.87348 76.34242 
L 231.184451 74.28707 
L 231.495423 69.289039 
L 231.806395 69.654811 
L 232.117367 67.933894 
L 232.428339 70.246629 
L 232.73931 75.568005 
L 233.050282 74.6195 
L 233.361254 72.984579 
L 233.672226 82.013767 
L 234.605141 95.470999 
L 234.916113 94.573716 
L 235.227085 99.645187 
L 235.538056 106.542371 
L 235.849028 102.77013 
L 236.16 101.050073 
L 237.092915 87.658475 
L 237.403887 80.696128 
L 237.714859 67.800295 
L 238.025831 65.607838 
L 238.336803 61.154191 
L 238.647774 61.66268 
L 238.958746 60.196663 
L 239.269718 58.149384 
L 239.58069 59.384555 
L 239.891661 63.422614 
L 240.202633 63.340818 
L 240.513605 63.017916 
L 240.824577 63.185099 
L 241.135549 64.292813 
L 241.44652 67.307081 
L 241.757492 66.741026 
L 242.379436 68.552335 
L 242.690408 71.499542 
L 243.312351 68.371697 
L 243.934295 68.948061 
L 244.556238 75.429227 
L 244.86721 75.819007 
L 245.489154 83.22054 
L 246.111097 89.419076 
L 246.733041 88.299139 
L 247.044013 89.622739 
L 247.354984 87.292228 
L 247.665956 87.015987 
L 247.976928 87.74853 
L 248.2879 87.749101 
L 248.598871 89.587551 
L 248.909843 89.627442 
L 249.220815 82.255565 
L 249.531787 62.038253 
L 249.842759 64.54075 
L 250.15373 64.372752 
L 250.464702 64.463874 
L 250.775674 61.099513 
L 251.086646 60.640245 
L 251.397618 66.88265 
L 251.708589 87.197681 
L 252.641505 74.759991 
L 252.952476 75.421501 
L 253.263448 75.223586 
L 253.57442 76.352207 
L 254.196364 77.17906 
L 254.507335 78.702574 
L 254.818307 82.158809 
L 255.129279 82.987926 
L 255.440251 81.316843 
L 255.751223 81.994023 
L 256.062194 80.248959 
L 256.373166 79.692887 
L 256.99511 77.345783 
L 257.306082 74.654866 
L 257.617053 75.136791 
L 257.928025 71.523065 
L 258.549969 70.587989 
L 258.86094 69.981284 
L 259.171912 68.933369 
L 259.482884 71.756018 
L 259.793856 71.95527 
L 260.104828 74.685704 
L 260.415799 74.633012 
L 261.348715 79.29247 
L 261.659687 77.546563 
L 261.970658 76.679474 
L 262.28163 75.302157 
L 262.592602 75.09955 
L 262.903574 75.318144 
L 263.214545 75.351939 
L 263.525517 76.794243 
L 263.836489 76.839465 
L 264.147461 77.582151 
L 264.458433 78.029363 
L 264.769404 76.991003 
L 265.080376 79.408497 
L 265.391348 78.897042 
L 265.70232 77.646521 
L 266.013292 79.547332 
L 266.324263 78.836532 
L 266.635235 80.035266 
L 266.946207 82.412551 
L 267.257179 80.964782 
L 267.879122 79.242329 
L 268.190094 77.945476 
L 268.501066 78.875983 
L 268.812038 76.24608 
L 269.123009 76.08801 
L 269.433981 75.296628 
L 269.744953 73.894988 
L 270.055925 73.250002 
L 270.366897 73.471601 
L 270.677868 70.347719 
L 270.98884 69.74424 
L 271.299812 70.244473 
L 271.610784 64.919002 
L 271.921755 66.233688 
L 272.232727 69.570845 
L 272.543699 69.088949 
L 272.854671 71.606014 
L 273.165643 72.96563 
L 273.476614 72.702969 
L 273.787586 76.4963 
L 274.098558 75.720752 
L 274.40953 73.402602 
L 274.720502 68.990292 
L 275.031473 71.203509 
L 275.342445 71.63632 
L 275.653417 71.023279 
L 275.964389 73.127148 
L 276.275361 73.921451 
L 276.586332 68.789881 
L 276.897304 73.857243 
L 277.208276 76.536904 
L 277.519248 74.409639 
L 277.830219 74.862464 
L 278.141191 74.917247 
L 278.452163 75.991549 
L 278.763135 80.942852 
L 279.074107 81.855621 
L 279.385078 76.516905 
L 279.69605 75.411292 
L 280.007022 76.315696 
L 280.317994 74.656991 
L 280.628966 75.146608 
L 280.939937 77.816208 
L 281.250909 73.185411 
L 281.561881 75.1116 
L 281.872853 78.327278 
L 282.183824 76.053785 
L 282.494796 76.527653 
L 282.805768 77.981717 
L 283.11674 76.710147 
L 283.427712 80.82302 
L 283.738683 79.235616 
L 284.049655 80.729801 
L 284.360627 80.809837 
L 284.671599 80.390984 
L 285.293542 76.055824 
L 285.604514 75.970222 
L 285.915486 80.000482 
L 286.226458 81.836531 
L 286.537429 79.46818 
L 286.848401 67.001313 
L 287.159373 67.29247 
L 287.470345 72.371247 
L 287.781317 72.890842 
L 288.40326 65.047173 
L 288.714232 70.176148 
L 289.025204 80.102546 
L 289.958119 64.678697 
L 290.580063 68.883021 
L 290.891034 69.135241 
L 291.202006 71.533721 
L 291.512978 75.242761 
L 291.82395 75.325132 
L 292.134922 75.161992 
L 292.445893 76.920294 
L 293.067837 66.601135 
L 293.378809 64.176501 
L 293.689781 65.407476 
L 294.000752 65.435421 
L 294.311724 68.51941 
L 294.622696 64.429239 
L 295.555611 75.655252 
L 295.866583 76.096954 
L 296.177555 74.699115 
L 296.488527 73.824946 
L 296.799498 74.787589 
L 297.11047 74.728751 
L 297.421442 72.188829 
L 297.732414 71.658853 
L 298.043386 71.418866 
L 298.665329 78.142137 
L 298.976301 79.012204 
L 299.598245 83.444271 
L 299.909216 83.402623 
L 300.220188 85.32667 
L 300.53116 85.525018 
L 300.842132 81.472793 
L 301.153103 81.569096 
L 301.464075 79.990011 
L 301.775047 79.804165 
L 302.086019 77.748636 
L 302.396991 73.707369 
L 302.707962 66.829697 
L 303.018934 66.339687 
L 303.640878 64.434653 
L 303.95185 61.533385 
L 304.262821 60.989601 
L 304.573793 62.746717 
L 304.884765 67.375748 
L 305.506708 73.643173 
L 305.81768 77.691711 
L 306.439624 89.625743 
L 306.750596 90.767406 
L 307.061567 91.175823 
L 307.372539 92.165379 
L 307.994483 87.080365 
L 308.305455 85.575324 
L 308.616426 80.06996 
L 308.927398 78.40427 
L 309.23837 78.318155 
L 309.549342 77.651052 
L 309.860313 78.557709 
L 310.171285 78.109143 
L 310.482257 74.047671 
L 311.415172 81.928143 
L 311.726144 81.949131 
L 312.037116 76.573483 
L 312.65906 83.034548 
L 312.970031 82.750718 
L 313.281003 82.797712 
L 313.591975 80.1283 
L 313.902947 76.45349 
L 314.213918 79.234126 
L 314.52489 72.758768 
L 314.835862 69.97064 
L 315.146834 64.502898 
L 315.457806 57.011921 
L 315.768777 54.333691 
L 316.079749 55.306866 
L 316.390721 55.603397 
L 316.701693 58.643898 
L 317.012665 59.3866 
L 317.323636 61.892931 
L 317.634608 67.739873 
L 318.256552 70.848683 
L 318.567524 64.517666 
L 319.189467 70.68857 
L 319.500439 72.801683 
L 319.811411 72.803339 
L 320.433354 69.530296 
L 320.744326 75.984273 
L 321.36627 71.143243 
L 321.988213 63.426556 
L 322.299185 65.109562 
L 322.610157 68.08847 
L 322.921129 62.204255 
L 323.2321 61.25391 
L 323.543072 59.312024 
L 324.165016 65.762641 
L 324.786959 57.042859 
L 325.097931 61.971984 
L 325.719875 59.587339 
L 326.341818 57.398939 
L 326.65279 62.469674 
L 326.963762 64.525753 
L 327.585705 60.279563 
L 327.896677 61.669404 
L 328.207649 61.514818 
L 328.518621 62.837181 
L 328.829592 61.781959 
L 329.140564 59.174352 
L 329.451536 59.233566 
L 329.762508 61.787472 
L 330.07348 58.303417 
L 330.384451 57.396087 
L 331.006395 50.600704 
L 331.317367 48.939475 
L 331.628339 52.174937 
L 331.93931 51.473219 
L 332.250282 53.871413 
L 332.561254 50.772882 
L 332.872226 50.672287 
L 333.494169 56.591419 
L 333.805141 56.011654 
L 334.116113 56.200549 
L 334.427085 57.609876 
L 334.738056 60.051963 
L 335.049028 60.446777 
L 335.36 58.370729 
L 335.670972 57.310397 
L 335.981944 55.166899 
L 336.292915 55.917219 
L 336.603887 55.499035 
L 336.914859 55.817981 
L 337.225831 55.804619 
L 337.536803 59.228396 
L 337.847774 59.864624 
L 338.158746 57.613976 
L 338.469718 57.073886 
L 338.78069 57.94226 
L 339.091661 57.063519 
L 339.402633 58.877749 
L 339.713605 58.717316 
L 340.024577 59.731103 
L 340.335549 63.987485 
L 340.64652 62.18144 
L 340.957492 61.559196 
L 341.268464 65.165179 
L 341.579436 64.650488 
L 341.890408 64.983132 
L 342.201379 65.035649 
L 342.512351 60.246257 
L 342.823323 63.864692 
L 343.134295 65.426001 
L 343.445266 65.930757 
L 344.06721 69.257186 
L 344.378182 67.52368 
L 344.689154 73.295141 
L 345.000125 73.137811 
L 345.622069 72.008112 
L 345.933041 71.964785 
L 346.244013 71.576179 
L 346.554984 72.43416 
L 346.865956 72.203561 
L 347.176928 69.287896 
L 347.4879 68.167576 
L 347.798871 64.998923 
L 348.109843 65.603945 
L 348.420815 64.318072 
L 348.731787 66.875615 
L 349.042759 66.817047 
L 349.35373 69.286625 
L 349.664702 68.789778 
L 349.975674 72.353888 
L 350.286646 71.642466 
L 350.597618 74.617813 
L 350.908589 74.979035 
L 351.219561 72.969647 
L 351.841505 71.590255 
L 352.152476 72.870921 
L 352.463448 72.219683 
L 352.77442 72.094497 
L 353.085392 70.097798 
L 353.396364 72.646428 
L 353.707335 72.365814 
L 354.018307 72.866936 
L 354.329279 71.761274 
L 354.640251 71.516102 
L 354.951223 68.870575 
L 355.262194 68.087693 
L 355.573166 69.01167 
L 355.884138 68.106983 
L 356.19511 69.838493 
L 357.128025 62.376908 
L 357.438997 61.422187 
L 357.749969 55.999099 
L 358.06094 58.431536 
L 358.682884 60.85993 
L 358.993856 62.980611 
L 359.615799 65.419312 
L 359.926771 68.215153 
L 360.859687 73.133201 
L 361.48163 82.26253 
L 362.103574 87.035534 
L 362.414545 87.670225 
L 363.347461 76.415192 
L 363.658433 74.150886 
L 363.969404 74.130284 
L 364.280376 75.043044 
L 364.591348 71.685343 
L 365.213292 79.06663 
L 365.524263 75.521897 
L 365.835235 75.223975 
L 366.457179 67.876769 
L 366.76815 70.445712 
L 367.079122 69.094061 
L 367.390094 69.652495 
L 367.701066 74.949085 
L 368.012038 76.16725 
L 368.323009 75.044903 
L 368.633981 78.126175 
L 368.944953 74.39928 
L 369.255925 74.585806 
L 369.566897 73.402388 
L 369.877868 71.425656 
L 370.18884 73.458862 
L 370.499812 78.385996 
L 371.121755 75.062961 
L 371.432727 74.114155 
L 371.743699 75.509422 
L 372.054671 76.300592 
L 372.365643 73.709373 
L 372.676614 74.533517 
L 372.987586 74.269447 
L 373.298558 77.581528 
L 373.920502 74.995826 
L 374.231473 74.870635 
L 374.542445 72.498132 
L 374.853417 73.324511 
L 375.475361 78.08678 
L 375.786332 79.149127 
L 376.097304 81.98921 
L 376.408276 80.155358 
L 376.719248 83.257804 
L 377.030219 80.772607 
L 377.341191 82.506111 
L 377.652163 81.733214 
L 377.963135 77.146778 
L 378.274107 81.236676 
L 378.585078 88.410943 
L 378.89605 89.394817 
L 379.207022 92.201224 
L 379.517994 91.344051 
L 379.828966 91.480621 
L 380.139937 97.32555 
L 380.761881 88.73721 
L 381.072853 87.066111 
L 381.383824 86.412386 
L 381.694796 83.799842 
L 382.31674 81.68113 
L 382.627712 81.24819 
L 382.938683 81.822064 
L 383.249655 79.913525 
L 383.871599 81.617551 
L 384.493542 82.054425 
L 384.804514 83.46368 
L 385.115486 81.631739 
L 385.426458 84.508965 
L 385.737429 82.297181 
L 386.048401 82.104858 
L 386.670345 82.780822 
L 386.981317 81.058166 
L 387.292288 83.312773 
L 387.60326 82.630501 
L 387.914232 82.914139 
L 388.225204 83.947051 
L 388.536176 83.150857 
L 388.847147 83.722433 
L 389.469091 83.745629 
L 390.712978 82.060726 
L 391.02395 80.636981 
L 391.334922 81.318717 
L 391.645893 80.194821 
L 391.956865 80.966654 
L 392.267837 80.556466 
L 392.889781 82.731982 
L 393.200752 82.274776 
L 393.511724 82.897311 
L 393.822696 82.917194 
L 394.444639 81.696214 
L 394.755611 80.379853 
L 395.066583 80.113142 
L 395.377555 81.366811 
L 395.688527 81.540916 
L 395.999498 82.270387 
L 396.31047 83.499964 
L 396.621442 85.526631 
L 396.932414 85.352346 
L 397.243386 86.091668 
L 397.554357 85.428114 
L 397.865329 84.457904 
L 398.176301 84.397003 
L 398.487273 82.573998 
L 398.487273 82.573998 
" clip-path="url(#p31ef16153b)" style="fill: none; stroke: #ff7f0e; stroke-width: 1.5; stroke-linecap: square"/>
   </g>
   <g id="patch_3">
    <path d="M 57.6 162.432 
L 57.6 41.472 
" style="fill: none; stroke: #000000; stroke-width: 0.8; stroke-linejoin: miter; stroke-linecap: square"/>
   </g>
   <g id="patch_4">
    <path d="M 414.72 162.432 
L 414.72 41.472 
" style="fill: none; stroke: #000000; stroke-width: 0.8; stroke-linejoin: miter; stroke-linecap: square"/>
   </g>
   <g id="patch_5">
    <path d="M 57.6 162.432 
L 414.72 162.432 
" style="fill: none; stroke: #000000; stroke-width: 0.8; stroke-linejoin: miter; stroke-linecap: square"/>
   </g>
   <g id="patch_6">
    <path d="M 57.6 41.472 
L 414.72 41.472 
" style="fill: none; stroke: #000000; stroke-width: 0.8; stroke-linejoin: miter; stroke-linecap: square"/>
   </g>
   <g id="legend_1">
    <g id="patch_7">
     <path d="M 247.410625 157.432 
L 407.72 157.432 
Q 409.72 157.432 409.72 155.432 
L 409.72 127.07575 
Q 409.72 125.07575 407.72 125.07575 
L 247.410625 125.07575 
Q 245.410625 125.07575 245.410625 127.07575 
L 245.410625 155.432 
Q 245.410625 157.432 247.410625 157.432 
z
" style="fill: #ffffff; opacity: 0.8; stroke: #cccccc; stroke-linejoin: miter"/>
    </g>
    <g id="line2d_25">
     <path d="M 249.410625 133.174187 
L 259.410625 133.174187 
L 269.410625 133.174187 
" style="fill: none; stroke: #1f77b4; stroke-width: 1.5; stroke-linecap: square"/>
    </g>
    <g id="text_13">
     <!-- Power output (slope only) -->
     <g transform="translate(277.410625 136.674187)scale(0.1 -0.1)">
      <defs>
       <path id="DejaVuSans-75" d="M 544 1381 
L 544 3500 
L 1119 3500 
L 1119 1403 
Q 1119 906 1312 657 
Q 1506 409 1894 409 
Q 2359 409 2629 706 
Q 2900 1003 2900 1516 
L 2900 3500 
L 3475 3500 
L 3475 0 
L 2900 0 
L 2900 538 
Q 2691 219 2414 64 
Q 2138 -91 1772 -91 
Q 1169 -91 856 284 
Q 544 659 544 1381 
z
M 1991 3584 
L 1991 3584 
z
" transform="scale(0.015625)"/>
       <path id="DejaVuSans-74" d="M 1172 4494 
L 1172 3500 
L 2356 3500 
L 2356 3053 
L 1172 3053 
L 1172 1153 
Q 1172 725 1289 603 
Q 1406 481 1766 481 
L 2356 481 
L 2356 0 
L 1766 0 
Q 1100 0 847 248 
Q 594 497 594 1153 
L 594 3053 
L 172 3053 
L 172 3500 
L 594 3500 
L 594 4494 
L 1172 4494 
z
" transform="scale(0.015625)"/>
       <path id="DejaVuSans-70" d="M 1159 525 
L 1159 -1331 
L 581 -1331 
L 581 3500 
L 1159 3500 
L 1159 2969 
Q 1341 3281 1617 3432 
Q 1894 3584 2278 3584 
Q 2916 3584 3314 3078 
Q 3713 2572 3713 1747 
Q 3713 922 3314 415 
Q 2916 -91 2278 -91 
Q 1894 -91 1617 61 
Q 1341 213 1159 525 
z
M 3116 1747 
Q 3116 2381 2855 2742 
Q 2594 3103 2138 3103 
Q 1681 3103 1420 2742 
Q 1159 2381 1159 1747 
Q 1159 1113 1420 752 
Q 1681 391 2138 391 
Q 2594 391 2855 752 
Q 3116 1113 3116 1747 
z
" transform="scale(0.015625)"/>
       <path id="DejaVuSans-28" d="M 1984 4856 
Q 1566 4138 1362 3434 
Q 1159 2731 1159 2009 
Q 1159 1288 1364 580 
Q 1569 -128 1984 -844 
L 1484 -844 
Q 1016 -109 783 600 
Q 550 1309 550 2009 
Q 550 2706 781 3412 
Q 1013 4119 1484 4856 
L 1984 4856 
z
" transform="scale(0.015625)"/>
       <path id="DejaVuSans-73" d="M 2834 3397 
L 2834 2853 
Q 2591 2978 2328 3040 
Q 2066 3103 1784 3103 
Q 1356 3103 1142 2972 
Q 928 2841 928 2578 
Q 928 2378 1081 2264 
Q 1234 2150 1697 2047 
L 1894 2003 
Q 2506 1872 2764 1633 
Q 3022 1394 3022 966 
Q 3022 478 2636 193 
Q 2250 -91 1575 -91 
Q 1294 -91 989 -36 
Q 684 19 347 128 
L 347 722 
Q 666 556 975 473 
Q 1284 391 1588 391 
Q 1994 391 2212 530 
Q 2431 669 2431 922 
Q 2431 1156 2273 1281 
Q 2116 1406 1581 1522 
L 1381 1569 
Q 847 1681 609 1914 
Q 372 2147 372 2553 
Q 372 3047 722 3315 
Q 1072 3584 1716 3584 
Q 2034 3584 2315 3537 
Q 2597 3491 2834 3397 
z
" transform="scale(0.015625)"/>
       <path id="DejaVuSans-6c" d="M 603 4863 
L 1178 4863 
L 1178 0 
L 603 0 
L 603 4863 
z
" transform="scale(0.015625)"/>
       <path id="DejaVuSans-6e" d="M 3513 2113 
L 3513 0 
L 2938 0 
L 2938 2094 
Q 2938 2591 2744 2837 
Q 2550 3084 2163 3084 
Q 1697 3084 1428 2787 
Q 1159 2491 1159 1978 
L 1159 0 
L 581 0 
L 581 3500 
L 1159 3500 
L 1159 2956 
Q 1366 3272 1645 3428 
Q 1925 3584 2291 3584 
Q 2894 3584 3203 3211 
Q 3513 2838 3513 2113 
z
" transform="scale(0.015625)"/>
       <path id="DejaVuSans-79" d="M 2059 -325 
Q 1816 -950 1584 -1140 
Q 1353 -1331 966 -1331 
L 506 -1331 
L 506 -850 
L 844 -850 
Q 1081 -850 1212 -737 
Q 1344 -625 1503 -206 
L 1606 56 
L 191 3500 
L 800 3500 
L 1894 763 
L 2988 3500 
L 3597 3500 
L 2059 -325 
z
" transform="scale(0.015625)"/>
       <path id="DejaVuSans-29" d="M 513 4856 
L 1013 4856 
Q 1481 4119 1714 3412 
Q 1947 2706 1947 2009 
Q 1947 1309 1714 600 
Q 1481 -109 1013 -844 
L 513 -844 
Q 928 -128 1133 580 
Q 1338 1288 1338 2009 
Q 1338 2731 1133 3434 
Q 928 4138 513 4856 
z
" transform="scale(0.015625)"/>
      </defs>
      <use xlink:href="#DejaVuSans-50"/>
      <use xlink:href="#DejaVuSans-6f" x="56.677734"/>
      <use xlink:href="#DejaVuSans-77" x="117.859375"/>
      <use xlink:href="#DejaVuSans-65" x="199.646484"/>
      <use xlink:href="#DejaVuSans-72" x="261.169922"/>
      <use xlink:href="#DejaVuSans-20" x="302.283203"/>
      <use xlink:href="#DejaVuSans-6f" x="334.070312"/>
      <use xlink:href="#DejaVuSans-75" x="395.251953"/>
      <use xlink:href="#DejaVuSans-74" x="458.630859"/>
      <use xlink:href="#DejaVuSans-70" x="497.839844"/>
      <use xlink:href="#DejaVuSans-75" x="561.316406"/>
      <use xlink:href="#DejaVuSans-74" x="624.695312"/>
      <use xlink:href="#DejaVuSans-20" x="663.904297"/>
      <use xlink:href="#DejaVuSans-28" x="695.691406"/>
      <use xlink:href="#DejaVuSans-73" x="734.705078"/>
      <use xlink:href="#DejaVuSans-6c" x="786.804688"/>
      <use xlink:href="#DejaVuSans-6f" x="814.587891"/>
      <use xlink:href="#DejaVuSans-70" x="875.769531"/>
      <use xlink:href="#DejaVuSans-65" x="939.246094"/>
      <use xlink:href="#DejaVuSans-20" x="1000.769531"/>
      <use xlink:href="#DejaVuSans-6f" x="1032.556641"/>
      <use xlink:href="#DejaVuSans-6e" x="1093.738281"/>
      <use xlink:href="#DejaVuSans-6c" x="1157.117188"/>
      <use xlink:href="#DejaVuSans-79" x="1184.900391"/>
      <use xlink:href="#DejaVuSans-29" x="1244.080078"/>
     </g>
    </g>
    <g id="line2d_26">
     <path d="M 249.410625 147.852312 
L 259.410625 147.852312 
L 269.410625 147.852312 
" style="fill: none; stroke: #ff7f0e; stroke-width: 1.5; stroke-linecap: square"/>
    </g>
    <g id="text_14">
     <!-- Total power output -->
     <g transform="translate(277.410625 151.352312)scale(0.1 -0.1)">
      <defs>
       <path id="DejaVuSans-54" d="M -19 4666 
L 3928 4666 
L 3928 4134 
L 2272 4134 
L 2272 0 
L 1638 0 
L 1638 4134 
L -19 4134 
L -19 4666 
z
" transform="scale(0.015625)"/>
       <path id="DejaVuSans-61" d="M 2194 1759 
Q 1497 1759 1228 1600 
Q 959 1441 959 1056 
Q 959 750 1161 570 
Q 1363 391 1709 391 
Q 2188 391 2477 730 
Q 2766 1069 2766 1631 
L 2766 1759 
L 2194 1759 
z
M 3341 1997 
L 3341 0 
L 2766 0 
L 2766 531 
Q 2569 213 2275 61 
Q 1981 -91 1556 -91 
Q 1019 -91 701 211 
Q 384 513 384 1019 
Q 384 1609 779 1909 
Q 1175 2209 1959 2209 
L 2766 2209 
L 2766 2266 
Q 2766 2663 2505 2880 
Q 2244 3097 1772 3097 
Q 1472 3097 1187 3025 
Q 903 2953 641 2809 
L 641 3341 
Q 956 3463 1253 3523 
Q 1550 3584 1831 3584 
Q 2591 3584 2966 3190 
Q 3341 2797 3341 1997 
z
" transform="scale(0.015625)"/>
      </defs>
      <use xlink:href="#DejaVuSans-54"/>
      <use xlink:href="#DejaVuSans-6f" x="44.083984"/>
      <use xlink:href="#DejaVuSans-74" x="105.265625"/>
      <use xlink:href="#DejaVuSans-61" x="144.474609"/>
      <use xlink:href="#DejaVuSans-6c" x="205.753906"/>
      <use xlink:href="#DejaVuSans-20" x="233.537109"/>
      <use xlink:href="#DejaVuSans-70" x="265.324219"/>
      <use xlink:href="#DejaVuSans-6f" x="328.800781"/>
      <use xlink:href="#DejaVuSans-77" x="389.982422"/>
      <use xlink:href="#DejaVuSans-65" x="471.769531"/>
      <use xlink:href="#DejaVuSans-72" x="533.292969"/>
      <use xlink:href="#DejaVuSans-20" x="574.40625"/>
      <use xlink:href="#DejaVuSans-6f" x="606.193359"/>
      <use xlink:href="#DejaVuSans-75" x="667.375"/>
      <use xlink:href="#DejaVuSans-74" x="730.753906"/>
      <use xlink:href="#DejaVuSans-70" x="769.962891"/>
      <use xlink:href="#DejaVuSans-75" x="833.439453"/>
      <use xlink:href="#DejaVuSans-74" x="896.818359"/>
     </g>
    </g>
   </g>
  </g>
  <g id="axes_2">
   <g id="patch_8">
    <path d="M 57.6 307.584 
L 414.72 307.584 
L 414.72 186.624 
L 57.6 186.624 
z
" style="fill: #ffffff"/>
   </g>
   <g id="matplotlib.axis_3">
    <g id="xtick_7">
     <g id="line2d_27">
      <path d="M 73.832727 307.584 
L 73.832727 186.624 
" clip-path="url(#p485da03be3)" style="fill: none; stroke: #b0b0b0; stroke-width: 0.8; stroke-linecap: square"/>
     </g>
     <g id="line2d_28">
      <g>
       <use xlink:href="#mca26fac588" x="73.832727" y="307.584" style="stroke: #000000; stroke-width: 0.8"/>
      </g>
     </g>
     <g id="text_15">
      <!-- 0 -->
      <g transform="translate(70.651477 322.182437)scale(0.1 -0.1)">
       <use xlink:href="#DejaVuSans-30"/>
      </g>
     </g>
    </g>
    <g id="xtick_8">
     <g id="line2d_29">
      <path d="M 135.671688 307.584 
L 135.671688 186.624 
" clip-path="url(#p485da03be3)" style="fill: none; stroke: #b0b0b0; stroke-width: 0.8; stroke-linecap: square"/>
     </g>
     <g id="line2d_30">
      <g>
       <use xlink:href="#mca26fac588" x="135.671688" y="307.584" style="stroke: #000000; stroke-width: 0.8"/>
      </g>
     </g>
     <g id="text_16">
      <!-- 200 -->
      <g transform="translate(126.127938 322.182437)scale(0.1 -0.1)">
       <use xlink:href="#DejaVuSans-32"/>
       <use xlink:href="#DejaVuSans-30" x="63.623047"/>
       <use xlink:href="#DejaVuSans-30" x="127.246094"/>
      </g>
     </g>
    </g>
    <g id="xtick_9">
     <g id="line2d_31">
      <path d="M 197.510649 307.584 
L 197.510649 186.624 
" clip-path="url(#p485da03be3)" style="fill: none; stroke: #b0b0b0; stroke-width: 0.8; stroke-linecap: square"/>
     </g>
     <g id="line2d_32">
      <g>
       <use xlink:href="#mca26fac588" x="197.510649" y="307.584" style="stroke: #000000; stroke-width: 0.8"/>
      </g>
     </g>
     <g id="text_17">
      <!-- 400 -->
      <g transform="translate(187.966899 322.182437)scale(0.1 -0.1)">
       <use xlink:href="#DejaVuSans-34"/>
       <use xlink:href="#DejaVuSans-30" x="63.623047"/>
       <use xlink:href="#DejaVuSans-30" x="127.246094"/>
      </g>
     </g>
    </g>
    <g id="xtick_10">
     <g id="line2d_33">
      <path d="M 259.34961 307.584 
L 259.34961 186.624 
" clip-path="url(#p485da03be3)" style="fill: none; stroke: #b0b0b0; stroke-width: 0.8; stroke-linecap: square"/>
     </g>
     <g id="line2d_34">
      <g>
       <use xlink:href="#mca26fac588" x="259.34961" y="307.584" style="stroke: #000000; stroke-width: 0.8"/>
      </g>
     </g>
     <g id="text_18">
      <!-- 600 -->
      <g transform="translate(249.80586 322.182437)scale(0.1 -0.1)">
       <use xlink:href="#DejaVuSans-36"/>
       <use xlink:href="#DejaVuSans-30" x="63.623047"/>
       <use xlink:href="#DejaVuSans-30" x="127.246094"/>
      </g>
     </g>
    </g>
    <g id="xtick_11">
     <g id="line2d_35">
      <path d="M 321.188571 307.584 
L 321.188571 186.624 
" clip-path="url(#p485da03be3)" style="fill: none; stroke: #b0b0b0; stroke-width: 0.8; stroke-linecap: square"/>
     </g>
     <g id="line2d_36">
      <g>
       <use xlink:href="#mca26fac588" x="321.188571" y="307.584" style="stroke: #000000; stroke-width: 0.8"/>
      </g>
     </g>
     <g id="text_19">
      <!-- 800 -->
      <g transform="translate(311.644821 322.182437)scale(0.1 -0.1)">
       <use xlink:href="#DejaVuSans-38"/>
       <use xlink:href="#DejaVuSans-30" x="63.623047"/>
       <use xlink:href="#DejaVuSans-30" x="127.246094"/>
      </g>
     </g>
    </g>
    <g id="xtick_12">
     <g id="line2d_37">
      <path d="M 383.027532 307.584 
L 383.027532 186.624 
" clip-path="url(#p485da03be3)" style="fill: none; stroke: #b0b0b0; stroke-width: 0.8; stroke-linecap: square"/>
     </g>
     <g id="line2d_38">
      <g>
       <use xlink:href="#mca26fac588" x="383.027532" y="307.584" style="stroke: #000000; stroke-width: 0.8"/>
      </g>
     </g>
     <g id="text_20">
      <!-- 1000 -->
      <g transform="translate(370.302532 322.182437)scale(0.1 -0.1)">
       <use xlink:href="#DejaVuSans-31"/>
       <use xlink:href="#DejaVuSans-30" x="63.623047"/>
       <use xlink:href="#DejaVuSans-30" x="127.246094"/>
       <use xlink:href="#DejaVuSans-30" x="190.869141"/>
      </g>
     </g>
    </g>
    <g id="text_21">
     <!-- Time [s] -->
     <g transform="translate(215.831094 335.860562)scale(0.1 -0.1)">
      <defs>
       <path id="DejaVuSans-69" d="M 603 3500 
L 1178 3500 
L 1178 0 
L 603 0 
L 603 3500 
z
M 603 4863 
L 1178 4863 
L 1178 4134 
L 603 4134 
L 603 4863 
z
" transform="scale(0.015625)"/>
       <path id="DejaVuSans-6d" d="M 3328 2828 
Q 3544 3216 3844 3400 
Q 4144 3584 4550 3584 
Q 5097 3584 5394 3201 
Q 5691 2819 5691 2113 
L 5691 0 
L 5113 0 
L 5113 2094 
Q 5113 2597 4934 2840 
Q 4756 3084 4391 3084 
Q 3944 3084 3684 2787 
Q 3425 2491 3425 1978 
L 3425 0 
L 2847 0 
L 2847 2094 
Q 2847 2600 2669 2842 
Q 2491 3084 2119 3084 
Q 1678 3084 1418 2786 
Q 1159 2488 1159 1978 
L 1159 0 
L 581 0 
L 581 3500 
L 1159 3500 
L 1159 2956 
Q 1356 3278 1631 3431 
Q 1906 3584 2284 3584 
Q 2666 3584 2933 3390 
Q 3200 3197 3328 2828 
z
" transform="scale(0.015625)"/>
      </defs>
      <use xlink:href="#DejaVuSans-54"/>
      <use xlink:href="#DejaVuSans-69" x="57.958984"/>
      <use xlink:href="#DejaVuSans-6d" x="85.742188"/>
      <use xlink:href="#DejaVuSans-65" x="183.154297"/>
      <use xlink:href="#DejaVuSans-20" x="244.677734"/>
      <use xlink:href="#DejaVuSans-5b" x="276.464844"/>
      <use xlink:href="#DejaVuSans-73" x="315.478516"/>
      <use xlink:href="#DejaVuSans-5d" x="367.578125"/>
     </g>
    </g>
   </g>
   <g id="matplotlib.axis_4">
    <g id="ytick_6">
     <g id="line2d_39">
      <path d="M 57.6 302.070166 
L 414.72 302.070166 
" clip-path="url(#p485da03be3)" style="fill: none; stroke: #b0b0b0; stroke-width: 0.8; stroke-linecap: square"/>
     </g>
     <g id="line2d_40">
      <g>
       <use xlink:href="#m43a1e0522c" x="57.6" y="302.070166" style="stroke: #000000; stroke-width: 0.8"/>
      </g>
     </g>
     <g id="text_22">
      <!-- 0 -->
      <g transform="translate(44.2375 305.869385)scale(0.1 -0.1)">
       <use xlink:href="#DejaVuSans-30"/>
      </g>
     </g>
    </g>
    <g id="ytick_7">
     <g id="line2d_41">
      <path d="M 57.6 277.241563 
L 414.72 277.241563 
" clip-path="url(#p485da03be3)" style="fill: none; stroke: #b0b0b0; stroke-width: 0.8; stroke-linecap: square"/>
     </g>
     <g id="line2d_42">
      <g>
       <use xlink:href="#m43a1e0522c" x="57.6" y="277.241563" style="stroke: #000000; stroke-width: 0.8"/>
      </g>
     </g>
     <g id="text_23">
      <!-- 5 -->
      <g transform="translate(44.2375 281.040781)scale(0.1 -0.1)">
       <use xlink:href="#DejaVuSans-35"/>
      </g>
     </g>
    </g>
    <g id="ytick_8">
     <g id="line2d_43">
      <path d="M 57.6 252.412959 
L 414.72 252.412959 
" clip-path="url(#p485da03be3)" style="fill: none; stroke: #b0b0b0; stroke-width: 0.8; stroke-linecap: square"/>
     </g>
     <g id="line2d_44">
      <g>
       <use xlink:href="#m43a1e0522c" x="57.6" y="252.412959" style="stroke: #000000; stroke-width: 0.8"/>
      </g>
     </g>
     <g id="text_24">
      <!-- 10 -->
      <g transform="translate(37.875 256.212178)scale(0.1 -0.1)">
       <use xlink:href="#DejaVuSans-31"/>
       <use xlink:href="#DejaVuSans-30" x="63.623047"/>
      </g>
     </g>
    </g>
    <g id="ytick_9">
     <g id="line2d_45">
      <path d="M 57.6 227.584355 
L 414.72 227.584355 
" clip-path="url(#p485da03be3)" style="fill: none; stroke: #b0b0b0; stroke-width: 0.8; stroke-linecap: square"/>
     </g>
     <g id="line2d_46">
      <g>
       <use xlink:href="#m43a1e0522c" x="57.6" y="227.584355" style="stroke: #000000; stroke-width: 0.8"/>
      </g>
     </g>
     <g id="text_25">
      <!-- 15 -->
      <g transform="translate(37.875 231.383574)scale(0.1 -0.1)">
       <use xlink:href="#DejaVuSans-31"/>
       <use xlink:href="#DejaVuSans-35" x="63.623047"/>
      </g>
     </g>
    </g>
    <g id="ytick_10">
     <g id="line2d_47">
      <path d="M 57.6 202.755751 
L 414.72 202.755751 
" clip-path="url(#p485da03be3)" style="fill: none; stroke: #b0b0b0; stroke-width: 0.8; stroke-linecap: square"/>
     </g>
     <g id="line2d_48">
      <g>
       <use xlink:href="#m43a1e0522c" x="57.6" y="202.755751" style="stroke: #000000; stroke-width: 0.8"/>
      </g>
     </g>
     <g id="text_26">
      <!-- 20 -->
      <g transform="translate(37.875 206.55497)scale(0.1 -0.1)">
       <use xlink:href="#DejaVuSans-32"/>
       <use xlink:href="#DejaVuSans-30" x="63.623047"/>
      </g>
     </g>
    </g>
    <g id="text_27">
     <!-- Energy [wh] -->
     <g transform="translate(31.795312 277.358687)rotate(-90)scale(0.1 -0.1)">
      <defs>
       <path id="DejaVuSans-45" d="M 628 4666 
L 3578 4666 
L 3578 4134 
L 1259 4134 
L 1259 2753 
L 3481 2753 
L 3481 2222 
L 1259 2222 
L 1259 531 
L 3634 531 
L 3634 0 
L 628 0 
L 628 4666 
z
" transform="scale(0.015625)"/>
       <path id="DejaVuSans-67" d="M 2906 1791 
Q 2906 2416 2648 2759 
Q 2391 3103 1925 3103 
Q 1463 3103 1205 2759 
Q 947 2416 947 1791 
Q 947 1169 1205 825 
Q 1463 481 1925 481 
Q 2391 481 2648 825 
Q 2906 1169 2906 1791 
z
M 3481 434 
Q 3481 -459 3084 -895 
Q 2688 -1331 1869 -1331 
Q 1566 -1331 1297 -1286 
Q 1028 -1241 775 -1147 
L 775 -588 
Q 1028 -725 1275 -790 
Q 1522 -856 1778 -856 
Q 2344 -856 2625 -561 
Q 2906 -266 2906 331 
L 2906 616 
Q 2728 306 2450 153 
Q 2172 0 1784 0 
Q 1141 0 747 490 
Q 353 981 353 1791 
Q 353 2603 747 3093 
Q 1141 3584 1784 3584 
Q 2172 3584 2450 3431 
Q 2728 3278 2906 2969 
L 2906 3500 
L 3481 3500 
L 3481 434 
z
" transform="scale(0.015625)"/>
       <path id="DejaVuSans-68" d="M 3513 2113 
L 3513 0 
L 2938 0 
L 2938 2094 
Q 2938 2591 2744 2837 
Q 2550 3084 2163 3084 
Q 1697 3084 1428 2787 
Q 1159 2491 1159 1978 
L 1159 0 
L 581 0 
L 581 4863 
L 1159 4863 
L 1159 2956 
Q 1366 3272 1645 3428 
Q 1925 3584 2291 3584 
Q 2894 3584 3203 3211 
Q 3513 2838 3513 2113 
z
" transform="scale(0.015625)"/>
      </defs>
      <use xlink:href="#DejaVuSans-45"/>
      <use xlink:href="#DejaVuSans-6e" x="63.183594"/>
      <use xlink:href="#DejaVuSans-65" x="126.5625"/>
      <use xlink:href="#DejaVuSans-72" x="188.085938"/>
      <use xlink:href="#DejaVuSans-67" x="227.449219"/>
      <use xlink:href="#DejaVuSans-79" x="290.925781"/>
      <use xlink:href="#DejaVuSans-20" x="350.105469"/>
      <use xlink:href="#DejaVuSans-5b" x="381.892578"/>
      <use xlink:href="#DejaVuSans-77" x="420.90625"/>
      <use xlink:href="#DejaVuSans-68" x="502.693359"/>
      <use xlink:href="#DejaVuSans-5d" x="566.072266"/>
     </g>
    </g>
   </g>
   <g id="line2d_49">
    <path d="M 73.832727 302.070166 
L 76.924675 302.033758 
L 77.23387 301.915747 
L 81.871792 302.074203 
L 97.640727 302.035396 
L 98.568312 301.803323 
L 104.752208 302.060344 
L 105.370597 302.002454 
L 106.607377 302.073076 
L 106.916571 301.679707 
L 108.462545 301.731911 
L 109.080935 301.583104 
L 112.791273 301.794971 
L 113.409662 301.583764 
L 115.574026 301.440443 
L 117.429195 301.482672 
L 118.047584 301.30981 
L 119.593558 301.289063 
L 120.211948 301.167587 
L 121.448727 301.238214 
L 121.757922 301.121227 
L 122.685506 301.069216 
L 123.303896 300.811733 
L 124.84987 300.900014 
L 125.46826 300.756321 
L 127.632623 300.779461 
L 135.980883 300.902527 
L 138.763636 300.9629 
L 139.691221 300.906713 
L 141.54639 300.920393 
L 141.855584 300.910516 
L 142.164779 300.706867 
L 143.401558 300.757518 
L 143.710753 300.602294 
L 146.184312 300.678697 
L 147.111896 300.572401 
L 148.967065 300.567797 
L 149.585455 300.509832 
L 150.513039 300.230347 
L 151.131429 299.936535 
L 154.532571 300.02425 
L 155.460156 299.960266 
L 164.426805 300.363791 
L 165.045195 300.308547 
L 168.137143 300.356332 
L 168.755532 300.156084 
L 169.992312 300.18865 
L 170.301506 300.060246 
L 173.08426 300.218633 
L 173.393455 300.042076 
L 173.702649 299.455441 
L 178.340571 299.658301 
L 178.649766 299.458882 
L 183.596883 299.712566 
L 183.906078 299.210338 
L 184.833662 299.263307 
L 185.142857 298.955105 
L 189.780779 299.166536 
L 190.399169 298.839915 
L 193.181922 298.901336 
L 193.800312 298.844389 
L 215.134753 299.961413 
L 215.443948 299.858231 
L 215.753143 299.553628 
L 217.299117 299.55701 
L 217.608312 299.457184 
L 223.173818 299.697768 
L 223.792208 299.609071 
L 224.410597 298.828137 
L 225.028987 297.916619 
L 225.338182 297.279145 
L 225.956571 296.520432 
L 226.265766 296.013367 
L 227.502545 295.007466 
L 227.81174 294.987395 
L 228.120935 294.825334 
L 230.594494 294.567389 
L 230.903688 294.375901 
L 231.522078 294.411212 
L 231.831273 293.955399 
L 233.068052 293.84875 
L 236.469195 294.011983 
L 237.087584 293.890432 
L 237.705974 293.429539 
L 238.015169 292.709668 
L 238.942753 292.309501 
L 239.251948 292.209412 
L 239.561143 291.77144 
L 239.870338 291.756548 
L 240.797922 291.11594 
L 241.725506 291.087854 
L 242.034701 291.045819 
L 242.343896 290.888942 
L 245.745039 290.807276 
L 252.547325 291.143728 
L 252.856519 290.936012 
L 256.257662 291.060657 
L 257.494442 290.988952 
L 258.112831 290.937989 
L 259.968 290.69443 
L 261.823169 290.73792 
L 262.750753 290.636545 
L 264.605922 290.742483 
L 264.915117 290.587945 
L 266.770286 290.621106 
L 268.007065 290.551795 
L 269.553039 290.630541 
L 270.171429 290.493254 
L 270.480623 290.510907 
L 270.789818 290.265724 
L 271.408208 290.217919 
L 271.717403 289.824446 
L 272.644987 289.82809 
L 274.500156 289.804985 
L 274.809351 289.439309 
L 276.355325 289.478489 
L 276.664519 289.024721 
L 277.282909 289.060033 
L 277.592104 288.930268 
L 279.447273 288.947435 
L 279.756468 288.720531 
L 280.993247 288.756423 
L 281.302442 288.51862 
L 283.466805 288.550559 
L 284.39439 288.419469 
L 286.249558 288.500018 
L 286.867948 287.731643 
L 287.486338 287.691187 
L 287.795532 287.708845 
L 288.413922 287.446531 
L 288.723117 287.464189 
L 289.341506 286.734372 
L 289.650701 286.688454 
L 289.959896 286.382129 
L 291.50587 286.381831 
L 291.815065 286.361302 
L 292.12426 286.054431 
L 292.433455 286.072089 
L 292.742649 285.65907 
L 293.361039 285.256434 
L 294.288623 285.254791 
L 295.216208 285.161311 
L 295.834597 285.196622 
L 296.452987 284.957215 
L 297.071377 284.950705 
L 297.380571 284.804936 
L 300.472519 284.981492 
L 300.781714 284.876418 
L 302.018494 284.889001 
L 302.327688 284.764078 
L 302.636883 284.210803 
L 302.946078 284.011384 
L 303.564468 283.899968 
L 304.182857 283.478299 
L 304.492052 283.495957 
L 304.801247 283.38409 
L 306.656416 283.490023 
L 306.96561 283.370712 
L 308.20239 283.441334 
L 308.820779 283.361312 
L 310.057558 283.373532 
L 310.366753 283.107991 
L 311.603532 283.178613 
L 311.912727 282.770937 
L 313.458701 282.78502 
L 313.767896 282.598458 
L 314.077091 282.594063 
L 314.386286 282.285915 
L 314.695481 282.165452 
L 315.623065 280.991571 
L 315.93226 280.847977 
L 316.859844 280.818401 
L 317.169039 280.69391 
L 317.478234 280.711568 
L 318.096623 280.50921 
L 318.405818 279.842394 
L 319.642597 279.913016 
L 320.260987 279.481157 
L 321.188571 279.521603 
L 321.806961 278.937311 
L 322.425351 278.907219 
L 322.734545 278.352633 
L 323.04374 278.32845 
L 323.352935 278.184493 
L 323.971325 278.215032 
L 324.280519 277.62733 
L 324.589714 277.407671 
L 325.208104 277.22598 
L 325.517299 276.973384 
L 327.063273 276.440165 
L 327.372468 276.128461 
L 327.990857 275.886154 
L 328.300052 275.903807 
L 328.918442 275.401962 
L 329.227636 275.098586 
L 329.536831 275.016676 
L 329.846026 274.506488 
L 330.464416 273.938067 
L 331.082805 272.894471 
L 331.392 272.875681 
L 332.01039 272.411083 
L 332.628779 271.497659 
L 333.247169 271.009081 
L 333.865558 270.759301 
L 334.174753 270.611844 
L 335.720727 268.900934 
L 336.339117 268.618156 
L 337.266701 267.921317 
L 337.575896 267.730072 
L 337.885091 267.245373 
L 338.503481 267.111045 
L 338.812675 266.810584 
L 340.049455 266.414946 
L 340.358649 266.125206 
L 340.667844 265.997175 
L 340.977039 266.014828 
L 341.595429 265.775376 
L 341.904623 265.729895 
L 342.213818 265.198349 
L 343.759792 265.283442 
L 344.068987 265.057253 
L 345.924156 265.052054 
L 346.233351 264.916073 
L 346.542545 264.933731 
L 347.47013 264.293485 
L 347.779325 264.311139 
L 348.088519 264.17912 
L 349.016104 264.206292 
L 349.325299 263.994047 
L 350.562078 264.06467 
L 350.871273 263.879419 
L 351.180468 263.848636 
L 351.489662 263.589133 
L 353.035636 263.566236 
L 353.344831 263.47866 
L 353.654026 263.247739 
L 354.272416 263.200843 
L 354.890805 262.917658 
L 355.2 262.935316 
L 356.127584 262.572148 
L 356.745974 261.891929 
L 357.055169 261.633269 
L 357.364364 261.224536 
L 358.291948 261.167142 
L 359.219532 260.577746 
L 359.528727 260.407223 
L 362.002286 260.512745 
L 362.311481 260.426381 
L 362.620675 260.094278 
L 362.92987 259.994815 
L 364.785039 260.060263 
L 365.094234 259.62534 
L 365.403429 259.618379 
L 366.021818 259.2162 
L 367.567792 259.304475 
L 367.876987 258.92435 
L 368.186182 258.942008 
L 368.495377 258.800465 
L 369.113766 258.76352 
L 369.732156 258.684461 
L 370.350545 258.711429 
L 370.65974 258.409116 
L 373.133299 258.481978 
L 373.751688 258.341061 
L 374.060883 258.167345 
L 375.606857 258.22672 
L 375.916052 257.885908 
L 377.152831 257.887865 
L 377.462026 257.39598 
L 380.863169 257.544803 
L 381.481558 257.413152 
L 382.409143 257.400698 
L 382.718338 257.197222 
L 384.264312 257.225179 
L 384.573506 257.105053 
L 386.119481 257.134545 
L 386.73787 257.091636 
L 388.283844 257.090941 
L 389.211429 257.019946 
L 390.139013 256.932187 
L 391.066597 256.897983 
L 392.303377 256.895341 
L 392.921766 256.830519 
L 394.158545 256.715954 
L 395.08613 256.726045 
L 397.559688 256.765239 
L 398.178078 256.716555 
L 398.487273 256.734213 
L 398.487273 256.734213 
" clip-path="url(#p485da03be3)" style="fill: none; stroke: #1f77b4; stroke-width: 1.5; stroke-linecap: square"/>
   </g>
   <g id="line2d_50">
    <path d="M 73.832727 302.070166 
L 76.924675 302.033758 
L 77.23387 301.915747 
L 79.089039 301.944027 
L 79.398234 300.385233 
L 80.635013 300.411203 
L 84.036156 300.605418 
L 84.345351 300.424948 
L 93.621195 300.954622 
L 93.93039 300.758421 
L 97.331532 300.893166 
L 97.949922 300.678255 
L 98.259117 300.456153 
L 104.752208 300.752001 
L 105.370597 300.694105 
L 106.607377 300.764728 
L 106.916571 300.371358 
L 108.462545 300.423563 
L 109.080935 300.274755 
L 112.791273 300.486628 
L 113.100468 300.348198 
L 113.718857 299.894227 
L 114.028052 297.785936 
L 114.646442 297.724962 
L 115.264831 297.641314 
L 117.429195 297.701201 
L 118.047584 297.528339 
L 119.593558 297.507592 
L 120.211948 297.386116 
L 121.448727 297.456744 
L 121.757922 297.339756 
L 122.685506 297.28775 
L 123.303896 297.030263 
L 124.84987 297.064392 
L 125.46826 296.724146 
L 126.086649 296.654263 
L 126.705039 296.626028 
L 127.014234 296.434798 
L 127.323429 296.452451 
L 127.941818 296.17592 
L 128.560208 295.876428 
L 129.487792 295.929397 
L 129.796987 295.798769 
L 130.415377 295.83408 
L 131.033766 295.605091 
L 131.652156 295.585158 
L 131.961351 293.320119 
L 132.888935 293.308793 
L 133.507325 293.243275 
L 138.763636 293.436804 
L 139.691221 293.371266 
L 141.54639 293.384942 
L 141.855584 293.375065 
L 142.164779 293.171416 
L 143.401558 293.210799 
L 143.710753 293.051767 
L 146.184312 293.119951 
L 147.111896 293.005933 
L 148.039481 293.023914 
L 148.65787 292.965517 
L 149.585455 292.91227 
L 149.894649 292.820995 
L 151.131429 291.966816 
L 155.150961 291.907084 
L 155.460156 291.741229 
L 155.769351 291.723392 
L 156.078545 291.494015 
L 156.696935 291.529327 
L 157.00613 291.28913 
L 157.315325 290.270283 
L 160.716468 290.44887 
L 161.025662 290.335299 
L 161.644052 289.853177 
L 163.808416 289.695009 
L 164.11761 289.465076 
L 164.426805 289.48273 
L 165.972779 288.28762 
L 166.281974 288.066675 
L 166.591169 288.049637 
L 166.900364 287.884115 
L 167.518753 287.919426 
L 167.827948 287.643263 
L 168.137143 287.660921 
L 168.755532 287.160029 
L 169.683117 287.212998 
L 170.610701 286.76504 
L 172.156675 286.650034 
L 172.46587 286.667692 
L 172.775065 286.55137 
L 173.08426 286.569023 
L 173.393455 286.255979 
L 173.702649 285.530731 
L 174.939429 285.563664 
L 175.248623 285.40055 
L 175.557818 284.630476 
L 175.867013 284.514998 
L 178.031377 284.63859 
L 178.340571 284.527859 
L 178.649766 284.098831 
L 179.886545 284.169453 
L 180.19574 283.996621 
L 181.123325 283.984783 
L 182.050909 283.818486 
L 182.669299 283.764076 
L 182.978494 283.781735 
L 183.596883 283.56079 
L 183.906078 282.889638 
L 184.833662 282.942607 
L 185.142857 282.446993 
L 185.452052 282.464652 
L 186.070442 282.33092 
L 186.998026 282.383884 
L 187.307221 282.178899 
L 187.92561 282.106742 
L 188.234805 281.926511 
L 189.471584 281.903123 
L 189.780779 281.693882 
L 190.399169 280.967348 
L 191.326753 280.923133 
L 191.635948 280.617006 
L 193.181922 280.678005 
L 193.491117 280.411634 
L 194.109506 280.390842 
L 195.037091 280.443807 
L 195.346286 280.33391 
L 195.964675 280.369222 
L 196.27387 278.860154 
L 199.365818 278.945222 
L 199.984208 278.813839 
L 200.293403 278.753545 
L 200.602597 278.551614 
L 202.148571 278.397523 
L 202.457766 278.098234 
L 202.766961 278.115892 
L 203.076156 277.87863 
L 204.62213 277.96691 
L 204.931325 277.854084 
L 207.095688 277.947643 
L 207.404883 277.594749 
L 210.187636 277.753652 
L 210.496831 277.597421 
L 213.897974 277.711747 
L 214.516364 277.639352 
L 215.134753 277.674663 
L 215.443948 277.566728 
L 215.753143 277.258952 
L 216.371532 277.294264 
L 216.680727 277.133796 
L 217.299117 277.169108 
L 217.608312 276.927957 
L 217.917506 276.945611 
L 218.535896 276.621657 
L 223.483013 276.743352 
L 223.792208 276.667485 
L 224.410597 275.819638 
L 225.028987 274.8553 
L 225.338182 274.190529 
L 225.647377 273.857891 
L 226.884156 272.047091 
L 227.502545 271.559442 
L 227.81174 271.485671 
L 228.43013 271.173025 
L 228.739325 271.093866 
L 229.048519 270.879536 
L 229.666909 270.857513 
L 229.976104 270.660865 
L 230.285299 270.623414 
L 231.212883 270.137175 
L 231.522078 270.13436 
L 231.831273 269.591254 
L 232.449662 269.220657 
L 233.377247 269.202175 
L 233.686442 269.034681 
L 236.469195 269.162335 
L 237.087584 268.999956 
L 237.705974 268.439539 
L 238.015169 267.667827 
L 239.251948 266.841953 
L 239.561143 266.319569 
L 239.870338 266.199731 
L 240.797922 265.226942 
L 241.416312 265.096532 
L 242.653091 264.275708 
L 242.962286 264.207429 
L 244.199065 263.4244 
L 249.146182 263.624166 
L 249.455377 262.985932 
L 249.764571 260.931131 
L 251.001351 260.898303 
L 251.928935 260.884955 
L 252.547325 260.615163 
L 252.856519 260.292996 
L 255.948468 260.083339 
L 258.422026 258.883472 
L 259.34961 258.321516 
L 259.658805 258.339169 
L 259.968 258.224198 
L 260.277195 258.241851 
L 260.58639 258.053824 
L 261.823169 257.862952 
L 262.132364 257.660638 
L 262.441558 257.60536 
L 262.750753 257.396924 
L 263.987532 257.272537 
L 265.224312 256.839432 
L 265.842701 256.757667 
L 266.151896 256.77532 
L 266.461091 256.576219 
L 267.388675 256.537958 
L 268.007065 256.2827 
L 268.625455 256.14447 
L 269.243844 255.900588 
L 269.553039 255.900911 
L 270.171429 255.439501 
L 270.480623 255.428969 
L 270.789818 255.008938 
L 271.099013 254.793764 
L 271.408208 254.754654 
L 271.717403 254.218564 
L 272.026597 254.054274 
L 272.644987 254.012854 
L 273.263377 253.768129 
L 273.881766 253.548565 
L 274.190961 253.306153 
L 274.500156 253.244101 
L 274.809351 252.740592 
L 275.42774 252.723619 
L 275.736935 252.596308 
L 276.04613 252.613961 
L 276.355325 252.451557 
L 276.664519 251.872624 
L 277.282909 251.897189 
L 277.592104 251.648287 
L 278.210494 251.584245 
L 279.447273 251.25609 
L 279.756468 250.895827 
L 280.065662 250.905222 
L 280.684052 250.796696 
L 280.993247 250.814354 
L 281.302442 250.446757 
L 281.920831 250.393008 
L 282.230026 250.173404 
L 282.848416 250.135143 
L 283.466805 250.170454 
L 283.776 249.993173 
L 284.085195 250.010831 
L 284.703584 249.701179 
L 285.631169 249.484365 
L 286.249558 249.519677 
L 286.558753 249.069584 
L 286.867948 247.71574 
L 287.486338 247.675284 
L 287.795532 247.692942 
L 288.413922 247.430628 
L 288.723117 247.448286 
L 289.032312 247.09429 
L 289.341506 246.523415 
L 289.650701 246.360411 
L 289.959896 245.937525 
L 290.887481 245.990494 
L 291.50587 245.680807 
L 291.815065 245.526095 
L 292.12426 245.086778 
L 292.433455 245.104436 
L 293.051844 244.270299 
L 293.361039 243.913666 
L 293.979429 243.688485 
L 295.216208 243.233908 
L 295.834597 243.22277 
L 296.452987 242.713342 
L 297.071377 242.48187 
L 297.380571 242.222644 
L 299.23574 242.221885 
L 300.472519 242.257414 
L 300.781714 242.015345 
L 301.400104 241.926797 
L 301.709299 241.890636 
L 302.327688 241.438622 
L 302.636883 240.767524 
L 302.946078 240.476101 
L 303.564468 240.195667 
L 304.182857 239.62671 
L 305.419636 239.331309 
L 306.656416 239.401931 
L 306.96561 239.238236 
L 308.20239 239.247567 
L 309.129974 238.751064 
L 310.057558 238.694629 
L 310.366753 238.39463 
L 311.603532 238.463206 
L 311.912727 238.029481 
L 313.149506 238.100103 
L 313.458701 237.957537 
L 313.767896 237.603 
L 314.077091 237.449355 
L 314.386286 237.001825 
L 314.695481 236.779494 
L 315.93226 234.952462 
L 316.859844 234.539895 
L 317.169039 234.298183 
L 317.478234 234.223102 
L 318.096623 233.867392 
L 318.405818 233.105919 
L 319.333403 233.112364 
L 319.642597 233.037451 
L 320.260987 232.352058 
L 321.188571 232.085831 
L 321.806961 231.204778 
L 322.116156 230.996928 
L 322.425351 230.988962 
L 322.734545 230.284883 
L 323.971325 229.60741 
L 324.280519 228.885528 
L 324.898909 228.305696 
L 327.063273 226.343402 
L 327.681662 225.609672 
L 327.990857 225.357751 
L 328.300052 225.275563 
L 328.918442 224.530352 
L 329.227636 224.088388 
L 329.536831 223.885658 
L 329.846026 223.26097 
L 330.464416 222.482236 
L 331.082805 221.238457 
L 331.392 221.122388 
L 332.01039 220.465845 
L 332.628779 219.364881 
L 333.247169 218.717311 
L 333.865558 218.288461 
L 334.174753 218.047286 
L 334.793143 217.232069 
L 335.411532 216.268585 
L 335.720727 215.87821 
L 336.339117 215.41611 
L 338.194286 213.226853 
L 338.503481 213.031024 
L 338.812675 212.565205 
L 340.049455 211.683889 
L 340.667844 211.010259 
L 340.977039 210.907657 
L 341.904623 210.201636 
L 342.213818 209.530876 
L 343.450597 209.254619 
L 343.759792 209.146445 
L 344.068987 208.781654 
L 345.924156 208.134655 
L 346.233351 207.856277 
L 346.542545 207.743624 
L 347.47013 206.68464 
L 347.779325 206.668615 
L 348.088519 206.391781 
L 348.706909 206.252463 
L 349.016104 206.141032 
L 349.325299 205.813751 
L 350.252883 205.681152 
L 350.562078 205.696769 
L 351.489662 204.798172 
L 351.798857 204.81583 
L 352.108052 204.662548 
L 352.417247 204.672798 
L 354.890805 203.124123 
L 355.2 203.141782 
L 356.436779 201.815055 
L 357.364364 200.560972 
L 357.982753 200.450614 
L 358.601143 199.937467 
L 359.528727 199.210634 
L 361.383896 199.226514 
L 362.002286 199.22936 
L 362.311481 199.013435 
L 362.620675 198.570771 
L 362.92987 198.345322 
L 363.54826 198.308973 
L 363.857455 198.326631 
L 364.166649 198.153556 
L 364.475844 198.171209 
L 364.785039 198.035705 
L 365.094234 197.453211 
L 365.403429 197.369201 
L 366.021818 196.739463 
L 366.949403 196.695521 
L 367.567792 196.664183 
L 367.876987 196.189877 
L 368.186182 196.20753 
L 368.495377 195.91782 
L 368.804571 195.935473 
L 369.422961 195.488921 
L 370.041351 195.524232 
L 370.350545 195.382619 
L 370.65974 194.941688 
L 371.27813 194.891246 
L 371.587325 194.722839 
L 372.205714 194.722978 
L 374.060883 193.699056 
L 375.606857 193.736433 
L 375.916052 193.370698 
L 377.152831 193.361576 
L 377.462026 192.86636 
L 380.863169 193.013613 
L 381.481558 192.872284 
L 382.409143 192.847559 
L 382.718338 192.642108 
L 384.264312 192.660595 
L 384.573506 192.538488 
L 386.119481 192.565993 
L 386.73787 192.523084 
L 388.283844 192.522389 
L 389.211429 192.451394 
L 390.139013 192.363635 
L 391.066597 192.329431 
L 392.303377 192.326789 
L 392.921766 192.261967 
L 394.158545 192.147403 
L 395.08613 192.157493 
L 397.559688 192.196687 
L 398.178078 192.148004 
L 398.487273 192.165662 
L 398.487273 192.165662 
" clip-path="url(#p485da03be3)" style="fill: none; stroke: #ff7f0e; stroke-width: 1.5; stroke-linecap: square"/>
   </g>
   <g id="patch_9">
    <path d="M 57.6 307.584 
L 57.6 186.624 
" style="fill: none; stroke: #000000; stroke-width: 0.8; stroke-linejoin: miter; stroke-linecap: square"/>
   </g>
   <g id="patch_10">
    <path d="M 414.72 307.584 
L 414.72 186.624 
" style="fill: none; stroke: #000000; stroke-width: 0.8; stroke-linejoin: miter; stroke-linecap: square"/>
   </g>
   <g id="patch_11">
    <path d="M 57.6 307.584 
L 414.72 307.584 
" style="fill: none; stroke: #000000; stroke-width: 0.8; stroke-linejoin: miter; stroke-linecap: square"/>
   </g>
   <g id="patch_12">
    <path d="M 57.6 186.624 
L 414.72 186.624 
" style="fill: none; stroke: #000000; stroke-width: 0.8; stroke-linejoin: miter; stroke-linecap: square"/>
   </g>
   <g id="legend_2">
    <g id="patch_13">
     <path d="M 64.6 223.98025 
L 178.426563 223.98025 
Q 180.426563 223.98025 180.426563 221.98025 
L 180.426563 193.624 
Q 180.426563 191.624 178.426563 191.624 
L 64.6 191.624 
Q 62.6 191.624 62.6 193.624 
L 62.6 221.98025 
Q 62.6 223.98025 64.6 223.98025 
z
" style="fill: #ffffff; opacity: 0.8; stroke: #cccccc; stroke-linejoin: miter"/>
    </g>
    <g id="line2d_51">
     <path d="M 66.6 199.722437 
L 76.6 199.722437 
L 86.6 199.722437 
" style="fill: none; stroke: #1f77b4; stroke-width: 1.5; stroke-linecap: square"/>
    </g>
    <g id="text_28">
     <!-- Potential energy -->
     <g transform="translate(94.6 203.222437)scale(0.1 -0.1)">
      <use xlink:href="#DejaVuSans-50"/>
      <use xlink:href="#DejaVuSans-6f" x="56.677734"/>
      <use xlink:href="#DejaVuSans-74" x="117.859375"/>
      <use xlink:href="#DejaVuSans-65" x="157.068359"/>
      <use xlink:href="#DejaVuSans-6e" x="218.591797"/>
      <use xlink:href="#DejaVuSans-74" x="281.970703"/>
      <use xlink:href="#DejaVuSans-69" x="321.179688"/>
      <use xlink:href="#DejaVuSans-61" x="348.962891"/>
      <use xlink:href="#DejaVuSans-6c" x="410.242188"/>
      <use xlink:href="#DejaVuSans-20" x="438.025391"/>
      <use xlink:href="#DejaVuSans-65" x="469.8125"/>
      <use xlink:href="#DejaVuSans-6e" x="531.335938"/>
      <use xlink:href="#DejaVuSans-65" x="594.714844"/>
      <use xlink:href="#DejaVuSans-72" x="656.238281"/>
      <use xlink:href="#DejaVuSans-67" x="695.601562"/>
      <use xlink:href="#DejaVuSans-79" x="759.078125"/>
     </g>
    </g>
    <g id="line2d_52">
     <path d="M 66.6 214.400562 
L 76.6 214.400562 
L 86.6 214.400562 
" style="fill: none; stroke: #ff7f0e; stroke-width: 1.5; stroke-linecap: square"/>
    </g>
    <g id="text_29">
     <!-- Total energy -->
     <g transform="translate(94.6 217.900562)scale(0.1 -0.1)">
      <use xlink:href="#DejaVuSans-54"/>
      <use xlink:href="#DejaVuSans-6f" x="44.083984"/>
      <use xlink:href="#DejaVuSans-74" x="105.265625"/>
      <use xlink:href="#DejaVuSans-61" x="144.474609"/>
      <use xlink:href="#DejaVuSans-6c" x="205.753906"/>
      <use xlink:href="#DejaVuSans-20" x="233.537109"/>
      <use xlink:href="#DejaVuSans-65" x="265.324219"/>
      <use xlink:href="#DejaVuSans-6e" x="326.847656"/>
      <use xlink:href="#DejaVuSans-65" x="390.226562"/>
      <use xlink:href="#DejaVuSans-72" x="451.75"/>
      <use xlink:href="#DejaVuSans-67" x="491.113281"/>
      <use xlink:href="#DejaVuSans-79" x="554.589844"/>
     </g>
    </g>
   </g>
  </g>
 </g>
 <defs>
  <clipPath id="p31ef16153b">
   <rect x="57.6" y="41.472" width="357.12" height="120.96"/>
  </clipPath>
  <clipPath id="p485da03be3">
   <rect x="57.6" y="186.624" width="357.12" height="120.96"/>
  </clipPath>
 </defs>
</svg>
