<?xml version="1.0" encoding="utf-8" standalone="no"?>
<!DOCTYPE svg PUBLIC "-//W3C//DTD SVG 1.1//EN"
  "http://www.w3.org/Graphics/SVG/1.1/DTD/svg11.dtd">
<!-- Created with matplotlib (https://matplotlib.org/) -->
<svg height="345.6pt" version="1.1" viewBox="0 0 460.8 345.6" width="460.8pt" xmlns="http://www.w3.org/2000/svg" xmlns:xlink="http://www.w3.org/1999/xlink">
 <metadata>
  <rdf:RDF xmlns:cc="http://creativecommons.org/ns#" xmlns:dc="http://purl.org/dc/elements/1.1/" xmlns:rdf="http://www.w3.org/1999/02/22-rdf-syntax-ns#">
   <cc:Work>
    <dc:type rdf:resource="http://purl.org/dc/dcmitype/StillImage"/>
    <dc:date>2021-12-18T23:05:52.216511</dc:date>
    <dc:format>image/svg+xml</dc:format>
    <dc:creator>
     <cc:Agent>
      <dc:title>Matplotlib v3.3.4, https://matplotlib.org/</dc:title>
     </cc:Agent>
    </dc:creator>
   </cc:Work>
  </rdf:RDF>
 </metadata>
 <defs>
  <style type="text/css">*{stroke-linecap:butt;stroke-linejoin:round;}</style>
 </defs>
 <g id="figure_1">
  <g id="patch_1">
   <path d="M 0 345.6 
L 460.8 345.6 
L 460.8 0 
L 0 0 
z
" style="fill:#ffffff;"/>
  </g>
  <g id="axes_1">
   <g id="patch_2">
    <path d="M 57.6 162.432 
L 414.72 162.432 
L 414.72 41.472 
L 57.6 41.472 
z
" style="fill:#ffffff;"/>
   </g>
   <g id="matplotlib.axis_1">
    <g id="xtick_1">
     <g id="line2d_1">
      <path clip-path="url(#p28d70cacbe)" d="M 72.930909 162.432 
L 72.930909 41.472 
" style="fill:none;stroke:#b0b0b0;stroke-linecap:square;stroke-width:0.8;"/>
     </g>
     <g id="line2d_2">
      <defs>
       <path d="M 0 0 
L 0 3.5 
" id="ma5a624deab" style="stroke:#000000;stroke-width:0.8;"/>
      </defs>
      <g>
       <use style="stroke:#000000;stroke-width:0.8;" x="72.930909" xlink:href="#ma5a624deab" y="162.432"/>
      </g>
     </g>
     <g id="text_1">
      <!-- 0 -->
      <g transform="translate(69.749659 177.030437)scale(0.1 -0.1)">
       <defs>
        <path d="M 31.78125 66.40625 
Q 24.171875 66.40625 20.328125 58.90625 
Q 16.5 51.421875 16.5 36.375 
Q 16.5 21.390625 20.328125 13.890625 
Q 24.171875 6.390625 31.78125 6.390625 
Q 39.453125 6.390625 43.28125 13.890625 
Q 47.125 21.390625 47.125 36.375 
Q 47.125 51.421875 43.28125 58.90625 
Q 39.453125 66.40625 31.78125 66.40625 
z
M 31.78125 74.21875 
Q 44.046875 74.21875 50.515625 64.515625 
Q 56.984375 54.828125 56.984375 36.375 
Q 56.984375 17.96875 50.515625 8.265625 
Q 44.046875 -1.421875 31.78125 -1.421875 
Q 19.53125 -1.421875 13.0625 8.265625 
Q 6.59375 17.96875 6.59375 36.375 
Q 6.59375 54.828125 13.0625 64.515625 
Q 19.53125 74.21875 31.78125 74.21875 
z
" id="DejaVuSans-48"/>
       </defs>
       <use xlink:href="#DejaVuSans-48"/>
      </g>
     </g>
    </g>
    <g id="xtick_2">
     <g id="line2d_3">
      <path clip-path="url(#p28d70cacbe)" d="M 133.052121 162.432 
L 133.052121 41.472 
" style="fill:none;stroke:#b0b0b0;stroke-linecap:square;stroke-width:0.8;"/>
     </g>
     <g id="line2d_4">
      <g>
       <use style="stroke:#000000;stroke-width:0.8;" x="133.052121" xlink:href="#ma5a624deab" y="162.432"/>
      </g>
     </g>
     <g id="text_2">
      <!-- 200 -->
      <g transform="translate(123.508371 177.030437)scale(0.1 -0.1)">
       <defs>
        <path d="M 19.1875 8.296875 
L 53.609375 8.296875 
L 53.609375 0 
L 7.328125 0 
L 7.328125 8.296875 
Q 12.9375 14.109375 22.625 23.890625 
Q 32.328125 33.6875 34.8125 36.53125 
Q 39.546875 41.84375 41.421875 45.53125 
Q 43.3125 49.21875 43.3125 52.78125 
Q 43.3125 58.59375 39.234375 62.25 
Q 35.15625 65.921875 28.609375 65.921875 
Q 23.96875 65.921875 18.8125 64.3125 
Q 13.671875 62.703125 7.8125 59.421875 
L 7.8125 69.390625 
Q 13.765625 71.78125 18.9375 73 
Q 24.125 74.21875 28.421875 74.21875 
Q 39.75 74.21875 46.484375 68.546875 
Q 53.21875 62.890625 53.21875 53.421875 
Q 53.21875 48.921875 51.53125 44.890625 
Q 49.859375 40.875 45.40625 35.40625 
Q 44.1875 33.984375 37.640625 27.21875 
Q 31.109375 20.453125 19.1875 8.296875 
z
" id="DejaVuSans-50"/>
       </defs>
       <use xlink:href="#DejaVuSans-50"/>
       <use x="63.623047" xlink:href="#DejaVuSans-48"/>
       <use x="127.246094" xlink:href="#DejaVuSans-48"/>
      </g>
     </g>
    </g>
    <g id="xtick_3">
     <g id="line2d_5">
      <path clip-path="url(#p28d70cacbe)" d="M 193.173333 162.432 
L 193.173333 41.472 
" style="fill:none;stroke:#b0b0b0;stroke-linecap:square;stroke-width:0.8;"/>
     </g>
     <g id="line2d_6">
      <g>
       <use style="stroke:#000000;stroke-width:0.8;" x="193.173333" xlink:href="#ma5a624deab" y="162.432"/>
      </g>
     </g>
     <g id="text_3">
      <!-- 400 -->
      <g transform="translate(183.629583 177.030437)scale(0.1 -0.1)">
       <defs>
        <path d="M 37.796875 64.3125 
L 12.890625 25.390625 
L 37.796875 25.390625 
z
M 35.203125 72.90625 
L 47.609375 72.90625 
L 47.609375 25.390625 
L 58.015625 25.390625 
L 58.015625 17.1875 
L 47.609375 17.1875 
L 47.609375 0 
L 37.796875 0 
L 37.796875 17.1875 
L 4.890625 17.1875 
L 4.890625 26.703125 
z
" id="DejaVuSans-52"/>
       </defs>
       <use xlink:href="#DejaVuSans-52"/>
       <use x="63.623047" xlink:href="#DejaVuSans-48"/>
       <use x="127.246094" xlink:href="#DejaVuSans-48"/>
      </g>
     </g>
    </g>
    <g id="xtick_4">
     <g id="line2d_7">
      <path clip-path="url(#p28d70cacbe)" d="M 253.294545 162.432 
L 253.294545 41.472 
" style="fill:none;stroke:#b0b0b0;stroke-linecap:square;stroke-width:0.8;"/>
     </g>
     <g id="line2d_8">
      <g>
       <use style="stroke:#000000;stroke-width:0.8;" x="253.294545" xlink:href="#ma5a624deab" y="162.432"/>
      </g>
     </g>
     <g id="text_4">
      <!-- 600 -->
      <g transform="translate(243.750795 177.030437)scale(0.1 -0.1)">
       <defs>
        <path d="M 33.015625 40.375 
Q 26.375 40.375 22.484375 35.828125 
Q 18.609375 31.296875 18.609375 23.390625 
Q 18.609375 15.53125 22.484375 10.953125 
Q 26.375 6.390625 33.015625 6.390625 
Q 39.65625 6.390625 43.53125 10.953125 
Q 47.40625 15.53125 47.40625 23.390625 
Q 47.40625 31.296875 43.53125 35.828125 
Q 39.65625 40.375 33.015625 40.375 
z
M 52.59375 71.296875 
L 52.59375 62.3125 
Q 48.875 64.0625 45.09375 64.984375 
Q 41.3125 65.921875 37.59375 65.921875 
Q 27.828125 65.921875 22.671875 59.328125 
Q 17.53125 52.734375 16.796875 39.40625 
Q 19.671875 43.65625 24.015625 45.921875 
Q 28.375 48.1875 33.59375 48.1875 
Q 44.578125 48.1875 50.953125 41.515625 
Q 57.328125 34.859375 57.328125 23.390625 
Q 57.328125 12.15625 50.6875 5.359375 
Q 44.046875 -1.421875 33.015625 -1.421875 
Q 20.359375 -1.421875 13.671875 8.265625 
Q 6.984375 17.96875 6.984375 36.375 
Q 6.984375 53.65625 15.1875 63.9375 
Q 23.390625 74.21875 37.203125 74.21875 
Q 40.921875 74.21875 44.703125 73.484375 
Q 48.484375 72.75 52.59375 71.296875 
z
" id="DejaVuSans-54"/>
       </defs>
       <use xlink:href="#DejaVuSans-54"/>
       <use x="63.623047" xlink:href="#DejaVuSans-48"/>
       <use x="127.246094" xlink:href="#DejaVuSans-48"/>
      </g>
     </g>
    </g>
    <g id="xtick_5">
     <g id="line2d_9">
      <path clip-path="url(#p28d70cacbe)" d="M 313.415758 162.432 
L 313.415758 41.472 
" style="fill:none;stroke:#b0b0b0;stroke-linecap:square;stroke-width:0.8;"/>
     </g>
     <g id="line2d_10">
      <g>
       <use style="stroke:#000000;stroke-width:0.8;" x="313.415758" xlink:href="#ma5a624deab" y="162.432"/>
      </g>
     </g>
     <g id="text_5">
      <!-- 800 -->
      <g transform="translate(303.872008 177.030437)scale(0.1 -0.1)">
       <defs>
        <path d="M 31.78125 34.625 
Q 24.75 34.625 20.71875 30.859375 
Q 16.703125 27.09375 16.703125 20.515625 
Q 16.703125 13.921875 20.71875 10.15625 
Q 24.75 6.390625 31.78125 6.390625 
Q 38.8125 6.390625 42.859375 10.171875 
Q 46.921875 13.96875 46.921875 20.515625 
Q 46.921875 27.09375 42.890625 30.859375 
Q 38.875 34.625 31.78125 34.625 
z
M 21.921875 38.8125 
Q 15.578125 40.375 12.03125 44.71875 
Q 8.5 49.078125 8.5 55.328125 
Q 8.5 64.0625 14.71875 69.140625 
Q 20.953125 74.21875 31.78125 74.21875 
Q 42.671875 74.21875 48.875 69.140625 
Q 55.078125 64.0625 55.078125 55.328125 
Q 55.078125 49.078125 51.53125 44.71875 
Q 48 40.375 41.703125 38.8125 
Q 48.828125 37.15625 52.796875 32.3125 
Q 56.78125 27.484375 56.78125 20.515625 
Q 56.78125 9.90625 50.3125 4.234375 
Q 43.84375 -1.421875 31.78125 -1.421875 
Q 19.734375 -1.421875 13.25 4.234375 
Q 6.78125 9.90625 6.78125 20.515625 
Q 6.78125 27.484375 10.78125 32.3125 
Q 14.796875 37.15625 21.921875 38.8125 
z
M 18.3125 54.390625 
Q 18.3125 48.734375 21.84375 45.5625 
Q 25.390625 42.390625 31.78125 42.390625 
Q 38.140625 42.390625 41.71875 45.5625 
Q 45.3125 48.734375 45.3125 54.390625 
Q 45.3125 60.0625 41.71875 63.234375 
Q 38.140625 66.40625 31.78125 66.40625 
Q 25.390625 66.40625 21.84375 63.234375 
Q 18.3125 60.0625 18.3125 54.390625 
z
" id="DejaVuSans-56"/>
       </defs>
       <use xlink:href="#DejaVuSans-56"/>
       <use x="63.623047" xlink:href="#DejaVuSans-48"/>
       <use x="127.246094" xlink:href="#DejaVuSans-48"/>
      </g>
     </g>
    </g>
    <g id="xtick_6">
     <g id="line2d_11">
      <path clip-path="url(#p28d70cacbe)" d="M 373.53697 162.432 
L 373.53697 41.472 
" style="fill:none;stroke:#b0b0b0;stroke-linecap:square;stroke-width:0.8;"/>
     </g>
     <g id="line2d_12">
      <g>
       <use style="stroke:#000000;stroke-width:0.8;" x="373.53697" xlink:href="#ma5a624deab" y="162.432"/>
      </g>
     </g>
     <g id="text_6">
      <!-- 1000 -->
      <g transform="translate(360.81197 177.030437)scale(0.1 -0.1)">
       <defs>
        <path d="M 12.40625 8.296875 
L 28.515625 8.296875 
L 28.515625 63.921875 
L 10.984375 60.40625 
L 10.984375 69.390625 
L 28.421875 72.90625 
L 38.28125 72.90625 
L 38.28125 8.296875 
L 54.390625 8.296875 
L 54.390625 0 
L 12.40625 0 
z
" id="DejaVuSans-49"/>
       </defs>
       <use xlink:href="#DejaVuSans-49"/>
       <use x="63.623047" xlink:href="#DejaVuSans-48"/>
       <use x="127.246094" xlink:href="#DejaVuSans-48"/>
       <use x="190.869141" xlink:href="#DejaVuSans-48"/>
      </g>
     </g>
    </g>
   </g>
   <g id="matplotlib.axis_2">
    <g id="ytick_1">
     <g id="line2d_13">
      <path clip-path="url(#p28d70cacbe)" d="M 57.6 157.146926 
L 414.72 157.146926 
" style="fill:none;stroke:#b0b0b0;stroke-linecap:square;stroke-width:0.8;"/>
     </g>
     <g id="line2d_14">
      <defs>
       <path d="M 0 0 
L -3.5 0 
" id="m9d6d0bae58" style="stroke:#000000;stroke-width:0.8;"/>
      </defs>
      <g>
       <use style="stroke:#000000;stroke-width:0.8;" x="57.6" xlink:href="#m9d6d0bae58" y="157.146926"/>
      </g>
     </g>
     <g id="text_7">
      <!-- −1000 -->
      <g transform="translate(16.770313 160.946145)scale(0.1 -0.1)">
       <defs>
        <path d="M 10.59375 35.5 
L 73.1875 35.5 
L 73.1875 27.203125 
L 10.59375 27.203125 
z
" id="DejaVuSans-8722"/>
       </defs>
       <use xlink:href="#DejaVuSans-8722"/>
       <use x="83.789062" xlink:href="#DejaVuSans-49"/>
       <use x="147.412109" xlink:href="#DejaVuSans-48"/>
       <use x="211.035156" xlink:href="#DejaVuSans-48"/>
       <use x="274.658203" xlink:href="#DejaVuSans-48"/>
      </g>
     </g>
    </g>
    <g id="ytick_2">
     <g id="line2d_15">
      <path clip-path="url(#p28d70cacbe)" d="M 57.6 119.580059 
L 414.72 119.580059 
" style="fill:none;stroke:#b0b0b0;stroke-linecap:square;stroke-width:0.8;"/>
     </g>
     <g id="line2d_16">
      <g>
       <use style="stroke:#000000;stroke-width:0.8;" x="57.6" xlink:href="#m9d6d0bae58" y="119.580059"/>
      </g>
     </g>
     <g id="text_8">
      <!-- −500 -->
      <g transform="translate(23.132812 123.379278)scale(0.1 -0.1)">
       <defs>
        <path d="M 10.796875 72.90625 
L 49.515625 72.90625 
L 49.515625 64.59375 
L 19.828125 64.59375 
L 19.828125 46.734375 
Q 21.96875 47.46875 24.109375 47.828125 
Q 26.265625 48.1875 28.421875 48.1875 
Q 40.625 48.1875 47.75 41.5 
Q 54.890625 34.8125 54.890625 23.390625 
Q 54.890625 11.625 47.5625 5.09375 
Q 40.234375 -1.421875 26.90625 -1.421875 
Q 22.3125 -1.421875 17.546875 -0.640625 
Q 12.796875 0.140625 7.71875 1.703125 
L 7.71875 11.625 
Q 12.109375 9.234375 16.796875 8.0625 
Q 21.484375 6.890625 26.703125 6.890625 
Q 35.15625 6.890625 40.078125 11.328125 
Q 45.015625 15.765625 45.015625 23.390625 
Q 45.015625 31 40.078125 35.4375 
Q 35.15625 39.890625 26.703125 39.890625 
Q 22.75 39.890625 18.8125 39.015625 
Q 14.890625 38.140625 10.796875 36.28125 
z
" id="DejaVuSans-53"/>
       </defs>
       <use xlink:href="#DejaVuSans-8722"/>
       <use x="83.789062" xlink:href="#DejaVuSans-53"/>
       <use x="147.412109" xlink:href="#DejaVuSans-48"/>
       <use x="211.035156" xlink:href="#DejaVuSans-48"/>
      </g>
     </g>
    </g>
    <g id="ytick_3">
     <g id="line2d_17">
      <path clip-path="url(#p28d70cacbe)" d="M 57.6 82.013192 
L 414.72 82.013192 
" style="fill:none;stroke:#b0b0b0;stroke-linecap:square;stroke-width:0.8;"/>
     </g>
     <g id="line2d_18">
      <g>
       <use style="stroke:#000000;stroke-width:0.8;" x="57.6" xlink:href="#m9d6d0bae58" y="82.013192"/>
      </g>
     </g>
     <g id="text_9">
      <!-- 0 -->
      <g transform="translate(44.2375 85.81241)scale(0.1 -0.1)">
       <use xlink:href="#DejaVuSans-48"/>
      </g>
     </g>
    </g>
    <g id="ytick_4">
     <g id="line2d_19">
      <path clip-path="url(#p28d70cacbe)" d="M 57.6 44.446324 
L 414.72 44.446324 
" style="fill:none;stroke:#b0b0b0;stroke-linecap:square;stroke-width:0.8;"/>
     </g>
     <g id="line2d_20">
      <g>
       <use style="stroke:#000000;stroke-width:0.8;" x="57.6" xlink:href="#m9d6d0bae58" y="44.446324"/>
      </g>
     </g>
     <g id="text_10">
      <!-- 500 -->
      <g transform="translate(31.5125 48.245543)scale(0.1 -0.1)">
       <use xlink:href="#DejaVuSans-53"/>
       <use x="63.623047" xlink:href="#DejaVuSans-48"/>
       <use x="127.246094" xlink:href="#DejaVuSans-48"/>
      </g>
     </g>
    </g>
    <g id="text_11">
     <!-- Power [w] -->
     <g transform="translate(10.690625 126.64575)rotate(-90)scale(0.1 -0.1)">
      <defs>
       <path d="M 19.671875 64.796875 
L 19.671875 37.40625 
L 32.078125 37.40625 
Q 38.96875 37.40625 42.71875 40.96875 
Q 46.484375 44.53125 46.484375 51.125 
Q 46.484375 57.671875 42.71875 61.234375 
Q 38.96875 64.796875 32.078125 64.796875 
z
M 9.8125 72.90625 
L 32.078125 72.90625 
Q 44.34375 72.90625 50.609375 67.359375 
Q 56.890625 61.8125 56.890625 51.125 
Q 56.890625 40.328125 50.609375 34.8125 
Q 44.34375 29.296875 32.078125 29.296875 
L 19.671875 29.296875 
L 19.671875 0 
L 9.8125 0 
z
" id="DejaVuSans-80"/>
       <path d="M 30.609375 48.390625 
Q 23.390625 48.390625 19.1875 42.75 
Q 14.984375 37.109375 14.984375 27.296875 
Q 14.984375 17.484375 19.15625 11.84375 
Q 23.34375 6.203125 30.609375 6.203125 
Q 37.796875 6.203125 41.984375 11.859375 
Q 46.1875 17.53125 46.1875 27.296875 
Q 46.1875 37.015625 41.984375 42.703125 
Q 37.796875 48.390625 30.609375 48.390625 
z
M 30.609375 56 
Q 42.328125 56 49.015625 48.375 
Q 55.71875 40.765625 55.71875 27.296875 
Q 55.71875 13.875 49.015625 6.21875 
Q 42.328125 -1.421875 30.609375 -1.421875 
Q 18.84375 -1.421875 12.171875 6.21875 
Q 5.515625 13.875 5.515625 27.296875 
Q 5.515625 40.765625 12.171875 48.375 
Q 18.84375 56 30.609375 56 
z
" id="DejaVuSans-111"/>
       <path d="M 4.203125 54.6875 
L 13.1875 54.6875 
L 24.421875 12.015625 
L 35.59375 54.6875 
L 46.1875 54.6875 
L 57.421875 12.015625 
L 68.609375 54.6875 
L 77.59375 54.6875 
L 63.28125 0 
L 52.6875 0 
L 40.921875 44.828125 
L 29.109375 0 
L 18.5 0 
z
" id="DejaVuSans-119"/>
       <path d="M 56.203125 29.59375 
L 56.203125 25.203125 
L 14.890625 25.203125 
Q 15.484375 15.921875 20.484375 11.0625 
Q 25.484375 6.203125 34.421875 6.203125 
Q 39.59375 6.203125 44.453125 7.46875 
Q 49.3125 8.734375 54.109375 11.28125 
L 54.109375 2.78125 
Q 49.265625 0.734375 44.1875 -0.34375 
Q 39.109375 -1.421875 33.890625 -1.421875 
Q 20.796875 -1.421875 13.15625 6.1875 
Q 5.515625 13.8125 5.515625 26.8125 
Q 5.515625 40.234375 12.765625 48.109375 
Q 20.015625 56 32.328125 56 
Q 43.359375 56 49.78125 48.890625 
Q 56.203125 41.796875 56.203125 29.59375 
z
M 47.21875 32.234375 
Q 47.125 39.59375 43.09375 43.984375 
Q 39.0625 48.390625 32.421875 48.390625 
Q 24.90625 48.390625 20.390625 44.140625 
Q 15.875 39.890625 15.1875 32.171875 
z
" id="DejaVuSans-101"/>
       <path d="M 41.109375 46.296875 
Q 39.59375 47.171875 37.8125 47.578125 
Q 36.03125 48 33.890625 48 
Q 26.265625 48 22.1875 43.046875 
Q 18.109375 38.09375 18.109375 28.8125 
L 18.109375 0 
L 9.078125 0 
L 9.078125 54.6875 
L 18.109375 54.6875 
L 18.109375 46.1875 
Q 20.953125 51.171875 25.484375 53.578125 
Q 30.03125 56 36.53125 56 
Q 37.453125 56 38.578125 55.875 
Q 39.703125 55.765625 41.0625 55.515625 
z
" id="DejaVuSans-114"/>
       <path id="DejaVuSans-32"/>
       <path d="M 8.59375 75.984375 
L 29.296875 75.984375 
L 29.296875 69 
L 17.578125 69 
L 17.578125 -6.203125 
L 29.296875 -6.203125 
L 29.296875 -13.1875 
L 8.59375 -13.1875 
z
" id="DejaVuSans-91"/>
       <path d="M 30.421875 75.984375 
L 30.421875 -13.1875 
L 9.71875 -13.1875 
L 9.71875 -6.203125 
L 21.390625 -6.203125 
L 21.390625 69 
L 9.71875 69 
L 9.71875 75.984375 
z
" id="DejaVuSans-93"/>
      </defs>
      <use xlink:href="#DejaVuSans-80"/>
      <use x="56.677734" xlink:href="#DejaVuSans-111"/>
      <use x="117.859375" xlink:href="#DejaVuSans-119"/>
      <use x="199.646484" xlink:href="#DejaVuSans-101"/>
      <use x="261.169922" xlink:href="#DejaVuSans-114"/>
      <use x="302.283203" xlink:href="#DejaVuSans-32"/>
      <use x="334.070312" xlink:href="#DejaVuSans-91"/>
      <use x="373.083984" xlink:href="#DejaVuSans-119"/>
      <use x="454.871094" xlink:href="#DejaVuSans-93"/>
     </g>
    </g>
   </g>
   <g id="line2d_21">
    <path clip-path="url(#p28d70cacbe)" d="M 73.832727 81.829207 
L 74.433939 82.090127 
L 75.035152 81.715489 
L 75.335758 81.157849 
L 75.636364 82.496915 
L 75.93697 82.807955 
L 76.237576 82.706943 
L 76.538182 82.39506 
L 76.838788 82.503373 
L 77.139394 82.784299 
L 77.44 83.409257 
L 78.341818 81.085196 
L 78.642424 79.325372 
L 78.94303 81.15827 
L 79.243636 84.198265 
L 79.844848 86.167905 
L 81.047273 92.209286 
L 81.648485 96.722773 
L 81.949091 95.904985 
L 82.249697 98.671354 
L 82.550303 98.678373 
L 82.850909 99.885541 
L 83.752727 89.706715 
L 84.053333 89.609001 
L 84.353939 86.535102 
L 84.654545 85.961106 
L 84.955152 84.869974 
L 85.255758 84.372913 
L 85.85697 79.835139 
L 86.758788 74.509971 
L 87.36 67.39992 
L 87.660606 66.496212 
L 87.961212 64.148845 
L 88.261818 64.330865 
L 88.562424 62.932272 
L 88.86303 62.51348 
L 89.163636 64.950418 
L 89.464242 66.244137 
L 90.065455 70.822485 
L 90.366061 71.856057 
L 90.666667 74.651206 
L 90.967273 74.314784 
L 91.267879 73.395864 
L 92.169697 74.529915 
L 92.470303 75.639602 
L 92.770909 73.703388 
L 93.372121 80.469063 
L 93.672727 81.828412 
L 94.273939 81.494059 
L 94.574545 81.577318 
L 94.875152 84.688274 
L 95.77697 80.602809 
L 96.077576 81.518975 
L 96.378182 84.538128 
L 96.678788 84.159254 
L 96.979394 80.872539 
L 97.28 81.441732 
L 97.580606 75.772798 
L 97.881212 80.577947 
L 98.482424 74.562239 
L 98.78303 76.47853 
L 99.083636 71.45617 
L 99.384242 70.675496 
L 99.684848 84.867709 
L 99.985455 86.884642 
L 100.286061 91.923115 
L 100.586667 93.879188 
L 100.887273 97.497587 
L 101.488485 113.969973 
L 101.789091 115.000847 
L 102.089697 116.655781 
L 102.690909 127.156037 
L 102.991515 126.345759 
L 103.292121 140.19649 
L 103.592727 139.840036 
L 103.893333 137.451338 
L 104.193939 130.952346 
L 104.494545 129.733831 
L 105.396364 111.43276 
L 105.69697 103.679758 
L 105.997576 101.764356 
L 106.298182 111.562484 
L 106.598788 106.830148 
L 106.899394 111.118857 
L 107.2 117.846226 
L 107.500606 119.761337 
L 107.801212 120.762969 
L 108.101818 121.335351 
L 108.402424 119.14283 
L 109.003636 129.925088 
L 109.905455 155.2856 
L 110.206061 156.933818 
L 111.107879 143.792784 
L 111.408485 134.771789 
L 111.709091 129.683907 
L 112.009697 119.732014 
L 112.310303 113.751201 
L 112.911515 108.906979 
L 113.212121 104.734306 
L 113.512727 97.452105 
L 113.813333 85.611889 
L 114.113939 82.308484 
L 114.414545 81.474734 
L 114.715152 79.931651 
L 115.015758 77.232784 
L 115.61697 77.229099 
L 115.917576 80.025327 
L 116.218182 81.566285 
L 116.518788 81.935658 
L 116.819394 81.791124 
L 117.12 82.116274 
L 117.420606 81.093161 
L 117.721212 81.788667 
L 118.021818 80.82108 
L 118.322424 80.762256 
L 118.62303 80.093705 
L 118.923636 78.470484 
L 119.224242 79.57355 
L 119.524848 80.126136 
L 120.126061 81.555124 
L 120.426667 80.434228 
L 120.727273 78.481996 
L 121.027879 80.648818 
L 121.328485 80.301416 
L 121.929697 81.088809 
L 122.530909 79.959209 
L 122.831515 82.742004 
L 123.132121 82.474345 
L 123.432727 82.383652 
L 123.733333 82.717927 
L 124.033939 81.701483 
L 124.334545 81.085791 
L 124.635152 81.735177 
L 124.935758 81.378018 
L 125.236364 82.367928 
L 125.53697 82.055554 
L 125.837576 79.184592 
L 126.438788 80.6352 
L 126.739394 81.048727 
L 127.04 79.860232 
L 127.340606 79.199825 
L 127.641212 80.55995 
L 127.941818 82.992816 
L 128.242424 83.166692 
L 128.843636 82.12561 
L 129.144242 83.825626 
L 129.444848 83.585063 
L 129.745455 81.7005 
L 130.046061 81.867989 
L 130.346667 78.644782 
L 130.947879 80.673949 
L 131.248485 79.649854 
L 131.549091 79.428735 
L 131.849697 80.198789 
L 132.150303 78.585326 
L 132.450909 80.677388 
L 132.751515 81.27497 
L 133.052121 80.677107 
L 133.352727 81.029493 
L 133.653333 79.404447 
L 133.953939 80.091459 
L 134.254545 81.6183 
L 134.555152 82.190611 
L 134.855758 81.907299 
L 135.156364 81.812323 
L 135.45697 81.227026 
L 135.757576 83.783508 
L 136.058182 83.692182 
L 136.358788 82.523202 
L 136.659394 82.751972 
L 136.96 82.623934 
L 137.260606 81.395146 
L 137.561212 82.236239 
L 137.861818 81.449899 
L 138.162424 81.408764 
L 138.46303 81.84335 
L 138.763636 80.549701 
L 139.064242 81.353449 
L 139.665455 84.176116 
L 139.966061 84.643133 
L 140.266667 84.832944 
L 140.567273 85.791054 
L 140.867879 86.326301 
L 141.168485 86.16506 
L 142.070303 83.397357 
L 142.370909 81.184557 
L 142.671515 80.769486 
L 142.972121 81.554913 
L 143.272727 81.529853 
L 143.573333 81.914248 
L 143.873939 81.21776 
L 144.174545 81.303329 
L 144.475152 82.833961 
L 144.775758 83.013945 
L 145.076364 81.404833 
L 145.37697 81.265213 
L 145.677576 80.465957 
L 145.978182 81.476644 
L 146.278788 80.762747 
L 146.579394 78.812972 
L 146.88 78.393689 
L 147.180606 79.288693 
L 147.481212 78.32581 
L 147.781818 78.394953 
L 148.38303 76.392671 
L 148.683636 80.50288 
L 148.984242 80.510672 
L 149.886061 82.355573 
L 150.186667 81.127136 
L 150.487273 84.086054 
L 150.787879 83.046025 
L 151.088485 83.440458 
L 151.389091 82.739196 
L 151.689697 83.747146 
L 152.290909 88.05945 
L 152.591515 87.596364 
L 153.493333 87.897788 
L 153.793939 88.687637 
L 154.094545 86.764397 
L 154.395152 86.573042 
L 154.996364 84.900472 
L 155.29697 81.714891 
L 155.597576 82.660787 
L 156.198788 82.331847 
L 156.499394 81.871218 
L 156.8 79.958718 
L 157.100606 80.972704 
L 157.401212 83.637429 
L 158.30303 81.543822 
L 158.603636 80.059379 
L 158.904242 82.565881 
L 159.204848 80.04541 
L 159.505455 79.313332 
L 159.806061 81.977776 
L 160.106667 75.993869 
L 160.407273 73.538969 
L 160.707879 72.562291 
L 161.008485 69.028372 
L 161.309091 70.532383 
L 161.609697 72.814321 
L 161.910303 64.764095 
L 162.210909 68.544881 
L 162.511515 68.404467 
L 162.812121 68.414526 
L 163.112727 70.276915 
L 163.413333 69.433157 
L 163.713939 65.855942 
L 164.014545 73.611891 
L 164.315152 70.658518 
L 164.916364 71.967429 
L 165.21697 71.489799 
L 165.517576 69.625158 
L 165.818182 71.292869 
L 166.118788 66.259774 
L 166.419394 67.374893 
L 166.72 67.590338 
L 167.020606 67.424113 
L 167.321212 61.919476 
L 167.621818 60.22178 
L 167.922424 56.598304 
L 168.22303 59.029119 
L 168.523636 62.950353 
L 168.824242 61.222988 
L 169.124848 58.370127 
L 169.425455 62.674325 
L 169.726061 63.332371 
L 170.026667 65.239602 
L 170.327273 62.857532 
L 170.627879 62.010016 
L 171.229091 66.984451 
L 171.529697 62.853715 
L 172.130909 58.735897 
L 173.032727 50.298148 
L 173.333333 51.323777 
L 173.633939 56.748434 
L 174.535758 62.747761 
L 174.836364 65.449341 
L 175.13697 72.163725 
L 175.437576 71.000126 
L 175.738182 61.289507 
L 176.339394 54.497878 
L 176.940606 57.036783 
L 177.241212 54.118544 
L 177.541818 55.007953 
L 177.842424 61.748947 
L 178.443636 68.719078 
L 178.744242 66.420165 
L 179.044848 63.045492 
L 179.345455 62.602673 
L 179.646061 60.988854 
L 179.946667 62.251901 
L 180.247273 64.808823 
L 180.547879 55.704448 
L 180.848485 57.291657 
L 181.149091 62.963935 
L 181.449697 65.723676 
L 181.750303 70.141093 
L 182.351515 74.437234 
L 182.652121 85.653965 
L 182.952727 91.873013 
L 183.253333 86.679269 
L 183.553939 87.24759 
L 183.854545 87.118934 
L 184.155152 86.400666 
L 184.455758 86.274098 
L 184.756364 88.392753 
L 185.05697 84.822471 
L 185.357576 87.236238 
L 185.958788 82.781821 
L 186.259394 84.551189 
L 186.56 83.239734 
L 186.860606 83.438842 
L 187.161212 82.43978 
L 187.461818 82.177887 
L 187.762424 83.190856 
L 188.06303 83.507993 
L 188.363636 83.434573 
L 188.664242 82.551889 
L 188.964848 80.431037 
L 189.265455 79.94865 
L 189.566061 80.441214 
L 189.866667 79.667134 
L 190.467879 80.364621 
L 190.768485 80.178772 
L 191.069091 81.474814 
L 191.369697 82.151992 
L 191.670303 82.526911 
L 191.970909 82.607308 
L 192.271515 82.13029 
L 192.572121 79.557733 
L 192.872727 81.571527 
L 193.173333 81.503577 
L 193.473939 81.573282 
L 193.774545 80.609766 
L 194.375758 82.4626 
L 194.676364 84.255626 
L 194.97697 83.26705 
L 195.277576 82.677681 
L 195.578182 82.76283 
L 195.878788 80.732095 
L 196.179394 81.943921 
L 196.48 81.117726 
L 197.081212 81.987602 
L 197.381818 81.221798 
L 197.682424 81.064526 
L 197.98303 83.376085 
L 198.283636 82.028397 
L 198.584242 81.918281 
L 198.884848 80.466134 
L 199.185455 81.357838 
L 199.486061 82.637097 
L 199.786667 82.220341 
L 200.087273 82.268707 
L 200.387879 80.091636 
L 200.688485 80.287344 
L 200.989091 81.278025 
L 201.289697 81.473662 
L 201.890909 80.42549 
L 202.191515 79.401816 
L 202.492121 82.32697 
L 202.792727 82.259511 
L 203.093333 83.280868 
L 203.393939 81.478366 
L 203.694545 81.652523 
L 204.295758 83.974479 
L 204.596364 83.160341 
L 204.89697 83.501004 
L 205.498182 81.359312 
L 205.798788 82.065348 
L 206.099394 81.813694 
L 206.4 81.856724 
L 206.700606 81.60514 
L 207.001212 81.14395 
L 207.301818 80.205424 
L 207.602424 82.360945 
L 207.90303 82.174433 
L 208.504242 82.241892 
L 208.804848 73.564566 
L 209.406061 80.010349 
L 209.706667 80.370947 
L 210.007273 80.421629 
L 210.307879 80.919673 
L 210.608485 79.486964 
L 210.909091 89.406555 
L 211.209697 86.282044 
L 211.510303 85.244542 
L 211.810909 85.252263 
L 212.111515 82.683848 
L 212.412121 82.64173 
L 212.712727 84.006909 
L 213.013333 82.119258 
L 213.313939 82.288011 
L 213.614545 79.34594 
L 213.915152 79.640554 
L 214.215758 82.367754 
L 214.516364 82.328584 
L 214.81697 82.093707 
L 215.117576 82.7989 
L 215.418182 80.107781 
L 215.718788 82.507374 
L 216.019394 81.489202 
L 216.32 82.172352 
L 216.620606 80.11326 
L 216.921212 80.661958 
L 217.221818 80.384893 
L 217.522424 83.461179 
L 217.82303 82.981211 
L 218.424242 81.253775 
L 218.724848 83.068117 
L 219.326061 83.432834 
L 219.626667 82.676605 
L 219.927273 80.600497 
L 220.227879 81.981662 
L 220.528485 81.852977 
L 221.129697 81.003998 
L 221.430303 81.350697 
L 221.730909 80.430215 
L 222.031515 82.152356 
L 222.632727 81.636395 
L 222.933333 82.008646 
L 223.534545 80.991271 
L 223.835152 82.929603 
L 224.436364 83.08871 
L 224.73697 82.487899 
L 225.037576 83.013778 
L 225.939394 81.671278 
L 226.24 81.807775 
L 226.841212 80.063471 
L 227.141818 79.684935 
L 227.442424 80.81292 
L 227.74303 81.019248 
L 228.043636 81.36623 
L 228.344242 79.10035 
L 228.945455 82.468228 
L 229.546667 83.121195 
L 229.847273 82.955082 
L 230.147879 81.878171 
L 230.448485 84.309288 
L 230.749091 82.831513 
L 231.049697 82.888206 
L 231.951515 80.900341 
L 232.252121 81.496798 
L 232.552727 81.667113 
L 232.853333 82.548269 
L 233.153939 82.038756 
L 233.454545 80.237407 
L 233.755152 81.06212 
L 234.055758 82.747111 
L 234.356364 82.743812 
L 234.65697 82.41918 
L 234.957576 81.390312 
L 235.258182 81.49079 
L 235.558788 83.716156 
L 235.859394 81.582046 
L 236.16 80.315914 
L 236.460606 81.614196 
L 236.761212 81.30746 
L 237.362424 82.369904 
L 237.66303 81.957079 
L 237.963636 81.822723 
L 238.264242 83.052072 
L 238.564848 82.590952 
L 238.865455 83.167031 
L 239.166061 82.565707 
L 239.466667 83.232573 
L 239.767273 82.13751 
L 240.067879 83.64624 
L 240.669091 83.146532 
L 240.969697 82.53807 
L 241.270303 80.783863 
L 241.570909 80.200601 
L 241.871515 81.892614 
L 242.172121 81.653947 
L 242.472727 80.876522 
L 242.773333 80.428508 
L 243.073939 71.773085 
L 243.374545 77.973882 
L 243.675152 79.650452 
L 243.975758 79.590574 
L 244.276364 80.611932 
L 244.57697 81.213179 
L 244.877576 78.739088 
L 245.178182 88.879236 
L 245.478788 84.741019 
L 245.779394 84.24466 
L 246.08 83.367081 
L 246.380606 81.275124 
L 246.681212 81.3556 
L 246.981818 84.337702 
L 247.282424 83.608712 
L 247.58303 83.399827 
L 247.883636 82.0331 
L 248.484848 82.971364 
L 248.785455 82.590222 
L 249.086061 82.617528 
L 249.386667 81.317965 
L 249.687273 78.530627 
L 249.987879 78.662632 
L 250.288485 78.459462 
L 250.589091 80.331493 
L 250.889697 80.603422 
L 251.490909 80.695878 
L 251.791515 84.315502 
L 252.092121 84.610501 
L 252.392727 83.993821 
L 252.693333 82.730952 
L 252.993939 83.543563 
L 253.294545 83.1421 
L 253.595152 83.581011 
L 254.196364 80.477854 
L 254.49697 80.849727 
L 254.797576 80.368993 
L 255.098182 78.019704 
L 256 73.737429 
L 256.300606 73.857368 
L 256.601212 75.235624 
L 256.901818 74.41989 
L 257.202424 76.558327 
L 257.803636 71.49354 
L 258.104242 73.670224 
L 258.404848 73.617835 
L 258.705455 74.906428 
L 259.006061 76.869494 
L 259.306667 75.727357 
L 259.907879 79.802551 
L 260.208485 78.199138 
L 260.509091 77.791486 
L 260.809697 74.757876 
L 261.110303 72.885612 
L 261.410909 73.135139 
L 262.012121 81.974122 
L 262.312727 89.607673 
L 262.613333 83.055035 
L 262.913939 82.192668 
L 263.214545 79.731507 
L 263.515152 78.971492 
L 263.815758 80.040816 
L 264.116364 74.88287 
L 264.41697 67.540846 
L 264.717576 75.974028 
L 265.018182 74.336245 
L 265.619394 85.924298 
L 265.92 80.432795 
L 266.220606 83.158262 
L 266.521212 82.596703 
L 266.821818 80.502337 
L 267.122424 83.042818 
L 267.42303 81.285076 
L 267.723636 75.31291 
L 268.024242 75.621191 
L 268.324848 75.334697 
L 268.625455 77.323942 
L 269.527273 72.838332 
L 269.827879 72.978611 
L 270.128485 76.251504 
L 270.429091 74.54643 
L 270.729697 75.437225 
L 271.330909 83.151194 
L 271.631515 86.907127 
L 271.932121 92.728892 
L 272.232727 92.673886 
L 272.533333 96.485774 
L 272.833939 97.502394 
L 273.134545 98.946464 
L 273.735758 92.235648 
L 274.036364 84.648061 
L 274.33697 88.606765 
L 274.637576 86.433237 
L 274.938182 85.769884 
L 275.238788 84.600682 
L 275.539394 91.750255 
L 275.84 93.158731 
L 276.140606 100.170774 
L 276.441212 99.347597 
L 277.042424 104.988655 
L 277.34303 104.381146 
L 277.643636 100.434604 
L 277.944242 98.032209 
L 279.146667 84.7721 
L 279.447273 85.553164 
L 279.747879 85.426167 
L 280.048485 84.716485 
L 280.349091 87.113135 
L 280.649697 87.540578 
L 281.250909 96.072146 
L 281.551515 95.088848 
L 281.852121 97.182455 
L 282.152727 109.617031 
L 282.453333 110.319498 
L 282.753939 106.134493 
L 283.355152 89.257639 
L 283.956364 82.60853 
L 284.25697 65.882185 
L 284.557576 57.120878 
L 284.858182 53.37977 
L 285.158788 56.216624 
L 285.459394 55.624967 
L 285.76 51.089956 
L 286.060606 49.331325 
L 286.661818 52.427241 
L 286.962424 56.619575 
L 287.26303 53.540139 
L 287.563636 53.569273 
L 287.864242 57.011448 
L 288.164848 58.228217 
L 288.465455 60.199378 
L 288.766061 60.243075 
L 289.066667 61.136875 
L 289.667879 66.717767 
L 289.968485 69.08895 
L 290.269091 66.677026 
L 290.569697 69.325795 
L 290.870303 73.786528 
L 291.170909 74.773923 
L 291.471515 76.189288 
L 291.772121 78.336352 
L 292.072727 78.842241 
L 292.373333 84.077536 
L 292.673939 84.414047 
L 293.275152 83.106563 
L 293.575758 83.367894 
L 293.876364 81.729278 
L 294.17697 82.100719 
L 294.778182 80.279744 
L 295.078788 79.875406 
L 295.379394 77.287459 
L 295.980606 80.778737 
L 296.281212 81.123129 
L 296.581818 81.12061 
L 296.882424 80.520501 
L 297.18303 80.391059 
L 297.483636 84.108378 
L 297.784242 82.686454 
L 298.084848 81.948022 
L 298.385455 81.892462 
L 298.686061 79.73722 
L 298.986667 79.983203 
L 299.287273 78.327645 
L 299.587879 75.36798 
L 299.888485 74.970651 
L 300.489697 66.545418 
L 300.790303 67.690597 
L 301.090909 65.648456 
L 301.692121 68.313596 
L 301.992727 65.973509 
L 302.593939 69.425977 
L 302.894545 66.933082 
L 303.195152 66.914215 
L 303.495758 65.172459 
L 303.796364 65.160211 
L 304.09697 63.383223 
L 304.698182 63.036859 
L 304.998788 62.111512 
L 305.299394 60.709076 
L 305.900606 54.887245 
L 306.201212 55.127469 
L 306.501818 53.306872 
L 306.802424 50.328418 
L 307.704242 59.276941 
L 308.004848 59.425967 
L 308.305455 57.723565 
L 308.606061 59.36974 
L 308.906667 62.320656 
L 309.207273 58.501411 
L 309.507879 57.662634 
L 309.808485 54.920834 
L 310.109091 46.970182 
L 310.409697 53.630274 
L 310.710303 55.973078 
L 311.010909 56.198619 
L 311.311515 57.988719 
L 311.612121 55.784754 
L 311.912727 52.67147 
L 312.213333 60.732859 
L 312.513939 57.252647 
L 312.814545 55.163601 
L 313.115152 56.084151 
L 313.415758 53.433865 
L 313.716364 57.258918 
L 314.01697 62.519382 
L 314.317576 64.286528 
L 314.618182 64.943848 
L 314.918788 66.732286 
L 315.219394 65.688735 
L 315.52 70.687617 
L 315.820606 70.127173 
L 316.121212 71.22741 
L 316.722424 74.259674 
L 317.02303 72.9745 
L 317.323636 74.801484 
L 317.624242 74.067735 
L 317.924848 72.951571 
L 318.225455 72.542182 
L 318.526061 70.112894 
L 318.826667 71.494495 
L 319.127273 74.009042 
L 319.427879 72.578491 
L 319.728485 73.92069 
L 320.029091 74.028701 
L 320.930909 82.126981 
L 321.231515 83.398855 
L 321.532121 86.431365 
L 321.832727 86.697658 
L 322.133333 89.751234 
L 322.734545 88.952734 
L 323.335758 85.38101 
L 323.636364 83.529062 
L 323.93697 83.720762 
L 324.237576 83.359456 
L 324.538182 82.748219 
L 324.838788 81.250311 
L 325.139394 81.168956 
L 325.44 81.50459 
L 325.740606 82.404511 
L 326.041212 82.379195 
L 326.341818 75.648596 
L 326.94303 80.679291 
L 327.243636 81.050795 
L 327.544242 81.182644 
L 327.844848 81.480637 
L 328.145455 78.964715 
L 328.446061 87.388445 
L 328.746667 85.166927 
L 329.047273 84.133653 
L 329.347879 83.770723 
L 329.648485 82.478144 
L 329.949091 77.558297 
L 330.249697 77.397154 
L 331.452121 60.098991 
L 332.353939 65.99417 
L 332.955152 71.495684 
L 333.255758 71.419845 
L 333.556364 73.972012 
L 333.85697 71.230446 
L 334.157576 72.132171 
L 334.458182 71.189491 
L 334.758788 69.236921 
L 335.059394 69.117778 
L 335.36 70.429443 
L 335.660606 70.686024 
L 335.961212 69.518304 
L 336.562424 65.023371 
L 336.86303 65.576315 
L 337.163636 65.255757 
L 338.065455 60.442813 
L 338.366061 59.975004 
L 338.666667 62.028504 
L 338.967273 60.914863 
L 339.267879 61.548488 
L 339.568485 63.266702 
L 339.869091 61.774998 
L 340.169697 62.03548 
L 340.470303 64.895755 
L 340.770909 63.738199 
L 341.071515 64.282555 
L 341.372121 64.389348 
L 341.672727 60.662376 
L 341.973333 63.87667 
L 342.273939 65.054976 
L 342.574545 65.380339 
L 342.875152 64.280888 
L 343.175758 64.990726 
L 343.476364 64.824935 
L 343.77697 68.000645 
L 344.077576 67.596889 
L 344.378182 69.068186 
L 344.678788 67.780619 
L 344.979394 72.673362 
L 345.28 73.61657 
L 345.881212 76.443741 
L 346.181818 74.982373 
L 346.482424 75.836464 
L 346.78303 78.14291 
L 347.083636 77.000606 
L 347.384242 78.607479 
L 347.684848 76.350184 
L 347.985455 77.934726 
L 348.286061 82.040325 
L 348.586667 81.942352 
L 349.187879 83.784972 
L 349.488485 80.659026 
L 349.789091 83.496214 
L 350.089697 82.244248 
L 350.390303 81.946409 
L 350.690909 82.935875 
L 350.991515 81.932934 
L 351.292121 79.405427 
L 351.592727 81.685394 
L 351.893333 81.431259 
L 352.193939 82.330033 
L 352.494545 82.651521 
L 352.795152 79.920843 
L 353.095758 81.120707 
L 353.396364 83.574434 
L 353.69697 83.425086 
L 353.997576 83.98235 
L 354.298182 83.315855 
L 354.598788 74.191355 
L 354.899394 79.37845 
L 355.2 79.545169 
L 355.500606 80.956683 
L 355.801212 81.008259 
L 356.101818 80.921057 
L 356.402424 79.637967 
L 356.70303 89.112465 
L 357.003636 86.272058 
L 357.304242 85.59024 
L 357.604848 83.826416 
L 357.905455 81.221639 
L 358.206061 81.57282 
L 358.506667 83.103661 
L 358.807273 82.163807 
L 359.107879 82.179059 
L 359.709091 75.74331 
L 360.009697 76.968197 
L 360.310303 72.451673 
L 360.610909 59.960686 
L 360.911515 58.550744 
L 361.212121 56.039694 
L 361.813333 56.832228 
L 362.414545 54.847598 
L 362.715152 65.485082 
L 364.218182 54.095465 
L 364.518788 56.41493 
L 364.819394 53.929681 
L 365.12 53.279474 
L 365.721212 49.169069 
L 366.021818 49.934996 
L 366.322424 54.306772 
L 366.62303 51.530226 
L 366.923636 50.512697 
L 367.224242 48.875557 
L 367.524848 47.998095 
L 367.825455 52.245492 
L 368.126061 53.46991 
L 368.426667 50.283411 
L 369.027879 53.012794 
L 369.328485 51.16577 
L 369.629091 55.627287 
L 369.929697 54.994161 
L 370.230303 52.912775 
L 370.530909 53.051855 
L 370.831515 48.569732 
L 371.132121 50.823115 
L 371.432727 54.04576 
L 372.334545 57.327219 
L 372.635152 53.25104 
L 372.935758 59.637803 
L 373.236364 58.133127 
L 373.53697 59.816998 
L 374.138182 55.667033 
L 374.438788 57.513512 
L 374.739394 64.702042 
L 375.04 63.275431 
L 375.340606 66.198428 
L 375.641212 66.010247 
L 375.941818 62.782151 
L 376.242424 63.171258 
L 376.54303 63.015607 
L 376.843636 62.488361 
L 377.144242 66.076445 
L 377.444848 64.161378 
L 377.745455 67.410731 
L 378.046061 73.445679 
L 378.346667 76.664474 
L 378.647273 71.756983 
L 378.947879 74.567578 
L 379.248485 74.204827 
L 379.849697 80.198879 
L 380.150303 80.375588 
L 380.450909 83.86161 
L 380.751515 96.183796 
L 381.052121 97.831233 
L 381.352727 101.861918 
L 381.653333 115.255261 
L 382.555152 131.349483 
L 382.855758 129.45823 
L 383.156364 140.383371 
L 383.45697 136.676006 
L 384.058182 112.908929 
L 384.96 97.034703 
L 385.260606 83.888 
L 385.561212 79.71832 
L 385.861818 82.004371 
L 386.162424 85.212404 
L 386.46303 84.259411 
L 386.763636 84.932583 
L 387.064242 86.159267 
L 387.364848 85.52067 
L 387.665455 90.724754 
L 387.966061 91.049509 
L 388.266667 89.66485 
L 388.867879 96.817722 
L 389.168485 96.533225 
L 389.469091 101.845672 
L 389.769697 103.579218 
L 390.070303 102.527055 
L 390.370909 103.612797 
L 390.671515 100.826768 
L 392.174545 75.093652 
L 392.475152 68.984183 
L 392.775758 67.350665 
L 393.076364 66.980307 
L 393.978182 74.548155 
L 394.579394 83.395916 
L 394.88 82.974724 
L 395.180606 83.730551 
L 395.481212 83.688954 
L 395.781818 83.891502 
L 396.082424 83.070977 
L 396.38303 82.634496 
L 396.683636 81.788699 
L 396.984242 82.336235 
L 397.585455 81.832085 
L 397.886061 82.374212 
L 398.186667 81.916531 
L 398.487273 81.679197 
L 398.487273 81.679197 
" style="fill:none;stroke:#1f77b4;stroke-linecap:square;stroke-width:1.5;"/>
   </g>
   <g id="patch_3">
    <path d="M 57.6 162.432 
L 57.6 41.472 
" style="fill:none;stroke:#000000;stroke-linecap:square;stroke-linejoin:miter;stroke-width:0.8;"/>
   </g>
   <g id="patch_4">
    <path d="M 414.72 162.432 
L 414.72 41.472 
" style="fill:none;stroke:#000000;stroke-linecap:square;stroke-linejoin:miter;stroke-width:0.8;"/>
   </g>
   <g id="patch_5">
    <path d="M 57.6 162.432 
L 414.72 162.432 
" style="fill:none;stroke:#000000;stroke-linecap:square;stroke-linejoin:miter;stroke-width:0.8;"/>
   </g>
   <g id="patch_6">
    <path d="M 57.6 41.472 
L 414.72 41.472 
" style="fill:none;stroke:#000000;stroke-linecap:square;stroke-linejoin:miter;stroke-width:0.8;"/>
   </g>
  </g>
  <g id="axes_2">
   <g id="patch_7">
    <path d="M 57.6 307.584 
L 414.72 307.584 
L 414.72 186.624 
L 57.6 186.624 
z
" style="fill:#ffffff;"/>
   </g>
   <g id="matplotlib.axis_3">
    <g id="xtick_7">
     <g id="line2d_22">
      <path clip-path="url(#p73c012364a)" d="M 73.832727 307.584 
L 73.832727 186.624 
" style="fill:none;stroke:#b0b0b0;stroke-linecap:square;stroke-width:0.8;"/>
     </g>
     <g id="line2d_23">
      <g>
       <use style="stroke:#000000;stroke-width:0.8;" x="73.832727" xlink:href="#ma5a624deab" y="307.584"/>
      </g>
     </g>
     <g id="text_12">
      <!-- 0 -->
      <g transform="translate(70.651477 322.182437)scale(0.1 -0.1)">
       <use xlink:href="#DejaVuSans-48"/>
      </g>
     </g>
    </g>
    <g id="xtick_8">
     <g id="line2d_24">
      <path clip-path="url(#p73c012364a)" d="M 133.621778 307.584 
L 133.621778 186.624 
" style="fill:none;stroke:#b0b0b0;stroke-linecap:square;stroke-width:0.8;"/>
     </g>
     <g id="line2d_25">
      <g>
       <use style="stroke:#000000;stroke-width:0.8;" x="133.621778" xlink:href="#ma5a624deab" y="307.584"/>
      </g>
     </g>
     <g id="text_13">
      <!-- 200 -->
      <g transform="translate(124.078028 322.182437)scale(0.1 -0.1)">
       <use xlink:href="#DejaVuSans-50"/>
       <use x="63.623047" xlink:href="#DejaVuSans-48"/>
       <use x="127.246094" xlink:href="#DejaVuSans-48"/>
      </g>
     </g>
    </g>
    <g id="xtick_9">
     <g id="line2d_26">
      <path clip-path="url(#p73c012364a)" d="M 193.410829 307.584 
L 193.410829 186.624 
" style="fill:none;stroke:#b0b0b0;stroke-linecap:square;stroke-width:0.8;"/>
     </g>
     <g id="line2d_27">
      <g>
       <use style="stroke:#000000;stroke-width:0.8;" x="193.410829" xlink:href="#ma5a624deab" y="307.584"/>
      </g>
     </g>
     <g id="text_14">
      <!-- 400 -->
      <g transform="translate(183.867079 322.182437)scale(0.1 -0.1)">
       <use xlink:href="#DejaVuSans-52"/>
       <use x="63.623047" xlink:href="#DejaVuSans-48"/>
       <use x="127.246094" xlink:href="#DejaVuSans-48"/>
      </g>
     </g>
    </g>
    <g id="xtick_10">
     <g id="line2d_28">
      <path clip-path="url(#p73c012364a)" d="M 253.199879 307.584 
L 253.199879 186.624 
" style="fill:none;stroke:#b0b0b0;stroke-linecap:square;stroke-width:0.8;"/>
     </g>
     <g id="line2d_29">
      <g>
       <use style="stroke:#000000;stroke-width:0.8;" x="253.199879" xlink:href="#ma5a624deab" y="307.584"/>
      </g>
     </g>
     <g id="text_15">
      <!-- 600 -->
      <g transform="translate(243.656129 322.182437)scale(0.1 -0.1)">
       <use xlink:href="#DejaVuSans-54"/>
       <use x="63.623047" xlink:href="#DejaVuSans-48"/>
       <use x="127.246094" xlink:href="#DejaVuSans-48"/>
      </g>
     </g>
    </g>
    <g id="xtick_11">
     <g id="line2d_30">
      <path clip-path="url(#p73c012364a)" d="M 312.98893 307.584 
L 312.98893 186.624 
" style="fill:none;stroke:#b0b0b0;stroke-linecap:square;stroke-width:0.8;"/>
     </g>
     <g id="line2d_31">
      <g>
       <use style="stroke:#000000;stroke-width:0.8;" x="312.98893" xlink:href="#ma5a624deab" y="307.584"/>
      </g>
     </g>
     <g id="text_16">
      <!-- 800 -->
      <g transform="translate(303.44518 322.182437)scale(0.1 -0.1)">
       <use xlink:href="#DejaVuSans-56"/>
       <use x="63.623047" xlink:href="#DejaVuSans-48"/>
       <use x="127.246094" xlink:href="#DejaVuSans-48"/>
      </g>
     </g>
    </g>
    <g id="xtick_12">
     <g id="line2d_32">
      <path clip-path="url(#p73c012364a)" d="M 372.777981 307.584 
L 372.777981 186.624 
" style="fill:none;stroke:#b0b0b0;stroke-linecap:square;stroke-width:0.8;"/>
     </g>
     <g id="line2d_33">
      <g>
       <use style="stroke:#000000;stroke-width:0.8;" x="372.777981" xlink:href="#ma5a624deab" y="307.584"/>
      </g>
     </g>
     <g id="text_17">
      <!-- 1000 -->
      <g transform="translate(360.052981 322.182437)scale(0.1 -0.1)">
       <use xlink:href="#DejaVuSans-49"/>
       <use x="63.623047" xlink:href="#DejaVuSans-48"/>
       <use x="127.246094" xlink:href="#DejaVuSans-48"/>
       <use x="190.869141" xlink:href="#DejaVuSans-48"/>
      </g>
     </g>
    </g>
    <g id="text_18">
     <!-- Time [s] -->
     <g transform="translate(215.831094 335.860562)scale(0.1 -0.1)">
      <defs>
       <path d="M -0.296875 72.90625 
L 61.375 72.90625 
L 61.375 64.59375 
L 35.5 64.59375 
L 35.5 0 
L 25.59375 0 
L 25.59375 64.59375 
L -0.296875 64.59375 
z
" id="DejaVuSans-84"/>
       <path d="M 9.421875 54.6875 
L 18.40625 54.6875 
L 18.40625 0 
L 9.421875 0 
z
M 9.421875 75.984375 
L 18.40625 75.984375 
L 18.40625 64.59375 
L 9.421875 64.59375 
z
" id="DejaVuSans-105"/>
       <path d="M 52 44.1875 
Q 55.375 50.25 60.0625 53.125 
Q 64.75 56 71.09375 56 
Q 79.640625 56 84.28125 50.015625 
Q 88.921875 44.046875 88.921875 33.015625 
L 88.921875 0 
L 79.890625 0 
L 79.890625 32.71875 
Q 79.890625 40.578125 77.09375 44.375 
Q 74.3125 48.1875 68.609375 48.1875 
Q 61.625 48.1875 57.5625 43.546875 
Q 53.515625 38.921875 53.515625 30.90625 
L 53.515625 0 
L 44.484375 0 
L 44.484375 32.71875 
Q 44.484375 40.625 41.703125 44.40625 
Q 38.921875 48.1875 33.109375 48.1875 
Q 26.21875 48.1875 22.15625 43.53125 
Q 18.109375 38.875 18.109375 30.90625 
L 18.109375 0 
L 9.078125 0 
L 9.078125 54.6875 
L 18.109375 54.6875 
L 18.109375 46.1875 
Q 21.1875 51.21875 25.484375 53.609375 
Q 29.78125 56 35.6875 56 
Q 41.65625 56 45.828125 52.96875 
Q 50 49.953125 52 44.1875 
z
" id="DejaVuSans-109"/>
       <path d="M 44.28125 53.078125 
L 44.28125 44.578125 
Q 40.484375 46.53125 36.375 47.5 
Q 32.28125 48.484375 27.875 48.484375 
Q 21.1875 48.484375 17.84375 46.4375 
Q 14.5 44.390625 14.5 40.28125 
Q 14.5 37.15625 16.890625 35.375 
Q 19.28125 33.59375 26.515625 31.984375 
L 29.59375 31.296875 
Q 39.15625 29.25 43.1875 25.515625 
Q 47.21875 21.78125 47.21875 15.09375 
Q 47.21875 7.46875 41.1875 3.015625 
Q 35.15625 -1.421875 24.609375 -1.421875 
Q 20.21875 -1.421875 15.453125 -0.5625 
Q 10.6875 0.296875 5.421875 2 
L 5.421875 11.28125 
Q 10.40625 8.6875 15.234375 7.390625 
Q 20.0625 6.109375 24.8125 6.109375 
Q 31.15625 6.109375 34.5625 8.28125 
Q 37.984375 10.453125 37.984375 14.40625 
Q 37.984375 18.0625 35.515625 20.015625 
Q 33.0625 21.96875 24.703125 23.78125 
L 21.578125 24.515625 
Q 13.234375 26.265625 9.515625 29.90625 
Q 5.8125 33.546875 5.8125 39.890625 
Q 5.8125 47.609375 11.28125 51.796875 
Q 16.75 56 26.8125 56 
Q 31.78125 56 36.171875 55.265625 
Q 40.578125 54.546875 44.28125 53.078125 
z
" id="DejaVuSans-115"/>
      </defs>
      <use xlink:href="#DejaVuSans-84"/>
      <use x="57.958984" xlink:href="#DejaVuSans-105"/>
      <use x="85.742188" xlink:href="#DejaVuSans-109"/>
      <use x="183.154297" xlink:href="#DejaVuSans-101"/>
      <use x="244.677734" xlink:href="#DejaVuSans-32"/>
      <use x="276.464844" xlink:href="#DejaVuSans-91"/>
      <use x="315.478516" xlink:href="#DejaVuSans-115"/>
      <use x="367.578125" xlink:href="#DejaVuSans-93"/>
     </g>
    </g>
   </g>
   <g id="matplotlib.axis_4">
    <g id="ytick_5">
     <g id="line2d_34">
      <path clip-path="url(#p73c012364a)" d="M 57.6 302.073047 
L 414.72 302.073047 
" style="fill:none;stroke:#b0b0b0;stroke-linecap:square;stroke-width:0.8;"/>
     </g>
     <g id="line2d_35">
      <g>
       <use style="stroke:#000000;stroke-width:0.8;" x="57.6" xlink:href="#m9d6d0bae58" y="302.073047"/>
      </g>
     </g>
     <g id="text_19">
      <!-- 0 -->
      <g transform="translate(44.2375 305.872265)scale(0.1 -0.1)">
       <use xlink:href="#DejaVuSans-48"/>
      </g>
     </g>
    </g>
    <g id="ytick_6">
     <g id="line2d_36">
      <path clip-path="url(#p73c012364a)" d="M 57.6 281.467221 
L 414.72 281.467221 
" style="fill:none;stroke:#b0b0b0;stroke-linecap:square;stroke-width:0.8;"/>
     </g>
     <g id="line2d_37">
      <g>
       <use style="stroke:#000000;stroke-width:0.8;" x="57.6" xlink:href="#m9d6d0bae58" y="281.467221"/>
      </g>
     </g>
     <g id="text_20">
      <!-- 5 -->
      <g transform="translate(44.2375 285.26644)scale(0.1 -0.1)">
       <use xlink:href="#DejaVuSans-53"/>
      </g>
     </g>
    </g>
    <g id="ytick_7">
     <g id="line2d_38">
      <path clip-path="url(#p73c012364a)" d="M 57.6 260.861395 
L 414.72 260.861395 
" style="fill:none;stroke:#b0b0b0;stroke-linecap:square;stroke-width:0.8;"/>
     </g>
     <g id="line2d_39">
      <g>
       <use style="stroke:#000000;stroke-width:0.8;" x="57.6" xlink:href="#m9d6d0bae58" y="260.861395"/>
      </g>
     </g>
     <g id="text_21">
      <!-- 10 -->
      <g transform="translate(37.875 264.660614)scale(0.1 -0.1)">
       <use xlink:href="#DejaVuSans-49"/>
       <use x="63.623047" xlink:href="#DejaVuSans-48"/>
      </g>
     </g>
    </g>
    <g id="ytick_8">
     <g id="line2d_40">
      <path clip-path="url(#p73c012364a)" d="M 57.6 240.255569 
L 414.72 240.255569 
" style="fill:none;stroke:#b0b0b0;stroke-linecap:square;stroke-width:0.8;"/>
     </g>
     <g id="line2d_41">
      <g>
       <use style="stroke:#000000;stroke-width:0.8;" x="57.6" xlink:href="#m9d6d0bae58" y="240.255569"/>
      </g>
     </g>
     <g id="text_22">
      <!-- 15 -->
      <g transform="translate(37.875 244.054788)scale(0.1 -0.1)">
       <use xlink:href="#DejaVuSans-49"/>
       <use x="63.623047" xlink:href="#DejaVuSans-53"/>
      </g>
     </g>
    </g>
    <g id="ytick_9">
     <g id="line2d_42">
      <path clip-path="url(#p73c012364a)" d="M 57.6 219.649744 
L 414.72 219.649744 
" style="fill:none;stroke:#b0b0b0;stroke-linecap:square;stroke-width:0.8;"/>
     </g>
     <g id="line2d_43">
      <g>
       <use style="stroke:#000000;stroke-width:0.8;" x="57.6" xlink:href="#m9d6d0bae58" y="219.649744"/>
      </g>
     </g>
     <g id="text_23">
      <!-- 20 -->
      <g transform="translate(37.875 223.448962)scale(0.1 -0.1)">
       <use xlink:href="#DejaVuSans-50"/>
       <use x="63.623047" xlink:href="#DejaVuSans-48"/>
      </g>
     </g>
    </g>
    <g id="ytick_10">
     <g id="line2d_44">
      <path clip-path="url(#p73c012364a)" d="M 57.6 199.043918 
L 414.72 199.043918 
" style="fill:none;stroke:#b0b0b0;stroke-linecap:square;stroke-width:0.8;"/>
     </g>
     <g id="line2d_45">
      <g>
       <use style="stroke:#000000;stroke-width:0.8;" x="57.6" xlink:href="#m9d6d0bae58" y="199.043918"/>
      </g>
     </g>
     <g id="text_24">
      <!-- 25 -->
      <g transform="translate(37.875 202.843136)scale(0.1 -0.1)">
       <use xlink:href="#DejaVuSans-50"/>
       <use x="63.623047" xlink:href="#DejaVuSans-53"/>
      </g>
     </g>
    </g>
    <g id="text_25">
     <!-- Energy [wh] -->
     <g transform="translate(31.795312 277.358687)rotate(-90)scale(0.1 -0.1)">
      <defs>
       <path d="M 9.8125 72.90625 
L 55.90625 72.90625 
L 55.90625 64.59375 
L 19.671875 64.59375 
L 19.671875 43.015625 
L 54.390625 43.015625 
L 54.390625 34.71875 
L 19.671875 34.71875 
L 19.671875 8.296875 
L 56.78125 8.296875 
L 56.78125 0 
L 9.8125 0 
z
" id="DejaVuSans-69"/>
       <path d="M 54.890625 33.015625 
L 54.890625 0 
L 45.90625 0 
L 45.90625 32.71875 
Q 45.90625 40.484375 42.875 44.328125 
Q 39.84375 48.1875 33.796875 48.1875 
Q 26.515625 48.1875 22.3125 43.546875 
Q 18.109375 38.921875 18.109375 30.90625 
L 18.109375 0 
L 9.078125 0 
L 9.078125 54.6875 
L 18.109375 54.6875 
L 18.109375 46.1875 
Q 21.34375 51.125 25.703125 53.5625 
Q 30.078125 56 35.796875 56 
Q 45.21875 56 50.046875 50.171875 
Q 54.890625 44.34375 54.890625 33.015625 
z
" id="DejaVuSans-110"/>
       <path d="M 45.40625 27.984375 
Q 45.40625 37.75 41.375 43.109375 
Q 37.359375 48.484375 30.078125 48.484375 
Q 22.859375 48.484375 18.828125 43.109375 
Q 14.796875 37.75 14.796875 27.984375 
Q 14.796875 18.265625 18.828125 12.890625 
Q 22.859375 7.515625 30.078125 7.515625 
Q 37.359375 7.515625 41.375 12.890625 
Q 45.40625 18.265625 45.40625 27.984375 
z
M 54.390625 6.78125 
Q 54.390625 -7.171875 48.1875 -13.984375 
Q 42 -20.796875 29.203125 -20.796875 
Q 24.46875 -20.796875 20.265625 -20.09375 
Q 16.0625 -19.390625 12.109375 -17.921875 
L 12.109375 -9.1875 
Q 16.0625 -11.328125 19.921875 -12.34375 
Q 23.78125 -13.375 27.78125 -13.375 
Q 36.625 -13.375 41.015625 -8.765625 
Q 45.40625 -4.15625 45.40625 5.171875 
L 45.40625 9.625 
Q 42.625 4.78125 38.28125 2.390625 
Q 33.9375 0 27.875 0 
Q 17.828125 0 11.671875 7.65625 
Q 5.515625 15.328125 5.515625 27.984375 
Q 5.515625 40.671875 11.671875 48.328125 
Q 17.828125 56 27.875 56 
Q 33.9375 56 38.28125 53.609375 
Q 42.625 51.21875 45.40625 46.390625 
L 45.40625 54.6875 
L 54.390625 54.6875 
z
" id="DejaVuSans-103"/>
       <path d="M 32.171875 -5.078125 
Q 28.375 -14.84375 24.75 -17.8125 
Q 21.140625 -20.796875 15.09375 -20.796875 
L 7.90625 -20.796875 
L 7.90625 -13.28125 
L 13.1875 -13.28125 
Q 16.890625 -13.28125 18.9375 -11.515625 
Q 21 -9.765625 23.484375 -3.21875 
L 25.09375 0.875 
L 2.984375 54.6875 
L 12.5 54.6875 
L 29.59375 11.921875 
L 46.6875 54.6875 
L 56.203125 54.6875 
z
" id="DejaVuSans-121"/>
       <path d="M 54.890625 33.015625 
L 54.890625 0 
L 45.90625 0 
L 45.90625 32.71875 
Q 45.90625 40.484375 42.875 44.328125 
Q 39.84375 48.1875 33.796875 48.1875 
Q 26.515625 48.1875 22.3125 43.546875 
Q 18.109375 38.921875 18.109375 30.90625 
L 18.109375 0 
L 9.078125 0 
L 9.078125 75.984375 
L 18.109375 75.984375 
L 18.109375 46.1875 
Q 21.34375 51.125 25.703125 53.5625 
Q 30.078125 56 35.796875 56 
Q 45.21875 56 50.046875 50.171875 
Q 54.890625 44.34375 54.890625 33.015625 
z
" id="DejaVuSans-104"/>
      </defs>
      <use xlink:href="#DejaVuSans-69"/>
      <use x="63.183594" xlink:href="#DejaVuSans-110"/>
      <use x="126.5625" xlink:href="#DejaVuSans-101"/>
      <use x="188.085938" xlink:href="#DejaVuSans-114"/>
      <use x="227.449219" xlink:href="#DejaVuSans-103"/>
      <use x="290.925781" xlink:href="#DejaVuSans-121"/>
      <use x="350.105469" xlink:href="#DejaVuSans-32"/>
      <use x="381.892578" xlink:href="#DejaVuSans-91"/>
      <use x="420.90625" xlink:href="#DejaVuSans-119"/>
      <use x="502.693359" xlink:href="#DejaVuSans-104"/>
      <use x="566.072266" xlink:href="#DejaVuSans-93"/>
     </g>
    </g>
   </g>
   <g id="line2d_46">
    <path clip-path="url(#p73c012364a)" d="M 73.832727 302.073047 
L 79.512687 301.97723 
L 79.811632 301.808493 
L 86.388428 302.038149 
L 87.883154 301.348146 
L 89.078935 300.013573 
L 89.37788 299.858539 
L 89.975771 299.370976 
L 90.274716 299.270036 
L 90.573661 299.002869 
L 91.769442 298.880776 
L 92.666278 298.221682 
L 93.563114 298.241698 
L 93.862059 298.038162 
L 94.758895 297.980606 
L 96.552567 297.939918 
L 96.851512 297.737614 
L 97.748348 297.781574 
L 98.047293 297.559295 
L 98.346238 297.573946 
L 98.645183 296.91498 
L 98.944129 296.929635 
L 99.243074 296.652709 
L 99.840964 296.682015 
L 100.13991 295.924075 
L 104.026198 296.105756 
L 114.190337 296.597968 
L 114.489282 296.501306 
L 114.788227 296.267899 
L 115.386118 296.228295 
L 116.282953 296.142562 
L 116.880844 296.063506 
L 118.076625 296.011686 
L 119.272406 295.917773 
L 119.571351 295.901491 
L 119.870296 295.710079 
L 121.365023 295.746584 
L 121.663968 295.522088 
L 123.158694 295.534711 
L 123.756585 295.483267 
L 124.952366 295.523872 
L 125.550256 295.415379 
L 126.447092 295.419454 
L 126.746037 295.196413 
L 127.642873 295.183328 
L 128.240763 295.105434 
L 129.137599 295.14939 
L 129.73549 295.043233 
L 130.931271 295.006027 
L 131.230216 294.772975 
L 134.219669 294.670618 
L 134.518614 294.494343 
L 136.910176 294.551615 
L 137.508066 294.486645 
L 139.002793 294.453647 
L 140.198574 294.387222 
L 142.889081 294.44233 
L 143.188026 294.286682 
L 145.579588 294.339157 
L 146.177479 294.260587 
L 147.074314 294.136544 
L 147.37326 293.936189 
L 148.569041 293.84995 
L 148.867986 293.817257 
L 149.166931 293.639659 
L 150.661657 293.695756 
L 150.960603 293.532047 
L 155.743727 293.728029 
L 156.042672 293.44446 
L 157.238453 293.491021 
L 157.537398 293.291738 
L 159.032125 293.280945 
L 159.33107 293.153543 
L 159.630015 293.168194 
L 160.227906 292.976329 
L 160.526851 292.99098 
L 160.825796 292.439774 
L 161.722632 291.582126 
L 162.320522 291.611432 
L 162.619468 291.071238 
L 162.918413 290.923267 
L 163.516303 290.360576 
L 164.712084 290.005406 
L 165.01103 289.542446 
L 165.60892 289.119359 
L 166.804701 288.427799 
L 167.402592 287.849241 
L 167.701537 287.665935 
L 168.000482 286.917668 
L 168.598373 286.06954 
L 169.196263 286.093662 
L 170.392044 284.544355 
L 170.989935 284.078997 
L 171.28888 284.062797 
L 171.88677 283.687004 
L 172.484661 282.401205 
L 173.680442 280.609916 
L 174.278332 280.365201 
L 175.175168 279.472078 
L 176.072004 279.208101 
L 176.370949 278.021218 
L 176.96884 276.628153 
L 177.56673 276.553844 
L 178.164621 276.370761 
L 178.762511 275.575447 
L 179.659347 274.633418 
L 179.958292 274.525868 
L 180.556183 273.897774 
L 180.855128 273.84309 
L 181.154073 272.54979 
L 181.453019 272.384919 
L 182.947745 272.381478 
L 184.143526 272.07924 
L 184.442471 272.09389 
L 184.741416 271.95523 
L 186.834033 271.963348 
L 188.029814 271.963015 
L 188.92665 272.004766 
L 189.823486 271.773264 
L 191.019267 271.798934 
L 191.318212 271.663958 
L 192.812938 271.693247 
L 193.111883 271.502009 
L 196.101336 271.541139 
L 196.400281 271.309254 
L 198.791843 271.322293 
L 199.090789 271.327856 
L 199.389734 271.212868 
L 200.585515 271.243974 
L 200.88446 271.074805 
L 202.080241 271.088157 
L 202.977077 270.94233 
L 205.667584 270.990885 
L 205.966529 270.815336 
L 207.461256 270.880335 
L 208.059146 270.7926 
L 208.955982 270.83656 
L 209.254927 269.940227 
L 210.749653 270.013493 
L 211.048599 269.90284 
L 212.24438 269.931507 
L 212.543325 269.730336 
L 213.739106 269.722663 
L 214.038051 269.571746 
L 215.532777 269.640256 
L 215.831723 269.355937 
L 216.728559 269.399897 
L 217.027504 269.254692 
L 218.223285 269.304624 
L 218.821175 269.227492 
L 220.016956 269.234581 
L 220.315902 269.066973 
L 221.810628 269.120181 
L 222.109573 268.985139 
L 225.397971 269.079126 
L 225.995861 268.99714 
L 226.892697 268.979229 
L 227.191642 268.861018 
L 228.387423 268.914885 
L 228.686369 268.709458 
L 231.675821 268.754436 
L 233.469493 268.685534 
L 233.768438 268.518252 
L 235.861055 268.560519 
L 236.458945 268.390945 
L 237.953672 268.454246 
L 238.252617 268.29997 
L 239.747343 268.35629 
L 240.345234 268.272165 
L 241.242069 268.302707 
L 241.541015 268.113323 
L 243.035741 268.127083 
L 243.334686 267.205179 
L 244.829412 267.278441 
L 245.128358 267.033557 
L 246.324139 267.067231 
L 246.623084 266.934229 
L 249.313591 266.968838 
L 249.612536 266.912073 
L 249.911482 266.62311 
L 252.303044 266.675077 
L 253.199879 266.624041 
L 253.79777 266.63816 
L 255.890387 266.046006 
L 256.189332 265.773548 
L 257.385113 265.585577 
L 257.983004 264.809768 
L 259.776675 264.548956 
L 260.673511 264.048296 
L 261.869292 263.88387 
L 262.467182 263.913176 
L 262.766128 263.097552 
L 263.065073 262.951741 
L 263.364018 262.549346 
L 264.260854 262.26719 
L 264.559799 262.086964 
L 264.858744 262.101619 
L 265.15769 261.781132 
L 265.75558 261.810438 
L 266.054525 261.624631 
L 266.353471 261.639286 
L 266.951361 261.259607 
L 268.745033 260.939129 
L 269.342923 260.383909 
L 271.43554 260.135761 
L 273.229211 260.223678 
L 273.528157 259.90064 
L 273.827102 259.915291 
L 274.126047 259.622552 
L 278.610226 259.784547 
L 279.208117 259.753201 
L 279.806007 259.772888 
L 280.104952 259.65405 
L 282.496514 259.771273 
L 282.79546 259.524901 
L 283.39335 258.672933 
L 283.991241 258.301377 
L 284.888076 256.573582 
L 285.187022 256.353191 
L 285.485967 255.96107 
L 285.784912 255.257637 
L 287.279638 253.418975 
L 287.877529 252.69365 
L 289.6712 251.501199 
L 289.970146 251.41779 
L 290.269091 250.950949 
L 291.763817 250.937988 
L 292.660653 250.937835 
L 293.557489 250.870759 
L 294.155379 250.80281 
L 295.052215 250.814732 
L 295.35116 250.488431 
L 298.340613 250.533491 
L 298.639558 250.303844 
L 298.938503 250.262855 
L 299.835339 249.833001 
L 300.43323 248.986348 
L 300.732175 248.87884 
L 301.03112 248.620047 
L 301.629011 248.495402 
L 303.422682 246.883804 
L 303.721627 246.800519 
L 304.319518 246.058644 
L 304.618463 245.825089 
L 306.71108 242.548322 
L 307.607916 242.029331 
L 307.906861 241.703512 
L 308.205806 241.087501 
L 308.803697 240.550591 
L 309.102642 240.004092 
L 309.401587 239.713875 
L 309.700532 239.242368 
L 309.999478 238.068578 
L 310.597368 238.032687 
L 310.896313 237.820249 
L 311.494204 236.939391 
L 311.793149 236.135838 
L 312.689985 235.271618 
L 312.98893 235.157362 
L 313.287875 234.519122 
L 313.586821 234.401796 
L 314.184711 234.033768 
L 315.081547 233.518849 
L 317.473109 232.621119 
L 318.070999 232.156165 
L 318.369945 231.959515 
L 318.967835 231.988825 
L 319.266781 231.805549 
L 319.565726 231.765355 
L 319.864671 231.480735 
L 323.750959 231.566768 
L 325.843576 231.550597 
L 326.142521 230.83527 
L 327.637248 230.908536 
L 327.936193 230.646154 
L 329.430919 230.647073 
L 330.02881 229.91318 
L 330.327755 229.592504 
L 330.6267 229.105596 
L 330.925645 228.861533 
L 331.224591 228.470084 
L 331.523536 228.484734 
L 331.822481 228.199575 
L 332.420372 228.157242 
L 333.915098 227.24829 
L 334.512988 226.897163 
L 335.110879 226.565046 
L 335.409824 226.473161 
L 336.007715 225.801695 
L 336.30666 225.409608 
L 336.90455 224.992612 
L 337.801386 224.00919 
L 338.100331 223.553789 
L 339.296113 222.791341 
L 339.894003 221.981045 
L 340.192948 221.830701 
L 340.790839 221.310507 
L 341.089784 221.135424 
L 341.388729 220.616746 
L 342.285565 220.159301 
L 342.58451 219.745503 
L 344.677127 218.75855 
L 345.573963 218.639988 
L 345.872908 218.304768 
L 347.068689 218.313307 
L 347.367634 218.062452 
L 348.862361 218.135714 
L 349.161306 217.926342 
L 350.656032 217.942473 
L 350.954977 217.743894 
L 352.150758 217.802505 
L 352.449704 217.648848 
L 353.94443 217.706606 
L 354.243375 216.838618 
L 355.738101 216.911885 
L 356.037047 216.77418 
L 357.232828 216.832791 
L 357.531773 216.578346 
L 358.727554 216.636962 
L 359.923335 215.553652 
L 360.22228 214.246995 
L 360.820171 213.969331 
L 361.418061 213.463838 
L 361.717007 213.215912 
L 362.015952 212.758879 
L 362.314897 212.586763 
L 362.912788 211.864005 
L 363.809623 210.340922 
L 364.108569 210.131274 
L 365.005404 208.706435 
L 365.30435 207.953716 
L 365.603295 207.621884 
L 365.90224 207.488469 
L 366.799076 205.849206 
L 367.098021 205.181132 
L 368.293802 203.865009 
L 368.592747 203.446521 
L 368.891693 202.661753 
L 369.190638 202.469521 
L 370.087474 201.22061 
L 370.386419 200.400671 
L 370.685364 200.222517 
L 370.984309 199.781462 
L 371.283255 199.70649 
L 371.881145 199.14874 
L 372.18009 198.255559 
L 372.479036 198.1168 
L 373.674817 196.740652 
L 374.272707 196.511812 
L 374.571652 196.220899 
L 374.870598 196.194017 
L 375.169543 195.912479 
L 375.767433 194.833636 
L 377.26216 194.330141 
L 377.86005 194.238256 
L 378.158995 193.595898 
L 383.241065 193.824841 
L 383.838955 193.761013 
L 384.735791 193.780613 
L 385.034736 193.423464 
L 390.415751 193.622941 
L 391.611532 192.611863 
L 391.910477 192.192048 
L 395.49782 192.188664 
L 397.291492 192.195769 
L 397.889382 192.16348 
L 398.487273 192.192786 
L 398.487273 192.192786 
" style="fill:none;stroke:#1f77b4;stroke-linecap:square;stroke-width:1.5;"/>
   </g>
   <g id="patch_8">
    <path d="M 57.6 307.584 
L 57.6 186.624 
" style="fill:none;stroke:#000000;stroke-linecap:square;stroke-linejoin:miter;stroke-width:0.8;"/>
   </g>
   <g id="patch_9">
    <path d="M 414.72 307.584 
L 414.72 186.624 
" style="fill:none;stroke:#000000;stroke-linecap:square;stroke-linejoin:miter;stroke-width:0.8;"/>
   </g>
   <g id="patch_10">
    <path d="M 57.6 307.584 
L 414.72 307.584 
" style="fill:none;stroke:#000000;stroke-linecap:square;stroke-linejoin:miter;stroke-width:0.8;"/>
   </g>
   <g id="patch_11">
    <path d="M 57.6 186.624 
L 414.72 186.624 
" style="fill:none;stroke:#000000;stroke-linecap:square;stroke-linejoin:miter;stroke-width:0.8;"/>
   </g>
  </g>
 </g>
 <defs>
  <clipPath id="p28d70cacbe">
   <rect height="120.96" width="357.12" x="57.6" y="41.472"/>
  </clipPath>
  <clipPath id="p73c012364a">
   <rect height="120.96" width="357.12" x="57.6" y="186.624"/>
  </clipPath>
 </defs>
</svg>
